<svg xmlns="http://www.w3.org/2000/svg" viewBox="0 0 960 400" width="960" height="400">
  <defs>
    <linearGradient id="gR" x1="0" y1="0" x2="0" y2="1">
      <stop offset="0%" stop-color="#f78166" stop-opacity="0.25"/>
      <stop offset="100%" stop-color="#f78166" stop-opacity="0.02"/>
    </linearGradient>
    <linearGradient id="gO" x1="0" y1="0" x2="0" y2="1">
      <stop offset="0%" stop-color="#58a6ff" stop-opacity="0.25"/>
      <stop offset="100%" stop-color="#58a6ff" stop-opacity="0.02"/>
    </linearGradient>
    <linearGradient id="gOp" x1="0" y1="0" x2="0" y2="1">
      <stop offset="0%" stop-color="#3fb950" stop-opacity="0.25"/>
      <stop offset="100%" stop-color="#3fb950" stop-opacity="0.02"/>
    </linearGradient>
    <linearGradient id="gM" x1="0" y1="0" x2="0" y2="1">
      <stop offset="0%" stop-color="#d2a8ff" stop-opacity="0.25"/>
      <stop offset="100%" stop-color="#d2a8ff" stop-opacity="0.02"/>
    </linearGradient>
    <linearGradient id="gC" x1="0" y1="0" x2="0" y2="1">
      <stop offset="0%" stop-color="#f85149" stop-opacity="0.25"/>
      <stop offset="100%" stop-color="#f85149" stop-opacity="0.02"/>
    </linearGradient>
  </defs>
  <rect width="960" height="400" rx="12" fill="#0d1117"/>
  <rect width="960" height="400" rx="12" fill="none" stroke="#30363d" stroke-width="1"/>
  <text x="55" y="30" fill="#e6edf3" font-size="15" font-weight="600" font-family="-apple-system,BlinkMacSystemFont,Segoe UI,Helvetica,Arial,sans-serif">GitHub Activity — jlaportebot</text>
  <text x="880" y="30" fill="#8b949e" font-size="11" text-anchor="end" font-family="-apple-system,BlinkMacSystemFont,Segoe UI,Helvetica,Arial,sans-serif">Updated Jun 27, 2026</text>
  <line x1="55" y1="340.0" x2="880" y2="340.0" stroke="#21262d" stroke-width="1"/>
  <text x="47" y="344.0" fill="#8b949e" font-size="11" text-anchor="end" font-family="-apple-system,BlinkMacSystemFont,Segoe UI,Helvetica,Arial,sans-serif">0</text>
  <line x1="55" y1="328.0" x2="880" y2="328.0" stroke="#21262d" stroke-width="1"/>
  <text x="47" y="332.0" fill="#8b949e" font-size="11" text-anchor="end" font-family="-apple-system,BlinkMacSystemFont,Segoe UI,Helvetica,Arial,sans-serif">10</text>
  <line x1="55" y1="315.9" x2="880" y2="315.9" stroke="#21262d" stroke-width="1"/>
  <text x="47" y="319.9" fill="#8b949e" font-size="11" text-anchor="end" font-family="-apple-system,BlinkMacSystemFont,Segoe UI,Helvetica,Arial,sans-serif">20</text>
  <line x1="55" y1="303.9" x2="880" y2="303.9" stroke="#21262d" stroke-width="1"/>
  <text x="47" y="307.9" fill="#8b949e" font-size="11" text-anchor="end" font-family="-apple-system,BlinkMacSystemFont,Segoe UI,Helvetica,Arial,sans-serif">30</text>
  <line x1="55" y1="291.9" x2="880" y2="291.9" stroke="#21262d" stroke-width="1"/>
  <text x="47" y="295.9" fill="#8b949e" font-size="11" text-anchor="end" font-family="-apple-system,BlinkMacSystemFont,Segoe UI,Helvetica,Arial,sans-serif">40</text>
  <line x1="55" y1="279.8" x2="880" y2="279.8" stroke="#21262d" stroke-width="1"/>
  <text x="47" y="283.8" fill="#8b949e" font-size="11" text-anchor="end" font-family="-apple-system,BlinkMacSystemFont,Segoe UI,Helvetica,Arial,sans-serif">50</text>
  <line x1="55" y1="267.8" x2="880" y2="267.8" stroke="#21262d" stroke-width="1"/>
  <text x="47" y="271.8" fill="#8b949e" font-size="11" text-anchor="end" font-family="-apple-system,BlinkMacSystemFont,Segoe UI,Helvetica,Arial,sans-serif">60</text>
  <line x1="55" y1="255.8" x2="880" y2="255.8" stroke="#21262d" stroke-width="1"/>
  <text x="47" y="259.8" fill="#8b949e" font-size="11" text-anchor="end" font-family="-apple-system,BlinkMacSystemFont,Segoe UI,Helvetica,Arial,sans-serif">70</text>
  <line x1="55" y1="243.7" x2="880" y2="243.7" stroke="#21262d" stroke-width="1"/>
  <text x="47" y="247.7" fill="#8b949e" font-size="11" text-anchor="end" font-family="-apple-system,BlinkMacSystemFont,Segoe UI,Helvetica,Arial,sans-serif">80</text>
  <line x1="55" y1="231.7" x2="880" y2="231.7" stroke="#21262d" stroke-width="1"/>
  <text x="47" y="235.7" fill="#8b949e" font-size="11" text-anchor="end" font-family="-apple-system,BlinkMacSystemFont,Segoe UI,Helvetica,Arial,sans-serif">90</text>
  <line x1="55" y1="219.7" x2="880" y2="219.7" stroke="#21262d" stroke-width="1"/>
  <text x="47" y="223.7" fill="#8b949e" font-size="11" text-anchor="end" font-family="-apple-system,BlinkMacSystemFont,Segoe UI,Helvetica,Arial,sans-serif">100</text>
  <line x1="55" y1="207.6" x2="880" y2="207.6" stroke="#21262d" stroke-width="1"/>
  <text x="47" y="211.6" fill="#8b949e" font-size="11" text-anchor="end" font-family="-apple-system,BlinkMacSystemFont,Segoe UI,Helvetica,Arial,sans-serif">110</text>
  <line x1="55" y1="195.6" x2="880" y2="195.6" stroke="#21262d" stroke-width="1"/>
  <text x="47" y="199.6" fill="#8b949e" font-size="11" text-anchor="end" font-family="-apple-system,BlinkMacSystemFont,Segoe UI,Helvetica,Arial,sans-serif">120</text>
  <line x1="55" y1="183.6" x2="880" y2="183.6" stroke="#21262d" stroke-width="1"/>
  <text x="47" y="187.6" fill="#8b949e" font-size="11" text-anchor="end" font-family="-apple-system,BlinkMacSystemFont,Segoe UI,Helvetica,Arial,sans-serif">130</text>
  <line x1="55" y1="171.5" x2="880" y2="171.5" stroke="#21262d" stroke-width="1"/>
  <text x="47" y="175.5" fill="#8b949e" font-size="11" text-anchor="end" font-family="-apple-system,BlinkMacSystemFont,Segoe UI,Helvetica,Arial,sans-serif">140</text>
  <line x1="55" y1="159.5" x2="880" y2="159.5" stroke="#21262d" stroke-width="1"/>
  <text x="47" y="163.5" fill="#8b949e" font-size="11" text-anchor="end" font-family="-apple-system,BlinkMacSystemFont,Segoe UI,Helvetica,Arial,sans-serif">150</text>
  <line x1="55" y1="147.5" x2="880" y2="147.5" stroke="#21262d" stroke-width="1"/>
  <text x="47" y="151.5" fill="#8b949e" font-size="11" text-anchor="end" font-family="-apple-system,BlinkMacSystemFont,Segoe UI,Helvetica,Arial,sans-serif">160</text>
  <line x1="55" y1="135.4" x2="880" y2="135.4" stroke="#21262d" stroke-width="1"/>
  <text x="47" y="139.4" fill="#8b949e" font-size="11" text-anchor="end" font-family="-apple-system,BlinkMacSystemFont,Segoe UI,Helvetica,Arial,sans-serif">170</text>
  <line x1="55" y1="123.4" x2="880" y2="123.4" stroke="#21262d" stroke-width="1"/>
  <text x="47" y="127.4" fill="#8b949e" font-size="11" text-anchor="end" font-family="-apple-system,BlinkMacSystemFont,Segoe UI,Helvetica,Arial,sans-serif">180</text>
  <line x1="55" y1="111.4" x2="880" y2="111.4" stroke="#21262d" stroke-width="1"/>
  <text x="47" y="115.4" fill="#8b949e" font-size="11" text-anchor="end" font-family="-apple-system,BlinkMacSystemFont,Segoe UI,Helvetica,Arial,sans-serif">190</text>
  <line x1="55" y1="99.3" x2="880" y2="99.3" stroke="#21262d" stroke-width="1"/>
  <text x="47" y="103.3" fill="#8b949e" font-size="11" text-anchor="end" font-family="-apple-system,BlinkMacSystemFont,Segoe UI,Helvetica,Arial,sans-serif">200</text>
  <line x1="55" y1="87.3" x2="880" y2="87.3" stroke="#21262d" stroke-width="1"/>
  <text x="47" y="91.3" fill="#8b949e" font-size="11" text-anchor="end" font-family="-apple-system,BlinkMacSystemFont,Segoe UI,Helvetica,Arial,sans-serif">210</text>
  <line x1="55" y1="75.3" x2="880" y2="75.3" stroke="#21262d" stroke-width="1"/>
  <text x="47" y="79.3" fill="#8b949e" font-size="11" text-anchor="end" font-family="-apple-system,BlinkMacSystemFont,Segoe UI,Helvetica,Arial,sans-serif">220</text>
  <line x1="55" y1="63.2" x2="880" y2="63.2" stroke="#21262d" stroke-width="1"/>
  <text x="47" y="67.2" fill="#8b949e" font-size="11" text-anchor="end" font-family="-apple-system,BlinkMacSystemFont,Segoe UI,Helvetica,Arial,sans-serif">230</text>
  <line x1="55" y1="51.2" x2="880" y2="51.2" stroke="#21262d" stroke-width="1"/>
  <text x="47" y="55.2" fill="#8b949e" font-size="11" text-anchor="end" font-family="-apple-system,BlinkMacSystemFont,Segoe UI,Helvetica,Arial,sans-serif">240</text>
  <line x1="55.0" y1="50" x2="55.0" y2="340" stroke="#21262d" stroke-width="1" stroke-dasharray="4,4"/>
  <text x="55.0" y="360" fill="#8b949e" font-size="10" text-anchor="middle" font-family="-apple-system,BlinkMacSystemFont,Segoe UI,Helvetica,Arial,sans-serif">May 02</text>
  <line x1="172.9" y1="50" x2="172.9" y2="340" stroke="#21262d" stroke-width="1" stroke-dasharray="4,4"/>
  <text x="172.9" y="360" fill="#8b949e" font-size="10" text-anchor="middle" font-family="-apple-system,BlinkMacSystemFont,Segoe UI,Helvetica,Arial,sans-serif">May 10</text>
  <line x1="290.7" y1="50" x2="290.7" y2="340" stroke="#21262d" stroke-width="1" stroke-dasharray="4,4"/>
  <text x="290.7" y="360" fill="#8b949e" font-size="10" text-anchor="middle" font-family="-apple-system,BlinkMacSystemFont,Segoe UI,Helvetica,Arial,sans-serif">May 18</text>
  <line x1="408.6" y1="50" x2="408.6" y2="340" stroke="#21262d" stroke-width="1" stroke-dasharray="4,4"/>
  <text x="408.6" y="360" fill="#8b949e" font-size="10" text-anchor="middle" font-family="-apple-system,BlinkMacSystemFont,Segoe UI,Helvetica,Arial,sans-serif">May 26</text>
  <line x1="526.4" y1="50" x2="526.4" y2="340" stroke="#21262d" stroke-width="1" stroke-dasharray="4,4"/>
  <text x="526.4" y="360" fill="#8b949e" font-size="10" text-anchor="middle" font-family="-apple-system,BlinkMacSystemFont,Segoe UI,Helvetica,Arial,sans-serif">Jun 03</text>
  <line x1="644.3" y1="50" x2="644.3" y2="340" stroke="#21262d" stroke-width="1" stroke-dasharray="4,4"/>
  <text x="644.3" y="360" fill="#8b949e" font-size="10" text-anchor="middle" font-family="-apple-system,BlinkMacSystemFont,Segoe UI,Helvetica,Arial,sans-serif">Jun 11</text>
  <line x1="762.1" y1="50" x2="762.1" y2="340" stroke="#21262d" stroke-width="1" stroke-dasharray="4,4"/>
  <text x="762.1" y="360" fill="#8b949e" font-size="10" text-anchor="middle" font-family="-apple-system,BlinkMacSystemFont,Segoe UI,Helvetica,Arial,sans-serif">Jun 19</text>
  <line x1="880.0" y1="50" x2="880.0" y2="340" stroke="#21262d" stroke-width="1" stroke-dasharray="4,4"/>
  <text x="880.0" y="360" fill="#8b949e" font-size="10" text-anchor="middle" font-family="-apple-system,BlinkMacSystemFont,Segoe UI,Helvetica,Arial,sans-serif">Jun 27</text>
  <path d="M55.0,340.0L69.7,325.6L84.5,317.1L99.2,312.3L113.9,305.1L128.7,300.3L143.4,296.7L158.1,296.7L172.9,296.7L187.6,296.7L202.3,296.7L217.1,296.7L231.8,296.7L246.5,296.7L261.2,295.5L276.0,290.7L290.7,285.9L305.4,279.8L320.2,272.6L334.9,265.4L349.6,258.2L364.4,252.2L379.1,247.3L393.8,244.9L408.6,241.3L423.3,228.1L438.0,226.9L452.8,220.9L467.5,212.4L482.2,206.4L497.0,201.6L511.7,201.6L526.4,201.6L541.2,201.6L555.9,201.6L570.6,201.6L585.4,194.4L600.1,184.8L614.8,181.2L629.6,173.9L644.3,169.1L659.0,161.9L673.8,151.1L688.5,145.1L703.2,139.0L717.9,133.0L732.7,122.2L747.4,115.0L762.1,105.4L776.9,98.1L791.6,92.1L806.3,87.3L821.1,80.1L835.8,71.7L850.5,66.8L865.3,63.2L880.0,56.0L880.0,340.0L55.0,340.0Z" fill="url(#gO)"/>
  <path d="M55.0,338.8L69.7,338.8L84.5,338.8L99.2,338.8L113.9,338.8L128.7,338.8L143.4,338.8L158.1,338.8L172.9,338.8L187.6,338.8L202.3,338.8L217.1,338.8L231.8,338.8L246.5,338.8L261.2,338.8L276.0,335.2L290.7,335.2L305.4,335.2L320.2,335.2L334.9,335.2L349.6,335.2L364.4,335.2L379.1,334.0L393.8,330.4L408.6,330.4L423.3,329.2L438.0,329.2L452.8,329.2L467.5,329.2L482.2,329.2L497.0,326.8L511.7,326.8L526.4,326.8L541.2,326.8L555.9,326.8L570.6,326.8L585.4,326.8L600.1,324.4L614.8,309.9L629.6,309.9L644.3,309.9L659.0,309.9L673.8,300.3L688.5,300.3L703.2,300.3L717.9,300.3L732.7,300.3L747.4,297.9L762.1,297.9L776.9,296.7L791.6,295.5L806.3,294.3L821.1,293.1L835.8,290.7L850.5,285.9L865.3,284.6L880.0,283.4L880.0,340.0L55.0,340.0Z" fill="url(#gR)"/>
  <path d="M55.0,340.0L69.7,325.6L84.5,317.1L99.2,312.3L113.9,305.1L128.7,300.3L143.4,296.7L158.1,296.7L172.9,296.7L187.6,296.7L202.3,296.7L217.1,296.7L231.8,296.7L246.5,296.7L261.2,295.5L276.0,290.7L290.7,285.9L305.4,279.8L320.2,272.6L334.9,265.4L349.6,258.2L364.4,252.2L379.1,247.3L393.8,244.9L408.6,241.3L423.3,228.1L438.0,226.9L452.8,220.9L467.5,212.4L482.2,206.4L497.0,201.6L511.7,201.6L526.4,201.6L541.2,201.6L555.9,201.6L570.6,201.6L585.4,194.4L600.1,184.8L614.8,181.2L629.6,173.9L644.3,169.1L659.0,161.9L673.8,151.1L688.5,145.1L703.2,139.0L717.9,133.0L732.7,122.2L747.4,115.0L762.1,105.4L776.9,98.1L791.6,92.1L806.3,87.3L821.1,80.1L835.8,71.7L850.5,66.8L865.3,63.2L880.0,56.0" fill="none" stroke="#58a6ff" stroke-width="2.5" stroke-linecap="round" stroke-linejoin="round"/>
  <path d="M55.0,338.8L69.7,338.8L84.5,338.8L99.2,338.8L113.9,338.8L128.7,338.8L143.4,338.8L158.1,338.8L172.9,338.8L187.6,338.8L202.3,338.8L217.1,338.8L231.8,338.8L246.5,338.8L261.2,338.8L276.0,335.2L290.7,335.2L305.4,335.2L320.2,335.2L334.9,335.2L349.6,335.2L364.4,335.2L379.1,334.0L393.8,330.4L408.6,330.4L423.3,329.2L438.0,329.2L452.8,329.2L467.5,329.2L482.2,329.2L497.0,326.8L511.7,326.8L526.4,326.8L541.2,326.8L555.9,326.8L570.6,326.8L585.4,326.8L600.1,324.4L614.8,309.9L629.6,309.9L644.3,309.9L659.0,309.9L673.8,300.3L688.5,300.3L703.2,300.3L717.9,300.3L732.7,300.3L747.4,297.9L762.1,297.9L776.9,296.7L791.6,295.5L806.3,294.3L821.1,293.1L835.8,290.7L850.5,285.9L865.3,284.6L880.0,283.4" fill="none" stroke="#f78166" stroke-width="2.5" stroke-linecap="round" stroke-linejoin="round"/>
  <path d="M55.0,340.0L69.7,331.6L84.5,325.6L99.2,323.2L113.9,317.1L128.7,318.3L143.4,314.7L158.1,315.9L172.9,315.9L187.6,317.1L202.3,317.1L217.1,317.1L231.8,317.1L246.5,317.1L261.2,315.9L276.0,314.7L290.7,313.5L305.4,309.9L320.2,302.7L334.9,297.9L349.6,293.1L364.4,289.5L379.1,289.5L393.8,290.7L408.6,293.1L423.3,288.3L438.0,287.1L452.8,287.1L467.5,283.4L482.2,289.5L497.0,285.9L511.7,285.9L526.4,285.9L541.2,285.9L555.9,293.1L570.6,293.1L585.4,291.9L600.1,297.9L614.8,340.0L629.6,340.0L644.3,340.0L659.0,340.0L673.8,335.2L688.5,335.2L703.2,332.8L717.9,332.8L732.7,331.6L747.4,328.0L762.1,329.2L776.9,326.8L791.6,326.8L806.3,329.2L821.1,328.0L835.8,329.2L850.5,325.6L865.3,326.8L880.0,326.8" fill="none" stroke="#3fb950" stroke-width="2.5" stroke-linecap="round" stroke-linejoin="round"/>
  <path d="M55.0,340.0L69.7,340.0L84.5,338.8L99.2,337.6L113.9,337.6L128.7,336.4L143.4,336.4L158.1,335.2L172.9,335.2L187.6,335.2L202.3,335.2L217.1,335.2L231.8,335.2L246.5,335.2L261.2,335.2L276.0,334.0L290.7,331.6L305.4,330.4L320.2,330.4L334.9,330.4L349.6,328.0L364.4,328.0L379.1,328.0L393.8,326.8L408.6,326.8L423.3,319.5L438.0,319.5L452.8,314.7L467.5,311.1L482.2,306.3L497.0,305.1L511.7,305.1L526.4,305.1L541.2,305.1L555.9,302.7L570.6,302.7L585.4,300.3L600.1,296.7L614.8,294.3L629.6,287.1L644.3,282.2L659.0,275.0L673.8,271.4L688.5,266.6L703.2,264.2L717.9,258.2L732.7,248.5L747.4,244.9L762.1,237.7L776.9,234.1L791.6,228.1L806.3,220.9L821.1,214.9L835.8,205.2L850.5,204.0L865.3,201.6L880.0,196.8" fill="none" stroke="#d2a8ff" stroke-width="2.5" stroke-linecap="round" stroke-linejoin="round"/>
  <path d="M55.0,340.0L69.7,334.0L84.5,332.8L99.2,331.6L113.9,330.4L128.7,325.6L143.4,325.6L158.1,325.6L172.9,325.6L187.6,324.4L202.3,324.4L217.1,324.4L231.8,324.4L246.5,324.4L261.2,324.4L276.0,322.0L290.7,320.7L305.4,319.5L320.2,319.5L334.9,317.1L349.6,317.1L364.4,314.7L379.1,309.9L393.8,307.5L408.6,301.5L423.3,300.3L438.0,300.3L452.8,299.1L467.5,297.9L482.2,290.7L497.0,290.7L511.7,290.7L526.4,290.7L541.2,290.7L555.9,285.9L570.6,285.9L585.4,282.2L600.1,270.2L614.8,226.9L629.6,226.9L644.3,226.9L659.0,226.9L673.8,224.5L688.5,223.3L703.2,222.1L717.9,222.1L732.7,222.1L747.4,222.1L762.1,218.5L776.9,217.3L791.6,217.3L806.3,217.3L821.1,217.3L835.8,217.3L850.5,217.3L865.3,214.9L880.0,212.4" fill="none" stroke="#f85149" stroke-width="2.5" stroke-linecap="round" stroke-linejoin="round"/>
  <circle cx="880.0" cy="56.0" r="3.5" fill="#58a6ff"/>
  <text x="889.0" y="60.0" fill="#58a6ff" font-size="11" font-weight="600" font-family="-apple-system,BlinkMacSystemFont,Segoe UI,Helvetica,Arial,sans-serif">236</text>
  <circle cx="880.0" cy="283.4" r="3.5" fill="#f78166"/>
  <text x="889.0" y="287.4" fill="#f78166" font-size="11" font-weight="600" font-family="-apple-system,BlinkMacSystemFont,Segoe UI,Helvetica,Arial,sans-serif">47</text>
  <circle cx="880.0" cy="326.8" r="3.5" fill="#3fb950"/>
  <text x="889.0" y="330.8" fill="#3fb950" font-size="11" font-weight="600" font-family="-apple-system,BlinkMacSystemFont,Segoe UI,Helvetica,Arial,sans-serif">11</text>
  <circle cx="880.0" cy="196.8" r="3.5" fill="#d2a8ff"/>
  <text x="889.0" y="200.8" fill="#d2a8ff" font-size="11" font-weight="600" font-family="-apple-system,BlinkMacSystemFont,Segoe UI,Helvetica,Arial,sans-serif">119</text>
  <circle cx="880.0" cy="212.4" r="3.5" fill="#f85149"/>
  <text x="889.0" y="216.4" fill="#f85149" font-size="11" font-weight="600" font-family="-apple-system,BlinkMacSystemFont,Segoe UI,Helvetica,Arial,sans-serif">106</text>
  <line x1="55" y1="368" x2="71" y2="368" stroke="#f78166" stroke-width="2.5" stroke-linecap="round"/>
  <text x="77" y="372" fill="#8b949e" font-size="11" font-family="-apple-system,BlinkMacSystemFont,Segoe UI,Helvetica,Arial,sans-serif">Repos</text>
  <line x1="255" y1="368" x2="271" y2="368" stroke="#58a6ff" stroke-width="2.5" stroke-linecap="round"/>
  <text x="277" y="372" fill="#8b949e" font-size="11" font-family="-apple-system,BlinkMacSystemFont,Segoe UI,Helvetica,Arial,sans-serif">PRs Opened</text>
  <line x1="455" y1="368" x2="471" y2="368" stroke="#3fb950" stroke-width="2.5" stroke-linecap="round"/>
  <text x="477" y="372" fill="#8b949e" font-size="11" font-family="-apple-system,BlinkMacSystemFont,Segoe UI,Helvetica,Arial,sans-serif">Open PRs</text>
  <line x1="55" y1="386" x2="71" y2="386" stroke="#d2a8ff" stroke-width="2.5" stroke-linecap="round"/>
  <text x="77" y="390" fill="#8b949e" font-size="11" font-family="-apple-system,BlinkMacSystemFont,Segoe UI,Helvetica,Arial,sans-serif">Merged</text>
  <line x1="255" y1="386" x2="271" y2="386" stroke="#f85149" stroke-width="2.5" stroke-linecap="round"/>
  <text x="277" y="390" fill="#8b949e" font-size="11" font-family="-apple-system,BlinkMacSystemFont,Segoe UI,Helvetica,Arial,sans-serif">Closed</text>
</svg>