<svg xmlns="http://www.w3.org/2000/svg" viewBox="0 0 960 400" width="960" height="400">
  <defs>
    <linearGradient id="gR" x1="0" y1="0" x2="0" y2="1">
      <stop offset="0%" stop-color="#f78166" stop-opacity="0.25"/>
      <stop offset="100%" stop-color="#f78166" stop-opacity="0.02"/>
    </linearGradient>
    <linearGradient id="gO" x1="0" y1="0" x2="0" y2="1">
      <stop offset="0%" stop-color="#58a6ff" stop-opacity="0.25"/>
      <stop offset="100%" stop-color="#58a6ff" stop-opacity="0.02"/>
    </linearGradient>
    <linearGradient id="gOp" x1="0" y1="0" x2="0" y2="1">
      <stop offset="0%" stop-color="#3fb950" stop-opacity="0.25"/>
      <stop offset="100%" stop-color="#3fb950" stop-opacity="0.02"/>
    </linearGradient>
    <linearGradient id="gM" x1="0" y1="0" x2="0" y2="1">
      <stop offset="0%" stop-color="#d2a8ff" stop-opacity="0.25"/>
      <stop offset="100%" stop-color="#d2a8ff" stop-opacity="0.02"/>
    </linearGradient>
    <linearGradient id="gC" x1="0" y1="0" x2="0" y2="1">
      <stop offset="0%" stop-color="#f85149" stop-opacity="0.25"/>
      <stop offset="100%" stop-color="#f85149" stop-opacity="0.02"/>
    </linearGradient>
  </defs>
  <rect width="960" height="400" rx="12" fill="#0d1117"/>
  <rect width="960" height="400" rx="12" fill="none" stroke="#30363d" stroke-width="1"/>
  <text x="55" y="30" fill="#e6edf3" font-size="15" font-weight="600" font-family="-apple-system,BlinkMacSystemFont,Segoe UI,Helvetica,Arial,sans-serif">GitHub Activity — jlaportebot</text>
  <text x="880" y="30" fill="#8b949e" font-size="11" text-anchor="end" font-family="-apple-system,BlinkMacSystemFont,Segoe UI,Helvetica,Arial,sans-serif">Updated Jun 21, 2026</text>
  <line x1="55" y1="340.0" x2="880" y2="340.0" stroke="#21262d" stroke-width="1"/>
  <text x="47" y="344.0" fill="#8b949e" font-size="11" text-anchor="end" font-family="-apple-system,BlinkMacSystemFont,Segoe UI,Helvetica,Arial,sans-serif">0</text>
  <line x1="55" y1="326.1" x2="880" y2="326.1" stroke="#21262d" stroke-width="1"/>
  <text x="47" y="330.1" fill="#8b949e" font-size="11" text-anchor="end" font-family="-apple-system,BlinkMacSystemFont,Segoe UI,Helvetica,Arial,sans-serif">10</text>
  <line x1="55" y1="312.1" x2="880" y2="312.1" stroke="#21262d" stroke-width="1"/>
  <text x="47" y="316.1" fill="#8b949e" font-size="11" text-anchor="end" font-family="-apple-system,BlinkMacSystemFont,Segoe UI,Helvetica,Arial,sans-serif">20</text>
  <line x1="55" y1="298.2" x2="880" y2="298.2" stroke="#21262d" stroke-width="1"/>
  <text x="47" y="302.2" fill="#8b949e" font-size="11" text-anchor="end" font-family="-apple-system,BlinkMacSystemFont,Segoe UI,Helvetica,Arial,sans-serif">30</text>
  <line x1="55" y1="284.2" x2="880" y2="284.2" stroke="#21262d" stroke-width="1"/>
  <text x="47" y="288.2" fill="#8b949e" font-size="11" text-anchor="end" font-family="-apple-system,BlinkMacSystemFont,Segoe UI,Helvetica,Arial,sans-serif">40</text>
  <line x1="55" y1="270.3" x2="880" y2="270.3" stroke="#21262d" stroke-width="1"/>
  <text x="47" y="274.3" fill="#8b949e" font-size="11" text-anchor="end" font-family="-apple-system,BlinkMacSystemFont,Segoe UI,Helvetica,Arial,sans-serif">50</text>
  <line x1="55" y1="256.3" x2="880" y2="256.3" stroke="#21262d" stroke-width="1"/>
  <text x="47" y="260.3" fill="#8b949e" font-size="11" text-anchor="end" font-family="-apple-system,BlinkMacSystemFont,Segoe UI,Helvetica,Arial,sans-serif">60</text>
  <line x1="55" y1="242.4" x2="880" y2="242.4" stroke="#21262d" stroke-width="1"/>
  <text x="47" y="246.4" fill="#8b949e" font-size="11" text-anchor="end" font-family="-apple-system,BlinkMacSystemFont,Segoe UI,Helvetica,Arial,sans-serif">70</text>
  <line x1="55" y1="228.5" x2="880" y2="228.5" stroke="#21262d" stroke-width="1"/>
  <text x="47" y="232.5" fill="#8b949e" font-size="11" text-anchor="end" font-family="-apple-system,BlinkMacSystemFont,Segoe UI,Helvetica,Arial,sans-serif">80</text>
  <line x1="55" y1="214.5" x2="880" y2="214.5" stroke="#21262d" stroke-width="1"/>
  <text x="47" y="218.5" fill="#8b949e" font-size="11" text-anchor="end" font-family="-apple-system,BlinkMacSystemFont,Segoe UI,Helvetica,Arial,sans-serif">90</text>
  <line x1="55" y1="200.6" x2="880" y2="200.6" stroke="#21262d" stroke-width="1"/>
  <text x="47" y="204.6" fill="#8b949e" font-size="11" text-anchor="end" font-family="-apple-system,BlinkMacSystemFont,Segoe UI,Helvetica,Arial,sans-serif">100</text>
  <line x1="55" y1="186.6" x2="880" y2="186.6" stroke="#21262d" stroke-width="1"/>
  <text x="47" y="190.6" fill="#8b949e" font-size="11" text-anchor="end" font-family="-apple-system,BlinkMacSystemFont,Segoe UI,Helvetica,Arial,sans-serif">110</text>
  <line x1="55" y1="172.7" x2="880" y2="172.7" stroke="#21262d" stroke-width="1"/>
  <text x="47" y="176.7" fill="#8b949e" font-size="11" text-anchor="end" font-family="-apple-system,BlinkMacSystemFont,Segoe UI,Helvetica,Arial,sans-serif">120</text>
  <line x1="55" y1="158.8" x2="880" y2="158.8" stroke="#21262d" stroke-width="1"/>
  <text x="47" y="162.8" fill="#8b949e" font-size="11" text-anchor="end" font-family="-apple-system,BlinkMacSystemFont,Segoe UI,Helvetica,Arial,sans-serif">130</text>
  <line x1="55" y1="144.8" x2="880" y2="144.8" stroke="#21262d" stroke-width="1"/>
  <text x="47" y="148.8" fill="#8b949e" font-size="11" text-anchor="end" font-family="-apple-system,BlinkMacSystemFont,Segoe UI,Helvetica,Arial,sans-serif">140</text>
  <line x1="55" y1="130.9" x2="880" y2="130.9" stroke="#21262d" stroke-width="1"/>
  <text x="47" y="134.9" fill="#8b949e" font-size="11" text-anchor="end" font-family="-apple-system,BlinkMacSystemFont,Segoe UI,Helvetica,Arial,sans-serif">150</text>
  <line x1="55" y1="116.9" x2="880" y2="116.9" stroke="#21262d" stroke-width="1"/>
  <text x="47" y="120.9" fill="#8b949e" font-size="11" text-anchor="end" font-family="-apple-system,BlinkMacSystemFont,Segoe UI,Helvetica,Arial,sans-serif">160</text>
  <line x1="55" y1="103.0" x2="880" y2="103.0" stroke="#21262d" stroke-width="1"/>
  <text x="47" y="107.0" fill="#8b949e" font-size="11" text-anchor="end" font-family="-apple-system,BlinkMacSystemFont,Segoe UI,Helvetica,Arial,sans-serif">170</text>
  <line x1="55" y1="89.0" x2="880" y2="89.0" stroke="#21262d" stroke-width="1"/>
  <text x="47" y="93.0" fill="#8b949e" font-size="11" text-anchor="end" font-family="-apple-system,BlinkMacSystemFont,Segoe UI,Helvetica,Arial,sans-serif">180</text>
  <line x1="55" y1="75.1" x2="880" y2="75.1" stroke="#21262d" stroke-width="1"/>
  <text x="47" y="79.1" fill="#8b949e" font-size="11" text-anchor="end" font-family="-apple-system,BlinkMacSystemFont,Segoe UI,Helvetica,Arial,sans-serif">190</text>
  <line x1="55" y1="61.2" x2="880" y2="61.2" stroke="#21262d" stroke-width="1"/>
  <text x="47" y="65.2" fill="#8b949e" font-size="11" text-anchor="end" font-family="-apple-system,BlinkMacSystemFont,Segoe UI,Helvetica,Arial,sans-serif">200</text>
  <line x1="55.0" y1="50" x2="55.0" y2="340" stroke="#21262d" stroke-width="1" stroke-dasharray="4,4"/>
  <text x="55.0" y="360" fill="#8b949e" font-size="10" text-anchor="middle" font-family="-apple-system,BlinkMacSystemFont,Segoe UI,Helvetica,Arial,sans-serif">May 02</text>
  <line x1="170.5" y1="50" x2="170.5" y2="340" stroke="#21262d" stroke-width="1" stroke-dasharray="4,4"/>
  <text x="170.5" y="360" fill="#8b949e" font-size="10" text-anchor="middle" font-family="-apple-system,BlinkMacSystemFont,Segoe UI,Helvetica,Arial,sans-serif">May 09</text>
  <line x1="286.0" y1="50" x2="286.0" y2="340" stroke="#21262d" stroke-width="1" stroke-dasharray="4,4"/>
  <text x="286.0" y="360" fill="#8b949e" font-size="10" text-anchor="middle" font-family="-apple-system,BlinkMacSystemFont,Segoe UI,Helvetica,Arial,sans-serif">May 16</text>
  <line x1="401.5" y1="50" x2="401.5" y2="340" stroke="#21262d" stroke-width="1" stroke-dasharray="4,4"/>
  <text x="401.5" y="360" fill="#8b949e" font-size="10" text-anchor="middle" font-family="-apple-system,BlinkMacSystemFont,Segoe UI,Helvetica,Arial,sans-serif">May 23</text>
  <line x1="517.0" y1="50" x2="517.0" y2="340" stroke="#21262d" stroke-width="1" stroke-dasharray="4,4"/>
  <text x="517.0" y="360" fill="#8b949e" font-size="10" text-anchor="middle" font-family="-apple-system,BlinkMacSystemFont,Segoe UI,Helvetica,Arial,sans-serif">May 30</text>
  <line x1="632.5" y1="50" x2="632.5" y2="340" stroke="#21262d" stroke-width="1" stroke-dasharray="4,4"/>
  <text x="632.5" y="360" fill="#8b949e" font-size="10" text-anchor="middle" font-family="-apple-system,BlinkMacSystemFont,Segoe UI,Helvetica,Arial,sans-serif">Jun 06</text>
  <line x1="748.0" y1="50" x2="748.0" y2="340" stroke="#21262d" stroke-width="1" stroke-dasharray="4,4"/>
  <text x="748.0" y="360" fill="#8b949e" font-size="10" text-anchor="middle" font-family="-apple-system,BlinkMacSystemFont,Segoe UI,Helvetica,Arial,sans-serif">Jun 13</text>
  <line x1="863.5" y1="50" x2="863.5" y2="340" stroke="#21262d" stroke-width="1" stroke-dasharray="4,4"/>
  <text x="863.5" y="360" fill="#8b949e" font-size="10" text-anchor="middle" font-family="-apple-system,BlinkMacSystemFont,Segoe UI,Helvetica,Arial,sans-serif">Jun 20</text>
  <line x1="880.0" y1="50" x2="880.0" y2="340" stroke="#21262d" stroke-width="1" stroke-dasharray="4,4"/>
  <text x="880.0" y="360" fill="#8b949e" font-size="10" text-anchor="middle" font-family="-apple-system,BlinkMacSystemFont,Segoe UI,Helvetica,Arial,sans-serif">Jun 21</text>
  <path d="M55.0,340.0L71.5,323.3L88.0,313.5L104.5,307.9L121.0,299.6L137.5,294.0L154.0,289.8L170.5,289.8L187.0,289.8L203.5,289.8L220.0,289.8L236.5,289.8L253.0,289.8L269.5,289.8L286.0,288.4L302.5,282.8L319.0,277.3L335.5,270.3L352.0,261.9L368.5,253.6L385.0,245.2L401.5,238.2L418.0,232.6L434.5,229.9L451.0,225.7L467.5,210.3L484.0,208.9L500.5,202.0L517.0,192.2L533.5,185.2L550.0,179.7L566.5,179.7L583.0,179.7L599.5,179.7L616.0,179.7L632.5,179.7L649.0,171.3L665.5,160.1L682.0,156.0L698.5,147.6L715.0,142.0L731.5,133.7L748.0,121.1L764.5,114.1L781.0,107.2L797.5,100.2L814.0,87.6L830.5,79.3L847.0,68.1L863.5,59.8L880.0,57.0L880.0,340.0L55.0,340.0Z" fill="url(#gO)"/>
  <path d="M55.0,338.6L71.5,338.6L88.0,338.6L104.5,338.6L121.0,338.6L137.5,338.6L154.0,338.6L170.5,338.6L187.0,338.6L203.5,338.6L220.0,338.6L236.5,338.6L253.0,338.6L269.5,338.6L286.0,338.6L302.5,334.4L319.0,334.4L335.5,334.4L352.0,334.4L368.5,334.4L385.0,334.4L401.5,334.4L418.0,333.0L434.5,328.8L451.0,328.8L467.5,327.5L484.0,327.5L500.5,327.5L517.0,327.5L533.5,327.5L550.0,324.7L566.5,324.7L583.0,324.7L599.5,324.7L616.0,324.7L632.5,324.7L649.0,324.7L665.5,321.9L682.0,305.1L698.5,305.1L715.0,305.1L731.5,305.1L748.0,294.0L764.5,294.0L781.0,294.0L797.5,294.0L814.0,294.0L830.5,291.2L847.0,291.2L863.5,289.8L880.0,289.8L880.0,340.0L55.0,340.0Z" fill="url(#gR)"/>
  <path d="M55.0,340.0L71.5,323.3L88.0,313.5L104.5,307.9L121.0,299.6L137.5,294.0L154.0,289.8L170.5,289.8L187.0,289.8L203.5,289.8L220.0,289.8L236.5,289.8L253.0,289.8L269.5,289.8L286.0,288.4L302.5,282.8L319.0,277.3L335.5,270.3L352.0,261.9L368.5,253.6L385.0,245.2L401.5,238.2L418.0,232.6L434.5,229.9L451.0,225.7L467.5,210.3L484.0,208.9L500.5,202.0L517.0,192.2L533.5,185.2L550.0,179.7L566.5,179.7L583.0,179.7L599.5,179.7L616.0,179.7L632.5,179.7L649.0,171.3L665.5,160.1L682.0,156.0L698.5,147.6L715.0,142.0L731.5,133.7L748.0,121.1L764.5,114.1L781.0,107.2L797.5,100.2L814.0,87.6L830.5,79.3L847.0,68.1L863.5,59.8L880.0,57.0" fill="none" stroke="#58a6ff" stroke-width="2.5" stroke-linecap="round" stroke-linejoin="round"/>
  <path d="M55.0,338.6L71.5,338.6L88.0,338.6L104.5,338.6L121.0,338.6L137.5,338.6L154.0,338.6L170.5,338.6L187.0,338.6L203.5,338.6L220.0,338.6L236.5,338.6L253.0,338.6L269.5,338.6L286.0,338.6L302.5,334.4L319.0,334.4L335.5,334.4L352.0,334.4L368.5,334.4L385.0,334.4L401.5,334.4L418.0,333.0L434.5,328.8L451.0,328.8L467.5,327.5L484.0,327.5L500.5,327.5L517.0,327.5L533.5,327.5L550.0,324.7L566.5,324.7L583.0,324.7L599.5,324.7L616.0,324.7L632.5,324.7L649.0,324.7L665.5,321.9L682.0,305.1L698.5,305.1L715.0,305.1L731.5,305.1L748.0,294.0L764.5,294.0L781.0,294.0L797.5,294.0L814.0,294.0L830.5,291.2L847.0,291.2L863.5,289.8L880.0,289.8" fill="none" stroke="#f78166" stroke-width="2.5" stroke-linecap="round" stroke-linejoin="round"/>
  <path d="M55.0,340.0L71.5,330.2L88.0,323.3L104.5,320.5L121.0,313.5L137.5,314.9L154.0,310.7L170.5,312.1L187.0,312.1L203.5,313.5L220.0,313.5L236.5,313.5L253.0,313.5L269.5,313.5L286.0,312.1L302.5,310.7L319.0,309.3L335.5,305.1L352.0,296.8L368.5,291.2L385.0,285.6L401.5,281.4L418.0,281.4L434.5,282.8L451.0,285.6L467.5,280.0L484.0,278.7L500.5,278.7L517.0,274.5L533.5,281.4L550.0,277.3L566.5,277.3L583.0,277.3L599.5,277.3L616.0,285.6L632.5,285.6L649.0,284.2L665.5,291.2L682.0,340.0L698.5,340.0L715.0,340.0L731.5,340.0L748.0,334.4L764.5,334.4L781.0,331.6L797.5,331.6L814.0,330.2L830.5,326.1L847.0,327.5L863.5,324.7L880.0,324.7" fill="none" stroke="#3fb950" stroke-width="2.5" stroke-linecap="round" stroke-linejoin="round"/>
  <path d="M55.0,340.0L71.5,340.0L88.0,338.6L104.5,337.2L121.0,337.2L137.5,335.8L154.0,335.8L170.5,334.4L187.0,334.4L203.5,334.4L220.0,334.4L236.5,334.4L253.0,334.4L269.5,334.4L286.0,334.4L302.5,333.0L319.0,330.2L335.5,328.8L352.0,328.8L368.5,328.8L385.0,326.1L401.5,326.1L418.0,326.1L434.5,324.7L451.0,324.7L467.5,316.3L484.0,316.3L500.5,310.7L517.0,306.5L533.5,301.0L550.0,299.6L566.5,299.6L583.0,299.6L599.5,299.6L616.0,296.8L632.5,296.8L649.0,294.0L665.5,289.8L682.0,287.0L698.5,278.7L715.0,273.1L731.5,264.7L748.0,260.5L764.5,255.0L781.0,252.2L797.5,245.2L814.0,234.0L830.5,229.9L847.0,221.5L863.5,217.3L880.0,214.5" fill="none" stroke="#d2a8ff" stroke-width="2.5" stroke-linecap="round" stroke-linejoin="round"/>
  <path d="M55.0,340.0L71.5,333.0L88.0,331.6L104.5,330.2L121.0,328.8L137.5,323.3L154.0,323.3L170.5,323.3L187.0,323.3L203.5,321.9L220.0,321.9L236.5,321.9L253.0,321.9L269.5,321.9L286.0,321.9L302.5,319.1L319.0,317.7L335.5,316.3L352.0,316.3L368.5,313.5L385.0,313.5L401.5,310.7L418.0,305.1L434.5,302.4L451.0,295.4L467.5,294.0L484.0,294.0L500.5,292.6L517.0,291.2L533.5,282.8L550.0,282.8L566.5,282.8L583.0,282.8L599.5,282.8L616.0,277.3L632.5,277.3L649.0,273.1L665.5,259.1L682.0,208.9L698.5,208.9L715.0,208.9L731.5,208.9L748.0,206.2L764.5,204.8L781.0,203.4L797.5,203.4L814.0,203.4L830.5,203.4L847.0,199.2L863.5,197.8L880.0,197.8" fill="none" stroke="#f85149" stroke-width="2.5" stroke-linecap="round" stroke-linejoin="round"/>
  <circle cx="880.0" cy="57.0" r="3.5" fill="#58a6ff"/>
  <text x="889.0" y="61.0" fill="#58a6ff" font-size="11" font-weight="600" font-family="-apple-system,BlinkMacSystemFont,Segoe UI,Helvetica,Arial,sans-serif">203</text>
  <circle cx="880.0" cy="289.8" r="3.5" fill="#f78166"/>
  <text x="889.0" y="293.8" fill="#f78166" font-size="11" font-weight="600" font-family="-apple-system,BlinkMacSystemFont,Segoe UI,Helvetica,Arial,sans-serif">36</text>
  <circle cx="880.0" cy="324.7" r="3.5" fill="#3fb950"/>
  <text x="889.0" y="328.7" fill="#3fb950" font-size="11" font-weight="600" font-family="-apple-system,BlinkMacSystemFont,Segoe UI,Helvetica,Arial,sans-serif">11</text>
  <circle cx="880.0" cy="214.5" r="3.5" fill="#d2a8ff"/>
  <text x="889.0" y="218.5" fill="#d2a8ff" font-size="11" font-weight="600" font-family="-apple-system,BlinkMacSystemFont,Segoe UI,Helvetica,Arial,sans-serif">90</text>
  <circle cx="880.0" cy="197.8" r="3.5" fill="#f85149"/>
  <text x="889.0" y="201.8" fill="#f85149" font-size="11" font-weight="600" font-family="-apple-system,BlinkMacSystemFont,Segoe UI,Helvetica,Arial,sans-serif">102</text>
  <line x1="55" y1="368" x2="71" y2="368" stroke="#f78166" stroke-width="2.5" stroke-linecap="round"/>
  <text x="77" y="372" fill="#8b949e" font-size="11" font-family="-apple-system,BlinkMacSystemFont,Segoe UI,Helvetica,Arial,sans-serif">Repos</text>
  <line x1="255" y1="368" x2="271" y2="368" stroke="#58a6ff" stroke-width="2.5" stroke-linecap="round"/>
  <text x="277" y="372" fill="#8b949e" font-size="11" font-family="-apple-system,BlinkMacSystemFont,Segoe UI,Helvetica,Arial,sans-serif">PRs Opened</text>
  <line x1="455" y1="368" x2="471" y2="368" stroke="#3fb950" stroke-width="2.5" stroke-linecap="round"/>
  <text x="477" y="372" fill="#8b949e" font-size="11" font-family="-apple-system,BlinkMacSystemFont,Segoe UI,Helvetica,Arial,sans-serif">Open PRs</text>
  <line x1="55" y1="386" x2="71" y2="386" stroke="#d2a8ff" stroke-width="2.5" stroke-linecap="round"/>
  <text x="77" y="390" fill="#8b949e" font-size="11" font-family="-apple-system,BlinkMacSystemFont,Segoe UI,Helvetica,Arial,sans-serif">Merged</text>
  <line x1="255" y1="386" x2="271" y2="386" stroke="#f85149" stroke-width="2.5" stroke-linecap="round"/>
  <text x="277" y="390" fill="#8b949e" font-size="11" font-family="-apple-system,BlinkMacSystemFont,Segoe UI,Helvetica,Arial,sans-serif">Closed</text>
</svg>