<svg xmlns="http://www.w3.org/2000/svg" viewBox="0 0 960 400" width="960" height="400">
  <defs>
    <linearGradient id="gR" x1="0" y1="0" x2="0" y2="1">
      <stop offset="0%" stop-color="#f78166" stop-opacity="0.25"/>
      <stop offset="100%" stop-color="#f78166" stop-opacity="0.02"/>
    </linearGradient>
    <linearGradient id="gO" x1="0" y1="0" x2="0" y2="1">
      <stop offset="0%" stop-color="#58a6ff" stop-opacity="0.25"/>
      <stop offset="100%" stop-color="#58a6ff" stop-opacity="0.02"/>
    </linearGradient>
    <linearGradient id="gOp" x1="0" y1="0" x2="0" y2="1">
      <stop offset="0%" stop-color="#3fb950" stop-opacity="0.25"/>
      <stop offset="100%" stop-color="#3fb950" stop-opacity="0.02"/>
    </linearGradient>
    <linearGradient id="gM" x1="0" y1="0" x2="0" y2="1">
      <stop offset="0%" stop-color="#d2a8ff" stop-opacity="0.25"/>
      <stop offset="100%" stop-color="#d2a8ff" stop-opacity="0.02"/>
    </linearGradient>
    <linearGradient id="gC" x1="0" y1="0" x2="0" y2="1">
      <stop offset="0%" stop-color="#f85149" stop-opacity="0.25"/>
      <stop offset="100%" stop-color="#f85149" stop-opacity="0.02"/>
    </linearGradient>
  </defs>
  <rect width="960" height="400" rx="12" fill="#0d1117"/>
  <rect width="960" height="400" rx="12" fill="none" stroke="#30363d" stroke-width="1"/>
  <text x="55" y="30" fill="#e6edf3" font-size="15" font-weight="600" font-family="-apple-system,BlinkMacSystemFont,Segoe UI,Helvetica,Arial,sans-serif">GitHub Activity — jlaportebot</text>
  <text x="880" y="30" fill="#8b949e" font-size="11" text-anchor="end" font-family="-apple-system,BlinkMacSystemFont,Segoe UI,Helvetica,Arial,sans-serif">Updated Aug 18, 2026</text>
  <line x1="55" y1="340.0" x2="880" y2="340.0" stroke="#21262d" stroke-width="1"/>
  <text x="47" y="344.0" fill="#8b949e" font-size="11" text-anchor="end" font-family="-apple-system,BlinkMacSystemFont,Segoe UI,Helvetica,Arial,sans-serif">0</text>
  <line x1="55" y1="330.5" x2="880" y2="330.5" stroke="#21262d" stroke-width="1"/>
  <text x="47" y="334.5" fill="#8b949e" font-size="11" text-anchor="end" font-family="-apple-system,BlinkMacSystemFont,Segoe UI,Helvetica,Arial,sans-serif">10</text>
  <line x1="55" y1="320.9" x2="880" y2="320.9" stroke="#21262d" stroke-width="1"/>
  <text x="47" y="324.9" fill="#8b949e" font-size="11" text-anchor="end" font-family="-apple-system,BlinkMacSystemFont,Segoe UI,Helvetica,Arial,sans-serif">20</text>
  <line x1="55" y1="311.4" x2="880" y2="311.4" stroke="#21262d" stroke-width="1"/>
  <text x="47" y="315.4" fill="#8b949e" font-size="11" text-anchor="end" font-family="-apple-system,BlinkMacSystemFont,Segoe UI,Helvetica,Arial,sans-serif">30</text>
  <line x1="55" y1="301.8" x2="880" y2="301.8" stroke="#21262d" stroke-width="1"/>
  <text x="47" y="305.8" fill="#8b949e" font-size="11" text-anchor="end" font-family="-apple-system,BlinkMacSystemFont,Segoe UI,Helvetica,Arial,sans-serif">40</text>
  <line x1="55" y1="292.3" x2="880" y2="292.3" stroke="#21262d" stroke-width="1"/>
  <text x="47" y="296.3" fill="#8b949e" font-size="11" text-anchor="end" font-family="-apple-system,BlinkMacSystemFont,Segoe UI,Helvetica,Arial,sans-serif">50</text>
  <line x1="55" y1="282.8" x2="880" y2="282.8" stroke="#21262d" stroke-width="1"/>
  <text x="47" y="286.8" fill="#8b949e" font-size="11" text-anchor="end" font-family="-apple-system,BlinkMacSystemFont,Segoe UI,Helvetica,Arial,sans-serif">60</text>
  <line x1="55" y1="273.2" x2="880" y2="273.2" stroke="#21262d" stroke-width="1"/>
  <text x="47" y="277.2" fill="#8b949e" font-size="11" text-anchor="end" font-family="-apple-system,BlinkMacSystemFont,Segoe UI,Helvetica,Arial,sans-serif">70</text>
  <line x1="55" y1="263.7" x2="880" y2="263.7" stroke="#21262d" stroke-width="1"/>
  <text x="47" y="267.7" fill="#8b949e" font-size="11" text-anchor="end" font-family="-apple-system,BlinkMacSystemFont,Segoe UI,Helvetica,Arial,sans-serif">80</text>
  <line x1="55" y1="254.1" x2="880" y2="254.1" stroke="#21262d" stroke-width="1"/>
  <text x="47" y="258.1" fill="#8b949e" font-size="11" text-anchor="end" font-family="-apple-system,BlinkMacSystemFont,Segoe UI,Helvetica,Arial,sans-serif">90</text>
  <line x1="55" y1="244.6" x2="880" y2="244.6" stroke="#21262d" stroke-width="1"/>
  <text x="47" y="248.6" fill="#8b949e" font-size="11" text-anchor="end" font-family="-apple-system,BlinkMacSystemFont,Segoe UI,Helvetica,Arial,sans-serif">100</text>
  <line x1="55" y1="235.1" x2="880" y2="235.1" stroke="#21262d" stroke-width="1"/>
  <text x="47" y="239.1" fill="#8b949e" font-size="11" text-anchor="end" font-family="-apple-system,BlinkMacSystemFont,Segoe UI,Helvetica,Arial,sans-serif">110</text>
  <line x1="55" y1="225.5" x2="880" y2="225.5" stroke="#21262d" stroke-width="1"/>
  <text x="47" y="229.5" fill="#8b949e" font-size="11" text-anchor="end" font-family="-apple-system,BlinkMacSystemFont,Segoe UI,Helvetica,Arial,sans-serif">120</text>
  <line x1="55" y1="216.0" x2="880" y2="216.0" stroke="#21262d" stroke-width="1"/>
  <text x="47" y="220.0" fill="#8b949e" font-size="11" text-anchor="end" font-family="-apple-system,BlinkMacSystemFont,Segoe UI,Helvetica,Arial,sans-serif">130</text>
  <line x1="55" y1="206.4" x2="880" y2="206.4" stroke="#21262d" stroke-width="1"/>
  <text x="47" y="210.4" fill="#8b949e" font-size="11" text-anchor="end" font-family="-apple-system,BlinkMacSystemFont,Segoe UI,Helvetica,Arial,sans-serif">140</text>
  <line x1="55" y1="196.9" x2="880" y2="196.9" stroke="#21262d" stroke-width="1"/>
  <text x="47" y="200.9" fill="#8b949e" font-size="11" text-anchor="end" font-family="-apple-system,BlinkMacSystemFont,Segoe UI,Helvetica,Arial,sans-serif">150</text>
  <line x1="55" y1="187.4" x2="880" y2="187.4" stroke="#21262d" stroke-width="1"/>
  <text x="47" y="191.4" fill="#8b949e" font-size="11" text-anchor="end" font-family="-apple-system,BlinkMacSystemFont,Segoe UI,Helvetica,Arial,sans-serif">160</text>
  <line x1="55" y1="177.8" x2="880" y2="177.8" stroke="#21262d" stroke-width="1"/>
  <text x="47" y="181.8" fill="#8b949e" font-size="11" text-anchor="end" font-family="-apple-system,BlinkMacSystemFont,Segoe UI,Helvetica,Arial,sans-serif">170</text>
  <line x1="55" y1="168.3" x2="880" y2="168.3" stroke="#21262d" stroke-width="1"/>
  <text x="47" y="172.3" fill="#8b949e" font-size="11" text-anchor="end" font-family="-apple-system,BlinkMacSystemFont,Segoe UI,Helvetica,Arial,sans-serif">180</text>
  <line x1="55" y1="158.8" x2="880" y2="158.8" stroke="#21262d" stroke-width="1"/>
  <text x="47" y="162.8" fill="#8b949e" font-size="11" text-anchor="end" font-family="-apple-system,BlinkMacSystemFont,Segoe UI,Helvetica,Arial,sans-serif">190</text>
  <line x1="55" y1="149.2" x2="880" y2="149.2" stroke="#21262d" stroke-width="1"/>
  <text x="47" y="153.2" fill="#8b949e" font-size="11" text-anchor="end" font-family="-apple-system,BlinkMacSystemFont,Segoe UI,Helvetica,Arial,sans-serif">200</text>
  <line x1="55" y1="139.7" x2="880" y2="139.7" stroke="#21262d" stroke-width="1"/>
  <text x="47" y="143.7" fill="#8b949e" font-size="11" text-anchor="end" font-family="-apple-system,BlinkMacSystemFont,Segoe UI,Helvetica,Arial,sans-serif">210</text>
  <line x1="55" y1="130.1" x2="880" y2="130.1" stroke="#21262d" stroke-width="1"/>
  <text x="47" y="134.1" fill="#8b949e" font-size="11" text-anchor="end" font-family="-apple-system,BlinkMacSystemFont,Segoe UI,Helvetica,Arial,sans-serif">220</text>
  <line x1="55" y1="120.6" x2="880" y2="120.6" stroke="#21262d" stroke-width="1"/>
  <text x="47" y="124.6" fill="#8b949e" font-size="11" text-anchor="end" font-family="-apple-system,BlinkMacSystemFont,Segoe UI,Helvetica,Arial,sans-serif">230</text>
  <line x1="55" y1="111.1" x2="880" y2="111.1" stroke="#21262d" stroke-width="1"/>
  <text x="47" y="115.1" fill="#8b949e" font-size="11" text-anchor="end" font-family="-apple-system,BlinkMacSystemFont,Segoe UI,Helvetica,Arial,sans-serif">240</text>
  <line x1="55" y1="101.5" x2="880" y2="101.5" stroke="#21262d" stroke-width="1"/>
  <text x="47" y="105.5" fill="#8b949e" font-size="11" text-anchor="end" font-family="-apple-system,BlinkMacSystemFont,Segoe UI,Helvetica,Arial,sans-serif">250</text>
  <line x1="55" y1="92.0" x2="880" y2="92.0" stroke="#21262d" stroke-width="1"/>
  <text x="47" y="96.0" fill="#8b949e" font-size="11" text-anchor="end" font-family="-apple-system,BlinkMacSystemFont,Segoe UI,Helvetica,Arial,sans-serif">260</text>
  <line x1="55" y1="82.4" x2="880" y2="82.4" stroke="#21262d" stroke-width="1"/>
  <text x="47" y="86.4" fill="#8b949e" font-size="11" text-anchor="end" font-family="-apple-system,BlinkMacSystemFont,Segoe UI,Helvetica,Arial,sans-serif">270</text>
  <line x1="55" y1="72.9" x2="880" y2="72.9" stroke="#21262d" stroke-width="1"/>
  <text x="47" y="76.9" fill="#8b949e" font-size="11" text-anchor="end" font-family="-apple-system,BlinkMacSystemFont,Segoe UI,Helvetica,Arial,sans-serif">280</text>
  <line x1="55" y1="63.4" x2="880" y2="63.4" stroke="#21262d" stroke-width="1"/>
  <text x="47" y="67.4" fill="#8b949e" font-size="11" text-anchor="end" font-family="-apple-system,BlinkMacSystemFont,Segoe UI,Helvetica,Arial,sans-serif">290</text>
  <line x1="55" y1="53.8" x2="880" y2="53.8" stroke="#21262d" stroke-width="1"/>
  <text x="47" y="57.8" fill="#8b949e" font-size="11" text-anchor="end" font-family="-apple-system,BlinkMacSystemFont,Segoe UI,Helvetica,Arial,sans-serif">300</text>
  <line x1="55.0" y1="50" x2="55.0" y2="340" stroke="#21262d" stroke-width="1" stroke-dasharray="4,4"/>
  <text x="55.0" y="360" fill="#8b949e" font-size="10" text-anchor="middle" font-family="-apple-system,BlinkMacSystemFont,Segoe UI,Helvetica,Arial,sans-serif">May 02</text>
  <line x1="169.6" y1="50" x2="169.6" y2="340" stroke="#21262d" stroke-width="1" stroke-dasharray="4,4"/>
  <text x="169.6" y="360" fill="#8b949e" font-size="10" text-anchor="middle" font-family="-apple-system,BlinkMacSystemFont,Segoe UI,Helvetica,Arial,sans-serif">May 17</text>
  <line x1="284.2" y1="50" x2="284.2" y2="340" stroke="#21262d" stroke-width="1" stroke-dasharray="4,4"/>
  <text x="284.2" y="360" fill="#8b949e" font-size="10" text-anchor="middle" font-family="-apple-system,BlinkMacSystemFont,Segoe UI,Helvetica,Arial,sans-serif">Jun 01</text>
  <line x1="398.8" y1="50" x2="398.8" y2="340" stroke="#21262d" stroke-width="1" stroke-dasharray="4,4"/>
  <text x="398.8" y="360" fill="#8b949e" font-size="10" text-anchor="middle" font-family="-apple-system,BlinkMacSystemFont,Segoe UI,Helvetica,Arial,sans-serif">Jun 16</text>
  <line x1="513.3" y1="50" x2="513.3" y2="340" stroke="#21262d" stroke-width="1" stroke-dasharray="4,4"/>
  <text x="513.3" y="360" fill="#8b949e" font-size="10" text-anchor="middle" font-family="-apple-system,BlinkMacSystemFont,Segoe UI,Helvetica,Arial,sans-serif">Jul 01</text>
  <line x1="627.9" y1="50" x2="627.9" y2="340" stroke="#21262d" stroke-width="1" stroke-dasharray="4,4"/>
  <text x="627.9" y="360" fill="#8b949e" font-size="10" text-anchor="middle" font-family="-apple-system,BlinkMacSystemFont,Segoe UI,Helvetica,Arial,sans-serif">Jul 16</text>
  <line x1="742.5" y1="50" x2="742.5" y2="340" stroke="#21262d" stroke-width="1" stroke-dasharray="4,4"/>
  <text x="742.5" y="360" fill="#8b949e" font-size="10" text-anchor="middle" font-family="-apple-system,BlinkMacSystemFont,Segoe UI,Helvetica,Arial,sans-serif">Jul 31</text>
  <line x1="857.1" y1="50" x2="857.1" y2="340" stroke="#21262d" stroke-width="1" stroke-dasharray="4,4"/>
  <text x="857.1" y="360" fill="#8b949e" font-size="10" text-anchor="middle" font-family="-apple-system,BlinkMacSystemFont,Segoe UI,Helvetica,Arial,sans-serif">Aug 15</text>
  <line x1="880.0" y1="50" x2="880.0" y2="340" stroke="#21262d" stroke-width="1" stroke-dasharray="4,4"/>
  <text x="880.0" y="360" fill="#8b949e" font-size="10" text-anchor="middle" font-family="-apple-system,BlinkMacSystemFont,Segoe UI,Helvetica,Arial,sans-serif">Aug 18</text>
  <path d="M55.0,340.0L62.6,328.6L70.3,321.9L77.9,318.1L85.6,312.3L93.2,308.5L100.8,305.7L108.5,305.7L116.1,305.7L123.8,305.7L131.4,305.7L139.0,305.7L146.7,305.7L154.3,305.7L161.9,304.7L169.6,300.9L177.2,297.1L184.9,292.3L192.5,286.6L200.1,280.9L207.8,275.1L215.4,270.4L223.1,266.5L230.7,264.6L238.3,261.8L246.0,251.3L253.6,250.3L261.2,245.6L268.9,238.9L276.5,234.1L284.2,230.3L291.8,230.3L299.4,230.3L307.1,230.3L314.7,230.3L322.4,230.3L330.0,224.6L337.6,216.9L345.3,214.1L352.9,208.4L360.6,204.5L368.2,198.8L375.8,190.2L383.5,185.5L391.1,180.7L398.8,175.9L406.4,167.3L414.0,161.6L421.7,154.0L429.3,148.3L436.9,143.5L444.6,139.7L452.2,133.9L459.9,127.3L467.5,123.5L475.1,120.6L482.8,113.9L490.4,108.2L498.1,100.6L505.7,100.6L513.3,98.7L521.0,98.7L528.6,98.7L536.2,96.7L543.9,93.9L551.5,91.0L559.2,90.1L566.8,85.3L574.4,85.3L582.1,85.3L589.7,85.3L597.4,85.3L605.0,85.3L612.6,85.3L620.3,85.3L627.9,85.3L635.6,85.3L643.2,85.3L650.8,83.4L658.5,83.4L666.1,80.5L673.8,77.7L681.4,77.7L689.0,77.7L696.7,77.7L704.3,77.7L711.9,77.7L719.6,77.7L727.2,77.7L734.9,77.7L742.5,77.7L750.1,77.7L757.8,77.7L765.4,77.7L773.1,77.7L780.7,77.7L788.3,77.7L796.0,73.8L803.6,73.8L811.2,63.4L818.9,54.8L826.5,54.8L834.2,54.8L841.8,54.8L849.4,54.8L857.1,54.8L864.7,54.8L872.4,54.8L880.0,54.8L880.0,340.0L55.0,340.0Z" fill="url(#gO)"/>
  <path d="M55.0,339.0L62.6,339.0L70.3,339.0L77.9,339.0L85.6,339.0L93.2,339.0L100.8,339.0L108.5,339.0L116.1,339.0L123.8,339.0L131.4,339.0L139.0,339.0L146.7,339.0L154.3,339.0L161.9,339.0L169.6,336.2L177.2,336.2L184.9,336.2L192.5,336.2L200.1,336.2L207.8,336.2L215.4,336.2L223.1,335.2L230.7,332.4L238.3,332.4L246.0,331.4L253.6,331.4L261.2,331.4L268.9,331.4L276.5,331.4L284.2,329.5L291.8,329.5L299.4,329.5L307.1,329.5L314.7,329.5L322.4,329.5L330.0,329.5L337.6,327.6L345.3,316.2L352.9,316.2L360.6,316.2L368.2,316.2L375.8,308.5L383.5,308.5L391.1,308.5L398.8,308.5L406.4,308.5L414.0,306.6L421.7,306.6L429.3,305.7L436.9,304.7L444.6,303.8L452.2,302.8L459.9,300.9L467.5,297.1L475.1,296.1L482.8,295.2L490.4,295.2L498.1,295.2L505.7,295.2L513.3,295.2L521.0,295.2L528.6,295.2L536.2,295.2L543.9,295.2L551.5,295.2L559.2,295.2L566.8,295.2L574.4,294.2L582.1,293.3L589.7,290.4L597.4,290.4L605.0,289.4L612.6,289.4L620.3,289.4L627.9,289.4L635.6,289.4L643.2,289.4L650.8,289.4L658.5,289.4L666.1,289.4L673.8,288.5L681.4,288.5L689.0,288.5L696.7,287.5L704.3,286.6L711.9,286.6L719.6,286.6L727.2,286.6L734.9,286.6L742.5,286.6L750.1,286.6L757.8,286.6L765.4,285.6L773.1,285.6L780.7,285.6L788.3,285.6L796.0,285.6L803.6,285.6L811.2,276.1L818.9,273.2L826.5,273.2L834.2,273.2L841.8,273.2L849.4,273.2L857.1,273.2L864.7,273.2L872.4,273.2L880.0,273.2L880.0,340.0L55.0,340.0Z" fill="url(#gR)"/>
  <path d="M55.0,340.0L62.6,328.6L70.3,321.9L77.9,318.1L85.6,312.3L93.2,308.5L100.8,305.7L108.5,305.7L116.1,305.7L123.8,305.7L131.4,305.7L139.0,305.7L146.7,305.7L154.3,305.7L161.9,304.7L169.6,300.9L177.2,297.1L184.9,292.3L192.5,286.6L200.1,280.9L207.8,275.1L215.4,270.4L223.1,266.5L230.7,264.6L238.3,261.8L246.0,251.3L253.6,250.3L261.2,245.6L268.9,238.9L276.5,234.1L284.2,230.3L291.8,230.3L299.4,230.3L307.1,230.3L314.7,230.3L322.4,230.3L330.0,224.6L337.6,216.9L345.3,214.1L352.9,208.4L360.6,204.5L368.2,198.8L375.8,190.2L383.5,185.5L391.1,180.7L398.8,175.9L406.4,167.3L414.0,161.6L421.7,154.0L429.3,148.3L436.9,143.5L444.6,139.7L452.2,133.9L459.9,127.3L467.5,123.5L475.1,120.6L482.8,113.9L490.4,108.2L498.1,100.6L505.7,100.6L513.3,98.7L521.0,98.7L528.6,98.7L536.2,96.7L543.9,93.9L551.5,91.0L559.2,90.1L566.8,85.3L574.4,85.3L582.1,85.3L589.7,85.3L597.4,85.3L605.0,85.3L612.6,85.3L620.3,85.3L627.9,85.3L635.6,85.3L643.2,85.3L650.8,83.4L658.5,83.4L666.1,80.5L673.8,77.7L681.4,77.7L689.0,77.7L696.7,77.7L704.3,77.7L711.9,77.7L719.6,77.7L727.2,77.7L734.9,77.7L742.5,77.7L750.1,77.7L757.8,77.7L765.4,77.7L773.1,77.7L780.7,77.7L788.3,77.7L796.0,73.8L803.6,73.8L811.2,63.4L818.9,54.8L826.5,54.8L834.2,54.8L841.8,54.8L849.4,54.8L857.1,54.8L864.7,54.8L872.4,54.8L880.0,54.8" fill="none" stroke="#58a6ff" stroke-width="2.5" stroke-linecap="round" stroke-linejoin="round"/>
  <path d="M55.0,339.0L62.6,339.0L70.3,339.0L77.9,339.0L85.6,339.0L93.2,339.0L100.8,339.0L108.5,339.0L116.1,339.0L123.8,339.0L131.4,339.0L139.0,339.0L146.7,339.0L154.3,339.0L161.9,339.0L169.6,336.2L177.2,336.2L184.9,336.2L192.5,336.2L200.1,336.2L207.8,336.2L215.4,336.2L223.1,335.2L230.7,332.4L238.3,332.4L246.0,331.4L253.6,331.4L261.2,331.4L268.9,331.4L276.5,331.4L284.2,329.5L291.8,329.5L299.4,329.5L307.1,329.5L314.7,329.5L322.4,329.5L330.0,329.5L337.6,327.6L345.3,316.2L352.9,316.2L360.6,316.2L368.2,316.2L375.8,308.5L383.5,308.5L391.1,308.5L398.8,308.5L406.4,308.5L414.0,306.6L421.7,306.6L429.3,305.7L436.9,304.7L444.6,303.8L452.2,302.8L459.9,300.9L467.5,297.1L475.1,296.1L482.8,295.2L490.4,295.2L498.1,295.2L505.7,295.2L513.3,295.2L521.0,295.2L528.6,295.2L536.2,295.2L543.9,295.2L551.5,295.2L559.2,295.2L566.8,295.2L574.4,294.2L582.1,293.3L589.7,290.4L597.4,290.4L605.0,289.4L612.6,289.4L620.3,289.4L627.9,289.4L635.6,289.4L643.2,289.4L650.8,289.4L658.5,289.4L666.1,289.4L673.8,288.5L681.4,288.5L689.0,288.5L696.7,287.5L704.3,286.6L711.9,286.6L719.6,286.6L727.2,286.6L734.9,286.6L742.5,286.6L750.1,286.6L757.8,286.6L765.4,285.6L773.1,285.6L780.7,285.6L788.3,285.6L796.0,285.6L803.6,285.6L811.2,276.1L818.9,273.2L826.5,273.2L834.2,273.2L841.8,273.2L849.4,273.2L857.1,273.2L864.7,273.2L872.4,273.2L880.0,273.2" fill="none" stroke="#f78166" stroke-width="2.5" stroke-linecap="round" stroke-linejoin="round"/>
  <path d="M55.0,340.0L62.6,333.3L70.3,328.6L77.9,326.6L85.6,321.9L93.2,322.8L100.8,320.0L108.5,320.9L116.1,320.9L123.8,321.9L131.4,321.9L139.0,321.9L146.7,321.9L154.3,321.9L161.9,320.9L169.6,320.0L177.2,319.0L184.9,316.2L192.5,310.4L200.1,306.6L207.8,302.8L215.4,299.9L223.1,299.9L230.7,300.9L238.3,302.8L246.0,299.0L253.6,298.0L261.2,298.0L268.9,295.2L276.5,299.9L284.2,297.1L291.8,297.1L299.4,297.1L307.1,297.1L314.7,302.8L322.4,302.8L330.0,301.8L337.6,306.6L345.3,340.0L352.9,340.0L360.6,340.0L368.2,340.0L375.8,336.2L383.5,336.2L391.1,334.3L398.8,334.3L406.4,333.3L414.0,330.5L421.7,331.4L429.3,329.5L436.9,329.5L444.6,331.4L452.2,330.5L459.9,331.4L467.5,328.6L475.1,329.5L482.8,329.5L490.4,324.7L498.1,321.9L505.7,321.9L513.3,322.8L521.0,325.7L528.6,325.7L536.2,324.7L543.9,323.8L551.5,323.8L559.2,322.8L566.8,320.9L574.4,320.9L582.1,320.9L589.7,320.9L597.4,320.9L605.0,320.9L612.6,320.9L620.3,320.9L627.9,320.9L635.6,320.9L643.2,320.9L650.8,320.9L658.5,320.9L666.1,320.9L673.8,320.9L681.4,320.9L689.0,320.9L696.7,320.9L704.3,320.9L711.9,320.9L719.6,322.8L727.2,322.8L734.9,323.8L742.5,323.8L750.1,323.8L757.8,323.8L765.4,323.8L773.1,323.8L780.7,323.8L788.3,323.8L796.0,326.6L803.6,329.5L811.2,324.7L818.9,326.6L826.5,326.6L834.2,326.6L841.8,326.6L849.4,326.6L857.1,326.6L864.7,326.6L872.4,326.6L880.0,326.6" fill="none" stroke="#3fb950" stroke-width="2.5" stroke-linecap="round" stroke-linejoin="round"/>
  <path d="M55.0,340.0L62.6,340.0L70.3,339.0L77.9,338.1L85.6,338.1L93.2,337.1L100.8,337.1L108.5,336.2L116.1,336.2L123.8,336.2L131.4,336.2L139.0,336.2L146.7,336.2L154.3,336.2L161.9,336.2L169.6,335.2L177.2,333.3L184.9,332.4L192.5,332.4L200.1,332.4L207.8,330.5L215.4,330.5L223.1,330.5L230.7,329.5L238.3,329.5L246.0,323.8L253.6,323.8L261.2,320.0L268.9,317.1L276.5,313.3L284.2,312.3L291.8,312.3L299.4,312.3L307.1,312.3L314.7,310.4L322.4,310.4L330.0,308.5L337.6,305.7L345.3,303.8L352.9,298.0L360.6,294.2L368.2,288.5L375.8,285.6L383.5,281.8L391.1,279.9L398.8,275.1L406.4,267.5L414.0,264.6L421.7,258.9L429.3,256.1L436.9,251.3L444.6,245.6L452.2,240.8L459.9,233.2L467.5,232.2L475.1,230.3L482.8,225.5L490.4,225.5L498.1,220.8L505.7,220.8L513.3,218.8L521.0,218.8L528.6,218.8L536.2,218.8L543.9,217.9L551.5,216.0L559.2,216.0L566.8,214.1L574.4,214.1L582.1,214.1L589.7,214.1L597.4,214.1L605.0,214.1L612.6,214.1L620.3,214.1L627.9,214.1L635.6,214.1L643.2,214.1L650.8,212.2L658.5,212.2L666.1,209.3L673.8,206.4L681.4,206.4L689.0,206.4L696.7,206.4L704.3,206.4L711.9,206.4L719.6,206.4L727.2,206.4L734.9,206.4L742.5,206.4L750.1,206.4L757.8,206.4L765.4,206.4L773.1,206.4L780.7,206.4L788.3,206.4L796.0,205.5L803.6,205.5L811.2,205.5L818.9,201.7L826.5,201.7L834.2,201.7L841.8,201.7L849.4,201.7L857.1,201.7L864.7,201.7L872.4,201.7L880.0,201.7" fill="none" stroke="#d2a8ff" stroke-width="2.5" stroke-linecap="round" stroke-linejoin="round"/>
  <path d="M55.0,340.0L62.6,335.2L70.3,334.3L77.9,333.3L85.6,332.4L93.2,328.6L100.8,328.6L108.5,328.6L116.1,328.6L123.8,327.6L131.4,327.6L139.0,327.6L146.7,327.6L154.3,327.6L161.9,327.6L169.6,325.7L177.2,324.7L184.9,323.8L192.5,323.8L200.1,321.9L207.8,321.9L215.4,320.0L223.1,316.2L230.7,314.2L238.3,309.5L246.0,308.5L253.6,308.5L261.2,307.6L268.9,306.6L276.5,300.9L284.2,300.9L291.8,300.9L299.4,300.9L307.1,300.9L314.7,297.1L322.4,297.1L330.0,294.2L337.6,284.7L345.3,250.3L352.9,250.3L360.6,250.3L368.2,250.3L375.8,248.4L383.5,247.5L391.1,246.5L398.8,246.5L406.4,246.5L414.0,246.5L421.7,243.7L429.3,242.7L436.9,242.7L444.6,242.7L452.2,242.7L459.9,242.7L467.5,242.7L475.1,240.8L482.8,238.9L490.4,237.9L498.1,237.9L505.7,237.9L513.3,237.0L521.0,234.1L528.6,234.1L536.2,233.2L543.9,232.2L551.5,231.2L559.2,231.2L566.8,230.3L574.4,230.3L582.1,230.3L589.7,230.3L597.4,230.3L605.0,230.3L612.6,230.3L620.3,230.3L627.9,230.3L635.6,230.3L643.2,230.3L650.8,230.3L658.5,230.3L666.1,230.3L673.8,230.3L681.4,230.3L689.0,230.3L696.7,230.3L704.3,230.3L711.9,230.3L719.6,228.4L727.2,228.4L734.9,227.4L742.5,227.4L750.1,227.4L757.8,227.4L765.4,227.4L773.1,227.4L780.7,227.4L788.3,227.4L796.0,221.7L803.6,218.8L811.2,213.1L818.9,206.4L826.5,206.4L834.2,206.4L841.8,206.4L849.4,206.4L857.1,206.4L864.7,206.4L872.4,206.4L880.0,206.4" fill="none" stroke="#f85149" stroke-width="2.5" stroke-linecap="round" stroke-linejoin="round"/>
  <circle cx="880.0" cy="54.8" r="3.5" fill="#58a6ff"/>
  <text x="889.0" y="58.8" fill="#58a6ff" font-size="11" font-weight="600" font-family="-apple-system,BlinkMacSystemFont,Segoe UI,Helvetica,Arial,sans-serif">299</text>
  <circle cx="880.0" cy="273.2" r="3.5" fill="#f78166"/>
  <text x="889.0" y="277.2" fill="#f78166" font-size="11" font-weight="600" font-family="-apple-system,BlinkMacSystemFont,Segoe UI,Helvetica,Arial,sans-serif">70</text>
  <circle cx="880.0" cy="326.6" r="3.5" fill="#3fb950"/>
  <text x="889.0" y="330.6" fill="#3fb950" font-size="11" font-weight="600" font-family="-apple-system,BlinkMacSystemFont,Segoe UI,Helvetica,Arial,sans-serif">14</text>
  <circle cx="880.0" cy="201.7" r="3.5" fill="#d2a8ff"/>
  <text x="889.0" y="205.7" fill="#d2a8ff" font-size="11" font-weight="600" font-family="-apple-system,BlinkMacSystemFont,Segoe UI,Helvetica,Arial,sans-serif">145</text>
  <circle cx="880.0" cy="206.4" r="3.5" fill="#f85149"/>
  <text x="889.0" y="210.4" fill="#f85149" font-size="11" font-weight="600" font-family="-apple-system,BlinkMacSystemFont,Segoe UI,Helvetica,Arial,sans-serif">140</text>
  <line x1="55" y1="368" x2="71" y2="368" stroke="#f78166" stroke-width="2.5" stroke-linecap="round"/>
  <text x="77" y="372" fill="#8b949e" font-size="11" font-family="-apple-system,BlinkMacSystemFont,Segoe UI,Helvetica,Arial,sans-serif">Repos</text>
  <line x1="255" y1="368" x2="271" y2="368" stroke="#58a6ff" stroke-width="2.5" stroke-linecap="round"/>
  <text x="277" y="372" fill="#8b949e" font-size="11" font-family="-apple-system,BlinkMacSystemFont,Segoe UI,Helvetica,Arial,sans-serif">PRs Opened</text>
  <line x1="455" y1="368" x2="471" y2="368" stroke="#3fb950" stroke-width="2.5" stroke-linecap="round"/>
  <text x="477" y="372" fill="#8b949e" font-size="11" font-family="-apple-system,BlinkMacSystemFont,Segoe UI,Helvetica,Arial,sans-serif">Open PRs</text>
  <line x1="55" y1="386" x2="71" y2="386" stroke="#d2a8ff" stroke-width="2.5" stroke-linecap="round"/>
  <text x="77" y="390" fill="#8b949e" font-size="11" font-family="-apple-system,BlinkMacSystemFont,Segoe UI,Helvetica,Arial,sans-serif">Merged</text>
  <line x1="255" y1="386" x2="271" y2="386" stroke="#f85149" stroke-width="2.5" stroke-linecap="round"/>
  <text x="277" y="390" fill="#8b949e" font-size="11" font-family="-apple-system,BlinkMacSystemFont,Segoe UI,Helvetica,Arial,sans-serif">Closed</text>
</svg>