<svg xmlns="http://www.w3.org/2000/svg" viewBox="0 0 960 400" width="960" height="400">
  <defs>
    <linearGradient id="gR" x1="0" y1="0" x2="0" y2="1">
      <stop offset="0%" stop-color="#3fb950" stop-opacity="0.25"/>
      <stop offset="100%" stop-color="#3fb950" stop-opacity="0.02"/>
    </linearGradient>
    <linearGradient id="gO" x1="0" y1="0" x2="0" y2="1">
      <stop offset="0%" stop-color="#58a6ff" stop-opacity="0.25"/>
      <stop offset="100%" stop-color="#58a6ff" stop-opacity="0.02"/>
    </linearGradient>
    <linearGradient id="gOp" x1="0" y1="0" x2="0" y2="1">
      <stop offset="0%" stop-color="#d2a8ff" stop-opacity="0.25"/>
      <stop offset="100%" stop-color="#d2a8ff" stop-opacity="0.02"/>
    </linearGradient>
    <linearGradient id="gM" x1="0" y1="0" x2="0" y2="1">
      <stop offset="0%" stop-color="#f78166" stop-opacity="0.25"/>
      <stop offset="100%" stop-color="#f78166" stop-opacity="0.02"/>
    </linearGradient>
    <linearGradient id="gC" x1="0" y1="0" x2="0" y2="1">
      <stop offset="0%" stop-color="#f85149" stop-opacity="0.25"/>
      <stop offset="100%" stop-color="#f85149" stop-opacity="0.02"/>
    </linearGradient>
  </defs>
  <rect width="960" height="400" rx="12" fill="#0d1117"/>
  <rect width="960" height="400" rx="12" fill="none" stroke="#30363d" stroke-width="1"/>
  <text x="55" y="30" fill="#e6edf3" font-size="15" font-weight="600" font-family="-apple-system,BlinkMacSystemFont,Segoe UI,Helvetica,Arial,sans-serif">GitHub Activity — jlaportebot</text>
  <text x="880" y="30" fill="#8b949e" font-size="11" text-anchor="end" font-family="-apple-system,BlinkMacSystemFont,Segoe UI,Helvetica,Arial,sans-serif">Updated May 31, 2026</text>
  <line x1="55" y1="340.0" x2="880" y2="340.0" stroke="#21262d" stroke-width="1"/>
  <text x="47" y="344.0" fill="#8b949e" font-size="11" text-anchor="end" font-family="-apple-system,BlinkMacSystemFont,Segoe UI,Helvetica,Arial,sans-serif">0</text>
  <line x1="55" y1="315.6" x2="880" y2="315.6" stroke="#21262d" stroke-width="1"/>
  <text x="47" y="319.6" fill="#8b949e" font-size="11" text-anchor="end" font-family="-apple-system,BlinkMacSystemFont,Segoe UI,Helvetica,Arial,sans-serif">10</text>
  <line x1="55" y1="291.3" x2="880" y2="291.3" stroke="#21262d" stroke-width="1"/>
  <text x="47" y="295.3" fill="#8b949e" font-size="11" text-anchor="end" font-family="-apple-system,BlinkMacSystemFont,Segoe UI,Helvetica,Arial,sans-serif">20</text>
  <line x1="55" y1="266.9" x2="880" y2="266.9" stroke="#21262d" stroke-width="1"/>
  <text x="47" y="270.9" fill="#8b949e" font-size="11" text-anchor="end" font-family="-apple-system,BlinkMacSystemFont,Segoe UI,Helvetica,Arial,sans-serif">30</text>
  <line x1="55" y1="242.5" x2="880" y2="242.5" stroke="#21262d" stroke-width="1"/>
  <text x="47" y="246.5" fill="#8b949e" font-size="11" text-anchor="end" font-family="-apple-system,BlinkMacSystemFont,Segoe UI,Helvetica,Arial,sans-serif">40</text>
  <line x1="55" y1="218.2" x2="880" y2="218.2" stroke="#21262d" stroke-width="1"/>
  <text x="47" y="222.2" fill="#8b949e" font-size="11" text-anchor="end" font-family="-apple-system,BlinkMacSystemFont,Segoe UI,Helvetica,Arial,sans-serif">50</text>
  <line x1="55" y1="193.8" x2="880" y2="193.8" stroke="#21262d" stroke-width="1"/>
  <text x="47" y="197.8" fill="#8b949e" font-size="11" text-anchor="end" font-family="-apple-system,BlinkMacSystemFont,Segoe UI,Helvetica,Arial,sans-serif">60</text>
  <line x1="55" y1="169.4" x2="880" y2="169.4" stroke="#21262d" stroke-width="1"/>
  <text x="47" y="173.4" fill="#8b949e" font-size="11" text-anchor="end" font-family="-apple-system,BlinkMacSystemFont,Segoe UI,Helvetica,Arial,sans-serif">70</text>
  <line x1="55" y1="145.0" x2="880" y2="145.0" stroke="#21262d" stroke-width="1"/>
  <text x="47" y="149.0" fill="#8b949e" font-size="11" text-anchor="end" font-family="-apple-system,BlinkMacSystemFont,Segoe UI,Helvetica,Arial,sans-serif">80</text>
  <line x1="55" y1="120.7" x2="880" y2="120.7" stroke="#21262d" stroke-width="1"/>
  <text x="47" y="124.7" fill="#8b949e" font-size="11" text-anchor="end" font-family="-apple-system,BlinkMacSystemFont,Segoe UI,Helvetica,Arial,sans-serif">90</text>
  <line x1="55" y1="96.3" x2="880" y2="96.3" stroke="#21262d" stroke-width="1"/>
  <text x="47" y="100.3" fill="#8b949e" font-size="11" text-anchor="end" font-family="-apple-system,BlinkMacSystemFont,Segoe UI,Helvetica,Arial,sans-serif">100</text>
  <line x1="55" y1="71.9" x2="880" y2="71.9" stroke="#21262d" stroke-width="1"/>
  <text x="47" y="75.9" fill="#8b949e" font-size="11" text-anchor="end" font-family="-apple-system,BlinkMacSystemFont,Segoe UI,Helvetica,Arial,sans-serif">110</text>
  <line x1="55.0" y1="50" x2="55.0" y2="340" stroke="#21262d" stroke-width="1" stroke-dasharray="4,4"/>
  <text x="55.0" y="360" fill="#8b949e" font-size="10" text-anchor="middle" font-family="-apple-system,BlinkMacSystemFont,Segoe UI,Helvetica,Arial,sans-serif">May 02</text>
  <line x1="168.8" y1="50" x2="168.8" y2="340" stroke="#21262d" stroke-width="1" stroke-dasharray="4,4"/>
  <text x="168.8" y="360" fill="#8b949e" font-size="10" text-anchor="middle" font-family="-apple-system,BlinkMacSystemFont,Segoe UI,Helvetica,Arial,sans-serif">May 06</text>
  <line x1="282.6" y1="50" x2="282.6" y2="340" stroke="#21262d" stroke-width="1" stroke-dasharray="4,4"/>
  <text x="282.6" y="360" fill="#8b949e" font-size="10" text-anchor="middle" font-family="-apple-system,BlinkMacSystemFont,Segoe UI,Helvetica,Arial,sans-serif">May 10</text>
  <line x1="396.4" y1="50" x2="396.4" y2="340" stroke="#21262d" stroke-width="1" stroke-dasharray="4,4"/>
  <text x="396.4" y="360" fill="#8b949e" font-size="10" text-anchor="middle" font-family="-apple-system,BlinkMacSystemFont,Segoe UI,Helvetica,Arial,sans-serif">May 14</text>
  <line x1="510.2" y1="50" x2="510.2" y2="340" stroke="#21262d" stroke-width="1" stroke-dasharray="4,4"/>
  <text x="510.2" y="360" fill="#8b949e" font-size="10" text-anchor="middle" font-family="-apple-system,BlinkMacSystemFont,Segoe UI,Helvetica,Arial,sans-serif">May 18</text>
  <line x1="624.0" y1="50" x2="624.0" y2="340" stroke="#21262d" stroke-width="1" stroke-dasharray="4,4"/>
  <text x="624.0" y="360" fill="#8b949e" font-size="10" text-anchor="middle" font-family="-apple-system,BlinkMacSystemFont,Segoe UI,Helvetica,Arial,sans-serif">May 22</text>
  <line x1="737.8" y1="50" x2="737.8" y2="340" stroke="#21262d" stroke-width="1" stroke-dasharray="4,4"/>
  <text x="737.8" y="360" fill="#8b949e" font-size="10" text-anchor="middle" font-family="-apple-system,BlinkMacSystemFont,Segoe UI,Helvetica,Arial,sans-serif">May 26</text>
  <line x1="851.6" y1="50" x2="851.6" y2="340" stroke="#21262d" stroke-width="1" stroke-dasharray="4,4"/>
  <text x="851.6" y="360" fill="#8b949e" font-size="10" text-anchor="middle" font-family="-apple-system,BlinkMacSystemFont,Segoe UI,Helvetica,Arial,sans-serif">May 30</text>
  <line x1="880.0" y1="50" x2="880.0" y2="340" stroke="#21262d" stroke-width="1" stroke-dasharray="4,4"/>
  <text x="880.0" y="360" fill="#8b949e" font-size="10" text-anchor="middle" font-family="-apple-system,BlinkMacSystemFont,Segoe UI,Helvetica,Arial,sans-serif">May 31</text>
  <path d="M55.0,340.0L83.4,308.3L111.9,291.3L140.3,281.5L168.8,266.9L197.2,254.7L225.7,247.4L254.1,247.4L282.6,247.4L311.0,247.4L339.5,247.4L367.9,247.4L396.4,247.4L424.8,247.4L453.3,245.0L481.7,235.2L510.2,225.5L538.6,213.3L567.1,198.7L595.5,184.0L624.0,169.4L652.4,157.2L680.9,147.5L709.3,142.6L737.8,135.3L766.2,108.5L794.7,106.1L823.1,91.4L851.6,74.4L880.0,62.2L880.0,340.0L55.0,340.0Z" fill="url(#gO)"/>
  <path d="M55.0,337.6L83.4,318.1L111.9,305.9L140.3,301.0L168.8,288.8L197.2,279.1L225.7,274.2L254.1,274.2L282.6,274.2L311.0,274.2L339.5,274.2L367.9,274.2L396.4,274.2L424.8,274.2L453.3,271.8L481.7,252.3L510.2,249.8L538.6,249.8L567.1,249.8L595.5,249.8L624.0,249.8L652.4,249.8L680.9,237.6L709.3,220.6L737.8,206.0L766.2,203.5L794.7,203.5L823.1,203.5L851.6,203.5L880.0,203.5L880.0,340.0L55.0,340.0Z" fill="url(#gR)"/>
  <path d="M55.0,340.0L83.4,308.3L111.9,291.3L140.3,281.5L168.8,266.9L197.2,254.7L225.7,247.4L254.1,247.4L282.6,247.4L311.0,247.4L339.5,247.4L367.9,247.4L396.4,247.4L424.8,247.4L453.3,245.0L481.7,235.2L510.2,225.5L538.6,213.3L567.1,198.7L595.5,184.0L624.0,169.4L652.4,157.2L680.9,147.5L709.3,142.6L737.8,135.3L766.2,108.5L794.7,106.1L823.1,91.4L851.6,74.4L880.0,62.2" fill="none" stroke="#58a6ff" stroke-width="2.5" stroke-linecap="round" stroke-linejoin="round"/>
  <path d="M55.0,337.6L83.4,318.1L111.9,305.9L140.3,301.0L168.8,288.8L197.2,279.1L225.7,274.2L254.1,274.2L282.6,274.2L311.0,274.2L339.5,274.2L367.9,274.2L396.4,274.2L424.8,274.2L453.3,271.8L481.7,252.3L510.2,249.8L538.6,249.8L567.1,249.8L595.5,249.8L624.0,249.8L652.4,249.8L680.9,237.6L709.3,220.6L737.8,206.0L766.2,203.5L794.7,203.5L823.1,203.5L851.6,203.5L880.0,203.5" fill="none" stroke="#3fb950" stroke-width="2.5" stroke-linecap="round" stroke-linejoin="round"/>
  <path d="M55.0,340.0L83.4,320.5L111.9,310.8L140.3,305.9L168.8,293.7L197.2,293.7L225.7,286.4L254.1,288.8L282.6,288.8L311.0,291.3L339.5,291.3L367.9,291.3L396.4,291.3L424.8,291.3L453.3,288.8L481.7,286.4L510.2,283.9L538.6,276.6L567.1,262.0L595.5,252.3L624.0,242.5L652.4,235.2L680.9,235.2L709.3,237.6L737.8,242.5L766.2,232.8L794.7,230.3L823.1,227.9L851.6,223.0L880.0,237.6" fill="none" stroke="#d2a8ff" stroke-width="2.5" stroke-linecap="round" stroke-linejoin="round"/>
  <path d="M55.0,340.0L83.4,340.0L111.9,335.1L140.3,332.7L168.8,332.7L197.2,330.3L225.7,330.3L254.1,327.8L282.6,327.8L311.0,327.8L339.5,327.8L367.9,327.8L396.4,327.8L424.8,327.8L453.3,327.8L481.7,325.4L510.2,320.5L538.6,318.1L567.1,318.1L595.5,318.1L624.0,313.2L652.4,313.2L680.9,313.2L709.3,310.8L737.8,310.8L766.2,296.1L794.7,296.1L823.1,286.4L851.6,276.6L880.0,264.5" fill="none" stroke="#f78166" stroke-width="2.5" stroke-linecap="round" stroke-linejoin="round"/>
  <path d="M55.0,340.0L83.4,327.8L111.9,325.4L140.3,322.9L168.8,320.5L197.2,310.8L225.7,310.8L254.1,310.8L282.6,310.8L311.0,308.3L339.5,308.3L367.9,308.3L396.4,308.3L424.8,308.3L453.3,308.3L481.7,303.4L510.2,301.0L538.6,298.6L567.1,298.6L595.5,293.7L624.0,293.7L652.4,288.8L680.9,279.1L709.3,274.2L737.8,262.0L766.2,259.6L794.7,259.6L823.1,257.1L851.6,254.7L880.0,240.1" fill="none" stroke="#f85149" stroke-width="2.5" stroke-linecap="round" stroke-linejoin="round"/>
  <circle cx="880.0" cy="62.2" r="3.5" fill="#58a6ff"/>
  <text x="889.0" y="66.2" fill="#58a6ff" font-size="11" font-weight="600" font-family="-apple-system,BlinkMacSystemFont,Segoe UI,Helvetica,Arial,sans-serif">114</text>
  <circle cx="880.0" cy="203.5" r="3.5" fill="#3fb950"/>
  <text x="889.0" y="207.5" fill="#3fb950" font-size="11" font-weight="600" font-family="-apple-system,BlinkMacSystemFont,Segoe UI,Helvetica,Arial,sans-serif">56</text>
  <circle cx="880.0" cy="237.6" r="3.5" fill="#d2a8ff"/>
  <text x="889.0" y="241.6" fill="#d2a8ff" font-size="11" font-weight="600" font-family="-apple-system,BlinkMacSystemFont,Segoe UI,Helvetica,Arial,sans-serif">42</text>
  <circle cx="880.0" cy="264.5" r="3.5" fill="#f78166"/>
  <text x="889.0" y="268.5" fill="#f78166" font-size="11" font-weight="600" font-family="-apple-system,BlinkMacSystemFont,Segoe UI,Helvetica,Arial,sans-serif">31</text>
  <circle cx="880.0" cy="240.1" r="3.5" fill="#f85149"/>
  <text x="889.0" y="244.1" fill="#f85149" font-size="11" font-weight="600" font-family="-apple-system,BlinkMacSystemFont,Segoe UI,Helvetica,Arial,sans-serif">41</text>
  <line x1="55" y1="368" x2="71" y2="368" stroke="#3fb950" stroke-width="2.5" stroke-linecap="round"/>
  <text x="77" y="372" fill="#8b949e" font-size="11" font-family="-apple-system,BlinkMacSystemFont,Segoe UI,Helvetica,Arial,sans-serif">Repos</text>
  <line x1="255" y1="368" x2="271" y2="368" stroke="#58a6ff" stroke-width="2.5" stroke-linecap="round"/>
  <text x="277" y="372" fill="#8b949e" font-size="11" font-family="-apple-system,BlinkMacSystemFont,Segoe UI,Helvetica,Arial,sans-serif">PRs Opened</text>
  <line x1="455" y1="368" x2="471" y2="368" stroke="#d2a8ff" stroke-width="2.5" stroke-linecap="round"/>
  <text x="477" y="372" fill="#8b949e" font-size="11" font-family="-apple-system,BlinkMacSystemFont,Segoe UI,Helvetica,Arial,sans-serif">Open PRs</text>
  <line x1="55" y1="386" x2="71" y2="386" stroke="#f78166" stroke-width="2.5" stroke-linecap="round"/>
  <text x="77" y="390" fill="#8b949e" font-size="11" font-family="-apple-system,BlinkMacSystemFont,Segoe UI,Helvetica,Arial,sans-serif">Merged</text>
  <line x1="255" y1="386" x2="271" y2="386" stroke="#f85149" stroke-width="2.5" stroke-linecap="round"/>
  <text x="277" y="390" fill="#8b949e" font-size="11" font-family="-apple-system,BlinkMacSystemFont,Segoe UI,Helvetica,Arial,sans-serif">Closed</text>
</svg>