<svg xmlns="http://www.w3.org/2000/svg" viewBox="0 0 960 400" width="960" height="400">
  <defs>
    <linearGradient id="gR" x1="0" y1="0" x2="0" y2="1">
      <stop offset="0%" stop-color="#f78166" stop-opacity="0.25"/>
      <stop offset="100%" stop-color="#f78166" stop-opacity="0.02"/>
    </linearGradient>
    <linearGradient id="gO" x1="0" y1="0" x2="0" y2="1">
      <stop offset="0%" stop-color="#58a6ff" stop-opacity="0.25"/>
      <stop offset="100%" stop-color="#58a6ff" stop-opacity="0.02"/>
    </linearGradient>
    <linearGradient id="gOp" x1="0" y1="0" x2="0" y2="1">
      <stop offset="0%" stop-color="#3fb950" stop-opacity="0.25"/>
      <stop offset="100%" stop-color="#3fb950" stop-opacity="0.02"/>
    </linearGradient>
    <linearGradient id="gM" x1="0" y1="0" x2="0" y2="1">
      <stop offset="0%" stop-color="#d2a8ff" stop-opacity="0.25"/>
      <stop offset="100%" stop-color="#d2a8ff" stop-opacity="0.02"/>
    </linearGradient>
    <linearGradient id="gC" x1="0" y1="0" x2="0" y2="1">
      <stop offset="0%" stop-color="#f85149" stop-opacity="0.25"/>
      <stop offset="100%" stop-color="#f85149" stop-opacity="0.02"/>
    </linearGradient>
  </defs>
  <rect width="960" height="400" rx="12" fill="#0d1117"/>
  <rect width="960" height="400" rx="12" fill="none" stroke="#30363d" stroke-width="1"/>
  <text x="55" y="30" fill="#e6edf3" font-size="15" font-weight="600" font-family="-apple-system,BlinkMacSystemFont,Segoe UI,Helvetica,Arial,sans-serif">GitHub Activity — jlaportebot</text>
  <text x="880" y="30" fill="#8b949e" font-size="11" text-anchor="end" font-family="-apple-system,BlinkMacSystemFont,Segoe UI,Helvetica,Arial,sans-serif">Updated Jun 20, 2026</text>
  <line x1="55" y1="340.0" x2="880" y2="340.0" stroke="#21262d" stroke-width="1"/>
  <text x="47" y="344.0" fill="#8b949e" font-size="11" text-anchor="end" font-family="-apple-system,BlinkMacSystemFont,Segoe UI,Helvetica,Arial,sans-serif">0</text>
  <line x1="55" y1="325.6" x2="880" y2="325.6" stroke="#21262d" stroke-width="1"/>
  <text x="47" y="329.6" fill="#8b949e" font-size="11" text-anchor="end" font-family="-apple-system,BlinkMacSystemFont,Segoe UI,Helvetica,Arial,sans-serif">10</text>
  <line x1="55" y1="311.3" x2="880" y2="311.3" stroke="#21262d" stroke-width="1"/>
  <text x="47" y="315.3" fill="#8b949e" font-size="11" text-anchor="end" font-family="-apple-system,BlinkMacSystemFont,Segoe UI,Helvetica,Arial,sans-serif">20</text>
  <line x1="55" y1="296.9" x2="880" y2="296.9" stroke="#21262d" stroke-width="1"/>
  <text x="47" y="300.9" fill="#8b949e" font-size="11" text-anchor="end" font-family="-apple-system,BlinkMacSystemFont,Segoe UI,Helvetica,Arial,sans-serif">30</text>
  <line x1="55" y1="282.6" x2="880" y2="282.6" stroke="#21262d" stroke-width="1"/>
  <text x="47" y="286.6" fill="#8b949e" font-size="11" text-anchor="end" font-family="-apple-system,BlinkMacSystemFont,Segoe UI,Helvetica,Arial,sans-serif">40</text>
  <line x1="55" y1="268.2" x2="880" y2="268.2" stroke="#21262d" stroke-width="1"/>
  <text x="47" y="272.2" fill="#8b949e" font-size="11" text-anchor="end" font-family="-apple-system,BlinkMacSystemFont,Segoe UI,Helvetica,Arial,sans-serif">50</text>
  <line x1="55" y1="253.9" x2="880" y2="253.9" stroke="#21262d" stroke-width="1"/>
  <text x="47" y="257.9" fill="#8b949e" font-size="11" text-anchor="end" font-family="-apple-system,BlinkMacSystemFont,Segoe UI,Helvetica,Arial,sans-serif">60</text>
  <line x1="55" y1="239.5" x2="880" y2="239.5" stroke="#21262d" stroke-width="1"/>
  <text x="47" y="243.5" fill="#8b949e" font-size="11" text-anchor="end" font-family="-apple-system,BlinkMacSystemFont,Segoe UI,Helvetica,Arial,sans-serif">70</text>
  <line x1="55" y1="225.1" x2="880" y2="225.1" stroke="#21262d" stroke-width="1"/>
  <text x="47" y="229.1" fill="#8b949e" font-size="11" text-anchor="end" font-family="-apple-system,BlinkMacSystemFont,Segoe UI,Helvetica,Arial,sans-serif">80</text>
  <line x1="55" y1="210.8" x2="880" y2="210.8" stroke="#21262d" stroke-width="1"/>
  <text x="47" y="214.8" fill="#8b949e" font-size="11" text-anchor="end" font-family="-apple-system,BlinkMacSystemFont,Segoe UI,Helvetica,Arial,sans-serif">90</text>
  <line x1="55" y1="196.4" x2="880" y2="196.4" stroke="#21262d" stroke-width="1"/>
  <text x="47" y="200.4" fill="#8b949e" font-size="11" text-anchor="end" font-family="-apple-system,BlinkMacSystemFont,Segoe UI,Helvetica,Arial,sans-serif">100</text>
  <line x1="55" y1="182.1" x2="880" y2="182.1" stroke="#21262d" stroke-width="1"/>
  <text x="47" y="186.1" fill="#8b949e" font-size="11" text-anchor="end" font-family="-apple-system,BlinkMacSystemFont,Segoe UI,Helvetica,Arial,sans-serif">110</text>
  <line x1="55" y1="167.7" x2="880" y2="167.7" stroke="#21262d" stroke-width="1"/>
  <text x="47" y="171.7" fill="#8b949e" font-size="11" text-anchor="end" font-family="-apple-system,BlinkMacSystemFont,Segoe UI,Helvetica,Arial,sans-serif">120</text>
  <line x1="55" y1="153.4" x2="880" y2="153.4" stroke="#21262d" stroke-width="1"/>
  <text x="47" y="157.4" fill="#8b949e" font-size="11" text-anchor="end" font-family="-apple-system,BlinkMacSystemFont,Segoe UI,Helvetica,Arial,sans-serif">130</text>
  <line x1="55" y1="139.0" x2="880" y2="139.0" stroke="#21262d" stroke-width="1"/>
  <text x="47" y="143.0" fill="#8b949e" font-size="11" text-anchor="end" font-family="-apple-system,BlinkMacSystemFont,Segoe UI,Helvetica,Arial,sans-serif">140</text>
  <line x1="55" y1="124.7" x2="880" y2="124.7" stroke="#21262d" stroke-width="1"/>
  <text x="47" y="128.7" fill="#8b949e" font-size="11" text-anchor="end" font-family="-apple-system,BlinkMacSystemFont,Segoe UI,Helvetica,Arial,sans-serif">150</text>
  <line x1="55" y1="110.3" x2="880" y2="110.3" stroke="#21262d" stroke-width="1"/>
  <text x="47" y="114.3" fill="#8b949e" font-size="11" text-anchor="end" font-family="-apple-system,BlinkMacSystemFont,Segoe UI,Helvetica,Arial,sans-serif">160</text>
  <line x1="55" y1="95.9" x2="880" y2="95.9" stroke="#21262d" stroke-width="1"/>
  <text x="47" y="99.9" fill="#8b949e" font-size="11" text-anchor="end" font-family="-apple-system,BlinkMacSystemFont,Segoe UI,Helvetica,Arial,sans-serif">170</text>
  <line x1="55" y1="81.6" x2="880" y2="81.6" stroke="#21262d" stroke-width="1"/>
  <text x="47" y="85.6" fill="#8b949e" font-size="11" text-anchor="end" font-family="-apple-system,BlinkMacSystemFont,Segoe UI,Helvetica,Arial,sans-serif">180</text>
  <line x1="55" y1="67.2" x2="880" y2="67.2" stroke="#21262d" stroke-width="1"/>
  <text x="47" y="71.2" fill="#8b949e" font-size="11" text-anchor="end" font-family="-apple-system,BlinkMacSystemFont,Segoe UI,Helvetica,Arial,sans-serif">190</text>
  <line x1="55" y1="52.9" x2="880" y2="52.9" stroke="#21262d" stroke-width="1"/>
  <text x="47" y="56.9" fill="#8b949e" font-size="11" text-anchor="end" font-family="-apple-system,BlinkMacSystemFont,Segoe UI,Helvetica,Arial,sans-serif">200</text>
  <line x1="55.0" y1="50" x2="55.0" y2="340" stroke="#21262d" stroke-width="1" stroke-dasharray="4,4"/>
  <text x="55.0" y="360" fill="#8b949e" font-size="10" text-anchor="middle" font-family="-apple-system,BlinkMacSystemFont,Segoe UI,Helvetica,Arial,sans-serif">May 02</text>
  <line x1="172.9" y1="50" x2="172.9" y2="340" stroke="#21262d" stroke-width="1" stroke-dasharray="4,4"/>
  <text x="172.9" y="360" fill="#8b949e" font-size="10" text-anchor="middle" font-family="-apple-system,BlinkMacSystemFont,Segoe UI,Helvetica,Arial,sans-serif">May 09</text>
  <line x1="290.7" y1="50" x2="290.7" y2="340" stroke="#21262d" stroke-width="1" stroke-dasharray="4,4"/>
  <text x="290.7" y="360" fill="#8b949e" font-size="10" text-anchor="middle" font-family="-apple-system,BlinkMacSystemFont,Segoe UI,Helvetica,Arial,sans-serif">May 16</text>
  <line x1="408.6" y1="50" x2="408.6" y2="340" stroke="#21262d" stroke-width="1" stroke-dasharray="4,4"/>
  <text x="408.6" y="360" fill="#8b949e" font-size="10" text-anchor="middle" font-family="-apple-system,BlinkMacSystemFont,Segoe UI,Helvetica,Arial,sans-serif">May 23</text>
  <line x1="526.4" y1="50" x2="526.4" y2="340" stroke="#21262d" stroke-width="1" stroke-dasharray="4,4"/>
  <text x="526.4" y="360" fill="#8b949e" font-size="10" text-anchor="middle" font-family="-apple-system,BlinkMacSystemFont,Segoe UI,Helvetica,Arial,sans-serif">May 30</text>
  <line x1="644.3" y1="50" x2="644.3" y2="340" stroke="#21262d" stroke-width="1" stroke-dasharray="4,4"/>
  <text x="644.3" y="360" fill="#8b949e" font-size="10" text-anchor="middle" font-family="-apple-system,BlinkMacSystemFont,Segoe UI,Helvetica,Arial,sans-serif">Jun 06</text>
  <line x1="762.1" y1="50" x2="762.1" y2="340" stroke="#21262d" stroke-width="1" stroke-dasharray="4,4"/>
  <text x="762.1" y="360" fill="#8b949e" font-size="10" text-anchor="middle" font-family="-apple-system,BlinkMacSystemFont,Segoe UI,Helvetica,Arial,sans-serif">Jun 13</text>
  <line x1="880.0" y1="50" x2="880.0" y2="340" stroke="#21262d" stroke-width="1" stroke-dasharray="4,4"/>
  <text x="880.0" y="360" fill="#8b949e" font-size="10" text-anchor="middle" font-family="-apple-system,BlinkMacSystemFont,Segoe UI,Helvetica,Arial,sans-serif">Jun 20</text>
  <path d="M55.0,340.0L71.8,322.8L88.7,312.7L105.5,307.0L122.3,298.4L139.2,292.6L156.0,288.3L172.9,288.3L189.7,288.3L206.5,288.3L223.4,288.3L240.2,288.3L257.0,288.3L273.9,288.3L290.7,286.9L307.6,281.1L324.4,275.4L341.2,268.2L358.1,259.6L374.9,251.0L391.7,242.4L408.6,235.2L425.4,229.5L442.2,226.6L459.1,222.3L475.9,206.5L492.8,205.0L509.6,197.9L526.4,187.8L543.3,180.6L560.1,174.9L576.9,174.9L593.8,174.9L610.6,174.9L627.4,174.9L644.3,174.9L661.1,166.3L678.0,154.8L694.8,150.5L711.6,141.9L728.5,136.1L745.3,127.5L762.1,114.6L779.0,107.4L795.8,100.2L812.7,93.1L829.5,80.1L846.3,71.5L863.2,60.0L880.0,57.2L880.0,340.0L55.0,340.0Z" fill="url(#gO)"/>
  <path d="M55.0,338.6L71.8,338.6L88.7,338.6L105.5,338.6L122.3,338.6L139.2,338.6L156.0,338.6L172.9,338.6L189.7,338.6L206.5,338.6L223.4,338.6L240.2,338.6L257.0,338.6L273.9,338.6L290.7,338.6L307.6,334.3L324.4,334.3L341.2,334.3L358.1,334.3L374.9,334.3L391.7,334.3L408.6,334.3L425.4,332.8L442.2,328.5L459.1,328.5L475.9,327.1L492.8,327.1L509.6,327.1L526.4,327.1L543.3,327.1L560.1,324.2L576.9,324.2L593.8,324.2L610.6,324.2L627.4,324.2L644.3,324.2L661.1,324.2L678.0,321.3L694.8,304.1L711.6,304.1L728.5,304.1L745.3,304.1L762.1,292.6L779.0,292.6L795.8,292.6L812.7,292.6L829.5,292.6L846.3,289.8L863.2,289.8L880.0,289.8L880.0,340.0L55.0,340.0Z" fill="url(#gR)"/>
  <path d="M55.0,340.0L71.8,322.8L88.7,312.7L105.5,307.0L122.3,298.4L139.2,292.6L156.0,288.3L172.9,288.3L189.7,288.3L206.5,288.3L223.4,288.3L240.2,288.3L257.0,288.3L273.9,288.3L290.7,286.9L307.6,281.1L324.4,275.4L341.2,268.2L358.1,259.6L374.9,251.0L391.7,242.4L408.6,235.2L425.4,229.5L442.2,226.6L459.1,222.3L475.9,206.5L492.8,205.0L509.6,197.9L526.4,187.8L543.3,180.6L560.1,174.9L576.9,174.9L593.8,174.9L610.6,174.9L627.4,174.9L644.3,174.9L661.1,166.3L678.0,154.8L694.8,150.5L711.6,141.9L728.5,136.1L745.3,127.5L762.1,114.6L779.0,107.4L795.8,100.2L812.7,93.1L829.5,80.1L846.3,71.5L863.2,60.0L880.0,57.2" fill="none" stroke="#58a6ff" stroke-width="2.5" stroke-linecap="round" stroke-linejoin="round"/>
  <path d="M55.0,338.6L71.8,338.6L88.7,338.6L105.5,338.6L122.3,338.6L139.2,338.6L156.0,338.6L172.9,338.6L189.7,338.6L206.5,338.6L223.4,338.6L240.2,338.6L257.0,338.6L273.9,338.6L290.7,338.6L307.6,334.3L324.4,334.3L341.2,334.3L358.1,334.3L374.9,334.3L391.7,334.3L408.6,334.3L425.4,332.8L442.2,328.5L459.1,328.5L475.9,327.1L492.8,327.1L509.6,327.1L526.4,327.1L543.3,327.1L560.1,324.2L576.9,324.2L593.8,324.2L610.6,324.2L627.4,324.2L644.3,324.2L661.1,324.2L678.0,321.3L694.8,304.1L711.6,304.1L728.5,304.1L745.3,304.1L762.1,292.6L779.0,292.6L795.8,292.6L812.7,292.6L829.5,292.6L846.3,289.8L863.2,289.8L880.0,289.8" fill="none" stroke="#f78166" stroke-width="2.5" stroke-linecap="round" stroke-linejoin="round"/>
  <path d="M55.0,340.0L71.8,330.0L88.7,322.8L105.5,319.9L122.3,312.7L139.2,314.2L156.0,309.9L172.9,311.3L189.7,311.3L206.5,312.7L223.4,312.7L240.2,312.7L257.0,312.7L273.9,312.7L290.7,311.3L307.6,309.9L324.4,308.4L341.2,304.1L358.1,295.5L374.9,289.8L391.7,284.0L408.6,279.7L425.4,279.7L442.2,281.1L459.1,284.0L475.9,278.3L492.8,276.8L509.6,276.8L526.4,272.5L543.3,279.7L560.1,275.4L576.9,275.4L593.8,275.4L610.6,275.4L627.4,284.0L644.3,284.0L661.1,282.6L678.0,289.8L694.8,340.0L711.6,340.0L728.5,340.0L745.3,340.0L762.1,334.3L779.0,334.3L795.8,331.4L812.7,331.4L829.5,330.0L846.3,325.6L863.2,327.1L880.0,325.6" fill="none" stroke="#3fb950" stroke-width="2.5" stroke-linecap="round" stroke-linejoin="round"/>
  <path d="M55.0,340.0L71.8,340.0L88.7,338.6L105.5,337.1L122.3,337.1L139.2,335.7L156.0,335.7L172.9,334.3L189.7,334.3L206.5,334.3L223.4,334.3L240.2,334.3L257.0,334.3L273.9,334.3L290.7,334.3L307.6,332.8L324.4,330.0L341.2,328.5L358.1,328.5L374.9,328.5L391.7,325.6L408.6,325.6L425.4,325.6L442.2,324.2L459.1,324.2L475.9,315.6L492.8,315.6L509.6,309.9L526.4,305.5L543.3,299.8L560.1,298.4L576.9,298.4L593.8,298.4L610.6,298.4L627.4,295.5L644.3,295.5L661.1,292.6L678.0,288.3L694.8,285.4L711.6,276.8L728.5,271.1L745.3,262.5L762.1,258.2L779.0,252.4L795.8,249.6L812.7,242.4L829.5,230.9L846.3,226.6L863.2,218.0L880.0,218.0" fill="none" stroke="#d2a8ff" stroke-width="2.5" stroke-linecap="round" stroke-linejoin="round"/>
  <path d="M55.0,340.0L71.8,332.8L88.7,331.4L105.5,330.0L122.3,328.5L139.2,322.8L156.0,322.8L172.9,322.8L189.7,322.8L206.5,321.3L223.4,321.3L240.2,321.3L257.0,321.3L273.9,321.3L290.7,321.3L307.6,318.5L324.4,317.0L341.2,315.6L358.1,315.6L374.9,312.7L391.7,312.7L408.6,309.9L425.4,304.1L442.2,301.2L459.1,294.1L475.9,292.6L492.8,292.6L509.6,291.2L526.4,289.8L543.3,281.1L560.1,281.1L576.9,281.1L593.8,281.1L610.6,281.1L627.4,275.4L644.3,275.4L661.1,271.1L678.0,256.7L694.8,205.0L711.6,205.0L728.5,205.0L745.3,205.0L762.1,202.2L779.0,200.7L795.8,199.3L812.7,199.3L829.5,199.3L846.3,199.3L863.2,195.0L880.0,193.6" fill="none" stroke="#f85149" stroke-width="2.5" stroke-linecap="round" stroke-linejoin="round"/>
  <circle cx="880.0" cy="57.2" r="3.5" fill="#58a6ff"/>
  <text x="889.0" y="61.2" fill="#58a6ff" font-size="11" font-weight="600" font-family="-apple-system,BlinkMacSystemFont,Segoe UI,Helvetica,Arial,sans-serif">197</text>
  <circle cx="880.0" cy="289.8" r="3.5" fill="#f78166"/>
  <text x="889.0" y="293.8" fill="#f78166" font-size="11" font-weight="600" font-family="-apple-system,BlinkMacSystemFont,Segoe UI,Helvetica,Arial,sans-serif">35</text>
  <circle cx="880.0" cy="325.6" r="3.5" fill="#3fb950"/>
  <text x="889.0" y="329.6" fill="#3fb950" font-size="11" font-weight="600" font-family="-apple-system,BlinkMacSystemFont,Segoe UI,Helvetica,Arial,sans-serif">10</text>
  <circle cx="880.0" cy="218.0" r="3.5" fill="#d2a8ff"/>
  <text x="889.0" y="222.0" fill="#d2a8ff" font-size="11" font-weight="600" font-family="-apple-system,BlinkMacSystemFont,Segoe UI,Helvetica,Arial,sans-serif">85</text>
  <circle cx="880.0" cy="193.6" r="3.5" fill="#f85149"/>
  <text x="889.0" y="197.6" fill="#f85149" font-size="11" font-weight="600" font-family="-apple-system,BlinkMacSystemFont,Segoe UI,Helvetica,Arial,sans-serif">102</text>
  <line x1="55" y1="368" x2="71" y2="368" stroke="#f78166" stroke-width="2.5" stroke-linecap="round"/>
  <text x="77" y="372" fill="#8b949e" font-size="11" font-family="-apple-system,BlinkMacSystemFont,Segoe UI,Helvetica,Arial,sans-serif">Repos</text>
  <line x1="255" y1="368" x2="271" y2="368" stroke="#58a6ff" stroke-width="2.5" stroke-linecap="round"/>
  <text x="277" y="372" fill="#8b949e" font-size="11" font-family="-apple-system,BlinkMacSystemFont,Segoe UI,Helvetica,Arial,sans-serif">PRs Opened</text>
  <line x1="455" y1="368" x2="471" y2="368" stroke="#3fb950" stroke-width="2.5" stroke-linecap="round"/>
  <text x="477" y="372" fill="#8b949e" font-size="11" font-family="-apple-system,BlinkMacSystemFont,Segoe UI,Helvetica,Arial,sans-serif">Open PRs</text>
  <line x1="55" y1="386" x2="71" y2="386" stroke="#d2a8ff" stroke-width="2.5" stroke-linecap="round"/>
  <text x="77" y="390" fill="#8b949e" font-size="11" font-family="-apple-system,BlinkMacSystemFont,Segoe UI,Helvetica,Arial,sans-serif">Merged</text>
  <line x1="255" y1="386" x2="271" y2="386" stroke="#f85149" stroke-width="2.5" stroke-linecap="round"/>
  <text x="277" y="390" fill="#8b949e" font-size="11" font-family="-apple-system,BlinkMacSystemFont,Segoe UI,Helvetica,Arial,sans-serif">Closed</text>
</svg>