<svg xmlns="http://www.w3.org/2000/svg" viewBox="0 0 960 400" width="960" height="400">
  <defs>
    <linearGradient id="gR" x1="0" y1="0" x2="0" y2="1">
      <stop offset="0%" stop-color="#3fb950" stop-opacity="0.25"/>
      <stop offset="100%" stop-color="#3fb950" stop-opacity="0.02"/>
    </linearGradient>
    <linearGradient id="gO" x1="0" y1="0" x2="0" y2="1">
      <stop offset="0%" stop-color="#58a6ff" stop-opacity="0.25"/>
      <stop offset="100%" stop-color="#58a6ff" stop-opacity="0.02"/>
    </linearGradient>
    <linearGradient id="gOp" x1="0" y1="0" x2="0" y2="1">
      <stop offset="0%" stop-color="#d2a8ff" stop-opacity="0.25"/>
      <stop offset="100%" stop-color="#d2a8ff" stop-opacity="0.02"/>
    </linearGradient>
    <linearGradient id="gM" x1="0" y1="0" x2="0" y2="1">
      <stop offset="0%" stop-color="#f78166" stop-opacity="0.25"/>
      <stop offset="100%" stop-color="#f78166" stop-opacity="0.02"/>
    </linearGradient>
    <linearGradient id="gC" x1="0" y1="0" x2="0" y2="1">
      <stop offset="0%" stop-color="#f85149" stop-opacity="0.25"/>
      <stop offset="100%" stop-color="#f85149" stop-opacity="0.02"/>
    </linearGradient>
  </defs>
  <rect width="960" height="400" rx="12" fill="#0d1117"/>
  <rect width="960" height="400" rx="12" fill="none" stroke="#30363d" stroke-width="1"/>
  <text x="55" y="30" fill="#e6edf3" font-size="15" font-weight="600" font-family="-apple-system,BlinkMacSystemFont,Segoe UI,Helvetica,Arial,sans-serif">GitHub Activity — jlaportebot</text>
  <text x="880" y="30" fill="#8b949e" font-size="11" text-anchor="end" font-family="-apple-system,BlinkMacSystemFont,Segoe UI,Helvetica,Arial,sans-serif">Updated Jun 12, 2026</text>
  <line x1="55" y1="340.0" x2="880" y2="340.0" stroke="#21262d" stroke-width="1"/>
  <text x="47" y="344.0" fill="#8b949e" font-size="11" text-anchor="end" font-family="-apple-system,BlinkMacSystemFont,Segoe UI,Helvetica,Arial,sans-serif">0</text>
  <line x1="55" y1="321.0" x2="880" y2="321.0" stroke="#21262d" stroke-width="1"/>
  <text x="47" y="325.0" fill="#8b949e" font-size="11" text-anchor="end" font-family="-apple-system,BlinkMacSystemFont,Segoe UI,Helvetica,Arial,sans-serif">10</text>
  <line x1="55" y1="302.1" x2="880" y2="302.1" stroke="#21262d" stroke-width="1"/>
  <text x="47" y="306.1" fill="#8b949e" font-size="11" text-anchor="end" font-family="-apple-system,BlinkMacSystemFont,Segoe UI,Helvetica,Arial,sans-serif">20</text>
  <line x1="55" y1="283.1" x2="880" y2="283.1" stroke="#21262d" stroke-width="1"/>
  <text x="47" y="287.1" fill="#8b949e" font-size="11" text-anchor="end" font-family="-apple-system,BlinkMacSystemFont,Segoe UI,Helvetica,Arial,sans-serif">30</text>
  <line x1="55" y1="264.2" x2="880" y2="264.2" stroke="#21262d" stroke-width="1"/>
  <text x="47" y="268.2" fill="#8b949e" font-size="11" text-anchor="end" font-family="-apple-system,BlinkMacSystemFont,Segoe UI,Helvetica,Arial,sans-serif">40</text>
  <line x1="55" y1="245.2" x2="880" y2="245.2" stroke="#21262d" stroke-width="1"/>
  <text x="47" y="249.2" fill="#8b949e" font-size="11" text-anchor="end" font-family="-apple-system,BlinkMacSystemFont,Segoe UI,Helvetica,Arial,sans-serif">50</text>
  <line x1="55" y1="226.3" x2="880" y2="226.3" stroke="#21262d" stroke-width="1"/>
  <text x="47" y="230.3" fill="#8b949e" font-size="11" text-anchor="end" font-family="-apple-system,BlinkMacSystemFont,Segoe UI,Helvetica,Arial,sans-serif">60</text>
  <line x1="55" y1="207.3" x2="880" y2="207.3" stroke="#21262d" stroke-width="1"/>
  <text x="47" y="211.3" fill="#8b949e" font-size="11" text-anchor="end" font-family="-apple-system,BlinkMacSystemFont,Segoe UI,Helvetica,Arial,sans-serif">70</text>
  <line x1="55" y1="188.4" x2="880" y2="188.4" stroke="#21262d" stroke-width="1"/>
  <text x="47" y="192.4" fill="#8b949e" font-size="11" text-anchor="end" font-family="-apple-system,BlinkMacSystemFont,Segoe UI,Helvetica,Arial,sans-serif">80</text>
  <line x1="55" y1="169.4" x2="880" y2="169.4" stroke="#21262d" stroke-width="1"/>
  <text x="47" y="173.4" fill="#8b949e" font-size="11" text-anchor="end" font-family="-apple-system,BlinkMacSystemFont,Segoe UI,Helvetica,Arial,sans-serif">90</text>
  <line x1="55" y1="150.5" x2="880" y2="150.5" stroke="#21262d" stroke-width="1"/>
  <text x="47" y="154.5" fill="#8b949e" font-size="11" text-anchor="end" font-family="-apple-system,BlinkMacSystemFont,Segoe UI,Helvetica,Arial,sans-serif">100</text>
  <line x1="55" y1="131.5" x2="880" y2="131.5" stroke="#21262d" stroke-width="1"/>
  <text x="47" y="135.5" fill="#8b949e" font-size="11" text-anchor="end" font-family="-apple-system,BlinkMacSystemFont,Segoe UI,Helvetica,Arial,sans-serif">110</text>
  <line x1="55" y1="112.5" x2="880" y2="112.5" stroke="#21262d" stroke-width="1"/>
  <text x="47" y="116.5" fill="#8b949e" font-size="11" text-anchor="end" font-family="-apple-system,BlinkMacSystemFont,Segoe UI,Helvetica,Arial,sans-serif">120</text>
  <line x1="55" y1="93.6" x2="880" y2="93.6" stroke="#21262d" stroke-width="1"/>
  <text x="47" y="97.6" fill="#8b949e" font-size="11" text-anchor="end" font-family="-apple-system,BlinkMacSystemFont,Segoe UI,Helvetica,Arial,sans-serif">130</text>
  <line x1="55" y1="74.6" x2="880" y2="74.6" stroke="#21262d" stroke-width="1"/>
  <text x="47" y="78.6" fill="#8b949e" font-size="11" text-anchor="end" font-family="-apple-system,BlinkMacSystemFont,Segoe UI,Helvetica,Arial,sans-serif">140</text>
  <line x1="55" y1="55.7" x2="880" y2="55.7" stroke="#21262d" stroke-width="1"/>
  <text x="47" y="59.7" fill="#8b949e" font-size="11" text-anchor="end" font-family="-apple-system,BlinkMacSystemFont,Segoe UI,Helvetica,Arial,sans-serif">150</text>
  <line x1="55.0" y1="50" x2="55.0" y2="340" stroke="#21262d" stroke-width="1" stroke-dasharray="4,4"/>
  <text x="55.0" y="360" fill="#8b949e" font-size="10" text-anchor="middle" font-family="-apple-system,BlinkMacSystemFont,Segoe UI,Helvetica,Arial,sans-serif">May 02</text>
  <line x1="172.9" y1="50" x2="172.9" y2="340" stroke="#21262d" stroke-width="1" stroke-dasharray="4,4"/>
  <text x="172.9" y="360" fill="#8b949e" font-size="10" text-anchor="middle" font-family="-apple-system,BlinkMacSystemFont,Segoe UI,Helvetica,Arial,sans-serif">May 08</text>
  <line x1="290.7" y1="50" x2="290.7" y2="340" stroke="#21262d" stroke-width="1" stroke-dasharray="4,4"/>
  <text x="290.7" y="360" fill="#8b949e" font-size="10" text-anchor="middle" font-family="-apple-system,BlinkMacSystemFont,Segoe UI,Helvetica,Arial,sans-serif">May 14</text>
  <line x1="408.6" y1="50" x2="408.6" y2="340" stroke="#21262d" stroke-width="1" stroke-dasharray="4,4"/>
  <text x="408.6" y="360" fill="#8b949e" font-size="10" text-anchor="middle" font-family="-apple-system,BlinkMacSystemFont,Segoe UI,Helvetica,Arial,sans-serif">May 20</text>
  <line x1="526.4" y1="50" x2="526.4" y2="340" stroke="#21262d" stroke-width="1" stroke-dasharray="4,4"/>
  <text x="526.4" y="360" fill="#8b949e" font-size="10" text-anchor="middle" font-family="-apple-system,BlinkMacSystemFont,Segoe UI,Helvetica,Arial,sans-serif">May 26</text>
  <line x1="644.3" y1="50" x2="644.3" y2="340" stroke="#21262d" stroke-width="1" stroke-dasharray="4,4"/>
  <text x="644.3" y="360" fill="#8b949e" font-size="10" text-anchor="middle" font-family="-apple-system,BlinkMacSystemFont,Segoe UI,Helvetica,Arial,sans-serif">Jun 01</text>
  <line x1="762.1" y1="50" x2="762.1" y2="340" stroke="#21262d" stroke-width="1" stroke-dasharray="4,4"/>
  <text x="762.1" y="360" fill="#8b949e" font-size="10" text-anchor="middle" font-family="-apple-system,BlinkMacSystemFont,Segoe UI,Helvetica,Arial,sans-serif">Jun 07</text>
  <line x1="880.0" y1="50" x2="880.0" y2="340" stroke="#21262d" stroke-width="1" stroke-dasharray="4,4"/>
  <text x="880.0" y="360" fill="#8b949e" font-size="10" text-anchor="middle" font-family="-apple-system,BlinkMacSystemFont,Segoe UI,Helvetica,Arial,sans-serif">Jun 13</text>
  <path d="M55.0,340.0L74.6,317.3L94.3,304.0L113.9,296.4L133.6,285.0L153.2,277.5L172.9,271.8L192.5,271.8L212.1,271.8L231.8,271.8L251.4,271.8L271.1,271.8L290.7,271.8L310.4,271.8L330.0,269.9L349.6,262.3L369.3,254.7L388.9,245.2L408.6,233.9L428.2,222.5L447.9,211.1L467.5,201.6L487.1,194.1L506.8,190.3L526.4,184.6L546.1,163.7L565.7,161.8L585.4,152.4L605.0,139.1L624.6,129.6L644.3,122.0L663.9,122.0L683.6,122.0L703.2,122.0L722.9,122.0L742.5,122.0L762.1,110.7L781.8,95.5L801.4,89.8L821.1,78.4L840.7,70.8L860.4,59.5L880.0,59.5L880.0,340.0L55.0,340.0Z" fill="url(#gO)"/>
  <path d="M55.0,338.1L74.6,338.1L94.3,338.1L113.9,338.1L133.6,338.1L153.2,338.1L172.9,338.1L192.5,338.1L212.1,338.1L231.8,338.1L251.4,338.1L271.1,338.1L290.7,338.1L310.4,338.1L330.0,338.1L349.6,332.4L369.3,332.4L388.9,332.4L408.6,332.4L428.2,332.4L447.9,332.4L467.5,332.4L487.1,330.5L506.8,324.8L526.4,324.8L546.1,322.9L565.7,322.9L585.4,322.9L605.0,322.9L624.6,322.9L644.3,319.2L663.9,319.2L683.6,319.2L703.2,319.2L722.9,319.2L742.5,319.2L762.1,319.2L781.8,315.4L801.4,292.6L821.1,292.6L840.7,292.6L860.4,292.6L880.0,290.7L880.0,340.0L55.0,340.0Z" fill="url(#gR)"/>
  <path d="M55.0,340.0L74.6,317.3L94.3,304.0L113.9,296.4L133.6,285.0L153.2,277.5L172.9,271.8L192.5,271.8L212.1,271.8L231.8,271.8L251.4,271.8L271.1,271.8L290.7,271.8L310.4,271.8L330.0,269.9L349.6,262.3L369.3,254.7L388.9,245.2L408.6,233.9L428.2,222.5L447.9,211.1L467.5,201.6L487.1,194.1L506.8,190.3L526.4,184.6L546.1,163.7L565.7,161.8L585.4,152.4L605.0,139.1L624.6,129.6L644.3,122.0L663.9,122.0L683.6,122.0L703.2,122.0L722.9,122.0L742.5,122.0L762.1,110.7L781.8,95.5L801.4,89.8L821.1,78.4L840.7,70.8L860.4,59.5L880.0,59.5" fill="none" stroke="#58a6ff" stroke-width="2.5" stroke-linecap="round" stroke-linejoin="round"/>
  <path d="M55.0,338.1L74.6,338.1L94.3,338.1L113.9,338.1L133.6,338.1L153.2,338.1L172.9,338.1L192.5,338.1L212.1,338.1L231.8,338.1L251.4,338.1L271.1,338.1L290.7,338.1L310.4,338.1L330.0,338.1L349.6,332.4L369.3,332.4L388.9,332.4L408.6,332.4L428.2,332.4L447.9,332.4L467.5,332.4L487.1,330.5L506.8,324.8L526.4,324.8L546.1,322.9L565.7,322.9L585.4,322.9L605.0,322.9L624.6,322.9L644.3,319.2L663.9,319.2L683.6,319.2L703.2,319.2L722.9,319.2L742.5,319.2L762.1,319.2L781.8,315.4L801.4,292.6L821.1,292.6L840.7,292.6L860.4,292.6L880.0,290.7" fill="none" stroke="#3fb950" stroke-width="2.5" stroke-linecap="round" stroke-linejoin="round"/>
  <path d="M55.0,340.0L74.6,326.7L94.3,317.3L113.9,313.5L133.6,304.0L153.2,305.9L172.9,300.2L192.5,302.1L212.1,302.1L231.8,304.0L251.4,304.0L271.1,304.0L290.7,304.0L310.4,304.0L330.0,302.1L349.6,300.2L369.3,298.3L388.9,292.6L408.6,281.2L428.2,273.7L447.9,266.1L467.5,260.4L487.1,260.4L506.8,262.3L526.4,266.1L546.1,258.5L565.7,256.6L585.4,256.6L605.0,250.9L624.6,260.4L644.3,254.7L663.9,254.7L683.6,254.7L703.2,254.7L722.9,266.1L742.5,266.1L762.1,264.2L781.8,273.7L801.4,340.0L821.1,340.0L840.7,340.0L860.4,340.0L880.0,340.0" fill="none" stroke="#d2a8ff" stroke-width="2.5" stroke-linecap="round" stroke-linejoin="round"/>
  <path d="M55.0,340.0L74.6,340.0L94.3,338.1L113.9,336.2L133.6,336.2L153.2,334.3L172.9,334.3L192.5,332.4L212.1,332.4L231.8,332.4L251.4,332.4L271.1,332.4L290.7,332.4L310.4,332.4L330.0,332.4L349.6,330.5L369.3,326.7L388.9,324.8L408.6,324.8L428.2,324.8L447.9,321.0L467.5,321.0L487.1,321.0L506.8,319.2L526.4,319.2L546.1,307.8L565.7,307.8L585.4,300.2L605.0,294.5L624.6,286.9L644.3,285.0L663.9,285.0L683.6,285.0L703.2,285.0L722.9,281.2L742.5,281.2L762.1,277.5L781.8,271.8L801.4,268.0L821.1,256.6L840.7,249.0L860.4,237.6L880.0,237.6" fill="none" stroke="#f78166" stroke-width="2.5" stroke-linecap="round" stroke-linejoin="round"/>
  <path d="M55.0,340.0L74.6,330.5L94.3,328.6L113.9,326.7L133.6,324.8L153.2,317.3L172.9,317.3L192.5,317.3L212.1,317.3L231.8,315.4L251.4,315.4L271.1,315.4L290.7,315.4L310.4,315.4L330.0,315.4L349.6,311.6L369.3,309.7L388.9,307.8L408.6,307.8L428.2,304.0L447.9,304.0L467.5,300.2L487.1,292.6L506.8,288.8L526.4,279.3L546.1,277.5L565.7,277.5L585.4,275.6L605.0,273.7L624.6,262.3L644.3,262.3L663.9,262.3L683.6,262.3L703.2,262.3L722.9,254.7L742.5,254.7L762.1,249.0L781.8,230.1L801.4,161.8L821.1,161.8L840.7,161.8L860.4,161.8L880.0,161.8" fill="none" stroke="#f85149" stroke-width="2.5" stroke-linecap="round" stroke-linejoin="round"/>
  <circle cx="880.0" cy="59.5" r="3.5" fill="#58a6ff"/>
  <text x="889.0" y="63.5" fill="#58a6ff" font-size="11" font-weight="600" font-family="-apple-system,BlinkMacSystemFont,Segoe UI,Helvetica,Arial,sans-serif">148</text>
  <circle cx="880.0" cy="290.7" r="3.5" fill="#3fb950"/>
  <text x="889.0" y="294.7" fill="#3fb950" font-size="11" font-weight="600" font-family="-apple-system,BlinkMacSystemFont,Segoe UI,Helvetica,Arial,sans-serif">26</text>
  <circle cx="880.0" cy="340.0" r="3.5" fill="#d2a8ff"/>
  <text x="889.0" y="344.0" fill="#d2a8ff" font-size="11" font-weight="600" font-family="-apple-system,BlinkMacSystemFont,Segoe UI,Helvetica,Arial,sans-serif">0</text>
  <circle cx="880.0" cy="237.6" r="3.5" fill="#f78166"/>
  <text x="889.0" y="241.6" fill="#f78166" font-size="11" font-weight="600" font-family="-apple-system,BlinkMacSystemFont,Segoe UI,Helvetica,Arial,sans-serif">54</text>
  <circle cx="880.0" cy="161.8" r="3.5" fill="#f85149"/>
  <text x="889.0" y="165.8" fill="#f85149" font-size="11" font-weight="600" font-family="-apple-system,BlinkMacSystemFont,Segoe UI,Helvetica,Arial,sans-serif">94</text>
  <line x1="55" y1="368" x2="71" y2="368" stroke="#3fb950" stroke-width="2.5" stroke-linecap="round"/>
  <text x="77" y="372" fill="#8b949e" font-size="11" font-family="-apple-system,BlinkMacSystemFont,Segoe UI,Helvetica,Arial,sans-serif">Repos</text>
  <line x1="255" y1="368" x2="271" y2="368" stroke="#58a6ff" stroke-width="2.5" stroke-linecap="round"/>
  <text x="277" y="372" fill="#8b949e" font-size="11" font-family="-apple-system,BlinkMacSystemFont,Segoe UI,Helvetica,Arial,sans-serif">PRs Opened</text>
  <line x1="455" y1="368" x2="471" y2="368" stroke="#d2a8ff" stroke-width="2.5" stroke-linecap="round"/>
  <text x="477" y="372" fill="#8b949e" font-size="11" font-family="-apple-system,BlinkMacSystemFont,Segoe UI,Helvetica,Arial,sans-serif">Open PRs</text>
  <line x1="55" y1="386" x2="71" y2="386" stroke="#f78166" stroke-width="2.5" stroke-linecap="round"/>
  <text x="77" y="390" fill="#8b949e" font-size="11" font-family="-apple-system,BlinkMacSystemFont,Segoe UI,Helvetica,Arial,sans-serif">Merged</text>
  <line x1="255" y1="386" x2="271" y2="386" stroke="#f85149" stroke-width="2.5" stroke-linecap="round"/>
  <text x="277" y="390" fill="#8b949e" font-size="11" font-family="-apple-system,BlinkMacSystemFont,Segoe UI,Helvetica,Arial,sans-serif">Closed</text>
</svg>