<svg xmlns="http://www.w3.org/2000/svg" viewBox="0 0 960 400" width="960" height="400">
  <defs>
    <linearGradient id="gR" x1="0" y1="0" x2="0" y2="1">
      <stop offset="0%" stop-color="#f78166" stop-opacity="0.25"/>
      <stop offset="100%" stop-color="#f78166" stop-opacity="0.02"/>
    </linearGradient>
    <linearGradient id="gO" x1="0" y1="0" x2="0" y2="1">
      <stop offset="0%" stop-color="#58a6ff" stop-opacity="0.25"/>
      <stop offset="100%" stop-color="#58a6ff" stop-opacity="0.02"/>
    </linearGradient>
    <linearGradient id="gOp" x1="0" y1="0" x2="0" y2="1">
      <stop offset="0%" stop-color="#3fb950" stop-opacity="0.25"/>
      <stop offset="100%" stop-color="#3fb950" stop-opacity="0.02"/>
    </linearGradient>
    <linearGradient id="gM" x1="0" y1="0" x2="0" y2="1">
      <stop offset="0%" stop-color="#d2a8ff" stop-opacity="0.25"/>
      <stop offset="100%" stop-color="#d2a8ff" stop-opacity="0.02"/>
    </linearGradient>
    <linearGradient id="gC" x1="0" y1="0" x2="0" y2="1">
      <stop offset="0%" stop-color="#f85149" stop-opacity="0.25"/>
      <stop offset="100%" stop-color="#f85149" stop-opacity="0.02"/>
    </linearGradient>
  </defs>
  <rect width="960" height="400" rx="12" fill="#0d1117"/>
  <rect width="960" height="400" rx="12" fill="none" stroke="#30363d" stroke-width="1"/>
  <text x="55" y="30" fill="#e6edf3" font-size="15" font-weight="600" font-family="-apple-system,BlinkMacSystemFont,Segoe UI,Helvetica,Arial,sans-serif">GitHub Activity — jlaportebot</text>
  <text x="880" y="30" fill="#8b949e" font-size="11" text-anchor="end" font-family="-apple-system,BlinkMacSystemFont,Segoe UI,Helvetica,Arial,sans-serif">Updated Jul 22, 2026</text>
  <line x1="55" y1="340.0" x2="880" y2="340.0" stroke="#21262d" stroke-width="1"/>
  <text x="47" y="344.0" fill="#8b949e" font-size="11" text-anchor="end" font-family="-apple-system,BlinkMacSystemFont,Segoe UI,Helvetica,Arial,sans-serif">0</text>
  <line x1="55" y1="329.6" x2="880" y2="329.6" stroke="#21262d" stroke-width="1"/>
  <text x="47" y="333.6" fill="#8b949e" font-size="11" text-anchor="end" font-family="-apple-system,BlinkMacSystemFont,Segoe UI,Helvetica,Arial,sans-serif">10</text>
  <line x1="55" y1="319.1" x2="880" y2="319.1" stroke="#21262d" stroke-width="1"/>
  <text x="47" y="323.1" fill="#8b949e" font-size="11" text-anchor="end" font-family="-apple-system,BlinkMacSystemFont,Segoe UI,Helvetica,Arial,sans-serif">20</text>
  <line x1="55" y1="308.7" x2="880" y2="308.7" stroke="#21262d" stroke-width="1"/>
  <text x="47" y="312.7" fill="#8b949e" font-size="11" text-anchor="end" font-family="-apple-system,BlinkMacSystemFont,Segoe UI,Helvetica,Arial,sans-serif">30</text>
  <line x1="55" y1="298.3" x2="880" y2="298.3" stroke="#21262d" stroke-width="1"/>
  <text x="47" y="302.3" fill="#8b949e" font-size="11" text-anchor="end" font-family="-apple-system,BlinkMacSystemFont,Segoe UI,Helvetica,Arial,sans-serif">40</text>
  <line x1="55" y1="287.8" x2="880" y2="287.8" stroke="#21262d" stroke-width="1"/>
  <text x="47" y="291.8" fill="#8b949e" font-size="11" text-anchor="end" font-family="-apple-system,BlinkMacSystemFont,Segoe UI,Helvetica,Arial,sans-serif">50</text>
  <line x1="55" y1="277.4" x2="880" y2="277.4" stroke="#21262d" stroke-width="1"/>
  <text x="47" y="281.4" fill="#8b949e" font-size="11" text-anchor="end" font-family="-apple-system,BlinkMacSystemFont,Segoe UI,Helvetica,Arial,sans-serif">60</text>
  <line x1="55" y1="267.0" x2="880" y2="267.0" stroke="#21262d" stroke-width="1"/>
  <text x="47" y="271.0" fill="#8b949e" font-size="11" text-anchor="end" font-family="-apple-system,BlinkMacSystemFont,Segoe UI,Helvetica,Arial,sans-serif">70</text>
  <line x1="55" y1="256.5" x2="880" y2="256.5" stroke="#21262d" stroke-width="1"/>
  <text x="47" y="260.5" fill="#8b949e" font-size="11" text-anchor="end" font-family="-apple-system,BlinkMacSystemFont,Segoe UI,Helvetica,Arial,sans-serif">80</text>
  <line x1="55" y1="246.1" x2="880" y2="246.1" stroke="#21262d" stroke-width="1"/>
  <text x="47" y="250.1" fill="#8b949e" font-size="11" text-anchor="end" font-family="-apple-system,BlinkMacSystemFont,Segoe UI,Helvetica,Arial,sans-serif">90</text>
  <line x1="55" y1="235.7" x2="880" y2="235.7" stroke="#21262d" stroke-width="1"/>
  <text x="47" y="239.7" fill="#8b949e" font-size="11" text-anchor="end" font-family="-apple-system,BlinkMacSystemFont,Segoe UI,Helvetica,Arial,sans-serif">100</text>
  <line x1="55" y1="225.3" x2="880" y2="225.3" stroke="#21262d" stroke-width="1"/>
  <text x="47" y="229.3" fill="#8b949e" font-size="11" text-anchor="end" font-family="-apple-system,BlinkMacSystemFont,Segoe UI,Helvetica,Arial,sans-serif">110</text>
  <line x1="55" y1="214.8" x2="880" y2="214.8" stroke="#21262d" stroke-width="1"/>
  <text x="47" y="218.8" fill="#8b949e" font-size="11" text-anchor="end" font-family="-apple-system,BlinkMacSystemFont,Segoe UI,Helvetica,Arial,sans-serif">120</text>
  <line x1="55" y1="204.4" x2="880" y2="204.4" stroke="#21262d" stroke-width="1"/>
  <text x="47" y="208.4" fill="#8b949e" font-size="11" text-anchor="end" font-family="-apple-system,BlinkMacSystemFont,Segoe UI,Helvetica,Arial,sans-serif">130</text>
  <line x1="55" y1="194.0" x2="880" y2="194.0" stroke="#21262d" stroke-width="1"/>
  <text x="47" y="198.0" fill="#8b949e" font-size="11" text-anchor="end" font-family="-apple-system,BlinkMacSystemFont,Segoe UI,Helvetica,Arial,sans-serif">140</text>
  <line x1="55" y1="183.5" x2="880" y2="183.5" stroke="#21262d" stroke-width="1"/>
  <text x="47" y="187.5" fill="#8b949e" font-size="11" text-anchor="end" font-family="-apple-system,BlinkMacSystemFont,Segoe UI,Helvetica,Arial,sans-serif">150</text>
  <line x1="55" y1="173.1" x2="880" y2="173.1" stroke="#21262d" stroke-width="1"/>
  <text x="47" y="177.1" fill="#8b949e" font-size="11" text-anchor="end" font-family="-apple-system,BlinkMacSystemFont,Segoe UI,Helvetica,Arial,sans-serif">160</text>
  <line x1="55" y1="162.7" x2="880" y2="162.7" stroke="#21262d" stroke-width="1"/>
  <text x="47" y="166.7" fill="#8b949e" font-size="11" text-anchor="end" font-family="-apple-system,BlinkMacSystemFont,Segoe UI,Helvetica,Arial,sans-serif">170</text>
  <line x1="55" y1="152.2" x2="880" y2="152.2" stroke="#21262d" stroke-width="1"/>
  <text x="47" y="156.2" fill="#8b949e" font-size="11" text-anchor="end" font-family="-apple-system,BlinkMacSystemFont,Segoe UI,Helvetica,Arial,sans-serif">180</text>
  <line x1="55" y1="141.8" x2="880" y2="141.8" stroke="#21262d" stroke-width="1"/>
  <text x="47" y="145.8" fill="#8b949e" font-size="11" text-anchor="end" font-family="-apple-system,BlinkMacSystemFont,Segoe UI,Helvetica,Arial,sans-serif">190</text>
  <line x1="55" y1="131.4" x2="880" y2="131.4" stroke="#21262d" stroke-width="1"/>
  <text x="47" y="135.4" fill="#8b949e" font-size="11" text-anchor="end" font-family="-apple-system,BlinkMacSystemFont,Segoe UI,Helvetica,Arial,sans-serif">200</text>
  <line x1="55" y1="120.9" x2="880" y2="120.9" stroke="#21262d" stroke-width="1"/>
  <text x="47" y="124.9" fill="#8b949e" font-size="11" text-anchor="end" font-family="-apple-system,BlinkMacSystemFont,Segoe UI,Helvetica,Arial,sans-serif">210</text>
  <line x1="55" y1="110.5" x2="880" y2="110.5" stroke="#21262d" stroke-width="1"/>
  <text x="47" y="114.5" fill="#8b949e" font-size="11" text-anchor="end" font-family="-apple-system,BlinkMacSystemFont,Segoe UI,Helvetica,Arial,sans-serif">220</text>
  <line x1="55" y1="100.1" x2="880" y2="100.1" stroke="#21262d" stroke-width="1"/>
  <text x="47" y="104.1" fill="#8b949e" font-size="11" text-anchor="end" font-family="-apple-system,BlinkMacSystemFont,Segoe UI,Helvetica,Arial,sans-serif">230</text>
  <line x1="55" y1="89.6" x2="880" y2="89.6" stroke="#21262d" stroke-width="1"/>
  <text x="47" y="93.6" fill="#8b949e" font-size="11" text-anchor="end" font-family="-apple-system,BlinkMacSystemFont,Segoe UI,Helvetica,Arial,sans-serif">240</text>
  <line x1="55" y1="79.2" x2="880" y2="79.2" stroke="#21262d" stroke-width="1"/>
  <text x="47" y="83.2" fill="#8b949e" font-size="11" text-anchor="end" font-family="-apple-system,BlinkMacSystemFont,Segoe UI,Helvetica,Arial,sans-serif">250</text>
  <line x1="55" y1="68.8" x2="880" y2="68.8" stroke="#21262d" stroke-width="1"/>
  <text x="47" y="72.8" fill="#8b949e" font-size="11" text-anchor="end" font-family="-apple-system,BlinkMacSystemFont,Segoe UI,Helvetica,Arial,sans-serif">260</text>
  <line x1="55" y1="58.3" x2="880" y2="58.3" stroke="#21262d" stroke-width="1"/>
  <text x="47" y="62.3" fill="#8b949e" font-size="11" text-anchor="end" font-family="-apple-system,BlinkMacSystemFont,Segoe UI,Helvetica,Arial,sans-serif">270</text>
  <line x1="55.0" y1="50" x2="55.0" y2="340" stroke="#21262d" stroke-width="1" stroke-dasharray="4,4"/>
  <text x="55.0" y="360" fill="#8b949e" font-size="10" text-anchor="middle" font-family="-apple-system,BlinkMacSystemFont,Segoe UI,Helvetica,Arial,sans-serif">May 02</text>
  <line x1="167.0" y1="50" x2="167.0" y2="340" stroke="#21262d" stroke-width="1" stroke-dasharray="4,4"/>
  <text x="167.0" y="360" fill="#8b949e" font-size="10" text-anchor="middle" font-family="-apple-system,BlinkMacSystemFont,Segoe UI,Helvetica,Arial,sans-serif">May 13</text>
  <line x1="279.1" y1="50" x2="279.1" y2="340" stroke="#21262d" stroke-width="1" stroke-dasharray="4,4"/>
  <text x="279.1" y="360" fill="#8b949e" font-size="10" text-anchor="middle" font-family="-apple-system,BlinkMacSystemFont,Segoe UI,Helvetica,Arial,sans-serif">May 24</text>
  <line x1="391.1" y1="50" x2="391.1" y2="340" stroke="#21262d" stroke-width="1" stroke-dasharray="4,4"/>
  <text x="391.1" y="360" fill="#8b949e" font-size="10" text-anchor="middle" font-family="-apple-system,BlinkMacSystemFont,Segoe UI,Helvetica,Arial,sans-serif">Jun 04</text>
  <line x1="503.1" y1="50" x2="503.1" y2="340" stroke="#21262d" stroke-width="1" stroke-dasharray="4,4"/>
  <text x="503.1" y="360" fill="#8b949e" font-size="10" text-anchor="middle" font-family="-apple-system,BlinkMacSystemFont,Segoe UI,Helvetica,Arial,sans-serif">Jun 15</text>
  <line x1="615.2" y1="50" x2="615.2" y2="340" stroke="#21262d" stroke-width="1" stroke-dasharray="4,4"/>
  <text x="615.2" y="360" fill="#8b949e" font-size="10" text-anchor="middle" font-family="-apple-system,BlinkMacSystemFont,Segoe UI,Helvetica,Arial,sans-serif">Jun 26</text>
  <line x1="727.2" y1="50" x2="727.2" y2="340" stroke="#21262d" stroke-width="1" stroke-dasharray="4,4"/>
  <text x="727.2" y="360" fill="#8b949e" font-size="10" text-anchor="middle" font-family="-apple-system,BlinkMacSystemFont,Segoe UI,Helvetica,Arial,sans-serif">Jul 07</text>
  <line x1="839.3" y1="50" x2="839.3" y2="340" stroke="#21262d" stroke-width="1" stroke-dasharray="4,4"/>
  <text x="839.3" y="360" fill="#8b949e" font-size="10" text-anchor="middle" font-family="-apple-system,BlinkMacSystemFont,Segoe UI,Helvetica,Arial,sans-serif">Jul 18</text>
  <line x1="880.0" y1="50" x2="880.0" y2="340" stroke="#21262d" stroke-width="1" stroke-dasharray="4,4"/>
  <text x="880.0" y="360" fill="#8b949e" font-size="10" text-anchor="middle" font-family="-apple-system,BlinkMacSystemFont,Segoe UI,Helvetica,Arial,sans-serif">Jul 22</text>
  <path d="M55.0,340.0L65.2,327.5L75.4,320.2L85.6,316.0L95.7,309.7L105.9,305.6L116.1,302.4L126.3,302.4L136.5,302.4L146.7,302.4L156.9,302.4L167.0,302.4L177.2,302.4L187.4,302.4L197.6,301.4L207.8,297.2L218.0,293.1L228.1,287.8L238.3,281.6L248.5,275.3L258.7,269.1L268.9,263.8L279.1,259.7L289.3,257.6L299.4,254.5L309.6,243.0L319.8,241.9L330.0,236.7L340.2,229.4L350.4,224.2L360.6,220.0L370.7,220.0L380.9,220.0L391.1,220.0L401.3,220.0L411.5,220.0L421.7,213.8L431.9,205.4L442.0,202.3L452.2,196.0L462.4,191.9L472.6,185.6L482.8,176.2L493.0,171.0L503.1,165.8L513.3,160.6L523.5,151.2L533.7,144.9L543.9,136.6L554.1,130.3L564.3,125.1L574.4,120.9L584.6,114.7L594.8,107.4L605.0,103.2L615.2,100.1L625.4,92.8L635.6,86.5L645.7,78.2L655.9,78.2L666.1,76.1L676.3,76.1L686.5,76.1L696.7,74.0L706.9,70.9L717.0,67.7L727.2,66.7L737.4,61.5L747.6,61.5L757.8,61.5L768.0,61.5L778.1,61.5L788.3,61.5L798.5,61.5L808.7,61.5L818.9,61.5L829.1,61.5L839.3,61.5L849.4,59.4L859.6,59.4L869.8,56.3L880.0,55.2L880.0,340.0L55.0,340.0Z" fill="url(#gO)"/>
  <path d="M55.0,339.0L65.2,339.0L75.4,339.0L85.6,339.0L95.7,339.0L105.9,339.0L116.1,339.0L126.3,339.0L136.5,339.0L146.7,339.0L156.9,339.0L167.0,339.0L177.2,339.0L187.4,339.0L197.6,339.0L207.8,335.8L218.0,335.8L228.1,335.8L238.3,335.8L248.5,335.8L258.7,335.8L268.9,335.8L279.1,334.8L289.3,331.7L299.4,331.7L309.6,330.6L319.8,330.6L330.0,330.6L340.2,330.6L350.4,330.6L360.6,328.5L370.7,328.5L380.9,328.5L391.1,328.5L401.3,328.5L411.5,328.5L421.7,328.5L431.9,326.4L442.0,313.9L452.2,313.9L462.4,313.9L472.6,313.9L482.8,305.6L493.0,305.6L503.1,305.6L513.3,305.6L523.5,305.6L533.7,303.5L543.9,303.5L554.1,302.4L564.3,301.4L574.4,300.4L584.6,299.3L594.8,297.2L605.0,293.1L615.2,292.0L625.4,291.0L635.6,291.0L645.7,291.0L655.9,291.0L666.1,291.0L676.3,291.0L686.5,291.0L696.7,291.0L706.9,291.0L717.0,291.0L727.2,291.0L737.4,291.0L747.6,289.9L757.8,288.9L768.0,285.8L778.1,285.8L788.3,284.7L798.5,284.7L808.7,284.7L818.9,284.7L829.1,284.7L839.3,284.7L849.4,284.7L859.6,284.7L869.8,284.7L880.0,284.7L880.0,340.0L55.0,340.0Z" fill="url(#gR)"/>
  <path d="M55.0,340.0L65.2,327.5L75.4,320.2L85.6,316.0L95.7,309.7L105.9,305.6L116.1,302.4L126.3,302.4L136.5,302.4L146.7,302.4L156.9,302.4L167.0,302.4L177.2,302.4L187.4,302.4L197.6,301.4L207.8,297.2L218.0,293.1L228.1,287.8L238.3,281.6L248.5,275.3L258.7,269.1L268.9,263.8L279.1,259.7L289.3,257.6L299.4,254.5L309.6,243.0L319.8,241.9L330.0,236.7L340.2,229.4L350.4,224.2L360.6,220.0L370.7,220.0L380.9,220.0L391.1,220.0L401.3,220.0L411.5,220.0L421.7,213.8L431.9,205.4L442.0,202.3L452.2,196.0L462.4,191.9L472.6,185.6L482.8,176.2L493.0,171.0L503.1,165.8L513.3,160.6L523.5,151.2L533.7,144.9L543.9,136.6L554.1,130.3L564.3,125.1L574.4,120.9L584.6,114.7L594.8,107.4L605.0,103.2L615.2,100.1L625.4,92.8L635.6,86.5L645.7,78.2L655.9,78.2L666.1,76.1L676.3,76.1L686.5,76.1L696.7,74.0L706.9,70.9L717.0,67.7L727.2,66.7L737.4,61.5L747.6,61.5L757.8,61.5L768.0,61.5L778.1,61.5L788.3,61.5L798.5,61.5L808.7,61.5L818.9,61.5L829.1,61.5L839.3,61.5L849.4,59.4L859.6,59.4L869.8,56.3L880.0,55.2" fill="none" stroke="#58a6ff" stroke-width="2.5" stroke-linecap="round" stroke-linejoin="round"/>
  <path d="M55.0,339.0L65.2,339.0L75.4,339.0L85.6,339.0L95.7,339.0L105.9,339.0L116.1,339.0L126.3,339.0L136.5,339.0L146.7,339.0L156.9,339.0L167.0,339.0L177.2,339.0L187.4,339.0L197.6,339.0L207.8,335.8L218.0,335.8L228.1,335.8L238.3,335.8L248.5,335.8L258.7,335.8L268.9,335.8L279.1,334.8L289.3,331.7L299.4,331.7L309.6,330.6L319.8,330.6L330.0,330.6L340.2,330.6L350.4,330.6L360.6,328.5L370.7,328.5L380.9,328.5L391.1,328.5L401.3,328.5L411.5,328.5L421.7,328.5L431.9,326.4L442.0,313.9L452.2,313.9L462.4,313.9L472.6,313.9L482.8,305.6L493.0,305.6L503.1,305.6L513.3,305.6L523.5,305.6L533.7,303.5L543.9,303.5L554.1,302.4L564.3,301.4L574.4,300.4L584.6,299.3L594.8,297.2L605.0,293.1L615.2,292.0L625.4,291.0L635.6,291.0L645.7,291.0L655.9,291.0L666.1,291.0L676.3,291.0L686.5,291.0L696.7,291.0L706.9,291.0L717.0,291.0L727.2,291.0L737.4,291.0L747.6,289.9L757.8,288.9L768.0,285.8L778.1,285.8L788.3,284.7L798.5,284.7L808.7,284.7L818.9,284.7L829.1,284.7L839.3,284.7L849.4,284.7L859.6,284.7L869.8,284.7L880.0,284.7" fill="none" stroke="#f78166" stroke-width="2.5" stroke-linecap="round" stroke-linejoin="round"/>
  <path d="M55.0,340.0L65.2,332.7L75.4,327.5L85.6,325.4L95.7,320.2L105.9,321.2L116.1,318.1L126.3,319.1L136.5,319.1L146.7,320.2L156.9,320.2L167.0,320.2L177.2,320.2L187.4,320.2L197.6,319.1L207.8,318.1L218.0,317.1L228.1,313.9L238.3,307.7L248.5,303.5L258.7,299.3L268.9,296.2L279.1,296.2L289.3,297.2L299.4,299.3L309.6,295.1L319.8,294.1L330.0,294.1L340.2,291.0L350.4,296.2L360.6,293.1L370.7,293.1L380.9,293.1L391.1,293.1L401.3,299.3L411.5,299.3L421.7,298.3L431.9,303.5L442.0,340.0L452.2,340.0L462.4,340.0L472.6,340.0L482.8,335.8L493.0,335.8L503.1,333.7L513.3,333.7L523.5,332.7L533.7,329.6L543.9,330.6L554.1,328.5L564.3,328.5L574.4,330.6L584.6,329.6L594.8,330.6L605.0,327.5L615.2,328.5L625.4,328.5L635.6,323.3L645.7,320.2L655.9,320.2L666.1,321.2L676.3,324.4L686.5,324.4L696.7,323.3L706.9,322.3L717.0,322.3L727.2,321.2L737.4,319.1L747.6,319.1L757.8,319.1L768.0,319.1L778.1,319.1L788.3,319.1L798.5,319.1L808.7,319.1L818.9,319.1L829.1,319.1L839.3,319.1L849.4,319.1L859.6,319.1L869.8,319.1L880.0,319.1" fill="none" stroke="#3fb950" stroke-width="2.5" stroke-linecap="round" stroke-linejoin="round"/>
  <path d="M55.0,340.0L65.2,340.0L75.4,339.0L85.6,337.9L95.7,337.9L105.9,336.9L116.1,336.9L126.3,335.8L136.5,335.8L146.7,335.8L156.9,335.8L167.0,335.8L177.2,335.8L187.4,335.8L197.6,335.8L207.8,334.8L218.0,332.7L228.1,331.7L238.3,331.7L248.5,331.7L258.7,329.6L268.9,329.6L279.1,329.6L289.3,328.5L299.4,328.5L309.6,322.3L319.8,322.3L330.0,318.1L340.2,315.0L350.4,310.8L360.6,309.7L370.7,309.7L380.9,309.7L391.1,309.7L401.3,307.7L411.5,307.7L421.7,305.6L431.9,302.4L442.0,300.4L452.2,294.1L462.4,289.9L472.6,283.7L482.8,280.5L493.0,276.4L503.1,274.3L513.3,269.1L523.5,260.7L533.7,257.6L543.9,251.3L554.1,248.2L564.3,243.0L574.4,236.7L584.6,231.5L594.8,223.2L605.0,222.1L615.2,220.0L625.4,214.8L635.6,214.8L645.7,209.6L655.9,209.6L666.1,207.5L676.3,207.5L686.5,207.5L696.7,207.5L706.9,206.5L717.0,204.4L727.2,204.4L737.4,202.3L747.6,202.3L757.8,202.3L768.0,202.3L778.1,202.3L788.3,202.3L798.5,202.3L808.7,202.3L818.9,202.3L829.1,202.3L839.3,202.3L849.4,200.2L859.6,200.2L869.8,197.1L880.0,196.0" fill="none" stroke="#d2a8ff" stroke-width="2.5" stroke-linecap="round" stroke-linejoin="round"/>
  <path d="M55.0,340.0L65.2,334.8L75.4,333.7L85.6,332.7L95.7,331.7L105.9,327.5L116.1,327.5L126.3,327.5L136.5,327.5L146.7,326.4L156.9,326.4L167.0,326.4L177.2,326.4L187.4,326.4L197.6,326.4L207.8,324.4L218.0,323.3L228.1,322.3L238.3,322.3L248.5,320.2L258.7,320.2L268.9,318.1L279.1,313.9L289.3,311.8L299.4,306.6L309.6,305.6L319.8,305.6L330.0,304.5L340.2,303.5L350.4,297.2L360.6,297.2L370.7,297.2L380.9,297.2L391.1,297.2L401.3,293.1L411.5,293.1L421.7,289.9L431.9,279.5L442.0,241.9L452.2,241.9L462.4,241.9L472.6,241.9L482.8,239.9L493.0,238.8L503.1,237.8L513.3,237.8L523.5,237.8L533.7,237.8L543.9,234.6L554.1,233.6L564.3,233.6L574.4,233.6L584.6,233.6L594.8,233.6L605.0,233.6L615.2,231.5L625.4,229.4L635.6,228.4L645.7,228.4L655.9,228.4L666.1,227.3L676.3,224.2L686.5,224.2L696.7,223.2L706.9,222.1L717.0,221.1L727.2,221.1L737.4,220.0L747.6,220.0L757.8,220.0L768.0,220.0L778.1,220.0L788.3,220.0L798.5,220.0L808.7,220.0L818.9,220.0L829.1,220.0L839.3,220.0L849.4,220.0L859.6,220.0L869.8,220.0L880.0,220.0" fill="none" stroke="#f85149" stroke-width="2.5" stroke-linecap="round" stroke-linejoin="round"/>
  <circle cx="880.0" cy="55.2" r="3.5" fill="#58a6ff"/>
  <text x="889.0" y="59.2" fill="#58a6ff" font-size="11" font-weight="600" font-family="-apple-system,BlinkMacSystemFont,Segoe UI,Helvetica,Arial,sans-serif">273</text>
  <circle cx="880.0" cy="284.7" r="3.5" fill="#f78166"/>
  <text x="889.0" y="288.7" fill="#f78166" font-size="11" font-weight="600" font-family="-apple-system,BlinkMacSystemFont,Segoe UI,Helvetica,Arial,sans-serif">53</text>
  <circle cx="880.0" cy="319.1" r="3.5" fill="#3fb950"/>
  <text x="889.0" y="323.1" fill="#3fb950" font-size="11" font-weight="600" font-family="-apple-system,BlinkMacSystemFont,Segoe UI,Helvetica,Arial,sans-serif">20</text>
  <circle cx="880.0" cy="196.0" r="3.5" fill="#d2a8ff"/>
  <text x="889.0" y="200.0" fill="#d2a8ff" font-size="11" font-weight="600" font-family="-apple-system,BlinkMacSystemFont,Segoe UI,Helvetica,Arial,sans-serif">138</text>
  <circle cx="880.0" cy="220.0" r="3.5" fill="#f85149"/>
  <text x="889.0" y="224.0" fill="#f85149" font-size="11" font-weight="600" font-family="-apple-system,BlinkMacSystemFont,Segoe UI,Helvetica,Arial,sans-serif">115</text>
  <line x1="55" y1="368" x2="71" y2="368" stroke="#f78166" stroke-width="2.5" stroke-linecap="round"/>
  <text x="77" y="372" fill="#8b949e" font-size="11" font-family="-apple-system,BlinkMacSystemFont,Segoe UI,Helvetica,Arial,sans-serif">Repos</text>
  <line x1="255" y1="368" x2="271" y2="368" stroke="#58a6ff" stroke-width="2.5" stroke-linecap="round"/>
  <text x="277" y="372" fill="#8b949e" font-size="11" font-family="-apple-system,BlinkMacSystemFont,Segoe UI,Helvetica,Arial,sans-serif">PRs Opened</text>
  <line x1="455" y1="368" x2="471" y2="368" stroke="#3fb950" stroke-width="2.5" stroke-linecap="round"/>
  <text x="477" y="372" fill="#8b949e" font-size="11" font-family="-apple-system,BlinkMacSystemFont,Segoe UI,Helvetica,Arial,sans-serif">Open PRs</text>
  <line x1="55" y1="386" x2="71" y2="386" stroke="#d2a8ff" stroke-width="2.5" stroke-linecap="round"/>
  <text x="77" y="390" fill="#8b949e" font-size="11" font-family="-apple-system,BlinkMacSystemFont,Segoe UI,Helvetica,Arial,sans-serif">Merged</text>
  <line x1="255" y1="386" x2="271" y2="386" stroke="#f85149" stroke-width="2.5" stroke-linecap="round"/>
  <text x="277" y="390" fill="#8b949e" font-size="11" font-family="-apple-system,BlinkMacSystemFont,Segoe UI,Helvetica,Arial,sans-serif">Closed</text>
</svg>