<svg xmlns="http://www.w3.org/2000/svg" viewBox="0 0 960 400" width="960" height="400">
  <defs>
    <linearGradient id="gR" x1="0" y1="0" x2="0" y2="1">
      <stop offset="0%" stop-color="#3fb950" stop-opacity="0.25"/>
      <stop offset="100%" stop-color="#3fb950" stop-opacity="0.02"/>
    </linearGradient>
    <linearGradient id="gO" x1="0" y1="0" x2="0" y2="1">
      <stop offset="0%" stop-color="#58a6ff" stop-opacity="0.25"/>
      <stop offset="100%" stop-color="#58a6ff" stop-opacity="0.02"/>
    </linearGradient>
    <linearGradient id="gOp" x1="0" y1="0" x2="0" y2="1">
      <stop offset="0%" stop-color="#d2a8ff" stop-opacity="0.25"/>
      <stop offset="100%" stop-color="#d2a8ff" stop-opacity="0.02"/>
    </linearGradient>
    <linearGradient id="gM" x1="0" y1="0" x2="0" y2="1">
      <stop offset="0%" stop-color="#f78166" stop-opacity="0.25"/>
      <stop offset="100%" stop-color="#f78166" stop-opacity="0.02"/>
    </linearGradient>
    <linearGradient id="gC" x1="0" y1="0" x2="0" y2="1">
      <stop offset="0%" stop-color="#f85149" stop-opacity="0.25"/>
      <stop offset="100%" stop-color="#f85149" stop-opacity="0.02"/>
    </linearGradient>
  </defs>
  <rect width="960" height="400" rx="12" fill="#0d1117"/>
  <rect width="960" height="400" rx="12" fill="none" stroke="#30363d" stroke-width="1"/>
  <text x="55" y="30" fill="#e6edf3" font-size="15" font-weight="600" font-family="-apple-system,BlinkMacSystemFont,Segoe UI,Helvetica,Arial,sans-serif">GitHub Activity — jlaportebot</text>
  <text x="880" y="30" fill="#8b949e" font-size="11" text-anchor="end" font-family="-apple-system,BlinkMacSystemFont,Segoe UI,Helvetica,Arial,sans-serif">Updated Jun 01, 2026</text>
  <line x1="55" y1="340.0" x2="880" y2="340.0" stroke="#21262d" stroke-width="1"/>
  <text x="47" y="344.0" fill="#8b949e" font-size="11" text-anchor="end" font-family="-apple-system,BlinkMacSystemFont,Segoe UI,Helvetica,Arial,sans-serif">0</text>
  <line x1="55" y1="316.0" x2="880" y2="316.0" stroke="#21262d" stroke-width="1"/>
  <text x="47" y="320.0" fill="#8b949e" font-size="11" text-anchor="end" font-family="-apple-system,BlinkMacSystemFont,Segoe UI,Helvetica,Arial,sans-serif">10</text>
  <line x1="55" y1="292.1" x2="880" y2="292.1" stroke="#21262d" stroke-width="1"/>
  <text x="47" y="296.1" fill="#8b949e" font-size="11" text-anchor="end" font-family="-apple-system,BlinkMacSystemFont,Segoe UI,Helvetica,Arial,sans-serif">20</text>
  <line x1="55" y1="268.1" x2="880" y2="268.1" stroke="#21262d" stroke-width="1"/>
  <text x="47" y="272.1" fill="#8b949e" font-size="11" text-anchor="end" font-family="-apple-system,BlinkMacSystemFont,Segoe UI,Helvetica,Arial,sans-serif">30</text>
  <line x1="55" y1="244.1" x2="880" y2="244.1" stroke="#21262d" stroke-width="1"/>
  <text x="47" y="248.1" fill="#8b949e" font-size="11" text-anchor="end" font-family="-apple-system,BlinkMacSystemFont,Segoe UI,Helvetica,Arial,sans-serif">40</text>
  <line x1="55" y1="220.2" x2="880" y2="220.2" stroke="#21262d" stroke-width="1"/>
  <text x="47" y="224.2" fill="#8b949e" font-size="11" text-anchor="end" font-family="-apple-system,BlinkMacSystemFont,Segoe UI,Helvetica,Arial,sans-serif">50</text>
  <line x1="55" y1="196.2" x2="880" y2="196.2" stroke="#21262d" stroke-width="1"/>
  <text x="47" y="200.2" fill="#8b949e" font-size="11" text-anchor="end" font-family="-apple-system,BlinkMacSystemFont,Segoe UI,Helvetica,Arial,sans-serif">60</text>
  <line x1="55" y1="172.2" x2="880" y2="172.2" stroke="#21262d" stroke-width="1"/>
  <text x="47" y="176.2" fill="#8b949e" font-size="11" text-anchor="end" font-family="-apple-system,BlinkMacSystemFont,Segoe UI,Helvetica,Arial,sans-serif">70</text>
  <line x1="55" y1="148.3" x2="880" y2="148.3" stroke="#21262d" stroke-width="1"/>
  <text x="47" y="152.3" fill="#8b949e" font-size="11" text-anchor="end" font-family="-apple-system,BlinkMacSystemFont,Segoe UI,Helvetica,Arial,sans-serif">80</text>
  <line x1="55" y1="124.3" x2="880" y2="124.3" stroke="#21262d" stroke-width="1"/>
  <text x="47" y="128.3" fill="#8b949e" font-size="11" text-anchor="end" font-family="-apple-system,BlinkMacSystemFont,Segoe UI,Helvetica,Arial,sans-serif">90</text>
  <line x1="55" y1="100.3" x2="880" y2="100.3" stroke="#21262d" stroke-width="1"/>
  <text x="47" y="104.3" fill="#8b949e" font-size="11" text-anchor="end" font-family="-apple-system,BlinkMacSystemFont,Segoe UI,Helvetica,Arial,sans-serif">100</text>
  <line x1="55" y1="76.4" x2="880" y2="76.4" stroke="#21262d" stroke-width="1"/>
  <text x="47" y="80.4" fill="#8b949e" font-size="11" text-anchor="end" font-family="-apple-system,BlinkMacSystemFont,Segoe UI,Helvetica,Arial,sans-serif">110</text>
  <line x1="55" y1="52.4" x2="880" y2="52.4" stroke="#21262d" stroke-width="1"/>
  <text x="47" y="56.4" fill="#8b949e" font-size="11" text-anchor="end" font-family="-apple-system,BlinkMacSystemFont,Segoe UI,Helvetica,Arial,sans-serif">120</text>
  <line x1="55.0" y1="50" x2="55.0" y2="340" stroke="#21262d" stroke-width="1" stroke-dasharray="4,4"/>
  <text x="55.0" y="360" fill="#8b949e" font-size="10" text-anchor="middle" font-family="-apple-system,BlinkMacSystemFont,Segoe UI,Helvetica,Arial,sans-serif">May 02</text>
  <line x1="165.0" y1="50" x2="165.0" y2="340" stroke="#21262d" stroke-width="1" stroke-dasharray="4,4"/>
  <text x="165.0" y="360" fill="#8b949e" font-size="10" text-anchor="middle" font-family="-apple-system,BlinkMacSystemFont,Segoe UI,Helvetica,Arial,sans-serif">May 06</text>
  <line x1="275.0" y1="50" x2="275.0" y2="340" stroke="#21262d" stroke-width="1" stroke-dasharray="4,4"/>
  <text x="275.0" y="360" fill="#8b949e" font-size="10" text-anchor="middle" font-family="-apple-system,BlinkMacSystemFont,Segoe UI,Helvetica,Arial,sans-serif">May 10</text>
  <line x1="385.0" y1="50" x2="385.0" y2="340" stroke="#21262d" stroke-width="1" stroke-dasharray="4,4"/>
  <text x="385.0" y="360" fill="#8b949e" font-size="10" text-anchor="middle" font-family="-apple-system,BlinkMacSystemFont,Segoe UI,Helvetica,Arial,sans-serif">May 14</text>
  <line x1="495.0" y1="50" x2="495.0" y2="340" stroke="#21262d" stroke-width="1" stroke-dasharray="4,4"/>
  <text x="495.0" y="360" fill="#8b949e" font-size="10" text-anchor="middle" font-family="-apple-system,BlinkMacSystemFont,Segoe UI,Helvetica,Arial,sans-serif">May 18</text>
  <line x1="605.0" y1="50" x2="605.0" y2="340" stroke="#21262d" stroke-width="1" stroke-dasharray="4,4"/>
  <text x="605.0" y="360" fill="#8b949e" font-size="10" text-anchor="middle" font-family="-apple-system,BlinkMacSystemFont,Segoe UI,Helvetica,Arial,sans-serif">May 22</text>
  <line x1="715.0" y1="50" x2="715.0" y2="340" stroke="#21262d" stroke-width="1" stroke-dasharray="4,4"/>
  <text x="715.0" y="360" fill="#8b949e" font-size="10" text-anchor="middle" font-family="-apple-system,BlinkMacSystemFont,Segoe UI,Helvetica,Arial,sans-serif">May 26</text>
  <line x1="825.0" y1="50" x2="825.0" y2="340" stroke="#21262d" stroke-width="1" stroke-dasharray="4,4"/>
  <text x="825.0" y="360" fill="#8b949e" font-size="10" text-anchor="middle" font-family="-apple-system,BlinkMacSystemFont,Segoe UI,Helvetica,Arial,sans-serif">May 30</text>
  <line x1="880.0" y1="50" x2="880.0" y2="340" stroke="#21262d" stroke-width="1" stroke-dasharray="4,4"/>
  <text x="880.0" y="360" fill="#8b949e" font-size="10" text-anchor="middle" font-family="-apple-system,BlinkMacSystemFont,Segoe UI,Helvetica,Arial,sans-serif">Jun 01</text>
  <path d="M55.0,340.0L82.5,308.8L110.0,292.1L137.5,282.5L165.0,268.1L192.5,256.1L220.0,248.9L247.5,248.9L275.0,248.9L302.5,248.9L330.0,248.9L357.5,248.9L385.0,248.9L412.5,248.9L440.0,246.5L467.5,236.9L495.0,227.4L522.5,215.4L550.0,201.0L577.5,186.6L605.0,172.2L632.5,160.2L660.0,150.7L687.5,145.9L715.0,138.7L742.5,112.3L770.0,109.9L797.5,95.5L825.0,78.8L852.5,66.8L880.0,62.0L880.0,340.0L55.0,340.0Z" fill="url(#gO)"/>
  <path d="M55.0,337.6L82.5,318.4L110.0,306.4L137.5,301.7L165.0,289.7L192.5,280.1L220.0,275.3L247.5,275.3L275.0,275.3L302.5,275.3L330.0,275.3L357.5,275.3L385.0,275.3L412.5,275.3L440.0,272.9L467.5,253.7L495.0,251.3L522.5,251.3L550.0,251.3L577.5,251.3L605.0,251.3L632.5,251.3L660.0,239.3L687.5,222.6L715.0,208.2L742.5,205.8L770.0,205.8L797.5,205.8L825.0,205.8L852.5,205.8L880.0,201.0L880.0,340.0L55.0,340.0Z" fill="url(#gR)"/>
  <path d="M55.0,340.0L82.5,308.8L110.0,292.1L137.5,282.5L165.0,268.1L192.5,256.1L220.0,248.9L247.5,248.9L275.0,248.9L302.5,248.9L330.0,248.9L357.5,248.9L385.0,248.9L412.5,248.9L440.0,246.5L467.5,236.9L495.0,227.4L522.5,215.4L550.0,201.0L577.5,186.6L605.0,172.2L632.5,160.2L660.0,150.7L687.5,145.9L715.0,138.7L742.5,112.3L770.0,109.9L797.5,95.5L825.0,78.8L852.5,66.8L880.0,62.0" fill="none" stroke="#58a6ff" stroke-width="2.5" stroke-linecap="round" stroke-linejoin="round"/>
  <path d="M55.0,337.6L82.5,318.4L110.0,306.4L137.5,301.7L165.0,289.7L192.5,280.1L220.0,275.3L247.5,275.3L275.0,275.3L302.5,275.3L330.0,275.3L357.5,275.3L385.0,275.3L412.5,275.3L440.0,272.9L467.5,253.7L495.0,251.3L522.5,251.3L550.0,251.3L577.5,251.3L605.0,251.3L632.5,251.3L660.0,239.3L687.5,222.6L715.0,208.2L742.5,205.8L770.0,205.8L797.5,205.8L825.0,205.8L852.5,205.8L880.0,201.0" fill="none" stroke="#3fb950" stroke-width="2.5" stroke-linecap="round" stroke-linejoin="round"/>
  <path d="M55.0,340.0L82.5,320.8L110.0,311.2L137.5,306.4L165.0,294.5L192.5,294.5L220.0,287.3L247.5,289.7L275.0,289.7L302.5,292.1L330.0,292.1L357.5,292.1L385.0,292.1L412.5,292.1L440.0,289.7L467.5,287.3L495.0,284.9L522.5,277.7L550.0,263.3L577.5,253.7L605.0,244.1L632.5,236.9L660.0,236.9L687.5,239.3L715.0,244.1L742.5,234.5L770.0,232.1L797.5,229.8L825.0,225.0L852.5,239.3L880.0,236.9" fill="none" stroke="#d2a8ff" stroke-width="2.5" stroke-linecap="round" stroke-linejoin="round"/>
  <path d="M55.0,340.0L82.5,340.0L110.0,335.2L137.5,332.8L165.0,332.8L192.5,330.4L220.0,330.4L247.5,328.0L275.0,328.0L302.5,328.0L330.0,328.0L357.5,328.0L385.0,328.0L412.5,328.0L440.0,328.0L467.5,325.6L495.0,320.8L522.5,318.4L550.0,318.4L577.5,318.4L605.0,313.6L632.5,313.6L660.0,313.6L687.5,311.2L715.0,311.2L742.5,296.9L770.0,296.9L797.5,287.3L825.0,277.7L852.5,265.7L880.0,263.3" fill="none" stroke="#f78166" stroke-width="2.5" stroke-linecap="round" stroke-linejoin="round"/>
  <path d="M55.0,340.0L82.5,328.0L110.0,325.6L137.5,323.2L165.0,320.8L192.5,311.2L220.0,311.2L247.5,311.2L275.0,311.2L302.5,308.8L330.0,308.8L357.5,308.8L385.0,308.8L412.5,308.8L440.0,308.8L467.5,304.0L495.0,301.7L522.5,299.3L550.0,299.3L577.5,294.5L605.0,294.5L632.5,289.7L660.0,280.1L687.5,275.3L715.0,263.3L742.5,260.9L770.0,260.9L797.5,258.5L825.0,256.1L852.5,241.7L880.0,241.7" fill="none" stroke="#f85149" stroke-width="2.5" stroke-linecap="round" stroke-linejoin="round"/>
  <circle cx="880.0" cy="62.0" r="3.5" fill="#58a6ff"/>
  <text x="889.0" y="66.0" fill="#58a6ff" font-size="11" font-weight="600" font-family="-apple-system,BlinkMacSystemFont,Segoe UI,Helvetica,Arial,sans-serif">116</text>
  <circle cx="880.0" cy="201.0" r="3.5" fill="#3fb950"/>
  <text x="889.0" y="205.0" fill="#3fb950" font-size="11" font-weight="600" font-family="-apple-system,BlinkMacSystemFont,Segoe UI,Helvetica,Arial,sans-serif">58</text>
  <circle cx="880.0" cy="236.9" r="3.5" fill="#d2a8ff"/>
  <text x="889.0" y="240.9" fill="#d2a8ff" font-size="11" font-weight="600" font-family="-apple-system,BlinkMacSystemFont,Segoe UI,Helvetica,Arial,sans-serif">43</text>
  <circle cx="880.0" cy="263.3" r="3.5" fill="#f78166"/>
  <text x="889.0" y="267.3" fill="#f78166" font-size="11" font-weight="600" font-family="-apple-system,BlinkMacSystemFont,Segoe UI,Helvetica,Arial,sans-serif">32</text>
  <circle cx="880.0" cy="241.7" r="3.5" fill="#f85149"/>
  <text x="889.0" y="245.7" fill="#f85149" font-size="11" font-weight="600" font-family="-apple-system,BlinkMacSystemFont,Segoe UI,Helvetica,Arial,sans-serif">41</text>
  <line x1="55" y1="368" x2="71" y2="368" stroke="#3fb950" stroke-width="2.5" stroke-linecap="round"/>
  <text x="77" y="372" fill="#8b949e" font-size="11" font-family="-apple-system,BlinkMacSystemFont,Segoe UI,Helvetica,Arial,sans-serif">Repos</text>
  <line x1="255" y1="368" x2="271" y2="368" stroke="#58a6ff" stroke-width="2.5" stroke-linecap="round"/>
  <text x="277" y="372" fill="#8b949e" font-size="11" font-family="-apple-system,BlinkMacSystemFont,Segoe UI,Helvetica,Arial,sans-serif">PRs Opened</text>
  <line x1="455" y1="368" x2="471" y2="368" stroke="#d2a8ff" stroke-width="2.5" stroke-linecap="round"/>
  <text x="477" y="372" fill="#8b949e" font-size="11" font-family="-apple-system,BlinkMacSystemFont,Segoe UI,Helvetica,Arial,sans-serif">Open PRs</text>
  <line x1="55" y1="386" x2="71" y2="386" stroke="#f78166" stroke-width="2.5" stroke-linecap="round"/>
  <text x="77" y="390" fill="#8b949e" font-size="11" font-family="-apple-system,BlinkMacSystemFont,Segoe UI,Helvetica,Arial,sans-serif">Merged</text>
  <line x1="255" y1="386" x2="271" y2="386" stroke="#f85149" stroke-width="2.5" stroke-linecap="round"/>
  <text x="277" y="390" fill="#8b949e" font-size="11" font-family="-apple-system,BlinkMacSystemFont,Segoe UI,Helvetica,Arial,sans-serif">Closed</text>
</svg>