<svg xmlns="http://www.w3.org/2000/svg" viewBox="0 0 960 400" width="960" height="400">
  <defs>
    <linearGradient id="gR" x1="0" y1="0" x2="0" y2="1">
      <stop offset="0%" stop-color="#f78166" stop-opacity="0.25"/>
      <stop offset="100%" stop-color="#f78166" stop-opacity="0.02"/>
    </linearGradient>
    <linearGradient id="gO" x1="0" y1="0" x2="0" y2="1">
      <stop offset="0%" stop-color="#58a6ff" stop-opacity="0.25"/>
      <stop offset="100%" stop-color="#58a6ff" stop-opacity="0.02"/>
    </linearGradient>
    <linearGradient id="gOp" x1="0" y1="0" x2="0" y2="1">
      <stop offset="0%" stop-color="#3fb950" stop-opacity="0.25"/>
      <stop offset="100%" stop-color="#3fb950" stop-opacity="0.02"/>
    </linearGradient>
    <linearGradient id="gM" x1="0" y1="0" x2="0" y2="1">
      <stop offset="0%" stop-color="#d2a8ff" stop-opacity="0.25"/>
      <stop offset="100%" stop-color="#d2a8ff" stop-opacity="0.02"/>
    </linearGradient>
    <linearGradient id="gC" x1="0" y1="0" x2="0" y2="1">
      <stop offset="0%" stop-color="#f85149" stop-opacity="0.25"/>
      <stop offset="100%" stop-color="#f85149" stop-opacity="0.02"/>
    </linearGradient>
  </defs>
  <rect width="960" height="400" rx="12" fill="#0d1117"/>
  <rect width="960" height="400" rx="12" fill="none" stroke="#30363d" stroke-width="1"/>
  <text x="55" y="30" fill="#e6edf3" font-size="15" font-weight="600" font-family="-apple-system,BlinkMacSystemFont,Segoe UI,Helvetica,Arial,sans-serif">GitHub Activity — jlaportebot</text>
  <text x="880" y="30" fill="#8b949e" font-size="11" text-anchor="end" font-family="-apple-system,BlinkMacSystemFont,Segoe UI,Helvetica,Arial,sans-serif">Updated Jul 07, 2026</text>
  <line x1="55" y1="340.0" x2="880" y2="340.0" stroke="#21262d" stroke-width="1"/>
  <text x="47" y="344.0" fill="#8b949e" font-size="11" text-anchor="end" font-family="-apple-system,BlinkMacSystemFont,Segoe UI,Helvetica,Arial,sans-serif">0</text>
  <line x1="55" y1="329.1" x2="880" y2="329.1" stroke="#21262d" stroke-width="1"/>
  <text x="47" y="333.1" fill="#8b949e" font-size="11" text-anchor="end" font-family="-apple-system,BlinkMacSystemFont,Segoe UI,Helvetica,Arial,sans-serif">10</text>
  <line x1="55" y1="318.2" x2="880" y2="318.2" stroke="#21262d" stroke-width="1"/>
  <text x="47" y="322.2" fill="#8b949e" font-size="11" text-anchor="end" font-family="-apple-system,BlinkMacSystemFont,Segoe UI,Helvetica,Arial,sans-serif">20</text>
  <line x1="55" y1="307.3" x2="880" y2="307.3" stroke="#21262d" stroke-width="1"/>
  <text x="47" y="311.3" fill="#8b949e" font-size="11" text-anchor="end" font-family="-apple-system,BlinkMacSystemFont,Segoe UI,Helvetica,Arial,sans-serif">30</text>
  <line x1="55" y1="296.4" x2="880" y2="296.4" stroke="#21262d" stroke-width="1"/>
  <text x="47" y="300.4" fill="#8b949e" font-size="11" text-anchor="end" font-family="-apple-system,BlinkMacSystemFont,Segoe UI,Helvetica,Arial,sans-serif">40</text>
  <line x1="55" y1="285.5" x2="880" y2="285.5" stroke="#21262d" stroke-width="1"/>
  <text x="47" y="289.5" fill="#8b949e" font-size="11" text-anchor="end" font-family="-apple-system,BlinkMacSystemFont,Segoe UI,Helvetica,Arial,sans-serif">50</text>
  <line x1="55" y1="274.6" x2="880" y2="274.6" stroke="#21262d" stroke-width="1"/>
  <text x="47" y="278.6" fill="#8b949e" font-size="11" text-anchor="end" font-family="-apple-system,BlinkMacSystemFont,Segoe UI,Helvetica,Arial,sans-serif">60</text>
  <line x1="55" y1="263.7" x2="880" y2="263.7" stroke="#21262d" stroke-width="1"/>
  <text x="47" y="267.7" fill="#8b949e" font-size="11" text-anchor="end" font-family="-apple-system,BlinkMacSystemFont,Segoe UI,Helvetica,Arial,sans-serif">70</text>
  <line x1="55" y1="252.8" x2="880" y2="252.8" stroke="#21262d" stroke-width="1"/>
  <text x="47" y="256.8" fill="#8b949e" font-size="11" text-anchor="end" font-family="-apple-system,BlinkMacSystemFont,Segoe UI,Helvetica,Arial,sans-serif">80</text>
  <line x1="55" y1="241.9" x2="880" y2="241.9" stroke="#21262d" stroke-width="1"/>
  <text x="47" y="245.9" fill="#8b949e" font-size="11" text-anchor="end" font-family="-apple-system,BlinkMacSystemFont,Segoe UI,Helvetica,Arial,sans-serif">90</text>
  <line x1="55" y1="231.0" x2="880" y2="231.0" stroke="#21262d" stroke-width="1"/>
  <text x="47" y="235.0" fill="#8b949e" font-size="11" text-anchor="end" font-family="-apple-system,BlinkMacSystemFont,Segoe UI,Helvetica,Arial,sans-serif">100</text>
  <line x1="55" y1="220.1" x2="880" y2="220.1" stroke="#21262d" stroke-width="1"/>
  <text x="47" y="224.1" fill="#8b949e" font-size="11" text-anchor="end" font-family="-apple-system,BlinkMacSystemFont,Segoe UI,Helvetica,Arial,sans-serif">110</text>
  <line x1="55" y1="209.2" x2="880" y2="209.2" stroke="#21262d" stroke-width="1"/>
  <text x="47" y="213.2" fill="#8b949e" font-size="11" text-anchor="end" font-family="-apple-system,BlinkMacSystemFont,Segoe UI,Helvetica,Arial,sans-serif">120</text>
  <line x1="55" y1="198.3" x2="880" y2="198.3" stroke="#21262d" stroke-width="1"/>
  <text x="47" y="202.3" fill="#8b949e" font-size="11" text-anchor="end" font-family="-apple-system,BlinkMacSystemFont,Segoe UI,Helvetica,Arial,sans-serif">130</text>
  <line x1="55" y1="187.4" x2="880" y2="187.4" stroke="#21262d" stroke-width="1"/>
  <text x="47" y="191.4" fill="#8b949e" font-size="11" text-anchor="end" font-family="-apple-system,BlinkMacSystemFont,Segoe UI,Helvetica,Arial,sans-serif">140</text>
  <line x1="55" y1="176.5" x2="880" y2="176.5" stroke="#21262d" stroke-width="1"/>
  <text x="47" y="180.5" fill="#8b949e" font-size="11" text-anchor="end" font-family="-apple-system,BlinkMacSystemFont,Segoe UI,Helvetica,Arial,sans-serif">150</text>
  <line x1="55" y1="165.6" x2="880" y2="165.6" stroke="#21262d" stroke-width="1"/>
  <text x="47" y="169.6" fill="#8b949e" font-size="11" text-anchor="end" font-family="-apple-system,BlinkMacSystemFont,Segoe UI,Helvetica,Arial,sans-serif">160</text>
  <line x1="55" y1="154.7" x2="880" y2="154.7" stroke="#21262d" stroke-width="1"/>
  <text x="47" y="158.7" fill="#8b949e" font-size="11" text-anchor="end" font-family="-apple-system,BlinkMacSystemFont,Segoe UI,Helvetica,Arial,sans-serif">170</text>
  <line x1="55" y1="143.8" x2="880" y2="143.8" stroke="#21262d" stroke-width="1"/>
  <text x="47" y="147.8" fill="#8b949e" font-size="11" text-anchor="end" font-family="-apple-system,BlinkMacSystemFont,Segoe UI,Helvetica,Arial,sans-serif">180</text>
  <line x1="55" y1="132.9" x2="880" y2="132.9" stroke="#21262d" stroke-width="1"/>
  <text x="47" y="136.9" fill="#8b949e" font-size="11" text-anchor="end" font-family="-apple-system,BlinkMacSystemFont,Segoe UI,Helvetica,Arial,sans-serif">190</text>
  <line x1="55" y1="122.0" x2="880" y2="122.0" stroke="#21262d" stroke-width="1"/>
  <text x="47" y="126.0" fill="#8b949e" font-size="11" text-anchor="end" font-family="-apple-system,BlinkMacSystemFont,Segoe UI,Helvetica,Arial,sans-serif">200</text>
  <line x1="55" y1="111.1" x2="880" y2="111.1" stroke="#21262d" stroke-width="1"/>
  <text x="47" y="115.1" fill="#8b949e" font-size="11" text-anchor="end" font-family="-apple-system,BlinkMacSystemFont,Segoe UI,Helvetica,Arial,sans-serif">210</text>
  <line x1="55" y1="100.2" x2="880" y2="100.2" stroke="#21262d" stroke-width="1"/>
  <text x="47" y="104.2" fill="#8b949e" font-size="11" text-anchor="end" font-family="-apple-system,BlinkMacSystemFont,Segoe UI,Helvetica,Arial,sans-serif">220</text>
  <line x1="55" y1="89.2" x2="880" y2="89.2" stroke="#21262d" stroke-width="1"/>
  <text x="47" y="93.2" fill="#8b949e" font-size="11" text-anchor="end" font-family="-apple-system,BlinkMacSystemFont,Segoe UI,Helvetica,Arial,sans-serif">230</text>
  <line x1="55" y1="78.3" x2="880" y2="78.3" stroke="#21262d" stroke-width="1"/>
  <text x="47" y="82.3" fill="#8b949e" font-size="11" text-anchor="end" font-family="-apple-system,BlinkMacSystemFont,Segoe UI,Helvetica,Arial,sans-serif">240</text>
  <line x1="55" y1="67.4" x2="880" y2="67.4" stroke="#21262d" stroke-width="1"/>
  <text x="47" y="71.4" fill="#8b949e" font-size="11" text-anchor="end" font-family="-apple-system,BlinkMacSystemFont,Segoe UI,Helvetica,Arial,sans-serif">250</text>
  <line x1="55" y1="56.5" x2="880" y2="56.5" stroke="#21262d" stroke-width="1"/>
  <text x="47" y="60.5" fill="#8b949e" font-size="11" text-anchor="end" font-family="-apple-system,BlinkMacSystemFont,Segoe UI,Helvetica,Arial,sans-serif">260</text>
  <line x1="55.0" y1="50" x2="55.0" y2="340" stroke="#21262d" stroke-width="1" stroke-dasharray="4,4"/>
  <text x="55.0" y="360" fill="#8b949e" font-size="10" text-anchor="middle" font-family="-apple-system,BlinkMacSystemFont,Segoe UI,Helvetica,Arial,sans-serif">May 02</text>
  <line x1="167.5" y1="50" x2="167.5" y2="340" stroke="#21262d" stroke-width="1" stroke-dasharray="4,4"/>
  <text x="167.5" y="360" fill="#8b949e" font-size="10" text-anchor="middle" font-family="-apple-system,BlinkMacSystemFont,Segoe UI,Helvetica,Arial,sans-serif">May 11</text>
  <line x1="280.0" y1="50" x2="280.0" y2="340" stroke="#21262d" stroke-width="1" stroke-dasharray="4,4"/>
  <text x="280.0" y="360" fill="#8b949e" font-size="10" text-anchor="middle" font-family="-apple-system,BlinkMacSystemFont,Segoe UI,Helvetica,Arial,sans-serif">May 20</text>
  <line x1="392.5" y1="50" x2="392.5" y2="340" stroke="#21262d" stroke-width="1" stroke-dasharray="4,4"/>
  <text x="392.5" y="360" fill="#8b949e" font-size="10" text-anchor="middle" font-family="-apple-system,BlinkMacSystemFont,Segoe UI,Helvetica,Arial,sans-serif">May 29</text>
  <line x1="505.0" y1="50" x2="505.0" y2="340" stroke="#21262d" stroke-width="1" stroke-dasharray="4,4"/>
  <text x="505.0" y="360" fill="#8b949e" font-size="10" text-anchor="middle" font-family="-apple-system,BlinkMacSystemFont,Segoe UI,Helvetica,Arial,sans-serif">Jun 07</text>
  <line x1="617.5" y1="50" x2="617.5" y2="340" stroke="#21262d" stroke-width="1" stroke-dasharray="4,4"/>
  <text x="617.5" y="360" fill="#8b949e" font-size="10" text-anchor="middle" font-family="-apple-system,BlinkMacSystemFont,Segoe UI,Helvetica,Arial,sans-serif">Jun 16</text>
  <line x1="730.0" y1="50" x2="730.0" y2="340" stroke="#21262d" stroke-width="1" stroke-dasharray="4,4"/>
  <text x="730.0" y="360" fill="#8b949e" font-size="10" text-anchor="middle" font-family="-apple-system,BlinkMacSystemFont,Segoe UI,Helvetica,Arial,sans-serif">Jun 25</text>
  <line x1="842.5" y1="50" x2="842.5" y2="340" stroke="#21262d" stroke-width="1" stroke-dasharray="4,4"/>
  <text x="842.5" y="360" fill="#8b949e" font-size="10" text-anchor="middle" font-family="-apple-system,BlinkMacSystemFont,Segoe UI,Helvetica,Arial,sans-serif">Jul 04</text>
  <line x1="880.0" y1="50" x2="880.0" y2="340" stroke="#21262d" stroke-width="1" stroke-dasharray="4,4"/>
  <text x="880.0" y="360" fill="#8b949e" font-size="10" text-anchor="middle" font-family="-apple-system,BlinkMacSystemFont,Segoe UI,Helvetica,Arial,sans-serif">Jul 07</text>
  <path d="M55.0,340.0L67.5,326.9L80.0,319.3L92.5,314.9L105.0,308.4L117.5,304.0L130.0,300.8L142.5,300.8L155.0,300.8L167.5,300.8L180.0,300.8L192.5,300.8L205.0,300.8L217.5,300.8L230.0,299.7L242.5,295.3L255.0,290.9L267.5,285.5L280.0,278.9L292.5,272.4L305.0,265.9L317.5,260.4L330.0,256.1L342.5,253.9L355.0,250.6L367.5,238.6L380.0,237.5L392.5,232.1L405.0,224.4L417.5,219.0L430.0,214.6L442.5,214.6L455.0,214.6L467.5,214.6L480.0,214.6L492.5,214.6L505.0,208.1L517.5,199.4L530.0,196.1L542.5,189.5L555.0,185.2L567.5,178.6L580.0,168.8L592.5,163.4L605.0,157.9L617.5,152.5L630.0,142.7L642.5,136.1L655.0,127.4L667.5,120.9L680.0,115.4L692.5,111.1L705.0,104.5L717.5,96.9L730.0,92.5L742.5,89.2L755.0,81.6L767.5,75.1L780.0,66.4L792.5,66.4L805.0,64.2L817.5,64.2L830.0,64.2L842.5,62.0L855.0,58.7L867.5,55.5L880.0,55.5L880.0,340.0L55.0,340.0Z" fill="url(#gO)"/>
  <path d="M55.0,338.9L67.5,338.9L80.0,338.9L92.5,338.9L105.0,338.9L117.5,338.9L130.0,338.9L142.5,338.9L155.0,338.9L167.5,338.9L180.0,338.9L192.5,338.9L205.0,338.9L217.5,338.9L230.0,338.9L242.5,335.6L255.0,335.6L267.5,335.6L280.0,335.6L292.5,335.6L305.0,335.6L317.5,335.6L330.0,334.5L342.5,331.3L355.0,331.3L367.5,330.2L380.0,330.2L392.5,330.2L405.0,330.2L417.5,330.2L430.0,328.0L442.5,328.0L455.0,328.0L467.5,328.0L480.0,328.0L492.5,328.0L505.0,328.0L517.5,325.8L530.0,312.7L542.5,312.7L555.0,312.7L567.5,312.7L580.0,304.0L592.5,304.0L605.0,304.0L617.5,304.0L630.0,304.0L642.5,301.8L655.0,301.8L667.5,300.8L680.0,299.7L692.5,298.6L705.0,297.5L717.5,295.3L730.0,290.9L742.5,289.8L755.0,288.8L767.5,288.8L780.0,288.8L792.5,288.8L805.0,288.8L817.5,288.8L830.0,288.8L842.5,288.8L855.0,288.8L867.5,288.8L880.0,288.8L880.0,340.0L55.0,340.0Z" fill="url(#gR)"/>
  <path d="M55.0,340.0L67.5,326.9L80.0,319.3L92.5,314.9L105.0,308.4L117.5,304.0L130.0,300.8L142.5,300.8L155.0,300.8L167.5,300.8L180.0,300.8L192.5,300.8L205.0,300.8L217.5,300.8L230.0,299.7L242.5,295.3L255.0,290.9L267.5,285.5L280.0,278.9L292.5,272.4L305.0,265.9L317.5,260.4L330.0,256.1L342.5,253.9L355.0,250.6L367.5,238.6L380.0,237.5L392.5,232.1L405.0,224.4L417.5,219.0L430.0,214.6L442.5,214.6L455.0,214.6L467.5,214.6L480.0,214.6L492.5,214.6L505.0,208.1L517.5,199.4L530.0,196.1L542.5,189.5L555.0,185.2L567.5,178.6L580.0,168.8L592.5,163.4L605.0,157.9L617.5,152.5L630.0,142.7L642.5,136.1L655.0,127.4L667.5,120.9L680.0,115.4L692.5,111.1L705.0,104.5L717.5,96.9L730.0,92.5L742.5,89.2L755.0,81.6L767.5,75.1L780.0,66.4L792.5,66.4L805.0,64.2L817.5,64.2L830.0,64.2L842.5,62.0L855.0,58.7L867.5,55.5L880.0,55.5" fill="none" stroke="#58a6ff" stroke-width="2.5" stroke-linecap="round" stroke-linejoin="round"/>
  <path d="M55.0,338.9L67.5,338.9L80.0,338.9L92.5,338.9L105.0,338.9L117.5,338.9L130.0,338.9L142.5,338.9L155.0,338.9L167.5,338.9L180.0,338.9L192.5,338.9L205.0,338.9L217.5,338.9L230.0,338.9L242.5,335.6L255.0,335.6L267.5,335.6L280.0,335.6L292.5,335.6L305.0,335.6L317.5,335.6L330.0,334.5L342.5,331.3L355.0,331.3L367.5,330.2L380.0,330.2L392.5,330.2L405.0,330.2L417.5,330.2L430.0,328.0L442.5,328.0L455.0,328.0L467.5,328.0L480.0,328.0L492.5,328.0L505.0,328.0L517.5,325.8L530.0,312.7L542.5,312.7L555.0,312.7L567.5,312.7L580.0,304.0L592.5,304.0L605.0,304.0L617.5,304.0L630.0,304.0L642.5,301.8L655.0,301.8L667.5,300.8L680.0,299.7L692.5,298.6L705.0,297.5L717.5,295.3L730.0,290.9L742.5,289.8L755.0,288.8L767.5,288.8L780.0,288.8L792.5,288.8L805.0,288.8L817.5,288.8L830.0,288.8L842.5,288.8L855.0,288.8L867.5,288.8L880.0,288.8" fill="none" stroke="#f78166" stroke-width="2.5" stroke-linecap="round" stroke-linejoin="round"/>
  <path d="M55.0,340.0L67.5,332.4L80.0,326.9L92.5,324.7L105.0,319.3L117.5,320.4L130.0,317.1L142.5,318.2L155.0,318.2L167.5,319.3L180.0,319.3L192.5,319.3L205.0,319.3L217.5,319.3L230.0,318.2L242.5,317.1L255.0,316.0L267.5,312.7L280.0,306.2L292.5,301.8L305.0,297.5L317.5,294.2L330.0,294.2L342.5,295.3L355.0,297.5L367.5,293.1L380.0,292.0L392.5,292.0L405.0,288.8L417.5,294.2L430.0,290.9L442.5,290.9L455.0,290.9L467.5,290.9L480.0,297.5L492.5,297.5L505.0,296.4L517.5,301.8L530.0,340.0L542.5,340.0L555.0,340.0L567.5,340.0L580.0,335.6L592.5,335.6L605.0,333.5L617.5,333.5L630.0,332.4L642.5,329.1L655.0,330.2L667.5,328.0L680.0,328.0L692.5,330.2L705.0,329.1L717.5,330.2L730.0,326.9L742.5,328.0L755.0,328.0L767.5,322.6L780.0,319.3L792.5,319.3L805.0,320.4L817.5,323.6L830.0,323.6L842.5,322.6L855.0,321.5L867.5,321.5L880.0,321.5" fill="none" stroke="#3fb950" stroke-width="2.5" stroke-linecap="round" stroke-linejoin="round"/>
  <path d="M55.0,340.0L67.5,340.0L80.0,338.9L92.5,337.8L105.0,337.8L117.5,336.7L130.0,336.7L142.5,335.6L155.0,335.6L167.5,335.6L180.0,335.6L192.5,335.6L205.0,335.6L217.5,335.6L230.0,335.6L242.5,334.5L255.0,332.4L267.5,331.3L280.0,331.3L292.5,331.3L305.0,329.1L317.5,329.1L330.0,329.1L342.5,328.0L355.0,328.0L367.5,321.5L380.0,321.5L392.5,317.1L405.0,313.8L417.5,309.5L430.0,308.4L442.5,308.4L455.0,308.4L467.5,308.4L480.0,306.2L492.5,306.2L505.0,304.0L517.5,300.8L530.0,298.6L542.5,292.0L555.0,287.7L567.5,281.1L580.0,277.9L592.5,273.5L605.0,271.3L617.5,265.9L630.0,257.1L642.5,253.9L655.0,247.3L667.5,244.1L680.0,238.6L692.5,232.1L705.0,226.6L717.5,217.9L730.0,216.8L742.5,214.6L755.0,209.2L767.5,209.2L780.0,203.7L792.5,203.7L805.0,201.5L817.5,201.5L830.0,201.5L842.5,201.5L855.0,200.5L867.5,198.3L880.0,198.3" fill="none" stroke="#d2a8ff" stroke-width="2.5" stroke-linecap="round" stroke-linejoin="round"/>
  <path d="M55.0,340.0L67.5,334.5L80.0,333.5L92.5,332.4L105.0,331.3L117.5,326.9L130.0,326.9L142.5,326.9L155.0,326.9L167.5,325.8L180.0,325.8L192.5,325.8L205.0,325.8L217.5,325.8L230.0,325.8L242.5,323.6L255.0,322.6L267.5,321.5L280.0,321.5L292.5,319.3L305.0,319.3L317.5,317.1L330.0,312.7L342.5,310.6L355.0,305.1L367.5,304.0L380.0,304.0L392.5,302.9L405.0,301.8L417.5,295.3L430.0,295.3L442.5,295.3L455.0,295.3L467.5,295.3L480.0,290.9L492.5,290.9L505.0,287.7L517.5,276.8L530.0,237.5L542.5,237.5L555.0,237.5L567.5,237.5L580.0,235.3L592.5,234.2L605.0,233.2L617.5,233.2L630.0,233.2L642.5,233.2L655.0,229.9L667.5,228.8L680.0,228.8L692.5,228.8L705.0,228.8L717.5,228.8L730.0,228.8L742.5,226.6L755.0,224.4L767.5,223.3L780.0,223.3L792.5,223.3L805.0,222.3L817.5,219.0L830.0,219.0L842.5,217.9L855.0,216.8L867.5,215.7L880.0,215.7" fill="none" stroke="#f85149" stroke-width="2.5" stroke-linecap="round" stroke-linejoin="round"/>
  <circle cx="880.0" cy="55.5" r="3.5" fill="#58a6ff"/>
  <text x="889.0" y="59.5" fill="#58a6ff" font-size="11" font-weight="600" font-family="-apple-system,BlinkMacSystemFont,Segoe UI,Helvetica,Arial,sans-serif">261</text>
  <circle cx="880.0" cy="288.8" r="3.5" fill="#f78166"/>
  <text x="889.0" y="292.8" fill="#f78166" font-size="11" font-weight="600" font-family="-apple-system,BlinkMacSystemFont,Segoe UI,Helvetica,Arial,sans-serif">47</text>
  <circle cx="880.0" cy="321.5" r="3.5" fill="#3fb950"/>
  <text x="889.0" y="325.5" fill="#3fb950" font-size="11" font-weight="600" font-family="-apple-system,BlinkMacSystemFont,Segoe UI,Helvetica,Arial,sans-serif">17</text>
  <circle cx="880.0" cy="198.3" r="3.5" fill="#d2a8ff"/>
  <text x="889.0" y="202.3" fill="#d2a8ff" font-size="11" font-weight="600" font-family="-apple-system,BlinkMacSystemFont,Segoe UI,Helvetica,Arial,sans-serif">130</text>
  <circle cx="880.0" cy="215.7" r="3.5" fill="#f85149"/>
  <text x="889.0" y="219.7" fill="#f85149" font-size="11" font-weight="600" font-family="-apple-system,BlinkMacSystemFont,Segoe UI,Helvetica,Arial,sans-serif">114</text>
  <line x1="55" y1="368" x2="71" y2="368" stroke="#f78166" stroke-width="2.5" stroke-linecap="round"/>
  <text x="77" y="372" fill="#8b949e" font-size="11" font-family="-apple-system,BlinkMacSystemFont,Segoe UI,Helvetica,Arial,sans-serif">Repos</text>
  <line x1="255" y1="368" x2="271" y2="368" stroke="#58a6ff" stroke-width="2.5" stroke-linecap="round"/>
  <text x="277" y="372" fill="#8b949e" font-size="11" font-family="-apple-system,BlinkMacSystemFont,Segoe UI,Helvetica,Arial,sans-serif">PRs Opened</text>
  <line x1="455" y1="368" x2="471" y2="368" stroke="#3fb950" stroke-width="2.5" stroke-linecap="round"/>
  <text x="477" y="372" fill="#8b949e" font-size="11" font-family="-apple-system,BlinkMacSystemFont,Segoe UI,Helvetica,Arial,sans-serif">Open PRs</text>
  <line x1="55" y1="386" x2="71" y2="386" stroke="#d2a8ff" stroke-width="2.5" stroke-linecap="round"/>
  <text x="77" y="390" fill="#8b949e" font-size="11" font-family="-apple-system,BlinkMacSystemFont,Segoe UI,Helvetica,Arial,sans-serif">Merged</text>
  <line x1="255" y1="386" x2="271" y2="386" stroke="#f85149" stroke-width="2.5" stroke-linecap="round"/>
  <text x="277" y="390" fill="#8b949e" font-size="11" font-family="-apple-system,BlinkMacSystemFont,Segoe UI,Helvetica,Arial,sans-serif">Closed</text>
</svg>