<svg xmlns="http://www.w3.org/2000/svg" viewBox="0 0 960 400" width="960" height="400">
  <defs>
    <linearGradient id="gR" x1="0" y1="0" x2="0" y2="1">
      <stop offset="0%" stop-color="#3fb950" stop-opacity="0.25"/>
      <stop offset="100%" stop-color="#3fb950" stop-opacity="0.02"/>
    </linearGradient>
    <linearGradient id="gO" x1="0" y1="0" x2="0" y2="1">
      <stop offset="0%" stop-color="#58a6ff" stop-opacity="0.25"/>
      <stop offset="100%" stop-color="#58a6ff" stop-opacity="0.02"/>
    </linearGradient>
    <linearGradient id="gOp" x1="0" y1="0" x2="0" y2="1">
      <stop offset="0%" stop-color="#d2a8ff" stop-opacity="0.25"/>
      <stop offset="100%" stop-color="#d2a8ff" stop-opacity="0.02"/>
    </linearGradient>
    <linearGradient id="gM" x1="0" y1="0" x2="0" y2="1">
      <stop offset="0%" stop-color="#f78166" stop-opacity="0.25"/>
      <stop offset="100%" stop-color="#f78166" stop-opacity="0.02"/>
    </linearGradient>
    <linearGradient id="gC" x1="0" y1="0" x2="0" y2="1">
      <stop offset="0%" stop-color="#f85149" stop-opacity="0.25"/>
      <stop offset="100%" stop-color="#f85149" stop-opacity="0.02"/>
    </linearGradient>
  </defs>
  <rect width="960" height="400" rx="12" fill="#0d1117"/>
  <rect width="960" height="400" rx="12" fill="none" stroke="#30363d" stroke-width="1"/>
  <text x="55" y="30" fill="#e6edf3" font-size="15" font-weight="600" font-family="-apple-system,BlinkMacSystemFont,Segoe UI,Helvetica,Arial,sans-serif">GitHub Activity — jlaportebot</text>
  <text x="880" y="30" fill="#8b949e" font-size="11" text-anchor="end" font-family="-apple-system,BlinkMacSystemFont,Segoe UI,Helvetica,Arial,sans-serif">Updated Jun 09, 2026</text>
  <line x1="55" y1="340.0" x2="880" y2="340.0" stroke="#21262d" stroke-width="1"/>
  <text x="47" y="344.0" fill="#8b949e" font-size="11" text-anchor="end" font-family="-apple-system,BlinkMacSystemFont,Segoe UI,Helvetica,Arial,sans-serif">0</text>
  <line x1="55" y1="318.5" x2="880" y2="318.5" stroke="#21262d" stroke-width="1"/>
  <text x="47" y="322.5" fill="#8b949e" font-size="11" text-anchor="end" font-family="-apple-system,BlinkMacSystemFont,Segoe UI,Helvetica,Arial,sans-serif">10</text>
  <line x1="55" y1="297.0" x2="880" y2="297.0" stroke="#21262d" stroke-width="1"/>
  <text x="47" y="301.0" fill="#8b949e" font-size="11" text-anchor="end" font-family="-apple-system,BlinkMacSystemFont,Segoe UI,Helvetica,Arial,sans-serif">20</text>
  <line x1="55" y1="275.6" x2="880" y2="275.6" stroke="#21262d" stroke-width="1"/>
  <text x="47" y="279.6" fill="#8b949e" font-size="11" text-anchor="end" font-family="-apple-system,BlinkMacSystemFont,Segoe UI,Helvetica,Arial,sans-serif">30</text>
  <line x1="55" y1="254.1" x2="880" y2="254.1" stroke="#21262d" stroke-width="1"/>
  <text x="47" y="258.1" fill="#8b949e" font-size="11" text-anchor="end" font-family="-apple-system,BlinkMacSystemFont,Segoe UI,Helvetica,Arial,sans-serif">40</text>
  <line x1="55" y1="232.6" x2="880" y2="232.6" stroke="#21262d" stroke-width="1"/>
  <text x="47" y="236.6" fill="#8b949e" font-size="11" text-anchor="end" font-family="-apple-system,BlinkMacSystemFont,Segoe UI,Helvetica,Arial,sans-serif">50</text>
  <line x1="55" y1="211.1" x2="880" y2="211.1" stroke="#21262d" stroke-width="1"/>
  <text x="47" y="215.1" fill="#8b949e" font-size="11" text-anchor="end" font-family="-apple-system,BlinkMacSystemFont,Segoe UI,Helvetica,Arial,sans-serif">60</text>
  <line x1="55" y1="189.6" x2="880" y2="189.6" stroke="#21262d" stroke-width="1"/>
  <text x="47" y="193.6" fill="#8b949e" font-size="11" text-anchor="end" font-family="-apple-system,BlinkMacSystemFont,Segoe UI,Helvetica,Arial,sans-serif">70</text>
  <line x1="55" y1="168.1" x2="880" y2="168.1" stroke="#21262d" stroke-width="1"/>
  <text x="47" y="172.1" fill="#8b949e" font-size="11" text-anchor="end" font-family="-apple-system,BlinkMacSystemFont,Segoe UI,Helvetica,Arial,sans-serif">80</text>
  <line x1="55" y1="146.7" x2="880" y2="146.7" stroke="#21262d" stroke-width="1"/>
  <text x="47" y="150.7" fill="#8b949e" font-size="11" text-anchor="end" font-family="-apple-system,BlinkMacSystemFont,Segoe UI,Helvetica,Arial,sans-serif">90</text>
  <line x1="55" y1="125.2" x2="880" y2="125.2" stroke="#21262d" stroke-width="1"/>
  <text x="47" y="129.2" fill="#8b949e" font-size="11" text-anchor="end" font-family="-apple-system,BlinkMacSystemFont,Segoe UI,Helvetica,Arial,sans-serif">100</text>
  <line x1="55" y1="103.7" x2="880" y2="103.7" stroke="#21262d" stroke-width="1"/>
  <text x="47" y="107.7" fill="#8b949e" font-size="11" text-anchor="end" font-family="-apple-system,BlinkMacSystemFont,Segoe UI,Helvetica,Arial,sans-serif">110</text>
  <line x1="55" y1="82.2" x2="880" y2="82.2" stroke="#21262d" stroke-width="1"/>
  <text x="47" y="86.2" fill="#8b949e" font-size="11" text-anchor="end" font-family="-apple-system,BlinkMacSystemFont,Segoe UI,Helvetica,Arial,sans-serif">120</text>
  <line x1="55" y1="60.7" x2="880" y2="60.7" stroke="#21262d" stroke-width="1"/>
  <text x="47" y="64.7" fill="#8b949e" font-size="11" text-anchor="end" font-family="-apple-system,BlinkMacSystemFont,Segoe UI,Helvetica,Arial,sans-serif">130</text>
  <line x1="55.0" y1="50" x2="55.0" y2="340" stroke="#21262d" stroke-width="1" stroke-dasharray="4,4"/>
  <text x="55.0" y="360" fill="#8b949e" font-size="10" text-anchor="middle" font-family="-apple-system,BlinkMacSystemFont,Segoe UI,Helvetica,Arial,sans-serif">May 02</text>
  <line x1="163.6" y1="50" x2="163.6" y2="340" stroke="#21262d" stroke-width="1" stroke-dasharray="4,4"/>
  <text x="163.6" y="360" fill="#8b949e" font-size="10" text-anchor="middle" font-family="-apple-system,BlinkMacSystemFont,Segoe UI,Helvetica,Arial,sans-serif">May 07</text>
  <line x1="272.1" y1="50" x2="272.1" y2="340" stroke="#21262d" stroke-width="1" stroke-dasharray="4,4"/>
  <text x="272.1" y="360" fill="#8b949e" font-size="10" text-anchor="middle" font-family="-apple-system,BlinkMacSystemFont,Segoe UI,Helvetica,Arial,sans-serif">May 12</text>
  <line x1="380.7" y1="50" x2="380.7" y2="340" stroke="#21262d" stroke-width="1" stroke-dasharray="4,4"/>
  <text x="380.7" y="360" fill="#8b949e" font-size="10" text-anchor="middle" font-family="-apple-system,BlinkMacSystemFont,Segoe UI,Helvetica,Arial,sans-serif">May 17</text>
  <line x1="489.2" y1="50" x2="489.2" y2="340" stroke="#21262d" stroke-width="1" stroke-dasharray="4,4"/>
  <text x="489.2" y="360" fill="#8b949e" font-size="10" text-anchor="middle" font-family="-apple-system,BlinkMacSystemFont,Segoe UI,Helvetica,Arial,sans-serif">May 22</text>
  <line x1="597.8" y1="50" x2="597.8" y2="340" stroke="#21262d" stroke-width="1" stroke-dasharray="4,4"/>
  <text x="597.8" y="360" fill="#8b949e" font-size="10" text-anchor="middle" font-family="-apple-system,BlinkMacSystemFont,Segoe UI,Helvetica,Arial,sans-serif">May 27</text>
  <line x1="706.3" y1="50" x2="706.3" y2="340" stroke="#21262d" stroke-width="1" stroke-dasharray="4,4"/>
  <text x="706.3" y="360" fill="#8b949e" font-size="10" text-anchor="middle" font-family="-apple-system,BlinkMacSystemFont,Segoe UI,Helvetica,Arial,sans-serif">Jun 01</text>
  <line x1="814.9" y1="50" x2="814.9" y2="340" stroke="#21262d" stroke-width="1" stroke-dasharray="4,4"/>
  <text x="814.9" y="360" fill="#8b949e" font-size="10" text-anchor="middle" font-family="-apple-system,BlinkMacSystemFont,Segoe UI,Helvetica,Arial,sans-serif">Jun 06</text>
  <line x1="880.0" y1="50" x2="880.0" y2="340" stroke="#21262d" stroke-width="1" stroke-dasharray="4,4"/>
  <text x="880.0" y="360" fill="#8b949e" font-size="10" text-anchor="middle" font-family="-apple-system,BlinkMacSystemFont,Segoe UI,Helvetica,Arial,sans-serif">Jun 09</text>
  <path d="M55.0,340.0L76.7,314.2L98.4,299.2L120.1,290.6L141.8,277.7L163.6,269.1L185.3,262.7L207.0,262.7L228.7,262.7L250.4,262.7L272.1,262.7L293.8,262.7L315.5,262.7L337.2,262.7L358.9,260.5L380.7,251.9L402.4,243.3L424.1,232.6L445.8,219.7L467.5,206.8L489.2,193.9L510.9,183.2L532.6,174.6L554.3,170.3L576.1,163.9L597.8,140.2L619.5,138.1L641.2,127.3L662.9,112.3L684.6,101.6L706.3,93.0L728.0,93.0L749.7,93.0L771.4,93.0L793.2,93.0L814.9,93.0L836.6,80.1L858.3,62.9L880.0,60.7L880.0,340.0L55.0,340.0Z" fill="url(#gO)"/>
  <path d="M55.0,337.9L76.7,337.9L98.4,337.9L120.1,337.9L141.8,337.9L163.6,337.9L185.3,337.9L207.0,337.9L228.7,337.9L250.4,337.9L272.1,337.9L293.8,337.9L315.5,337.9L337.2,337.9L358.9,337.9L380.7,331.4L402.4,331.4L424.1,331.4L445.8,331.4L467.5,331.4L489.2,331.4L510.9,331.4L532.6,329.3L554.3,322.8L576.1,322.8L597.8,320.7L619.5,320.7L641.2,320.7L662.9,320.7L684.6,320.7L706.3,316.4L728.0,316.4L749.7,316.4L771.4,316.4L793.2,316.4L814.9,316.4L836.6,316.4L858.3,312.1L880.0,312.1L880.0,340.0L55.0,340.0Z" fill="url(#gR)"/>
  <path d="M55.0,340.0L76.7,314.2L98.4,299.2L120.1,290.6L141.8,277.7L163.6,269.1L185.3,262.7L207.0,262.7L228.7,262.7L250.4,262.7L272.1,262.7L293.8,262.7L315.5,262.7L337.2,262.7L358.9,260.5L380.7,251.9L402.4,243.3L424.1,232.6L445.8,219.7L467.5,206.8L489.2,193.9L510.9,183.2L532.6,174.6L554.3,170.3L576.1,163.9L597.8,140.2L619.5,138.1L641.2,127.3L662.9,112.3L684.6,101.6L706.3,93.0L728.0,93.0L749.7,93.0L771.4,93.0L793.2,93.0L814.9,93.0L836.6,80.1L858.3,62.9L880.0,60.7" fill="none" stroke="#58a6ff" stroke-width="2.5" stroke-linecap="round" stroke-linejoin="round"/>
  <path d="M55.0,337.9L76.7,337.9L98.4,337.9L120.1,337.9L141.8,337.9L163.6,337.9L185.3,337.9L207.0,337.9L228.7,337.9L250.4,337.9L272.1,337.9L293.8,337.9L315.5,337.9L337.2,337.9L358.9,337.9L380.7,331.4L402.4,331.4L424.1,331.4L445.8,331.4L467.5,331.4L489.2,331.4L510.9,331.4L532.6,329.3L554.3,322.8L576.1,322.8L597.8,320.7L619.5,320.7L641.2,320.7L662.9,320.7L684.6,320.7L706.3,316.4L728.0,316.4L749.7,316.4L771.4,316.4L793.2,316.4L814.9,316.4L836.6,316.4L858.3,312.1L880.0,312.1" fill="none" stroke="#3fb950" stroke-width="2.5" stroke-linecap="round" stroke-linejoin="round"/>
  <path d="M55.0,340.0L76.7,325.0L98.4,314.2L120.1,309.9L141.8,299.2L163.6,301.3L185.3,294.9L207.0,297.0L228.7,297.0L250.4,299.2L272.1,299.2L293.8,299.2L315.5,299.2L337.2,299.2L358.9,297.0L380.7,294.9L402.4,292.7L424.1,286.3L445.8,273.4L467.5,264.8L489.2,256.2L510.9,249.8L532.6,249.8L554.3,251.9L576.1,256.2L597.8,247.6L619.5,245.5L641.2,245.5L662.9,239.0L684.6,249.8L706.3,243.3L728.0,243.3L749.7,243.3L771.4,243.3L793.2,256.2L814.9,256.2L836.6,254.1L858.3,264.8L880.0,340.0" fill="none" stroke="#d2a8ff" stroke-width="2.5" stroke-linecap="round" stroke-linejoin="round"/>
  <path d="M55.0,340.0L76.7,340.0L98.4,337.9L120.1,335.7L141.8,335.7L163.6,333.6L185.3,333.6L207.0,331.4L228.7,331.4L250.4,331.4L272.1,331.4L293.8,331.4L315.5,331.4L337.2,331.4L358.9,331.4L380.7,329.3L402.4,325.0L424.1,322.8L445.8,322.8L467.5,322.8L489.2,318.5L510.9,318.5L532.6,318.5L554.3,316.4L576.1,316.4L597.8,303.5L619.5,303.5L641.2,294.9L662.9,288.4L684.6,279.9L706.3,277.7L728.0,277.7L749.7,277.7L771.4,277.7L793.2,273.4L814.9,273.4L836.6,269.1L858.3,262.7L880.0,262.7" fill="none" stroke="#f78166" stroke-width="2.5" stroke-linecap="round" stroke-linejoin="round"/>
  <path d="M55.0,340.0L76.7,329.3L98.4,327.1L120.1,325.0L141.8,322.8L163.6,314.2L185.3,314.2L207.0,314.2L228.7,314.2L250.4,312.1L272.1,312.1L293.8,312.1L315.5,312.1L337.2,312.1L358.9,312.1L380.7,307.8L402.4,305.6L424.1,303.5L445.8,303.5L467.5,299.2L489.2,299.2L510.9,294.9L532.6,286.3L554.3,282.0L576.1,271.3L597.8,269.1L619.5,269.1L641.2,267.0L662.9,264.8L684.6,251.9L706.3,251.9L728.0,251.9L749.7,251.9L771.4,251.9L793.2,243.3L814.9,243.3L836.6,236.9L858.3,215.4L880.0,138.1" fill="none" stroke="#f85149" stroke-width="2.5" stroke-linecap="round" stroke-linejoin="round"/>
  <circle cx="880.0" cy="60.7" r="3.5" fill="#58a6ff"/>
  <text x="889.0" y="64.7" fill="#58a6ff" font-size="11" font-weight="600" font-family="-apple-system,BlinkMacSystemFont,Segoe UI,Helvetica,Arial,sans-serif">130</text>
  <circle cx="880.0" cy="312.1" r="3.5" fill="#3fb950"/>
  <text x="889.0" y="316.1" fill="#3fb950" font-size="11" font-weight="600" font-family="-apple-system,BlinkMacSystemFont,Segoe UI,Helvetica,Arial,sans-serif">13</text>
  <circle cx="880.0" cy="340.0" r="3.5" fill="#d2a8ff"/>
  <text x="889.0" y="344.0" fill="#d2a8ff" font-size="11" font-weight="600" font-family="-apple-system,BlinkMacSystemFont,Segoe UI,Helvetica,Arial,sans-serif">0</text>
  <circle cx="880.0" cy="262.7" r="3.5" fill="#f78166"/>
  <text x="889.0" y="266.7" fill="#f78166" font-size="11" font-weight="600" font-family="-apple-system,BlinkMacSystemFont,Segoe UI,Helvetica,Arial,sans-serif">36</text>
  <circle cx="880.0" cy="138.1" r="3.5" fill="#f85149"/>
  <text x="889.0" y="142.1" fill="#f85149" font-size="11" font-weight="600" font-family="-apple-system,BlinkMacSystemFont,Segoe UI,Helvetica,Arial,sans-serif">94</text>
  <line x1="55" y1="368" x2="71" y2="368" stroke="#3fb950" stroke-width="2.5" stroke-linecap="round"/>
  <text x="77" y="372" fill="#8b949e" font-size="11" font-family="-apple-system,BlinkMacSystemFont,Segoe UI,Helvetica,Arial,sans-serif">Repos</text>
  <line x1="255" y1="368" x2="271" y2="368" stroke="#58a6ff" stroke-width="2.5" stroke-linecap="round"/>
  <text x="277" y="372" fill="#8b949e" font-size="11" font-family="-apple-system,BlinkMacSystemFont,Segoe UI,Helvetica,Arial,sans-serif">PRs Opened</text>
  <line x1="455" y1="368" x2="471" y2="368" stroke="#d2a8ff" stroke-width="2.5" stroke-linecap="round"/>
  <text x="477" y="372" fill="#8b949e" font-size="11" font-family="-apple-system,BlinkMacSystemFont,Segoe UI,Helvetica,Arial,sans-serif">Open PRs</text>
  <line x1="55" y1="386" x2="71" y2="386" stroke="#f78166" stroke-width="2.5" stroke-linecap="round"/>
  <text x="77" y="390" fill="#8b949e" font-size="11" font-family="-apple-system,BlinkMacSystemFont,Segoe UI,Helvetica,Arial,sans-serif">Merged</text>
  <line x1="255" y1="386" x2="271" y2="386" stroke="#f85149" stroke-width="2.5" stroke-linecap="round"/>
  <text x="277" y="390" fill="#8b949e" font-size="11" font-family="-apple-system,BlinkMacSystemFont,Segoe UI,Helvetica,Arial,sans-serif">Closed</text>
</svg>