<svg xmlns="http://www.w3.org/2000/svg" viewBox="0 0 960 400" width="960" height="400">
  <defs>
    <linearGradient id="gR" x1="0" y1="0" x2="0" y2="1">
      <stop offset="0%" stop-color="#3fb950" stop-opacity="0.25"/>
      <stop offset="100%" stop-color="#3fb950" stop-opacity="0.02"/>
    </linearGradient>
    <linearGradient id="gO" x1="0" y1="0" x2="0" y2="1">
      <stop offset="0%" stop-color="#58a6ff" stop-opacity="0.25"/>
      <stop offset="100%" stop-color="#58a6ff" stop-opacity="0.02"/>
    </linearGradient>
    <linearGradient id="gOp" x1="0" y1="0" x2="0" y2="1">
      <stop offset="0%" stop-color="#d2a8ff" stop-opacity="0.25"/>
      <stop offset="100%" stop-color="#d2a8ff" stop-opacity="0.02"/>
    </linearGradient>
    <linearGradient id="gM" x1="0" y1="0" x2="0" y2="1">
      <stop offset="0%" stop-color="#f78166" stop-opacity="0.25"/>
      <stop offset="100%" stop-color="#f78166" stop-opacity="0.02"/>
    </linearGradient>
    <linearGradient id="gC" x1="0" y1="0" x2="0" y2="1">
      <stop offset="0%" stop-color="#f85149" stop-opacity="0.25"/>
      <stop offset="100%" stop-color="#f85149" stop-opacity="0.02"/>
    </linearGradient>
  </defs>
  <rect width="960" height="400" rx="12" fill="#0d1117"/>
  <rect width="960" height="400" rx="12" fill="none" stroke="#30363d" stroke-width="1"/>
  <text x="55" y="30" fill="#e6edf3" font-size="15" font-weight="600" font-family="-apple-system,BlinkMacSystemFont,Segoe UI,Helvetica,Arial,sans-serif">GitHub Activity — jlaportebot</text>
  <text x="880" y="30" fill="#8b949e" font-size="11" text-anchor="end" font-family="-apple-system,BlinkMacSystemFont,Segoe UI,Helvetica,Arial,sans-serif">Updated Jun 12, 2026</text>
  <line x1="55" y1="340.0" x2="880" y2="340.0" stroke="#21262d" stroke-width="1"/>
  <text x="47" y="344.0" fill="#8b949e" font-size="11" text-anchor="end" font-family="-apple-system,BlinkMacSystemFont,Segoe UI,Helvetica,Arial,sans-serif">0</text>
  <line x1="55" y1="320.5" x2="880" y2="320.5" stroke="#21262d" stroke-width="1"/>
  <text x="47" y="324.5" fill="#8b949e" font-size="11" text-anchor="end" font-family="-apple-system,BlinkMacSystemFont,Segoe UI,Helvetica,Arial,sans-serif">10</text>
  <line x1="55" y1="301.1" x2="880" y2="301.1" stroke="#21262d" stroke-width="1"/>
  <text x="47" y="305.1" fill="#8b949e" font-size="11" text-anchor="end" font-family="-apple-system,BlinkMacSystemFont,Segoe UI,Helvetica,Arial,sans-serif">20</text>
  <line x1="55" y1="281.6" x2="880" y2="281.6" stroke="#21262d" stroke-width="1"/>
  <text x="47" y="285.6" fill="#8b949e" font-size="11" text-anchor="end" font-family="-apple-system,BlinkMacSystemFont,Segoe UI,Helvetica,Arial,sans-serif">30</text>
  <line x1="55" y1="262.1" x2="880" y2="262.1" stroke="#21262d" stroke-width="1"/>
  <text x="47" y="266.1" fill="#8b949e" font-size="11" text-anchor="end" font-family="-apple-system,BlinkMacSystemFont,Segoe UI,Helvetica,Arial,sans-serif">40</text>
  <line x1="55" y1="242.7" x2="880" y2="242.7" stroke="#21262d" stroke-width="1"/>
  <text x="47" y="246.7" fill="#8b949e" font-size="11" text-anchor="end" font-family="-apple-system,BlinkMacSystemFont,Segoe UI,Helvetica,Arial,sans-serif">50</text>
  <line x1="55" y1="223.2" x2="880" y2="223.2" stroke="#21262d" stroke-width="1"/>
  <text x="47" y="227.2" fill="#8b949e" font-size="11" text-anchor="end" font-family="-apple-system,BlinkMacSystemFont,Segoe UI,Helvetica,Arial,sans-serif">60</text>
  <line x1="55" y1="203.8" x2="880" y2="203.8" stroke="#21262d" stroke-width="1"/>
  <text x="47" y="207.8" fill="#8b949e" font-size="11" text-anchor="end" font-family="-apple-system,BlinkMacSystemFont,Segoe UI,Helvetica,Arial,sans-serif">70</text>
  <line x1="55" y1="184.3" x2="880" y2="184.3" stroke="#21262d" stroke-width="1"/>
  <text x="47" y="188.3" fill="#8b949e" font-size="11" text-anchor="end" font-family="-apple-system,BlinkMacSystemFont,Segoe UI,Helvetica,Arial,sans-serif">80</text>
  <line x1="55" y1="164.8" x2="880" y2="164.8" stroke="#21262d" stroke-width="1"/>
  <text x="47" y="168.8" fill="#8b949e" font-size="11" text-anchor="end" font-family="-apple-system,BlinkMacSystemFont,Segoe UI,Helvetica,Arial,sans-serif">90</text>
  <line x1="55" y1="145.4" x2="880" y2="145.4" stroke="#21262d" stroke-width="1"/>
  <text x="47" y="149.4" fill="#8b949e" font-size="11" text-anchor="end" font-family="-apple-system,BlinkMacSystemFont,Segoe UI,Helvetica,Arial,sans-serif">100</text>
  <line x1="55" y1="125.9" x2="880" y2="125.9" stroke="#21262d" stroke-width="1"/>
  <text x="47" y="129.9" fill="#8b949e" font-size="11" text-anchor="end" font-family="-apple-system,BlinkMacSystemFont,Segoe UI,Helvetica,Arial,sans-serif">110</text>
  <line x1="55" y1="106.4" x2="880" y2="106.4" stroke="#21262d" stroke-width="1"/>
  <text x="47" y="110.4" fill="#8b949e" font-size="11" text-anchor="end" font-family="-apple-system,BlinkMacSystemFont,Segoe UI,Helvetica,Arial,sans-serif">120</text>
  <line x1="55" y1="87.0" x2="880" y2="87.0" stroke="#21262d" stroke-width="1"/>
  <text x="47" y="91.0" fill="#8b949e" font-size="11" text-anchor="end" font-family="-apple-system,BlinkMacSystemFont,Segoe UI,Helvetica,Arial,sans-serif">130</text>
  <line x1="55" y1="67.5" x2="880" y2="67.5" stroke="#21262d" stroke-width="1"/>
  <text x="47" y="71.5" fill="#8b949e" font-size="11" text-anchor="end" font-family="-apple-system,BlinkMacSystemFont,Segoe UI,Helvetica,Arial,sans-serif">140</text>
  <line x1="55.0" y1="50" x2="55.0" y2="340" stroke="#21262d" stroke-width="1" stroke-dasharray="4,4"/>
  <text x="55.0" y="360" fill="#8b949e" font-size="10" text-anchor="middle" font-family="-apple-system,BlinkMacSystemFont,Segoe UI,Helvetica,Arial,sans-serif">May 02</text>
  <line x1="175.7" y1="50" x2="175.7" y2="340" stroke="#21262d" stroke-width="1" stroke-dasharray="4,4"/>
  <text x="175.7" y="360" fill="#8b949e" font-size="10" text-anchor="middle" font-family="-apple-system,BlinkMacSystemFont,Segoe UI,Helvetica,Arial,sans-serif">May 08</text>
  <line x1="296.5" y1="50" x2="296.5" y2="340" stroke="#21262d" stroke-width="1" stroke-dasharray="4,4"/>
  <text x="296.5" y="360" fill="#8b949e" font-size="10" text-anchor="middle" font-family="-apple-system,BlinkMacSystemFont,Segoe UI,Helvetica,Arial,sans-serif">May 14</text>
  <line x1="417.2" y1="50" x2="417.2" y2="340" stroke="#21262d" stroke-width="1" stroke-dasharray="4,4"/>
  <text x="417.2" y="360" fill="#8b949e" font-size="10" text-anchor="middle" font-family="-apple-system,BlinkMacSystemFont,Segoe UI,Helvetica,Arial,sans-serif">May 20</text>
  <line x1="537.9" y1="50" x2="537.9" y2="340" stroke="#21262d" stroke-width="1" stroke-dasharray="4,4"/>
  <text x="537.9" y="360" fill="#8b949e" font-size="10" text-anchor="middle" font-family="-apple-system,BlinkMacSystemFont,Segoe UI,Helvetica,Arial,sans-serif">May 26</text>
  <line x1="658.7" y1="50" x2="658.7" y2="340" stroke="#21262d" stroke-width="1" stroke-dasharray="4,4"/>
  <text x="658.7" y="360" fill="#8b949e" font-size="10" text-anchor="middle" font-family="-apple-system,BlinkMacSystemFont,Segoe UI,Helvetica,Arial,sans-serif">Jun 01</text>
  <line x1="779.4" y1="50" x2="779.4" y2="340" stroke="#21262d" stroke-width="1" stroke-dasharray="4,4"/>
  <text x="779.4" y="360" fill="#8b949e" font-size="10" text-anchor="middle" font-family="-apple-system,BlinkMacSystemFont,Segoe UI,Helvetica,Arial,sans-serif">Jun 07</text>
  <line x1="880.0" y1="50" x2="880.0" y2="340" stroke="#21262d" stroke-width="1" stroke-dasharray="4,4"/>
  <text x="880.0" y="360" fill="#8b949e" font-size="10" text-anchor="middle" font-family="-apple-system,BlinkMacSystemFont,Segoe UI,Helvetica,Arial,sans-serif">Jun 12</text>
  <path d="M55.0,340.0L75.1,316.6L95.2,303.0L115.4,295.2L135.5,283.6L155.6,275.8L175.7,269.9L195.9,269.9L216.0,269.9L236.1,269.9L256.2,269.9L276.3,269.9L296.5,269.9L316.6,269.9L336.7,268.0L356.8,260.2L377.0,252.4L397.1,242.7L417.2,231.0L437.3,219.3L457.4,207.7L477.6,197.9L497.7,190.1L517.8,186.2L537.9,180.4L558.0,159.0L578.2,157.0L598.3,147.3L618.4,133.7L638.5,124.0L658.7,116.2L678.8,116.2L698.9,116.2L719.0,116.2L739.1,116.2L759.3,116.2L779.4,104.5L799.5,88.9L819.6,83.1L839.8,71.4L859.9,63.6L880.0,59.7L880.0,340.0L55.0,340.0Z" fill="url(#gO)"/>
  <path d="M55.0,338.1L75.1,338.1L95.2,338.1L115.4,338.1L135.5,338.1L155.6,338.1L175.7,338.1L195.9,338.1L216.0,338.1L236.1,338.1L256.2,338.1L276.3,338.1L296.5,338.1L316.6,338.1L336.7,338.1L356.8,332.2L377.0,332.2L397.1,332.2L417.2,332.2L437.3,332.2L457.4,332.2L477.6,332.2L497.7,330.3L517.8,324.4L537.9,324.4L558.0,322.5L578.2,322.5L598.3,322.5L618.4,322.5L638.5,322.5L658.7,318.6L678.8,318.6L698.9,318.6L719.0,318.6L739.1,318.6L759.3,318.6L779.4,318.6L799.5,316.6L819.6,295.2L839.8,295.2L859.9,295.2L880.0,295.2L880.0,340.0L55.0,340.0Z" fill="url(#gR)"/>
  <path d="M55.0,340.0L75.1,316.6L95.2,303.0L115.4,295.2L135.5,283.6L155.6,275.8L175.7,269.9L195.9,269.9L216.0,269.9L236.1,269.9L256.2,269.9L276.3,269.9L296.5,269.9L316.6,269.9L336.7,268.0L356.8,260.2L377.0,252.4L397.1,242.7L417.2,231.0L437.3,219.3L457.4,207.7L477.6,197.9L497.7,190.1L517.8,186.2L537.9,180.4L558.0,159.0L578.2,157.0L598.3,147.3L618.4,133.7L638.5,124.0L658.7,116.2L678.8,116.2L698.9,116.2L719.0,116.2L739.1,116.2L759.3,116.2L779.4,104.5L799.5,88.9L819.6,83.1L839.8,71.4L859.9,63.6L880.0,59.7" fill="none" stroke="#58a6ff" stroke-width="2.5" stroke-linecap="round" stroke-linejoin="round"/>
  <path d="M55.0,338.1L75.1,338.1L95.2,338.1L115.4,338.1L135.5,338.1L155.6,338.1L175.7,338.1L195.9,338.1L216.0,338.1L236.1,338.1L256.2,338.1L276.3,338.1L296.5,338.1L316.6,338.1L336.7,338.1L356.8,332.2L377.0,332.2L397.1,332.2L417.2,332.2L437.3,332.2L457.4,332.2L477.6,332.2L497.7,330.3L517.8,324.4L537.9,324.4L558.0,322.5L578.2,322.5L598.3,322.5L618.4,322.5L638.5,322.5L658.7,318.6L678.8,318.6L698.9,318.6L719.0,318.6L739.1,318.6L759.3,318.6L779.4,318.6L799.5,316.6L819.6,295.2L839.8,295.2L859.9,295.2L880.0,295.2" fill="none" stroke="#3fb950" stroke-width="2.5" stroke-linecap="round" stroke-linejoin="round"/>
  <path d="M55.0,340.0L75.1,326.4L95.2,316.6L115.4,312.8L135.5,303.0L155.6,305.0L175.7,299.1L195.9,301.1L216.0,301.1L236.1,303.0L256.2,303.0L276.3,303.0L296.5,303.0L316.6,303.0L336.7,301.1L356.8,299.1L377.0,297.2L397.1,291.3L417.2,279.7L437.3,271.9L457.4,264.1L477.6,258.3L497.7,258.3L517.8,260.2L537.9,264.1L558.0,256.3L578.2,254.4L598.3,254.4L618.4,248.5L638.5,258.3L658.7,252.4L678.8,252.4L698.9,252.4L719.0,252.4L739.1,264.1L759.3,264.1L779.4,262.1L799.5,271.9L819.6,340.0L839.8,340.0L859.9,340.0L880.0,340.0" fill="none" stroke="#d2a8ff" stroke-width="2.5" stroke-linecap="round" stroke-linejoin="round"/>
  <path d="M55.0,340.0L75.1,340.0L95.2,338.1L115.4,336.1L135.5,336.1L155.6,334.2L175.7,334.2L195.9,332.2L216.0,332.2L236.1,332.2L256.2,332.2L276.3,332.2L296.5,332.2L316.6,332.2L336.7,332.2L356.8,330.3L377.0,326.4L397.1,324.4L417.2,324.4L437.3,324.4L457.4,320.5L477.6,320.5L497.7,320.5L517.8,318.6L537.9,318.6L558.0,306.9L578.2,306.9L598.3,299.1L618.4,293.3L638.5,285.5L658.7,283.6L678.8,283.6L698.9,283.6L719.0,283.6L739.1,279.7L759.3,279.7L779.4,275.8L799.5,269.9L819.6,266.0L839.8,254.4L859.9,246.6L880.0,242.7" fill="none" stroke="#f78166" stroke-width="2.5" stroke-linecap="round" stroke-linejoin="round"/>
  <path d="M55.0,340.0L75.1,330.3L95.2,328.3L115.4,326.4L135.5,324.4L155.6,316.6L175.7,316.6L195.9,316.6L216.0,316.6L236.1,314.7L256.2,314.7L276.3,314.7L296.5,314.7L316.6,314.7L336.7,314.7L356.8,310.8L377.0,308.9L397.1,306.9L417.2,306.9L437.3,303.0L457.4,303.0L477.6,299.1L497.7,291.3L517.8,287.4L537.9,277.7L558.0,275.8L578.2,275.8L598.3,273.8L618.4,271.9L638.5,260.2L658.7,260.2L678.8,260.2L698.9,260.2L719.0,260.2L739.1,252.4L759.3,252.4L779.4,246.6L799.5,227.1L819.6,157.0L839.8,157.0L859.9,157.0L880.0,157.0" fill="none" stroke="#f85149" stroke-width="2.5" stroke-linecap="round" stroke-linejoin="round"/>
  <circle cx="880.0" cy="59.7" r="3.5" fill="#58a6ff"/>
  <text x="889.0" y="63.7" fill="#58a6ff" font-size="11" font-weight="600" font-family="-apple-system,BlinkMacSystemFont,Segoe UI,Helvetica,Arial,sans-serif">144</text>
  <circle cx="880.0" cy="295.2" r="3.5" fill="#3fb950"/>
  <text x="889.0" y="299.2" fill="#3fb950" font-size="11" font-weight="600" font-family="-apple-system,BlinkMacSystemFont,Segoe UI,Helvetica,Arial,sans-serif">23</text>
  <circle cx="880.0" cy="340.0" r="3.5" fill="#d2a8ff"/>
  <text x="889.0" y="344.0" fill="#d2a8ff" font-size="11" font-weight="600" font-family="-apple-system,BlinkMacSystemFont,Segoe UI,Helvetica,Arial,sans-serif">0</text>
  <circle cx="880.0" cy="242.7" r="3.5" fill="#f78166"/>
  <text x="889.0" y="246.7" fill="#f78166" font-size="11" font-weight="600" font-family="-apple-system,BlinkMacSystemFont,Segoe UI,Helvetica,Arial,sans-serif">50</text>
  <circle cx="880.0" cy="157.0" r="3.5" fill="#f85149"/>
  <text x="889.0" y="161.0" fill="#f85149" font-size="11" font-weight="600" font-family="-apple-system,BlinkMacSystemFont,Segoe UI,Helvetica,Arial,sans-serif">94</text>
  <line x1="55" y1="368" x2="71" y2="368" stroke="#3fb950" stroke-width="2.5" stroke-linecap="round"/>
  <text x="77" y="372" fill="#8b949e" font-size="11" font-family="-apple-system,BlinkMacSystemFont,Segoe UI,Helvetica,Arial,sans-serif">Repos</text>
  <line x1="255" y1="368" x2="271" y2="368" stroke="#58a6ff" stroke-width="2.5" stroke-linecap="round"/>
  <text x="277" y="372" fill="#8b949e" font-size="11" font-family="-apple-system,BlinkMacSystemFont,Segoe UI,Helvetica,Arial,sans-serif">PRs Opened</text>
  <line x1="455" y1="368" x2="471" y2="368" stroke="#d2a8ff" stroke-width="2.5" stroke-linecap="round"/>
  <text x="477" y="372" fill="#8b949e" font-size="11" font-family="-apple-system,BlinkMacSystemFont,Segoe UI,Helvetica,Arial,sans-serif">Open PRs</text>
  <line x1="55" y1="386" x2="71" y2="386" stroke="#f78166" stroke-width="2.5" stroke-linecap="round"/>
  <text x="77" y="390" fill="#8b949e" font-size="11" font-family="-apple-system,BlinkMacSystemFont,Segoe UI,Helvetica,Arial,sans-serif">Merged</text>
  <line x1="255" y1="386" x2="271" y2="386" stroke="#f85149" stroke-width="2.5" stroke-linecap="round"/>
  <text x="277" y="390" fill="#8b949e" font-size="11" font-family="-apple-system,BlinkMacSystemFont,Segoe UI,Helvetica,Arial,sans-serif">Closed</text>
</svg>