<svg xmlns="http://www.w3.org/2000/svg" viewBox="0 0 960 400" width="960" height="400">
  <defs>
    <linearGradient id="gR" x1="0" y1="0" x2="0" y2="1">
      <stop offset="0%" stop-color="#f78166" stop-opacity="0.25"/>
      <stop offset="100%" stop-color="#f78166" stop-opacity="0.02"/>
    </linearGradient>
    <linearGradient id="gO" x1="0" y1="0" x2="0" y2="1">
      <stop offset="0%" stop-color="#58a6ff" stop-opacity="0.25"/>
      <stop offset="100%" stop-color="#58a6ff" stop-opacity="0.02"/>
    </linearGradient>
    <linearGradient id="gOp" x1="0" y1="0" x2="0" y2="1">
      <stop offset="0%" stop-color="#3fb950" stop-opacity="0.25"/>
      <stop offset="100%" stop-color="#3fb950" stop-opacity="0.02"/>
    </linearGradient>
    <linearGradient id="gM" x1="0" y1="0" x2="0" y2="1">
      <stop offset="0%" stop-color="#d2a8ff" stop-opacity="0.25"/>
      <stop offset="100%" stop-color="#d2a8ff" stop-opacity="0.02"/>
    </linearGradient>
    <linearGradient id="gC" x1="0" y1="0" x2="0" y2="1">
      <stop offset="0%" stop-color="#f85149" stop-opacity="0.25"/>
      <stop offset="100%" stop-color="#f85149" stop-opacity="0.02"/>
    </linearGradient>
  </defs>
  <rect width="960" height="400" rx="12" fill="#0d1117"/>
  <rect width="960" height="400" rx="12" fill="none" stroke="#30363d" stroke-width="1"/>
  <text x="55" y="30" fill="#e6edf3" font-size="15" font-weight="600" font-family="-apple-system,BlinkMacSystemFont,Segoe UI,Helvetica,Arial,sans-serif">GitHub Activity — jlaportebot</text>
  <text x="880" y="30" fill="#8b949e" font-size="11" text-anchor="end" font-family="-apple-system,BlinkMacSystemFont,Segoe UI,Helvetica,Arial,sans-serif">Updated Jul 06, 2026</text>
  <line x1="55" y1="340.0" x2="880" y2="340.0" stroke="#21262d" stroke-width="1"/>
  <text x="47" y="344.0" fill="#8b949e" font-size="11" text-anchor="end" font-family="-apple-system,BlinkMacSystemFont,Segoe UI,Helvetica,Arial,sans-serif">0</text>
  <line x1="55" y1="329.0" x2="880" y2="329.0" stroke="#21262d" stroke-width="1"/>
  <text x="47" y="333.0" fill="#8b949e" font-size="11" text-anchor="end" font-family="-apple-system,BlinkMacSystemFont,Segoe UI,Helvetica,Arial,sans-serif">10</text>
  <line x1="55" y1="318.0" x2="880" y2="318.0" stroke="#21262d" stroke-width="1"/>
  <text x="47" y="322.0" fill="#8b949e" font-size="11" text-anchor="end" font-family="-apple-system,BlinkMacSystemFont,Segoe UI,Helvetica,Arial,sans-serif">20</text>
  <line x1="55" y1="307.0" x2="880" y2="307.0" stroke="#21262d" stroke-width="1"/>
  <text x="47" y="311.0" fill="#8b949e" font-size="11" text-anchor="end" font-family="-apple-system,BlinkMacSystemFont,Segoe UI,Helvetica,Arial,sans-serif">30</text>
  <line x1="55" y1="296.1" x2="880" y2="296.1" stroke="#21262d" stroke-width="1"/>
  <text x="47" y="300.1" fill="#8b949e" font-size="11" text-anchor="end" font-family="-apple-system,BlinkMacSystemFont,Segoe UI,Helvetica,Arial,sans-serif">40</text>
  <line x1="55" y1="285.1" x2="880" y2="285.1" stroke="#21262d" stroke-width="1"/>
  <text x="47" y="289.1" fill="#8b949e" font-size="11" text-anchor="end" font-family="-apple-system,BlinkMacSystemFont,Segoe UI,Helvetica,Arial,sans-serif">50</text>
  <line x1="55" y1="274.1" x2="880" y2="274.1" stroke="#21262d" stroke-width="1"/>
  <text x="47" y="278.1" fill="#8b949e" font-size="11" text-anchor="end" font-family="-apple-system,BlinkMacSystemFont,Segoe UI,Helvetica,Arial,sans-serif">60</text>
  <line x1="55" y1="263.1" x2="880" y2="263.1" stroke="#21262d" stroke-width="1"/>
  <text x="47" y="267.1" fill="#8b949e" font-size="11" text-anchor="end" font-family="-apple-system,BlinkMacSystemFont,Segoe UI,Helvetica,Arial,sans-serif">70</text>
  <line x1="55" y1="252.1" x2="880" y2="252.1" stroke="#21262d" stroke-width="1"/>
  <text x="47" y="256.1" fill="#8b949e" font-size="11" text-anchor="end" font-family="-apple-system,BlinkMacSystemFont,Segoe UI,Helvetica,Arial,sans-serif">80</text>
  <line x1="55" y1="241.1" x2="880" y2="241.1" stroke="#21262d" stroke-width="1"/>
  <text x="47" y="245.1" fill="#8b949e" font-size="11" text-anchor="end" font-family="-apple-system,BlinkMacSystemFont,Segoe UI,Helvetica,Arial,sans-serif">90</text>
  <line x1="55" y1="230.2" x2="880" y2="230.2" stroke="#21262d" stroke-width="1"/>
  <text x="47" y="234.2" fill="#8b949e" font-size="11" text-anchor="end" font-family="-apple-system,BlinkMacSystemFont,Segoe UI,Helvetica,Arial,sans-serif">100</text>
  <line x1="55" y1="219.2" x2="880" y2="219.2" stroke="#21262d" stroke-width="1"/>
  <text x="47" y="223.2" fill="#8b949e" font-size="11" text-anchor="end" font-family="-apple-system,BlinkMacSystemFont,Segoe UI,Helvetica,Arial,sans-serif">110</text>
  <line x1="55" y1="208.2" x2="880" y2="208.2" stroke="#21262d" stroke-width="1"/>
  <text x="47" y="212.2" fill="#8b949e" font-size="11" text-anchor="end" font-family="-apple-system,BlinkMacSystemFont,Segoe UI,Helvetica,Arial,sans-serif">120</text>
  <line x1="55" y1="197.2" x2="880" y2="197.2" stroke="#21262d" stroke-width="1"/>
  <text x="47" y="201.2" fill="#8b949e" font-size="11" text-anchor="end" font-family="-apple-system,BlinkMacSystemFont,Segoe UI,Helvetica,Arial,sans-serif">130</text>
  <line x1="55" y1="186.2" x2="880" y2="186.2" stroke="#21262d" stroke-width="1"/>
  <text x="47" y="190.2" fill="#8b949e" font-size="11" text-anchor="end" font-family="-apple-system,BlinkMacSystemFont,Segoe UI,Helvetica,Arial,sans-serif">140</text>
  <line x1="55" y1="175.2" x2="880" y2="175.2" stroke="#21262d" stroke-width="1"/>
  <text x="47" y="179.2" fill="#8b949e" font-size="11" text-anchor="end" font-family="-apple-system,BlinkMacSystemFont,Segoe UI,Helvetica,Arial,sans-serif">150</text>
  <line x1="55" y1="164.2" x2="880" y2="164.2" stroke="#21262d" stroke-width="1"/>
  <text x="47" y="168.2" fill="#8b949e" font-size="11" text-anchor="end" font-family="-apple-system,BlinkMacSystemFont,Segoe UI,Helvetica,Arial,sans-serif">160</text>
  <line x1="55" y1="153.3" x2="880" y2="153.3" stroke="#21262d" stroke-width="1"/>
  <text x="47" y="157.3" fill="#8b949e" font-size="11" text-anchor="end" font-family="-apple-system,BlinkMacSystemFont,Segoe UI,Helvetica,Arial,sans-serif">170</text>
  <line x1="55" y1="142.3" x2="880" y2="142.3" stroke="#21262d" stroke-width="1"/>
  <text x="47" y="146.3" fill="#8b949e" font-size="11" text-anchor="end" font-family="-apple-system,BlinkMacSystemFont,Segoe UI,Helvetica,Arial,sans-serif">180</text>
  <line x1="55" y1="131.3" x2="880" y2="131.3" stroke="#21262d" stroke-width="1"/>
  <text x="47" y="135.3" fill="#8b949e" font-size="11" text-anchor="end" font-family="-apple-system,BlinkMacSystemFont,Segoe UI,Helvetica,Arial,sans-serif">190</text>
  <line x1="55" y1="120.3" x2="880" y2="120.3" stroke="#21262d" stroke-width="1"/>
  <text x="47" y="124.3" fill="#8b949e" font-size="11" text-anchor="end" font-family="-apple-system,BlinkMacSystemFont,Segoe UI,Helvetica,Arial,sans-serif">200</text>
  <line x1="55" y1="109.3" x2="880" y2="109.3" stroke="#21262d" stroke-width="1"/>
  <text x="47" y="113.3" fill="#8b949e" font-size="11" text-anchor="end" font-family="-apple-system,BlinkMacSystemFont,Segoe UI,Helvetica,Arial,sans-serif">210</text>
  <line x1="55" y1="98.3" x2="880" y2="98.3" stroke="#21262d" stroke-width="1"/>
  <text x="47" y="102.3" fill="#8b949e" font-size="11" text-anchor="end" font-family="-apple-system,BlinkMacSystemFont,Segoe UI,Helvetica,Arial,sans-serif">220</text>
  <line x1="55" y1="87.3" x2="880" y2="87.3" stroke="#21262d" stroke-width="1"/>
  <text x="47" y="91.3" fill="#8b949e" font-size="11" text-anchor="end" font-family="-apple-system,BlinkMacSystemFont,Segoe UI,Helvetica,Arial,sans-serif">230</text>
  <line x1="55" y1="76.4" x2="880" y2="76.4" stroke="#21262d" stroke-width="1"/>
  <text x="47" y="80.4" fill="#8b949e" font-size="11" text-anchor="end" font-family="-apple-system,BlinkMacSystemFont,Segoe UI,Helvetica,Arial,sans-serif">240</text>
  <line x1="55" y1="65.4" x2="880" y2="65.4" stroke="#21262d" stroke-width="1"/>
  <text x="47" y="69.4" fill="#8b949e" font-size="11" text-anchor="end" font-family="-apple-system,BlinkMacSystemFont,Segoe UI,Helvetica,Arial,sans-serif">250</text>
  <line x1="55" y1="54.4" x2="880" y2="54.4" stroke="#21262d" stroke-width="1"/>
  <text x="47" y="58.4" fill="#8b949e" font-size="11" text-anchor="end" font-family="-apple-system,BlinkMacSystemFont,Segoe UI,Helvetica,Arial,sans-serif">260</text>
  <line x1="55.0" y1="50" x2="55.0" y2="340" stroke="#21262d" stroke-width="1" stroke-dasharray="4,4"/>
  <text x="55.0" y="360" fill="#8b949e" font-size="10" text-anchor="middle" font-family="-apple-system,BlinkMacSystemFont,Segoe UI,Helvetica,Arial,sans-serif">May 02</text>
  <line x1="169.2" y1="50" x2="169.2" y2="340" stroke="#21262d" stroke-width="1" stroke-dasharray="4,4"/>
  <text x="169.2" y="360" fill="#8b949e" font-size="10" text-anchor="middle" font-family="-apple-system,BlinkMacSystemFont,Segoe UI,Helvetica,Arial,sans-serif">May 11</text>
  <line x1="283.5" y1="50" x2="283.5" y2="340" stroke="#21262d" stroke-width="1" stroke-dasharray="4,4"/>
  <text x="283.5" y="360" fill="#8b949e" font-size="10" text-anchor="middle" font-family="-apple-system,BlinkMacSystemFont,Segoe UI,Helvetica,Arial,sans-serif">May 20</text>
  <line x1="397.7" y1="50" x2="397.7" y2="340" stroke="#21262d" stroke-width="1" stroke-dasharray="4,4"/>
  <text x="397.7" y="360" fill="#8b949e" font-size="10" text-anchor="middle" font-family="-apple-system,BlinkMacSystemFont,Segoe UI,Helvetica,Arial,sans-serif">May 29</text>
  <line x1="511.9" y1="50" x2="511.9" y2="340" stroke="#21262d" stroke-width="1" stroke-dasharray="4,4"/>
  <text x="511.9" y="360" fill="#8b949e" font-size="10" text-anchor="middle" font-family="-apple-system,BlinkMacSystemFont,Segoe UI,Helvetica,Arial,sans-serif">Jun 07</text>
  <line x1="626.2" y1="50" x2="626.2" y2="340" stroke="#21262d" stroke-width="1" stroke-dasharray="4,4"/>
  <text x="626.2" y="360" fill="#8b949e" font-size="10" text-anchor="middle" font-family="-apple-system,BlinkMacSystemFont,Segoe UI,Helvetica,Arial,sans-serif">Jun 16</text>
  <line x1="740.4" y1="50" x2="740.4" y2="340" stroke="#21262d" stroke-width="1" stroke-dasharray="4,4"/>
  <text x="740.4" y="360" fill="#8b949e" font-size="10" text-anchor="middle" font-family="-apple-system,BlinkMacSystemFont,Segoe UI,Helvetica,Arial,sans-serif">Jun 25</text>
  <line x1="854.6" y1="50" x2="854.6" y2="340" stroke="#21262d" stroke-width="1" stroke-dasharray="4,4"/>
  <text x="854.6" y="360" fill="#8b949e" font-size="10" text-anchor="middle" font-family="-apple-system,BlinkMacSystemFont,Segoe UI,Helvetica,Arial,sans-serif">Jul 04</text>
  <line x1="880.0" y1="50" x2="880.0" y2="340" stroke="#21262d" stroke-width="1" stroke-dasharray="4,4"/>
  <text x="880.0" y="360" fill="#8b949e" font-size="10" text-anchor="middle" font-family="-apple-system,BlinkMacSystemFont,Segoe UI,Helvetica,Arial,sans-serif">Jul 06</text>
  <path d="M55.0,340.0L67.7,326.8L80.4,319.1L93.1,314.7L105.8,308.1L118.5,303.8L131.2,300.5L143.8,300.5L156.5,300.5L169.2,300.5L181.9,300.5L194.6,300.5L207.3,300.5L220.0,300.5L232.7,299.4L245.4,295.0L258.1,290.6L270.8,285.1L283.5,278.5L296.2,271.9L308.8,265.3L321.5,259.8L334.2,255.4L346.9,253.2L359.6,249.9L372.3,237.8L385.0,236.7L397.7,231.2L410.4,223.6L423.1,218.1L435.8,213.7L448.5,213.7L461.2,213.7L473.8,213.7L486.5,213.7L499.2,213.7L511.9,207.1L524.6,198.3L537.3,195.0L550.0,188.4L562.7,184.0L575.4,177.4L588.1,167.5L600.8,162.0L613.5,156.6L626.2,151.1L638.8,141.2L651.5,134.6L664.2,125.8L676.9,119.2L689.6,113.7L702.3,109.3L715.0,102.7L727.7,95.0L740.4,90.6L753.1,87.3L765.8,79.7L778.5,73.1L791.2,64.3L803.8,64.3L816.5,62.1L829.2,62.1L841.9,62.1L854.6,59.9L867.3,56.6L880.0,55.5L880.0,340.0L55.0,340.0Z" fill="url(#gO)"/>
  <path d="M55.0,338.9L67.7,338.9L80.4,338.9L93.1,338.9L105.8,338.9L118.5,338.9L131.2,338.9L143.8,338.9L156.5,338.9L169.2,338.9L181.9,338.9L194.6,338.9L207.3,338.9L220.0,338.9L232.7,338.9L245.4,335.6L258.1,335.6L270.8,335.6L283.5,335.6L296.2,335.6L308.8,335.6L321.5,335.6L334.2,334.5L346.9,331.2L359.6,331.2L372.3,330.1L385.0,330.1L397.7,330.1L410.4,330.1L423.1,330.1L435.8,327.9L448.5,327.9L461.2,327.9L473.8,327.9L486.5,327.9L499.2,327.9L511.9,327.9L524.6,325.7L537.3,312.5L550.0,312.5L562.7,312.5L575.4,312.5L588.1,303.8L600.8,303.8L613.5,303.8L626.2,303.8L638.8,303.8L651.5,301.6L664.2,301.6L676.9,300.5L689.6,299.4L702.3,298.3L715.0,297.2L727.7,295.0L740.4,290.6L753.1,289.5L765.8,288.4L778.5,288.4L791.2,288.4L803.8,288.4L816.5,288.4L829.2,288.4L841.9,288.4L854.6,288.4L867.3,288.4L880.0,288.4L880.0,340.0L55.0,340.0Z" fill="url(#gR)"/>
  <path d="M55.0,340.0L67.7,326.8L80.4,319.1L93.1,314.7L105.8,308.1L118.5,303.8L131.2,300.5L143.8,300.5L156.5,300.5L169.2,300.5L181.9,300.5L194.6,300.5L207.3,300.5L220.0,300.5L232.7,299.4L245.4,295.0L258.1,290.6L270.8,285.1L283.5,278.5L296.2,271.9L308.8,265.3L321.5,259.8L334.2,255.4L346.9,253.2L359.6,249.9L372.3,237.8L385.0,236.7L397.7,231.2L410.4,223.6L423.1,218.1L435.8,213.7L448.5,213.7L461.2,213.7L473.8,213.7L486.5,213.7L499.2,213.7L511.9,207.1L524.6,198.3L537.3,195.0L550.0,188.4L562.7,184.0L575.4,177.4L588.1,167.5L600.8,162.0L613.5,156.6L626.2,151.1L638.8,141.2L651.5,134.6L664.2,125.8L676.9,119.2L689.6,113.7L702.3,109.3L715.0,102.7L727.7,95.0L740.4,90.6L753.1,87.3L765.8,79.7L778.5,73.1L791.2,64.3L803.8,64.3L816.5,62.1L829.2,62.1L841.9,62.1L854.6,59.9L867.3,56.6L880.0,55.5" fill="none" stroke="#58a6ff" stroke-width="2.5" stroke-linecap="round" stroke-linejoin="round"/>
  <path d="M55.0,338.9L67.7,338.9L80.4,338.9L93.1,338.9L105.8,338.9L118.5,338.9L131.2,338.9L143.8,338.9L156.5,338.9L169.2,338.9L181.9,338.9L194.6,338.9L207.3,338.9L220.0,338.9L232.7,338.9L245.4,335.6L258.1,335.6L270.8,335.6L283.5,335.6L296.2,335.6L308.8,335.6L321.5,335.6L334.2,334.5L346.9,331.2L359.6,331.2L372.3,330.1L385.0,330.1L397.7,330.1L410.4,330.1L423.1,330.1L435.8,327.9L448.5,327.9L461.2,327.9L473.8,327.9L486.5,327.9L499.2,327.9L511.9,327.9L524.6,325.7L537.3,312.5L550.0,312.5L562.7,312.5L575.4,312.5L588.1,303.8L600.8,303.8L613.5,303.8L626.2,303.8L638.8,303.8L651.5,301.6L664.2,301.6L676.9,300.5L689.6,299.4L702.3,298.3L715.0,297.2L727.7,295.0L740.4,290.6L753.1,289.5L765.8,288.4L778.5,288.4L791.2,288.4L803.8,288.4L816.5,288.4L829.2,288.4L841.9,288.4L854.6,288.4L867.3,288.4L880.0,288.4" fill="none" stroke="#f78166" stroke-width="2.5" stroke-linecap="round" stroke-linejoin="round"/>
  <path d="M55.0,340.0L67.7,332.3L80.4,326.8L93.1,324.6L105.8,319.1L118.5,320.2L131.2,316.9L143.8,318.0L156.5,318.0L169.2,319.1L181.9,319.1L194.6,319.1L207.3,319.1L220.0,319.1L232.7,318.0L245.4,316.9L258.1,315.8L270.8,312.5L283.5,305.9L296.2,301.6L308.8,297.2L321.5,293.9L334.2,293.9L346.9,295.0L359.6,297.2L372.3,292.8L385.0,291.7L397.7,291.7L410.4,288.4L423.1,293.9L435.8,290.6L448.5,290.6L461.2,290.6L473.8,290.6L486.5,297.2L499.2,297.2L511.9,296.1L524.6,301.6L537.3,340.0L550.0,340.0L562.7,340.0L575.4,340.0L588.1,335.6L600.8,335.6L613.5,333.4L626.2,333.4L638.8,332.3L651.5,329.0L664.2,330.1L676.9,327.9L689.6,327.9L702.3,330.1L715.0,329.0L727.7,330.1L740.4,326.8L753.1,327.9L765.8,327.9L778.5,322.4L791.2,319.1L803.8,319.1L816.5,320.2L829.2,323.5L841.9,323.5L854.6,322.4L867.3,321.3L880.0,321.3" fill="none" stroke="#3fb950" stroke-width="2.5" stroke-linecap="round" stroke-linejoin="round"/>
  <path d="M55.0,340.0L67.7,340.0L80.4,338.9L93.1,337.8L105.8,337.8L118.5,336.7L131.2,336.7L143.8,335.6L156.5,335.6L169.2,335.6L181.9,335.6L194.6,335.6L207.3,335.6L220.0,335.6L232.7,335.6L245.4,334.5L258.1,332.3L270.8,331.2L283.5,331.2L296.2,331.2L308.8,329.0L321.5,329.0L334.2,329.0L346.9,327.9L359.6,327.9L372.3,321.3L385.0,321.3L397.7,316.9L410.4,313.6L423.1,309.2L435.8,308.1L448.5,308.1L461.2,308.1L473.8,308.1L486.5,305.9L499.2,305.9L511.9,303.8L524.6,300.5L537.3,298.3L550.0,291.7L562.7,287.3L575.4,280.7L588.1,277.4L600.8,273.0L613.5,270.8L626.2,265.3L638.8,256.5L651.5,253.2L664.2,246.6L676.9,243.3L689.6,237.8L702.3,231.2L715.0,225.8L727.7,217.0L740.4,215.9L753.1,213.7L765.8,208.2L778.5,208.2L791.2,202.7L803.8,202.7L816.5,200.5L829.2,200.5L841.9,200.5L854.6,200.5L867.3,199.4L880.0,198.3" fill="none" stroke="#d2a8ff" stroke-width="2.5" stroke-linecap="round" stroke-linejoin="round"/>
  <path d="M55.0,340.0L67.7,334.5L80.4,333.4L93.1,332.3L105.8,331.2L118.5,326.8L131.2,326.8L143.8,326.8L156.5,326.8L169.2,325.7L181.9,325.7L194.6,325.7L207.3,325.7L220.0,325.7L232.7,325.7L245.4,323.5L258.1,322.4L270.8,321.3L283.5,321.3L296.2,319.1L308.8,319.1L321.5,316.9L334.2,312.5L346.9,310.3L359.6,304.8L372.3,303.8L385.0,303.8L397.7,302.7L410.4,301.6L423.1,295.0L435.8,295.0L448.5,295.0L461.2,295.0L473.8,295.0L486.5,290.6L499.2,290.6L511.9,287.3L524.6,276.3L537.3,236.7L550.0,236.7L562.7,236.7L575.4,236.7L588.1,234.5L600.8,233.4L613.5,232.3L626.2,232.3L638.8,232.3L651.5,232.3L664.2,229.1L676.9,228.0L689.6,228.0L702.3,228.0L715.0,228.0L727.7,228.0L740.4,228.0L753.1,225.8L765.8,223.6L778.5,222.5L791.2,222.5L803.8,222.5L816.5,221.4L829.2,218.1L841.9,218.1L854.6,217.0L867.3,215.9L880.0,215.9" fill="none" stroke="#f85149" stroke-width="2.5" stroke-linecap="round" stroke-linejoin="round"/>
  <circle cx="880.0" cy="55.5" r="3.5" fill="#58a6ff"/>
  <text x="889.0" y="59.5" fill="#58a6ff" font-size="11" font-weight="600" font-family="-apple-system,BlinkMacSystemFont,Segoe UI,Helvetica,Arial,sans-serif">259</text>
  <circle cx="880.0" cy="288.4" r="3.5" fill="#f78166"/>
  <text x="889.0" y="292.4" fill="#f78166" font-size="11" font-weight="600" font-family="-apple-system,BlinkMacSystemFont,Segoe UI,Helvetica,Arial,sans-serif">47</text>
  <circle cx="880.0" cy="321.3" r="3.5" fill="#3fb950"/>
  <text x="889.0" y="325.3" fill="#3fb950" font-size="11" font-weight="600" font-family="-apple-system,BlinkMacSystemFont,Segoe UI,Helvetica,Arial,sans-serif">17</text>
  <circle cx="880.0" cy="198.3" r="3.5" fill="#d2a8ff"/>
  <text x="889.0" y="202.3" fill="#d2a8ff" font-size="11" font-weight="600" font-family="-apple-system,BlinkMacSystemFont,Segoe UI,Helvetica,Arial,sans-serif">129</text>
  <circle cx="880.0" cy="215.9" r="3.5" fill="#f85149"/>
  <text x="889.0" y="219.9" fill="#f85149" font-size="11" font-weight="600" font-family="-apple-system,BlinkMacSystemFont,Segoe UI,Helvetica,Arial,sans-serif">113</text>
  <line x1="55" y1="368" x2="71" y2="368" stroke="#f78166" stroke-width="2.5" stroke-linecap="round"/>
  <text x="77" y="372" fill="#8b949e" font-size="11" font-family="-apple-system,BlinkMacSystemFont,Segoe UI,Helvetica,Arial,sans-serif">Repos</text>
  <line x1="255" y1="368" x2="271" y2="368" stroke="#58a6ff" stroke-width="2.5" stroke-linecap="round"/>
  <text x="277" y="372" fill="#8b949e" font-size="11" font-family="-apple-system,BlinkMacSystemFont,Segoe UI,Helvetica,Arial,sans-serif">PRs Opened</text>
  <line x1="455" y1="368" x2="471" y2="368" stroke="#3fb950" stroke-width="2.5" stroke-linecap="round"/>
  <text x="477" y="372" fill="#8b949e" font-size="11" font-family="-apple-system,BlinkMacSystemFont,Segoe UI,Helvetica,Arial,sans-serif">Open PRs</text>
  <line x1="55" y1="386" x2="71" y2="386" stroke="#d2a8ff" stroke-width="2.5" stroke-linecap="round"/>
  <text x="77" y="390" fill="#8b949e" font-size="11" font-family="-apple-system,BlinkMacSystemFont,Segoe UI,Helvetica,Arial,sans-serif">Merged</text>
  <line x1="255" y1="386" x2="271" y2="386" stroke="#f85149" stroke-width="2.5" stroke-linecap="round"/>
  <text x="277" y="390" fill="#8b949e" font-size="11" font-family="-apple-system,BlinkMacSystemFont,Segoe UI,Helvetica,Arial,sans-serif">Closed</text>
</svg>