<svg xmlns="http://www.w3.org/2000/svg" viewBox="0 0 960 400" width="960" height="400">
  <defs>
    <linearGradient id="gR" x1="0" y1="0" x2="0" y2="1">
      <stop offset="0%" stop-color="#3fb950" stop-opacity="0.25"/>
      <stop offset="100%" stop-color="#3fb950" stop-opacity="0.02"/>
    </linearGradient>
    <linearGradient id="gO" x1="0" y1="0" x2="0" y2="1">
      <stop offset="0%" stop-color="#58a6ff" stop-opacity="0.25"/>
      <stop offset="100%" stop-color="#58a6ff" stop-opacity="0.02"/>
    </linearGradient>
    <linearGradient id="gOp" x1="0" y1="0" x2="0" y2="1">
      <stop offset="0%" stop-color="#d2a8ff" stop-opacity="0.25"/>
      <stop offset="100%" stop-color="#d2a8ff" stop-opacity="0.02"/>
    </linearGradient>
    <linearGradient id="gM" x1="0" y1="0" x2="0" y2="1">
      <stop offset="0%" stop-color="#f78166" stop-opacity="0.25"/>
      <stop offset="100%" stop-color="#f78166" stop-opacity="0.02"/>
    </linearGradient>
    <linearGradient id="gC" x1="0" y1="0" x2="0" y2="1">
      <stop offset="0%" stop-color="#f85149" stop-opacity="0.25"/>
      <stop offset="100%" stop-color="#f85149" stop-opacity="0.02"/>
    </linearGradient>
  </defs>
  <rect width="960" height="400" rx="12" fill="#0d1117"/>
  <rect width="960" height="400" rx="12" fill="none" stroke="#30363d" stroke-width="1"/>
  <text x="55" y="30" fill="#e6edf3" font-size="15" font-weight="600" font-family="-apple-system,BlinkMacSystemFont,Segoe UI,Helvetica,Arial,sans-serif">GitHub Activity — jlaportebot</text>
  <text x="880" y="30" fill="#8b949e" font-size="11" text-anchor="end" font-family="-apple-system,BlinkMacSystemFont,Segoe UI,Helvetica,Arial,sans-serif">Updated Jun 12, 2026</text>
  <line x1="55" y1="340.0" x2="880" y2="340.0" stroke="#21262d" stroke-width="1"/>
  <text x="47" y="344.0" fill="#8b949e" font-size="11" text-anchor="end" font-family="-apple-system,BlinkMacSystemFont,Segoe UI,Helvetica,Arial,sans-serif">0</text>
  <line x1="55" y1="321.0" x2="880" y2="321.0" stroke="#21262d" stroke-width="1"/>
  <text x="47" y="325.0" fill="#8b949e" font-size="11" text-anchor="end" font-family="-apple-system,BlinkMacSystemFont,Segoe UI,Helvetica,Arial,sans-serif">10</text>
  <line x1="55" y1="302.1" x2="880" y2="302.1" stroke="#21262d" stroke-width="1"/>
  <text x="47" y="306.1" fill="#8b949e" font-size="11" text-anchor="end" font-family="-apple-system,BlinkMacSystemFont,Segoe UI,Helvetica,Arial,sans-serif">20</text>
  <line x1="55" y1="283.1" x2="880" y2="283.1" stroke="#21262d" stroke-width="1"/>
  <text x="47" y="287.1" fill="#8b949e" font-size="11" text-anchor="end" font-family="-apple-system,BlinkMacSystemFont,Segoe UI,Helvetica,Arial,sans-serif">30</text>
  <line x1="55" y1="264.2" x2="880" y2="264.2" stroke="#21262d" stroke-width="1"/>
  <text x="47" y="268.2" fill="#8b949e" font-size="11" text-anchor="end" font-family="-apple-system,BlinkMacSystemFont,Segoe UI,Helvetica,Arial,sans-serif">40</text>
  <line x1="55" y1="245.2" x2="880" y2="245.2" stroke="#21262d" stroke-width="1"/>
  <text x="47" y="249.2" fill="#8b949e" font-size="11" text-anchor="end" font-family="-apple-system,BlinkMacSystemFont,Segoe UI,Helvetica,Arial,sans-serif">50</text>
  <line x1="55" y1="226.3" x2="880" y2="226.3" stroke="#21262d" stroke-width="1"/>
  <text x="47" y="230.3" fill="#8b949e" font-size="11" text-anchor="end" font-family="-apple-system,BlinkMacSystemFont,Segoe UI,Helvetica,Arial,sans-serif">60</text>
  <line x1="55" y1="207.3" x2="880" y2="207.3" stroke="#21262d" stroke-width="1"/>
  <text x="47" y="211.3" fill="#8b949e" font-size="11" text-anchor="end" font-family="-apple-system,BlinkMacSystemFont,Segoe UI,Helvetica,Arial,sans-serif">70</text>
  <line x1="55" y1="188.4" x2="880" y2="188.4" stroke="#21262d" stroke-width="1"/>
  <text x="47" y="192.4" fill="#8b949e" font-size="11" text-anchor="end" font-family="-apple-system,BlinkMacSystemFont,Segoe UI,Helvetica,Arial,sans-serif">80</text>
  <line x1="55" y1="169.4" x2="880" y2="169.4" stroke="#21262d" stroke-width="1"/>
  <text x="47" y="173.4" fill="#8b949e" font-size="11" text-anchor="end" font-family="-apple-system,BlinkMacSystemFont,Segoe UI,Helvetica,Arial,sans-serif">90</text>
  <line x1="55" y1="150.5" x2="880" y2="150.5" stroke="#21262d" stroke-width="1"/>
  <text x="47" y="154.5" fill="#8b949e" font-size="11" text-anchor="end" font-family="-apple-system,BlinkMacSystemFont,Segoe UI,Helvetica,Arial,sans-serif">100</text>
  <line x1="55" y1="131.5" x2="880" y2="131.5" stroke="#21262d" stroke-width="1"/>
  <text x="47" y="135.5" fill="#8b949e" font-size="11" text-anchor="end" font-family="-apple-system,BlinkMacSystemFont,Segoe UI,Helvetica,Arial,sans-serif">110</text>
  <line x1="55" y1="112.5" x2="880" y2="112.5" stroke="#21262d" stroke-width="1"/>
  <text x="47" y="116.5" fill="#8b949e" font-size="11" text-anchor="end" font-family="-apple-system,BlinkMacSystemFont,Segoe UI,Helvetica,Arial,sans-serif">120</text>
  <line x1="55" y1="93.6" x2="880" y2="93.6" stroke="#21262d" stroke-width="1"/>
  <text x="47" y="97.6" fill="#8b949e" font-size="11" text-anchor="end" font-family="-apple-system,BlinkMacSystemFont,Segoe UI,Helvetica,Arial,sans-serif">130</text>
  <line x1="55" y1="74.6" x2="880" y2="74.6" stroke="#21262d" stroke-width="1"/>
  <text x="47" y="78.6" fill="#8b949e" font-size="11" text-anchor="end" font-family="-apple-system,BlinkMacSystemFont,Segoe UI,Helvetica,Arial,sans-serif">140</text>
  <line x1="55" y1="55.7" x2="880" y2="55.7" stroke="#21262d" stroke-width="1"/>
  <text x="47" y="59.7" fill="#8b949e" font-size="11" text-anchor="end" font-family="-apple-system,BlinkMacSystemFont,Segoe UI,Helvetica,Arial,sans-serif">150</text>
  <line x1="55.0" y1="50" x2="55.0" y2="340" stroke="#21262d" stroke-width="1" stroke-dasharray="4,4"/>
  <text x="55.0" y="360" fill="#8b949e" font-size="10" text-anchor="middle" font-family="-apple-system,BlinkMacSystemFont,Segoe UI,Helvetica,Arial,sans-serif">May 02</text>
  <line x1="175.7" y1="50" x2="175.7" y2="340" stroke="#21262d" stroke-width="1" stroke-dasharray="4,4"/>
  <text x="175.7" y="360" fill="#8b949e" font-size="10" text-anchor="middle" font-family="-apple-system,BlinkMacSystemFont,Segoe UI,Helvetica,Arial,sans-serif">May 08</text>
  <line x1="296.5" y1="50" x2="296.5" y2="340" stroke="#21262d" stroke-width="1" stroke-dasharray="4,4"/>
  <text x="296.5" y="360" fill="#8b949e" font-size="10" text-anchor="middle" font-family="-apple-system,BlinkMacSystemFont,Segoe UI,Helvetica,Arial,sans-serif">May 14</text>
  <line x1="417.2" y1="50" x2="417.2" y2="340" stroke="#21262d" stroke-width="1" stroke-dasharray="4,4"/>
  <text x="417.2" y="360" fill="#8b949e" font-size="10" text-anchor="middle" font-family="-apple-system,BlinkMacSystemFont,Segoe UI,Helvetica,Arial,sans-serif">May 20</text>
  <line x1="537.9" y1="50" x2="537.9" y2="340" stroke="#21262d" stroke-width="1" stroke-dasharray="4,4"/>
  <text x="537.9" y="360" fill="#8b949e" font-size="10" text-anchor="middle" font-family="-apple-system,BlinkMacSystemFont,Segoe UI,Helvetica,Arial,sans-serif">May 26</text>
  <line x1="658.7" y1="50" x2="658.7" y2="340" stroke="#21262d" stroke-width="1" stroke-dasharray="4,4"/>
  <text x="658.7" y="360" fill="#8b949e" font-size="10" text-anchor="middle" font-family="-apple-system,BlinkMacSystemFont,Segoe UI,Helvetica,Arial,sans-serif">Jun 01</text>
  <line x1="779.4" y1="50" x2="779.4" y2="340" stroke="#21262d" stroke-width="1" stroke-dasharray="4,4"/>
  <text x="779.4" y="360" fill="#8b949e" font-size="10" text-anchor="middle" font-family="-apple-system,BlinkMacSystemFont,Segoe UI,Helvetica,Arial,sans-serif">Jun 07</text>
  <line x1="880.0" y1="50" x2="880.0" y2="340" stroke="#21262d" stroke-width="1" stroke-dasharray="4,4"/>
  <text x="880.0" y="360" fill="#8b949e" font-size="10" text-anchor="middle" font-family="-apple-system,BlinkMacSystemFont,Segoe UI,Helvetica,Arial,sans-serif">Jun 12</text>
  <path d="M55.0,340.0L75.1,317.3L95.2,304.0L115.4,296.4L135.5,285.0L155.6,277.5L175.7,271.8L195.9,271.8L216.0,271.8L236.1,271.8L256.2,271.8L276.3,271.8L296.5,271.8L316.6,271.8L336.7,269.9L356.8,262.3L377.0,254.7L397.1,245.2L417.2,233.9L437.3,222.5L457.4,211.1L477.6,201.6L497.7,194.1L517.8,190.3L537.9,184.6L558.0,163.7L578.2,161.8L598.3,152.4L618.4,139.1L638.5,129.6L658.7,122.0L678.8,122.0L698.9,122.0L719.0,122.0L739.1,122.0L759.3,122.0L779.4,110.7L799.5,95.5L819.6,89.8L839.8,78.4L859.9,70.8L880.0,59.5L880.0,340.0L55.0,340.0Z" fill="url(#gO)"/>
  <path d="M55.0,338.1L75.1,338.1L95.2,338.1L115.4,338.1L135.5,338.1L155.6,338.1L175.7,338.1L195.9,338.1L216.0,338.1L236.1,338.1L256.2,338.1L276.3,338.1L296.5,338.1L316.6,338.1L336.7,338.1L356.8,332.4L377.0,332.4L397.1,332.4L417.2,332.4L437.3,332.4L457.4,332.4L477.6,332.4L497.7,330.5L517.8,324.8L537.9,324.8L558.0,322.9L578.2,322.9L598.3,322.9L618.4,322.9L638.5,322.9L658.7,319.2L678.8,319.2L698.9,319.2L719.0,319.2L739.1,319.2L759.3,319.2L779.4,319.2L799.5,317.3L819.6,296.4L839.8,296.4L859.9,296.4L880.0,296.4L880.0,340.0L55.0,340.0Z" fill="url(#gR)"/>
  <path d="M55.0,340.0L75.1,317.3L95.2,304.0L115.4,296.4L135.5,285.0L155.6,277.5L175.7,271.8L195.9,271.8L216.0,271.8L236.1,271.8L256.2,271.8L276.3,271.8L296.5,271.8L316.6,271.8L336.7,269.9L356.8,262.3L377.0,254.7L397.1,245.2L417.2,233.9L437.3,222.5L457.4,211.1L477.6,201.6L497.7,194.1L517.8,190.3L537.9,184.6L558.0,163.7L578.2,161.8L598.3,152.4L618.4,139.1L638.5,129.6L658.7,122.0L678.8,122.0L698.9,122.0L719.0,122.0L739.1,122.0L759.3,122.0L779.4,110.7L799.5,95.5L819.6,89.8L839.8,78.4L859.9,70.8L880.0,59.5" fill="none" stroke="#58a6ff" stroke-width="2.5" stroke-linecap="round" stroke-linejoin="round"/>
  <path d="M55.0,338.1L75.1,338.1L95.2,338.1L115.4,338.1L135.5,338.1L155.6,338.1L175.7,338.1L195.9,338.1L216.0,338.1L236.1,338.1L256.2,338.1L276.3,338.1L296.5,338.1L316.6,338.1L336.7,338.1L356.8,332.4L377.0,332.4L397.1,332.4L417.2,332.4L437.3,332.4L457.4,332.4L477.6,332.4L497.7,330.5L517.8,324.8L537.9,324.8L558.0,322.9L578.2,322.9L598.3,322.9L618.4,322.9L638.5,322.9L658.7,319.2L678.8,319.2L698.9,319.2L719.0,319.2L739.1,319.2L759.3,319.2L779.4,319.2L799.5,317.3L819.6,296.4L839.8,296.4L859.9,296.4L880.0,296.4" fill="none" stroke="#3fb950" stroke-width="2.5" stroke-linecap="round" stroke-linejoin="round"/>
  <path d="M55.0,340.0L75.1,326.7L95.2,317.3L115.4,313.5L135.5,304.0L155.6,305.9L175.7,300.2L195.9,302.1L216.0,302.1L236.1,304.0L256.2,304.0L276.3,304.0L296.5,304.0L316.6,304.0L336.7,302.1L356.8,300.2L377.0,298.3L397.1,292.6L417.2,281.2L437.3,273.7L457.4,266.1L477.6,260.4L497.7,260.4L517.8,262.3L537.9,266.1L558.0,258.5L578.2,256.6L598.3,256.6L618.4,250.9L638.5,260.4L658.7,254.7L678.8,254.7L698.9,254.7L719.0,254.7L739.1,266.1L759.3,266.1L779.4,264.2L799.5,273.7L819.6,340.0L839.8,340.0L859.9,340.0L880.0,340.0" fill="none" stroke="#d2a8ff" stroke-width="2.5" stroke-linecap="round" stroke-linejoin="round"/>
  <path d="M55.0,340.0L75.1,340.0L95.2,338.1L115.4,336.2L135.5,336.2L155.6,334.3L175.7,334.3L195.9,332.4L216.0,332.4L236.1,332.4L256.2,332.4L276.3,332.4L296.5,332.4L316.6,332.4L336.7,332.4L356.8,330.5L377.0,326.7L397.1,324.8L417.2,324.8L437.3,324.8L457.4,321.0L477.6,321.0L497.7,321.0L517.8,319.2L537.9,319.2L558.0,307.8L578.2,307.8L598.3,300.2L618.4,294.5L638.5,286.9L658.7,285.0L678.8,285.0L698.9,285.0L719.0,285.0L739.1,281.2L759.3,281.2L779.4,277.5L799.5,271.8L819.6,268.0L839.8,256.6L859.9,249.0L880.0,237.6" fill="none" stroke="#f78166" stroke-width="2.5" stroke-linecap="round" stroke-linejoin="round"/>
  <path d="M55.0,340.0L75.1,330.5L95.2,328.6L115.4,326.7L135.5,324.8L155.6,317.3L175.7,317.3L195.9,317.3L216.0,317.3L236.1,315.4L256.2,315.4L276.3,315.4L296.5,315.4L316.6,315.4L336.7,315.4L356.8,311.6L377.0,309.7L397.1,307.8L417.2,307.8L437.3,304.0L457.4,304.0L477.6,300.2L497.7,292.6L517.8,288.8L537.9,279.3L558.0,277.5L578.2,277.5L598.3,275.6L618.4,273.7L638.5,262.3L658.7,262.3L678.8,262.3L698.9,262.3L719.0,262.3L739.1,254.7L759.3,254.7L779.4,249.0L799.5,230.1L819.6,161.8L839.8,161.8L859.9,161.8L880.0,161.8" fill="none" stroke="#f85149" stroke-width="2.5" stroke-linecap="round" stroke-linejoin="round"/>
  <circle cx="880.0" cy="59.5" r="3.5" fill="#58a6ff"/>
  <text x="889.0" y="63.5" fill="#58a6ff" font-size="11" font-weight="600" font-family="-apple-system,BlinkMacSystemFont,Segoe UI,Helvetica,Arial,sans-serif">148</text>
  <circle cx="880.0" cy="296.4" r="3.5" fill="#3fb950"/>
  <text x="889.0" y="300.4" fill="#3fb950" font-size="11" font-weight="600" font-family="-apple-system,BlinkMacSystemFont,Segoe UI,Helvetica,Arial,sans-serif">23</text>
  <circle cx="880.0" cy="340.0" r="3.5" fill="#d2a8ff"/>
  <text x="889.0" y="344.0" fill="#d2a8ff" font-size="11" font-weight="600" font-family="-apple-system,BlinkMacSystemFont,Segoe UI,Helvetica,Arial,sans-serif">0</text>
  <circle cx="880.0" cy="237.6" r="3.5" fill="#f78166"/>
  <text x="889.0" y="241.6" fill="#f78166" font-size="11" font-weight="600" font-family="-apple-system,BlinkMacSystemFont,Segoe UI,Helvetica,Arial,sans-serif">54</text>
  <circle cx="880.0" cy="161.8" r="3.5" fill="#f85149"/>
  <text x="889.0" y="165.8" fill="#f85149" font-size="11" font-weight="600" font-family="-apple-system,BlinkMacSystemFont,Segoe UI,Helvetica,Arial,sans-serif">94</text>
  <line x1="55" y1="368" x2="71" y2="368" stroke="#3fb950" stroke-width="2.5" stroke-linecap="round"/>
  <text x="77" y="372" fill="#8b949e" font-size="11" font-family="-apple-system,BlinkMacSystemFont,Segoe UI,Helvetica,Arial,sans-serif">Repos</text>
  <line x1="255" y1="368" x2="271" y2="368" stroke="#58a6ff" stroke-width="2.5" stroke-linecap="round"/>
  <text x="277" y="372" fill="#8b949e" font-size="11" font-family="-apple-system,BlinkMacSystemFont,Segoe UI,Helvetica,Arial,sans-serif">PRs Opened</text>
  <line x1="455" y1="368" x2="471" y2="368" stroke="#d2a8ff" stroke-width="2.5" stroke-linecap="round"/>
  <text x="477" y="372" fill="#8b949e" font-size="11" font-family="-apple-system,BlinkMacSystemFont,Segoe UI,Helvetica,Arial,sans-serif">Open PRs</text>
  <line x1="55" y1="386" x2="71" y2="386" stroke="#f78166" stroke-width="2.5" stroke-linecap="round"/>
  <text x="77" y="390" fill="#8b949e" font-size="11" font-family="-apple-system,BlinkMacSystemFont,Segoe UI,Helvetica,Arial,sans-serif">Merged</text>
  <line x1="255" y1="386" x2="271" y2="386" stroke="#f85149" stroke-width="2.5" stroke-linecap="round"/>
  <text x="277" y="390" fill="#8b949e" font-size="11" font-family="-apple-system,BlinkMacSystemFont,Segoe UI,Helvetica,Arial,sans-serif">Closed</text>
</svg>