<svg xmlns="http://www.w3.org/2000/svg" viewBox="0 0 960 400" width="960" height="400">
  <defs>
    <linearGradient id="gR" x1="0" y1="0" x2="0" y2="1">
      <stop offset="0%" stop-color="#3fb950" stop-opacity="0.25"/>
      <stop offset="100%" stop-color="#3fb950" stop-opacity="0.02"/>
    </linearGradient>
    <linearGradient id="gO" x1="0" y1="0" x2="0" y2="1">
      <stop offset="0%" stop-color="#58a6ff" stop-opacity="0.25"/>
      <stop offset="100%" stop-color="#58a6ff" stop-opacity="0.02"/>
    </linearGradient>
    <linearGradient id="gOp" x1="0" y1="0" x2="0" y2="1">
      <stop offset="0%" stop-color="#d2a8ff" stop-opacity="0.25"/>
      <stop offset="100%" stop-color="#d2a8ff" stop-opacity="0.02"/>
    </linearGradient>
    <linearGradient id="gM" x1="0" y1="0" x2="0" y2="1">
      <stop offset="0%" stop-color="#f78166" stop-opacity="0.25"/>
      <stop offset="100%" stop-color="#f78166" stop-opacity="0.02"/>
    </linearGradient>
    <linearGradient id="gC" x1="0" y1="0" x2="0" y2="1">
      <stop offset="0%" stop-color="#f85149" stop-opacity="0.25"/>
      <stop offset="100%" stop-color="#f85149" stop-opacity="0.02"/>
    </linearGradient>
  </defs>
  <rect width="960" height="400" rx="12" fill="#0d1117"/>
  <rect width="960" height="400" rx="12" fill="none" stroke="#30363d" stroke-width="1"/>
  <text x="55" y="30" fill="#e6edf3" font-size="15" font-weight="600" font-family="-apple-system,BlinkMacSystemFont,Segoe UI,Helvetica,Arial,sans-serif">GitHub Activity — jlaportebot</text>
  <text x="880" y="30" fill="#8b949e" font-size="11" text-anchor="end" font-family="-apple-system,BlinkMacSystemFont,Segoe UI,Helvetica,Arial,sans-serif">Updated Jun 12, 2026</text>
  <line x1="55" y1="340.0" x2="880" y2="340.0" stroke="#21262d" stroke-width="1"/>
  <text x="47" y="344.0" fill="#8b949e" font-size="11" text-anchor="end" font-family="-apple-system,BlinkMacSystemFont,Segoe UI,Helvetica,Arial,sans-serif">0</text>
  <line x1="55" y1="321.5" x2="880" y2="321.5" stroke="#21262d" stroke-width="1"/>
  <text x="47" y="325.5" fill="#8b949e" font-size="11" text-anchor="end" font-family="-apple-system,BlinkMacSystemFont,Segoe UI,Helvetica,Arial,sans-serif">10</text>
  <line x1="55" y1="303.1" x2="880" y2="303.1" stroke="#21262d" stroke-width="1"/>
  <text x="47" y="307.1" fill="#8b949e" font-size="11" text-anchor="end" font-family="-apple-system,BlinkMacSystemFont,Segoe UI,Helvetica,Arial,sans-serif">20</text>
  <line x1="55" y1="284.6" x2="880" y2="284.6" stroke="#21262d" stroke-width="1"/>
  <text x="47" y="288.6" fill="#8b949e" font-size="11" text-anchor="end" font-family="-apple-system,BlinkMacSystemFont,Segoe UI,Helvetica,Arial,sans-serif">30</text>
  <line x1="55" y1="266.1" x2="880" y2="266.1" stroke="#21262d" stroke-width="1"/>
  <text x="47" y="270.1" fill="#8b949e" font-size="11" text-anchor="end" font-family="-apple-system,BlinkMacSystemFont,Segoe UI,Helvetica,Arial,sans-serif">40</text>
  <line x1="55" y1="247.6" x2="880" y2="247.6" stroke="#21262d" stroke-width="1"/>
  <text x="47" y="251.6" fill="#8b949e" font-size="11" text-anchor="end" font-family="-apple-system,BlinkMacSystemFont,Segoe UI,Helvetica,Arial,sans-serif">50</text>
  <line x1="55" y1="229.2" x2="880" y2="229.2" stroke="#21262d" stroke-width="1"/>
  <text x="47" y="233.2" fill="#8b949e" font-size="11" text-anchor="end" font-family="-apple-system,BlinkMacSystemFont,Segoe UI,Helvetica,Arial,sans-serif">60</text>
  <line x1="55" y1="210.7" x2="880" y2="210.7" stroke="#21262d" stroke-width="1"/>
  <text x="47" y="214.7" fill="#8b949e" font-size="11" text-anchor="end" font-family="-apple-system,BlinkMacSystemFont,Segoe UI,Helvetica,Arial,sans-serif">70</text>
  <line x1="55" y1="192.2" x2="880" y2="192.2" stroke="#21262d" stroke-width="1"/>
  <text x="47" y="196.2" fill="#8b949e" font-size="11" text-anchor="end" font-family="-apple-system,BlinkMacSystemFont,Segoe UI,Helvetica,Arial,sans-serif">80</text>
  <line x1="55" y1="173.8" x2="880" y2="173.8" stroke="#21262d" stroke-width="1"/>
  <text x="47" y="177.8" fill="#8b949e" font-size="11" text-anchor="end" font-family="-apple-system,BlinkMacSystemFont,Segoe UI,Helvetica,Arial,sans-serif">90</text>
  <line x1="55" y1="155.3" x2="880" y2="155.3" stroke="#21262d" stroke-width="1"/>
  <text x="47" y="159.3" fill="#8b949e" font-size="11" text-anchor="end" font-family="-apple-system,BlinkMacSystemFont,Segoe UI,Helvetica,Arial,sans-serif">100</text>
  <line x1="55" y1="136.8" x2="880" y2="136.8" stroke="#21262d" stroke-width="1"/>
  <text x="47" y="140.8" fill="#8b949e" font-size="11" text-anchor="end" font-family="-apple-system,BlinkMacSystemFont,Segoe UI,Helvetica,Arial,sans-serif">110</text>
  <line x1="55" y1="118.3" x2="880" y2="118.3" stroke="#21262d" stroke-width="1"/>
  <text x="47" y="122.3" fill="#8b949e" font-size="11" text-anchor="end" font-family="-apple-system,BlinkMacSystemFont,Segoe UI,Helvetica,Arial,sans-serif">120</text>
  <line x1="55" y1="99.9" x2="880" y2="99.9" stroke="#21262d" stroke-width="1"/>
  <text x="47" y="103.9" fill="#8b949e" font-size="11" text-anchor="end" font-family="-apple-system,BlinkMacSystemFont,Segoe UI,Helvetica,Arial,sans-serif">130</text>
  <line x1="55" y1="81.4" x2="880" y2="81.4" stroke="#21262d" stroke-width="1"/>
  <text x="47" y="85.4" fill="#8b949e" font-size="11" text-anchor="end" font-family="-apple-system,BlinkMacSystemFont,Segoe UI,Helvetica,Arial,sans-serif">140</text>
  <line x1="55" y1="62.9" x2="880" y2="62.9" stroke="#21262d" stroke-width="1"/>
  <text x="47" y="66.9" fill="#8b949e" font-size="11" text-anchor="end" font-family="-apple-system,BlinkMacSystemFont,Segoe UI,Helvetica,Arial,sans-serif">150</text>
  <line x1="55.0" y1="50" x2="55.0" y2="340" stroke="#21262d" stroke-width="1" stroke-dasharray="4,4"/>
  <text x="55.0" y="360" fill="#8b949e" font-size="10" text-anchor="middle" font-family="-apple-system,BlinkMacSystemFont,Segoe UI,Helvetica,Arial,sans-serif">May 02</text>
  <line x1="172.9" y1="50" x2="172.9" y2="340" stroke="#21262d" stroke-width="1" stroke-dasharray="4,4"/>
  <text x="172.9" y="360" fill="#8b949e" font-size="10" text-anchor="middle" font-family="-apple-system,BlinkMacSystemFont,Segoe UI,Helvetica,Arial,sans-serif">May 08</text>
  <line x1="290.7" y1="50" x2="290.7" y2="340" stroke="#21262d" stroke-width="1" stroke-dasharray="4,4"/>
  <text x="290.7" y="360" fill="#8b949e" font-size="10" text-anchor="middle" font-family="-apple-system,BlinkMacSystemFont,Segoe UI,Helvetica,Arial,sans-serif">May 14</text>
  <line x1="408.6" y1="50" x2="408.6" y2="340" stroke="#21262d" stroke-width="1" stroke-dasharray="4,4"/>
  <text x="408.6" y="360" fill="#8b949e" font-size="10" text-anchor="middle" font-family="-apple-system,BlinkMacSystemFont,Segoe UI,Helvetica,Arial,sans-serif">May 20</text>
  <line x1="526.4" y1="50" x2="526.4" y2="340" stroke="#21262d" stroke-width="1" stroke-dasharray="4,4"/>
  <text x="526.4" y="360" fill="#8b949e" font-size="10" text-anchor="middle" font-family="-apple-system,BlinkMacSystemFont,Segoe UI,Helvetica,Arial,sans-serif">May 26</text>
  <line x1="644.3" y1="50" x2="644.3" y2="340" stroke="#21262d" stroke-width="1" stroke-dasharray="4,4"/>
  <text x="644.3" y="360" fill="#8b949e" font-size="10" text-anchor="middle" font-family="-apple-system,BlinkMacSystemFont,Segoe UI,Helvetica,Arial,sans-serif">Jun 01</text>
  <line x1="762.1" y1="50" x2="762.1" y2="340" stroke="#21262d" stroke-width="1" stroke-dasharray="4,4"/>
  <text x="762.1" y="360" fill="#8b949e" font-size="10" text-anchor="middle" font-family="-apple-system,BlinkMacSystemFont,Segoe UI,Helvetica,Arial,sans-serif">Jun 07</text>
  <line x1="880.0" y1="50" x2="880.0" y2="340" stroke="#21262d" stroke-width="1" stroke-dasharray="4,4"/>
  <text x="880.0" y="360" fill="#8b949e" font-size="10" text-anchor="middle" font-family="-apple-system,BlinkMacSystemFont,Segoe UI,Helvetica,Arial,sans-serif">Jun 13</text>
  <path d="M55.0,340.0L74.6,317.8L94.3,304.9L113.9,297.5L133.6,286.4L153.2,279.0L172.9,273.5L192.5,273.5L212.1,273.5L231.8,273.5L251.4,273.5L271.1,273.5L290.7,273.5L310.4,273.5L330.0,271.7L349.6,264.3L369.3,256.9L388.9,247.6L408.6,236.6L428.2,225.5L447.9,214.4L467.5,205.2L487.1,197.8L506.8,194.1L526.4,188.5L546.1,168.2L565.7,166.4L585.4,157.1L605.0,144.2L624.6,135.0L644.3,127.6L663.9,127.6L683.6,127.6L703.2,127.6L722.9,127.6L742.5,127.6L762.1,116.5L781.8,101.7L801.4,96.2L821.1,85.1L840.7,77.7L860.4,66.6L880.0,59.2L880.0,340.0L55.0,340.0Z" fill="url(#gO)"/>
  <path d="M55.0,338.2L74.6,338.2L94.3,338.2L113.9,338.2L133.6,338.2L153.2,338.2L172.9,338.2L192.5,338.2L212.1,338.2L231.8,338.2L251.4,338.2L271.1,338.2L290.7,338.2L310.4,338.2L330.0,338.2L349.6,332.6L369.3,332.6L388.9,332.6L408.6,332.6L428.2,332.6L447.9,332.6L467.5,332.6L487.1,330.8L506.8,325.2L526.4,325.2L546.1,323.4L565.7,323.4L585.4,323.4L605.0,323.4L624.6,323.4L644.3,319.7L663.9,319.7L683.6,319.7L703.2,319.7L722.9,319.7L742.5,319.7L762.1,319.7L781.8,316.0L801.4,293.8L821.1,293.8L840.7,293.8L860.4,293.8L880.0,282.7L880.0,340.0L55.0,340.0Z" fill="url(#gR)"/>
  <path d="M55.0,340.0L74.6,317.8L94.3,304.9L113.9,297.5L133.6,286.4L153.2,279.0L172.9,273.5L192.5,273.5L212.1,273.5L231.8,273.5L251.4,273.5L271.1,273.5L290.7,273.5L310.4,273.5L330.0,271.7L349.6,264.3L369.3,256.9L388.9,247.6L408.6,236.6L428.2,225.5L447.9,214.4L467.5,205.2L487.1,197.8L506.8,194.1L526.4,188.5L546.1,168.2L565.7,166.4L585.4,157.1L605.0,144.2L624.6,135.0L644.3,127.6L663.9,127.6L683.6,127.6L703.2,127.6L722.9,127.6L742.5,127.6L762.1,116.5L781.8,101.7L801.4,96.2L821.1,85.1L840.7,77.7L860.4,66.6L880.0,59.2" fill="none" stroke="#58a6ff" stroke-width="2.5" stroke-linecap="round" stroke-linejoin="round"/>
  <path d="M55.0,338.2L74.6,338.2L94.3,338.2L113.9,338.2L133.6,338.2L153.2,338.2L172.9,338.2L192.5,338.2L212.1,338.2L231.8,338.2L251.4,338.2L271.1,338.2L290.7,338.2L310.4,338.2L330.0,338.2L349.6,332.6L369.3,332.6L388.9,332.6L408.6,332.6L428.2,332.6L447.9,332.6L467.5,332.6L487.1,330.8L506.8,325.2L526.4,325.2L546.1,323.4L565.7,323.4L585.4,323.4L605.0,323.4L624.6,323.4L644.3,319.7L663.9,319.7L683.6,319.7L703.2,319.7L722.9,319.7L742.5,319.7L762.1,319.7L781.8,316.0L801.4,293.8L821.1,293.8L840.7,293.8L860.4,293.8L880.0,282.7" fill="none" stroke="#3fb950" stroke-width="2.5" stroke-linecap="round" stroke-linejoin="round"/>
  <path d="M55.0,340.0L74.6,327.1L94.3,317.8L113.9,314.1L133.6,304.9L153.2,306.8L172.9,301.2L192.5,303.1L212.1,303.1L231.8,304.9L251.4,304.9L271.1,304.9L290.7,304.9L310.4,304.9L330.0,303.1L349.6,301.2L369.3,299.4L388.9,293.8L408.6,282.7L428.2,275.4L447.9,268.0L467.5,262.4L487.1,262.4L506.8,264.3L526.4,268.0L546.1,260.6L565.7,258.7L585.4,258.7L605.0,253.2L624.6,262.4L644.3,256.9L663.9,256.9L683.6,256.9L703.2,256.9L722.9,268.0L742.5,268.0L762.1,266.1L781.8,275.4L801.4,340.0L821.1,340.0L840.7,340.0L860.4,340.0L880.0,334.5" fill="none" stroke="#d2a8ff" stroke-width="2.5" stroke-linecap="round" stroke-linejoin="round"/>
  <path d="M55.0,340.0L74.6,340.0L94.3,338.2L113.9,336.3L133.6,336.3L153.2,334.5L172.9,334.5L192.5,332.6L212.1,332.6L231.8,332.6L251.4,332.6L271.1,332.6L290.7,332.6L310.4,332.6L330.0,332.6L349.6,330.8L369.3,327.1L388.9,325.2L408.6,325.2L428.2,325.2L447.9,321.5L467.5,321.5L487.1,321.5L506.8,319.7L526.4,319.7L546.1,308.6L565.7,308.6L585.4,301.2L605.0,295.7L624.6,288.3L644.3,286.4L663.9,286.4L683.6,286.4L703.2,286.4L722.9,282.7L742.5,282.7L762.1,279.0L781.8,273.5L801.4,269.8L821.1,258.7L840.7,251.3L860.4,240.3L880.0,240.3" fill="none" stroke="#f78166" stroke-width="2.5" stroke-linecap="round" stroke-linejoin="round"/>
  <path d="M55.0,340.0L74.6,330.8L94.3,328.9L113.9,327.1L133.6,325.2L153.2,317.8L172.9,317.8L192.5,317.8L212.1,317.8L231.8,316.0L251.4,316.0L271.1,316.0L290.7,316.0L310.4,316.0L330.0,316.0L349.6,312.3L369.3,310.4L388.9,308.6L408.6,308.6L428.2,304.9L447.9,304.9L467.5,301.2L487.1,293.8L506.8,290.1L526.4,280.9L546.1,279.0L565.7,279.0L585.4,277.2L605.0,275.4L624.6,264.3L644.3,264.3L663.9,264.3L683.6,264.3L703.2,264.3L722.9,256.9L742.5,256.9L762.1,251.3L781.8,232.9L801.4,166.4L821.1,166.4L840.7,166.4L860.4,166.4L880.0,164.5" fill="none" stroke="#f85149" stroke-width="2.5" stroke-linecap="round" stroke-linejoin="round"/>
  <circle cx="880.0" cy="59.2" r="3.5" fill="#58a6ff"/>
  <text x="889.0" y="63.2" fill="#58a6ff" font-size="11" font-weight="600" font-family="-apple-system,BlinkMacSystemFont,Segoe UI,Helvetica,Arial,sans-serif">152</text>
  <circle cx="880.0" cy="282.7" r="3.5" fill="#3fb950"/>
  <text x="889.0" y="286.7" fill="#3fb950" font-size="11" font-weight="600" font-family="-apple-system,BlinkMacSystemFont,Segoe UI,Helvetica,Arial,sans-serif">31</text>
  <circle cx="880.0" cy="334.5" r="3.5" fill="#d2a8ff"/>
  <text x="889.0" y="338.5" fill="#d2a8ff" font-size="11" font-weight="600" font-family="-apple-system,BlinkMacSystemFont,Segoe UI,Helvetica,Arial,sans-serif">3</text>
  <circle cx="880.0" cy="240.3" r="3.5" fill="#f78166"/>
  <text x="889.0" y="244.3" fill="#f78166" font-size="11" font-weight="600" font-family="-apple-system,BlinkMacSystemFont,Segoe UI,Helvetica,Arial,sans-serif">54</text>
  <circle cx="880.0" cy="164.5" r="3.5" fill="#f85149"/>
  <text x="889.0" y="168.5" fill="#f85149" font-size="11" font-weight="600" font-family="-apple-system,BlinkMacSystemFont,Segoe UI,Helvetica,Arial,sans-serif">95</text>
  <line x1="55" y1="368" x2="71" y2="368" stroke="#3fb950" stroke-width="2.5" stroke-linecap="round"/>
  <text x="77" y="372" fill="#8b949e" font-size="11" font-family="-apple-system,BlinkMacSystemFont,Segoe UI,Helvetica,Arial,sans-serif">Repos</text>
  <line x1="255" y1="368" x2="271" y2="368" stroke="#58a6ff" stroke-width="2.5" stroke-linecap="round"/>
  <text x="277" y="372" fill="#8b949e" font-size="11" font-family="-apple-system,BlinkMacSystemFont,Segoe UI,Helvetica,Arial,sans-serif">PRs Opened</text>
  <line x1="455" y1="368" x2="471" y2="368" stroke="#d2a8ff" stroke-width="2.5" stroke-linecap="round"/>
  <text x="477" y="372" fill="#8b949e" font-size="11" font-family="-apple-system,BlinkMacSystemFont,Segoe UI,Helvetica,Arial,sans-serif">Open PRs</text>
  <line x1="55" y1="386" x2="71" y2="386" stroke="#f78166" stroke-width="2.5" stroke-linecap="round"/>
  <text x="77" y="390" fill="#8b949e" font-size="11" font-family="-apple-system,BlinkMacSystemFont,Segoe UI,Helvetica,Arial,sans-serif">Merged</text>
  <line x1="255" y1="386" x2="271" y2="386" stroke="#f85149" stroke-width="2.5" stroke-linecap="round"/>
  <text x="277" y="390" fill="#8b949e" font-size="11" font-family="-apple-system,BlinkMacSystemFont,Segoe UI,Helvetica,Arial,sans-serif">Closed</text>
</svg>