<svg xmlns="http://www.w3.org/2000/svg" viewBox="0 0 960 400" width="960" height="400">
  <defs>
    <linearGradient id="gR" x1="0" y1="0" x2="0" y2="1">
      <stop offset="0%" stop-color="#f78166" stop-opacity="0.25"/>
      <stop offset="100%" stop-color="#f78166" stop-opacity="0.02"/>
    </linearGradient>
    <linearGradient id="gO" x1="0" y1="0" x2="0" y2="1">
      <stop offset="0%" stop-color="#58a6ff" stop-opacity="0.25"/>
      <stop offset="100%" stop-color="#58a6ff" stop-opacity="0.02"/>
    </linearGradient>
    <linearGradient id="gOp" x1="0" y1="0" x2="0" y2="1">
      <stop offset="0%" stop-color="#3fb950" stop-opacity="0.25"/>
      <stop offset="100%" stop-color="#3fb950" stop-opacity="0.02"/>
    </linearGradient>
    <linearGradient id="gM" x1="0" y1="0" x2="0" y2="1">
      <stop offset="0%" stop-color="#d2a8ff" stop-opacity="0.25"/>
      <stop offset="100%" stop-color="#d2a8ff" stop-opacity="0.02"/>
    </linearGradient>
    <linearGradient id="gC" x1="0" y1="0" x2="0" y2="1">
      <stop offset="0%" stop-color="#f85149" stop-opacity="0.25"/>
      <stop offset="100%" stop-color="#f85149" stop-opacity="0.02"/>
    </linearGradient>
  </defs>
  <rect width="960" height="400" rx="12" fill="#0d1117"/>
  <rect width="960" height="400" rx="12" fill="none" stroke="#30363d" stroke-width="1"/>
  <text x="55" y="30" fill="#e6edf3" font-size="15" font-weight="600" font-family="-apple-system,BlinkMacSystemFont,Segoe UI,Helvetica,Arial,sans-serif">GitHub Activity — jlaportebot</text>
  <text x="880" y="30" fill="#8b949e" font-size="11" text-anchor="end" font-family="-apple-system,BlinkMacSystemFont,Segoe UI,Helvetica,Arial,sans-serif">Updated Jun 19, 2026</text>
  <line x1="55" y1="340.0" x2="880" y2="340.0" stroke="#21262d" stroke-width="1"/>
  <text x="47" y="344.0" fill="#8b949e" font-size="11" text-anchor="end" font-family="-apple-system,BlinkMacSystemFont,Segoe UI,Helvetica,Arial,sans-serif">0</text>
  <line x1="55" y1="325.2" x2="880" y2="325.2" stroke="#21262d" stroke-width="1"/>
  <text x="47" y="329.2" fill="#8b949e" font-size="11" text-anchor="end" font-family="-apple-system,BlinkMacSystemFont,Segoe UI,Helvetica,Arial,sans-serif">10</text>
  <line x1="55" y1="310.4" x2="880" y2="310.4" stroke="#21262d" stroke-width="1"/>
  <text x="47" y="314.4" fill="#8b949e" font-size="11" text-anchor="end" font-family="-apple-system,BlinkMacSystemFont,Segoe UI,Helvetica,Arial,sans-serif">20</text>
  <line x1="55" y1="295.6" x2="880" y2="295.6" stroke="#21262d" stroke-width="1"/>
  <text x="47" y="299.6" fill="#8b949e" font-size="11" text-anchor="end" font-family="-apple-system,BlinkMacSystemFont,Segoe UI,Helvetica,Arial,sans-serif">30</text>
  <line x1="55" y1="280.8" x2="880" y2="280.8" stroke="#21262d" stroke-width="1"/>
  <text x="47" y="284.8" fill="#8b949e" font-size="11" text-anchor="end" font-family="-apple-system,BlinkMacSystemFont,Segoe UI,Helvetica,Arial,sans-serif">40</text>
  <line x1="55" y1="266.0" x2="880" y2="266.0" stroke="#21262d" stroke-width="1"/>
  <text x="47" y="270.0" fill="#8b949e" font-size="11" text-anchor="end" font-family="-apple-system,BlinkMacSystemFont,Segoe UI,Helvetica,Arial,sans-serif">50</text>
  <line x1="55" y1="251.2" x2="880" y2="251.2" stroke="#21262d" stroke-width="1"/>
  <text x="47" y="255.2" fill="#8b949e" font-size="11" text-anchor="end" font-family="-apple-system,BlinkMacSystemFont,Segoe UI,Helvetica,Arial,sans-serif">60</text>
  <line x1="55" y1="236.4" x2="880" y2="236.4" stroke="#21262d" stroke-width="1"/>
  <text x="47" y="240.4" fill="#8b949e" font-size="11" text-anchor="end" font-family="-apple-system,BlinkMacSystemFont,Segoe UI,Helvetica,Arial,sans-serif">70</text>
  <line x1="55" y1="221.6" x2="880" y2="221.6" stroke="#21262d" stroke-width="1"/>
  <text x="47" y="225.6" fill="#8b949e" font-size="11" text-anchor="end" font-family="-apple-system,BlinkMacSystemFont,Segoe UI,Helvetica,Arial,sans-serif">80</text>
  <line x1="55" y1="206.8" x2="880" y2="206.8" stroke="#21262d" stroke-width="1"/>
  <text x="47" y="210.8" fill="#8b949e" font-size="11" text-anchor="end" font-family="-apple-system,BlinkMacSystemFont,Segoe UI,Helvetica,Arial,sans-serif">90</text>
  <line x1="55" y1="192.0" x2="880" y2="192.0" stroke="#21262d" stroke-width="1"/>
  <text x="47" y="196.0" fill="#8b949e" font-size="11" text-anchor="end" font-family="-apple-system,BlinkMacSystemFont,Segoe UI,Helvetica,Arial,sans-serif">100</text>
  <line x1="55" y1="177.2" x2="880" y2="177.2" stroke="#21262d" stroke-width="1"/>
  <text x="47" y="181.2" fill="#8b949e" font-size="11" text-anchor="end" font-family="-apple-system,BlinkMacSystemFont,Segoe UI,Helvetica,Arial,sans-serif">110</text>
  <line x1="55" y1="162.4" x2="880" y2="162.4" stroke="#21262d" stroke-width="1"/>
  <text x="47" y="166.4" fill="#8b949e" font-size="11" text-anchor="end" font-family="-apple-system,BlinkMacSystemFont,Segoe UI,Helvetica,Arial,sans-serif">120</text>
  <line x1="55" y1="147.7" x2="880" y2="147.7" stroke="#21262d" stroke-width="1"/>
  <text x="47" y="151.7" fill="#8b949e" font-size="11" text-anchor="end" font-family="-apple-system,BlinkMacSystemFont,Segoe UI,Helvetica,Arial,sans-serif">130</text>
  <line x1="55" y1="132.9" x2="880" y2="132.9" stroke="#21262d" stroke-width="1"/>
  <text x="47" y="136.9" fill="#8b949e" font-size="11" text-anchor="end" font-family="-apple-system,BlinkMacSystemFont,Segoe UI,Helvetica,Arial,sans-serif">140</text>
  <line x1="55" y1="118.1" x2="880" y2="118.1" stroke="#21262d" stroke-width="1"/>
  <text x="47" y="122.1" fill="#8b949e" font-size="11" text-anchor="end" font-family="-apple-system,BlinkMacSystemFont,Segoe UI,Helvetica,Arial,sans-serif">150</text>
  <line x1="55" y1="103.3" x2="880" y2="103.3" stroke="#21262d" stroke-width="1"/>
  <text x="47" y="107.3" fill="#8b949e" font-size="11" text-anchor="end" font-family="-apple-system,BlinkMacSystemFont,Segoe UI,Helvetica,Arial,sans-serif">160</text>
  <line x1="55" y1="88.5" x2="880" y2="88.5" stroke="#21262d" stroke-width="1"/>
  <text x="47" y="92.5" fill="#8b949e" font-size="11" text-anchor="end" font-family="-apple-system,BlinkMacSystemFont,Segoe UI,Helvetica,Arial,sans-serif">170</text>
  <line x1="55" y1="73.7" x2="880" y2="73.7" stroke="#21262d" stroke-width="1"/>
  <text x="47" y="77.7" fill="#8b949e" font-size="11" text-anchor="end" font-family="-apple-system,BlinkMacSystemFont,Segoe UI,Helvetica,Arial,sans-serif">180</text>
  <line x1="55" y1="58.9" x2="880" y2="58.9" stroke="#21262d" stroke-width="1"/>
  <text x="47" y="62.9" fill="#8b949e" font-size="11" text-anchor="end" font-family="-apple-system,BlinkMacSystemFont,Segoe UI,Helvetica,Arial,sans-serif">190</text>
  <line x1="55.0" y1="50" x2="55.0" y2="340" stroke="#21262d" stroke-width="1" stroke-dasharray="4,4"/>
  <text x="55.0" y="360" fill="#8b949e" font-size="10" text-anchor="middle" font-family="-apple-system,BlinkMacSystemFont,Segoe UI,Helvetica,Arial,sans-serif">May 02</text>
  <line x1="175.3" y1="50" x2="175.3" y2="340" stroke="#21262d" stroke-width="1" stroke-dasharray="4,4"/>
  <text x="175.3" y="360" fill="#8b949e" font-size="10" text-anchor="middle" font-family="-apple-system,BlinkMacSystemFont,Segoe UI,Helvetica,Arial,sans-serif">May 09</text>
  <line x1="295.6" y1="50" x2="295.6" y2="340" stroke="#21262d" stroke-width="1" stroke-dasharray="4,4"/>
  <text x="295.6" y="360" fill="#8b949e" font-size="10" text-anchor="middle" font-family="-apple-system,BlinkMacSystemFont,Segoe UI,Helvetica,Arial,sans-serif">May 16</text>
  <line x1="415.9" y1="50" x2="415.9" y2="340" stroke="#21262d" stroke-width="1" stroke-dasharray="4,4"/>
  <text x="415.9" y="360" fill="#8b949e" font-size="10" text-anchor="middle" font-family="-apple-system,BlinkMacSystemFont,Segoe UI,Helvetica,Arial,sans-serif">May 23</text>
  <line x1="536.2" y1="50" x2="536.2" y2="340" stroke="#21262d" stroke-width="1" stroke-dasharray="4,4"/>
  <text x="536.2" y="360" fill="#8b949e" font-size="10" text-anchor="middle" font-family="-apple-system,BlinkMacSystemFont,Segoe UI,Helvetica,Arial,sans-serif">May 30</text>
  <line x1="656.6" y1="50" x2="656.6" y2="340" stroke="#21262d" stroke-width="1" stroke-dasharray="4,4"/>
  <text x="656.6" y="360" fill="#8b949e" font-size="10" text-anchor="middle" font-family="-apple-system,BlinkMacSystemFont,Segoe UI,Helvetica,Arial,sans-serif">Jun 06</text>
  <line x1="776.9" y1="50" x2="776.9" y2="340" stroke="#21262d" stroke-width="1" stroke-dasharray="4,4"/>
  <text x="776.9" y="360" fill="#8b949e" font-size="10" text-anchor="middle" font-family="-apple-system,BlinkMacSystemFont,Segoe UI,Helvetica,Arial,sans-serif">Jun 13</text>
  <line x1="880.0" y1="50" x2="880.0" y2="340" stroke="#21262d" stroke-width="1" stroke-dasharray="4,4"/>
  <text x="880.0" y="360" fill="#8b949e" font-size="10" text-anchor="middle" font-family="-apple-system,BlinkMacSystemFont,Segoe UI,Helvetica,Arial,sans-serif">Jun 19</text>
  <path d="M55.0,340.0L72.2,322.2L89.4,311.9L106.6,306.0L123.8,297.1L140.9,291.2L158.1,286.7L175.3,286.7L192.5,286.7L209.7,286.7L226.9,286.7L244.1,286.7L261.2,286.7L278.4,286.7L295.6,285.3L312.8,279.3L330.0,273.4L347.2,266.0L364.4,257.1L381.6,248.3L398.8,239.4L415.9,232.0L433.1,226.1L450.3,223.1L467.5,218.7L484.7,202.4L501.9,200.9L519.1,193.5L536.2,183.2L553.4,175.8L570.6,169.8L587.8,169.8L605.0,169.8L622.2,169.8L639.4,169.8L656.6,169.8L673.8,161.0L690.9,149.1L708.1,144.7L725.3,135.8L742.5,129.9L759.7,121.0L776.9,107.7L794.1,100.3L811.2,92.9L828.4,85.5L845.6,72.2L862.8,63.3L880.0,57.4L880.0,340.0L55.0,340.0Z" fill="url(#gO)"/>
  <path d="M55.0,338.5L72.2,338.5L89.4,338.5L106.6,338.5L123.8,338.5L140.9,338.5L158.1,338.5L175.3,338.5L192.5,338.5L209.7,338.5L226.9,338.5L244.1,338.5L261.2,338.5L278.4,338.5L295.6,338.5L312.8,334.1L330.0,334.1L347.2,334.1L364.4,334.1L381.6,334.1L398.8,334.1L415.9,334.1L433.1,332.6L450.3,328.2L467.5,328.2L484.7,326.7L501.9,326.7L519.1,326.7L536.2,326.7L553.4,326.7L570.6,323.7L587.8,323.7L605.0,323.7L622.2,323.7L639.4,323.7L656.6,323.7L673.8,323.7L690.9,320.8L708.1,303.0L725.3,303.0L742.5,303.0L759.7,303.0L776.9,291.2L794.1,291.2L811.2,291.2L828.4,291.2L845.6,291.2L862.8,288.2L880.0,288.2L880.0,340.0L55.0,340.0Z" fill="url(#gR)"/>
  <path d="M55.0,340.0L72.2,322.2L89.4,311.9L106.6,306.0L123.8,297.1L140.9,291.2L158.1,286.7L175.3,286.7L192.5,286.7L209.7,286.7L226.9,286.7L244.1,286.7L261.2,286.7L278.4,286.7L295.6,285.3L312.8,279.3L330.0,273.4L347.2,266.0L364.4,257.1L381.6,248.3L398.8,239.4L415.9,232.0L433.1,226.1L450.3,223.1L467.5,218.7L484.7,202.4L501.9,200.9L519.1,193.5L536.2,183.2L553.4,175.8L570.6,169.8L587.8,169.8L605.0,169.8L622.2,169.8L639.4,169.8L656.6,169.8L673.8,161.0L690.9,149.1L708.1,144.7L725.3,135.8L742.5,129.9L759.7,121.0L776.9,107.7L794.1,100.3L811.2,92.9L828.4,85.5L845.6,72.2L862.8,63.3L880.0,57.4" fill="none" stroke="#58a6ff" stroke-width="2.5" stroke-linecap="round" stroke-linejoin="round"/>
  <path d="M55.0,338.5L72.2,338.5L89.4,338.5L106.6,338.5L123.8,338.5L140.9,338.5L158.1,338.5L175.3,338.5L192.5,338.5L209.7,338.5L226.9,338.5L244.1,338.5L261.2,338.5L278.4,338.5L295.6,338.5L312.8,334.1L330.0,334.1L347.2,334.1L364.4,334.1L381.6,334.1L398.8,334.1L415.9,334.1L433.1,332.6L450.3,328.2L467.5,328.2L484.7,326.7L501.9,326.7L519.1,326.7L536.2,326.7L553.4,326.7L570.6,323.7L587.8,323.7L605.0,323.7L622.2,323.7L639.4,323.7L656.6,323.7L673.8,323.7L690.9,320.8L708.1,303.0L725.3,303.0L742.5,303.0L759.7,303.0L776.9,291.2L794.1,291.2L811.2,291.2L828.4,291.2L845.6,291.2L862.8,288.2L880.0,288.2" fill="none" stroke="#f78166" stroke-width="2.5" stroke-linecap="round" stroke-linejoin="round"/>
  <path d="M55.0,340.0L72.2,329.6L89.4,322.2L106.6,319.3L123.8,311.9L140.9,313.4L158.1,308.9L175.3,310.4L192.5,310.4L209.7,311.9L226.9,311.9L244.1,311.9L261.2,311.9L278.4,311.9L295.6,310.4L312.8,308.9L330.0,307.4L347.2,303.0L364.4,294.1L381.6,288.2L398.8,282.3L415.9,277.9L433.1,277.9L450.3,279.3L467.5,282.3L484.7,276.4L501.9,274.9L519.1,274.9L536.2,270.5L553.4,277.9L570.6,273.4L587.8,273.4L605.0,273.4L622.2,273.4L639.4,282.3L656.6,282.3L673.8,280.8L690.9,288.2L708.1,340.0L725.3,340.0L742.5,340.0L759.7,340.0L776.9,334.1L794.1,334.1L811.2,331.1L828.4,331.1L845.6,329.6L862.8,325.2L880.0,328.2" fill="none" stroke="#3fb950" stroke-width="2.5" stroke-linecap="round" stroke-linejoin="round"/>
  <path d="M55.0,340.0L72.2,340.0L89.4,338.5L106.6,337.0L123.8,337.0L140.9,335.6L158.1,335.6L175.3,334.1L192.5,334.1L209.7,334.1L226.9,334.1L244.1,334.1L261.2,334.1L278.4,334.1L295.6,334.1L312.8,332.6L330.0,329.6L347.2,328.2L364.4,328.2L381.6,328.2L398.8,325.2L415.9,325.2L433.1,325.2L450.3,323.7L467.5,323.7L484.7,314.8L501.9,314.8L519.1,308.9L536.2,304.5L553.4,298.6L570.6,297.1L587.8,297.1L605.0,297.1L622.2,297.1L639.4,294.1L656.6,294.1L673.8,291.2L690.9,286.7L708.1,283.8L725.3,274.9L742.5,269.0L759.7,260.1L776.9,255.7L794.1,249.7L811.2,246.8L828.4,239.4L845.6,227.6L862.8,223.1L880.0,217.2" fill="none" stroke="#d2a8ff" stroke-width="2.5" stroke-linecap="round" stroke-linejoin="round"/>
  <path d="M55.0,340.0L72.2,332.6L89.4,331.1L106.6,329.6L123.8,328.2L140.9,322.2L158.1,322.2L175.3,322.2L192.5,322.2L209.7,320.8L226.9,320.8L244.1,320.8L261.2,320.8L278.4,320.8L295.6,320.8L312.8,317.8L330.0,316.3L347.2,314.8L364.4,314.8L381.6,311.9L398.8,311.9L415.9,308.9L433.1,303.0L450.3,300.1L467.5,292.7L484.7,291.2L501.9,291.2L519.1,289.7L536.2,288.2L553.4,279.3L570.6,279.3L587.8,279.3L605.0,279.3L622.2,279.3L639.4,273.4L656.6,273.4L673.8,269.0L690.9,254.2L708.1,200.9L725.3,200.9L742.5,200.9L759.7,200.9L776.9,198.0L794.1,196.5L811.2,195.0L828.4,195.0L845.6,195.0L862.8,195.0L880.0,192.0" fill="none" stroke="#f85149" stroke-width="2.5" stroke-linecap="round" stroke-linejoin="round"/>
  <circle cx="880.0" cy="57.4" r="3.5" fill="#58a6ff"/>
  <text x="889.0" y="61.4" fill="#58a6ff" font-size="11" font-weight="600" font-family="-apple-system,BlinkMacSystemFont,Segoe UI,Helvetica,Arial,sans-serif">191</text>
  <circle cx="880.0" cy="288.2" r="3.5" fill="#f78166"/>
  <text x="889.0" y="292.2" fill="#f78166" font-size="11" font-weight="600" font-family="-apple-system,BlinkMacSystemFont,Segoe UI,Helvetica,Arial,sans-serif">35</text>
  <circle cx="880.0" cy="328.2" r="3.5" fill="#3fb950"/>
  <text x="889.0" y="332.2" fill="#3fb950" font-size="11" font-weight="600" font-family="-apple-system,BlinkMacSystemFont,Segoe UI,Helvetica,Arial,sans-serif">8</text>
  <circle cx="880.0" cy="217.2" r="3.5" fill="#d2a8ff"/>
  <text x="889.0" y="221.2" fill="#d2a8ff" font-size="11" font-weight="600" font-family="-apple-system,BlinkMacSystemFont,Segoe UI,Helvetica,Arial,sans-serif">83</text>
  <circle cx="880.0" cy="192.0" r="3.5" fill="#f85149"/>
  <text x="889.0" y="196.0" fill="#f85149" font-size="11" font-weight="600" font-family="-apple-system,BlinkMacSystemFont,Segoe UI,Helvetica,Arial,sans-serif">100</text>
  <line x1="55" y1="368" x2="71" y2="368" stroke="#f78166" stroke-width="2.5" stroke-linecap="round"/>
  <text x="77" y="372" fill="#8b949e" font-size="11" font-family="-apple-system,BlinkMacSystemFont,Segoe UI,Helvetica,Arial,sans-serif">Repos</text>
  <line x1="255" y1="368" x2="271" y2="368" stroke="#58a6ff" stroke-width="2.5" stroke-linecap="round"/>
  <text x="277" y="372" fill="#8b949e" font-size="11" font-family="-apple-system,BlinkMacSystemFont,Segoe UI,Helvetica,Arial,sans-serif">PRs Opened</text>
  <line x1="455" y1="368" x2="471" y2="368" stroke="#3fb950" stroke-width="2.5" stroke-linecap="round"/>
  <text x="477" y="372" fill="#8b949e" font-size="11" font-family="-apple-system,BlinkMacSystemFont,Segoe UI,Helvetica,Arial,sans-serif">Open PRs</text>
  <line x1="55" y1="386" x2="71" y2="386" stroke="#d2a8ff" stroke-width="2.5" stroke-linecap="round"/>
  <text x="77" y="390" fill="#8b949e" font-size="11" font-family="-apple-system,BlinkMacSystemFont,Segoe UI,Helvetica,Arial,sans-serif">Merged</text>
  <line x1="255" y1="386" x2="271" y2="386" stroke="#f85149" stroke-width="2.5" stroke-linecap="round"/>
  <text x="277" y="390" fill="#8b949e" font-size="11" font-family="-apple-system,BlinkMacSystemFont,Segoe UI,Helvetica,Arial,sans-serif">Closed</text>
</svg>