<svg xmlns="http://www.w3.org/2000/svg" viewBox="0 0 960 400" width="960" height="400">
  <defs>
    <linearGradient id="gR" x1="0" y1="0" x2="0" y2="1">
      <stop offset="0%" stop-color="#f78166" stop-opacity="0.25"/>
      <stop offset="100%" stop-color="#f78166" stop-opacity="0.02"/>
    </linearGradient>
    <linearGradient id="gO" x1="0" y1="0" x2="0" y2="1">
      <stop offset="0%" stop-color="#58a6ff" stop-opacity="0.25"/>
      <stop offset="100%" stop-color="#58a6ff" stop-opacity="0.02"/>
    </linearGradient>
    <linearGradient id="gOp" x1="0" y1="0" x2="0" y2="1">
      <stop offset="0%" stop-color="#3fb950" stop-opacity="0.25"/>
      <stop offset="100%" stop-color="#3fb950" stop-opacity="0.02"/>
    </linearGradient>
    <linearGradient id="gM" x1="0" y1="0" x2="0" y2="1">
      <stop offset="0%" stop-color="#d2a8ff" stop-opacity="0.25"/>
      <stop offset="100%" stop-color="#d2a8ff" stop-opacity="0.02"/>
    </linearGradient>
    <linearGradient id="gC" x1="0" y1="0" x2="0" y2="1">
      <stop offset="0%" stop-color="#f85149" stop-opacity="0.25"/>
      <stop offset="100%" stop-color="#f85149" stop-opacity="0.02"/>
    </linearGradient>
  </defs>
  <rect width="960" height="400" rx="12" fill="#0d1117"/>
  <rect width="960" height="400" rx="12" fill="none" stroke="#30363d" stroke-width="1"/>
  <text x="55" y="30" fill="#e6edf3" font-size="15" font-weight="600" font-family="-apple-system,BlinkMacSystemFont,Segoe UI,Helvetica,Arial,sans-serif">GitHub Activity — jlaportebot</text>
  <text x="880" y="30" fill="#8b949e" font-size="11" text-anchor="end" font-family="-apple-system,BlinkMacSystemFont,Segoe UI,Helvetica,Arial,sans-serif">Updated Jun 22, 2026</text>
  <line x1="55" y1="340.0" x2="880" y2="340.0" stroke="#21262d" stroke-width="1"/>
  <text x="47" y="344.0" fill="#8b949e" font-size="11" text-anchor="end" font-family="-apple-system,BlinkMacSystemFont,Segoe UI,Helvetica,Arial,sans-serif">0</text>
  <line x1="55" y1="326.4" x2="880" y2="326.4" stroke="#21262d" stroke-width="1"/>
  <text x="47" y="330.4" fill="#8b949e" font-size="11" text-anchor="end" font-family="-apple-system,BlinkMacSystemFont,Segoe UI,Helvetica,Arial,sans-serif">10</text>
  <line x1="55" y1="312.8" x2="880" y2="312.8" stroke="#21262d" stroke-width="1"/>
  <text x="47" y="316.8" fill="#8b949e" font-size="11" text-anchor="end" font-family="-apple-system,BlinkMacSystemFont,Segoe UI,Helvetica,Arial,sans-serif">20</text>
  <line x1="55" y1="299.2" x2="880" y2="299.2" stroke="#21262d" stroke-width="1"/>
  <text x="47" y="303.2" fill="#8b949e" font-size="11" text-anchor="end" font-family="-apple-system,BlinkMacSystemFont,Segoe UI,Helvetica,Arial,sans-serif">30</text>
  <line x1="55" y1="285.5" x2="880" y2="285.5" stroke="#21262d" stroke-width="1"/>
  <text x="47" y="289.5" fill="#8b949e" font-size="11" text-anchor="end" font-family="-apple-system,BlinkMacSystemFont,Segoe UI,Helvetica,Arial,sans-serif">40</text>
  <line x1="55" y1="271.9" x2="880" y2="271.9" stroke="#21262d" stroke-width="1"/>
  <text x="47" y="275.9" fill="#8b949e" font-size="11" text-anchor="end" font-family="-apple-system,BlinkMacSystemFont,Segoe UI,Helvetica,Arial,sans-serif">50</text>
  <line x1="55" y1="258.3" x2="880" y2="258.3" stroke="#21262d" stroke-width="1"/>
  <text x="47" y="262.3" fill="#8b949e" font-size="11" text-anchor="end" font-family="-apple-system,BlinkMacSystemFont,Segoe UI,Helvetica,Arial,sans-serif">60</text>
  <line x1="55" y1="244.7" x2="880" y2="244.7" stroke="#21262d" stroke-width="1"/>
  <text x="47" y="248.7" fill="#8b949e" font-size="11" text-anchor="end" font-family="-apple-system,BlinkMacSystemFont,Segoe UI,Helvetica,Arial,sans-serif">70</text>
  <line x1="55" y1="231.1" x2="880" y2="231.1" stroke="#21262d" stroke-width="1"/>
  <text x="47" y="235.1" fill="#8b949e" font-size="11" text-anchor="end" font-family="-apple-system,BlinkMacSystemFont,Segoe UI,Helvetica,Arial,sans-serif">80</text>
  <line x1="55" y1="217.5" x2="880" y2="217.5" stroke="#21262d" stroke-width="1"/>
  <text x="47" y="221.5" fill="#8b949e" font-size="11" text-anchor="end" font-family="-apple-system,BlinkMacSystemFont,Segoe UI,Helvetica,Arial,sans-serif">90</text>
  <line x1="55" y1="203.8" x2="880" y2="203.8" stroke="#21262d" stroke-width="1"/>
  <text x="47" y="207.8" fill="#8b949e" font-size="11" text-anchor="end" font-family="-apple-system,BlinkMacSystemFont,Segoe UI,Helvetica,Arial,sans-serif">100</text>
  <line x1="55" y1="190.2" x2="880" y2="190.2" stroke="#21262d" stroke-width="1"/>
  <text x="47" y="194.2" fill="#8b949e" font-size="11" text-anchor="end" font-family="-apple-system,BlinkMacSystemFont,Segoe UI,Helvetica,Arial,sans-serif">110</text>
  <line x1="55" y1="176.6" x2="880" y2="176.6" stroke="#21262d" stroke-width="1"/>
  <text x="47" y="180.6" fill="#8b949e" font-size="11" text-anchor="end" font-family="-apple-system,BlinkMacSystemFont,Segoe UI,Helvetica,Arial,sans-serif">120</text>
  <line x1="55" y1="163.0" x2="880" y2="163.0" stroke="#21262d" stroke-width="1"/>
  <text x="47" y="167.0" fill="#8b949e" font-size="11" text-anchor="end" font-family="-apple-system,BlinkMacSystemFont,Segoe UI,Helvetica,Arial,sans-serif">130</text>
  <line x1="55" y1="149.4" x2="880" y2="149.4" stroke="#21262d" stroke-width="1"/>
  <text x="47" y="153.4" fill="#8b949e" font-size="11" text-anchor="end" font-family="-apple-system,BlinkMacSystemFont,Segoe UI,Helvetica,Arial,sans-serif">140</text>
  <line x1="55" y1="135.8" x2="880" y2="135.8" stroke="#21262d" stroke-width="1"/>
  <text x="47" y="139.8" fill="#8b949e" font-size="11" text-anchor="end" font-family="-apple-system,BlinkMacSystemFont,Segoe UI,Helvetica,Arial,sans-serif">150</text>
  <line x1="55" y1="122.2" x2="880" y2="122.2" stroke="#21262d" stroke-width="1"/>
  <text x="47" y="126.2" fill="#8b949e" font-size="11" text-anchor="end" font-family="-apple-system,BlinkMacSystemFont,Segoe UI,Helvetica,Arial,sans-serif">160</text>
  <line x1="55" y1="108.5" x2="880" y2="108.5" stroke="#21262d" stroke-width="1"/>
  <text x="47" y="112.5" fill="#8b949e" font-size="11" text-anchor="end" font-family="-apple-system,BlinkMacSystemFont,Segoe UI,Helvetica,Arial,sans-serif">170</text>
  <line x1="55" y1="94.9" x2="880" y2="94.9" stroke="#21262d" stroke-width="1"/>
  <text x="47" y="98.9" fill="#8b949e" font-size="11" text-anchor="end" font-family="-apple-system,BlinkMacSystemFont,Segoe UI,Helvetica,Arial,sans-serif">180</text>
  <line x1="55" y1="81.3" x2="880" y2="81.3" stroke="#21262d" stroke-width="1"/>
  <text x="47" y="85.3" fill="#8b949e" font-size="11" text-anchor="end" font-family="-apple-system,BlinkMacSystemFont,Segoe UI,Helvetica,Arial,sans-serif">190</text>
  <line x1="55" y1="67.7" x2="880" y2="67.7" stroke="#21262d" stroke-width="1"/>
  <text x="47" y="71.7" fill="#8b949e" font-size="11" text-anchor="end" font-family="-apple-system,BlinkMacSystemFont,Segoe UI,Helvetica,Arial,sans-serif">200</text>
  <line x1="55" y1="54.1" x2="880" y2="54.1" stroke="#21262d" stroke-width="1"/>
  <text x="47" y="58.1" fill="#8b949e" font-size="11" text-anchor="end" font-family="-apple-system,BlinkMacSystemFont,Segoe UI,Helvetica,Arial,sans-serif">210</text>
  <line x1="55.0" y1="50" x2="55.0" y2="340" stroke="#21262d" stroke-width="1" stroke-dasharray="4,4"/>
  <text x="55.0" y="360" fill="#8b949e" font-size="10" text-anchor="middle" font-family="-apple-system,BlinkMacSystemFont,Segoe UI,Helvetica,Arial,sans-serif">May 02</text>
  <line x1="168.2" y1="50" x2="168.2" y2="340" stroke="#21262d" stroke-width="1" stroke-dasharray="4,4"/>
  <text x="168.2" y="360" fill="#8b949e" font-size="10" text-anchor="middle" font-family="-apple-system,BlinkMacSystemFont,Segoe UI,Helvetica,Arial,sans-serif">May 09</text>
  <line x1="281.5" y1="50" x2="281.5" y2="340" stroke="#21262d" stroke-width="1" stroke-dasharray="4,4"/>
  <text x="281.5" y="360" fill="#8b949e" font-size="10" text-anchor="middle" font-family="-apple-system,BlinkMacSystemFont,Segoe UI,Helvetica,Arial,sans-serif">May 16</text>
  <line x1="394.7" y1="50" x2="394.7" y2="340" stroke="#21262d" stroke-width="1" stroke-dasharray="4,4"/>
  <text x="394.7" y="360" fill="#8b949e" font-size="10" text-anchor="middle" font-family="-apple-system,BlinkMacSystemFont,Segoe UI,Helvetica,Arial,sans-serif">May 23</text>
  <line x1="507.9" y1="50" x2="507.9" y2="340" stroke="#21262d" stroke-width="1" stroke-dasharray="4,4"/>
  <text x="507.9" y="360" fill="#8b949e" font-size="10" text-anchor="middle" font-family="-apple-system,BlinkMacSystemFont,Segoe UI,Helvetica,Arial,sans-serif">May 30</text>
  <line x1="621.2" y1="50" x2="621.2" y2="340" stroke="#21262d" stroke-width="1" stroke-dasharray="4,4"/>
  <text x="621.2" y="360" fill="#8b949e" font-size="10" text-anchor="middle" font-family="-apple-system,BlinkMacSystemFont,Segoe UI,Helvetica,Arial,sans-serif">Jun 06</text>
  <line x1="734.4" y1="50" x2="734.4" y2="340" stroke="#21262d" stroke-width="1" stroke-dasharray="4,4"/>
  <text x="734.4" y="360" fill="#8b949e" font-size="10" text-anchor="middle" font-family="-apple-system,BlinkMacSystemFont,Segoe UI,Helvetica,Arial,sans-serif">Jun 13</text>
  <line x1="847.6" y1="50" x2="847.6" y2="340" stroke="#21262d" stroke-width="1" stroke-dasharray="4,4"/>
  <text x="847.6" y="360" fill="#8b949e" font-size="10" text-anchor="middle" font-family="-apple-system,BlinkMacSystemFont,Segoe UI,Helvetica,Arial,sans-serif">Jun 20</text>
  <line x1="880.0" y1="50" x2="880.0" y2="340" stroke="#21262d" stroke-width="1" stroke-dasharray="4,4"/>
  <text x="880.0" y="360" fill="#8b949e" font-size="10" text-anchor="middle" font-family="-apple-system,BlinkMacSystemFont,Segoe UI,Helvetica,Arial,sans-serif">Jun 22</text>
  <path d="M55.0,340.0L71.2,323.7L87.4,314.1L103.5,308.7L119.7,300.5L135.9,295.1L152.1,291.0L168.2,291.0L184.4,291.0L200.6,291.0L216.8,291.0L232.9,291.0L249.1,291.0L265.3,291.0L281.5,289.6L297.6,284.2L313.8,278.7L330.0,271.9L346.2,263.8L362.4,255.6L378.5,247.4L394.7,240.6L410.9,235.2L427.1,232.4L443.2,228.4L459.4,213.4L475.6,212.0L491.8,205.2L507.9,195.7L524.1,188.9L540.3,183.4L556.5,183.4L572.6,183.4L588.8,183.4L605.0,183.4L621.2,183.4L637.4,175.3L653.5,164.4L669.7,160.3L685.9,152.1L702.1,146.7L718.2,138.5L734.4,126.2L750.6,119.4L766.8,112.6L782.9,105.8L799.1,93.6L815.3,85.4L831.5,74.5L847.6,66.3L863.8,59.5L880.0,56.8L880.0,340.0L55.0,340.0Z" fill="url(#gO)"/>
  <path d="M55.0,338.6L71.2,338.6L87.4,338.6L103.5,338.6L119.7,338.6L135.9,338.6L152.1,338.6L168.2,338.6L184.4,338.6L200.6,338.6L216.8,338.6L232.9,338.6L249.1,338.6L265.3,338.6L281.5,338.6L297.6,334.6L313.8,334.6L330.0,334.6L346.2,334.6L362.4,334.6L378.5,334.6L394.7,334.6L410.9,333.2L427.1,329.1L443.2,329.1L459.4,327.7L475.6,327.7L491.8,327.7L507.9,327.7L524.1,327.7L540.3,325.0L556.5,325.0L572.6,325.0L588.8,325.0L605.0,325.0L621.2,325.0L637.4,325.0L653.5,322.3L669.7,306.0L685.9,306.0L702.1,306.0L718.2,306.0L734.4,295.1L750.6,295.1L766.8,295.1L782.9,295.1L799.1,295.1L815.3,292.3L831.5,292.3L847.6,291.0L863.8,289.6L880.0,289.6L880.0,340.0L55.0,340.0Z" fill="url(#gR)"/>
  <path d="M55.0,340.0L71.2,323.7L87.4,314.1L103.5,308.7L119.7,300.5L135.9,295.1L152.1,291.0L168.2,291.0L184.4,291.0L200.6,291.0L216.8,291.0L232.9,291.0L249.1,291.0L265.3,291.0L281.5,289.6L297.6,284.2L313.8,278.7L330.0,271.9L346.2,263.8L362.4,255.6L378.5,247.4L394.7,240.6L410.9,235.2L427.1,232.4L443.2,228.4L459.4,213.4L475.6,212.0L491.8,205.2L507.9,195.7L524.1,188.9L540.3,183.4L556.5,183.4L572.6,183.4L588.8,183.4L605.0,183.4L621.2,183.4L637.4,175.3L653.5,164.4L669.7,160.3L685.9,152.1L702.1,146.7L718.2,138.5L734.4,126.2L750.6,119.4L766.8,112.6L782.9,105.8L799.1,93.6L815.3,85.4L831.5,74.5L847.6,66.3L863.8,59.5L880.0,56.8" fill="none" stroke="#58a6ff" stroke-width="2.5" stroke-linecap="round" stroke-linejoin="round"/>
  <path d="M55.0,338.6L71.2,338.6L87.4,338.6L103.5,338.6L119.7,338.6L135.9,338.6L152.1,338.6L168.2,338.6L184.4,338.6L200.6,338.6L216.8,338.6L232.9,338.6L249.1,338.6L265.3,338.6L281.5,338.6L297.6,334.6L313.8,334.6L330.0,334.6L346.2,334.6L362.4,334.6L378.5,334.6L394.7,334.6L410.9,333.2L427.1,329.1L443.2,329.1L459.4,327.7L475.6,327.7L491.8,327.7L507.9,327.7L524.1,327.7L540.3,325.0L556.5,325.0L572.6,325.0L588.8,325.0L605.0,325.0L621.2,325.0L637.4,325.0L653.5,322.3L669.7,306.0L685.9,306.0L702.1,306.0L718.2,306.0L734.4,295.1L750.6,295.1L766.8,295.1L782.9,295.1L799.1,295.1L815.3,292.3L831.5,292.3L847.6,291.0L863.8,289.6L880.0,289.6" fill="none" stroke="#f78166" stroke-width="2.5" stroke-linecap="round" stroke-linejoin="round"/>
  <path d="M55.0,340.0L71.2,330.5L87.4,323.7L103.5,320.9L119.7,314.1L135.9,315.5L152.1,311.4L168.2,312.8L184.4,312.8L200.6,314.1L216.8,314.1L232.9,314.1L249.1,314.1L265.3,314.1L281.5,312.8L297.6,311.4L313.8,310.0L330.0,306.0L346.2,297.8L362.4,292.3L378.5,286.9L394.7,282.8L410.9,282.8L427.1,284.2L443.2,286.9L459.4,281.5L475.6,280.1L491.8,280.1L507.9,276.0L524.1,282.8L540.3,278.7L556.5,278.7L572.6,278.7L588.8,278.7L605.0,286.9L621.2,286.9L637.4,285.5L653.5,292.3L669.7,340.0L685.9,340.0L702.1,340.0L718.2,340.0L734.4,334.6L750.6,334.6L766.8,331.8L782.9,331.8L799.1,330.5L815.3,326.4L831.5,327.7L847.6,325.0L863.8,325.0L880.0,326.4" fill="none" stroke="#3fb950" stroke-width="2.5" stroke-linecap="round" stroke-linejoin="round"/>
  <path d="M55.0,340.0L71.2,340.0L87.4,338.6L103.5,337.3L119.7,337.3L135.9,335.9L152.1,335.9L168.2,334.6L184.4,334.6L200.6,334.6L216.8,334.6L232.9,334.6L249.1,334.6L265.3,334.6L281.5,334.6L297.6,333.2L313.8,330.5L330.0,329.1L346.2,329.1L362.4,329.1L378.5,326.4L394.7,326.4L410.9,326.4L427.1,325.0L443.2,325.0L459.4,316.9L475.6,316.9L491.8,311.4L507.9,307.3L524.1,301.9L540.3,300.5L556.5,300.5L572.6,300.5L588.8,300.5L605.0,297.8L621.2,297.8L637.4,295.1L653.5,291.0L669.7,288.3L685.9,280.1L702.1,274.6L718.2,266.5L734.4,262.4L750.6,256.9L766.8,254.2L782.9,247.4L799.1,236.5L815.3,232.4L831.5,224.3L847.6,220.2L863.8,213.4L880.0,209.3" fill="none" stroke="#d2a8ff" stroke-width="2.5" stroke-linecap="round" stroke-linejoin="round"/>
  <path d="M55.0,340.0L71.2,333.2L87.4,331.8L103.5,330.5L119.7,329.1L135.9,323.7L152.1,323.7L168.2,323.7L184.4,323.7L200.6,322.3L216.8,322.3L232.9,322.3L249.1,322.3L265.3,322.3L281.5,322.3L297.6,319.6L313.8,318.2L330.0,316.9L346.2,316.9L362.4,314.1L378.5,314.1L394.7,311.4L410.9,306.0L427.1,303.2L443.2,296.4L459.4,295.1L475.6,295.1L491.8,293.7L507.9,292.3L524.1,284.2L540.3,284.2L556.5,284.2L572.6,284.2L588.8,284.2L605.0,278.7L621.2,278.7L637.4,274.6L653.5,261.0L669.7,212.0L685.9,212.0L702.1,212.0L718.2,212.0L734.4,209.3L750.6,207.9L766.8,206.6L782.9,206.6L799.1,206.6L815.3,206.6L831.5,202.5L847.6,201.1L863.8,201.1L880.0,201.1" fill="none" stroke="#f85149" stroke-width="2.5" stroke-linecap="round" stroke-linejoin="round"/>
  <circle cx="880.0" cy="56.8" r="3.5" fill="#58a6ff"/>
  <text x="889.0" y="60.8" fill="#58a6ff" font-size="11" font-weight="600" font-family="-apple-system,BlinkMacSystemFont,Segoe UI,Helvetica,Arial,sans-serif">208</text>
  <circle cx="880.0" cy="289.6" r="3.5" fill="#f78166"/>
  <text x="889.0" y="293.6" fill="#f78166" font-size="11" font-weight="600" font-family="-apple-system,BlinkMacSystemFont,Segoe UI,Helvetica,Arial,sans-serif">37</text>
  <circle cx="880.0" cy="326.4" r="3.5" fill="#3fb950"/>
  <text x="889.0" y="330.4" fill="#3fb950" font-size="11" font-weight="600" font-family="-apple-system,BlinkMacSystemFont,Segoe UI,Helvetica,Arial,sans-serif">10</text>
  <circle cx="880.0" cy="209.3" r="3.5" fill="#d2a8ff"/>
  <text x="889.0" y="213.3" fill="#d2a8ff" font-size="11" font-weight="600" font-family="-apple-system,BlinkMacSystemFont,Segoe UI,Helvetica,Arial,sans-serif">96</text>
  <circle cx="880.0" cy="201.1" r="3.5" fill="#f85149"/>
  <text x="889.0" y="205.1" fill="#f85149" font-size="11" font-weight="600" font-family="-apple-system,BlinkMacSystemFont,Segoe UI,Helvetica,Arial,sans-serif">102</text>
  <line x1="55" y1="368" x2="71" y2="368" stroke="#f78166" stroke-width="2.5" stroke-linecap="round"/>
  <text x="77" y="372" fill="#8b949e" font-size="11" font-family="-apple-system,BlinkMacSystemFont,Segoe UI,Helvetica,Arial,sans-serif">Repos</text>
  <line x1="255" y1="368" x2="271" y2="368" stroke="#58a6ff" stroke-width="2.5" stroke-linecap="round"/>
  <text x="277" y="372" fill="#8b949e" font-size="11" font-family="-apple-system,BlinkMacSystemFont,Segoe UI,Helvetica,Arial,sans-serif">PRs Opened</text>
  <line x1="455" y1="368" x2="471" y2="368" stroke="#3fb950" stroke-width="2.5" stroke-linecap="round"/>
  <text x="477" y="372" fill="#8b949e" font-size="11" font-family="-apple-system,BlinkMacSystemFont,Segoe UI,Helvetica,Arial,sans-serif">Open PRs</text>
  <line x1="55" y1="386" x2="71" y2="386" stroke="#d2a8ff" stroke-width="2.5" stroke-linecap="round"/>
  <text x="77" y="390" fill="#8b949e" font-size="11" font-family="-apple-system,BlinkMacSystemFont,Segoe UI,Helvetica,Arial,sans-serif">Merged</text>
  <line x1="255" y1="386" x2="271" y2="386" stroke="#f85149" stroke-width="2.5" stroke-linecap="round"/>
  <text x="277" y="390" fill="#8b949e" font-size="11" font-family="-apple-system,BlinkMacSystemFont,Segoe UI,Helvetica,Arial,sans-serif">Closed</text>
</svg>