<svg xmlns="http://www.w3.org/2000/svg" viewBox="0 0 960 400" width="960" height="400">
  <defs>
    <linearGradient id="gR" x1="0" y1="0" x2="0" y2="1">
      <stop offset="0%" stop-color="#f78166" stop-opacity="0.25"/>
      <stop offset="100%" stop-color="#f78166" stop-opacity="0.02"/>
    </linearGradient>
    <linearGradient id="gO" x1="0" y1="0" x2="0" y2="1">
      <stop offset="0%" stop-color="#58a6ff" stop-opacity="0.25"/>
      <stop offset="100%" stop-color="#58a6ff" stop-opacity="0.02"/>
    </linearGradient>
    <linearGradient id="gOp" x1="0" y1="0" x2="0" y2="1">
      <stop offset="0%" stop-color="#3fb950" stop-opacity="0.25"/>
      <stop offset="100%" stop-color="#3fb950" stop-opacity="0.02"/>
    </linearGradient>
    <linearGradient id="gM" x1="0" y1="0" x2="0" y2="1">
      <stop offset="0%" stop-color="#d2a8ff" stop-opacity="0.25"/>
      <stop offset="100%" stop-color="#d2a8ff" stop-opacity="0.02"/>
    </linearGradient>
    <linearGradient id="gC" x1="0" y1="0" x2="0" y2="1">
      <stop offset="0%" stop-color="#f85149" stop-opacity="0.25"/>
      <stop offset="100%" stop-color="#f85149" stop-opacity="0.02"/>
    </linearGradient>
  </defs>
  <rect width="960" height="400" rx="12" fill="#0d1117"/>
  <rect width="960" height="400" rx="12" fill="none" stroke="#30363d" stroke-width="1"/>
  <text x="55" y="30" fill="#e6edf3" font-size="15" font-weight="600" font-family="-apple-system,BlinkMacSystemFont,Segoe UI,Helvetica,Arial,sans-serif">GitHub Activity — jlaportebot</text>
  <text x="880" y="30" fill="#8b949e" font-size="11" text-anchor="end" font-family="-apple-system,BlinkMacSystemFont,Segoe UI,Helvetica,Arial,sans-serif">Updated Jul 15, 2026</text>
  <line x1="55" y1="340.0" x2="880" y2="340.0" stroke="#21262d" stroke-width="1"/>
  <text x="47" y="344.0" fill="#8b949e" font-size="11" text-anchor="end" font-family="-apple-system,BlinkMacSystemFont,Segoe UI,Helvetica,Arial,sans-serif">0</text>
  <line x1="55" y1="329.3" x2="880" y2="329.3" stroke="#21262d" stroke-width="1"/>
  <text x="47" y="333.3" fill="#8b949e" font-size="11" text-anchor="end" font-family="-apple-system,BlinkMacSystemFont,Segoe UI,Helvetica,Arial,sans-serif">10</text>
  <line x1="55" y1="318.7" x2="880" y2="318.7" stroke="#21262d" stroke-width="1"/>
  <text x="47" y="322.7" fill="#8b949e" font-size="11" text-anchor="end" font-family="-apple-system,BlinkMacSystemFont,Segoe UI,Helvetica,Arial,sans-serif">20</text>
  <line x1="55" y1="308.0" x2="880" y2="308.0" stroke="#21262d" stroke-width="1"/>
  <text x="47" y="312.0" fill="#8b949e" font-size="11" text-anchor="end" font-family="-apple-system,BlinkMacSystemFont,Segoe UI,Helvetica,Arial,sans-serif">30</text>
  <line x1="55" y1="297.4" x2="880" y2="297.4" stroke="#21262d" stroke-width="1"/>
  <text x="47" y="301.4" fill="#8b949e" font-size="11" text-anchor="end" font-family="-apple-system,BlinkMacSystemFont,Segoe UI,Helvetica,Arial,sans-serif">40</text>
  <line x1="55" y1="286.7" x2="880" y2="286.7" stroke="#21262d" stroke-width="1"/>
  <text x="47" y="290.7" fill="#8b949e" font-size="11" text-anchor="end" font-family="-apple-system,BlinkMacSystemFont,Segoe UI,Helvetica,Arial,sans-serif">50</text>
  <line x1="55" y1="276.0" x2="880" y2="276.0" stroke="#21262d" stroke-width="1"/>
  <text x="47" y="280.0" fill="#8b949e" font-size="11" text-anchor="end" font-family="-apple-system,BlinkMacSystemFont,Segoe UI,Helvetica,Arial,sans-serif">60</text>
  <line x1="55" y1="265.4" x2="880" y2="265.4" stroke="#21262d" stroke-width="1"/>
  <text x="47" y="269.4" fill="#8b949e" font-size="11" text-anchor="end" font-family="-apple-system,BlinkMacSystemFont,Segoe UI,Helvetica,Arial,sans-serif">70</text>
  <line x1="55" y1="254.7" x2="880" y2="254.7" stroke="#21262d" stroke-width="1"/>
  <text x="47" y="258.7" fill="#8b949e" font-size="11" text-anchor="end" font-family="-apple-system,BlinkMacSystemFont,Segoe UI,Helvetica,Arial,sans-serif">80</text>
  <line x1="55" y1="244.0" x2="880" y2="244.0" stroke="#21262d" stroke-width="1"/>
  <text x="47" y="248.0" fill="#8b949e" font-size="11" text-anchor="end" font-family="-apple-system,BlinkMacSystemFont,Segoe UI,Helvetica,Arial,sans-serif">90</text>
  <line x1="55" y1="233.4" x2="880" y2="233.4" stroke="#21262d" stroke-width="1"/>
  <text x="47" y="237.4" fill="#8b949e" font-size="11" text-anchor="end" font-family="-apple-system,BlinkMacSystemFont,Segoe UI,Helvetica,Arial,sans-serif">100</text>
  <line x1="55" y1="222.7" x2="880" y2="222.7" stroke="#21262d" stroke-width="1"/>
  <text x="47" y="226.7" fill="#8b949e" font-size="11" text-anchor="end" font-family="-apple-system,BlinkMacSystemFont,Segoe UI,Helvetica,Arial,sans-serif">110</text>
  <line x1="55" y1="212.1" x2="880" y2="212.1" stroke="#21262d" stroke-width="1"/>
  <text x="47" y="216.1" fill="#8b949e" font-size="11" text-anchor="end" font-family="-apple-system,BlinkMacSystemFont,Segoe UI,Helvetica,Arial,sans-serif">120</text>
  <line x1="55" y1="201.4" x2="880" y2="201.4" stroke="#21262d" stroke-width="1"/>
  <text x="47" y="205.4" fill="#8b949e" font-size="11" text-anchor="end" font-family="-apple-system,BlinkMacSystemFont,Segoe UI,Helvetica,Arial,sans-serif">130</text>
  <line x1="55" y1="190.7" x2="880" y2="190.7" stroke="#21262d" stroke-width="1"/>
  <text x="47" y="194.7" fill="#8b949e" font-size="11" text-anchor="end" font-family="-apple-system,BlinkMacSystemFont,Segoe UI,Helvetica,Arial,sans-serif">140</text>
  <line x1="55" y1="180.1" x2="880" y2="180.1" stroke="#21262d" stroke-width="1"/>
  <text x="47" y="184.1" fill="#8b949e" font-size="11" text-anchor="end" font-family="-apple-system,BlinkMacSystemFont,Segoe UI,Helvetica,Arial,sans-serif">150</text>
  <line x1="55" y1="169.4" x2="880" y2="169.4" stroke="#21262d" stroke-width="1"/>
  <text x="47" y="173.4" fill="#8b949e" font-size="11" text-anchor="end" font-family="-apple-system,BlinkMacSystemFont,Segoe UI,Helvetica,Arial,sans-serif">160</text>
  <line x1="55" y1="158.8" x2="880" y2="158.8" stroke="#21262d" stroke-width="1"/>
  <text x="47" y="162.8" fill="#8b949e" font-size="11" text-anchor="end" font-family="-apple-system,BlinkMacSystemFont,Segoe UI,Helvetica,Arial,sans-serif">170</text>
  <line x1="55" y1="148.1" x2="880" y2="148.1" stroke="#21262d" stroke-width="1"/>
  <text x="47" y="152.1" fill="#8b949e" font-size="11" text-anchor="end" font-family="-apple-system,BlinkMacSystemFont,Segoe UI,Helvetica,Arial,sans-serif">180</text>
  <line x1="55" y1="137.4" x2="880" y2="137.4" stroke="#21262d" stroke-width="1"/>
  <text x="47" y="141.4" fill="#8b949e" font-size="11" text-anchor="end" font-family="-apple-system,BlinkMacSystemFont,Segoe UI,Helvetica,Arial,sans-serif">190</text>
  <line x1="55" y1="126.8" x2="880" y2="126.8" stroke="#21262d" stroke-width="1"/>
  <text x="47" y="130.8" fill="#8b949e" font-size="11" text-anchor="end" font-family="-apple-system,BlinkMacSystemFont,Segoe UI,Helvetica,Arial,sans-serif">200</text>
  <line x1="55" y1="116.1" x2="880" y2="116.1" stroke="#21262d" stroke-width="1"/>
  <text x="47" y="120.1" fill="#8b949e" font-size="11" text-anchor="end" font-family="-apple-system,BlinkMacSystemFont,Segoe UI,Helvetica,Arial,sans-serif">210</text>
  <line x1="55" y1="105.4" x2="880" y2="105.4" stroke="#21262d" stroke-width="1"/>
  <text x="47" y="109.4" fill="#8b949e" font-size="11" text-anchor="end" font-family="-apple-system,BlinkMacSystemFont,Segoe UI,Helvetica,Arial,sans-serif">220</text>
  <line x1="55" y1="94.8" x2="880" y2="94.8" stroke="#21262d" stroke-width="1"/>
  <text x="47" y="98.8" fill="#8b949e" font-size="11" text-anchor="end" font-family="-apple-system,BlinkMacSystemFont,Segoe UI,Helvetica,Arial,sans-serif">230</text>
  <line x1="55" y1="84.1" x2="880" y2="84.1" stroke="#21262d" stroke-width="1"/>
  <text x="47" y="88.1" fill="#8b949e" font-size="11" text-anchor="end" font-family="-apple-system,BlinkMacSystemFont,Segoe UI,Helvetica,Arial,sans-serif">240</text>
  <line x1="55" y1="73.5" x2="880" y2="73.5" stroke="#21262d" stroke-width="1"/>
  <text x="47" y="77.5" fill="#8b949e" font-size="11" text-anchor="end" font-family="-apple-system,BlinkMacSystemFont,Segoe UI,Helvetica,Arial,sans-serif">250</text>
  <line x1="55" y1="62.8" x2="880" y2="62.8" stroke="#21262d" stroke-width="1"/>
  <text x="47" y="66.8" fill="#8b949e" font-size="11" text-anchor="end" font-family="-apple-system,BlinkMacSystemFont,Segoe UI,Helvetica,Arial,sans-serif">260</text>
  <line x1="55" y1="52.1" x2="880" y2="52.1" stroke="#21262d" stroke-width="1"/>
  <text x="47" y="56.1" fill="#8b949e" font-size="11" text-anchor="end" font-family="-apple-system,BlinkMacSystemFont,Segoe UI,Helvetica,Arial,sans-serif">270</text>
  <line x1="55.0" y1="50" x2="55.0" y2="340" stroke="#21262d" stroke-width="1" stroke-dasharray="4,4"/>
  <text x="55.0" y="360" fill="#8b949e" font-size="10" text-anchor="middle" font-family="-apple-system,BlinkMacSystemFont,Segoe UI,Helvetica,Arial,sans-serif">May 02</text>
  <line x1="166.5" y1="50" x2="166.5" y2="340" stroke="#21262d" stroke-width="1" stroke-dasharray="4,4"/>
  <text x="166.5" y="360" fill="#8b949e" font-size="10" text-anchor="middle" font-family="-apple-system,BlinkMacSystemFont,Segoe UI,Helvetica,Arial,sans-serif">May 12</text>
  <line x1="278.0" y1="50" x2="278.0" y2="340" stroke="#21262d" stroke-width="1" stroke-dasharray="4,4"/>
  <text x="278.0" y="360" fill="#8b949e" font-size="10" text-anchor="middle" font-family="-apple-system,BlinkMacSystemFont,Segoe UI,Helvetica,Arial,sans-serif">May 22</text>
  <line x1="389.5" y1="50" x2="389.5" y2="340" stroke="#21262d" stroke-width="1" stroke-dasharray="4,4"/>
  <text x="389.5" y="360" fill="#8b949e" font-size="10" text-anchor="middle" font-family="-apple-system,BlinkMacSystemFont,Segoe UI,Helvetica,Arial,sans-serif">Jun 01</text>
  <line x1="500.9" y1="50" x2="500.9" y2="340" stroke="#21262d" stroke-width="1" stroke-dasharray="4,4"/>
  <text x="500.9" y="360" fill="#8b949e" font-size="10" text-anchor="middle" font-family="-apple-system,BlinkMacSystemFont,Segoe UI,Helvetica,Arial,sans-serif">Jun 11</text>
  <line x1="612.4" y1="50" x2="612.4" y2="340" stroke="#21262d" stroke-width="1" stroke-dasharray="4,4"/>
  <text x="612.4" y="360" fill="#8b949e" font-size="10" text-anchor="middle" font-family="-apple-system,BlinkMacSystemFont,Segoe UI,Helvetica,Arial,sans-serif">Jun 21</text>
  <line x1="723.9" y1="50" x2="723.9" y2="340" stroke="#21262d" stroke-width="1" stroke-dasharray="4,4"/>
  <text x="723.9" y="360" fill="#8b949e" font-size="10" text-anchor="middle" font-family="-apple-system,BlinkMacSystemFont,Segoe UI,Helvetica,Arial,sans-serif">Jul 01</text>
  <line x1="835.4" y1="50" x2="835.4" y2="340" stroke="#21262d" stroke-width="1" stroke-dasharray="4,4"/>
  <text x="835.4" y="360" fill="#8b949e" font-size="10" text-anchor="middle" font-family="-apple-system,BlinkMacSystemFont,Segoe UI,Helvetica,Arial,sans-serif">Jul 11</text>
  <line x1="880.0" y1="50" x2="880.0" y2="340" stroke="#21262d" stroke-width="1" stroke-dasharray="4,4"/>
  <text x="880.0" y="360" fill="#8b949e" font-size="10" text-anchor="middle" font-family="-apple-system,BlinkMacSystemFont,Segoe UI,Helvetica,Arial,sans-serif">Jul 15</text>
  <path d="M55.0,340.0L66.1,327.2L77.3,319.7L88.4,315.5L99.6,309.1L110.7,304.8L121.9,301.6L133.0,301.6L144.2,301.6L155.3,301.6L166.5,301.6L177.6,301.6L188.8,301.6L199.9,301.6L211.1,300.6L222.2,296.3L233.4,292.0L244.5,286.7L255.7,280.3L266.8,273.9L278.0,267.5L289.1,262.2L300.3,257.9L311.4,255.8L322.6,252.6L333.7,240.8L344.9,239.8L356.0,234.4L367.2,227.0L378.3,221.7L389.5,217.4L400.6,217.4L411.8,217.4L422.9,217.4L434.1,217.4L445.2,217.4L456.4,211.0L467.5,202.5L478.6,199.3L489.8,192.9L500.9,188.6L512.1,182.2L523.2,172.6L534.4,167.3L545.5,161.9L556.7,156.6L567.8,147.0L579.0,140.6L590.1,132.1L601.3,125.7L612.4,120.4L623.6,116.1L634.7,109.7L645.9,102.2L657.0,98.0L668.2,94.8L679.3,87.3L690.5,80.9L701.6,72.4L712.8,72.4L723.9,70.3L735.1,70.3L746.2,70.3L757.4,68.1L768.5,64.9L779.7,61.7L790.8,60.7L802.0,55.3L813.1,55.3L824.3,55.3L835.4,55.3L846.6,55.3L857.7,55.3L868.9,55.3L880.0,55.3L880.0,340.0L55.0,340.0Z" fill="url(#gO)"/>
  <path d="M55.0,338.9L66.1,338.9L77.3,338.9L88.4,338.9L99.6,338.9L110.7,338.9L121.9,338.9L133.0,338.9L144.2,338.9L155.3,338.9L166.5,338.9L177.6,338.9L188.8,338.9L199.9,338.9L211.1,338.9L222.2,335.7L233.4,335.7L244.5,335.7L255.7,335.7L266.8,335.7L278.0,335.7L289.1,335.7L300.3,334.7L311.4,331.5L322.6,331.5L333.7,330.4L344.9,330.4L356.0,330.4L367.2,330.4L378.3,330.4L389.5,328.3L400.6,328.3L411.8,328.3L422.9,328.3L434.1,328.3L445.2,328.3L456.4,328.3L467.5,326.1L478.6,313.3L489.8,313.3L500.9,313.3L512.1,313.3L523.2,304.8L534.4,304.8L545.5,304.8L556.7,304.8L567.8,304.8L579.0,302.7L590.1,302.7L601.3,301.6L612.4,300.6L623.6,299.5L634.7,298.4L645.9,296.3L657.0,292.0L668.2,291.0L679.3,289.9L690.5,289.9L701.6,289.9L712.8,289.9L723.9,289.9L735.1,289.9L746.2,289.9L757.4,289.9L768.5,289.9L779.7,289.9L790.8,289.9L802.0,289.9L813.1,288.8L824.3,287.8L835.4,284.6L846.6,284.6L857.7,283.5L868.9,283.5L880.0,283.5L880.0,340.0L55.0,340.0Z" fill="url(#gR)"/>
  <path d="M55.0,340.0L66.1,327.2L77.3,319.7L88.4,315.5L99.6,309.1L110.7,304.8L121.9,301.6L133.0,301.6L144.2,301.6L155.3,301.6L166.5,301.6L177.6,301.6L188.8,301.6L199.9,301.6L211.1,300.6L222.2,296.3L233.4,292.0L244.5,286.7L255.7,280.3L266.8,273.9L278.0,267.5L289.1,262.2L300.3,257.9L311.4,255.8L322.6,252.6L333.7,240.8L344.9,239.8L356.0,234.4L367.2,227.0L378.3,221.7L389.5,217.4L400.6,217.4L411.8,217.4L422.9,217.4L434.1,217.4L445.2,217.4L456.4,211.0L467.5,202.5L478.6,199.3L489.8,192.9L500.9,188.6L512.1,182.2L523.2,172.6L534.4,167.3L545.5,161.9L556.7,156.6L567.8,147.0L579.0,140.6L590.1,132.1L601.3,125.7L612.4,120.4L623.6,116.1L634.7,109.7L645.9,102.2L657.0,98.0L668.2,94.8L679.3,87.3L690.5,80.9L701.6,72.4L712.8,72.4L723.9,70.3L735.1,70.3L746.2,70.3L757.4,68.1L768.5,64.9L779.7,61.7L790.8,60.7L802.0,55.3L813.1,55.3L824.3,55.3L835.4,55.3L846.6,55.3L857.7,55.3L868.9,55.3L880.0,55.3" fill="none" stroke="#58a6ff" stroke-width="2.5" stroke-linecap="round" stroke-linejoin="round"/>
  <path d="M55.0,338.9L66.1,338.9L77.3,338.9L88.4,338.9L99.6,338.9L110.7,338.9L121.9,338.9L133.0,338.9L144.2,338.9L155.3,338.9L166.5,338.9L177.6,338.9L188.8,338.9L199.9,338.9L211.1,338.9L222.2,335.7L233.4,335.7L244.5,335.7L255.7,335.7L266.8,335.7L278.0,335.7L289.1,335.7L300.3,334.7L311.4,331.5L322.6,331.5L333.7,330.4L344.9,330.4L356.0,330.4L367.2,330.4L378.3,330.4L389.5,328.3L400.6,328.3L411.8,328.3L422.9,328.3L434.1,328.3L445.2,328.3L456.4,328.3L467.5,326.1L478.6,313.3L489.8,313.3L500.9,313.3L512.1,313.3L523.2,304.8L534.4,304.8L545.5,304.8L556.7,304.8L567.8,304.8L579.0,302.7L590.1,302.7L601.3,301.6L612.4,300.6L623.6,299.5L634.7,298.4L645.9,296.3L657.0,292.0L668.2,291.0L679.3,289.9L690.5,289.9L701.6,289.9L712.8,289.9L723.9,289.9L735.1,289.9L746.2,289.9L757.4,289.9L768.5,289.9L779.7,289.9L790.8,289.9L802.0,289.9L813.1,288.8L824.3,287.8L835.4,284.6L846.6,284.6L857.7,283.5L868.9,283.5L880.0,283.5" fill="none" stroke="#f78166" stroke-width="2.5" stroke-linecap="round" stroke-linejoin="round"/>
  <path d="M55.0,340.0L66.1,332.5L77.3,327.2L88.4,325.1L99.6,319.7L110.7,320.8L121.9,317.6L133.0,318.7L144.2,318.7L155.3,319.7L166.5,319.7L177.6,319.7L188.8,319.7L199.9,319.7L211.1,318.7L222.2,317.6L233.4,316.5L244.5,313.3L255.7,306.9L266.8,302.7L278.0,298.4L289.1,295.2L300.3,295.2L311.4,296.3L322.6,298.4L333.7,294.2L344.9,293.1L356.0,293.1L367.2,289.9L378.3,295.2L389.5,292.0L400.6,292.0L411.8,292.0L422.9,292.0L434.1,298.4L445.2,298.4L456.4,297.4L467.5,302.7L478.6,340.0L489.8,340.0L500.9,340.0L512.1,340.0L523.2,335.7L534.4,335.7L545.5,333.6L556.7,333.6L567.8,332.5L579.0,329.3L590.1,330.4L601.3,328.3L612.4,328.3L623.6,330.4L634.7,329.3L645.9,330.4L657.0,327.2L668.2,328.3L679.3,328.3L690.5,322.9L701.6,319.7L712.8,319.7L723.9,320.8L735.1,324.0L746.2,324.0L757.4,322.9L768.5,321.9L779.7,321.9L790.8,320.8L802.0,318.7L813.1,318.7L824.3,318.7L835.4,318.7L846.6,318.7L857.7,318.7L868.9,318.7L880.0,318.7" fill="none" stroke="#3fb950" stroke-width="2.5" stroke-linecap="round" stroke-linejoin="round"/>
  <path d="M55.0,340.0L66.1,340.0L77.3,338.9L88.4,337.9L99.6,337.9L110.7,336.8L121.9,336.8L133.0,335.7L144.2,335.7L155.3,335.7L166.5,335.7L177.6,335.7L188.8,335.7L199.9,335.7L211.1,335.7L222.2,334.7L233.4,332.5L244.5,331.5L255.7,331.5L266.8,331.5L278.0,329.3L289.1,329.3L300.3,329.3L311.4,328.3L322.6,328.3L333.7,321.9L344.9,321.9L356.0,317.6L367.2,314.4L378.3,310.1L389.5,309.1L400.6,309.1L411.8,309.1L422.9,309.1L434.1,306.9L445.2,306.9L456.4,304.8L467.5,301.6L478.6,299.5L489.8,293.1L500.9,288.8L512.1,282.4L523.2,279.2L534.4,275.0L545.5,272.8L556.7,267.5L567.8,259.0L579.0,255.8L590.1,249.4L601.3,246.2L612.4,240.8L623.6,234.4L634.7,229.1L645.9,220.6L657.0,219.5L668.2,217.4L679.3,212.1L690.5,212.1L701.6,206.7L712.8,206.7L723.9,204.6L735.1,204.6L746.2,204.6L757.4,204.6L768.5,203.5L779.7,201.4L790.8,201.4L802.0,199.3L813.1,199.3L824.3,199.3L835.4,199.3L846.6,199.3L857.7,199.3L868.9,199.3L880.0,199.3" fill="none" stroke="#d2a8ff" stroke-width="2.5" stroke-linecap="round" stroke-linejoin="round"/>
  <path d="M55.0,340.0L66.1,334.7L77.3,333.6L88.4,332.5L99.6,331.5L110.7,327.2L121.9,327.2L133.0,327.2L144.2,327.2L155.3,326.1L166.5,326.1L177.6,326.1L188.8,326.1L199.9,326.1L211.1,326.1L222.2,324.0L233.4,322.9L244.5,321.9L255.7,321.9L266.8,319.7L278.0,319.7L289.1,317.6L300.3,313.3L311.4,311.2L322.6,305.9L333.7,304.8L344.9,304.8L356.0,303.8L367.2,302.7L378.3,296.3L389.5,296.3L400.6,296.3L411.8,296.3L422.9,296.3L434.1,292.0L445.2,292.0L456.4,288.8L467.5,278.2L478.6,239.8L489.8,239.8L500.9,239.8L512.1,239.8L523.2,237.6L534.4,236.6L545.5,235.5L556.7,235.5L567.8,235.5L579.0,235.5L590.1,232.3L601.3,231.2L612.4,231.2L623.6,231.2L634.7,231.2L645.9,231.2L657.0,231.2L668.2,229.1L679.3,227.0L690.5,225.9L701.6,225.9L712.8,225.9L723.9,224.9L735.1,221.7L746.2,221.7L757.4,220.6L768.5,219.5L779.7,218.5L790.8,218.5L802.0,217.4L813.1,217.4L824.3,217.4L835.4,217.4L846.6,217.4L857.7,217.4L868.9,217.4L880.0,217.4" fill="none" stroke="#f85149" stroke-width="2.5" stroke-linecap="round" stroke-linejoin="round"/>
  <circle cx="880.0" cy="55.3" r="3.5" fill="#58a6ff"/>
  <text x="889.0" y="59.3" fill="#58a6ff" font-size="11" font-weight="600" font-family="-apple-system,BlinkMacSystemFont,Segoe UI,Helvetica,Arial,sans-serif">267</text>
  <circle cx="880.0" cy="283.5" r="3.5" fill="#f78166"/>
  <text x="889.0" y="287.5" fill="#f78166" font-size="11" font-weight="600" font-family="-apple-system,BlinkMacSystemFont,Segoe UI,Helvetica,Arial,sans-serif">53</text>
  <circle cx="880.0" cy="318.7" r="3.5" fill="#3fb950"/>
  <text x="889.0" y="322.7" fill="#3fb950" font-size="11" font-weight="600" font-family="-apple-system,BlinkMacSystemFont,Segoe UI,Helvetica,Arial,sans-serif">20</text>
  <circle cx="880.0" cy="199.3" r="3.5" fill="#d2a8ff"/>
  <text x="889.0" y="203.3" fill="#d2a8ff" font-size="11" font-weight="600" font-family="-apple-system,BlinkMacSystemFont,Segoe UI,Helvetica,Arial,sans-serif">132</text>
  <circle cx="880.0" cy="217.4" r="3.5" fill="#f85149"/>
  <text x="889.0" y="221.4" fill="#f85149" font-size="11" font-weight="600" font-family="-apple-system,BlinkMacSystemFont,Segoe UI,Helvetica,Arial,sans-serif">115</text>
  <line x1="55" y1="368" x2="71" y2="368" stroke="#f78166" stroke-width="2.5" stroke-linecap="round"/>
  <text x="77" y="372" fill="#8b949e" font-size="11" font-family="-apple-system,BlinkMacSystemFont,Segoe UI,Helvetica,Arial,sans-serif">Repos</text>
  <line x1="255" y1="368" x2="271" y2="368" stroke="#58a6ff" stroke-width="2.5" stroke-linecap="round"/>
  <text x="277" y="372" fill="#8b949e" font-size="11" font-family="-apple-system,BlinkMacSystemFont,Segoe UI,Helvetica,Arial,sans-serif">PRs Opened</text>
  <line x1="455" y1="368" x2="471" y2="368" stroke="#3fb950" stroke-width="2.5" stroke-linecap="round"/>
  <text x="477" y="372" fill="#8b949e" font-size="11" font-family="-apple-system,BlinkMacSystemFont,Segoe UI,Helvetica,Arial,sans-serif">Open PRs</text>
  <line x1="55" y1="386" x2="71" y2="386" stroke="#d2a8ff" stroke-width="2.5" stroke-linecap="round"/>
  <text x="77" y="390" fill="#8b949e" font-size="11" font-family="-apple-system,BlinkMacSystemFont,Segoe UI,Helvetica,Arial,sans-serif">Merged</text>
  <line x1="255" y1="386" x2="271" y2="386" stroke="#f85149" stroke-width="2.5" stroke-linecap="round"/>
  <text x="277" y="390" fill="#8b949e" font-size="11" font-family="-apple-system,BlinkMacSystemFont,Segoe UI,Helvetica,Arial,sans-serif">Closed</text>
</svg>