<svg xmlns="http://www.w3.org/2000/svg" viewBox="0 0 960 400" width="960" height="400">
  <defs>
    <linearGradient id="gR" x1="0" y1="0" x2="0" y2="1">
      <stop offset="0%" stop-color="#f78166" stop-opacity="0.25"/>
      <stop offset="100%" stop-color="#f78166" stop-opacity="0.02"/>
    </linearGradient>
    <linearGradient id="gO" x1="0" y1="0" x2="0" y2="1">
      <stop offset="0%" stop-color="#58a6ff" stop-opacity="0.25"/>
      <stop offset="100%" stop-color="#58a6ff" stop-opacity="0.02"/>
    </linearGradient>
    <linearGradient id="gOp" x1="0" y1="0" x2="0" y2="1">
      <stop offset="0%" stop-color="#3fb950" stop-opacity="0.25"/>
      <stop offset="100%" stop-color="#3fb950" stop-opacity="0.02"/>
    </linearGradient>
    <linearGradient id="gM" x1="0" y1="0" x2="0" y2="1">
      <stop offset="0%" stop-color="#d2a8ff" stop-opacity="0.25"/>
      <stop offset="100%" stop-color="#d2a8ff" stop-opacity="0.02"/>
    </linearGradient>
    <linearGradient id="gC" x1="0" y1="0" x2="0" y2="1">
      <stop offset="0%" stop-color="#f85149" stop-opacity="0.25"/>
      <stop offset="100%" stop-color="#f85149" stop-opacity="0.02"/>
    </linearGradient>
  </defs>
  <rect width="960" height="400" rx="12" fill="#0d1117"/>
  <rect width="960" height="400" rx="12" fill="none" stroke="#30363d" stroke-width="1"/>
  <text x="55" y="30" fill="#e6edf3" font-size="15" font-weight="600" font-family="-apple-system,BlinkMacSystemFont,Segoe UI,Helvetica,Arial,sans-serif">GitHub Activity — jlaportebot</text>
  <text x="880" y="30" fill="#8b949e" font-size="11" text-anchor="end" font-family="-apple-system,BlinkMacSystemFont,Segoe UI,Helvetica,Arial,sans-serif">Updated Sep 05, 2026</text>
  <line x1="55" y1="340.0" x2="880" y2="340.0" stroke="#21262d" stroke-width="1"/>
  <text x="47" y="344.0" fill="#8b949e" font-size="11" text-anchor="end" font-family="-apple-system,BlinkMacSystemFont,Segoe UI,Helvetica,Arial,sans-serif">0</text>
  <line x1="55" y1="330.5" x2="880" y2="330.5" stroke="#21262d" stroke-width="1"/>
  <text x="47" y="334.5" fill="#8b949e" font-size="11" text-anchor="end" font-family="-apple-system,BlinkMacSystemFont,Segoe UI,Helvetica,Arial,sans-serif">10</text>
  <line x1="55" y1="320.9" x2="880" y2="320.9" stroke="#21262d" stroke-width="1"/>
  <text x="47" y="324.9" fill="#8b949e" font-size="11" text-anchor="end" font-family="-apple-system,BlinkMacSystemFont,Segoe UI,Helvetica,Arial,sans-serif">20</text>
  <line x1="55" y1="311.4" x2="880" y2="311.4" stroke="#21262d" stroke-width="1"/>
  <text x="47" y="315.4" fill="#8b949e" font-size="11" text-anchor="end" font-family="-apple-system,BlinkMacSystemFont,Segoe UI,Helvetica,Arial,sans-serif">30</text>
  <line x1="55" y1="301.8" x2="880" y2="301.8" stroke="#21262d" stroke-width="1"/>
  <text x="47" y="305.8" fill="#8b949e" font-size="11" text-anchor="end" font-family="-apple-system,BlinkMacSystemFont,Segoe UI,Helvetica,Arial,sans-serif">40</text>
  <line x1="55" y1="292.3" x2="880" y2="292.3" stroke="#21262d" stroke-width="1"/>
  <text x="47" y="296.3" fill="#8b949e" font-size="11" text-anchor="end" font-family="-apple-system,BlinkMacSystemFont,Segoe UI,Helvetica,Arial,sans-serif">50</text>
  <line x1="55" y1="282.8" x2="880" y2="282.8" stroke="#21262d" stroke-width="1"/>
  <text x="47" y="286.8" fill="#8b949e" font-size="11" text-anchor="end" font-family="-apple-system,BlinkMacSystemFont,Segoe UI,Helvetica,Arial,sans-serif">60</text>
  <line x1="55" y1="273.2" x2="880" y2="273.2" stroke="#21262d" stroke-width="1"/>
  <text x="47" y="277.2" fill="#8b949e" font-size="11" text-anchor="end" font-family="-apple-system,BlinkMacSystemFont,Segoe UI,Helvetica,Arial,sans-serif">70</text>
  <line x1="55" y1="263.7" x2="880" y2="263.7" stroke="#21262d" stroke-width="1"/>
  <text x="47" y="267.7" fill="#8b949e" font-size="11" text-anchor="end" font-family="-apple-system,BlinkMacSystemFont,Segoe UI,Helvetica,Arial,sans-serif">80</text>
  <line x1="55" y1="254.1" x2="880" y2="254.1" stroke="#21262d" stroke-width="1"/>
  <text x="47" y="258.1" fill="#8b949e" font-size="11" text-anchor="end" font-family="-apple-system,BlinkMacSystemFont,Segoe UI,Helvetica,Arial,sans-serif">90</text>
  <line x1="55" y1="244.6" x2="880" y2="244.6" stroke="#21262d" stroke-width="1"/>
  <text x="47" y="248.6" fill="#8b949e" font-size="11" text-anchor="end" font-family="-apple-system,BlinkMacSystemFont,Segoe UI,Helvetica,Arial,sans-serif">100</text>
  <line x1="55" y1="235.1" x2="880" y2="235.1" stroke="#21262d" stroke-width="1"/>
  <text x="47" y="239.1" fill="#8b949e" font-size="11" text-anchor="end" font-family="-apple-system,BlinkMacSystemFont,Segoe UI,Helvetica,Arial,sans-serif">110</text>
  <line x1="55" y1="225.5" x2="880" y2="225.5" stroke="#21262d" stroke-width="1"/>
  <text x="47" y="229.5" fill="#8b949e" font-size="11" text-anchor="end" font-family="-apple-system,BlinkMacSystemFont,Segoe UI,Helvetica,Arial,sans-serif">120</text>
  <line x1="55" y1="216.0" x2="880" y2="216.0" stroke="#21262d" stroke-width="1"/>
  <text x="47" y="220.0" fill="#8b949e" font-size="11" text-anchor="end" font-family="-apple-system,BlinkMacSystemFont,Segoe UI,Helvetica,Arial,sans-serif">130</text>
  <line x1="55" y1="206.4" x2="880" y2="206.4" stroke="#21262d" stroke-width="1"/>
  <text x="47" y="210.4" fill="#8b949e" font-size="11" text-anchor="end" font-family="-apple-system,BlinkMacSystemFont,Segoe UI,Helvetica,Arial,sans-serif">140</text>
  <line x1="55" y1="196.9" x2="880" y2="196.9" stroke="#21262d" stroke-width="1"/>
  <text x="47" y="200.9" fill="#8b949e" font-size="11" text-anchor="end" font-family="-apple-system,BlinkMacSystemFont,Segoe UI,Helvetica,Arial,sans-serif">150</text>
  <line x1="55" y1="187.4" x2="880" y2="187.4" stroke="#21262d" stroke-width="1"/>
  <text x="47" y="191.4" fill="#8b949e" font-size="11" text-anchor="end" font-family="-apple-system,BlinkMacSystemFont,Segoe UI,Helvetica,Arial,sans-serif">160</text>
  <line x1="55" y1="177.8" x2="880" y2="177.8" stroke="#21262d" stroke-width="1"/>
  <text x="47" y="181.8" fill="#8b949e" font-size="11" text-anchor="end" font-family="-apple-system,BlinkMacSystemFont,Segoe UI,Helvetica,Arial,sans-serif">170</text>
  <line x1="55" y1="168.3" x2="880" y2="168.3" stroke="#21262d" stroke-width="1"/>
  <text x="47" y="172.3" fill="#8b949e" font-size="11" text-anchor="end" font-family="-apple-system,BlinkMacSystemFont,Segoe UI,Helvetica,Arial,sans-serif">180</text>
  <line x1="55" y1="158.8" x2="880" y2="158.8" stroke="#21262d" stroke-width="1"/>
  <text x="47" y="162.8" fill="#8b949e" font-size="11" text-anchor="end" font-family="-apple-system,BlinkMacSystemFont,Segoe UI,Helvetica,Arial,sans-serif">190</text>
  <line x1="55" y1="149.2" x2="880" y2="149.2" stroke="#21262d" stroke-width="1"/>
  <text x="47" y="153.2" fill="#8b949e" font-size="11" text-anchor="end" font-family="-apple-system,BlinkMacSystemFont,Segoe UI,Helvetica,Arial,sans-serif">200</text>
  <line x1="55" y1="139.7" x2="880" y2="139.7" stroke="#21262d" stroke-width="1"/>
  <text x="47" y="143.7" fill="#8b949e" font-size="11" text-anchor="end" font-family="-apple-system,BlinkMacSystemFont,Segoe UI,Helvetica,Arial,sans-serif">210</text>
  <line x1="55" y1="130.1" x2="880" y2="130.1" stroke="#21262d" stroke-width="1"/>
  <text x="47" y="134.1" fill="#8b949e" font-size="11" text-anchor="end" font-family="-apple-system,BlinkMacSystemFont,Segoe UI,Helvetica,Arial,sans-serif">220</text>
  <line x1="55" y1="120.6" x2="880" y2="120.6" stroke="#21262d" stroke-width="1"/>
  <text x="47" y="124.6" fill="#8b949e" font-size="11" text-anchor="end" font-family="-apple-system,BlinkMacSystemFont,Segoe UI,Helvetica,Arial,sans-serif">230</text>
  <line x1="55" y1="111.1" x2="880" y2="111.1" stroke="#21262d" stroke-width="1"/>
  <text x="47" y="115.1" fill="#8b949e" font-size="11" text-anchor="end" font-family="-apple-system,BlinkMacSystemFont,Segoe UI,Helvetica,Arial,sans-serif">240</text>
  <line x1="55" y1="101.5" x2="880" y2="101.5" stroke="#21262d" stroke-width="1"/>
  <text x="47" y="105.5" fill="#8b949e" font-size="11" text-anchor="end" font-family="-apple-system,BlinkMacSystemFont,Segoe UI,Helvetica,Arial,sans-serif">250</text>
  <line x1="55" y1="92.0" x2="880" y2="92.0" stroke="#21262d" stroke-width="1"/>
  <text x="47" y="96.0" fill="#8b949e" font-size="11" text-anchor="end" font-family="-apple-system,BlinkMacSystemFont,Segoe UI,Helvetica,Arial,sans-serif">260</text>
  <line x1="55" y1="82.4" x2="880" y2="82.4" stroke="#21262d" stroke-width="1"/>
  <text x="47" y="86.4" fill="#8b949e" font-size="11" text-anchor="end" font-family="-apple-system,BlinkMacSystemFont,Segoe UI,Helvetica,Arial,sans-serif">270</text>
  <line x1="55" y1="72.9" x2="880" y2="72.9" stroke="#21262d" stroke-width="1"/>
  <text x="47" y="76.9" fill="#8b949e" font-size="11" text-anchor="end" font-family="-apple-system,BlinkMacSystemFont,Segoe UI,Helvetica,Arial,sans-serif">280</text>
  <line x1="55" y1="63.4" x2="880" y2="63.4" stroke="#21262d" stroke-width="1"/>
  <text x="47" y="67.4" fill="#8b949e" font-size="11" text-anchor="end" font-family="-apple-system,BlinkMacSystemFont,Segoe UI,Helvetica,Arial,sans-serif">290</text>
  <line x1="55" y1="53.8" x2="880" y2="53.8" stroke="#21262d" stroke-width="1"/>
  <text x="47" y="57.8" fill="#8b949e" font-size="11" text-anchor="end" font-family="-apple-system,BlinkMacSystemFont,Segoe UI,Helvetica,Arial,sans-serif">300</text>
  <line x1="55.0" y1="50" x2="55.0" y2="340" stroke="#21262d" stroke-width="1" stroke-dasharray="4,4"/>
  <text x="55.0" y="360" fill="#8b949e" font-size="10" text-anchor="middle" font-family="-apple-system,BlinkMacSystemFont,Segoe UI,Helvetica,Arial,sans-serif">May 02</text>
  <line x1="172.9" y1="50" x2="172.9" y2="340" stroke="#21262d" stroke-width="1" stroke-dasharray="4,4"/>
  <text x="172.9" y="360" fill="#8b949e" font-size="10" text-anchor="middle" font-family="-apple-system,BlinkMacSystemFont,Segoe UI,Helvetica,Arial,sans-serif">May 20</text>
  <line x1="290.7" y1="50" x2="290.7" y2="340" stroke="#21262d" stroke-width="1" stroke-dasharray="4,4"/>
  <text x="290.7" y="360" fill="#8b949e" font-size="10" text-anchor="middle" font-family="-apple-system,BlinkMacSystemFont,Segoe UI,Helvetica,Arial,sans-serif">Jun 07</text>
  <line x1="408.6" y1="50" x2="408.6" y2="340" stroke="#21262d" stroke-width="1" stroke-dasharray="4,4"/>
  <text x="408.6" y="360" fill="#8b949e" font-size="10" text-anchor="middle" font-family="-apple-system,BlinkMacSystemFont,Segoe UI,Helvetica,Arial,sans-serif">Jun 25</text>
  <line x1="526.4" y1="50" x2="526.4" y2="340" stroke="#21262d" stroke-width="1" stroke-dasharray="4,4"/>
  <text x="526.4" y="360" fill="#8b949e" font-size="10" text-anchor="middle" font-family="-apple-system,BlinkMacSystemFont,Segoe UI,Helvetica,Arial,sans-serif">Jul 13</text>
  <line x1="644.3" y1="50" x2="644.3" y2="340" stroke="#21262d" stroke-width="1" stroke-dasharray="4,4"/>
  <text x="644.3" y="360" fill="#8b949e" font-size="10" text-anchor="middle" font-family="-apple-system,BlinkMacSystemFont,Segoe UI,Helvetica,Arial,sans-serif">Jul 31</text>
  <line x1="762.1" y1="50" x2="762.1" y2="340" stroke="#21262d" stroke-width="1" stroke-dasharray="4,4"/>
  <text x="762.1" y="360" fill="#8b949e" font-size="10" text-anchor="middle" font-family="-apple-system,BlinkMacSystemFont,Segoe UI,Helvetica,Arial,sans-serif">Aug 18</text>
  <line x1="880.0" y1="50" x2="880.0" y2="340" stroke="#21262d" stroke-width="1" stroke-dasharray="4,4"/>
  <text x="880.0" y="360" fill="#8b949e" font-size="10" text-anchor="middle" font-family="-apple-system,BlinkMacSystemFont,Segoe UI,Helvetica,Arial,sans-serif">Sep 05</text>
  <path d="M55.0,340.0L61.5,328.6L68.1,321.9L74.6,318.1L81.2,312.3L87.7,308.5L94.3,305.7L100.8,305.7L107.4,305.7L113.9,305.7L120.5,305.7L127.0,305.7L133.6,305.7L140.1,305.7L146.7,304.7L153.2,300.9L159.8,297.1L166.3,292.3L172.9,286.6L179.4,280.9L186.0,275.1L192.5,270.4L199.0,266.5L205.6,264.6L212.1,261.8L218.7,251.3L225.2,250.3L231.8,245.6L238.3,238.9L244.9,234.1L251.4,230.3L258.0,230.3L264.5,230.3L271.1,230.3L277.6,230.3L284.2,230.3L290.7,224.6L297.3,216.9L303.8,214.1L310.4,208.4L316.9,204.5L323.5,198.8L330.0,190.2L336.5,185.5L343.1,180.7L349.6,175.9L356.2,167.3L362.7,161.6L369.3,154.0L375.8,148.3L382.4,143.5L388.9,139.7L395.5,133.9L402.0,127.3L408.6,123.5L415.1,120.6L421.7,113.9L428.2,108.2L434.8,100.6L441.3,100.6L447.9,98.7L454.4,98.7L461.0,98.7L467.5,96.7L474.0,93.9L480.6,91.0L487.1,90.1L493.7,85.3L500.2,85.3L506.8,85.3L513.3,85.3L519.9,85.3L526.4,85.3L533.0,85.3L539.5,85.3L546.1,85.3L552.6,85.3L559.2,85.3L565.7,83.4L572.3,83.4L578.8,80.5L585.4,77.7L591.9,77.7L598.5,77.7L605.0,77.7L611.5,77.7L618.1,77.7L624.6,77.7L631.2,77.7L637.7,77.7L644.3,77.7L650.8,77.7L657.4,77.7L663.9,77.7L670.5,77.7L677.0,77.7L683.6,77.7L690.1,73.8L696.7,73.8L703.2,63.4L709.8,54.8L716.3,54.8L722.9,54.8L729.4,54.8L736.0,54.8L742.5,54.8L749.0,54.8L755.6,54.8L762.1,54.8L768.7,54.8L775.2,54.8L781.8,54.8L788.3,54.8L794.9,54.8L801.4,54.8L808.0,54.8L814.5,54.8L821.1,54.8L827.6,54.8L834.2,54.8L840.7,54.8L847.3,54.8L853.8,54.8L860.4,54.8L866.9,54.8L873.5,54.8L880.0,54.8L880.0,340.0L55.0,340.0Z" fill="url(#gO)"/>
  <path d="M55.0,339.0L61.5,339.0L68.1,339.0L74.6,339.0L81.2,339.0L87.7,339.0L94.3,339.0L100.8,339.0L107.4,339.0L113.9,339.0L120.5,339.0L127.0,339.0L133.6,339.0L140.1,339.0L146.7,339.0L153.2,336.2L159.8,336.2L166.3,336.2L172.9,336.2L179.4,336.2L186.0,336.2L192.5,336.2L199.0,335.2L205.6,332.4L212.1,332.4L218.7,331.4L225.2,331.4L231.8,331.4L238.3,331.4L244.9,331.4L251.4,329.5L258.0,329.5L264.5,329.5L271.1,329.5L277.6,329.5L284.2,329.5L290.7,329.5L297.3,327.6L303.8,316.2L310.4,316.2L316.9,316.2L323.5,316.2L330.0,308.5L336.5,308.5L343.1,308.5L349.6,308.5L356.2,308.5L362.7,306.6L369.3,306.6L375.8,305.7L382.4,304.7L388.9,303.8L395.5,302.8L402.0,300.9L408.6,297.1L415.1,296.1L421.7,295.2L428.2,295.2L434.8,295.2L441.3,295.2L447.9,295.2L454.4,295.2L461.0,295.2L467.5,295.2L474.0,295.2L480.6,295.2L487.1,295.2L493.7,295.2L500.2,294.2L506.8,293.3L513.3,290.4L519.9,290.4L526.4,289.4L533.0,289.4L539.5,289.4L546.1,289.4L552.6,289.4L559.2,289.4L565.7,289.4L572.3,289.4L578.8,289.4L585.4,288.5L591.9,288.5L598.5,288.5L605.0,287.5L611.5,286.6L618.1,286.6L624.6,286.6L631.2,286.6L637.7,286.6L644.3,286.6L650.8,286.6L657.4,286.6L663.9,285.6L670.5,285.6L677.0,285.6L683.6,285.6L690.1,285.6L696.7,285.6L703.2,276.1L709.8,273.2L716.3,273.2L722.9,273.2L729.4,273.2L736.0,273.2L742.5,273.2L749.0,273.2L755.6,273.2L762.1,273.2L768.7,273.2L775.2,273.2L781.8,273.2L788.3,273.2L794.9,273.2L801.4,273.2L808.0,273.2L814.5,273.2L821.1,273.2L827.6,273.2L834.2,273.2L840.7,272.3L847.3,272.3L853.8,272.3L860.4,272.3L866.9,272.3L873.5,272.3L880.0,272.3L880.0,340.0L55.0,340.0Z" fill="url(#gR)"/>
  <path d="M55.0,340.0L61.5,328.6L68.1,321.9L74.6,318.1L81.2,312.3L87.7,308.5L94.3,305.7L100.8,305.7L107.4,305.7L113.9,305.7L120.5,305.7L127.0,305.7L133.6,305.7L140.1,305.7L146.7,304.7L153.2,300.9L159.8,297.1L166.3,292.3L172.9,286.6L179.4,280.9L186.0,275.1L192.5,270.4L199.0,266.5L205.6,264.6L212.1,261.8L218.7,251.3L225.2,250.3L231.8,245.6L238.3,238.9L244.9,234.1L251.4,230.3L258.0,230.3L264.5,230.3L271.1,230.3L277.6,230.3L284.2,230.3L290.7,224.6L297.3,216.9L303.8,214.1L310.4,208.4L316.9,204.5L323.5,198.8L330.0,190.2L336.5,185.5L343.1,180.7L349.6,175.9L356.2,167.3L362.7,161.6L369.3,154.0L375.8,148.3L382.4,143.5L388.9,139.7L395.5,133.9L402.0,127.3L408.6,123.5L415.1,120.6L421.7,113.9L428.2,108.2L434.8,100.6L441.3,100.6L447.9,98.7L454.4,98.7L461.0,98.7L467.5,96.7L474.0,93.9L480.6,91.0L487.1,90.1L493.7,85.3L500.2,85.3L506.8,85.3L513.3,85.3L519.9,85.3L526.4,85.3L533.0,85.3L539.5,85.3L546.1,85.3L552.6,85.3L559.2,85.3L565.7,83.4L572.3,83.4L578.8,80.5L585.4,77.7L591.9,77.7L598.5,77.7L605.0,77.7L611.5,77.7L618.1,77.7L624.6,77.7L631.2,77.7L637.7,77.7L644.3,77.7L650.8,77.7L657.4,77.7L663.9,77.7L670.5,77.7L677.0,77.7L683.6,77.7L690.1,73.8L696.7,73.8L703.2,63.4L709.8,54.8L716.3,54.8L722.9,54.8L729.4,54.8L736.0,54.8L742.5,54.8L749.0,54.8L755.6,54.8L762.1,54.8L768.7,54.8L775.2,54.8L781.8,54.8L788.3,54.8L794.9,54.8L801.4,54.8L808.0,54.8L814.5,54.8L821.1,54.8L827.6,54.8L834.2,54.8L840.7,54.8L847.3,54.8L853.8,54.8L860.4,54.8L866.9,54.8L873.5,54.8L880.0,54.8" fill="none" stroke="#58a6ff" stroke-width="2.5" stroke-linecap="round" stroke-linejoin="round"/>
  <path d="M55.0,339.0L61.5,339.0L68.1,339.0L74.6,339.0L81.2,339.0L87.7,339.0L94.3,339.0L100.8,339.0L107.4,339.0L113.9,339.0L120.5,339.0L127.0,339.0L133.6,339.0L140.1,339.0L146.7,339.0L153.2,336.2L159.8,336.2L166.3,336.2L172.9,336.2L179.4,336.2L186.0,336.2L192.5,336.2L199.0,335.2L205.6,332.4L212.1,332.4L218.7,331.4L225.2,331.4L231.8,331.4L238.3,331.4L244.9,331.4L251.4,329.5L258.0,329.5L264.5,329.5L271.1,329.5L277.6,329.5L284.2,329.5L290.7,329.5L297.3,327.6L303.8,316.2L310.4,316.2L316.9,316.2L323.5,316.2L330.0,308.5L336.5,308.5L343.1,308.5L349.6,308.5L356.2,308.5L362.7,306.6L369.3,306.6L375.8,305.7L382.4,304.7L388.9,303.8L395.5,302.8L402.0,300.9L408.6,297.1L415.1,296.1L421.7,295.2L428.2,295.2L434.8,295.2L441.3,295.2L447.9,295.2L454.4,295.2L461.0,295.2L467.5,295.2L474.0,295.2L480.6,295.2L487.1,295.2L493.7,295.2L500.2,294.2L506.8,293.3L513.3,290.4L519.9,290.4L526.4,289.4L533.0,289.4L539.5,289.4L546.1,289.4L552.6,289.4L559.2,289.4L565.7,289.4L572.3,289.4L578.8,289.4L585.4,288.5L591.9,288.5L598.5,288.5L605.0,287.5L611.5,286.6L618.1,286.6L624.6,286.6L631.2,286.6L637.7,286.6L644.3,286.6L650.8,286.6L657.4,286.6L663.9,285.6L670.5,285.6L677.0,285.6L683.6,285.6L690.1,285.6L696.7,285.6L703.2,276.1L709.8,273.2L716.3,273.2L722.9,273.2L729.4,273.2L736.0,273.2L742.5,273.2L749.0,273.2L755.6,273.2L762.1,273.2L768.7,273.2L775.2,273.2L781.8,273.2L788.3,273.2L794.9,273.2L801.4,273.2L808.0,273.2L814.5,273.2L821.1,273.2L827.6,273.2L834.2,273.2L840.7,272.3L847.3,272.3L853.8,272.3L860.4,272.3L866.9,272.3L873.5,272.3L880.0,272.3" fill="none" stroke="#f78166" stroke-width="2.5" stroke-linecap="round" stroke-linejoin="round"/>
  <path d="M55.0,340.0L61.5,333.3L68.1,328.6L74.6,326.6L81.2,321.9L87.7,322.8L94.3,320.0L100.8,320.9L107.4,320.9L113.9,321.9L120.5,321.9L127.0,321.9L133.6,321.9L140.1,321.9L146.7,320.9L153.2,320.0L159.8,319.0L166.3,316.2L172.9,310.4L179.4,306.6L186.0,302.8L192.5,299.9L199.0,299.9L205.6,300.9L212.1,302.8L218.7,299.0L225.2,298.0L231.8,298.0L238.3,295.2L244.9,299.9L251.4,297.1L258.0,297.1L264.5,297.1L271.1,297.1L277.6,302.8L284.2,302.8L290.7,301.8L297.3,306.6L303.8,340.0L310.4,340.0L316.9,340.0L323.5,340.0L330.0,336.2L336.5,336.2L343.1,334.3L349.6,334.3L356.2,333.3L362.7,330.5L369.3,331.4L375.8,329.5L382.4,329.5L388.9,331.4L395.5,330.5L402.0,331.4L408.6,328.6L415.1,329.5L421.7,329.5L428.2,324.7L434.8,321.9L441.3,321.9L447.9,322.8L454.4,325.7L461.0,325.7L467.5,324.7L474.0,323.8L480.6,323.8L487.1,322.8L493.7,320.9L500.2,320.9L506.8,320.9L513.3,320.9L519.9,320.9L526.4,320.9L533.0,320.9L539.5,320.9L546.1,320.9L552.6,320.9L559.2,320.9L565.7,320.9L572.3,320.9L578.8,320.9L585.4,320.9L591.9,320.9L598.5,320.9L605.0,320.9L611.5,320.9L618.1,320.9L624.6,322.8L631.2,322.8L637.7,323.8L644.3,323.8L650.8,323.8L657.4,323.8L663.9,323.8L670.5,323.8L677.0,323.8L683.6,323.8L690.1,326.6L696.7,329.5L703.2,324.7L709.8,326.6L716.3,326.6L722.9,326.6L729.4,326.6L736.0,326.6L742.5,326.6L749.0,326.6L755.6,326.6L762.1,326.6L768.7,326.6L775.2,326.6L781.8,326.6L788.3,326.6L794.9,326.6L801.4,326.6L808.0,326.6L814.5,326.6L821.1,326.6L827.6,326.6L834.2,326.6L840.7,326.6L847.3,326.6L853.8,326.6L860.4,326.6L866.9,326.6L873.5,326.6L880.0,326.6" fill="none" stroke="#3fb950" stroke-width="2.5" stroke-linecap="round" stroke-linejoin="round"/>
  <path d="M55.0,340.0L61.5,340.0L68.1,339.0L74.6,338.1L81.2,338.1L87.7,337.1L94.3,337.1L100.8,336.2L107.4,336.2L113.9,336.2L120.5,336.2L127.0,336.2L133.6,336.2L140.1,336.2L146.7,336.2L153.2,335.2L159.8,333.3L166.3,332.4L172.9,332.4L179.4,332.4L186.0,330.5L192.5,330.5L199.0,330.5L205.6,329.5L212.1,329.5L218.7,323.8L225.2,323.8L231.8,320.0L238.3,317.1L244.9,313.3L251.4,312.3L258.0,312.3L264.5,312.3L271.1,312.3L277.6,310.4L284.2,310.4L290.7,308.5L297.3,305.7L303.8,303.8L310.4,298.0L316.9,294.2L323.5,288.5L330.0,285.6L336.5,281.8L343.1,279.9L349.6,275.1L356.2,267.5L362.7,264.6L369.3,258.9L375.8,256.1L382.4,251.3L388.9,245.6L395.5,240.8L402.0,233.2L408.6,232.2L415.1,230.3L421.7,225.5L428.2,225.5L434.8,220.8L441.3,220.8L447.9,218.8L454.4,218.8L461.0,218.8L467.5,218.8L474.0,217.9L480.6,216.0L487.1,216.0L493.7,214.1L500.2,214.1L506.8,214.1L513.3,214.1L519.9,214.1L526.4,214.1L533.0,214.1L539.5,214.1L546.1,214.1L552.6,214.1L559.2,214.1L565.7,212.2L572.3,212.2L578.8,209.3L585.4,206.4L591.9,206.4L598.5,206.4L605.0,206.4L611.5,206.4L618.1,206.4L624.6,206.4L631.2,206.4L637.7,206.4L644.3,206.4L650.8,206.4L657.4,206.4L663.9,206.4L670.5,206.4L677.0,206.4L683.6,206.4L690.1,205.5L696.7,205.5L703.2,205.5L709.8,201.7L716.3,201.7L722.9,201.7L729.4,201.7L736.0,201.7L742.5,201.7L749.0,201.7L755.6,201.7L762.1,201.7L768.7,201.7L775.2,201.7L781.8,201.7L788.3,201.7L794.9,201.7L801.4,201.7L808.0,201.7L814.5,201.7L821.1,201.7L827.6,201.7L834.2,201.7L840.7,201.7L847.3,201.7L853.8,201.7L860.4,201.7L866.9,201.7L873.5,201.7L880.0,201.7" fill="none" stroke="#d2a8ff" stroke-width="2.5" stroke-linecap="round" stroke-linejoin="round"/>
  <path d="M55.0,340.0L61.5,335.2L68.1,334.3L74.6,333.3L81.2,332.4L87.7,328.6L94.3,328.6L100.8,328.6L107.4,328.6L113.9,327.6L120.5,327.6L127.0,327.6L133.6,327.6L140.1,327.6L146.7,327.6L153.2,325.7L159.8,324.7L166.3,323.8L172.9,323.8L179.4,321.9L186.0,321.9L192.5,320.0L199.0,316.2L205.6,314.2L212.1,309.5L218.7,308.5L225.2,308.5L231.8,307.6L238.3,306.6L244.9,300.9L251.4,300.9L258.0,300.9L264.5,300.9L271.1,300.9L277.6,297.1L284.2,297.1L290.7,294.2L297.3,284.7L303.8,250.3L310.4,250.3L316.9,250.3L323.5,250.3L330.0,248.4L336.5,247.5L343.1,246.5L349.6,246.5L356.2,246.5L362.7,246.5L369.3,243.7L375.8,242.7L382.4,242.7L388.9,242.7L395.5,242.7L402.0,242.7L408.6,242.7L415.1,240.8L421.7,238.9L428.2,237.9L434.8,237.9L441.3,237.9L447.9,237.0L454.4,234.1L461.0,234.1L467.5,233.2L474.0,232.2L480.6,231.2L487.1,231.2L493.7,230.3L500.2,230.3L506.8,230.3L513.3,230.3L519.9,230.3L526.4,230.3L533.0,230.3L539.5,230.3L546.1,230.3L552.6,230.3L559.2,230.3L565.7,230.3L572.3,230.3L578.8,230.3L585.4,230.3L591.9,230.3L598.5,230.3L605.0,230.3L611.5,230.3L618.1,230.3L624.6,228.4L631.2,228.4L637.7,227.4L644.3,227.4L650.8,227.4L657.4,227.4L663.9,227.4L670.5,227.4L677.0,227.4L683.6,227.4L690.1,221.7L696.7,218.8L703.2,213.1L709.8,206.4L716.3,206.4L722.9,206.4L729.4,206.4L736.0,206.4L742.5,206.4L749.0,206.4L755.6,206.4L762.1,206.4L768.7,206.4L775.2,206.4L781.8,206.4L788.3,206.4L794.9,206.4L801.4,206.4L808.0,206.4L814.5,206.4L821.1,206.4L827.6,206.4L834.2,206.4L840.7,206.4L847.3,206.4L853.8,206.4L860.4,206.4L866.9,206.4L873.5,206.4L880.0,206.4" fill="none" stroke="#f85149" stroke-width="2.5" stroke-linecap="round" stroke-linejoin="round"/>
  <circle cx="880.0" cy="54.8" r="3.5" fill="#58a6ff"/>
  <text x="889.0" y="58.8" fill="#58a6ff" font-size="11" font-weight="600" font-family="-apple-system,BlinkMacSystemFont,Segoe UI,Helvetica,Arial,sans-serif">299</text>
  <circle cx="880.0" cy="272.3" r="3.5" fill="#f78166"/>
  <text x="889.0" y="276.3" fill="#f78166" font-size="11" font-weight="600" font-family="-apple-system,BlinkMacSystemFont,Segoe UI,Helvetica,Arial,sans-serif">71</text>
  <circle cx="880.0" cy="326.6" r="3.5" fill="#3fb950"/>
  <text x="889.0" y="330.6" fill="#3fb950" font-size="11" font-weight="600" font-family="-apple-system,BlinkMacSystemFont,Segoe UI,Helvetica,Arial,sans-serif">14</text>
  <circle cx="880.0" cy="201.7" r="3.5" fill="#d2a8ff"/>
  <text x="889.0" y="205.7" fill="#d2a8ff" font-size="11" font-weight="600" font-family="-apple-system,BlinkMacSystemFont,Segoe UI,Helvetica,Arial,sans-serif">145</text>
  <circle cx="880.0" cy="206.4" r="3.5" fill="#f85149"/>
  <text x="889.0" y="210.4" fill="#f85149" font-size="11" font-weight="600" font-family="-apple-system,BlinkMacSystemFont,Segoe UI,Helvetica,Arial,sans-serif">140</text>
  <line x1="55" y1="368" x2="71" y2="368" stroke="#f78166" stroke-width="2.5" stroke-linecap="round"/>
  <text x="77" y="372" fill="#8b949e" font-size="11" font-family="-apple-system,BlinkMacSystemFont,Segoe UI,Helvetica,Arial,sans-serif">Repos</text>
  <line x1="255" y1="368" x2="271" y2="368" stroke="#58a6ff" stroke-width="2.5" stroke-linecap="round"/>
  <text x="277" y="372" fill="#8b949e" font-size="11" font-family="-apple-system,BlinkMacSystemFont,Segoe UI,Helvetica,Arial,sans-serif">PRs Opened</text>
  <line x1="455" y1="368" x2="471" y2="368" stroke="#3fb950" stroke-width="2.5" stroke-linecap="round"/>
  <text x="477" y="372" fill="#8b949e" font-size="11" font-family="-apple-system,BlinkMacSystemFont,Segoe UI,Helvetica,Arial,sans-serif">Open PRs</text>
  <line x1="55" y1="386" x2="71" y2="386" stroke="#d2a8ff" stroke-width="2.5" stroke-linecap="round"/>
  <text x="77" y="390" fill="#8b949e" font-size="11" font-family="-apple-system,BlinkMacSystemFont,Segoe UI,Helvetica,Arial,sans-serif">Merged</text>
  <line x1="255" y1="386" x2="271" y2="386" stroke="#f85149" stroke-width="2.5" stroke-linecap="round"/>
  <text x="277" y="390" fill="#8b949e" font-size="11" font-family="-apple-system,BlinkMacSystemFont,Segoe UI,Helvetica,Arial,sans-serif">Closed</text>
</svg>