<svg xmlns="http://www.w3.org/2000/svg" viewBox="0 0 960 400" width="960" height="400">
  <defs>
    <linearGradient id="gR" x1="0" y1="0" x2="0" y2="1">
      <stop offset="0%" stop-color="#f78166" stop-opacity="0.25"/>
      <stop offset="100%" stop-color="#f78166" stop-opacity="0.02"/>
    </linearGradient>
    <linearGradient id="gO" x1="0" y1="0" x2="0" y2="1">
      <stop offset="0%" stop-color="#58a6ff" stop-opacity="0.25"/>
      <stop offset="100%" stop-color="#58a6ff" stop-opacity="0.02"/>
    </linearGradient>
    <linearGradient id="gOp" x1="0" y1="0" x2="0" y2="1">
      <stop offset="0%" stop-color="#3fb950" stop-opacity="0.25"/>
      <stop offset="100%" stop-color="#3fb950" stop-opacity="0.02"/>
    </linearGradient>
    <linearGradient id="gM" x1="0" y1="0" x2="0" y2="1">
      <stop offset="0%" stop-color="#d2a8ff" stop-opacity="0.25"/>
      <stop offset="100%" stop-color="#d2a8ff" stop-opacity="0.02"/>
    </linearGradient>
    <linearGradient id="gC" x1="0" y1="0" x2="0" y2="1">
      <stop offset="0%" stop-color="#f85149" stop-opacity="0.25"/>
      <stop offset="100%" stop-color="#f85149" stop-opacity="0.02"/>
    </linearGradient>
  </defs>
  <rect width="960" height="400" rx="12" fill="#0d1117"/>
  <rect width="960" height="400" rx="12" fill="none" stroke="#30363d" stroke-width="1"/>
  <text x="55" y="30" fill="#e6edf3" font-size="15" font-weight="600" font-family="-apple-system,BlinkMacSystemFont,Segoe UI,Helvetica,Arial,sans-serif">GitHub Activity — jlaportebot</text>
  <text x="880" y="30" fill="#8b949e" font-size="11" text-anchor="end" font-family="-apple-system,BlinkMacSystemFont,Segoe UI,Helvetica,Arial,sans-serif">Updated Jul 14, 2026</text>
  <line x1="55" y1="340.0" x2="880" y2="340.0" stroke="#21262d" stroke-width="1"/>
  <text x="47" y="344.0" fill="#8b949e" font-size="11" text-anchor="end" font-family="-apple-system,BlinkMacSystemFont,Segoe UI,Helvetica,Arial,sans-serif">0</text>
  <line x1="55" y1="329.3" x2="880" y2="329.3" stroke="#21262d" stroke-width="1"/>
  <text x="47" y="333.3" fill="#8b949e" font-size="11" text-anchor="end" font-family="-apple-system,BlinkMacSystemFont,Segoe UI,Helvetica,Arial,sans-serif">10</text>
  <line x1="55" y1="318.7" x2="880" y2="318.7" stroke="#21262d" stroke-width="1"/>
  <text x="47" y="322.7" fill="#8b949e" font-size="11" text-anchor="end" font-family="-apple-system,BlinkMacSystemFont,Segoe UI,Helvetica,Arial,sans-serif">20</text>
  <line x1="55" y1="308.0" x2="880" y2="308.0" stroke="#21262d" stroke-width="1"/>
  <text x="47" y="312.0" fill="#8b949e" font-size="11" text-anchor="end" font-family="-apple-system,BlinkMacSystemFont,Segoe UI,Helvetica,Arial,sans-serif">30</text>
  <line x1="55" y1="297.4" x2="880" y2="297.4" stroke="#21262d" stroke-width="1"/>
  <text x="47" y="301.4" fill="#8b949e" font-size="11" text-anchor="end" font-family="-apple-system,BlinkMacSystemFont,Segoe UI,Helvetica,Arial,sans-serif">40</text>
  <line x1="55" y1="286.7" x2="880" y2="286.7" stroke="#21262d" stroke-width="1"/>
  <text x="47" y="290.7" fill="#8b949e" font-size="11" text-anchor="end" font-family="-apple-system,BlinkMacSystemFont,Segoe UI,Helvetica,Arial,sans-serif">50</text>
  <line x1="55" y1="276.0" x2="880" y2="276.0" stroke="#21262d" stroke-width="1"/>
  <text x="47" y="280.0" fill="#8b949e" font-size="11" text-anchor="end" font-family="-apple-system,BlinkMacSystemFont,Segoe UI,Helvetica,Arial,sans-serif">60</text>
  <line x1="55" y1="265.4" x2="880" y2="265.4" stroke="#21262d" stroke-width="1"/>
  <text x="47" y="269.4" fill="#8b949e" font-size="11" text-anchor="end" font-family="-apple-system,BlinkMacSystemFont,Segoe UI,Helvetica,Arial,sans-serif">70</text>
  <line x1="55" y1="254.7" x2="880" y2="254.7" stroke="#21262d" stroke-width="1"/>
  <text x="47" y="258.7" fill="#8b949e" font-size="11" text-anchor="end" font-family="-apple-system,BlinkMacSystemFont,Segoe UI,Helvetica,Arial,sans-serif">80</text>
  <line x1="55" y1="244.0" x2="880" y2="244.0" stroke="#21262d" stroke-width="1"/>
  <text x="47" y="248.0" fill="#8b949e" font-size="11" text-anchor="end" font-family="-apple-system,BlinkMacSystemFont,Segoe UI,Helvetica,Arial,sans-serif">90</text>
  <line x1="55" y1="233.4" x2="880" y2="233.4" stroke="#21262d" stroke-width="1"/>
  <text x="47" y="237.4" fill="#8b949e" font-size="11" text-anchor="end" font-family="-apple-system,BlinkMacSystemFont,Segoe UI,Helvetica,Arial,sans-serif">100</text>
  <line x1="55" y1="222.7" x2="880" y2="222.7" stroke="#21262d" stroke-width="1"/>
  <text x="47" y="226.7" fill="#8b949e" font-size="11" text-anchor="end" font-family="-apple-system,BlinkMacSystemFont,Segoe UI,Helvetica,Arial,sans-serif">110</text>
  <line x1="55" y1="212.1" x2="880" y2="212.1" stroke="#21262d" stroke-width="1"/>
  <text x="47" y="216.1" fill="#8b949e" font-size="11" text-anchor="end" font-family="-apple-system,BlinkMacSystemFont,Segoe UI,Helvetica,Arial,sans-serif">120</text>
  <line x1="55" y1="201.4" x2="880" y2="201.4" stroke="#21262d" stroke-width="1"/>
  <text x="47" y="205.4" fill="#8b949e" font-size="11" text-anchor="end" font-family="-apple-system,BlinkMacSystemFont,Segoe UI,Helvetica,Arial,sans-serif">130</text>
  <line x1="55" y1="190.7" x2="880" y2="190.7" stroke="#21262d" stroke-width="1"/>
  <text x="47" y="194.7" fill="#8b949e" font-size="11" text-anchor="end" font-family="-apple-system,BlinkMacSystemFont,Segoe UI,Helvetica,Arial,sans-serif">140</text>
  <line x1="55" y1="180.1" x2="880" y2="180.1" stroke="#21262d" stroke-width="1"/>
  <text x="47" y="184.1" fill="#8b949e" font-size="11" text-anchor="end" font-family="-apple-system,BlinkMacSystemFont,Segoe UI,Helvetica,Arial,sans-serif">150</text>
  <line x1="55" y1="169.4" x2="880" y2="169.4" stroke="#21262d" stroke-width="1"/>
  <text x="47" y="173.4" fill="#8b949e" font-size="11" text-anchor="end" font-family="-apple-system,BlinkMacSystemFont,Segoe UI,Helvetica,Arial,sans-serif">160</text>
  <line x1="55" y1="158.8" x2="880" y2="158.8" stroke="#21262d" stroke-width="1"/>
  <text x="47" y="162.8" fill="#8b949e" font-size="11" text-anchor="end" font-family="-apple-system,BlinkMacSystemFont,Segoe UI,Helvetica,Arial,sans-serif">170</text>
  <line x1="55" y1="148.1" x2="880" y2="148.1" stroke="#21262d" stroke-width="1"/>
  <text x="47" y="152.1" fill="#8b949e" font-size="11" text-anchor="end" font-family="-apple-system,BlinkMacSystemFont,Segoe UI,Helvetica,Arial,sans-serif">180</text>
  <line x1="55" y1="137.4" x2="880" y2="137.4" stroke="#21262d" stroke-width="1"/>
  <text x="47" y="141.4" fill="#8b949e" font-size="11" text-anchor="end" font-family="-apple-system,BlinkMacSystemFont,Segoe UI,Helvetica,Arial,sans-serif">190</text>
  <line x1="55" y1="126.8" x2="880" y2="126.8" stroke="#21262d" stroke-width="1"/>
  <text x="47" y="130.8" fill="#8b949e" font-size="11" text-anchor="end" font-family="-apple-system,BlinkMacSystemFont,Segoe UI,Helvetica,Arial,sans-serif">200</text>
  <line x1="55" y1="116.1" x2="880" y2="116.1" stroke="#21262d" stroke-width="1"/>
  <text x="47" y="120.1" fill="#8b949e" font-size="11" text-anchor="end" font-family="-apple-system,BlinkMacSystemFont,Segoe UI,Helvetica,Arial,sans-serif">210</text>
  <line x1="55" y1="105.4" x2="880" y2="105.4" stroke="#21262d" stroke-width="1"/>
  <text x="47" y="109.4" fill="#8b949e" font-size="11" text-anchor="end" font-family="-apple-system,BlinkMacSystemFont,Segoe UI,Helvetica,Arial,sans-serif">220</text>
  <line x1="55" y1="94.8" x2="880" y2="94.8" stroke="#21262d" stroke-width="1"/>
  <text x="47" y="98.8" fill="#8b949e" font-size="11" text-anchor="end" font-family="-apple-system,BlinkMacSystemFont,Segoe UI,Helvetica,Arial,sans-serif">230</text>
  <line x1="55" y1="84.1" x2="880" y2="84.1" stroke="#21262d" stroke-width="1"/>
  <text x="47" y="88.1" fill="#8b949e" font-size="11" text-anchor="end" font-family="-apple-system,BlinkMacSystemFont,Segoe UI,Helvetica,Arial,sans-serif">240</text>
  <line x1="55" y1="73.5" x2="880" y2="73.5" stroke="#21262d" stroke-width="1"/>
  <text x="47" y="77.5" fill="#8b949e" font-size="11" text-anchor="end" font-family="-apple-system,BlinkMacSystemFont,Segoe UI,Helvetica,Arial,sans-serif">250</text>
  <line x1="55" y1="62.8" x2="880" y2="62.8" stroke="#21262d" stroke-width="1"/>
  <text x="47" y="66.8" fill="#8b949e" font-size="11" text-anchor="end" font-family="-apple-system,BlinkMacSystemFont,Segoe UI,Helvetica,Arial,sans-serif">260</text>
  <line x1="55" y1="52.1" x2="880" y2="52.1" stroke="#21262d" stroke-width="1"/>
  <text x="47" y="56.1" fill="#8b949e" font-size="11" text-anchor="end" font-family="-apple-system,BlinkMacSystemFont,Segoe UI,Helvetica,Arial,sans-serif">270</text>
  <line x1="55.0" y1="50" x2="55.0" y2="340" stroke="#21262d" stroke-width="1" stroke-dasharray="4,4"/>
  <text x="55.0" y="360" fill="#8b949e" font-size="10" text-anchor="middle" font-family="-apple-system,BlinkMacSystemFont,Segoe UI,Helvetica,Arial,sans-serif">May 02</text>
  <line x1="168.0" y1="50" x2="168.0" y2="340" stroke="#21262d" stroke-width="1" stroke-dasharray="4,4"/>
  <text x="168.0" y="360" fill="#8b949e" font-size="10" text-anchor="middle" font-family="-apple-system,BlinkMacSystemFont,Segoe UI,Helvetica,Arial,sans-serif">May 12</text>
  <line x1="281.0" y1="50" x2="281.0" y2="340" stroke="#21262d" stroke-width="1" stroke-dasharray="4,4"/>
  <text x="281.0" y="360" fill="#8b949e" font-size="10" text-anchor="middle" font-family="-apple-system,BlinkMacSystemFont,Segoe UI,Helvetica,Arial,sans-serif">May 22</text>
  <line x1="394.0" y1="50" x2="394.0" y2="340" stroke="#21262d" stroke-width="1" stroke-dasharray="4,4"/>
  <text x="394.0" y="360" fill="#8b949e" font-size="10" text-anchor="middle" font-family="-apple-system,BlinkMacSystemFont,Segoe UI,Helvetica,Arial,sans-serif">Jun 01</text>
  <line x1="507.1" y1="50" x2="507.1" y2="340" stroke="#21262d" stroke-width="1" stroke-dasharray="4,4"/>
  <text x="507.1" y="360" fill="#8b949e" font-size="10" text-anchor="middle" font-family="-apple-system,BlinkMacSystemFont,Segoe UI,Helvetica,Arial,sans-serif">Jun 11</text>
  <line x1="620.1" y1="50" x2="620.1" y2="340" stroke="#21262d" stroke-width="1" stroke-dasharray="4,4"/>
  <text x="620.1" y="360" fill="#8b949e" font-size="10" text-anchor="middle" font-family="-apple-system,BlinkMacSystemFont,Segoe UI,Helvetica,Arial,sans-serif">Jun 21</text>
  <line x1="733.1" y1="50" x2="733.1" y2="340" stroke="#21262d" stroke-width="1" stroke-dasharray="4,4"/>
  <text x="733.1" y="360" fill="#8b949e" font-size="10" text-anchor="middle" font-family="-apple-system,BlinkMacSystemFont,Segoe UI,Helvetica,Arial,sans-serif">Jul 01</text>
  <line x1="846.1" y1="50" x2="846.1" y2="340" stroke="#21262d" stroke-width="1" stroke-dasharray="4,4"/>
  <text x="846.1" y="360" fill="#8b949e" font-size="10" text-anchor="middle" font-family="-apple-system,BlinkMacSystemFont,Segoe UI,Helvetica,Arial,sans-serif">Jul 11</text>
  <line x1="880.0" y1="50" x2="880.0" y2="340" stroke="#21262d" stroke-width="1" stroke-dasharray="4,4"/>
  <text x="880.0" y="360" fill="#8b949e" font-size="10" text-anchor="middle" font-family="-apple-system,BlinkMacSystemFont,Segoe UI,Helvetica,Arial,sans-serif">Jul 14</text>
  <path d="M55.0,340.0L66.3,327.2L77.6,319.7L88.9,315.5L100.2,309.1L111.5,304.8L122.8,301.6L134.1,301.6L145.4,301.6L156.7,301.6L168.0,301.6L179.3,301.6L190.6,301.6L201.9,301.6L213.2,300.6L224.5,296.3L235.8,292.0L247.1,286.7L258.4,280.3L269.7,273.9L281.0,267.5L292.3,262.2L303.6,257.9L314.9,255.8L326.2,252.6L337.5,240.8L348.8,239.8L360.1,234.4L371.4,227.0L382.7,221.7L394.0,217.4L405.3,217.4L416.6,217.4L427.9,217.4L439.2,217.4L450.5,217.4L461.8,211.0L473.2,202.5L484.5,199.3L495.8,192.9L507.1,188.6L518.4,182.2L529.7,172.6L541.0,167.3L552.3,161.9L563.6,156.6L574.9,147.0L586.2,140.6L597.5,132.1L608.8,125.7L620.1,120.4L631.4,116.1L642.7,109.7L654.0,102.2L665.3,98.0L676.6,94.8L687.9,87.3L699.2,80.9L710.5,72.4L721.8,72.4L733.1,70.3L744.4,70.3L755.7,70.3L767.0,68.1L778.3,64.9L789.6,61.7L800.9,60.7L812.2,55.3L823.5,55.3L834.8,55.3L846.1,55.3L857.4,55.3L868.7,55.3L880.0,55.3L880.0,340.0L55.0,340.0Z" fill="url(#gO)"/>
  <path d="M55.0,338.9L66.3,338.9L77.6,338.9L88.9,338.9L100.2,338.9L111.5,338.9L122.8,338.9L134.1,338.9L145.4,338.9L156.7,338.9L168.0,338.9L179.3,338.9L190.6,338.9L201.9,338.9L213.2,338.9L224.5,335.7L235.8,335.7L247.1,335.7L258.4,335.7L269.7,335.7L281.0,335.7L292.3,335.7L303.6,334.7L314.9,331.5L326.2,331.5L337.5,330.4L348.8,330.4L360.1,330.4L371.4,330.4L382.7,330.4L394.0,328.3L405.3,328.3L416.6,328.3L427.9,328.3L439.2,328.3L450.5,328.3L461.8,328.3L473.2,326.1L484.5,313.3L495.8,313.3L507.1,313.3L518.4,313.3L529.7,304.8L541.0,304.8L552.3,304.8L563.6,304.8L574.9,304.8L586.2,302.7L597.5,302.7L608.8,301.6L620.1,300.6L631.4,299.5L642.7,298.4L654.0,296.3L665.3,292.0L676.6,291.0L687.9,289.9L699.2,289.9L710.5,289.9L721.8,289.9L733.1,289.9L744.4,289.9L755.7,289.9L767.0,289.9L778.3,289.9L789.6,289.9L800.9,289.9L812.2,289.9L823.5,288.8L834.8,287.8L846.1,284.6L857.4,284.6L868.7,283.5L880.0,283.5L880.0,340.0L55.0,340.0Z" fill="url(#gR)"/>
  <path d="M55.0,340.0L66.3,327.2L77.6,319.7L88.9,315.5L100.2,309.1L111.5,304.8L122.8,301.6L134.1,301.6L145.4,301.6L156.7,301.6L168.0,301.6L179.3,301.6L190.6,301.6L201.9,301.6L213.2,300.6L224.5,296.3L235.8,292.0L247.1,286.7L258.4,280.3L269.7,273.9L281.0,267.5L292.3,262.2L303.6,257.9L314.9,255.8L326.2,252.6L337.5,240.8L348.8,239.8L360.1,234.4L371.4,227.0L382.7,221.7L394.0,217.4L405.3,217.4L416.6,217.4L427.9,217.4L439.2,217.4L450.5,217.4L461.8,211.0L473.2,202.5L484.5,199.3L495.8,192.9L507.1,188.6L518.4,182.2L529.7,172.6L541.0,167.3L552.3,161.9L563.6,156.6L574.9,147.0L586.2,140.6L597.5,132.1L608.8,125.7L620.1,120.4L631.4,116.1L642.7,109.7L654.0,102.2L665.3,98.0L676.6,94.8L687.9,87.3L699.2,80.9L710.5,72.4L721.8,72.4L733.1,70.3L744.4,70.3L755.7,70.3L767.0,68.1L778.3,64.9L789.6,61.7L800.9,60.7L812.2,55.3L823.5,55.3L834.8,55.3L846.1,55.3L857.4,55.3L868.7,55.3L880.0,55.3" fill="none" stroke="#58a6ff" stroke-width="2.5" stroke-linecap="round" stroke-linejoin="round"/>
  <path d="M55.0,338.9L66.3,338.9L77.6,338.9L88.9,338.9L100.2,338.9L111.5,338.9L122.8,338.9L134.1,338.9L145.4,338.9L156.7,338.9L168.0,338.9L179.3,338.9L190.6,338.9L201.9,338.9L213.2,338.9L224.5,335.7L235.8,335.7L247.1,335.7L258.4,335.7L269.7,335.7L281.0,335.7L292.3,335.7L303.6,334.7L314.9,331.5L326.2,331.5L337.5,330.4L348.8,330.4L360.1,330.4L371.4,330.4L382.7,330.4L394.0,328.3L405.3,328.3L416.6,328.3L427.9,328.3L439.2,328.3L450.5,328.3L461.8,328.3L473.2,326.1L484.5,313.3L495.8,313.3L507.1,313.3L518.4,313.3L529.7,304.8L541.0,304.8L552.3,304.8L563.6,304.8L574.9,304.8L586.2,302.7L597.5,302.7L608.8,301.6L620.1,300.6L631.4,299.5L642.7,298.4L654.0,296.3L665.3,292.0L676.6,291.0L687.9,289.9L699.2,289.9L710.5,289.9L721.8,289.9L733.1,289.9L744.4,289.9L755.7,289.9L767.0,289.9L778.3,289.9L789.6,289.9L800.9,289.9L812.2,289.9L823.5,288.8L834.8,287.8L846.1,284.6L857.4,284.6L868.7,283.5L880.0,283.5" fill="none" stroke="#f78166" stroke-width="2.5" stroke-linecap="round" stroke-linejoin="round"/>
  <path d="M55.0,340.0L66.3,332.5L77.6,327.2L88.9,325.1L100.2,319.7L111.5,320.8L122.8,317.6L134.1,318.7L145.4,318.7L156.7,319.7L168.0,319.7L179.3,319.7L190.6,319.7L201.9,319.7L213.2,318.7L224.5,317.6L235.8,316.5L247.1,313.3L258.4,306.9L269.7,302.7L281.0,298.4L292.3,295.2L303.6,295.2L314.9,296.3L326.2,298.4L337.5,294.2L348.8,293.1L360.1,293.1L371.4,289.9L382.7,295.2L394.0,292.0L405.3,292.0L416.6,292.0L427.9,292.0L439.2,298.4L450.5,298.4L461.8,297.4L473.2,302.7L484.5,340.0L495.8,340.0L507.1,340.0L518.4,340.0L529.7,335.7L541.0,335.7L552.3,333.6L563.6,333.6L574.9,332.5L586.2,329.3L597.5,330.4L608.8,328.3L620.1,328.3L631.4,330.4L642.7,329.3L654.0,330.4L665.3,327.2L676.6,328.3L687.9,328.3L699.2,322.9L710.5,319.7L721.8,319.7L733.1,320.8L744.4,324.0L755.7,324.0L767.0,322.9L778.3,321.9L789.6,321.9L800.9,320.8L812.2,318.7L823.5,318.7L834.8,318.7L846.1,318.7L857.4,318.7L868.7,318.7L880.0,318.7" fill="none" stroke="#3fb950" stroke-width="2.5" stroke-linecap="round" stroke-linejoin="round"/>
  <path d="M55.0,340.0L66.3,340.0L77.6,338.9L88.9,337.9L100.2,337.9L111.5,336.8L122.8,336.8L134.1,335.7L145.4,335.7L156.7,335.7L168.0,335.7L179.3,335.7L190.6,335.7L201.9,335.7L213.2,335.7L224.5,334.7L235.8,332.5L247.1,331.5L258.4,331.5L269.7,331.5L281.0,329.3L292.3,329.3L303.6,329.3L314.9,328.3L326.2,328.3L337.5,321.9L348.8,321.9L360.1,317.6L371.4,314.4L382.7,310.1L394.0,309.1L405.3,309.1L416.6,309.1L427.9,309.1L439.2,306.9L450.5,306.9L461.8,304.8L473.2,301.6L484.5,299.5L495.8,293.1L507.1,288.8L518.4,282.4L529.7,279.2L541.0,275.0L552.3,272.8L563.6,267.5L574.9,259.0L586.2,255.8L597.5,249.4L608.8,246.2L620.1,240.8L631.4,234.4L642.7,229.1L654.0,220.6L665.3,219.5L676.6,217.4L687.9,212.1L699.2,212.1L710.5,206.7L721.8,206.7L733.1,204.6L744.4,204.6L755.7,204.6L767.0,204.6L778.3,203.5L789.6,201.4L800.9,201.4L812.2,199.3L823.5,199.3L834.8,199.3L846.1,199.3L857.4,199.3L868.7,199.3L880.0,199.3" fill="none" stroke="#d2a8ff" stroke-width="2.5" stroke-linecap="round" stroke-linejoin="round"/>
  <path d="M55.0,340.0L66.3,334.7L77.6,333.6L88.9,332.5L100.2,331.5L111.5,327.2L122.8,327.2L134.1,327.2L145.4,327.2L156.7,326.1L168.0,326.1L179.3,326.1L190.6,326.1L201.9,326.1L213.2,326.1L224.5,324.0L235.8,322.9L247.1,321.9L258.4,321.9L269.7,319.7L281.0,319.7L292.3,317.6L303.6,313.3L314.9,311.2L326.2,305.9L337.5,304.8L348.8,304.8L360.1,303.8L371.4,302.7L382.7,296.3L394.0,296.3L405.3,296.3L416.6,296.3L427.9,296.3L439.2,292.0L450.5,292.0L461.8,288.8L473.2,278.2L484.5,239.8L495.8,239.8L507.1,239.8L518.4,239.8L529.7,237.6L541.0,236.6L552.3,235.5L563.6,235.5L574.9,235.5L586.2,235.5L597.5,232.3L608.8,231.2L620.1,231.2L631.4,231.2L642.7,231.2L654.0,231.2L665.3,231.2L676.6,229.1L687.9,227.0L699.2,225.9L710.5,225.9L721.8,225.9L733.1,224.9L744.4,221.7L755.7,221.7L767.0,220.6L778.3,219.5L789.6,218.5L800.9,218.5L812.2,217.4L823.5,217.4L834.8,217.4L846.1,217.4L857.4,217.4L868.7,217.4L880.0,217.4" fill="none" stroke="#f85149" stroke-width="2.5" stroke-linecap="round" stroke-linejoin="round"/>
  <circle cx="880.0" cy="55.3" r="3.5" fill="#58a6ff"/>
  <text x="889.0" y="59.3" fill="#58a6ff" font-size="11" font-weight="600" font-family="-apple-system,BlinkMacSystemFont,Segoe UI,Helvetica,Arial,sans-serif">267</text>
  <circle cx="880.0" cy="283.5" r="3.5" fill="#f78166"/>
  <text x="889.0" y="287.5" fill="#f78166" font-size="11" font-weight="600" font-family="-apple-system,BlinkMacSystemFont,Segoe UI,Helvetica,Arial,sans-serif">53</text>
  <circle cx="880.0" cy="318.7" r="3.5" fill="#3fb950"/>
  <text x="889.0" y="322.7" fill="#3fb950" font-size="11" font-weight="600" font-family="-apple-system,BlinkMacSystemFont,Segoe UI,Helvetica,Arial,sans-serif">20</text>
  <circle cx="880.0" cy="199.3" r="3.5" fill="#d2a8ff"/>
  <text x="889.0" y="203.3" fill="#d2a8ff" font-size="11" font-weight="600" font-family="-apple-system,BlinkMacSystemFont,Segoe UI,Helvetica,Arial,sans-serif">132</text>
  <circle cx="880.0" cy="217.4" r="3.5" fill="#f85149"/>
  <text x="889.0" y="221.4" fill="#f85149" font-size="11" font-weight="600" font-family="-apple-system,BlinkMacSystemFont,Segoe UI,Helvetica,Arial,sans-serif">115</text>
  <line x1="55" y1="368" x2="71" y2="368" stroke="#f78166" stroke-width="2.5" stroke-linecap="round"/>
  <text x="77" y="372" fill="#8b949e" font-size="11" font-family="-apple-system,BlinkMacSystemFont,Segoe UI,Helvetica,Arial,sans-serif">Repos</text>
  <line x1="255" y1="368" x2="271" y2="368" stroke="#58a6ff" stroke-width="2.5" stroke-linecap="round"/>
  <text x="277" y="372" fill="#8b949e" font-size="11" font-family="-apple-system,BlinkMacSystemFont,Segoe UI,Helvetica,Arial,sans-serif">PRs Opened</text>
  <line x1="455" y1="368" x2="471" y2="368" stroke="#3fb950" stroke-width="2.5" stroke-linecap="round"/>
  <text x="477" y="372" fill="#8b949e" font-size="11" font-family="-apple-system,BlinkMacSystemFont,Segoe UI,Helvetica,Arial,sans-serif">Open PRs</text>
  <line x1="55" y1="386" x2="71" y2="386" stroke="#d2a8ff" stroke-width="2.5" stroke-linecap="round"/>
  <text x="77" y="390" fill="#8b949e" font-size="11" font-family="-apple-system,BlinkMacSystemFont,Segoe UI,Helvetica,Arial,sans-serif">Merged</text>
  <line x1="255" y1="386" x2="271" y2="386" stroke="#f85149" stroke-width="2.5" stroke-linecap="round"/>
  <text x="277" y="390" fill="#8b949e" font-size="11" font-family="-apple-system,BlinkMacSystemFont,Segoe UI,Helvetica,Arial,sans-serif">Closed</text>
</svg>