<svg xmlns="http://www.w3.org/2000/svg" viewBox="0 0 960 400" width="960" height="400">
  <defs>
    <linearGradient id="gR" x1="0" y1="0" x2="0" y2="1">
      <stop offset="0%" stop-color="#3fb950" stop-opacity="0.25"/>
      <stop offset="100%" stop-color="#3fb950" stop-opacity="0.02"/>
    </linearGradient>
    <linearGradient id="gO" x1="0" y1="0" x2="0" y2="1">
      <stop offset="0%" stop-color="#58a6ff" stop-opacity="0.25"/>
      <stop offset="100%" stop-color="#58a6ff" stop-opacity="0.02"/>
    </linearGradient>
    <linearGradient id="gOp" x1="0" y1="0" x2="0" y2="1">
      <stop offset="0%" stop-color="#d2a8ff" stop-opacity="0.25"/>
      <stop offset="100%" stop-color="#d2a8ff" stop-opacity="0.02"/>
    </linearGradient>
    <linearGradient id="gM" x1="0" y1="0" x2="0" y2="1">
      <stop offset="0%" stop-color="#f78166" stop-opacity="0.25"/>
      <stop offset="100%" stop-color="#f78166" stop-opacity="0.02"/>
    </linearGradient>
    <linearGradient id="gC" x1="0" y1="0" x2="0" y2="1">
      <stop offset="0%" stop-color="#f85149" stop-opacity="0.25"/>
      <stop offset="100%" stop-color="#f85149" stop-opacity="0.02"/>
    </linearGradient>
  </defs>
  <rect width="960" height="400" rx="12" fill="#0d1117"/>
  <rect width="960" height="400" rx="12" fill="none" stroke="#30363d" stroke-width="1"/>
  <text x="55" y="30" fill="#e6edf3" font-size="15" font-weight="600" font-family="-apple-system,BlinkMacSystemFont,Segoe UI,Helvetica,Arial,sans-serif">GitHub Activity — jlaportebot</text>
  <text x="880" y="30" fill="#8b949e" font-size="11" text-anchor="end" font-family="-apple-system,BlinkMacSystemFont,Segoe UI,Helvetica,Arial,sans-serif">Updated May 30, 2026</text>
  <line x1="55" y1="340.0" x2="880" y2="340.0" stroke="#21262d" stroke-width="1"/>
  <text x="47" y="344.0" fill="#8b949e" font-size="11" text-anchor="end" font-family="-apple-system,BlinkMacSystemFont,Segoe UI,Helvetica,Arial,sans-serif">0</text>
  <line x1="55" y1="314.3" x2="880" y2="314.3" stroke="#21262d" stroke-width="1"/>
  <text x="47" y="318.3" fill="#8b949e" font-size="11" text-anchor="end" font-family="-apple-system,BlinkMacSystemFont,Segoe UI,Helvetica,Arial,sans-serif">10</text>
  <line x1="55" y1="288.7" x2="880" y2="288.7" stroke="#21262d" stroke-width="1"/>
  <text x="47" y="292.7" fill="#8b949e" font-size="11" text-anchor="end" font-family="-apple-system,BlinkMacSystemFont,Segoe UI,Helvetica,Arial,sans-serif">20</text>
  <line x1="55" y1="263.0" x2="880" y2="263.0" stroke="#21262d" stroke-width="1"/>
  <text x="47" y="267.0" fill="#8b949e" font-size="11" text-anchor="end" font-family="-apple-system,BlinkMacSystemFont,Segoe UI,Helvetica,Arial,sans-serif">30</text>
  <line x1="55" y1="237.3" x2="880" y2="237.3" stroke="#21262d" stroke-width="1"/>
  <text x="47" y="241.3" fill="#8b949e" font-size="11" text-anchor="end" font-family="-apple-system,BlinkMacSystemFont,Segoe UI,Helvetica,Arial,sans-serif">40</text>
  <line x1="55" y1="211.7" x2="880" y2="211.7" stroke="#21262d" stroke-width="1"/>
  <text x="47" y="215.7" fill="#8b949e" font-size="11" text-anchor="end" font-family="-apple-system,BlinkMacSystemFont,Segoe UI,Helvetica,Arial,sans-serif">50</text>
  <line x1="55" y1="186.0" x2="880" y2="186.0" stroke="#21262d" stroke-width="1"/>
  <text x="47" y="190.0" fill="#8b949e" font-size="11" text-anchor="end" font-family="-apple-system,BlinkMacSystemFont,Segoe UI,Helvetica,Arial,sans-serif">60</text>
  <line x1="55" y1="160.4" x2="880" y2="160.4" stroke="#21262d" stroke-width="1"/>
  <text x="47" y="164.4" fill="#8b949e" font-size="11" text-anchor="end" font-family="-apple-system,BlinkMacSystemFont,Segoe UI,Helvetica,Arial,sans-serif">70</text>
  <line x1="55" y1="134.7" x2="880" y2="134.7" stroke="#21262d" stroke-width="1"/>
  <text x="47" y="138.7" fill="#8b949e" font-size="11" text-anchor="end" font-family="-apple-system,BlinkMacSystemFont,Segoe UI,Helvetica,Arial,sans-serif">80</text>
  <line x1="55" y1="109.0" x2="880" y2="109.0" stroke="#21262d" stroke-width="1"/>
  <text x="47" y="113.0" fill="#8b949e" font-size="11" text-anchor="end" font-family="-apple-system,BlinkMacSystemFont,Segoe UI,Helvetica,Arial,sans-serif">90</text>
  <line x1="55" y1="83.4" x2="880" y2="83.4" stroke="#21262d" stroke-width="1"/>
  <text x="47" y="87.4" fill="#8b949e" font-size="11" text-anchor="end" font-family="-apple-system,BlinkMacSystemFont,Segoe UI,Helvetica,Arial,sans-serif">100</text>
  <line x1="55" y1="57.7" x2="880" y2="57.7" stroke="#21262d" stroke-width="1"/>
  <text x="47" y="61.7" fill="#8b949e" font-size="11" text-anchor="end" font-family="-apple-system,BlinkMacSystemFont,Segoe UI,Helvetica,Arial,sans-serif">110</text>
  <line x1="55.0" y1="50" x2="55.0" y2="340" stroke="#21262d" stroke-width="1" stroke-dasharray="4,4"/>
  <text x="55.0" y="360" fill="#8b949e" font-size="10" text-anchor="middle" font-family="-apple-system,BlinkMacSystemFont,Segoe UI,Helvetica,Arial,sans-serif">May 02</text>
  <line x1="172.9" y1="50" x2="172.9" y2="340" stroke="#21262d" stroke-width="1" stroke-dasharray="4,4"/>
  <text x="172.9" y="360" fill="#8b949e" font-size="10" text-anchor="middle" font-family="-apple-system,BlinkMacSystemFont,Segoe UI,Helvetica,Arial,sans-serif">May 06</text>
  <line x1="290.7" y1="50" x2="290.7" y2="340" stroke="#21262d" stroke-width="1" stroke-dasharray="4,4"/>
  <text x="290.7" y="360" fill="#8b949e" font-size="10" text-anchor="middle" font-family="-apple-system,BlinkMacSystemFont,Segoe UI,Helvetica,Arial,sans-serif">May 10</text>
  <line x1="408.6" y1="50" x2="408.6" y2="340" stroke="#21262d" stroke-width="1" stroke-dasharray="4,4"/>
  <text x="408.6" y="360" fill="#8b949e" font-size="10" text-anchor="middle" font-family="-apple-system,BlinkMacSystemFont,Segoe UI,Helvetica,Arial,sans-serif">May 14</text>
  <line x1="526.4" y1="50" x2="526.4" y2="340" stroke="#21262d" stroke-width="1" stroke-dasharray="4,4"/>
  <text x="526.4" y="360" fill="#8b949e" font-size="10" text-anchor="middle" font-family="-apple-system,BlinkMacSystemFont,Segoe UI,Helvetica,Arial,sans-serif">May 18</text>
  <line x1="644.3" y1="50" x2="644.3" y2="340" stroke="#21262d" stroke-width="1" stroke-dasharray="4,4"/>
  <text x="644.3" y="360" fill="#8b949e" font-size="10" text-anchor="middle" font-family="-apple-system,BlinkMacSystemFont,Segoe UI,Helvetica,Arial,sans-serif">May 22</text>
  <line x1="762.1" y1="50" x2="762.1" y2="340" stroke="#21262d" stroke-width="1" stroke-dasharray="4,4"/>
  <text x="762.1" y="360" fill="#8b949e" font-size="10" text-anchor="middle" font-family="-apple-system,BlinkMacSystemFont,Segoe UI,Helvetica,Arial,sans-serif">May 26</text>
  <line x1="880.0" y1="50" x2="880.0" y2="340" stroke="#21262d" stroke-width="1" stroke-dasharray="4,4"/>
  <text x="880.0" y="360" fill="#8b949e" font-size="10" text-anchor="middle" font-family="-apple-system,BlinkMacSystemFont,Segoe UI,Helvetica,Arial,sans-serif">May 30</text>
  <path d="M55.0,340.0L84.5,296.4L113.9,278.4L143.4,268.1L172.9,252.7L202.3,242.5L231.8,234.8L261.2,234.8L290.7,234.8L320.2,234.8L349.6,234.8L379.1,234.8L408.6,234.8L438.0,234.8L467.5,232.2L497.0,221.9L526.4,211.7L555.9,198.8L585.4,183.5L614.8,168.1L644.3,152.7L673.8,139.8L703.2,129.6L732.7,124.4L762.1,116.7L791.6,88.5L821.1,85.9L850.5,70.5L880.0,62.8L880.0,340.0L55.0,340.0Z" fill="url(#gO)"/>
  <path d="M55.0,337.4L84.5,316.9L113.9,304.1L143.4,298.9L172.9,286.1L202.3,275.8L231.8,270.7L261.2,270.7L290.7,270.7L320.2,270.7L349.6,270.7L379.1,270.7L408.6,270.7L438.0,270.7L467.5,268.1L497.0,247.6L526.4,245.0L555.9,245.0L585.4,245.0L614.8,245.0L644.3,245.0L673.8,245.0L703.2,232.2L732.7,214.2L762.1,198.8L791.6,196.3L821.1,196.3L850.5,196.3L880.0,196.3L880.0,340.0L55.0,340.0Z" fill="url(#gR)"/>
  <path d="M55.0,340.0L84.5,296.4L113.9,278.4L143.4,268.1L172.9,252.7L202.3,242.5L231.8,234.8L261.2,234.8L290.7,234.8L320.2,234.8L349.6,234.8L379.1,234.8L408.6,234.8L438.0,234.8L467.5,232.2L497.0,221.9L526.4,211.7L555.9,198.8L585.4,183.5L614.8,168.1L644.3,152.7L673.8,139.8L703.2,129.6L732.7,124.4L762.1,116.7L791.6,88.5L821.1,85.9L850.5,70.5L880.0,62.8" fill="none" stroke="#58a6ff" stroke-width="2.5" stroke-linecap="round" stroke-linejoin="round"/>
  <path d="M55.0,337.4L84.5,316.9L113.9,304.1L143.4,298.9L172.9,286.1L202.3,275.8L231.8,270.7L261.2,270.7L290.7,270.7L320.2,270.7L349.6,270.7L379.1,270.7L408.6,270.7L438.0,270.7L467.5,268.1L497.0,247.6L526.4,245.0L555.9,245.0L585.4,245.0L614.8,245.0L644.3,245.0L673.8,245.0L703.2,232.2L732.7,214.2L762.1,198.8L791.6,196.3L821.1,196.3L850.5,196.3L880.0,196.3" fill="none" stroke="#3fb950" stroke-width="2.5" stroke-linecap="round" stroke-linejoin="round"/>
  <path d="M55.0,340.0L84.5,314.3L113.9,306.6L143.4,301.5L172.9,288.7L202.3,291.2L231.8,283.5L261.2,286.1L290.7,286.1L320.2,288.7L349.6,288.7L379.1,288.7L408.6,288.7L438.0,288.7L467.5,286.1L497.0,283.5L526.4,281.0L555.9,273.3L585.4,257.9L614.8,247.6L644.3,237.3L673.8,229.6L703.2,229.6L732.7,232.2L762.1,237.3L791.6,227.1L821.1,224.5L850.5,221.9L880.0,224.5" fill="none" stroke="#d2a8ff" stroke-width="2.5" stroke-linecap="round" stroke-linejoin="round"/>
  <path d="M55.0,340.0L84.5,340.0L113.9,332.3L143.4,329.7L172.9,329.7L202.3,327.2L231.8,327.2L261.2,324.6L290.7,324.6L320.2,324.6L349.6,324.6L379.1,324.6L408.6,324.6L438.0,324.6L467.5,324.6L497.0,322.0L526.4,316.9L555.9,314.3L585.4,314.3L614.8,314.3L644.3,309.2L673.8,309.2L703.2,309.2L732.7,306.6L762.1,306.6L791.6,291.2L821.1,291.2L850.5,281.0L880.0,270.7" fill="none" stroke="#f78166" stroke-width="2.5" stroke-linecap="round" stroke-linejoin="round"/>
  <path d="M55.0,340.0L84.5,322.0L113.9,319.5L143.4,316.9L172.9,314.3L202.3,304.1L231.8,304.1L261.2,304.1L290.7,304.1L320.2,301.5L349.6,301.5L379.1,301.5L408.6,301.5L438.0,301.5L467.5,301.5L497.0,296.4L526.4,293.8L555.9,291.2L585.4,291.2L614.8,286.1L644.3,286.1L673.8,281.0L703.2,270.7L732.7,265.6L762.1,252.7L791.6,250.2L821.1,250.2L850.5,247.6L880.0,247.6" fill="none" stroke="#f85149" stroke-width="2.5" stroke-linecap="round" stroke-linejoin="round"/>
  <circle cx="880.0" cy="62.8" r="3.5" fill="#58a6ff"/>
  <text x="889.0" y="66.8" fill="#58a6ff" font-size="11" font-weight="600" font-family="-apple-system,BlinkMacSystemFont,Segoe UI,Helvetica,Arial,sans-serif">108</text>
  <circle cx="880.0" cy="196.3" r="3.5" fill="#3fb950"/>
  <text x="889.0" y="200.3" fill="#3fb950" font-size="11" font-weight="600" font-family="-apple-system,BlinkMacSystemFont,Segoe UI,Helvetica,Arial,sans-serif">56</text>
  <circle cx="880.0" cy="224.5" r="3.5" fill="#d2a8ff"/>
  <text x="889.0" y="228.5" fill="#d2a8ff" font-size="11" font-weight="600" font-family="-apple-system,BlinkMacSystemFont,Segoe UI,Helvetica,Arial,sans-serif">45</text>
  <circle cx="880.0" cy="270.7" r="3.5" fill="#f78166"/>
  <text x="889.0" y="274.7" fill="#f78166" font-size="11" font-weight="600" font-family="-apple-system,BlinkMacSystemFont,Segoe UI,Helvetica,Arial,sans-serif">27</text>
  <circle cx="880.0" cy="247.6" r="3.5" fill="#f85149"/>
  <text x="889.0" y="251.6" fill="#f85149" font-size="11" font-weight="600" font-family="-apple-system,BlinkMacSystemFont,Segoe UI,Helvetica,Arial,sans-serif">36</text>
  <line x1="55" y1="368" x2="71" y2="368" stroke="#3fb950" stroke-width="2.5" stroke-linecap="round"/>
  <text x="77" y="372" fill="#8b949e" font-size="11" font-family="-apple-system,BlinkMacSystemFont,Segoe UI,Helvetica,Arial,sans-serif">Repos</text>
  <line x1="255" y1="368" x2="271" y2="368" stroke="#58a6ff" stroke-width="2.5" stroke-linecap="round"/>
  <text x="277" y="372" fill="#8b949e" font-size="11" font-family="-apple-system,BlinkMacSystemFont,Segoe UI,Helvetica,Arial,sans-serif">PRs Opened</text>
  <line x1="455" y1="368" x2="471" y2="368" stroke="#d2a8ff" stroke-width="2.5" stroke-linecap="round"/>
  <text x="477" y="372" fill="#8b949e" font-size="11" font-family="-apple-system,BlinkMacSystemFont,Segoe UI,Helvetica,Arial,sans-serif">Open PRs</text>
  <line x1="55" y1="386" x2="71" y2="386" stroke="#f78166" stroke-width="2.5" stroke-linecap="round"/>
  <text x="77" y="390" fill="#8b949e" font-size="11" font-family="-apple-system,BlinkMacSystemFont,Segoe UI,Helvetica,Arial,sans-serif">Merged</text>
  <line x1="255" y1="386" x2="271" y2="386" stroke="#f85149" stroke-width="2.5" stroke-linecap="round"/>
  <text x="277" y="390" fill="#8b949e" font-size="11" font-family="-apple-system,BlinkMacSystemFont,Segoe UI,Helvetica,Arial,sans-serif">Closed</text>
</svg>