<svg xmlns="http://www.w3.org/2000/svg" viewBox="0 0 960 400" width="960" height="400">
  <defs>
    <linearGradient id="gR" x1="0" y1="0" x2="0" y2="1">
      <stop offset="0%" stop-color="#f78166" stop-opacity="0.25"/>
      <stop offset="100%" stop-color="#f78166" stop-opacity="0.02"/>
    </linearGradient>
    <linearGradient id="gO" x1="0" y1="0" x2="0" y2="1">
      <stop offset="0%" stop-color="#58a6ff" stop-opacity="0.25"/>
      <stop offset="100%" stop-color="#58a6ff" stop-opacity="0.02"/>
    </linearGradient>
    <linearGradient id="gOp" x1="0" y1="0" x2="0" y2="1">
      <stop offset="0%" stop-color="#3fb950" stop-opacity="0.25"/>
      <stop offset="100%" stop-color="#3fb950" stop-opacity="0.02"/>
    </linearGradient>
    <linearGradient id="gM" x1="0" y1="0" x2="0" y2="1">
      <stop offset="0%" stop-color="#d2a8ff" stop-opacity="0.25"/>
      <stop offset="100%" stop-color="#d2a8ff" stop-opacity="0.02"/>
    </linearGradient>
    <linearGradient id="gC" x1="0" y1="0" x2="0" y2="1">
      <stop offset="0%" stop-color="#f85149" stop-opacity="0.25"/>
      <stop offset="100%" stop-color="#f85149" stop-opacity="0.02"/>
    </linearGradient>
  </defs>
  <rect width="960" height="400" rx="12" fill="#0d1117"/>
  <rect width="960" height="400" rx="12" fill="none" stroke="#30363d" stroke-width="1"/>
  <text x="55" y="30" fill="#e6edf3" font-size="15" font-weight="600" font-family="-apple-system,BlinkMacSystemFont,Segoe UI,Helvetica,Arial,sans-serif">GitHub Activity — jlaportebot</text>
  <text x="880" y="30" fill="#8b949e" font-size="11" text-anchor="end" font-family="-apple-system,BlinkMacSystemFont,Segoe UI,Helvetica,Arial,sans-serif">Updated Jul 20, 2026</text>
  <line x1="55" y1="340.0" x2="880" y2="340.0" stroke="#21262d" stroke-width="1"/>
  <text x="47" y="344.0" fill="#8b949e" font-size="11" text-anchor="end" font-family="-apple-system,BlinkMacSystemFont,Segoe UI,Helvetica,Arial,sans-serif">0</text>
  <line x1="55" y1="329.4" x2="880" y2="329.4" stroke="#21262d" stroke-width="1"/>
  <text x="47" y="333.4" fill="#8b949e" font-size="11" text-anchor="end" font-family="-apple-system,BlinkMacSystemFont,Segoe UI,Helvetica,Arial,sans-serif">10</text>
  <line x1="55" y1="318.8" x2="880" y2="318.8" stroke="#21262d" stroke-width="1"/>
  <text x="47" y="322.8" fill="#8b949e" font-size="11" text-anchor="end" font-family="-apple-system,BlinkMacSystemFont,Segoe UI,Helvetica,Arial,sans-serif">20</text>
  <line x1="55" y1="308.2" x2="880" y2="308.2" stroke="#21262d" stroke-width="1"/>
  <text x="47" y="312.2" fill="#8b949e" font-size="11" text-anchor="end" font-family="-apple-system,BlinkMacSystemFont,Segoe UI,Helvetica,Arial,sans-serif">30</text>
  <line x1="55" y1="297.7" x2="880" y2="297.7" stroke="#21262d" stroke-width="1"/>
  <text x="47" y="301.7" fill="#8b949e" font-size="11" text-anchor="end" font-family="-apple-system,BlinkMacSystemFont,Segoe UI,Helvetica,Arial,sans-serif">40</text>
  <line x1="55" y1="287.1" x2="880" y2="287.1" stroke="#21262d" stroke-width="1"/>
  <text x="47" y="291.1" fill="#8b949e" font-size="11" text-anchor="end" font-family="-apple-system,BlinkMacSystemFont,Segoe UI,Helvetica,Arial,sans-serif">50</text>
  <line x1="55" y1="276.5" x2="880" y2="276.5" stroke="#21262d" stroke-width="1"/>
  <text x="47" y="280.5" fill="#8b949e" font-size="11" text-anchor="end" font-family="-apple-system,BlinkMacSystemFont,Segoe UI,Helvetica,Arial,sans-serif">60</text>
  <line x1="55" y1="265.9" x2="880" y2="265.9" stroke="#21262d" stroke-width="1"/>
  <text x="47" y="269.9" fill="#8b949e" font-size="11" text-anchor="end" font-family="-apple-system,BlinkMacSystemFont,Segoe UI,Helvetica,Arial,sans-serif">70</text>
  <line x1="55" y1="255.3" x2="880" y2="255.3" stroke="#21262d" stroke-width="1"/>
  <text x="47" y="259.3" fill="#8b949e" font-size="11" text-anchor="end" font-family="-apple-system,BlinkMacSystemFont,Segoe UI,Helvetica,Arial,sans-serif">80</text>
  <line x1="55" y1="244.7" x2="880" y2="244.7" stroke="#21262d" stroke-width="1"/>
  <text x="47" y="248.7" fill="#8b949e" font-size="11" text-anchor="end" font-family="-apple-system,BlinkMacSystemFont,Segoe UI,Helvetica,Arial,sans-serif">90</text>
  <line x1="55" y1="234.2" x2="880" y2="234.2" stroke="#21262d" stroke-width="1"/>
  <text x="47" y="238.2" fill="#8b949e" font-size="11" text-anchor="end" font-family="-apple-system,BlinkMacSystemFont,Segoe UI,Helvetica,Arial,sans-serif">100</text>
  <line x1="55" y1="223.6" x2="880" y2="223.6" stroke="#21262d" stroke-width="1"/>
  <text x="47" y="227.6" fill="#8b949e" font-size="11" text-anchor="end" font-family="-apple-system,BlinkMacSystemFont,Segoe UI,Helvetica,Arial,sans-serif">110</text>
  <line x1="55" y1="213.0" x2="880" y2="213.0" stroke="#21262d" stroke-width="1"/>
  <text x="47" y="217.0" fill="#8b949e" font-size="11" text-anchor="end" font-family="-apple-system,BlinkMacSystemFont,Segoe UI,Helvetica,Arial,sans-serif">120</text>
  <line x1="55" y1="202.4" x2="880" y2="202.4" stroke="#21262d" stroke-width="1"/>
  <text x="47" y="206.4" fill="#8b949e" font-size="11" text-anchor="end" font-family="-apple-system,BlinkMacSystemFont,Segoe UI,Helvetica,Arial,sans-serif">130</text>
  <line x1="55" y1="191.8" x2="880" y2="191.8" stroke="#21262d" stroke-width="1"/>
  <text x="47" y="195.8" fill="#8b949e" font-size="11" text-anchor="end" font-family="-apple-system,BlinkMacSystemFont,Segoe UI,Helvetica,Arial,sans-serif">140</text>
  <line x1="55" y1="181.2" x2="880" y2="181.2" stroke="#21262d" stroke-width="1"/>
  <text x="47" y="185.2" fill="#8b949e" font-size="11" text-anchor="end" font-family="-apple-system,BlinkMacSystemFont,Segoe UI,Helvetica,Arial,sans-serif">150</text>
  <line x1="55" y1="170.7" x2="880" y2="170.7" stroke="#21262d" stroke-width="1"/>
  <text x="47" y="174.7" fill="#8b949e" font-size="11" text-anchor="end" font-family="-apple-system,BlinkMacSystemFont,Segoe UI,Helvetica,Arial,sans-serif">160</text>
  <line x1="55" y1="160.1" x2="880" y2="160.1" stroke="#21262d" stroke-width="1"/>
  <text x="47" y="164.1" fill="#8b949e" font-size="11" text-anchor="end" font-family="-apple-system,BlinkMacSystemFont,Segoe UI,Helvetica,Arial,sans-serif">170</text>
  <line x1="55" y1="149.5" x2="880" y2="149.5" stroke="#21262d" stroke-width="1"/>
  <text x="47" y="153.5" fill="#8b949e" font-size="11" text-anchor="end" font-family="-apple-system,BlinkMacSystemFont,Segoe UI,Helvetica,Arial,sans-serif">180</text>
  <line x1="55" y1="138.9" x2="880" y2="138.9" stroke="#21262d" stroke-width="1"/>
  <text x="47" y="142.9" fill="#8b949e" font-size="11" text-anchor="end" font-family="-apple-system,BlinkMacSystemFont,Segoe UI,Helvetica,Arial,sans-serif">190</text>
  <line x1="55" y1="128.3" x2="880" y2="128.3" stroke="#21262d" stroke-width="1"/>
  <text x="47" y="132.3" fill="#8b949e" font-size="11" text-anchor="end" font-family="-apple-system,BlinkMacSystemFont,Segoe UI,Helvetica,Arial,sans-serif">200</text>
  <line x1="55" y1="117.7" x2="880" y2="117.7" stroke="#21262d" stroke-width="1"/>
  <text x="47" y="121.7" fill="#8b949e" font-size="11" text-anchor="end" font-family="-apple-system,BlinkMacSystemFont,Segoe UI,Helvetica,Arial,sans-serif">210</text>
  <line x1="55" y1="107.2" x2="880" y2="107.2" stroke="#21262d" stroke-width="1"/>
  <text x="47" y="111.2" fill="#8b949e" font-size="11" text-anchor="end" font-family="-apple-system,BlinkMacSystemFont,Segoe UI,Helvetica,Arial,sans-serif">220</text>
  <line x1="55" y1="96.6" x2="880" y2="96.6" stroke="#21262d" stroke-width="1"/>
  <text x="47" y="100.6" fill="#8b949e" font-size="11" text-anchor="end" font-family="-apple-system,BlinkMacSystemFont,Segoe UI,Helvetica,Arial,sans-serif">230</text>
  <line x1="55" y1="86.0" x2="880" y2="86.0" stroke="#21262d" stroke-width="1"/>
  <text x="47" y="90.0" fill="#8b949e" font-size="11" text-anchor="end" font-family="-apple-system,BlinkMacSystemFont,Segoe UI,Helvetica,Arial,sans-serif">240</text>
  <line x1="55" y1="75.4" x2="880" y2="75.4" stroke="#21262d" stroke-width="1"/>
  <text x="47" y="79.4" fill="#8b949e" font-size="11" text-anchor="end" font-family="-apple-system,BlinkMacSystemFont,Segoe UI,Helvetica,Arial,sans-serif">250</text>
  <line x1="55" y1="64.8" x2="880" y2="64.8" stroke="#21262d" stroke-width="1"/>
  <text x="47" y="68.8" fill="#8b949e" font-size="11" text-anchor="end" font-family="-apple-system,BlinkMacSystemFont,Segoe UI,Helvetica,Arial,sans-serif">260</text>
  <line x1="55" y1="54.2" x2="880" y2="54.2" stroke="#21262d" stroke-width="1"/>
  <text x="47" y="58.2" fill="#8b949e" font-size="11" text-anchor="end" font-family="-apple-system,BlinkMacSystemFont,Segoe UI,Helvetica,Arial,sans-serif">270</text>
  <line x1="55.0" y1="50" x2="55.0" y2="340" stroke="#21262d" stroke-width="1" stroke-dasharray="4,4"/>
  <text x="55.0" y="360" fill="#8b949e" font-size="10" text-anchor="middle" font-family="-apple-system,BlinkMacSystemFont,Segoe UI,Helvetica,Arial,sans-serif">May 02</text>
  <line x1="169.9" y1="50" x2="169.9" y2="340" stroke="#21262d" stroke-width="1" stroke-dasharray="4,4"/>
  <text x="169.9" y="360" fill="#8b949e" font-size="10" text-anchor="middle" font-family="-apple-system,BlinkMacSystemFont,Segoe UI,Helvetica,Arial,sans-serif">May 13</text>
  <line x1="284.7" y1="50" x2="284.7" y2="340" stroke="#21262d" stroke-width="1" stroke-dasharray="4,4"/>
  <text x="284.7" y="360" fill="#8b949e" font-size="10" text-anchor="middle" font-family="-apple-system,BlinkMacSystemFont,Segoe UI,Helvetica,Arial,sans-serif">May 24</text>
  <line x1="399.6" y1="50" x2="399.6" y2="340" stroke="#21262d" stroke-width="1" stroke-dasharray="4,4"/>
  <text x="399.6" y="360" fill="#8b949e" font-size="10" text-anchor="middle" font-family="-apple-system,BlinkMacSystemFont,Segoe UI,Helvetica,Arial,sans-serif">Jun 04</text>
  <line x1="514.5" y1="50" x2="514.5" y2="340" stroke="#21262d" stroke-width="1" stroke-dasharray="4,4"/>
  <text x="514.5" y="360" fill="#8b949e" font-size="10" text-anchor="middle" font-family="-apple-system,BlinkMacSystemFont,Segoe UI,Helvetica,Arial,sans-serif">Jun 15</text>
  <line x1="629.4" y1="50" x2="629.4" y2="340" stroke="#21262d" stroke-width="1" stroke-dasharray="4,4"/>
  <text x="629.4" y="360" fill="#8b949e" font-size="10" text-anchor="middle" font-family="-apple-system,BlinkMacSystemFont,Segoe UI,Helvetica,Arial,sans-serif">Jun 26</text>
  <line x1="744.2" y1="50" x2="744.2" y2="340" stroke="#21262d" stroke-width="1" stroke-dasharray="4,4"/>
  <text x="744.2" y="360" fill="#8b949e" font-size="10" text-anchor="middle" font-family="-apple-system,BlinkMacSystemFont,Segoe UI,Helvetica,Arial,sans-serif">Jul 07</text>
  <line x1="859.1" y1="50" x2="859.1" y2="340" stroke="#21262d" stroke-width="1" stroke-dasharray="4,4"/>
  <text x="859.1" y="360" fill="#8b949e" font-size="10" text-anchor="middle" font-family="-apple-system,BlinkMacSystemFont,Segoe UI,Helvetica,Arial,sans-serif">Jul 18</text>
  <line x1="880.0" y1="50" x2="880.0" y2="340" stroke="#21262d" stroke-width="1" stroke-dasharray="4,4"/>
  <text x="880.0" y="360" fill="#8b949e" font-size="10" text-anchor="middle" font-family="-apple-system,BlinkMacSystemFont,Segoe UI,Helvetica,Arial,sans-serif">Jul 20</text>
  <path d="M55.0,340.0L65.4,327.3L75.9,319.9L86.3,315.7L96.8,309.3L107.2,305.1L117.7,301.9L128.1,301.9L138.5,301.9L149.0,301.9L159.4,301.9L169.9,301.9L180.3,301.9L190.8,301.9L201.2,300.8L211.6,296.6L222.1,292.4L232.5,287.1L243.0,280.7L253.4,274.4L263.9,268.0L274.3,262.7L284.7,258.5L295.2,256.4L305.6,253.2L316.1,241.6L326.5,240.5L337.0,235.2L347.4,227.8L357.8,222.5L368.3,218.3L378.7,218.3L389.2,218.3L399.6,218.3L410.1,218.3L420.5,218.3L430.9,211.9L441.4,203.5L451.8,200.3L462.3,193.9L472.7,189.7L483.2,183.4L493.6,173.8L504.1,168.5L514.5,163.2L524.9,158.0L535.4,148.4L545.8,142.1L556.3,133.6L566.7,127.3L577.2,122.0L587.6,117.7L598.0,111.4L608.5,104.0L618.9,99.7L629.4,96.6L639.8,89.2L650.3,82.8L660.7,74.3L671.1,74.3L681.6,72.2L692.0,72.2L702.5,72.2L712.9,70.1L723.4,66.9L733.8,63.8L744.2,62.7L754.7,57.4L765.1,57.4L775.6,57.4L786.0,57.4L796.5,57.4L806.9,57.4L817.3,57.4L827.8,57.4L838.2,57.4L848.7,57.4L859.1,57.4L869.6,55.3L880.0,55.3L880.0,340.0L55.0,340.0Z" fill="url(#gO)"/>
  <path d="M55.0,338.9L65.4,338.9L75.9,338.9L86.3,338.9L96.8,338.9L107.2,338.9L117.7,338.9L128.1,338.9L138.5,338.9L149.0,338.9L159.4,338.9L169.9,338.9L180.3,338.9L190.8,338.9L201.2,338.9L211.6,335.8L222.1,335.8L232.5,335.8L243.0,335.8L253.4,335.8L263.9,335.8L274.3,335.8L284.7,334.7L295.2,331.5L305.6,331.5L316.1,330.5L326.5,330.5L337.0,330.5L347.4,330.5L357.8,330.5L368.3,328.4L378.7,328.4L389.2,328.4L399.6,328.4L410.1,328.4L420.5,328.4L430.9,328.4L441.4,326.2L451.8,313.5L462.3,313.5L472.7,313.5L483.2,313.5L493.6,305.1L504.1,305.1L514.5,305.1L524.9,305.1L535.4,305.1L545.8,303.0L556.3,303.0L566.7,301.9L577.2,300.8L587.6,299.8L598.0,298.7L608.5,296.6L618.9,292.4L629.4,291.3L639.8,290.3L650.3,290.3L660.7,290.3L671.1,290.3L681.6,290.3L692.0,290.3L702.5,290.3L712.9,290.3L723.4,290.3L733.8,290.3L744.2,290.3L754.7,290.3L765.1,289.2L775.6,288.1L786.0,285.0L796.5,285.0L806.9,283.9L817.3,283.9L827.8,283.9L838.2,283.9L848.7,283.9L859.1,283.9L869.6,283.9L880.0,283.9L880.0,340.0L55.0,340.0Z" fill="url(#gR)"/>
  <path d="M55.0,340.0L65.4,327.3L75.9,319.9L86.3,315.7L96.8,309.3L107.2,305.1L117.7,301.9L128.1,301.9L138.5,301.9L149.0,301.9L159.4,301.9L169.9,301.9L180.3,301.9L190.8,301.9L201.2,300.8L211.6,296.6L222.1,292.4L232.5,287.1L243.0,280.7L253.4,274.4L263.9,268.0L274.3,262.7L284.7,258.5L295.2,256.4L305.6,253.2L316.1,241.6L326.5,240.5L337.0,235.2L347.4,227.8L357.8,222.5L368.3,218.3L378.7,218.3L389.2,218.3L399.6,218.3L410.1,218.3L420.5,218.3L430.9,211.9L441.4,203.5L451.8,200.3L462.3,193.9L472.7,189.7L483.2,183.4L493.6,173.8L504.1,168.5L514.5,163.2L524.9,158.0L535.4,148.4L545.8,142.1L556.3,133.6L566.7,127.3L577.2,122.0L587.6,117.7L598.0,111.4L608.5,104.0L618.9,99.7L629.4,96.6L639.8,89.2L650.3,82.8L660.7,74.3L671.1,74.3L681.6,72.2L692.0,72.2L702.5,72.2L712.9,70.1L723.4,66.9L733.8,63.8L744.2,62.7L754.7,57.4L765.1,57.4L775.6,57.4L786.0,57.4L796.5,57.4L806.9,57.4L817.3,57.4L827.8,57.4L838.2,57.4L848.7,57.4L859.1,57.4L869.6,55.3L880.0,55.3" fill="none" stroke="#58a6ff" stroke-width="2.5" stroke-linecap="round" stroke-linejoin="round"/>
  <path d="M55.0,338.9L65.4,338.9L75.9,338.9L86.3,338.9L96.8,338.9L107.2,338.9L117.7,338.9L128.1,338.9L138.5,338.9L149.0,338.9L159.4,338.9L169.9,338.9L180.3,338.9L190.8,338.9L201.2,338.9L211.6,335.8L222.1,335.8L232.5,335.8L243.0,335.8L253.4,335.8L263.9,335.8L274.3,335.8L284.7,334.7L295.2,331.5L305.6,331.5L316.1,330.5L326.5,330.5L337.0,330.5L347.4,330.5L357.8,330.5L368.3,328.4L378.7,328.4L389.2,328.4L399.6,328.4L410.1,328.4L420.5,328.4L430.9,328.4L441.4,326.2L451.8,313.5L462.3,313.5L472.7,313.5L483.2,313.5L493.6,305.1L504.1,305.1L514.5,305.1L524.9,305.1L535.4,305.1L545.8,303.0L556.3,303.0L566.7,301.9L577.2,300.8L587.6,299.8L598.0,298.7L608.5,296.6L618.9,292.4L629.4,291.3L639.8,290.3L650.3,290.3L660.7,290.3L671.1,290.3L681.6,290.3L692.0,290.3L702.5,290.3L712.9,290.3L723.4,290.3L733.8,290.3L744.2,290.3L754.7,290.3L765.1,289.2L775.6,288.1L786.0,285.0L796.5,285.0L806.9,283.9L817.3,283.9L827.8,283.9L838.2,283.9L848.7,283.9L859.1,283.9L869.6,283.9L880.0,283.9" fill="none" stroke="#f78166" stroke-width="2.5" stroke-linecap="round" stroke-linejoin="round"/>
  <path d="M55.0,340.0L65.4,332.6L75.9,327.3L86.3,325.2L96.8,319.9L107.2,320.9L117.7,317.8L128.1,318.8L138.5,318.8L149.0,319.9L159.4,319.9L169.9,319.9L180.3,319.9L190.8,319.9L201.2,318.8L211.6,317.8L222.1,316.7L232.5,313.5L243.0,307.2L253.4,303.0L263.9,298.7L274.3,295.5L284.7,295.5L295.2,296.6L305.6,298.7L316.1,294.5L326.5,293.4L337.0,293.4L347.4,290.3L357.8,295.5L368.3,292.4L378.7,292.4L389.2,292.4L399.6,292.4L410.1,298.7L420.5,298.7L430.9,297.7L441.4,303.0L451.8,340.0L462.3,340.0L472.7,340.0L483.2,340.0L493.6,335.8L504.1,335.8L514.5,333.6L524.9,333.6L535.4,332.6L545.8,329.4L556.3,330.5L566.7,328.4L577.2,328.4L587.6,330.5L598.0,329.4L608.5,330.5L618.9,327.3L629.4,328.4L639.8,328.4L650.3,323.1L660.7,319.9L671.1,319.9L681.6,320.9L692.0,324.1L702.5,324.1L712.9,323.1L723.4,322.0L733.8,322.0L744.2,320.9L754.7,318.8L765.1,318.8L775.6,318.8L786.0,318.8L796.5,318.8L806.9,318.8L817.3,318.8L827.8,318.8L838.2,318.8L848.7,318.8L859.1,318.8L869.6,318.8L880.0,318.8" fill="none" stroke="#3fb950" stroke-width="2.5" stroke-linecap="round" stroke-linejoin="round"/>
  <path d="M55.0,340.0L65.4,340.0L75.9,338.9L86.3,337.9L96.8,337.9L107.2,336.8L117.7,336.8L128.1,335.8L138.5,335.8L149.0,335.8L159.4,335.8L169.9,335.8L180.3,335.8L190.8,335.8L201.2,335.8L211.6,334.7L222.1,332.6L232.5,331.5L243.0,331.5L253.4,331.5L263.9,329.4L274.3,329.4L284.7,329.4L295.2,328.4L305.6,328.4L316.1,322.0L326.5,322.0L337.0,317.8L347.4,314.6L357.8,310.4L368.3,309.3L378.7,309.3L389.2,309.3L399.6,309.3L410.1,307.2L420.5,307.2L430.9,305.1L441.4,301.9L451.8,299.8L462.3,293.4L472.7,289.2L483.2,282.8L493.6,279.7L504.1,275.4L514.5,273.3L524.9,268.0L535.4,259.6L545.8,256.4L556.3,250.0L566.7,246.9L577.2,241.6L587.6,235.2L598.0,229.9L608.5,221.5L618.9,220.4L629.4,218.3L639.8,213.0L650.3,213.0L660.7,207.7L671.1,207.7L681.6,205.6L692.0,205.6L702.5,205.6L712.9,205.6L723.4,204.5L733.8,202.4L744.2,202.4L754.7,200.3L765.1,200.3L775.6,200.3L786.0,200.3L796.5,200.3L806.9,200.3L817.3,200.3L827.8,200.3L838.2,200.3L848.7,200.3L859.1,200.3L869.6,198.2L880.0,198.2" fill="none" stroke="#d2a8ff" stroke-width="2.5" stroke-linecap="round" stroke-linejoin="round"/>
  <path d="M55.0,340.0L65.4,334.7L75.9,333.6L86.3,332.6L96.8,331.5L107.2,327.3L117.7,327.3L128.1,327.3L138.5,327.3L149.0,326.2L159.4,326.2L169.9,326.2L180.3,326.2L190.8,326.2L201.2,326.2L211.6,324.1L222.1,323.1L232.5,322.0L243.0,322.0L253.4,319.9L263.9,319.9L274.3,317.8L284.7,313.5L295.2,311.4L305.6,306.1L316.1,305.1L326.5,305.1L337.0,304.0L347.4,303.0L357.8,296.6L368.3,296.6L378.7,296.6L389.2,296.6L399.6,296.6L410.1,292.4L420.5,292.4L430.9,289.2L441.4,278.6L451.8,240.5L462.3,240.5L472.7,240.5L483.2,240.5L493.6,238.4L504.1,237.3L514.5,236.3L524.9,236.3L535.4,236.3L545.8,236.3L556.3,233.1L566.7,232.0L577.2,232.0L587.6,232.0L598.0,232.0L608.5,232.0L618.9,232.0L629.4,229.9L639.8,227.8L650.3,226.8L660.7,226.8L671.1,226.8L681.6,225.7L692.0,222.5L702.5,222.5L712.9,221.5L723.4,220.4L733.8,219.3L744.2,219.3L754.7,218.3L765.1,218.3L775.6,218.3L786.0,218.3L796.5,218.3L806.9,218.3L817.3,218.3L827.8,218.3L838.2,218.3L848.7,218.3L859.1,218.3L869.6,218.3L880.0,218.3" fill="none" stroke="#f85149" stroke-width="2.5" stroke-linecap="round" stroke-linejoin="round"/>
  <circle cx="880.0" cy="55.3" r="3.5" fill="#58a6ff"/>
  <text x="889.0" y="59.3" fill="#58a6ff" font-size="11" font-weight="600" font-family="-apple-system,BlinkMacSystemFont,Segoe UI,Helvetica,Arial,sans-serif">269</text>
  <circle cx="880.0" cy="283.9" r="3.5" fill="#f78166"/>
  <text x="889.0" y="287.9" fill="#f78166" font-size="11" font-weight="600" font-family="-apple-system,BlinkMacSystemFont,Segoe UI,Helvetica,Arial,sans-serif">53</text>
  <circle cx="880.0" cy="318.8" r="3.5" fill="#3fb950"/>
  <text x="889.0" y="322.8" fill="#3fb950" font-size="11" font-weight="600" font-family="-apple-system,BlinkMacSystemFont,Segoe UI,Helvetica,Arial,sans-serif">20</text>
  <circle cx="880.0" cy="198.2" r="3.5" fill="#d2a8ff"/>
  <text x="889.0" y="202.2" fill="#d2a8ff" font-size="11" font-weight="600" font-family="-apple-system,BlinkMacSystemFont,Segoe UI,Helvetica,Arial,sans-serif">134</text>
  <circle cx="880.0" cy="218.3" r="3.5" fill="#f85149"/>
  <text x="889.0" y="222.3" fill="#f85149" font-size="11" font-weight="600" font-family="-apple-system,BlinkMacSystemFont,Segoe UI,Helvetica,Arial,sans-serif">115</text>
  <line x1="55" y1="368" x2="71" y2="368" stroke="#f78166" stroke-width="2.5" stroke-linecap="round"/>
  <text x="77" y="372" fill="#8b949e" font-size="11" font-family="-apple-system,BlinkMacSystemFont,Segoe UI,Helvetica,Arial,sans-serif">Repos</text>
  <line x1="255" y1="368" x2="271" y2="368" stroke="#58a6ff" stroke-width="2.5" stroke-linecap="round"/>
  <text x="277" y="372" fill="#8b949e" font-size="11" font-family="-apple-system,BlinkMacSystemFont,Segoe UI,Helvetica,Arial,sans-serif">PRs Opened</text>
  <line x1="455" y1="368" x2="471" y2="368" stroke="#3fb950" stroke-width="2.5" stroke-linecap="round"/>
  <text x="477" y="372" fill="#8b949e" font-size="11" font-family="-apple-system,BlinkMacSystemFont,Segoe UI,Helvetica,Arial,sans-serif">Open PRs</text>
  <line x1="55" y1="386" x2="71" y2="386" stroke="#d2a8ff" stroke-width="2.5" stroke-linecap="round"/>
  <text x="77" y="390" fill="#8b949e" font-size="11" font-family="-apple-system,BlinkMacSystemFont,Segoe UI,Helvetica,Arial,sans-serif">Merged</text>
  <line x1="255" y1="386" x2="271" y2="386" stroke="#f85149" stroke-width="2.5" stroke-linecap="round"/>
  <text x="277" y="390" fill="#8b949e" font-size="11" font-family="-apple-system,BlinkMacSystemFont,Segoe UI,Helvetica,Arial,sans-serif">Closed</text>
</svg>