<svg xmlns="http://www.w3.org/2000/svg" viewBox="0 0 960 400" width="960" height="400">
  <defs>
    <linearGradient id="gR" x1="0" y1="0" x2="0" y2="1">
      <stop offset="0%" stop-color="#3fb950" stop-opacity="0.25"/>
      <stop offset="100%" stop-color="#3fb950" stop-opacity="0.02"/>
    </linearGradient>
    <linearGradient id="gO" x1="0" y1="0" x2="0" y2="1">
      <stop offset="0%" stop-color="#58a6ff" stop-opacity="0.25"/>
      <stop offset="100%" stop-color="#58a6ff" stop-opacity="0.02"/>
    </linearGradient>
    <linearGradient id="gOp" x1="0" y1="0" x2="0" y2="1">
      <stop offset="0%" stop-color="#d2a8ff" stop-opacity="0.25"/>
      <stop offset="100%" stop-color="#d2a8ff" stop-opacity="0.02"/>
    </linearGradient>
    <linearGradient id="gM" x1="0" y1="0" x2="0" y2="1">
      <stop offset="0%" stop-color="#f78166" stop-opacity="0.25"/>
      <stop offset="100%" stop-color="#f78166" stop-opacity="0.02"/>
    </linearGradient>
    <linearGradient id="gC" x1="0" y1="0" x2="0" y2="1">
      <stop offset="0%" stop-color="#f85149" stop-opacity="0.25"/>
      <stop offset="100%" stop-color="#f85149" stop-opacity="0.02"/>
    </linearGradient>
  </defs>
  <rect width="960" height="400" rx="12" fill="#0d1117"/>
  <rect width="960" height="400" rx="12" fill="none" stroke="#30363d" stroke-width="1"/>
  <text x="55" y="30" fill="#e6edf3" font-size="15" font-weight="600" font-family="-apple-system,BlinkMacSystemFont,Segoe UI,Helvetica,Arial,sans-serif">GitHub Activity — jlaportebot</text>
  <text x="880" y="30" fill="#8b949e" font-size="11" text-anchor="end" font-family="-apple-system,BlinkMacSystemFont,Segoe UI,Helvetica,Arial,sans-serif">Updated Jun 16, 2026</text>
  <line x1="55" y1="340.0" x2="880" y2="340.0" stroke="#21262d" stroke-width="1"/>
  <text x="47" y="344.0" fill="#8b949e" font-size="11" text-anchor="end" font-family="-apple-system,BlinkMacSystemFont,Segoe UI,Helvetica,Arial,sans-serif">0</text>
  <line x1="55" y1="323.6" x2="880" y2="323.6" stroke="#21262d" stroke-width="1"/>
  <text x="47" y="327.6" fill="#8b949e" font-size="11" text-anchor="end" font-family="-apple-system,BlinkMacSystemFont,Segoe UI,Helvetica,Arial,sans-serif">10</text>
  <line x1="55" y1="307.2" x2="880" y2="307.2" stroke="#21262d" stroke-width="1"/>
  <text x="47" y="311.2" fill="#8b949e" font-size="11" text-anchor="end" font-family="-apple-system,BlinkMacSystemFont,Segoe UI,Helvetica,Arial,sans-serif">20</text>
  <line x1="55" y1="290.8" x2="880" y2="290.8" stroke="#21262d" stroke-width="1"/>
  <text x="47" y="294.8" fill="#8b949e" font-size="11" text-anchor="end" font-family="-apple-system,BlinkMacSystemFont,Segoe UI,Helvetica,Arial,sans-serif">30</text>
  <line x1="55" y1="274.5" x2="880" y2="274.5" stroke="#21262d" stroke-width="1"/>
  <text x="47" y="278.5" fill="#8b949e" font-size="11" text-anchor="end" font-family="-apple-system,BlinkMacSystemFont,Segoe UI,Helvetica,Arial,sans-serif">40</text>
  <line x1="55" y1="258.1" x2="880" y2="258.1" stroke="#21262d" stroke-width="1"/>
  <text x="47" y="262.1" fill="#8b949e" font-size="11" text-anchor="end" font-family="-apple-system,BlinkMacSystemFont,Segoe UI,Helvetica,Arial,sans-serif">50</text>
  <line x1="55" y1="241.7" x2="880" y2="241.7" stroke="#21262d" stroke-width="1"/>
  <text x="47" y="245.7" fill="#8b949e" font-size="11" text-anchor="end" font-family="-apple-system,BlinkMacSystemFont,Segoe UI,Helvetica,Arial,sans-serif">60</text>
  <line x1="55" y1="225.3" x2="880" y2="225.3" stroke="#21262d" stroke-width="1"/>
  <text x="47" y="229.3" fill="#8b949e" font-size="11" text-anchor="end" font-family="-apple-system,BlinkMacSystemFont,Segoe UI,Helvetica,Arial,sans-serif">70</text>
  <line x1="55" y1="208.9" x2="880" y2="208.9" stroke="#21262d" stroke-width="1"/>
  <text x="47" y="212.9" fill="#8b949e" font-size="11" text-anchor="end" font-family="-apple-system,BlinkMacSystemFont,Segoe UI,Helvetica,Arial,sans-serif">80</text>
  <line x1="55" y1="192.5" x2="880" y2="192.5" stroke="#21262d" stroke-width="1"/>
  <text x="47" y="196.5" fill="#8b949e" font-size="11" text-anchor="end" font-family="-apple-system,BlinkMacSystemFont,Segoe UI,Helvetica,Arial,sans-serif">90</text>
  <line x1="55" y1="176.2" x2="880" y2="176.2" stroke="#21262d" stroke-width="1"/>
  <text x="47" y="180.2" fill="#8b949e" font-size="11" text-anchor="end" font-family="-apple-system,BlinkMacSystemFont,Segoe UI,Helvetica,Arial,sans-serif">100</text>
  <line x1="55" y1="159.8" x2="880" y2="159.8" stroke="#21262d" stroke-width="1"/>
  <text x="47" y="163.8" fill="#8b949e" font-size="11" text-anchor="end" font-family="-apple-system,BlinkMacSystemFont,Segoe UI,Helvetica,Arial,sans-serif">110</text>
  <line x1="55" y1="143.4" x2="880" y2="143.4" stroke="#21262d" stroke-width="1"/>
  <text x="47" y="147.4" fill="#8b949e" font-size="11" text-anchor="end" font-family="-apple-system,BlinkMacSystemFont,Segoe UI,Helvetica,Arial,sans-serif">120</text>
  <line x1="55" y1="127.0" x2="880" y2="127.0" stroke="#21262d" stroke-width="1"/>
  <text x="47" y="131.0" fill="#8b949e" font-size="11" text-anchor="end" font-family="-apple-system,BlinkMacSystemFont,Segoe UI,Helvetica,Arial,sans-serif">130</text>
  <line x1="55" y1="110.6" x2="880" y2="110.6" stroke="#21262d" stroke-width="1"/>
  <text x="47" y="114.6" fill="#8b949e" font-size="11" text-anchor="end" font-family="-apple-system,BlinkMacSystemFont,Segoe UI,Helvetica,Arial,sans-serif">140</text>
  <line x1="55" y1="94.2" x2="880" y2="94.2" stroke="#21262d" stroke-width="1"/>
  <text x="47" y="98.2" fill="#8b949e" font-size="11" text-anchor="end" font-family="-apple-system,BlinkMacSystemFont,Segoe UI,Helvetica,Arial,sans-serif">150</text>
  <line x1="55" y1="77.9" x2="880" y2="77.9" stroke="#21262d" stroke-width="1"/>
  <text x="47" y="81.9" fill="#8b949e" font-size="11" text-anchor="end" font-family="-apple-system,BlinkMacSystemFont,Segoe UI,Helvetica,Arial,sans-serif">160</text>
  <line x1="55" y1="61.5" x2="880" y2="61.5" stroke="#21262d" stroke-width="1"/>
  <text x="47" y="65.5" fill="#8b949e" font-size="11" text-anchor="end" font-family="-apple-system,BlinkMacSystemFont,Segoe UI,Helvetica,Arial,sans-serif">170</text>
  <line x1="55.0" y1="50" x2="55.0" y2="340" stroke="#21262d" stroke-width="1" stroke-dasharray="4,4"/>
  <text x="55.0" y="360" fill="#8b949e" font-size="10" text-anchor="middle" font-family="-apple-system,BlinkMacSystemFont,Segoe UI,Helvetica,Arial,sans-serif">May 02</text>
  <line x1="165.0" y1="50" x2="165.0" y2="340" stroke="#21262d" stroke-width="1" stroke-dasharray="4,4"/>
  <text x="165.0" y="360" fill="#8b949e" font-size="10" text-anchor="middle" font-family="-apple-system,BlinkMacSystemFont,Segoe UI,Helvetica,Arial,sans-serif">May 08</text>
  <line x1="275.0" y1="50" x2="275.0" y2="340" stroke="#21262d" stroke-width="1" stroke-dasharray="4,4"/>
  <text x="275.0" y="360" fill="#8b949e" font-size="10" text-anchor="middle" font-family="-apple-system,BlinkMacSystemFont,Segoe UI,Helvetica,Arial,sans-serif">May 14</text>
  <line x1="385.0" y1="50" x2="385.0" y2="340" stroke="#21262d" stroke-width="1" stroke-dasharray="4,4"/>
  <text x="385.0" y="360" fill="#8b949e" font-size="10" text-anchor="middle" font-family="-apple-system,BlinkMacSystemFont,Segoe UI,Helvetica,Arial,sans-serif">May 20</text>
  <line x1="495.0" y1="50" x2="495.0" y2="340" stroke="#21262d" stroke-width="1" stroke-dasharray="4,4"/>
  <text x="495.0" y="360" fill="#8b949e" font-size="10" text-anchor="middle" font-family="-apple-system,BlinkMacSystemFont,Segoe UI,Helvetica,Arial,sans-serif">May 26</text>
  <line x1="605.0" y1="50" x2="605.0" y2="340" stroke="#21262d" stroke-width="1" stroke-dasharray="4,4"/>
  <text x="605.0" y="360" fill="#8b949e" font-size="10" text-anchor="middle" font-family="-apple-system,BlinkMacSystemFont,Segoe UI,Helvetica,Arial,sans-serif">Jun 01</text>
  <line x1="715.0" y1="50" x2="715.0" y2="340" stroke="#21262d" stroke-width="1" stroke-dasharray="4,4"/>
  <text x="715.0" y="360" fill="#8b949e" font-size="10" text-anchor="middle" font-family="-apple-system,BlinkMacSystemFont,Segoe UI,Helvetica,Arial,sans-serif">Jun 07</text>
  <line x1="825.0" y1="50" x2="825.0" y2="340" stroke="#21262d" stroke-width="1" stroke-dasharray="4,4"/>
  <text x="825.0" y="360" fill="#8b949e" font-size="10" text-anchor="middle" font-family="-apple-system,BlinkMacSystemFont,Segoe UI,Helvetica,Arial,sans-serif">Jun 13</text>
  <line x1="880.0" y1="50" x2="880.0" y2="340" stroke="#21262d" stroke-width="1" stroke-dasharray="4,4"/>
  <text x="880.0" y="360" fill="#8b949e" font-size="10" text-anchor="middle" font-family="-apple-system,BlinkMacSystemFont,Segoe UI,Helvetica,Arial,sans-serif">Jun 16</text>
  <path d="M55.0,340.0L73.3,320.3L91.7,308.9L110.0,302.3L128.3,292.5L146.7,285.9L165.0,281.0L183.3,281.0L201.7,281.0L220.0,281.0L238.3,281.0L256.7,281.0L275.0,281.0L293.3,281.0L311.7,279.4L330.0,272.8L348.3,266.3L366.7,258.1L385.0,248.2L403.3,238.4L421.7,228.6L440.0,220.4L458.3,213.8L476.7,210.6L495.0,205.6L513.3,187.6L531.7,186.0L550.0,177.8L568.3,166.3L586.7,158.1L605.0,151.6L623.3,151.6L641.7,151.6L660.0,151.6L678.3,151.6L696.7,151.6L715.0,141.8L733.3,128.6L751.7,123.7L770.0,113.9L788.3,107.3L806.7,97.5L825.0,82.8L843.3,74.6L861.7,66.4L880.0,58.2L880.0,340.0L55.0,340.0Z" fill="url(#gO)"/>
  <path d="M55.0,338.4L73.3,338.4L91.7,338.4L110.0,338.4L128.3,338.4L146.7,338.4L165.0,338.4L183.3,338.4L201.7,338.4L220.0,338.4L238.3,338.4L256.7,338.4L275.0,338.4L293.3,338.4L311.7,338.4L330.0,333.4L348.3,333.4L366.7,333.4L385.0,333.4L403.3,333.4L421.7,333.4L440.0,333.4L458.3,331.8L476.7,326.9L495.0,326.9L513.3,325.3L531.7,325.3L550.0,325.3L568.3,325.3L586.7,325.3L605.0,322.0L623.3,322.0L641.7,322.0L660.0,322.0L678.3,322.0L696.7,322.0L715.0,322.0L733.3,318.7L751.7,299.0L770.0,299.0L788.3,299.0L806.7,299.0L825.0,285.9L843.3,285.9L861.7,285.9L880.0,285.9L880.0,340.0L55.0,340.0Z" fill="url(#gR)"/>
  <path d="M55.0,340.0L73.3,320.3L91.7,308.9L110.0,302.3L128.3,292.5L146.7,285.9L165.0,281.0L183.3,281.0L201.7,281.0L220.0,281.0L238.3,281.0L256.7,281.0L275.0,281.0L293.3,281.0L311.7,279.4L330.0,272.8L348.3,266.3L366.7,258.1L385.0,248.2L403.3,238.4L421.7,228.6L440.0,220.4L458.3,213.8L476.7,210.6L495.0,205.6L513.3,187.6L531.7,186.0L550.0,177.8L568.3,166.3L586.7,158.1L605.0,151.6L623.3,151.6L641.7,151.6L660.0,151.6L678.3,151.6L696.7,151.6L715.0,141.8L733.3,128.6L751.7,123.7L770.0,113.9L788.3,107.3L806.7,97.5L825.0,82.8L843.3,74.6L861.7,66.4L880.0,58.2" fill="none" stroke="#58a6ff" stroke-width="2.5" stroke-linecap="round" stroke-linejoin="round"/>
  <path d="M55.0,338.4L73.3,338.4L91.7,338.4L110.0,338.4L128.3,338.4L146.7,338.4L165.0,338.4L183.3,338.4L201.7,338.4L220.0,338.4L238.3,338.4L256.7,338.4L275.0,338.4L293.3,338.4L311.7,338.4L330.0,333.4L348.3,333.4L366.7,333.4L385.0,333.4L403.3,333.4L421.7,333.4L440.0,333.4L458.3,331.8L476.7,326.9L495.0,326.9L513.3,325.3L531.7,325.3L550.0,325.3L568.3,325.3L586.7,325.3L605.0,322.0L623.3,322.0L641.7,322.0L660.0,322.0L678.3,322.0L696.7,322.0L715.0,322.0L733.3,318.7L751.7,299.0L770.0,299.0L788.3,299.0L806.7,299.0L825.0,285.9L843.3,285.9L861.7,285.9L880.0,285.9" fill="none" stroke="#3fb950" stroke-width="2.5" stroke-linecap="round" stroke-linejoin="round"/>
  <path d="M55.0,340.0L73.3,328.5L91.7,320.3L110.0,317.1L128.3,308.9L146.7,310.5L165.0,305.6L183.3,307.2L201.7,307.2L220.0,308.9L238.3,308.9L256.7,308.9L275.0,308.9L293.3,308.9L311.7,307.2L330.0,305.6L348.3,304.0L366.7,299.0L385.0,289.2L403.3,282.7L421.7,276.1L440.0,271.2L458.3,271.2L476.7,272.8L495.0,276.1L513.3,269.5L531.7,267.9L550.0,267.9L568.3,263.0L586.7,271.2L605.0,266.3L623.3,266.3L641.7,266.3L660.0,266.3L678.3,276.1L696.7,276.1L715.0,274.5L733.3,282.7L751.7,340.0L770.0,340.0L788.3,340.0L806.7,340.0L825.0,333.4L843.3,333.4L861.7,330.2L880.0,330.2" fill="none" stroke="#d2a8ff" stroke-width="2.5" stroke-linecap="round" stroke-linejoin="round"/>
  <path d="M55.0,340.0L73.3,340.0L91.7,338.4L110.0,336.7L128.3,336.7L146.7,335.1L165.0,335.1L183.3,333.4L201.7,333.4L220.0,333.4L238.3,333.4L256.7,333.4L275.0,333.4L293.3,333.4L311.7,333.4L330.0,331.8L348.3,328.5L366.7,326.9L385.0,326.9L403.3,326.9L421.7,323.6L440.0,323.6L458.3,323.6L476.7,322.0L495.0,322.0L513.3,312.1L531.7,312.1L550.0,305.6L568.3,300.7L586.7,294.1L605.0,292.5L623.3,292.5L641.7,292.5L660.0,292.5L678.3,289.2L696.7,289.2L715.0,285.9L733.3,281.0L751.7,277.7L770.0,267.9L788.3,261.4L806.7,251.5L825.0,246.6L843.3,240.1L861.7,236.8L880.0,228.6" fill="none" stroke="#f78166" stroke-width="2.5" stroke-linecap="round" stroke-linejoin="round"/>
  <path d="M55.0,340.0L73.3,331.8L91.7,330.2L110.0,328.5L128.3,326.9L146.7,320.3L165.0,320.3L183.3,320.3L201.7,320.3L220.0,318.7L238.3,318.7L256.7,318.7L275.0,318.7L293.3,318.7L311.7,318.7L330.0,315.4L348.3,313.8L366.7,312.1L385.0,312.1L403.3,308.9L421.7,308.9L440.0,305.6L458.3,299.0L476.7,295.8L495.0,287.6L513.3,285.9L531.7,285.9L550.0,284.3L568.3,282.7L586.7,272.8L605.0,272.8L623.3,272.8L641.7,272.8L660.0,272.8L678.3,266.3L696.7,266.3L715.0,261.4L733.3,245.0L751.7,186.0L770.0,186.0L788.3,186.0L806.7,186.0L825.0,182.7L843.3,181.1L861.7,179.4L880.0,179.4" fill="none" stroke="#f85149" stroke-width="2.5" stroke-linecap="round" stroke-linejoin="round"/>
  <circle cx="880.0" cy="58.2" r="3.5" fill="#58a6ff"/>
  <text x="889.0" y="62.2" fill="#58a6ff" font-size="11" font-weight="600" font-family="-apple-system,BlinkMacSystemFont,Segoe UI,Helvetica,Arial,sans-serif">172</text>
  <circle cx="880.0" cy="285.9" r="3.5" fill="#3fb950"/>
  <text x="889.0" y="289.9" fill="#3fb950" font-size="11" font-weight="600" font-family="-apple-system,BlinkMacSystemFont,Segoe UI,Helvetica,Arial,sans-serif">33</text>
  <circle cx="880.0" cy="330.2" r="3.5" fill="#d2a8ff"/>
  <text x="889.0" y="334.2" fill="#d2a8ff" font-size="11" font-weight="600" font-family="-apple-system,BlinkMacSystemFont,Segoe UI,Helvetica,Arial,sans-serif">6</text>
  <circle cx="880.0" cy="228.6" r="3.5" fill="#f78166"/>
  <text x="889.0" y="232.6" fill="#f78166" font-size="11" font-weight="600" font-family="-apple-system,BlinkMacSystemFont,Segoe UI,Helvetica,Arial,sans-serif">68</text>
  <circle cx="880.0" cy="179.4" r="3.5" fill="#f85149"/>
  <text x="889.0" y="183.4" fill="#f85149" font-size="11" font-weight="600" font-family="-apple-system,BlinkMacSystemFont,Segoe UI,Helvetica,Arial,sans-serif">98</text>
  <line x1="55" y1="368" x2="71" y2="368" stroke="#3fb950" stroke-width="2.5" stroke-linecap="round"/>
  <text x="77" y="372" fill="#8b949e" font-size="11" font-family="-apple-system,BlinkMacSystemFont,Segoe UI,Helvetica,Arial,sans-serif">Repos</text>
  <line x1="255" y1="368" x2="271" y2="368" stroke="#58a6ff" stroke-width="2.5" stroke-linecap="round"/>
  <text x="277" y="372" fill="#8b949e" font-size="11" font-family="-apple-system,BlinkMacSystemFont,Segoe UI,Helvetica,Arial,sans-serif">PRs Opened</text>
  <line x1="455" y1="368" x2="471" y2="368" stroke="#d2a8ff" stroke-width="2.5" stroke-linecap="round"/>
  <text x="477" y="372" fill="#8b949e" font-size="11" font-family="-apple-system,BlinkMacSystemFont,Segoe UI,Helvetica,Arial,sans-serif">Open PRs</text>
  <line x1="55" y1="386" x2="71" y2="386" stroke="#f78166" stroke-width="2.5" stroke-linecap="round"/>
  <text x="77" y="390" fill="#8b949e" font-size="11" font-family="-apple-system,BlinkMacSystemFont,Segoe UI,Helvetica,Arial,sans-serif">Merged</text>
  <line x1="255" y1="386" x2="271" y2="386" stroke="#f85149" stroke-width="2.5" stroke-linecap="round"/>
  <text x="277" y="390" fill="#8b949e" font-size="11" font-family="-apple-system,BlinkMacSystemFont,Segoe UI,Helvetica,Arial,sans-serif">Closed</text>
</svg>