<svg xmlns="http://www.w3.org/2000/svg" viewBox="0 0 960 400" width="960" height="400">
  <defs>
    <linearGradient id="gR" x1="0" y1="0" x2="0" y2="1">
      <stop offset="0%" stop-color="#f78166" stop-opacity="0.25"/>
      <stop offset="100%" stop-color="#f78166" stop-opacity="0.02"/>
    </linearGradient>
    <linearGradient id="gO" x1="0" y1="0" x2="0" y2="1">
      <stop offset="0%" stop-color="#58a6ff" stop-opacity="0.25"/>
      <stop offset="100%" stop-color="#58a6ff" stop-opacity="0.02"/>
    </linearGradient>
    <linearGradient id="gOp" x1="0" y1="0" x2="0" y2="1">
      <stop offset="0%" stop-color="#3fb950" stop-opacity="0.25"/>
      <stop offset="100%" stop-color="#3fb950" stop-opacity="0.02"/>
    </linearGradient>
    <linearGradient id="gM" x1="0" y1="0" x2="0" y2="1">
      <stop offset="0%" stop-color="#d2a8ff" stop-opacity="0.25"/>
      <stop offset="100%" stop-color="#d2a8ff" stop-opacity="0.02"/>
    </linearGradient>
    <linearGradient id="gC" x1="0" y1="0" x2="0" y2="1">
      <stop offset="0%" stop-color="#f85149" stop-opacity="0.25"/>
      <stop offset="100%" stop-color="#f85149" stop-opacity="0.02"/>
    </linearGradient>
  </defs>
  <rect width="960" height="400" rx="12" fill="#0d1117"/>
  <rect width="960" height="400" rx="12" fill="none" stroke="#30363d" stroke-width="1"/>
  <text x="55" y="30" fill="#e6edf3" font-size="15" font-weight="600" font-family="-apple-system,BlinkMacSystemFont,Segoe UI,Helvetica,Arial,sans-serif">GitHub Activity — jlaportebot</text>
  <text x="880" y="30" fill="#8b949e" font-size="11" text-anchor="end" font-family="-apple-system,BlinkMacSystemFont,Segoe UI,Helvetica,Arial,sans-serif">Updated Jul 01, 2026</text>
  <line x1="55" y1="340.0" x2="880" y2="340.0" stroke="#21262d" stroke-width="1"/>
  <text x="47" y="344.0" fill="#8b949e" font-size="11" text-anchor="end" font-family="-apple-system,BlinkMacSystemFont,Segoe UI,Helvetica,Arial,sans-serif">0</text>
  <line x1="55" y1="328.7" x2="880" y2="328.7" stroke="#21262d" stroke-width="1"/>
  <text x="47" y="332.7" fill="#8b949e" font-size="11" text-anchor="end" font-family="-apple-system,BlinkMacSystemFont,Segoe UI,Helvetica,Arial,sans-serif">10</text>
  <line x1="55" y1="317.3" x2="880" y2="317.3" stroke="#21262d" stroke-width="1"/>
  <text x="47" y="321.3" fill="#8b949e" font-size="11" text-anchor="end" font-family="-apple-system,BlinkMacSystemFont,Segoe UI,Helvetica,Arial,sans-serif">20</text>
  <line x1="55" y1="306.0" x2="880" y2="306.0" stroke="#21262d" stroke-width="1"/>
  <text x="47" y="310.0" fill="#8b949e" font-size="11" text-anchor="end" font-family="-apple-system,BlinkMacSystemFont,Segoe UI,Helvetica,Arial,sans-serif">30</text>
  <line x1="55" y1="294.7" x2="880" y2="294.7" stroke="#21262d" stroke-width="1"/>
  <text x="47" y="298.7" fill="#8b949e" font-size="11" text-anchor="end" font-family="-apple-system,BlinkMacSystemFont,Segoe UI,Helvetica,Arial,sans-serif">40</text>
  <line x1="55" y1="283.4" x2="880" y2="283.4" stroke="#21262d" stroke-width="1"/>
  <text x="47" y="287.4" fill="#8b949e" font-size="11" text-anchor="end" font-family="-apple-system,BlinkMacSystemFont,Segoe UI,Helvetica,Arial,sans-serif">50</text>
  <line x1="55" y1="272.0" x2="880" y2="272.0" stroke="#21262d" stroke-width="1"/>
  <text x="47" y="276.0" fill="#8b949e" font-size="11" text-anchor="end" font-family="-apple-system,BlinkMacSystemFont,Segoe UI,Helvetica,Arial,sans-serif">60</text>
  <line x1="55" y1="260.7" x2="880" y2="260.7" stroke="#21262d" stroke-width="1"/>
  <text x="47" y="264.7" fill="#8b949e" font-size="11" text-anchor="end" font-family="-apple-system,BlinkMacSystemFont,Segoe UI,Helvetica,Arial,sans-serif">70</text>
  <line x1="55" y1="249.4" x2="880" y2="249.4" stroke="#21262d" stroke-width="1"/>
  <text x="47" y="253.4" fill="#8b949e" font-size="11" text-anchor="end" font-family="-apple-system,BlinkMacSystemFont,Segoe UI,Helvetica,Arial,sans-serif">80</text>
  <line x1="55" y1="238.0" x2="880" y2="238.0" stroke="#21262d" stroke-width="1"/>
  <text x="47" y="242.0" fill="#8b949e" font-size="11" text-anchor="end" font-family="-apple-system,BlinkMacSystemFont,Segoe UI,Helvetica,Arial,sans-serif">90</text>
  <line x1="55" y1="226.7" x2="880" y2="226.7" stroke="#21262d" stroke-width="1"/>
  <text x="47" y="230.7" fill="#8b949e" font-size="11" text-anchor="end" font-family="-apple-system,BlinkMacSystemFont,Segoe UI,Helvetica,Arial,sans-serif">100</text>
  <line x1="55" y1="215.4" x2="880" y2="215.4" stroke="#21262d" stroke-width="1"/>
  <text x="47" y="219.4" fill="#8b949e" font-size="11" text-anchor="end" font-family="-apple-system,BlinkMacSystemFont,Segoe UI,Helvetica,Arial,sans-serif">110</text>
  <line x1="55" y1="204.1" x2="880" y2="204.1" stroke="#21262d" stroke-width="1"/>
  <text x="47" y="208.1" fill="#8b949e" font-size="11" text-anchor="end" font-family="-apple-system,BlinkMacSystemFont,Segoe UI,Helvetica,Arial,sans-serif">120</text>
  <line x1="55" y1="192.7" x2="880" y2="192.7" stroke="#21262d" stroke-width="1"/>
  <text x="47" y="196.7" fill="#8b949e" font-size="11" text-anchor="end" font-family="-apple-system,BlinkMacSystemFont,Segoe UI,Helvetica,Arial,sans-serif">130</text>
  <line x1="55" y1="181.4" x2="880" y2="181.4" stroke="#21262d" stroke-width="1"/>
  <text x="47" y="185.4" fill="#8b949e" font-size="11" text-anchor="end" font-family="-apple-system,BlinkMacSystemFont,Segoe UI,Helvetica,Arial,sans-serif">140</text>
  <line x1="55" y1="170.1" x2="880" y2="170.1" stroke="#21262d" stroke-width="1"/>
  <text x="47" y="174.1" fill="#8b949e" font-size="11" text-anchor="end" font-family="-apple-system,BlinkMacSystemFont,Segoe UI,Helvetica,Arial,sans-serif">150</text>
  <line x1="55" y1="158.8" x2="880" y2="158.8" stroke="#21262d" stroke-width="1"/>
  <text x="47" y="162.8" fill="#8b949e" font-size="11" text-anchor="end" font-family="-apple-system,BlinkMacSystemFont,Segoe UI,Helvetica,Arial,sans-serif">160</text>
  <line x1="55" y1="147.4" x2="880" y2="147.4" stroke="#21262d" stroke-width="1"/>
  <text x="47" y="151.4" fill="#8b949e" font-size="11" text-anchor="end" font-family="-apple-system,BlinkMacSystemFont,Segoe UI,Helvetica,Arial,sans-serif">170</text>
  <line x1="55" y1="136.1" x2="880" y2="136.1" stroke="#21262d" stroke-width="1"/>
  <text x="47" y="140.1" fill="#8b949e" font-size="11" text-anchor="end" font-family="-apple-system,BlinkMacSystemFont,Segoe UI,Helvetica,Arial,sans-serif">180</text>
  <line x1="55" y1="124.8" x2="880" y2="124.8" stroke="#21262d" stroke-width="1"/>
  <text x="47" y="128.8" fill="#8b949e" font-size="11" text-anchor="end" font-family="-apple-system,BlinkMacSystemFont,Segoe UI,Helvetica,Arial,sans-serif">190</text>
  <line x1="55" y1="113.4" x2="880" y2="113.4" stroke="#21262d" stroke-width="1"/>
  <text x="47" y="117.4" fill="#8b949e" font-size="11" text-anchor="end" font-family="-apple-system,BlinkMacSystemFont,Segoe UI,Helvetica,Arial,sans-serif">200</text>
  <line x1="55" y1="102.1" x2="880" y2="102.1" stroke="#21262d" stroke-width="1"/>
  <text x="47" y="106.1" fill="#8b949e" font-size="11" text-anchor="end" font-family="-apple-system,BlinkMacSystemFont,Segoe UI,Helvetica,Arial,sans-serif">210</text>
  <line x1="55" y1="90.8" x2="880" y2="90.8" stroke="#21262d" stroke-width="1"/>
  <text x="47" y="94.8" fill="#8b949e" font-size="11" text-anchor="end" font-family="-apple-system,BlinkMacSystemFont,Segoe UI,Helvetica,Arial,sans-serif">220</text>
  <line x1="55" y1="79.5" x2="880" y2="79.5" stroke="#21262d" stroke-width="1"/>
  <text x="47" y="83.5" fill="#8b949e" font-size="11" text-anchor="end" font-family="-apple-system,BlinkMacSystemFont,Segoe UI,Helvetica,Arial,sans-serif">230</text>
  <line x1="55" y1="68.1" x2="880" y2="68.1" stroke="#21262d" stroke-width="1"/>
  <text x="47" y="72.1" fill="#8b949e" font-size="11" text-anchor="end" font-family="-apple-system,BlinkMacSystemFont,Segoe UI,Helvetica,Arial,sans-serif">240</text>
  <line x1="55" y1="56.8" x2="880" y2="56.8" stroke="#21262d" stroke-width="1"/>
  <text x="47" y="60.8" fill="#8b949e" font-size="11" text-anchor="end" font-family="-apple-system,BlinkMacSystemFont,Segoe UI,Helvetica,Arial,sans-serif">250</text>
  <line x1="55.0" y1="50" x2="55.0" y2="340" stroke="#21262d" stroke-width="1" stroke-dasharray="4,4"/>
  <text x="55.0" y="360" fill="#8b949e" font-size="10" text-anchor="middle" font-family="-apple-system,BlinkMacSystemFont,Segoe UI,Helvetica,Arial,sans-serif">May 02</text>
  <line x1="165.0" y1="50" x2="165.0" y2="340" stroke="#21262d" stroke-width="1" stroke-dasharray="4,4"/>
  <text x="165.0" y="360" fill="#8b949e" font-size="10" text-anchor="middle" font-family="-apple-system,BlinkMacSystemFont,Segoe UI,Helvetica,Arial,sans-serif">May 10</text>
  <line x1="275.0" y1="50" x2="275.0" y2="340" stroke="#21262d" stroke-width="1" stroke-dasharray="4,4"/>
  <text x="275.0" y="360" fill="#8b949e" font-size="10" text-anchor="middle" font-family="-apple-system,BlinkMacSystemFont,Segoe UI,Helvetica,Arial,sans-serif">May 18</text>
  <line x1="385.0" y1="50" x2="385.0" y2="340" stroke="#21262d" stroke-width="1" stroke-dasharray="4,4"/>
  <text x="385.0" y="360" fill="#8b949e" font-size="10" text-anchor="middle" font-family="-apple-system,BlinkMacSystemFont,Segoe UI,Helvetica,Arial,sans-serif">May 26</text>
  <line x1="495.0" y1="50" x2="495.0" y2="340" stroke="#21262d" stroke-width="1" stroke-dasharray="4,4"/>
  <text x="495.0" y="360" fill="#8b949e" font-size="10" text-anchor="middle" font-family="-apple-system,BlinkMacSystemFont,Segoe UI,Helvetica,Arial,sans-serif">Jun 03</text>
  <line x1="605.0" y1="50" x2="605.0" y2="340" stroke="#21262d" stroke-width="1" stroke-dasharray="4,4"/>
  <text x="605.0" y="360" fill="#8b949e" font-size="10" text-anchor="middle" font-family="-apple-system,BlinkMacSystemFont,Segoe UI,Helvetica,Arial,sans-serif">Jun 11</text>
  <line x1="715.0" y1="50" x2="715.0" y2="340" stroke="#21262d" stroke-width="1" stroke-dasharray="4,4"/>
  <text x="715.0" y="360" fill="#8b949e" font-size="10" text-anchor="middle" font-family="-apple-system,BlinkMacSystemFont,Segoe UI,Helvetica,Arial,sans-serif">Jun 19</text>
  <line x1="825.0" y1="50" x2="825.0" y2="340" stroke="#21262d" stroke-width="1" stroke-dasharray="4,4"/>
  <text x="825.0" y="360" fill="#8b949e" font-size="10" text-anchor="middle" font-family="-apple-system,BlinkMacSystemFont,Segoe UI,Helvetica,Arial,sans-serif">Jun 27</text>
  <line x1="880.0" y1="50" x2="880.0" y2="340" stroke="#21262d" stroke-width="1" stroke-dasharray="4,4"/>
  <text x="880.0" y="360" fill="#8b949e" font-size="10" text-anchor="middle" font-family="-apple-system,BlinkMacSystemFont,Segoe UI,Helvetica,Arial,sans-serif">Jul 01</text>
  <path d="M55.0,340.0L68.8,326.4L82.5,318.5L96.2,313.9L110.0,307.1L123.8,302.6L137.5,299.2L151.2,299.2L165.0,299.2L178.8,299.2L192.5,299.2L206.2,299.2L220.0,299.2L233.8,299.2L247.5,298.1L261.2,293.6L275.0,289.0L288.8,283.4L302.5,276.6L316.2,269.8L330.0,263.0L343.8,257.3L357.5,252.8L371.2,250.5L385.0,247.1L398.8,234.6L412.5,233.5L426.2,227.9L440.0,219.9L453.8,214.3L467.5,209.7L481.3,209.7L495.0,209.7L508.8,209.7L522.5,209.7L536.2,209.7L550.0,202.9L563.8,193.9L577.5,190.5L591.2,183.7L605.0,179.1L618.8,172.3L632.5,162.1L646.2,156.5L660.0,150.8L673.8,145.2L687.5,135.0L701.2,128.2L715.0,119.1L728.8,112.3L742.5,106.6L756.2,102.1L770.0,95.3L783.8,87.4L797.5,82.9L811.2,79.5L825.0,71.5L838.8,64.7L852.5,55.7L866.2,55.7L880.0,55.7L880.0,340.0L55.0,340.0Z" fill="url(#gO)"/>
  <path d="M55.0,338.9L68.8,338.9L82.5,338.9L96.2,338.9L110.0,338.9L123.8,338.9L137.5,338.9L151.2,338.9L165.0,338.9L178.8,338.9L192.5,338.9L206.2,338.9L220.0,338.9L233.8,338.9L247.5,338.9L261.2,335.5L275.0,335.5L288.8,335.5L302.5,335.5L316.2,335.5L330.0,335.5L343.8,335.5L357.5,334.3L371.2,330.9L385.0,330.9L398.8,329.8L412.5,329.8L426.2,329.8L440.0,329.8L453.8,329.8L467.5,327.5L481.3,327.5L495.0,327.5L508.8,327.5L522.5,327.5L536.2,327.5L550.0,327.5L563.8,325.3L577.5,311.7L591.2,311.7L605.0,311.7L618.8,311.7L632.5,302.6L646.2,302.6L660.0,302.6L673.8,302.6L687.5,302.6L701.2,300.4L715.0,300.4L728.8,299.2L742.5,298.1L756.2,297.0L770.0,295.8L783.8,293.6L797.5,289.0L811.2,287.9L825.0,286.8L838.8,286.8L852.5,286.8L866.2,286.8L880.0,286.8L880.0,340.0L55.0,340.0Z" fill="url(#gR)"/>
  <path d="M55.0,340.0L68.8,326.4L82.5,318.5L96.2,313.9L110.0,307.1L123.8,302.6L137.5,299.2L151.2,299.2L165.0,299.2L178.8,299.2L192.5,299.2L206.2,299.2L220.0,299.2L233.8,299.2L247.5,298.1L261.2,293.6L275.0,289.0L288.8,283.4L302.5,276.6L316.2,269.8L330.0,263.0L343.8,257.3L357.5,252.8L371.2,250.5L385.0,247.1L398.8,234.6L412.5,233.5L426.2,227.9L440.0,219.9L453.8,214.3L467.5,209.7L481.3,209.7L495.0,209.7L508.8,209.7L522.5,209.7L536.2,209.7L550.0,202.9L563.8,193.9L577.5,190.5L591.2,183.7L605.0,179.1L618.8,172.3L632.5,162.1L646.2,156.5L660.0,150.8L673.8,145.2L687.5,135.0L701.2,128.2L715.0,119.1L728.8,112.3L742.5,106.6L756.2,102.1L770.0,95.3L783.8,87.4L797.5,82.9L811.2,79.5L825.0,71.5L838.8,64.7L852.5,55.7L866.2,55.7L880.0,55.7" fill="none" stroke="#58a6ff" stroke-width="2.5" stroke-linecap="round" stroke-linejoin="round"/>
  <path d="M55.0,338.9L68.8,338.9L82.5,338.9L96.2,338.9L110.0,338.9L123.8,338.9L137.5,338.9L151.2,338.9L165.0,338.9L178.8,338.9L192.5,338.9L206.2,338.9L220.0,338.9L233.8,338.9L247.5,338.9L261.2,335.5L275.0,335.5L288.8,335.5L302.5,335.5L316.2,335.5L330.0,335.5L343.8,335.5L357.5,334.3L371.2,330.9L385.0,330.9L398.8,329.8L412.5,329.8L426.2,329.8L440.0,329.8L453.8,329.8L467.5,327.5L481.3,327.5L495.0,327.5L508.8,327.5L522.5,327.5L536.2,327.5L550.0,327.5L563.8,325.3L577.5,311.7L591.2,311.7L605.0,311.7L618.8,311.7L632.5,302.6L646.2,302.6L660.0,302.6L673.8,302.6L687.5,302.6L701.2,300.4L715.0,300.4L728.8,299.2L742.5,298.1L756.2,297.0L770.0,295.8L783.8,293.6L797.5,289.0L811.2,287.9L825.0,286.8L838.8,286.8L852.5,286.8L866.2,286.8L880.0,286.8" fill="none" stroke="#f78166" stroke-width="2.5" stroke-linecap="round" stroke-linejoin="round"/>
  <path d="M55.0,340.0L68.8,332.1L82.5,326.4L96.2,324.1L110.0,318.5L123.8,319.6L137.5,316.2L151.2,317.3L165.0,317.3L178.8,318.5L192.5,318.5L206.2,318.5L220.0,318.5L233.8,318.5L247.5,317.3L261.2,316.2L275.0,315.1L288.8,311.7L302.5,304.9L316.2,300.4L330.0,295.8L343.8,292.4L357.5,292.4L371.2,293.6L385.0,295.8L398.8,291.3L412.5,290.2L426.2,290.2L440.0,286.8L453.8,292.4L467.5,289.0L481.3,289.0L495.0,289.0L508.8,289.0L522.5,295.8L536.2,295.8L550.0,294.7L563.8,300.4L577.5,340.0L591.2,340.0L605.0,340.0L618.8,340.0L632.5,335.5L646.2,335.5L660.0,333.2L673.8,333.2L687.5,332.1L701.2,328.7L715.0,329.8L728.8,327.5L742.5,327.5L756.2,329.8L770.0,328.7L783.8,329.8L797.5,326.4L811.2,327.5L825.0,327.5L838.8,321.9L852.5,318.5L866.2,318.5L880.0,318.5" fill="none" stroke="#3fb950" stroke-width="2.5" stroke-linecap="round" stroke-linejoin="round"/>
  <path d="M55.0,340.0L68.8,340.0L82.5,338.9L96.2,337.7L110.0,337.7L123.8,336.6L137.5,336.6L151.2,335.5L165.0,335.5L178.8,335.5L192.5,335.5L206.2,335.5L220.0,335.5L233.8,335.5L247.5,335.5L261.2,334.3L275.0,332.1L288.8,330.9L302.5,330.9L316.2,330.9L330.0,328.7L343.8,328.7L357.5,328.7L371.2,327.5L385.0,327.5L398.8,320.7L412.5,320.7L426.2,316.2L440.0,312.8L453.8,308.3L467.5,307.1L481.3,307.1L495.0,307.1L508.8,307.1L522.5,304.9L536.2,304.9L550.0,302.6L563.8,299.2L577.5,297.0L591.2,290.2L605.0,285.6L618.8,278.8L632.5,275.4L646.2,270.9L660.0,268.6L673.8,263.0L687.5,253.9L701.2,250.5L715.0,243.7L728.8,240.3L742.5,234.6L756.2,227.9L770.0,222.2L783.8,213.1L797.5,212.0L811.2,209.7L825.0,204.1L838.8,204.1L852.5,198.4L866.2,198.4L880.0,198.4" fill="none" stroke="#d2a8ff" stroke-width="2.5" stroke-linecap="round" stroke-linejoin="round"/>
  <path d="M55.0,340.0L68.8,334.3L82.5,333.2L96.2,332.1L110.0,330.9L123.8,326.4L137.5,326.4L151.2,326.4L165.0,326.4L178.8,325.3L192.5,325.3L206.2,325.3L220.0,325.3L233.8,325.3L247.5,325.3L261.2,323.0L275.0,321.9L288.8,320.7L302.5,320.7L316.2,318.5L330.0,318.5L343.8,316.2L357.5,311.7L371.2,309.4L385.0,303.8L398.8,302.6L412.5,302.6L426.2,301.5L440.0,300.4L453.8,293.6L467.5,293.6L481.3,293.6L495.0,293.6L508.8,293.6L522.5,289.0L536.2,289.0L550.0,285.6L563.8,274.3L577.5,233.5L591.2,233.5L605.0,233.5L618.8,233.5L632.5,231.2L646.2,230.1L660.0,229.0L673.8,229.0L687.5,229.0L701.2,229.0L715.0,225.6L728.8,224.5L742.5,224.5L756.2,224.5L770.0,224.5L783.8,224.5L797.5,224.5L811.2,222.2L825.0,219.9L838.8,218.8L852.5,218.8L866.2,218.8L880.0,218.8" fill="none" stroke="#f85149" stroke-width="2.5" stroke-linecap="round" stroke-linejoin="round"/>
  <circle cx="880.0" cy="55.7" r="3.5" fill="#58a6ff"/>
  <text x="889.0" y="59.7" fill="#58a6ff" font-size="11" font-weight="600" font-family="-apple-system,BlinkMacSystemFont,Segoe UI,Helvetica,Arial,sans-serif">251</text>
  <circle cx="880.0" cy="286.8" r="3.5" fill="#f78166"/>
  <text x="889.0" y="290.8" fill="#f78166" font-size="11" font-weight="600" font-family="-apple-system,BlinkMacSystemFont,Segoe UI,Helvetica,Arial,sans-serif">47</text>
  <circle cx="880.0" cy="318.5" r="3.5" fill="#3fb950"/>
  <text x="889.0" y="322.5" fill="#3fb950" font-size="11" font-weight="600" font-family="-apple-system,BlinkMacSystemFont,Segoe UI,Helvetica,Arial,sans-serif">19</text>
  <circle cx="880.0" cy="198.4" r="3.5" fill="#d2a8ff"/>
  <text x="889.0" y="202.4" fill="#d2a8ff" font-size="11" font-weight="600" font-family="-apple-system,BlinkMacSystemFont,Segoe UI,Helvetica,Arial,sans-serif">125</text>
  <circle cx="880.0" cy="218.8" r="3.5" fill="#f85149"/>
  <text x="889.0" y="222.8" fill="#f85149" font-size="11" font-weight="600" font-family="-apple-system,BlinkMacSystemFont,Segoe UI,Helvetica,Arial,sans-serif">107</text>
  <line x1="55" y1="368" x2="71" y2="368" stroke="#f78166" stroke-width="2.5" stroke-linecap="round"/>
  <text x="77" y="372" fill="#8b949e" font-size="11" font-family="-apple-system,BlinkMacSystemFont,Segoe UI,Helvetica,Arial,sans-serif">Repos</text>
  <line x1="255" y1="368" x2="271" y2="368" stroke="#58a6ff" stroke-width="2.5" stroke-linecap="round"/>
  <text x="277" y="372" fill="#8b949e" font-size="11" font-family="-apple-system,BlinkMacSystemFont,Segoe UI,Helvetica,Arial,sans-serif">PRs Opened</text>
  <line x1="455" y1="368" x2="471" y2="368" stroke="#3fb950" stroke-width="2.5" stroke-linecap="round"/>
  <text x="477" y="372" fill="#8b949e" font-size="11" font-family="-apple-system,BlinkMacSystemFont,Segoe UI,Helvetica,Arial,sans-serif">Open PRs</text>
  <line x1="55" y1="386" x2="71" y2="386" stroke="#d2a8ff" stroke-width="2.5" stroke-linecap="round"/>
  <text x="77" y="390" fill="#8b949e" font-size="11" font-family="-apple-system,BlinkMacSystemFont,Segoe UI,Helvetica,Arial,sans-serif">Merged</text>
  <line x1="255" y1="386" x2="271" y2="386" stroke="#f85149" stroke-width="2.5" stroke-linecap="round"/>
  <text x="277" y="390" fill="#8b949e" font-size="11" font-family="-apple-system,BlinkMacSystemFont,Segoe UI,Helvetica,Arial,sans-serif">Closed</text>
</svg>