<svg xmlns="http://www.w3.org/2000/svg" viewBox="0 0 960 400" width="960" height="400">
  <defs>
    <linearGradient id="gR" x1="0" y1="0" x2="0" y2="1">
      <stop offset="0%" stop-color="#f78166" stop-opacity="0.25"/>
      <stop offset="100%" stop-color="#f78166" stop-opacity="0.02"/>
    </linearGradient>
    <linearGradient id="gO" x1="0" y1="0" x2="0" y2="1">
      <stop offset="0%" stop-color="#58a6ff" stop-opacity="0.25"/>
      <stop offset="100%" stop-color="#58a6ff" stop-opacity="0.02"/>
    </linearGradient>
    <linearGradient id="gOp" x1="0" y1="0" x2="0" y2="1">
      <stop offset="0%" stop-color="#3fb950" stop-opacity="0.25"/>
      <stop offset="100%" stop-color="#3fb950" stop-opacity="0.02"/>
    </linearGradient>
    <linearGradient id="gM" x1="0" y1="0" x2="0" y2="1">
      <stop offset="0%" stop-color="#d2a8ff" stop-opacity="0.25"/>
      <stop offset="100%" stop-color="#d2a8ff" stop-opacity="0.02"/>
    </linearGradient>
    <linearGradient id="gC" x1="0" y1="0" x2="0" y2="1">
      <stop offset="0%" stop-color="#f85149" stop-opacity="0.25"/>
      <stop offset="100%" stop-color="#f85149" stop-opacity="0.02"/>
    </linearGradient>
  </defs>
  <rect width="960" height="400" rx="12" fill="#0d1117"/>
  <rect width="960" height="400" rx="12" fill="none" stroke="#30363d" stroke-width="1"/>
  <text x="55" y="30" fill="#e6edf3" font-size="15" font-weight="600" font-family="-apple-system,BlinkMacSystemFont,Segoe UI,Helvetica,Arial,sans-serif">GitHub Activity — jlaportebot</text>
  <text x="880" y="30" fill="#8b949e" font-size="11" text-anchor="end" font-family="-apple-system,BlinkMacSystemFont,Segoe UI,Helvetica,Arial,sans-serif">Updated Jun 30, 2026</text>
  <line x1="55" y1="340.0" x2="880" y2="340.0" stroke="#21262d" stroke-width="1"/>
  <text x="47" y="344.0" fill="#8b949e" font-size="11" text-anchor="end" font-family="-apple-system,BlinkMacSystemFont,Segoe UI,Helvetica,Arial,sans-serif">0</text>
  <line x1="55" y1="328.7" x2="880" y2="328.7" stroke="#21262d" stroke-width="1"/>
  <text x="47" y="332.7" fill="#8b949e" font-size="11" text-anchor="end" font-family="-apple-system,BlinkMacSystemFont,Segoe UI,Helvetica,Arial,sans-serif">10</text>
  <line x1="55" y1="317.3" x2="880" y2="317.3" stroke="#21262d" stroke-width="1"/>
  <text x="47" y="321.3" fill="#8b949e" font-size="11" text-anchor="end" font-family="-apple-system,BlinkMacSystemFont,Segoe UI,Helvetica,Arial,sans-serif">20</text>
  <line x1="55" y1="306.0" x2="880" y2="306.0" stroke="#21262d" stroke-width="1"/>
  <text x="47" y="310.0" fill="#8b949e" font-size="11" text-anchor="end" font-family="-apple-system,BlinkMacSystemFont,Segoe UI,Helvetica,Arial,sans-serif">30</text>
  <line x1="55" y1="294.7" x2="880" y2="294.7" stroke="#21262d" stroke-width="1"/>
  <text x="47" y="298.7" fill="#8b949e" font-size="11" text-anchor="end" font-family="-apple-system,BlinkMacSystemFont,Segoe UI,Helvetica,Arial,sans-serif">40</text>
  <line x1="55" y1="283.4" x2="880" y2="283.4" stroke="#21262d" stroke-width="1"/>
  <text x="47" y="287.4" fill="#8b949e" font-size="11" text-anchor="end" font-family="-apple-system,BlinkMacSystemFont,Segoe UI,Helvetica,Arial,sans-serif">50</text>
  <line x1="55" y1="272.0" x2="880" y2="272.0" stroke="#21262d" stroke-width="1"/>
  <text x="47" y="276.0" fill="#8b949e" font-size="11" text-anchor="end" font-family="-apple-system,BlinkMacSystemFont,Segoe UI,Helvetica,Arial,sans-serif">60</text>
  <line x1="55" y1="260.7" x2="880" y2="260.7" stroke="#21262d" stroke-width="1"/>
  <text x="47" y="264.7" fill="#8b949e" font-size="11" text-anchor="end" font-family="-apple-system,BlinkMacSystemFont,Segoe UI,Helvetica,Arial,sans-serif">70</text>
  <line x1="55" y1="249.4" x2="880" y2="249.4" stroke="#21262d" stroke-width="1"/>
  <text x="47" y="253.4" fill="#8b949e" font-size="11" text-anchor="end" font-family="-apple-system,BlinkMacSystemFont,Segoe UI,Helvetica,Arial,sans-serif">80</text>
  <line x1="55" y1="238.0" x2="880" y2="238.0" stroke="#21262d" stroke-width="1"/>
  <text x="47" y="242.0" fill="#8b949e" font-size="11" text-anchor="end" font-family="-apple-system,BlinkMacSystemFont,Segoe UI,Helvetica,Arial,sans-serif">90</text>
  <line x1="55" y1="226.7" x2="880" y2="226.7" stroke="#21262d" stroke-width="1"/>
  <text x="47" y="230.7" fill="#8b949e" font-size="11" text-anchor="end" font-family="-apple-system,BlinkMacSystemFont,Segoe UI,Helvetica,Arial,sans-serif">100</text>
  <line x1="55" y1="215.4" x2="880" y2="215.4" stroke="#21262d" stroke-width="1"/>
  <text x="47" y="219.4" fill="#8b949e" font-size="11" text-anchor="end" font-family="-apple-system,BlinkMacSystemFont,Segoe UI,Helvetica,Arial,sans-serif">110</text>
  <line x1="55" y1="204.1" x2="880" y2="204.1" stroke="#21262d" stroke-width="1"/>
  <text x="47" y="208.1" fill="#8b949e" font-size="11" text-anchor="end" font-family="-apple-system,BlinkMacSystemFont,Segoe UI,Helvetica,Arial,sans-serif">120</text>
  <line x1="55" y1="192.7" x2="880" y2="192.7" stroke="#21262d" stroke-width="1"/>
  <text x="47" y="196.7" fill="#8b949e" font-size="11" text-anchor="end" font-family="-apple-system,BlinkMacSystemFont,Segoe UI,Helvetica,Arial,sans-serif">130</text>
  <line x1="55" y1="181.4" x2="880" y2="181.4" stroke="#21262d" stroke-width="1"/>
  <text x="47" y="185.4" fill="#8b949e" font-size="11" text-anchor="end" font-family="-apple-system,BlinkMacSystemFont,Segoe UI,Helvetica,Arial,sans-serif">140</text>
  <line x1="55" y1="170.1" x2="880" y2="170.1" stroke="#21262d" stroke-width="1"/>
  <text x="47" y="174.1" fill="#8b949e" font-size="11" text-anchor="end" font-family="-apple-system,BlinkMacSystemFont,Segoe UI,Helvetica,Arial,sans-serif">150</text>
  <line x1="55" y1="158.8" x2="880" y2="158.8" stroke="#21262d" stroke-width="1"/>
  <text x="47" y="162.8" fill="#8b949e" font-size="11" text-anchor="end" font-family="-apple-system,BlinkMacSystemFont,Segoe UI,Helvetica,Arial,sans-serif">160</text>
  <line x1="55" y1="147.4" x2="880" y2="147.4" stroke="#21262d" stroke-width="1"/>
  <text x="47" y="151.4" fill="#8b949e" font-size="11" text-anchor="end" font-family="-apple-system,BlinkMacSystemFont,Segoe UI,Helvetica,Arial,sans-serif">170</text>
  <line x1="55" y1="136.1" x2="880" y2="136.1" stroke="#21262d" stroke-width="1"/>
  <text x="47" y="140.1" fill="#8b949e" font-size="11" text-anchor="end" font-family="-apple-system,BlinkMacSystemFont,Segoe UI,Helvetica,Arial,sans-serif">180</text>
  <line x1="55" y1="124.8" x2="880" y2="124.8" stroke="#21262d" stroke-width="1"/>
  <text x="47" y="128.8" fill="#8b949e" font-size="11" text-anchor="end" font-family="-apple-system,BlinkMacSystemFont,Segoe UI,Helvetica,Arial,sans-serif">190</text>
  <line x1="55" y1="113.4" x2="880" y2="113.4" stroke="#21262d" stroke-width="1"/>
  <text x="47" y="117.4" fill="#8b949e" font-size="11" text-anchor="end" font-family="-apple-system,BlinkMacSystemFont,Segoe UI,Helvetica,Arial,sans-serif">200</text>
  <line x1="55" y1="102.1" x2="880" y2="102.1" stroke="#21262d" stroke-width="1"/>
  <text x="47" y="106.1" fill="#8b949e" font-size="11" text-anchor="end" font-family="-apple-system,BlinkMacSystemFont,Segoe UI,Helvetica,Arial,sans-serif">210</text>
  <line x1="55" y1="90.8" x2="880" y2="90.8" stroke="#21262d" stroke-width="1"/>
  <text x="47" y="94.8" fill="#8b949e" font-size="11" text-anchor="end" font-family="-apple-system,BlinkMacSystemFont,Segoe UI,Helvetica,Arial,sans-serif">220</text>
  <line x1="55" y1="79.5" x2="880" y2="79.5" stroke="#21262d" stroke-width="1"/>
  <text x="47" y="83.5" fill="#8b949e" font-size="11" text-anchor="end" font-family="-apple-system,BlinkMacSystemFont,Segoe UI,Helvetica,Arial,sans-serif">230</text>
  <line x1="55" y1="68.1" x2="880" y2="68.1" stroke="#21262d" stroke-width="1"/>
  <text x="47" y="72.1" fill="#8b949e" font-size="11" text-anchor="end" font-family="-apple-system,BlinkMacSystemFont,Segoe UI,Helvetica,Arial,sans-serif">240</text>
  <line x1="55" y1="56.8" x2="880" y2="56.8" stroke="#21262d" stroke-width="1"/>
  <text x="47" y="60.8" fill="#8b949e" font-size="11" text-anchor="end" font-family="-apple-system,BlinkMacSystemFont,Segoe UI,Helvetica,Arial,sans-serif">250</text>
  <line x1="55.0" y1="50" x2="55.0" y2="340" stroke="#21262d" stroke-width="1" stroke-dasharray="4,4"/>
  <text x="55.0" y="360" fill="#8b949e" font-size="10" text-anchor="middle" font-family="-apple-system,BlinkMacSystemFont,Segoe UI,Helvetica,Arial,sans-serif">May 02</text>
  <line x1="166.9" y1="50" x2="166.9" y2="340" stroke="#21262d" stroke-width="1" stroke-dasharray="4,4"/>
  <text x="166.9" y="360" fill="#8b949e" font-size="10" text-anchor="middle" font-family="-apple-system,BlinkMacSystemFont,Segoe UI,Helvetica,Arial,sans-serif">May 10</text>
  <line x1="278.7" y1="50" x2="278.7" y2="340" stroke="#21262d" stroke-width="1" stroke-dasharray="4,4"/>
  <text x="278.7" y="360" fill="#8b949e" font-size="10" text-anchor="middle" font-family="-apple-system,BlinkMacSystemFont,Segoe UI,Helvetica,Arial,sans-serif">May 18</text>
  <line x1="390.6" y1="50" x2="390.6" y2="340" stroke="#21262d" stroke-width="1" stroke-dasharray="4,4"/>
  <text x="390.6" y="360" fill="#8b949e" font-size="10" text-anchor="middle" font-family="-apple-system,BlinkMacSystemFont,Segoe UI,Helvetica,Arial,sans-serif">May 26</text>
  <line x1="502.5" y1="50" x2="502.5" y2="340" stroke="#21262d" stroke-width="1" stroke-dasharray="4,4"/>
  <text x="502.5" y="360" fill="#8b949e" font-size="10" text-anchor="middle" font-family="-apple-system,BlinkMacSystemFont,Segoe UI,Helvetica,Arial,sans-serif">Jun 03</text>
  <line x1="614.3" y1="50" x2="614.3" y2="340" stroke="#21262d" stroke-width="1" stroke-dasharray="4,4"/>
  <text x="614.3" y="360" fill="#8b949e" font-size="10" text-anchor="middle" font-family="-apple-system,BlinkMacSystemFont,Segoe UI,Helvetica,Arial,sans-serif">Jun 11</text>
  <line x1="726.2" y1="50" x2="726.2" y2="340" stroke="#21262d" stroke-width="1" stroke-dasharray="4,4"/>
  <text x="726.2" y="360" fill="#8b949e" font-size="10" text-anchor="middle" font-family="-apple-system,BlinkMacSystemFont,Segoe UI,Helvetica,Arial,sans-serif">Jun 19</text>
  <line x1="838.1" y1="50" x2="838.1" y2="340" stroke="#21262d" stroke-width="1" stroke-dasharray="4,4"/>
  <text x="838.1" y="360" fill="#8b949e" font-size="10" text-anchor="middle" font-family="-apple-system,BlinkMacSystemFont,Segoe UI,Helvetica,Arial,sans-serif">Jun 27</text>
  <line x1="880.0" y1="50" x2="880.0" y2="340" stroke="#21262d" stroke-width="1" stroke-dasharray="4,4"/>
  <text x="880.0" y="360" fill="#8b949e" font-size="10" text-anchor="middle" font-family="-apple-system,BlinkMacSystemFont,Segoe UI,Helvetica,Arial,sans-serif">Jun 30</text>
  <path d="M55.0,340.0L69.0,326.4L83.0,318.5L96.9,313.9L110.9,307.1L124.9,302.6L138.9,299.2L152.9,299.2L166.9,299.2L180.8,299.2L194.8,299.2L208.8,299.2L222.8,299.2L236.8,299.2L250.8,298.1L264.7,293.6L278.7,289.0L292.7,283.4L306.7,276.6L320.7,269.8L334.7,263.0L348.6,257.3L362.6,252.8L376.6,250.5L390.6,247.1L404.6,234.6L418.6,233.5L432.5,227.9L446.5,219.9L460.5,214.3L474.5,209.7L488.5,209.7L502.5,209.7L516.4,209.7L530.4,209.7L544.4,209.7L558.4,202.9L572.4,193.9L586.4,190.5L600.3,183.7L614.3,179.1L628.3,172.3L642.3,162.1L656.3,156.5L670.3,150.8L684.2,145.2L698.2,135.0L712.2,128.2L726.2,119.1L740.2,112.3L754.2,106.6L768.1,102.1L782.1,95.3L796.1,87.4L810.1,82.9L824.1,79.5L838.1,71.5L852.0,64.7L866.0,55.7L880.0,55.7L880.0,340.0L55.0,340.0Z" fill="url(#gO)"/>
  <path d="M55.0,338.9L69.0,338.9L83.0,338.9L96.9,338.9L110.9,338.9L124.9,338.9L138.9,338.9L152.9,338.9L166.9,338.9L180.8,338.9L194.8,338.9L208.8,338.9L222.8,338.9L236.8,338.9L250.8,338.9L264.7,335.5L278.7,335.5L292.7,335.5L306.7,335.5L320.7,335.5L334.7,335.5L348.6,335.5L362.6,334.3L376.6,330.9L390.6,330.9L404.6,329.8L418.6,329.8L432.5,329.8L446.5,329.8L460.5,329.8L474.5,327.5L488.5,327.5L502.5,327.5L516.4,327.5L530.4,327.5L544.4,327.5L558.4,327.5L572.4,325.3L586.4,311.7L600.3,311.7L614.3,311.7L628.3,311.7L642.3,302.6L656.3,302.6L670.3,302.6L684.2,302.6L698.2,302.6L712.2,300.4L726.2,300.4L740.2,299.2L754.2,298.1L768.1,297.0L782.1,295.8L796.1,293.6L810.1,289.0L824.1,287.9L838.1,286.8L852.0,286.8L866.0,286.8L880.0,286.8L880.0,340.0L55.0,340.0Z" fill="url(#gR)"/>
  <path d="M55.0,340.0L69.0,326.4L83.0,318.5L96.9,313.9L110.9,307.1L124.9,302.6L138.9,299.2L152.9,299.2L166.9,299.2L180.8,299.2L194.8,299.2L208.8,299.2L222.8,299.2L236.8,299.2L250.8,298.1L264.7,293.6L278.7,289.0L292.7,283.4L306.7,276.6L320.7,269.8L334.7,263.0L348.6,257.3L362.6,252.8L376.6,250.5L390.6,247.1L404.6,234.6L418.6,233.5L432.5,227.9L446.5,219.9L460.5,214.3L474.5,209.7L488.5,209.7L502.5,209.7L516.4,209.7L530.4,209.7L544.4,209.7L558.4,202.9L572.4,193.9L586.4,190.5L600.3,183.7L614.3,179.1L628.3,172.3L642.3,162.1L656.3,156.5L670.3,150.8L684.2,145.2L698.2,135.0L712.2,128.2L726.2,119.1L740.2,112.3L754.2,106.6L768.1,102.1L782.1,95.3L796.1,87.4L810.1,82.9L824.1,79.5L838.1,71.5L852.0,64.7L866.0,55.7L880.0,55.7" fill="none" stroke="#58a6ff" stroke-width="2.5" stroke-linecap="round" stroke-linejoin="round"/>
  <path d="M55.0,338.9L69.0,338.9L83.0,338.9L96.9,338.9L110.9,338.9L124.9,338.9L138.9,338.9L152.9,338.9L166.9,338.9L180.8,338.9L194.8,338.9L208.8,338.9L222.8,338.9L236.8,338.9L250.8,338.9L264.7,335.5L278.7,335.5L292.7,335.5L306.7,335.5L320.7,335.5L334.7,335.5L348.6,335.5L362.6,334.3L376.6,330.9L390.6,330.9L404.6,329.8L418.6,329.8L432.5,329.8L446.5,329.8L460.5,329.8L474.5,327.5L488.5,327.5L502.5,327.5L516.4,327.5L530.4,327.5L544.4,327.5L558.4,327.5L572.4,325.3L586.4,311.7L600.3,311.7L614.3,311.7L628.3,311.7L642.3,302.6L656.3,302.6L670.3,302.6L684.2,302.6L698.2,302.6L712.2,300.4L726.2,300.4L740.2,299.2L754.2,298.1L768.1,297.0L782.1,295.8L796.1,293.6L810.1,289.0L824.1,287.9L838.1,286.8L852.0,286.8L866.0,286.8L880.0,286.8" fill="none" stroke="#f78166" stroke-width="2.5" stroke-linecap="round" stroke-linejoin="round"/>
  <path d="M55.0,340.0L69.0,332.1L83.0,326.4L96.9,324.1L110.9,318.5L124.9,319.6L138.9,316.2L152.9,317.3L166.9,317.3L180.8,318.5L194.8,318.5L208.8,318.5L222.8,318.5L236.8,318.5L250.8,317.3L264.7,316.2L278.7,315.1L292.7,311.7L306.7,304.9L320.7,300.4L334.7,295.8L348.6,292.4L362.6,292.4L376.6,293.6L390.6,295.8L404.6,291.3L418.6,290.2L432.5,290.2L446.5,286.8L460.5,292.4L474.5,289.0L488.5,289.0L502.5,289.0L516.4,289.0L530.4,295.8L544.4,295.8L558.4,294.7L572.4,300.4L586.4,340.0L600.3,340.0L614.3,340.0L628.3,340.0L642.3,335.5L656.3,335.5L670.3,333.2L684.2,333.2L698.2,332.1L712.2,328.7L726.2,329.8L740.2,327.5L754.2,327.5L768.1,329.8L782.1,328.7L796.1,329.8L810.1,326.4L824.1,327.5L838.1,327.5L852.0,321.9L866.0,318.5L880.0,318.5" fill="none" stroke="#3fb950" stroke-width="2.5" stroke-linecap="round" stroke-linejoin="round"/>
  <path d="M55.0,340.0L69.0,340.0L83.0,338.9L96.9,337.7L110.9,337.7L124.9,336.6L138.9,336.6L152.9,335.5L166.9,335.5L180.8,335.5L194.8,335.5L208.8,335.5L222.8,335.5L236.8,335.5L250.8,335.5L264.7,334.3L278.7,332.1L292.7,330.9L306.7,330.9L320.7,330.9L334.7,328.7L348.6,328.7L362.6,328.7L376.6,327.5L390.6,327.5L404.6,320.7L418.6,320.7L432.5,316.2L446.5,312.8L460.5,308.3L474.5,307.1L488.5,307.1L502.5,307.1L516.4,307.1L530.4,304.9L544.4,304.9L558.4,302.6L572.4,299.2L586.4,297.0L600.3,290.2L614.3,285.6L628.3,278.8L642.3,275.4L656.3,270.9L670.3,268.6L684.2,263.0L698.2,253.9L712.2,250.5L726.2,243.7L740.2,240.3L754.2,234.6L768.1,227.9L782.1,222.2L796.1,213.1L810.1,212.0L824.1,209.7L838.1,204.1L852.0,204.1L866.0,198.4L880.0,198.4" fill="none" stroke="#d2a8ff" stroke-width="2.5" stroke-linecap="round" stroke-linejoin="round"/>
  <path d="M55.0,340.0L69.0,334.3L83.0,333.2L96.9,332.1L110.9,330.9L124.9,326.4L138.9,326.4L152.9,326.4L166.9,326.4L180.8,325.3L194.8,325.3L208.8,325.3L222.8,325.3L236.8,325.3L250.8,325.3L264.7,323.0L278.7,321.9L292.7,320.7L306.7,320.7L320.7,318.5L334.7,318.5L348.6,316.2L362.6,311.7L376.6,309.4L390.6,303.8L404.6,302.6L418.6,302.6L432.5,301.5L446.5,300.4L460.5,293.6L474.5,293.6L488.5,293.6L502.5,293.6L516.4,293.6L530.4,289.0L544.4,289.0L558.4,285.6L572.4,274.3L586.4,233.5L600.3,233.5L614.3,233.5L628.3,233.5L642.3,231.2L656.3,230.1L670.3,229.0L684.2,229.0L698.2,229.0L712.2,229.0L726.2,225.6L740.2,224.5L754.2,224.5L768.1,224.5L782.1,224.5L796.1,224.5L810.1,224.5L824.1,222.2L838.1,219.9L852.0,218.8L866.0,218.8L880.0,218.8" fill="none" stroke="#f85149" stroke-width="2.5" stroke-linecap="round" stroke-linejoin="round"/>
  <circle cx="880.0" cy="55.7" r="3.5" fill="#58a6ff"/>
  <text x="889.0" y="59.7" fill="#58a6ff" font-size="11" font-weight="600" font-family="-apple-system,BlinkMacSystemFont,Segoe UI,Helvetica,Arial,sans-serif">251</text>
  <circle cx="880.0" cy="286.8" r="3.5" fill="#f78166"/>
  <text x="889.0" y="290.8" fill="#f78166" font-size="11" font-weight="600" font-family="-apple-system,BlinkMacSystemFont,Segoe UI,Helvetica,Arial,sans-serif">47</text>
  <circle cx="880.0" cy="318.5" r="3.5" fill="#3fb950"/>
  <text x="889.0" y="322.5" fill="#3fb950" font-size="11" font-weight="600" font-family="-apple-system,BlinkMacSystemFont,Segoe UI,Helvetica,Arial,sans-serif">19</text>
  <circle cx="880.0" cy="198.4" r="3.5" fill="#d2a8ff"/>
  <text x="889.0" y="202.4" fill="#d2a8ff" font-size="11" font-weight="600" font-family="-apple-system,BlinkMacSystemFont,Segoe UI,Helvetica,Arial,sans-serif">125</text>
  <circle cx="880.0" cy="218.8" r="3.5" fill="#f85149"/>
  <text x="889.0" y="222.8" fill="#f85149" font-size="11" font-weight="600" font-family="-apple-system,BlinkMacSystemFont,Segoe UI,Helvetica,Arial,sans-serif">107</text>
  <line x1="55" y1="368" x2="71" y2="368" stroke="#f78166" stroke-width="2.5" stroke-linecap="round"/>
  <text x="77" y="372" fill="#8b949e" font-size="11" font-family="-apple-system,BlinkMacSystemFont,Segoe UI,Helvetica,Arial,sans-serif">Repos</text>
  <line x1="255" y1="368" x2="271" y2="368" stroke="#58a6ff" stroke-width="2.5" stroke-linecap="round"/>
  <text x="277" y="372" fill="#8b949e" font-size="11" font-family="-apple-system,BlinkMacSystemFont,Segoe UI,Helvetica,Arial,sans-serif">PRs Opened</text>
  <line x1="455" y1="368" x2="471" y2="368" stroke="#3fb950" stroke-width="2.5" stroke-linecap="round"/>
  <text x="477" y="372" fill="#8b949e" font-size="11" font-family="-apple-system,BlinkMacSystemFont,Segoe UI,Helvetica,Arial,sans-serif">Open PRs</text>
  <line x1="55" y1="386" x2="71" y2="386" stroke="#d2a8ff" stroke-width="2.5" stroke-linecap="round"/>
  <text x="77" y="390" fill="#8b949e" font-size="11" font-family="-apple-system,BlinkMacSystemFont,Segoe UI,Helvetica,Arial,sans-serif">Merged</text>
  <line x1="255" y1="386" x2="271" y2="386" stroke="#f85149" stroke-width="2.5" stroke-linecap="round"/>
  <text x="277" y="390" fill="#8b949e" font-size="11" font-family="-apple-system,BlinkMacSystemFont,Segoe UI,Helvetica,Arial,sans-serif">Closed</text>
</svg>