<svg xmlns="http://www.w3.org/2000/svg" viewBox="0 0 960 400" width="960" height="400">
  <defs>
    <linearGradient id="gR" x1="0" y1="0" x2="0" y2="1">
      <stop offset="0%" stop-color="#f78166" stop-opacity="0.25"/>
      <stop offset="100%" stop-color="#f78166" stop-opacity="0.02"/>
    </linearGradient>
    <linearGradient id="gO" x1="0" y1="0" x2="0" y2="1">
      <stop offset="0%" stop-color="#58a6ff" stop-opacity="0.25"/>
      <stop offset="100%" stop-color="#58a6ff" stop-opacity="0.02"/>
    </linearGradient>
    <linearGradient id="gOp" x1="0" y1="0" x2="0" y2="1">
      <stop offset="0%" stop-color="#3fb950" stop-opacity="0.25"/>
      <stop offset="100%" stop-color="#3fb950" stop-opacity="0.02"/>
    </linearGradient>
    <linearGradient id="gM" x1="0" y1="0" x2="0" y2="1">
      <stop offset="0%" stop-color="#d2a8ff" stop-opacity="0.25"/>
      <stop offset="100%" stop-color="#d2a8ff" stop-opacity="0.02"/>
    </linearGradient>
    <linearGradient id="gC" x1="0" y1="0" x2="0" y2="1">
      <stop offset="0%" stop-color="#f85149" stop-opacity="0.25"/>
      <stop offset="100%" stop-color="#f85149" stop-opacity="0.02"/>
    </linearGradient>
  </defs>
  <rect width="960" height="400" rx="12" fill="#0d1117"/>
  <rect width="960" height="400" rx="12" fill="none" stroke="#30363d" stroke-width="1"/>
  <text x="55" y="30" fill="#e6edf3" font-size="15" font-weight="600" font-family="-apple-system,BlinkMacSystemFont,Segoe UI,Helvetica,Arial,sans-serif">GitHub Activity — jlaportebot</text>
  <text x="880" y="30" fill="#8b949e" font-size="11" text-anchor="end" font-family="-apple-system,BlinkMacSystemFont,Segoe UI,Helvetica,Arial,sans-serif">Updated Jul 19, 2026</text>
  <line x1="55" y1="340.0" x2="880" y2="340.0" stroke="#21262d" stroke-width="1"/>
  <text x="47" y="344.0" fill="#8b949e" font-size="11" text-anchor="end" font-family="-apple-system,BlinkMacSystemFont,Segoe UI,Helvetica,Arial,sans-serif">0</text>
  <line x1="55" y1="329.4" x2="880" y2="329.4" stroke="#21262d" stroke-width="1"/>
  <text x="47" y="333.4" fill="#8b949e" font-size="11" text-anchor="end" font-family="-apple-system,BlinkMacSystemFont,Segoe UI,Helvetica,Arial,sans-serif">10</text>
  <line x1="55" y1="318.8" x2="880" y2="318.8" stroke="#21262d" stroke-width="1"/>
  <text x="47" y="322.8" fill="#8b949e" font-size="11" text-anchor="end" font-family="-apple-system,BlinkMacSystemFont,Segoe UI,Helvetica,Arial,sans-serif">20</text>
  <line x1="55" y1="308.1" x2="880" y2="308.1" stroke="#21262d" stroke-width="1"/>
  <text x="47" y="312.1" fill="#8b949e" font-size="11" text-anchor="end" font-family="-apple-system,BlinkMacSystemFont,Segoe UI,Helvetica,Arial,sans-serif">30</text>
  <line x1="55" y1="297.5" x2="880" y2="297.5" stroke="#21262d" stroke-width="1"/>
  <text x="47" y="301.5" fill="#8b949e" font-size="11" text-anchor="end" font-family="-apple-system,BlinkMacSystemFont,Segoe UI,Helvetica,Arial,sans-serif">40</text>
  <line x1="55" y1="286.9" x2="880" y2="286.9" stroke="#21262d" stroke-width="1"/>
  <text x="47" y="290.9" fill="#8b949e" font-size="11" text-anchor="end" font-family="-apple-system,BlinkMacSystemFont,Segoe UI,Helvetica,Arial,sans-serif">50</text>
  <line x1="55" y1="276.3" x2="880" y2="276.3" stroke="#21262d" stroke-width="1"/>
  <text x="47" y="280.3" fill="#8b949e" font-size="11" text-anchor="end" font-family="-apple-system,BlinkMacSystemFont,Segoe UI,Helvetica,Arial,sans-serif">60</text>
  <line x1="55" y1="265.6" x2="880" y2="265.6" stroke="#21262d" stroke-width="1"/>
  <text x="47" y="269.6" fill="#8b949e" font-size="11" text-anchor="end" font-family="-apple-system,BlinkMacSystemFont,Segoe UI,Helvetica,Arial,sans-serif">70</text>
  <line x1="55" y1="255.0" x2="880" y2="255.0" stroke="#21262d" stroke-width="1"/>
  <text x="47" y="259.0" fill="#8b949e" font-size="11" text-anchor="end" font-family="-apple-system,BlinkMacSystemFont,Segoe UI,Helvetica,Arial,sans-serif">80</text>
  <line x1="55" y1="244.4" x2="880" y2="244.4" stroke="#21262d" stroke-width="1"/>
  <text x="47" y="248.4" fill="#8b949e" font-size="11" text-anchor="end" font-family="-apple-system,BlinkMacSystemFont,Segoe UI,Helvetica,Arial,sans-serif">90</text>
  <line x1="55" y1="233.8" x2="880" y2="233.8" stroke="#21262d" stroke-width="1"/>
  <text x="47" y="237.8" fill="#8b949e" font-size="11" text-anchor="end" font-family="-apple-system,BlinkMacSystemFont,Segoe UI,Helvetica,Arial,sans-serif">100</text>
  <line x1="55" y1="223.2" x2="880" y2="223.2" stroke="#21262d" stroke-width="1"/>
  <text x="47" y="227.2" fill="#8b949e" font-size="11" text-anchor="end" font-family="-apple-system,BlinkMacSystemFont,Segoe UI,Helvetica,Arial,sans-serif">110</text>
  <line x1="55" y1="212.5" x2="880" y2="212.5" stroke="#21262d" stroke-width="1"/>
  <text x="47" y="216.5" fill="#8b949e" font-size="11" text-anchor="end" font-family="-apple-system,BlinkMacSystemFont,Segoe UI,Helvetica,Arial,sans-serif">120</text>
  <line x1="55" y1="201.9" x2="880" y2="201.9" stroke="#21262d" stroke-width="1"/>
  <text x="47" y="205.9" fill="#8b949e" font-size="11" text-anchor="end" font-family="-apple-system,BlinkMacSystemFont,Segoe UI,Helvetica,Arial,sans-serif">130</text>
  <line x1="55" y1="191.3" x2="880" y2="191.3" stroke="#21262d" stroke-width="1"/>
  <text x="47" y="195.3" fill="#8b949e" font-size="11" text-anchor="end" font-family="-apple-system,BlinkMacSystemFont,Segoe UI,Helvetica,Arial,sans-serif">140</text>
  <line x1="55" y1="180.7" x2="880" y2="180.7" stroke="#21262d" stroke-width="1"/>
  <text x="47" y="184.7" fill="#8b949e" font-size="11" text-anchor="end" font-family="-apple-system,BlinkMacSystemFont,Segoe UI,Helvetica,Arial,sans-serif">150</text>
  <line x1="55" y1="170.0" x2="880" y2="170.0" stroke="#21262d" stroke-width="1"/>
  <text x="47" y="174.0" fill="#8b949e" font-size="11" text-anchor="end" font-family="-apple-system,BlinkMacSystemFont,Segoe UI,Helvetica,Arial,sans-serif">160</text>
  <line x1="55" y1="159.4" x2="880" y2="159.4" stroke="#21262d" stroke-width="1"/>
  <text x="47" y="163.4" fill="#8b949e" font-size="11" text-anchor="end" font-family="-apple-system,BlinkMacSystemFont,Segoe UI,Helvetica,Arial,sans-serif">170</text>
  <line x1="55" y1="148.8" x2="880" y2="148.8" stroke="#21262d" stroke-width="1"/>
  <text x="47" y="152.8" fill="#8b949e" font-size="11" text-anchor="end" font-family="-apple-system,BlinkMacSystemFont,Segoe UI,Helvetica,Arial,sans-serif">180</text>
  <line x1="55" y1="138.2" x2="880" y2="138.2" stroke="#21262d" stroke-width="1"/>
  <text x="47" y="142.2" fill="#8b949e" font-size="11" text-anchor="end" font-family="-apple-system,BlinkMacSystemFont,Segoe UI,Helvetica,Arial,sans-serif">190</text>
  <line x1="55" y1="127.5" x2="880" y2="127.5" stroke="#21262d" stroke-width="1"/>
  <text x="47" y="131.5" fill="#8b949e" font-size="11" text-anchor="end" font-family="-apple-system,BlinkMacSystemFont,Segoe UI,Helvetica,Arial,sans-serif">200</text>
  <line x1="55" y1="116.9" x2="880" y2="116.9" stroke="#21262d" stroke-width="1"/>
  <text x="47" y="120.9" fill="#8b949e" font-size="11" text-anchor="end" font-family="-apple-system,BlinkMacSystemFont,Segoe UI,Helvetica,Arial,sans-serif">210</text>
  <line x1="55" y1="106.3" x2="880" y2="106.3" stroke="#21262d" stroke-width="1"/>
  <text x="47" y="110.3" fill="#8b949e" font-size="11" text-anchor="end" font-family="-apple-system,BlinkMacSystemFont,Segoe UI,Helvetica,Arial,sans-serif">220</text>
  <line x1="55" y1="95.7" x2="880" y2="95.7" stroke="#21262d" stroke-width="1"/>
  <text x="47" y="99.7" fill="#8b949e" font-size="11" text-anchor="end" font-family="-apple-system,BlinkMacSystemFont,Segoe UI,Helvetica,Arial,sans-serif">230</text>
  <line x1="55" y1="85.1" x2="880" y2="85.1" stroke="#21262d" stroke-width="1"/>
  <text x="47" y="89.1" fill="#8b949e" font-size="11" text-anchor="end" font-family="-apple-system,BlinkMacSystemFont,Segoe UI,Helvetica,Arial,sans-serif">240</text>
  <line x1="55" y1="74.4" x2="880" y2="74.4" stroke="#21262d" stroke-width="1"/>
  <text x="47" y="78.4" fill="#8b949e" font-size="11" text-anchor="end" font-family="-apple-system,BlinkMacSystemFont,Segoe UI,Helvetica,Arial,sans-serif">250</text>
  <line x1="55" y1="63.8" x2="880" y2="63.8" stroke="#21262d" stroke-width="1"/>
  <text x="47" y="67.8" fill="#8b949e" font-size="11" text-anchor="end" font-family="-apple-system,BlinkMacSystemFont,Segoe UI,Helvetica,Arial,sans-serif">260</text>
  <line x1="55" y1="53.2" x2="880" y2="53.2" stroke="#21262d" stroke-width="1"/>
  <text x="47" y="57.2" fill="#8b949e" font-size="11" text-anchor="end" font-family="-apple-system,BlinkMacSystemFont,Segoe UI,Helvetica,Arial,sans-serif">270</text>
  <line x1="55.0" y1="50" x2="55.0" y2="340" stroke="#21262d" stroke-width="1" stroke-dasharray="4,4"/>
  <text x="55.0" y="360" fill="#8b949e" font-size="10" text-anchor="middle" font-family="-apple-system,BlinkMacSystemFont,Segoe UI,Helvetica,Arial,sans-serif">May 02</text>
  <line x1="171.3" y1="50" x2="171.3" y2="340" stroke="#21262d" stroke-width="1" stroke-dasharray="4,4"/>
  <text x="171.3" y="360" fill="#8b949e" font-size="10" text-anchor="middle" font-family="-apple-system,BlinkMacSystemFont,Segoe UI,Helvetica,Arial,sans-serif">May 13</text>
  <line x1="287.7" y1="50" x2="287.7" y2="340" stroke="#21262d" stroke-width="1" stroke-dasharray="4,4"/>
  <text x="287.7" y="360" fill="#8b949e" font-size="10" text-anchor="middle" font-family="-apple-system,BlinkMacSystemFont,Segoe UI,Helvetica,Arial,sans-serif">May 24</text>
  <line x1="404.0" y1="50" x2="404.0" y2="340" stroke="#21262d" stroke-width="1" stroke-dasharray="4,4"/>
  <text x="404.0" y="360" fill="#8b949e" font-size="10" text-anchor="middle" font-family="-apple-system,BlinkMacSystemFont,Segoe UI,Helvetica,Arial,sans-serif">Jun 04</text>
  <line x1="520.4" y1="50" x2="520.4" y2="340" stroke="#21262d" stroke-width="1" stroke-dasharray="4,4"/>
  <text x="520.4" y="360" fill="#8b949e" font-size="10" text-anchor="middle" font-family="-apple-system,BlinkMacSystemFont,Segoe UI,Helvetica,Arial,sans-serif">Jun 15</text>
  <line x1="636.7" y1="50" x2="636.7" y2="340" stroke="#21262d" stroke-width="1" stroke-dasharray="4,4"/>
  <text x="636.7" y="360" fill="#8b949e" font-size="10" text-anchor="middle" font-family="-apple-system,BlinkMacSystemFont,Segoe UI,Helvetica,Arial,sans-serif">Jun 26</text>
  <line x1="753.1" y1="50" x2="753.1" y2="340" stroke="#21262d" stroke-width="1" stroke-dasharray="4,4"/>
  <text x="753.1" y="360" fill="#8b949e" font-size="10" text-anchor="middle" font-family="-apple-system,BlinkMacSystemFont,Segoe UI,Helvetica,Arial,sans-serif">Jul 07</text>
  <line x1="869.4" y1="50" x2="869.4" y2="340" stroke="#21262d" stroke-width="1" stroke-dasharray="4,4"/>
  <text x="869.4" y="360" fill="#8b949e" font-size="10" text-anchor="middle" font-family="-apple-system,BlinkMacSystemFont,Segoe UI,Helvetica,Arial,sans-serif">Jul 18</text>
  <line x1="880.0" y1="50" x2="880.0" y2="340" stroke="#21262d" stroke-width="1" stroke-dasharray="4,4"/>
  <text x="880.0" y="360" fill="#8b949e" font-size="10" text-anchor="middle" font-family="-apple-system,BlinkMacSystemFont,Segoe UI,Helvetica,Arial,sans-serif">Jul 19</text>
  <path d="M55.0,340.0L65.6,327.3L76.2,319.8L86.7,315.6L97.3,309.2L107.9,304.9L118.5,301.8L129.0,301.8L139.6,301.8L150.2,301.8L160.8,301.8L171.3,301.8L181.9,301.8L192.5,301.8L203.1,300.7L213.7,296.4L224.2,292.2L234.8,286.9L245.4,280.5L256.0,274.1L266.5,267.8L277.1,262.5L287.7,258.2L298.3,256.1L308.8,252.9L319.4,241.2L330.0,240.1L340.6,234.8L351.2,227.4L361.7,222.1L372.3,217.8L382.9,217.8L393.5,217.8L404.0,217.8L414.6,217.8L425.2,217.8L435.8,211.5L446.3,203.0L456.9,199.8L467.5,193.4L478.1,189.2L488.7,182.8L499.2,173.2L509.8,167.9L520.4,162.6L531.0,157.3L541.5,147.7L552.1,141.4L562.7,132.9L573.3,126.5L583.8,121.2L594.4,116.9L605.0,110.5L615.6,103.1L626.2,98.9L636.7,95.7L647.3,88.2L657.9,81.9L668.5,73.4L679.0,73.4L689.6,71.2L700.2,71.2L710.8,71.2L721.3,69.1L731.9,65.9L742.5,62.7L753.1,61.7L763.7,56.4L774.2,56.4L784.8,56.4L795.4,56.4L806.0,56.4L816.5,56.4L827.1,56.4L837.7,56.4L848.3,56.4L858.8,56.4L869.4,56.4L880.0,55.3L880.0,340.0L55.0,340.0Z" fill="url(#gO)"/>
  <path d="M55.0,338.9L65.6,338.9L76.2,338.9L86.7,338.9L97.3,338.9L107.9,338.9L118.5,338.9L129.0,338.9L139.6,338.9L150.2,338.9L160.8,338.9L171.3,338.9L181.9,338.9L192.5,338.9L203.1,338.9L213.7,335.8L224.2,335.8L234.8,335.8L245.4,335.8L256.0,335.8L266.5,335.8L277.1,335.8L287.7,334.7L298.3,331.5L308.8,331.5L319.4,330.4L330.0,330.4L340.6,330.4L351.2,330.4L361.7,330.4L372.3,328.3L382.9,328.3L393.5,328.3L404.0,328.3L414.6,328.3L425.2,328.3L435.8,328.3L446.3,326.2L456.9,313.4L467.5,313.4L478.1,313.4L488.7,313.4L499.2,304.9L509.8,304.9L520.4,304.9L531.0,304.9L541.5,304.9L552.1,302.8L562.7,302.8L573.3,301.8L583.8,300.7L594.4,299.6L605.0,298.6L615.6,296.4L626.2,292.2L636.7,291.1L647.3,290.1L657.9,290.1L668.5,290.1L679.0,290.1L689.6,290.1L700.2,290.1L710.8,290.1L721.3,290.1L731.9,290.1L742.5,290.1L753.1,290.1L763.7,290.1L774.2,289.0L784.8,287.9L795.4,284.8L806.0,284.8L816.5,283.7L827.1,283.7L837.7,283.7L848.3,283.7L858.8,283.7L869.4,283.7L880.0,283.7L880.0,340.0L55.0,340.0Z" fill="url(#gR)"/>
  <path d="M55.0,340.0L65.6,327.3L76.2,319.8L86.7,315.6L97.3,309.2L107.9,304.9L118.5,301.8L129.0,301.8L139.6,301.8L150.2,301.8L160.8,301.8L171.3,301.8L181.9,301.8L192.5,301.8L203.1,300.7L213.7,296.4L224.2,292.2L234.8,286.9L245.4,280.5L256.0,274.1L266.5,267.8L277.1,262.5L287.7,258.2L298.3,256.1L308.8,252.9L319.4,241.2L330.0,240.1L340.6,234.8L351.2,227.4L361.7,222.1L372.3,217.8L382.9,217.8L393.5,217.8L404.0,217.8L414.6,217.8L425.2,217.8L435.8,211.5L446.3,203.0L456.9,199.8L467.5,193.4L478.1,189.2L488.7,182.8L499.2,173.2L509.8,167.9L520.4,162.6L531.0,157.3L541.5,147.7L552.1,141.4L562.7,132.9L573.3,126.5L583.8,121.2L594.4,116.9L605.0,110.5L615.6,103.1L626.2,98.9L636.7,95.7L647.3,88.2L657.9,81.9L668.5,73.4L679.0,73.4L689.6,71.2L700.2,71.2L710.8,71.2L721.3,69.1L731.9,65.9L742.5,62.7L753.1,61.7L763.7,56.4L774.2,56.4L784.8,56.4L795.4,56.4L806.0,56.4L816.5,56.4L827.1,56.4L837.7,56.4L848.3,56.4L858.8,56.4L869.4,56.4L880.0,55.3" fill="none" stroke="#58a6ff" stroke-width="2.5" stroke-linecap="round" stroke-linejoin="round"/>
  <path d="M55.0,338.9L65.6,338.9L76.2,338.9L86.7,338.9L97.3,338.9L107.9,338.9L118.5,338.9L129.0,338.9L139.6,338.9L150.2,338.9L160.8,338.9L171.3,338.9L181.9,338.9L192.5,338.9L203.1,338.9L213.7,335.8L224.2,335.8L234.8,335.8L245.4,335.8L256.0,335.8L266.5,335.8L277.1,335.8L287.7,334.7L298.3,331.5L308.8,331.5L319.4,330.4L330.0,330.4L340.6,330.4L351.2,330.4L361.7,330.4L372.3,328.3L382.9,328.3L393.5,328.3L404.0,328.3L414.6,328.3L425.2,328.3L435.8,328.3L446.3,326.2L456.9,313.4L467.5,313.4L478.1,313.4L488.7,313.4L499.2,304.9L509.8,304.9L520.4,304.9L531.0,304.9L541.5,304.9L552.1,302.8L562.7,302.8L573.3,301.8L583.8,300.7L594.4,299.6L605.0,298.6L615.6,296.4L626.2,292.2L636.7,291.1L647.3,290.1L657.9,290.1L668.5,290.1L679.0,290.1L689.6,290.1L700.2,290.1L710.8,290.1L721.3,290.1L731.9,290.1L742.5,290.1L753.1,290.1L763.7,290.1L774.2,289.0L784.8,287.9L795.4,284.8L806.0,284.8L816.5,283.7L827.1,283.7L837.7,283.7L848.3,283.7L858.8,283.7L869.4,283.7L880.0,283.7" fill="none" stroke="#f78166" stroke-width="2.5" stroke-linecap="round" stroke-linejoin="round"/>
  <path d="M55.0,340.0L65.6,332.6L76.2,327.3L86.7,325.1L97.3,319.8L107.9,320.9L118.5,317.7L129.0,318.8L139.6,318.8L150.2,319.8L160.8,319.8L171.3,319.8L181.9,319.8L192.5,319.8L203.1,318.8L213.7,317.7L224.2,316.6L234.8,313.4L245.4,307.1L256.0,302.8L266.5,298.6L277.1,295.4L287.7,295.4L298.3,296.4L308.8,298.6L319.4,294.3L330.0,293.3L340.6,293.3L351.2,290.1L361.7,295.4L372.3,292.2L382.9,292.2L393.5,292.2L404.0,292.2L414.6,298.6L425.2,298.6L435.8,297.5L446.3,302.8L456.9,340.0L467.5,340.0L478.1,340.0L488.7,340.0L499.2,335.8L509.8,335.8L520.4,333.6L531.0,333.6L541.5,332.6L552.1,329.4L562.7,330.4L573.3,328.3L583.8,328.3L594.4,330.4L605.0,329.4L615.6,330.4L626.2,327.3L636.7,328.3L647.3,328.3L657.9,323.0L668.5,319.8L679.0,319.8L689.6,320.9L700.2,324.1L710.8,324.1L721.3,323.0L731.9,321.9L742.5,321.9L753.1,320.9L763.7,318.8L774.2,318.8L784.8,318.8L795.4,318.8L806.0,318.8L816.5,318.8L827.1,318.8L837.7,318.8L848.3,318.8L858.8,318.8L869.4,318.8L880.0,318.8" fill="none" stroke="#3fb950" stroke-width="2.5" stroke-linecap="round" stroke-linejoin="round"/>
  <path d="M55.0,340.0L65.6,340.0L76.2,338.9L86.7,337.9L97.3,337.9L107.9,336.8L118.5,336.8L129.0,335.8L139.6,335.8L150.2,335.8L160.8,335.8L171.3,335.8L181.9,335.8L192.5,335.8L203.1,335.8L213.7,334.7L224.2,332.6L234.8,331.5L245.4,331.5L256.0,331.5L266.5,329.4L277.1,329.4L287.7,329.4L298.3,328.3L308.8,328.3L319.4,321.9L330.0,321.9L340.6,317.7L351.2,314.5L361.7,310.3L372.3,309.2L382.9,309.2L393.5,309.2L404.0,309.2L414.6,307.1L425.2,307.1L435.8,304.9L446.3,301.8L456.9,299.6L467.5,293.3L478.1,289.0L488.7,282.6L499.2,279.5L509.8,275.2L520.4,273.1L531.0,267.8L541.5,259.3L552.1,256.1L562.7,249.7L573.3,246.5L583.8,241.2L594.4,234.8L605.0,229.5L615.6,221.0L626.2,220.0L636.7,217.8L647.3,212.5L657.9,212.5L668.5,207.2L679.0,207.2L689.6,205.1L700.2,205.1L710.8,205.1L721.3,205.1L731.9,204.0L742.5,201.9L753.1,201.9L763.7,199.8L774.2,199.8L784.8,199.8L795.4,199.8L806.0,199.8L816.5,199.8L827.1,199.8L837.7,199.8L848.3,199.8L858.8,199.8L869.4,199.8L880.0,198.7" fill="none" stroke="#d2a8ff" stroke-width="2.5" stroke-linecap="round" stroke-linejoin="round"/>
  <path d="M55.0,340.0L65.6,334.7L76.2,333.6L86.7,332.6L97.3,331.5L107.9,327.3L118.5,327.3L129.0,327.3L139.6,327.3L150.2,326.2L160.8,326.2L171.3,326.2L181.9,326.2L192.5,326.2L203.1,326.2L213.7,324.1L224.2,323.0L234.8,321.9L245.4,321.9L256.0,319.8L266.5,319.8L277.1,317.7L287.7,313.4L298.3,311.3L308.8,306.0L319.4,304.9L330.0,304.9L340.6,303.9L351.2,302.8L361.7,296.4L372.3,296.4L382.9,296.4L393.5,296.4L404.0,296.4L414.6,292.2L425.2,292.2L435.8,289.0L446.3,278.4L456.9,240.1L467.5,240.1L478.1,240.1L488.7,240.1L499.2,238.0L509.8,237.0L520.4,235.9L531.0,235.9L541.5,235.9L552.1,235.9L562.7,232.7L573.3,231.6L583.8,231.6L594.4,231.6L605.0,231.6L615.6,231.6L626.2,231.6L636.7,229.5L647.3,227.4L657.9,226.3L668.5,226.3L679.0,226.3L689.6,225.3L700.2,222.1L710.8,222.1L721.3,221.0L731.9,220.0L742.5,218.9L753.1,218.9L763.7,217.8L774.2,217.8L784.8,217.8L795.4,217.8L806.0,217.8L816.5,217.8L827.1,217.8L837.7,217.8L848.3,217.8L858.8,217.8L869.4,217.8L880.0,217.8" fill="none" stroke="#f85149" stroke-width="2.5" stroke-linecap="round" stroke-linejoin="round"/>
  <circle cx="880.0" cy="55.3" r="3.5" fill="#58a6ff"/>
  <text x="889.0" y="59.3" fill="#58a6ff" font-size="11" font-weight="600" font-family="-apple-system,BlinkMacSystemFont,Segoe UI,Helvetica,Arial,sans-serif">268</text>
  <circle cx="880.0" cy="283.7" r="3.5" fill="#f78166"/>
  <text x="889.0" y="287.7" fill="#f78166" font-size="11" font-weight="600" font-family="-apple-system,BlinkMacSystemFont,Segoe UI,Helvetica,Arial,sans-serif">53</text>
  <circle cx="880.0" cy="318.8" r="3.5" fill="#3fb950"/>
  <text x="889.0" y="322.8" fill="#3fb950" font-size="11" font-weight="600" font-family="-apple-system,BlinkMacSystemFont,Segoe UI,Helvetica,Arial,sans-serif">20</text>
  <circle cx="880.0" cy="198.7" r="3.5" fill="#d2a8ff"/>
  <text x="889.0" y="202.7" fill="#d2a8ff" font-size="11" font-weight="600" font-family="-apple-system,BlinkMacSystemFont,Segoe UI,Helvetica,Arial,sans-serif">133</text>
  <circle cx="880.0" cy="217.8" r="3.5" fill="#f85149"/>
  <text x="889.0" y="221.8" fill="#f85149" font-size="11" font-weight="600" font-family="-apple-system,BlinkMacSystemFont,Segoe UI,Helvetica,Arial,sans-serif">115</text>
  <line x1="55" y1="368" x2="71" y2="368" stroke="#f78166" stroke-width="2.5" stroke-linecap="round"/>
  <text x="77" y="372" fill="#8b949e" font-size="11" font-family="-apple-system,BlinkMacSystemFont,Segoe UI,Helvetica,Arial,sans-serif">Repos</text>
  <line x1="255" y1="368" x2="271" y2="368" stroke="#58a6ff" stroke-width="2.5" stroke-linecap="round"/>
  <text x="277" y="372" fill="#8b949e" font-size="11" font-family="-apple-system,BlinkMacSystemFont,Segoe UI,Helvetica,Arial,sans-serif">PRs Opened</text>
  <line x1="455" y1="368" x2="471" y2="368" stroke="#3fb950" stroke-width="2.5" stroke-linecap="round"/>
  <text x="477" y="372" fill="#8b949e" font-size="11" font-family="-apple-system,BlinkMacSystemFont,Segoe UI,Helvetica,Arial,sans-serif">Open PRs</text>
  <line x1="55" y1="386" x2="71" y2="386" stroke="#d2a8ff" stroke-width="2.5" stroke-linecap="round"/>
  <text x="77" y="390" fill="#8b949e" font-size="11" font-family="-apple-system,BlinkMacSystemFont,Segoe UI,Helvetica,Arial,sans-serif">Merged</text>
  <line x1="255" y1="386" x2="271" y2="386" stroke="#f85149" stroke-width="2.5" stroke-linecap="round"/>
  <text x="277" y="390" fill="#8b949e" font-size="11" font-family="-apple-system,BlinkMacSystemFont,Segoe UI,Helvetica,Arial,sans-serif">Closed</text>
</svg>