<svg xmlns="http://www.w3.org/2000/svg" viewBox="0 0 960 400" width="960" height="400">
  <defs>
    <linearGradient id="gR" x1="0" y1="0" x2="0" y2="1">
      <stop offset="0%" stop-color="#3fb950" stop-opacity="0.25"/>
      <stop offset="100%" stop-color="#3fb950" stop-opacity="0.02"/>
    </linearGradient>
    <linearGradient id="gO" x1="0" y1="0" x2="0" y2="1">
      <stop offset="0%" stop-color="#58a6ff" stop-opacity="0.25"/>
      <stop offset="100%" stop-color="#58a6ff" stop-opacity="0.02"/>
    </linearGradient>
    <linearGradient id="gOp" x1="0" y1="0" x2="0" y2="1">
      <stop offset="0%" stop-color="#d2a8ff" stop-opacity="0.25"/>
      <stop offset="100%" stop-color="#d2a8ff" stop-opacity="0.02"/>
    </linearGradient>
    <linearGradient id="gM" x1="0" y1="0" x2="0" y2="1">
      <stop offset="0%" stop-color="#f78166" stop-opacity="0.25"/>
      <stop offset="100%" stop-color="#f78166" stop-opacity="0.02"/>
    </linearGradient>
    <linearGradient id="gC" x1="0" y1="0" x2="0" y2="1">
      <stop offset="0%" stop-color="#f85149" stop-opacity="0.25"/>
      <stop offset="100%" stop-color="#f85149" stop-opacity="0.02"/>
    </linearGradient>
  </defs>
  <rect width="960" height="400" rx="12" fill="#0d1117"/>
  <rect width="960" height="400" rx="12" fill="none" stroke="#30363d" stroke-width="1"/>
  <text x="55" y="30" fill="#e6edf3" font-size="15" font-weight="600" font-family="-apple-system,BlinkMacSystemFont,Segoe UI,Helvetica,Arial,sans-serif">GitHub Activity — jlaportebot</text>
  <text x="880" y="30" fill="#8b949e" font-size="11" text-anchor="end" font-family="-apple-system,BlinkMacSystemFont,Segoe UI,Helvetica,Arial,sans-serif">Updated May 29, 2026</text>
  <line x1="55" y1="340.0" x2="880" y2="340.0" stroke="#21262d" stroke-width="1"/>
  <text x="47" y="344.0" fill="#8b949e" font-size="11" text-anchor="end" font-family="-apple-system,BlinkMacSystemFont,Segoe UI,Helvetica,Arial,sans-serif">0</text>
  <line x1="55" y1="311.6" x2="880" y2="311.6" stroke="#21262d" stroke-width="1"/>
  <text x="47" y="315.6" fill="#8b949e" font-size="11" text-anchor="end" font-family="-apple-system,BlinkMacSystemFont,Segoe UI,Helvetica,Arial,sans-serif">10</text>
  <line x1="55" y1="283.1" x2="880" y2="283.1" stroke="#21262d" stroke-width="1"/>
  <text x="47" y="287.1" fill="#8b949e" font-size="11" text-anchor="end" font-family="-apple-system,BlinkMacSystemFont,Segoe UI,Helvetica,Arial,sans-serif">20</text>
  <line x1="55" y1="254.7" x2="880" y2="254.7" stroke="#21262d" stroke-width="1"/>
  <text x="47" y="258.7" fill="#8b949e" font-size="11" text-anchor="end" font-family="-apple-system,BlinkMacSystemFont,Segoe UI,Helvetica,Arial,sans-serif">30</text>
  <line x1="55" y1="226.3" x2="880" y2="226.3" stroke="#21262d" stroke-width="1"/>
  <text x="47" y="230.3" fill="#8b949e" font-size="11" text-anchor="end" font-family="-apple-system,BlinkMacSystemFont,Segoe UI,Helvetica,Arial,sans-serif">40</text>
  <line x1="55" y1="197.8" x2="880" y2="197.8" stroke="#21262d" stroke-width="1"/>
  <text x="47" y="201.8" fill="#8b949e" font-size="11" text-anchor="end" font-family="-apple-system,BlinkMacSystemFont,Segoe UI,Helvetica,Arial,sans-serif">50</text>
  <line x1="55" y1="169.4" x2="880" y2="169.4" stroke="#21262d" stroke-width="1"/>
  <text x="47" y="173.4" fill="#8b949e" font-size="11" text-anchor="end" font-family="-apple-system,BlinkMacSystemFont,Segoe UI,Helvetica,Arial,sans-serif">60</text>
  <line x1="55" y1="141.0" x2="880" y2="141.0" stroke="#21262d" stroke-width="1"/>
  <text x="47" y="145.0" fill="#8b949e" font-size="11" text-anchor="end" font-family="-apple-system,BlinkMacSystemFont,Segoe UI,Helvetica,Arial,sans-serif">70</text>
  <line x1="55" y1="112.5" x2="880" y2="112.5" stroke="#21262d" stroke-width="1"/>
  <text x="47" y="116.5" fill="#8b949e" font-size="11" text-anchor="end" font-family="-apple-system,BlinkMacSystemFont,Segoe UI,Helvetica,Arial,sans-serif">80</text>
  <line x1="55" y1="84.1" x2="880" y2="84.1" stroke="#21262d" stroke-width="1"/>
  <text x="47" y="88.1" fill="#8b949e" font-size="11" text-anchor="end" font-family="-apple-system,BlinkMacSystemFont,Segoe UI,Helvetica,Arial,sans-serif">90</text>
  <line x1="55" y1="55.7" x2="880" y2="55.7" stroke="#21262d" stroke-width="1"/>
  <text x="47" y="59.7" fill="#8b949e" font-size="11" text-anchor="end" font-family="-apple-system,BlinkMacSystemFont,Segoe UI,Helvetica,Arial,sans-serif">100</text>
  <line x1="55.0" y1="50" x2="55.0" y2="340" stroke="#21262d" stroke-width="1" stroke-dasharray="4,4"/>
  <text x="55.0" y="360" fill="#8b949e" font-size="10" text-anchor="middle" font-family="-apple-system,BlinkMacSystemFont,Segoe UI,Helvetica,Arial,sans-serif">May 02</text>
  <line x1="177.2" y1="50" x2="177.2" y2="340" stroke="#21262d" stroke-width="1" stroke-dasharray="4,4"/>
  <text x="177.2" y="360" fill="#8b949e" font-size="10" text-anchor="middle" font-family="-apple-system,BlinkMacSystemFont,Segoe UI,Helvetica,Arial,sans-serif">May 06</text>
  <line x1="299.4" y1="50" x2="299.4" y2="340" stroke="#21262d" stroke-width="1" stroke-dasharray="4,4"/>
  <text x="299.4" y="360" fill="#8b949e" font-size="10" text-anchor="middle" font-family="-apple-system,BlinkMacSystemFont,Segoe UI,Helvetica,Arial,sans-serif">May 10</text>
  <line x1="421.7" y1="50" x2="421.7" y2="340" stroke="#21262d" stroke-width="1" stroke-dasharray="4,4"/>
  <text x="421.7" y="360" fill="#8b949e" font-size="10" text-anchor="middle" font-family="-apple-system,BlinkMacSystemFont,Segoe UI,Helvetica,Arial,sans-serif">May 14</text>
  <line x1="543.9" y1="50" x2="543.9" y2="340" stroke="#21262d" stroke-width="1" stroke-dasharray="4,4"/>
  <text x="543.9" y="360" fill="#8b949e" font-size="10" text-anchor="middle" font-family="-apple-system,BlinkMacSystemFont,Segoe UI,Helvetica,Arial,sans-serif">May 18</text>
  <line x1="666.1" y1="50" x2="666.1" y2="340" stroke="#21262d" stroke-width="1" stroke-dasharray="4,4"/>
  <text x="666.1" y="360" fill="#8b949e" font-size="10" text-anchor="middle" font-family="-apple-system,BlinkMacSystemFont,Segoe UI,Helvetica,Arial,sans-serif">May 22</text>
  <line x1="788.3" y1="50" x2="788.3" y2="340" stroke="#21262d" stroke-width="1" stroke-dasharray="4,4"/>
  <text x="788.3" y="360" fill="#8b949e" font-size="10" text-anchor="middle" font-family="-apple-system,BlinkMacSystemFont,Segoe UI,Helvetica,Arial,sans-serif">May 26</text>
  <line x1="880.0" y1="50" x2="880.0" y2="340" stroke="#21262d" stroke-width="1" stroke-dasharray="4,4"/>
  <text x="880.0" y="360" fill="#8b949e" font-size="10" text-anchor="middle" font-family="-apple-system,BlinkMacSystemFont,Segoe UI,Helvetica,Arial,sans-serif">May 29</text>
  <path d="M55.0,340.0L85.6,303.0L116.1,283.1L146.7,271.8L177.2,254.7L207.8,243.3L238.3,234.8L268.9,234.8L299.4,234.8L330.0,234.8L360.6,234.8L391.1,234.8L421.7,234.8L452.2,234.8L482.8,232.0L513.3,220.6L543.9,209.2L574.4,195.0L605.0,177.9L635.6,160.9L666.1,143.8L696.7,129.6L727.2,118.2L757.8,112.5L788.3,104.0L818.9,72.7L849.4,69.9L880.0,64.2L880.0,340.0L55.0,340.0Z" fill="url(#gO)"/>
  <path d="M55.0,337.2L85.6,314.4L116.1,300.2L146.7,294.5L177.2,280.3L207.8,268.9L238.3,263.2L268.9,263.2L299.4,263.2L330.0,263.2L360.6,263.2L391.1,263.2L421.7,263.2L452.2,263.2L482.8,260.4L513.3,237.6L543.9,234.8L574.4,234.8L605.0,234.8L635.6,234.8L666.1,234.8L696.7,234.8L727.2,220.6L757.8,200.7L788.3,183.6L818.9,180.8L849.4,180.8L880.0,180.8L880.0,340.0L55.0,340.0Z" fill="url(#gR)"/>
  <path d="M55.0,340.0L85.6,303.0L116.1,283.1L146.7,271.8L177.2,254.7L207.8,243.3L238.3,234.8L268.9,234.8L299.4,234.8L330.0,234.8L360.6,234.8L391.1,234.8L421.7,234.8L452.2,234.8L482.8,232.0L513.3,220.6L543.9,209.2L574.4,195.0L605.0,177.9L635.6,160.9L666.1,143.8L696.7,129.6L727.2,118.2L757.8,112.5L788.3,104.0L818.9,72.7L849.4,69.9L880.0,64.2" fill="none" stroke="#58a6ff" stroke-width="2.5" stroke-linecap="round" stroke-linejoin="round"/>
  <path d="M55.0,337.2L85.6,314.4L116.1,300.2L146.7,294.5L177.2,280.3L207.8,268.9L238.3,263.2L268.9,263.2L299.4,263.2L330.0,263.2L360.6,263.2L391.1,263.2L421.7,263.2L452.2,263.2L482.8,260.4L513.3,237.6L543.9,234.8L574.4,234.8L605.0,234.8L635.6,234.8L666.1,234.8L696.7,234.8L727.2,220.6L757.8,200.7L788.3,183.6L818.9,180.8L849.4,180.8L880.0,180.8" fill="none" stroke="#3fb950" stroke-width="2.5" stroke-linecap="round" stroke-linejoin="round"/>
  <path d="M55.0,340.0L85.6,317.3L116.1,305.9L146.7,300.2L177.2,286.0L207.8,288.8L238.3,280.3L268.9,283.1L299.4,283.1L330.0,286.0L360.6,286.0L391.1,286.0L421.7,286.0L452.2,286.0L482.8,283.1L513.3,280.3L543.9,277.5L574.4,268.9L605.0,251.9L635.6,240.5L666.1,229.1L696.7,220.6L727.2,220.6L757.8,223.4L788.3,229.1L818.9,217.7L849.4,214.9L880.0,209.2" fill="none" stroke="#d2a8ff" stroke-width="2.5" stroke-linecap="round" stroke-linejoin="round"/>
  <path d="M55.0,340.0L85.6,340.0L116.1,334.3L146.7,331.5L177.2,331.5L207.8,328.6L238.3,328.6L268.9,325.8L299.4,325.8L330.0,325.8L360.6,325.8L391.1,325.8L421.7,325.8L452.2,325.8L482.8,325.8L513.3,322.9L543.9,317.3L574.4,314.4L605.0,314.4L635.6,314.4L666.1,308.7L696.7,308.7L727.2,308.7L757.8,305.9L788.3,305.9L818.9,288.8L849.4,288.8L880.0,288.8" fill="none" stroke="#f78166" stroke-width="2.5" stroke-linecap="round" stroke-linejoin="round"/>
  <path d="M55.0,340.0L85.6,325.8L116.1,322.9L146.7,320.1L177.2,317.3L207.8,305.9L238.3,305.9L268.9,305.9L299.4,305.9L330.0,303.0L360.6,303.0L391.1,303.0L421.7,303.0L452.2,303.0L482.8,303.0L513.3,297.4L543.9,294.5L574.4,291.7L605.0,291.7L635.6,286.0L666.1,286.0L696.7,280.3L727.2,268.9L757.8,263.2L788.3,249.0L818.9,246.2L849.4,246.2L880.0,246.2" fill="none" stroke="#f85149" stroke-width="2.5" stroke-linecap="round" stroke-linejoin="round"/>
  <circle cx="880.0" cy="64.2" r="3.5" fill="#58a6ff"/>
  <text x="889.0" y="68.2" fill="#58a6ff" font-size="11" font-weight="600" font-family="-apple-system,BlinkMacSystemFont,Segoe UI,Helvetica,Arial,sans-serif">97</text>
  <circle cx="880.0" cy="180.8" r="3.5" fill="#3fb950"/>
  <text x="889.0" y="184.8" fill="#3fb950" font-size="11" font-weight="600" font-family="-apple-system,BlinkMacSystemFont,Segoe UI,Helvetica,Arial,sans-serif">56</text>
  <circle cx="880.0" cy="209.2" r="3.5" fill="#d2a8ff"/>
  <text x="889.0" y="213.2" fill="#d2a8ff" font-size="11" font-weight="600" font-family="-apple-system,BlinkMacSystemFont,Segoe UI,Helvetica,Arial,sans-serif">46</text>
  <circle cx="880.0" cy="288.8" r="3.5" fill="#f78166"/>
  <text x="889.0" y="292.8" fill="#f78166" font-size="11" font-weight="600" font-family="-apple-system,BlinkMacSystemFont,Segoe UI,Helvetica,Arial,sans-serif">18</text>
  <circle cx="880.0" cy="246.2" r="3.5" fill="#f85149"/>
  <text x="889.0" y="250.2" fill="#f85149" font-size="11" font-weight="600" font-family="-apple-system,BlinkMacSystemFont,Segoe UI,Helvetica,Arial,sans-serif">33</text>
  <line x1="55" y1="368" x2="71" y2="368" stroke="#3fb950" stroke-width="2.5" stroke-linecap="round"/>
  <text x="77" y="372" fill="#8b949e" font-size="11" font-family="-apple-system,BlinkMacSystemFont,Segoe UI,Helvetica,Arial,sans-serif">Repos</text>
  <line x1="255" y1="368" x2="271" y2="368" stroke="#58a6ff" stroke-width="2.5" stroke-linecap="round"/>
  <text x="277" y="372" fill="#8b949e" font-size="11" font-family="-apple-system,BlinkMacSystemFont,Segoe UI,Helvetica,Arial,sans-serif">PRs Opened</text>
  <line x1="455" y1="368" x2="471" y2="368" stroke="#d2a8ff" stroke-width="2.5" stroke-linecap="round"/>
  <text x="477" y="372" fill="#8b949e" font-size="11" font-family="-apple-system,BlinkMacSystemFont,Segoe UI,Helvetica,Arial,sans-serif">Open PRs</text>
  <line x1="55" y1="386" x2="71" y2="386" stroke="#f78166" stroke-width="2.5" stroke-linecap="round"/>
  <text x="77" y="390" fill="#8b949e" font-size="11" font-family="-apple-system,BlinkMacSystemFont,Segoe UI,Helvetica,Arial,sans-serif">Merged</text>
  <line x1="255" y1="386" x2="271" y2="386" stroke="#f85149" stroke-width="2.5" stroke-linecap="round"/>
  <text x="277" y="390" fill="#8b949e" font-size="11" font-family="-apple-system,BlinkMacSystemFont,Segoe UI,Helvetica,Arial,sans-serif">Closed</text>
</svg>