<svg xmlns="http://www.w3.org/2000/svg" viewBox="0 0 960 400" width="960" height="400">
  <defs>
    <linearGradient id="gR" x1="0" y1="0" x2="0" y2="1">
      <stop offset="0%" stop-color="#f78166" stop-opacity="0.25"/>
      <stop offset="100%" stop-color="#f78166" stop-opacity="0.02"/>
    </linearGradient>
    <linearGradient id="gO" x1="0" y1="0" x2="0" y2="1">
      <stop offset="0%" stop-color="#58a6ff" stop-opacity="0.25"/>
      <stop offset="100%" stop-color="#58a6ff" stop-opacity="0.02"/>
    </linearGradient>
    <linearGradient id="gOp" x1="0" y1="0" x2="0" y2="1">
      <stop offset="0%" stop-color="#3fb950" stop-opacity="0.25"/>
      <stop offset="100%" stop-color="#3fb950" stop-opacity="0.02"/>
    </linearGradient>
    <linearGradient id="gM" x1="0" y1="0" x2="0" y2="1">
      <stop offset="0%" stop-color="#d2a8ff" stop-opacity="0.25"/>
      <stop offset="100%" stop-color="#d2a8ff" stop-opacity="0.02"/>
    </linearGradient>
    <linearGradient id="gC" x1="0" y1="0" x2="0" y2="1">
      <stop offset="0%" stop-color="#f85149" stop-opacity="0.25"/>
      <stop offset="100%" stop-color="#f85149" stop-opacity="0.02"/>
    </linearGradient>
  </defs>
  <rect width="960" height="400" rx="12" fill="#0d1117"/>
  <rect width="960" height="400" rx="12" fill="none" stroke="#30363d" stroke-width="1"/>
  <text x="55" y="30" fill="#e6edf3" font-size="15" font-weight="600" font-family="-apple-system,BlinkMacSystemFont,Segoe UI,Helvetica,Arial,sans-serif">GitHub Activity — jlaportebot</text>
  <text x="880" y="30" fill="#8b949e" font-size="11" text-anchor="end" font-family="-apple-system,BlinkMacSystemFont,Segoe UI,Helvetica,Arial,sans-serif">Updated Jun 27, 2026</text>
  <line x1="55" y1="340.0" x2="880" y2="340.0" stroke="#21262d" stroke-width="1"/>
  <text x="47" y="344.0" fill="#8b949e" font-size="11" text-anchor="end" font-family="-apple-system,BlinkMacSystemFont,Segoe UI,Helvetica,Arial,sans-serif">0</text>
  <line x1="55" y1="327.8" x2="880" y2="327.8" stroke="#21262d" stroke-width="1"/>
  <text x="47" y="331.8" fill="#8b949e" font-size="11" text-anchor="end" font-family="-apple-system,BlinkMacSystemFont,Segoe UI,Helvetica,Arial,sans-serif">10</text>
  <line x1="55" y1="315.5" x2="880" y2="315.5" stroke="#21262d" stroke-width="1"/>
  <text x="47" y="319.5" fill="#8b949e" font-size="11" text-anchor="end" font-family="-apple-system,BlinkMacSystemFont,Segoe UI,Helvetica,Arial,sans-serif">20</text>
  <line x1="55" y1="303.3" x2="880" y2="303.3" stroke="#21262d" stroke-width="1"/>
  <text x="47" y="307.3" fill="#8b949e" font-size="11" text-anchor="end" font-family="-apple-system,BlinkMacSystemFont,Segoe UI,Helvetica,Arial,sans-serif">30</text>
  <line x1="55" y1="291.1" x2="880" y2="291.1" stroke="#21262d" stroke-width="1"/>
  <text x="47" y="295.1" fill="#8b949e" font-size="11" text-anchor="end" font-family="-apple-system,BlinkMacSystemFont,Segoe UI,Helvetica,Arial,sans-serif">40</text>
  <line x1="55" y1="278.8" x2="880" y2="278.8" stroke="#21262d" stroke-width="1"/>
  <text x="47" y="282.8" fill="#8b949e" font-size="11" text-anchor="end" font-family="-apple-system,BlinkMacSystemFont,Segoe UI,Helvetica,Arial,sans-serif">50</text>
  <line x1="55" y1="266.6" x2="880" y2="266.6" stroke="#21262d" stroke-width="1"/>
  <text x="47" y="270.6" fill="#8b949e" font-size="11" text-anchor="end" font-family="-apple-system,BlinkMacSystemFont,Segoe UI,Helvetica,Arial,sans-serif">60</text>
  <line x1="55" y1="254.3" x2="880" y2="254.3" stroke="#21262d" stroke-width="1"/>
  <text x="47" y="258.3" fill="#8b949e" font-size="11" text-anchor="end" font-family="-apple-system,BlinkMacSystemFont,Segoe UI,Helvetica,Arial,sans-serif">70</text>
  <line x1="55" y1="242.1" x2="880" y2="242.1" stroke="#21262d" stroke-width="1"/>
  <text x="47" y="246.1" fill="#8b949e" font-size="11" text-anchor="end" font-family="-apple-system,BlinkMacSystemFont,Segoe UI,Helvetica,Arial,sans-serif">80</text>
  <line x1="55" y1="229.9" x2="880" y2="229.9" stroke="#21262d" stroke-width="1"/>
  <text x="47" y="233.9" fill="#8b949e" font-size="11" text-anchor="end" font-family="-apple-system,BlinkMacSystemFont,Segoe UI,Helvetica,Arial,sans-serif">90</text>
  <line x1="55" y1="217.6" x2="880" y2="217.6" stroke="#21262d" stroke-width="1"/>
  <text x="47" y="221.6" fill="#8b949e" font-size="11" text-anchor="end" font-family="-apple-system,BlinkMacSystemFont,Segoe UI,Helvetica,Arial,sans-serif">100</text>
  <line x1="55" y1="205.4" x2="880" y2="205.4" stroke="#21262d" stroke-width="1"/>
  <text x="47" y="209.4" fill="#8b949e" font-size="11" text-anchor="end" font-family="-apple-system,BlinkMacSystemFont,Segoe UI,Helvetica,Arial,sans-serif">110</text>
  <line x1="55" y1="193.2" x2="880" y2="193.2" stroke="#21262d" stroke-width="1"/>
  <text x="47" y="197.2" fill="#8b949e" font-size="11" text-anchor="end" font-family="-apple-system,BlinkMacSystemFont,Segoe UI,Helvetica,Arial,sans-serif">120</text>
  <line x1="55" y1="180.9" x2="880" y2="180.9" stroke="#21262d" stroke-width="1"/>
  <text x="47" y="184.9" fill="#8b949e" font-size="11" text-anchor="end" font-family="-apple-system,BlinkMacSystemFont,Segoe UI,Helvetica,Arial,sans-serif">130</text>
  <line x1="55" y1="168.7" x2="880" y2="168.7" stroke="#21262d" stroke-width="1"/>
  <text x="47" y="172.7" fill="#8b949e" font-size="11" text-anchor="end" font-family="-apple-system,BlinkMacSystemFont,Segoe UI,Helvetica,Arial,sans-serif">140</text>
  <line x1="55" y1="156.5" x2="880" y2="156.5" stroke="#21262d" stroke-width="1"/>
  <text x="47" y="160.5" fill="#8b949e" font-size="11" text-anchor="end" font-family="-apple-system,BlinkMacSystemFont,Segoe UI,Helvetica,Arial,sans-serif">150</text>
  <line x1="55" y1="144.2" x2="880" y2="144.2" stroke="#21262d" stroke-width="1"/>
  <text x="47" y="148.2" fill="#8b949e" font-size="11" text-anchor="end" font-family="-apple-system,BlinkMacSystemFont,Segoe UI,Helvetica,Arial,sans-serif">160</text>
  <line x1="55" y1="132.0" x2="880" y2="132.0" stroke="#21262d" stroke-width="1"/>
  <text x="47" y="136.0" fill="#8b949e" font-size="11" text-anchor="end" font-family="-apple-system,BlinkMacSystemFont,Segoe UI,Helvetica,Arial,sans-serif">170</text>
  <line x1="55" y1="119.7" x2="880" y2="119.7" stroke="#21262d" stroke-width="1"/>
  <text x="47" y="123.7" fill="#8b949e" font-size="11" text-anchor="end" font-family="-apple-system,BlinkMacSystemFont,Segoe UI,Helvetica,Arial,sans-serif">180</text>
  <line x1="55" y1="107.5" x2="880" y2="107.5" stroke="#21262d" stroke-width="1"/>
  <text x="47" y="111.5" fill="#8b949e" font-size="11" text-anchor="end" font-family="-apple-system,BlinkMacSystemFont,Segoe UI,Helvetica,Arial,sans-serif">190</text>
  <line x1="55" y1="95.3" x2="880" y2="95.3" stroke="#21262d" stroke-width="1"/>
  <text x="47" y="99.3" fill="#8b949e" font-size="11" text-anchor="end" font-family="-apple-system,BlinkMacSystemFont,Segoe UI,Helvetica,Arial,sans-serif">200</text>
  <line x1="55" y1="83.0" x2="880" y2="83.0" stroke="#21262d" stroke-width="1"/>
  <text x="47" y="87.0" fill="#8b949e" font-size="11" text-anchor="end" font-family="-apple-system,BlinkMacSystemFont,Segoe UI,Helvetica,Arial,sans-serif">210</text>
  <line x1="55" y1="70.8" x2="880" y2="70.8" stroke="#21262d" stroke-width="1"/>
  <text x="47" y="74.8" fill="#8b949e" font-size="11" text-anchor="end" font-family="-apple-system,BlinkMacSystemFont,Segoe UI,Helvetica,Arial,sans-serif">220</text>
  <line x1="55" y1="58.6" x2="880" y2="58.6" stroke="#21262d" stroke-width="1"/>
  <text x="47" y="62.6" fill="#8b949e" font-size="11" text-anchor="end" font-family="-apple-system,BlinkMacSystemFont,Segoe UI,Helvetica,Arial,sans-serif">230</text>
  <line x1="55.0" y1="50" x2="55.0" y2="340" stroke="#21262d" stroke-width="1" stroke-dasharray="4,4"/>
  <text x="55.0" y="360" fill="#8b949e" font-size="10" text-anchor="middle" font-family="-apple-system,BlinkMacSystemFont,Segoe UI,Helvetica,Arial,sans-serif">May 02</text>
  <line x1="172.9" y1="50" x2="172.9" y2="340" stroke="#21262d" stroke-width="1" stroke-dasharray="4,4"/>
  <text x="172.9" y="360" fill="#8b949e" font-size="10" text-anchor="middle" font-family="-apple-system,BlinkMacSystemFont,Segoe UI,Helvetica,Arial,sans-serif">May 10</text>
  <line x1="290.7" y1="50" x2="290.7" y2="340" stroke="#21262d" stroke-width="1" stroke-dasharray="4,4"/>
  <text x="290.7" y="360" fill="#8b949e" font-size="10" text-anchor="middle" font-family="-apple-system,BlinkMacSystemFont,Segoe UI,Helvetica,Arial,sans-serif">May 18</text>
  <line x1="408.6" y1="50" x2="408.6" y2="340" stroke="#21262d" stroke-width="1" stroke-dasharray="4,4"/>
  <text x="408.6" y="360" fill="#8b949e" font-size="10" text-anchor="middle" font-family="-apple-system,BlinkMacSystemFont,Segoe UI,Helvetica,Arial,sans-serif">May 26</text>
  <line x1="526.4" y1="50" x2="526.4" y2="340" stroke="#21262d" stroke-width="1" stroke-dasharray="4,4"/>
  <text x="526.4" y="360" fill="#8b949e" font-size="10" text-anchor="middle" font-family="-apple-system,BlinkMacSystemFont,Segoe UI,Helvetica,Arial,sans-serif">Jun 03</text>
  <line x1="644.3" y1="50" x2="644.3" y2="340" stroke="#21262d" stroke-width="1" stroke-dasharray="4,4"/>
  <text x="644.3" y="360" fill="#8b949e" font-size="10" text-anchor="middle" font-family="-apple-system,BlinkMacSystemFont,Segoe UI,Helvetica,Arial,sans-serif">Jun 11</text>
  <line x1="762.1" y1="50" x2="762.1" y2="340" stroke="#21262d" stroke-width="1" stroke-dasharray="4,4"/>
  <text x="762.1" y="360" fill="#8b949e" font-size="10" text-anchor="middle" font-family="-apple-system,BlinkMacSystemFont,Segoe UI,Helvetica,Arial,sans-serif">Jun 19</text>
  <line x1="880.0" y1="50" x2="880.0" y2="340" stroke="#21262d" stroke-width="1" stroke-dasharray="4,4"/>
  <text x="880.0" y="360" fill="#8b949e" font-size="10" text-anchor="middle" font-family="-apple-system,BlinkMacSystemFont,Segoe UI,Helvetica,Arial,sans-serif">Jun 27</text>
  <path d="M55.0,340.0L69.7,325.3L84.5,316.8L99.2,311.9L113.9,304.5L128.7,299.6L143.4,295.9L158.1,295.9L172.9,295.9L187.6,295.9L202.3,295.9L217.1,295.9L231.8,295.9L246.5,295.9L261.2,294.7L276.0,289.8L290.7,284.9L305.4,278.8L320.2,271.5L334.9,264.1L349.6,256.8L364.4,250.7L379.1,245.8L393.8,243.3L408.6,239.7L423.3,226.2L438.0,225.0L452.8,218.9L467.5,210.3L482.2,204.2L497.0,199.3L511.7,199.3L526.4,199.3L541.2,199.3L555.9,199.3L570.6,199.3L585.4,191.9L600.1,182.2L614.8,178.5L629.6,171.1L644.3,166.2L659.0,158.9L673.8,147.9L688.5,141.8L703.2,135.7L717.9,129.5L732.7,118.5L747.4,111.2L762.1,101.4L776.9,94.1L791.6,87.9L806.3,83.0L821.1,75.7L835.8,67.1L850.5,62.2L865.3,58.6L880.0,56.1L880.0,340.0L55.0,340.0Z" fill="url(#gO)"/>
  <path d="M55.0,338.8L69.7,338.8L84.5,338.8L99.2,338.8L113.9,338.8L128.7,338.8L143.4,338.8L158.1,338.8L172.9,338.8L187.6,338.8L202.3,338.8L217.1,338.8L231.8,338.8L246.5,338.8L261.2,338.8L276.0,335.1L290.7,335.1L305.4,335.1L320.2,335.1L334.9,335.1L349.6,335.1L364.4,335.1L379.1,333.9L393.8,330.2L408.6,330.2L423.3,329.0L438.0,329.0L452.8,329.0L467.5,329.0L482.2,329.0L497.0,326.5L511.7,326.5L526.4,326.5L541.2,326.5L555.9,326.5L570.6,326.5L585.4,326.5L600.1,324.1L614.8,309.4L629.6,309.4L644.3,309.4L659.0,309.4L673.8,299.6L688.5,299.6L703.2,299.6L717.9,299.6L732.7,299.6L747.4,297.2L762.1,297.2L776.9,295.9L791.6,294.7L806.3,293.5L821.1,292.3L835.8,289.8L850.5,284.9L865.3,283.7L880.0,283.7L880.0,340.0L55.0,340.0Z" fill="url(#gR)"/>
  <path d="M55.0,340.0L69.7,325.3L84.5,316.8L99.2,311.9L113.9,304.5L128.7,299.6L143.4,295.9L158.1,295.9L172.9,295.9L187.6,295.9L202.3,295.9L217.1,295.9L231.8,295.9L246.5,295.9L261.2,294.7L276.0,289.8L290.7,284.9L305.4,278.8L320.2,271.5L334.9,264.1L349.6,256.8L364.4,250.7L379.1,245.8L393.8,243.3L408.6,239.7L423.3,226.2L438.0,225.0L452.8,218.9L467.5,210.3L482.2,204.2L497.0,199.3L511.7,199.3L526.4,199.3L541.2,199.3L555.9,199.3L570.6,199.3L585.4,191.9L600.1,182.2L614.8,178.5L629.6,171.1L644.3,166.2L659.0,158.9L673.8,147.9L688.5,141.8L703.2,135.7L717.9,129.5L732.7,118.5L747.4,111.2L762.1,101.4L776.9,94.1L791.6,87.9L806.3,83.0L821.1,75.7L835.8,67.1L850.5,62.2L865.3,58.6L880.0,56.1" fill="none" stroke="#58a6ff" stroke-width="2.5" stroke-linecap="round" stroke-linejoin="round"/>
  <path d="M55.0,338.8L69.7,338.8L84.5,338.8L99.2,338.8L113.9,338.8L128.7,338.8L143.4,338.8L158.1,338.8L172.9,338.8L187.6,338.8L202.3,338.8L217.1,338.8L231.8,338.8L246.5,338.8L261.2,338.8L276.0,335.1L290.7,335.1L305.4,335.1L320.2,335.1L334.9,335.1L349.6,335.1L364.4,335.1L379.1,333.9L393.8,330.2L408.6,330.2L423.3,329.0L438.0,329.0L452.8,329.0L467.5,329.0L482.2,329.0L497.0,326.5L511.7,326.5L526.4,326.5L541.2,326.5L555.9,326.5L570.6,326.5L585.4,326.5L600.1,324.1L614.8,309.4L629.6,309.4L644.3,309.4L659.0,309.4L673.8,299.6L688.5,299.6L703.2,299.6L717.9,299.6L732.7,299.6L747.4,297.2L762.1,297.2L776.9,295.9L791.6,294.7L806.3,293.5L821.1,292.3L835.8,289.8L850.5,284.9L865.3,283.7L880.0,283.7" fill="none" stroke="#f78166" stroke-width="2.5" stroke-linecap="round" stroke-linejoin="round"/>
  <path d="M55.0,340.0L69.7,331.4L84.5,325.3L99.2,322.9L113.9,316.8L128.7,318.0L143.4,314.3L158.1,315.5L172.9,315.5L187.6,316.8L202.3,316.8L217.1,316.8L231.8,316.8L246.5,316.8L261.2,315.5L276.0,314.3L290.7,313.1L305.4,309.4L320.2,302.1L334.9,297.2L349.6,292.3L364.4,288.6L379.1,288.6L393.8,289.8L408.6,292.3L423.3,287.4L438.0,286.2L452.8,286.2L467.5,282.5L482.2,288.6L497.0,284.9L511.7,284.9L526.4,284.9L541.2,284.9L555.9,292.3L570.6,292.3L585.4,291.1L600.1,297.2L614.8,340.0L629.6,340.0L644.3,340.0L659.0,340.0L673.8,335.1L688.5,335.1L703.2,332.7L717.9,332.7L732.7,331.4L747.4,327.8L762.1,329.0L776.9,326.5L791.6,326.5L806.3,329.0L821.1,327.8L835.8,329.0L850.5,325.3L865.3,326.5L880.0,326.5" fill="none" stroke="#3fb950" stroke-width="2.5" stroke-linecap="round" stroke-linejoin="round"/>
  <path d="M55.0,340.0L69.7,340.0L84.5,338.8L99.2,337.6L113.9,337.6L128.7,336.3L143.4,336.3L158.1,335.1L172.9,335.1L187.6,335.1L202.3,335.1L217.1,335.1L231.8,335.1L246.5,335.1L261.2,335.1L276.0,333.9L290.7,331.4L305.4,330.2L320.2,330.2L334.9,330.2L349.6,327.8L364.4,327.8L379.1,327.8L393.8,326.5L408.6,326.5L423.3,319.2L438.0,319.2L452.8,314.3L467.5,310.6L482.2,305.7L497.0,304.5L511.7,304.5L526.4,304.5L541.2,304.5L555.9,302.1L570.6,302.1L585.4,299.6L600.1,295.9L614.8,293.5L629.6,286.2L644.3,281.3L659.0,273.9L673.8,270.3L688.5,265.4L703.2,262.9L717.9,256.8L732.7,247.0L747.4,243.3L762.1,236.0L776.9,232.3L791.6,226.2L806.3,218.9L821.1,212.7L835.8,203.0L850.5,201.7L865.3,199.3L880.0,198.1" fill="none" stroke="#d2a8ff" stroke-width="2.5" stroke-linecap="round" stroke-linejoin="round"/>
  <path d="M55.0,340.0L69.7,333.9L84.5,332.7L99.2,331.4L113.9,330.2L128.7,325.3L143.4,325.3L158.1,325.3L172.9,325.3L187.6,324.1L202.3,324.1L217.1,324.1L231.8,324.1L246.5,324.1L261.2,324.1L276.0,321.6L290.7,320.4L305.4,319.2L320.2,319.2L334.9,316.8L349.6,316.8L364.4,314.3L379.1,309.4L393.8,307.0L408.6,300.8L423.3,299.6L438.0,299.6L452.8,298.4L467.5,297.2L482.2,289.8L497.0,289.8L511.7,289.8L526.4,289.8L541.2,289.8L555.9,284.9L570.6,284.9L585.4,281.3L600.1,269.0L614.8,225.0L629.6,225.0L644.3,225.0L659.0,225.0L673.8,222.5L688.5,221.3L703.2,220.1L717.9,220.1L732.7,220.1L747.4,220.1L762.1,216.4L776.9,215.2L791.6,215.2L806.3,215.2L821.1,215.2L835.8,215.2L850.5,215.2L865.3,212.7L880.0,211.5" fill="none" stroke="#f85149" stroke-width="2.5" stroke-linecap="round" stroke-linejoin="round"/>
  <circle cx="880.0" cy="56.1" r="3.5" fill="#58a6ff"/>
  <text x="889.0" y="60.1" fill="#58a6ff" font-size="11" font-weight="600" font-family="-apple-system,BlinkMacSystemFont,Segoe UI,Helvetica,Arial,sans-serif">232</text>
  <circle cx="880.0" cy="283.7" r="3.5" fill="#f78166"/>
  <text x="889.0" y="287.7" fill="#f78166" font-size="11" font-weight="600" font-family="-apple-system,BlinkMacSystemFont,Segoe UI,Helvetica,Arial,sans-serif">46</text>
  <circle cx="880.0" cy="326.5" r="3.5" fill="#3fb950"/>
  <text x="889.0" y="330.5" fill="#3fb950" font-size="11" font-weight="600" font-family="-apple-system,BlinkMacSystemFont,Segoe UI,Helvetica,Arial,sans-serif">11</text>
  <circle cx="880.0" cy="198.1" r="3.5" fill="#d2a8ff"/>
  <text x="889.0" y="202.1" fill="#d2a8ff" font-size="11" font-weight="600" font-family="-apple-system,BlinkMacSystemFont,Segoe UI,Helvetica,Arial,sans-serif">116</text>
  <circle cx="880.0" cy="211.5" r="3.5" fill="#f85149"/>
  <text x="889.0" y="215.5" fill="#f85149" font-size="11" font-weight="600" font-family="-apple-system,BlinkMacSystemFont,Segoe UI,Helvetica,Arial,sans-serif">105</text>
  <line x1="55" y1="368" x2="71" y2="368" stroke="#f78166" stroke-width="2.5" stroke-linecap="round"/>
  <text x="77" y="372" fill="#8b949e" font-size="11" font-family="-apple-system,BlinkMacSystemFont,Segoe UI,Helvetica,Arial,sans-serif">Repos</text>
  <line x1="255" y1="368" x2="271" y2="368" stroke="#58a6ff" stroke-width="2.5" stroke-linecap="round"/>
  <text x="277" y="372" fill="#8b949e" font-size="11" font-family="-apple-system,BlinkMacSystemFont,Segoe UI,Helvetica,Arial,sans-serif">PRs Opened</text>
  <line x1="455" y1="368" x2="471" y2="368" stroke="#3fb950" stroke-width="2.5" stroke-linecap="round"/>
  <text x="477" y="372" fill="#8b949e" font-size="11" font-family="-apple-system,BlinkMacSystemFont,Segoe UI,Helvetica,Arial,sans-serif">Open PRs</text>
  <line x1="55" y1="386" x2="71" y2="386" stroke="#d2a8ff" stroke-width="2.5" stroke-linecap="round"/>
  <text x="77" y="390" fill="#8b949e" font-size="11" font-family="-apple-system,BlinkMacSystemFont,Segoe UI,Helvetica,Arial,sans-serif">Merged</text>
  <line x1="255" y1="386" x2="271" y2="386" stroke="#f85149" stroke-width="2.5" stroke-linecap="round"/>
  <text x="277" y="390" fill="#8b949e" font-size="11" font-family="-apple-system,BlinkMacSystemFont,Segoe UI,Helvetica,Arial,sans-serif">Closed</text>
</svg>