<svg xmlns="http://www.w3.org/2000/svg" viewBox="0 0 960 400" width="960" height="400">
  <defs>
    <linearGradient id="gR" x1="0" y1="0" x2="0" y2="1">
      <stop offset="0%" stop-color="#3fb950" stop-opacity="0.25"/>
      <stop offset="100%" stop-color="#3fb950" stop-opacity="0.02"/>
    </linearGradient>
    <linearGradient id="gO" x1="0" y1="0" x2="0" y2="1">
      <stop offset="0%" stop-color="#58a6ff" stop-opacity="0.25"/>
      <stop offset="100%" stop-color="#58a6ff" stop-opacity="0.02"/>
    </linearGradient>
    <linearGradient id="gOp" x1="0" y1="0" x2="0" y2="1">
      <stop offset="0%" stop-color="#d2a8ff" stop-opacity="0.25"/>
      <stop offset="100%" stop-color="#d2a8ff" stop-opacity="0.02"/>
    </linearGradient>
    <linearGradient id="gM" x1="0" y1="0" x2="0" y2="1">
      <stop offset="0%" stop-color="#f78166" stop-opacity="0.25"/>
      <stop offset="100%" stop-color="#f78166" stop-opacity="0.02"/>
    </linearGradient>
    <linearGradient id="gC" x1="0" y1="0" x2="0" y2="1">
      <stop offset="0%" stop-color="#f85149" stop-opacity="0.25"/>
      <stop offset="100%" stop-color="#f85149" stop-opacity="0.02"/>
    </linearGradient>
  </defs>
  <rect width="960" height="400" rx="12" fill="#0d1117"/>
  <rect width="960" height="400" rx="12" fill="none" stroke="#30363d" stroke-width="1"/>
  <text x="55" y="30" fill="#e6edf3" font-size="15" font-weight="600" font-family="-apple-system,BlinkMacSystemFont,Segoe UI,Helvetica,Arial,sans-serif">GitHub Activity — jlaportebot</text>
  <text x="880" y="30" fill="#8b949e" font-size="11" text-anchor="end" font-family="-apple-system,BlinkMacSystemFont,Segoe UI,Helvetica,Arial,sans-serif">Updated May 31, 2026</text>
  <line x1="55" y1="340.0" x2="880" y2="340.0" stroke="#21262d" stroke-width="1"/>
  <text x="47" y="344.0" fill="#8b949e" font-size="11" text-anchor="end" font-family="-apple-system,BlinkMacSystemFont,Segoe UI,Helvetica,Arial,sans-serif">0</text>
  <line x1="55" y1="317.2" x2="880" y2="317.2" stroke="#21262d" stroke-width="1"/>
  <text x="47" y="321.2" fill="#8b949e" font-size="11" text-anchor="end" font-family="-apple-system,BlinkMacSystemFont,Segoe UI,Helvetica,Arial,sans-serif">10</text>
  <line x1="55" y1="294.3" x2="880" y2="294.3" stroke="#21262d" stroke-width="1"/>
  <text x="47" y="298.3" fill="#8b949e" font-size="11" text-anchor="end" font-family="-apple-system,BlinkMacSystemFont,Segoe UI,Helvetica,Arial,sans-serif">20</text>
  <line x1="55" y1="271.5" x2="880" y2="271.5" stroke="#21262d" stroke-width="1"/>
  <text x="47" y="275.5" fill="#8b949e" font-size="11" text-anchor="end" font-family="-apple-system,BlinkMacSystemFont,Segoe UI,Helvetica,Arial,sans-serif">30</text>
  <line x1="55" y1="248.7" x2="880" y2="248.7" stroke="#21262d" stroke-width="1"/>
  <text x="47" y="252.7" fill="#8b949e" font-size="11" text-anchor="end" font-family="-apple-system,BlinkMacSystemFont,Segoe UI,Helvetica,Arial,sans-serif">40</text>
  <line x1="55" y1="225.8" x2="880" y2="225.8" stroke="#21262d" stroke-width="1"/>
  <text x="47" y="229.8" fill="#8b949e" font-size="11" text-anchor="end" font-family="-apple-system,BlinkMacSystemFont,Segoe UI,Helvetica,Arial,sans-serif">50</text>
  <line x1="55" y1="203.0" x2="880" y2="203.0" stroke="#21262d" stroke-width="1"/>
  <text x="47" y="207.0" fill="#8b949e" font-size="11" text-anchor="end" font-family="-apple-system,BlinkMacSystemFont,Segoe UI,Helvetica,Arial,sans-serif">60</text>
  <line x1="55" y1="180.2" x2="880" y2="180.2" stroke="#21262d" stroke-width="1"/>
  <text x="47" y="184.2" fill="#8b949e" font-size="11" text-anchor="end" font-family="-apple-system,BlinkMacSystemFont,Segoe UI,Helvetica,Arial,sans-serif">70</text>
  <line x1="55" y1="157.3" x2="880" y2="157.3" stroke="#21262d" stroke-width="1"/>
  <text x="47" y="161.3" fill="#8b949e" font-size="11" text-anchor="end" font-family="-apple-system,BlinkMacSystemFont,Segoe UI,Helvetica,Arial,sans-serif">80</text>
  <line x1="55" y1="134.5" x2="880" y2="134.5" stroke="#21262d" stroke-width="1"/>
  <text x="47" y="138.5" fill="#8b949e" font-size="11" text-anchor="end" font-family="-apple-system,BlinkMacSystemFont,Segoe UI,Helvetica,Arial,sans-serif">90</text>
  <line x1="55" y1="111.7" x2="880" y2="111.7" stroke="#21262d" stroke-width="1"/>
  <text x="47" y="115.7" fill="#8b949e" font-size="11" text-anchor="end" font-family="-apple-system,BlinkMacSystemFont,Segoe UI,Helvetica,Arial,sans-serif">100</text>
  <line x1="55" y1="88.8" x2="880" y2="88.8" stroke="#21262d" stroke-width="1"/>
  <text x="47" y="92.8" fill="#8b949e" font-size="11" text-anchor="end" font-family="-apple-system,BlinkMacSystemFont,Segoe UI,Helvetica,Arial,sans-serif">110</text>
  <line x1="55" y1="66.0" x2="880" y2="66.0" stroke="#21262d" stroke-width="1"/>
  <text x="47" y="70.0" fill="#8b949e" font-size="11" text-anchor="end" font-family="-apple-system,BlinkMacSystemFont,Segoe UI,Helvetica,Arial,sans-serif">120</text>
  <line x1="55.0" y1="50" x2="55.0" y2="340" stroke="#21262d" stroke-width="1" stroke-dasharray="4,4"/>
  <text x="55.0" y="360" fill="#8b949e" font-size="10" text-anchor="middle" font-family="-apple-system,BlinkMacSystemFont,Segoe UI,Helvetica,Arial,sans-serif">May 02</text>
  <line x1="168.8" y1="50" x2="168.8" y2="340" stroke="#21262d" stroke-width="1" stroke-dasharray="4,4"/>
  <text x="168.8" y="360" fill="#8b949e" font-size="10" text-anchor="middle" font-family="-apple-system,BlinkMacSystemFont,Segoe UI,Helvetica,Arial,sans-serif">May 06</text>
  <line x1="282.6" y1="50" x2="282.6" y2="340" stroke="#21262d" stroke-width="1" stroke-dasharray="4,4"/>
  <text x="282.6" y="360" fill="#8b949e" font-size="10" text-anchor="middle" font-family="-apple-system,BlinkMacSystemFont,Segoe UI,Helvetica,Arial,sans-serif">May 10</text>
  <line x1="396.4" y1="50" x2="396.4" y2="340" stroke="#21262d" stroke-width="1" stroke-dasharray="4,4"/>
  <text x="396.4" y="360" fill="#8b949e" font-size="10" text-anchor="middle" font-family="-apple-system,BlinkMacSystemFont,Segoe UI,Helvetica,Arial,sans-serif">May 14</text>
  <line x1="510.2" y1="50" x2="510.2" y2="340" stroke="#21262d" stroke-width="1" stroke-dasharray="4,4"/>
  <text x="510.2" y="360" fill="#8b949e" font-size="10" text-anchor="middle" font-family="-apple-system,BlinkMacSystemFont,Segoe UI,Helvetica,Arial,sans-serif">May 18</text>
  <line x1="624.0" y1="50" x2="624.0" y2="340" stroke="#21262d" stroke-width="1" stroke-dasharray="4,4"/>
  <text x="624.0" y="360" fill="#8b949e" font-size="10" text-anchor="middle" font-family="-apple-system,BlinkMacSystemFont,Segoe UI,Helvetica,Arial,sans-serif">May 22</text>
  <line x1="737.8" y1="50" x2="737.8" y2="340" stroke="#21262d" stroke-width="1" stroke-dasharray="4,4"/>
  <text x="737.8" y="360" fill="#8b949e" font-size="10" text-anchor="middle" font-family="-apple-system,BlinkMacSystemFont,Segoe UI,Helvetica,Arial,sans-serif">May 26</text>
  <line x1="851.6" y1="50" x2="851.6" y2="340" stroke="#21262d" stroke-width="1" stroke-dasharray="4,4"/>
  <text x="851.6" y="360" fill="#8b949e" font-size="10" text-anchor="middle" font-family="-apple-system,BlinkMacSystemFont,Segoe UI,Helvetica,Arial,sans-serif">May 30</text>
  <line x1="880.0" y1="50" x2="880.0" y2="340" stroke="#21262d" stroke-width="1" stroke-dasharray="4,4"/>
  <text x="880.0" y="360" fill="#8b949e" font-size="10" text-anchor="middle" font-family="-apple-system,BlinkMacSystemFont,Segoe UI,Helvetica,Arial,sans-serif">May 31</text>
  <path d="M55.0,340.0L83.4,285.2L111.9,269.2L140.3,260.1L168.8,246.4L197.2,237.2L225.7,230.4L254.1,230.4L282.6,230.4L311.0,230.4L339.5,230.4L367.9,230.4L396.4,230.4L424.8,230.4L453.3,228.1L481.7,219.0L510.2,209.8L538.6,198.4L567.1,184.7L595.5,171.0L624.0,157.3L652.4,145.9L680.9,136.8L709.3,132.2L737.8,125.4L766.2,100.2L794.7,98.0L823.1,84.3L851.6,68.3L880.0,61.4L880.0,340.0L55.0,340.0Z" fill="url(#gO)"/>
  <path d="M55.0,337.7L83.4,319.4L111.9,308.0L140.3,303.5L168.8,292.0L197.2,282.9L225.7,278.3L254.1,278.3L282.6,278.3L311.0,278.3L339.5,278.3L367.9,278.3L396.4,278.3L424.8,278.3L453.3,276.1L481.7,257.8L510.2,255.5L538.6,255.5L567.1,255.5L595.5,255.5L624.0,255.5L652.4,255.5L680.9,244.1L709.3,228.1L737.8,214.4L766.2,212.1L794.7,212.1L823.1,212.1L851.6,212.1L880.0,212.1L880.0,340.0L55.0,340.0Z" fill="url(#gR)"/>
  <path d="M55.0,340.0L83.4,285.2L111.9,269.2L140.3,260.1L168.8,246.4L197.2,237.2L225.7,230.4L254.1,230.4L282.6,230.4L311.0,230.4L339.5,230.4L367.9,230.4L396.4,230.4L424.8,230.4L453.3,228.1L481.7,219.0L510.2,209.8L538.6,198.4L567.1,184.7L595.5,171.0L624.0,157.3L652.4,145.9L680.9,136.8L709.3,132.2L737.8,125.4L766.2,100.2L794.7,98.0L823.1,84.3L851.6,68.3L880.0,61.4" fill="none" stroke="#58a6ff" stroke-width="2.5" stroke-linecap="round" stroke-linejoin="round"/>
  <path d="M55.0,337.7L83.4,319.4L111.9,308.0L140.3,303.5L168.8,292.0L197.2,282.9L225.7,278.3L254.1,278.3L282.6,278.3L311.0,278.3L339.5,278.3L367.9,278.3L396.4,278.3L424.8,278.3L453.3,276.1L481.7,257.8L510.2,255.5L538.6,255.5L567.1,255.5L595.5,255.5L624.0,255.5L652.4,255.5L680.9,244.1L709.3,228.1L737.8,214.4L766.2,212.1L794.7,212.1L823.1,212.1L851.6,212.1L880.0,212.1" fill="none" stroke="#3fb950" stroke-width="2.5" stroke-linecap="round" stroke-linejoin="round"/>
  <path d="M55.0,340.0L83.4,308.0L111.9,301.2L140.3,296.6L168.8,285.2L197.2,287.5L225.7,280.6L254.1,282.9L282.6,282.9L311.0,285.2L339.5,285.2L367.9,285.2L396.4,285.2L424.8,285.2L453.3,282.9L481.7,282.9L510.2,280.6L538.6,273.8L567.1,260.1L595.5,250.9L624.0,241.8L652.4,235.0L680.9,235.0L709.3,237.2L737.8,241.8L766.2,232.7L794.7,230.4L823.1,228.1L851.6,223.5L880.0,221.3" fill="none" stroke="#d2a8ff" stroke-width="2.5" stroke-linecap="round" stroke-linejoin="round"/>
  <path d="M55.0,340.0L83.4,340.0L111.9,333.1L140.3,330.9L168.8,330.9L197.2,328.6L225.7,328.6L254.1,326.3L282.6,326.3L311.0,326.3L339.5,326.3L367.9,326.3L396.4,326.3L424.8,326.3L453.3,326.3L481.7,324.0L510.2,319.4L538.6,317.2L567.1,317.2L595.5,317.2L624.0,312.6L652.4,312.6L680.9,312.6L709.3,310.3L737.8,310.3L766.2,296.6L794.7,296.6L823.1,287.5L851.6,278.3L880.0,276.1" fill="none" stroke="#f78166" stroke-width="2.5" stroke-linecap="round" stroke-linejoin="round"/>
  <path d="M55.0,340.0L83.4,317.2L111.9,314.9L140.3,312.6L168.8,310.3L197.2,301.2L225.7,301.2L254.1,301.2L282.6,301.2L311.0,298.9L339.5,298.9L367.9,298.9L396.4,298.9L424.8,298.9L453.3,298.9L481.7,292.0L510.2,289.8L538.6,287.5L567.1,287.5L595.5,282.9L624.0,282.9L652.4,278.3L680.9,269.2L709.3,264.6L737.8,253.2L766.2,250.9L794.7,250.9L823.1,248.7L851.6,246.4L880.0,244.1" fill="none" stroke="#f85149" stroke-width="2.5" stroke-linecap="round" stroke-linejoin="round"/>
  <circle cx="880.0" cy="61.4" r="3.5" fill="#58a6ff"/>
  <text x="889.0" y="65.4" fill="#58a6ff" font-size="11" font-weight="600" font-family="-apple-system,BlinkMacSystemFont,Segoe UI,Helvetica,Arial,sans-serif">122</text>
  <circle cx="880.0" cy="212.1" r="3.5" fill="#3fb950"/>
  <text x="889.0" y="216.1" fill="#3fb950" font-size="11" font-weight="600" font-family="-apple-system,BlinkMacSystemFont,Segoe UI,Helvetica,Arial,sans-serif">56</text>
  <circle cx="880.0" cy="221.3" r="3.5" fill="#d2a8ff"/>
  <text x="889.0" y="225.3" fill="#d2a8ff" font-size="11" font-weight="600" font-family="-apple-system,BlinkMacSystemFont,Segoe UI,Helvetica,Arial,sans-serif">52</text>
  <circle cx="880.0" cy="276.1" r="3.5" fill="#f78166"/>
  <text x="889.0" y="280.1" fill="#f78166" font-size="11" font-weight="600" font-family="-apple-system,BlinkMacSystemFont,Segoe UI,Helvetica,Arial,sans-serif">28</text>
  <circle cx="880.0" cy="244.1" r="3.5" fill="#f85149"/>
  <text x="889.0" y="248.1" fill="#f85149" font-size="11" font-weight="600" font-family="-apple-system,BlinkMacSystemFont,Segoe UI,Helvetica,Arial,sans-serif">42</text>
  <line x1="55" y1="368" x2="71" y2="368" stroke="#3fb950" stroke-width="2.5" stroke-linecap="round"/>
  <text x="77" y="372" fill="#8b949e" font-size="11" font-family="-apple-system,BlinkMacSystemFont,Segoe UI,Helvetica,Arial,sans-serif">Repos</text>
  <line x1="255" y1="368" x2="271" y2="368" stroke="#58a6ff" stroke-width="2.5" stroke-linecap="round"/>
  <text x="277" y="372" fill="#8b949e" font-size="11" font-family="-apple-system,BlinkMacSystemFont,Segoe UI,Helvetica,Arial,sans-serif">PRs Opened</text>
  <line x1="455" y1="368" x2="471" y2="368" stroke="#d2a8ff" stroke-width="2.5" stroke-linecap="round"/>
  <text x="477" y="372" fill="#8b949e" font-size="11" font-family="-apple-system,BlinkMacSystemFont,Segoe UI,Helvetica,Arial,sans-serif">Open PRs</text>
  <line x1="55" y1="386" x2="71" y2="386" stroke="#f78166" stroke-width="2.5" stroke-linecap="round"/>
  <text x="77" y="390" fill="#8b949e" font-size="11" font-family="-apple-system,BlinkMacSystemFont,Segoe UI,Helvetica,Arial,sans-serif">Merged</text>
  <line x1="255" y1="386" x2="271" y2="386" stroke="#f85149" stroke-width="2.5" stroke-linecap="round"/>
  <text x="277" y="390" fill="#8b949e" font-size="11" font-family="-apple-system,BlinkMacSystemFont,Segoe UI,Helvetica,Arial,sans-serif">Closed</text>
</svg>