<svg xmlns="http://www.w3.org/2000/svg" viewBox="0 0 960 400" width="960" height="400">
  <defs>
    <linearGradient id="gR" x1="0" y1="0" x2="0" y2="1">
      <stop offset="0%" stop-color="#f78166" stop-opacity="0.25"/>
      <stop offset="100%" stop-color="#f78166" stop-opacity="0.02"/>
    </linearGradient>
    <linearGradient id="gO" x1="0" y1="0" x2="0" y2="1">
      <stop offset="0%" stop-color="#58a6ff" stop-opacity="0.25"/>
      <stop offset="100%" stop-color="#58a6ff" stop-opacity="0.02"/>
    </linearGradient>
    <linearGradient id="gOp" x1="0" y1="0" x2="0" y2="1">
      <stop offset="0%" stop-color="#3fb950" stop-opacity="0.25"/>
      <stop offset="100%" stop-color="#3fb950" stop-opacity="0.02"/>
    </linearGradient>
    <linearGradient id="gM" x1="0" y1="0" x2="0" y2="1">
      <stop offset="0%" stop-color="#d2a8ff" stop-opacity="0.25"/>
      <stop offset="100%" stop-color="#d2a8ff" stop-opacity="0.02"/>
    </linearGradient>
    <linearGradient id="gC" x1="0" y1="0" x2="0" y2="1">
      <stop offset="0%" stop-color="#f85149" stop-opacity="0.25"/>
      <stop offset="100%" stop-color="#f85149" stop-opacity="0.02"/>
    </linearGradient>
  </defs>
  <rect width="960" height="400" rx="12" fill="#0d1117"/>
  <rect width="960" height="400" rx="12" fill="none" stroke="#30363d" stroke-width="1"/>
  <text x="55" y="30" fill="#e6edf3" font-size="15" font-weight="600" font-family="-apple-system,BlinkMacSystemFont,Segoe UI,Helvetica,Arial,sans-serif">GitHub Activity — jlaportebot</text>
  <text x="880" y="30" fill="#8b949e" font-size="11" text-anchor="end" font-family="-apple-system,BlinkMacSystemFont,Segoe UI,Helvetica,Arial,sans-serif">Updated Jul 08, 2026</text>
  <line x1="55" y1="340.0" x2="880" y2="340.0" stroke="#21262d" stroke-width="1"/>
  <text x="47" y="344.0" fill="#8b949e" font-size="11" text-anchor="end" font-family="-apple-system,BlinkMacSystemFont,Segoe UI,Helvetica,Arial,sans-serif">0</text>
  <line x1="55" y1="329.3" x2="880" y2="329.3" stroke="#21262d" stroke-width="1"/>
  <text x="47" y="333.3" fill="#8b949e" font-size="11" text-anchor="end" font-family="-apple-system,BlinkMacSystemFont,Segoe UI,Helvetica,Arial,sans-serif">10</text>
  <line x1="55" y1="318.5" x2="880" y2="318.5" stroke="#21262d" stroke-width="1"/>
  <text x="47" y="322.5" fill="#8b949e" font-size="11" text-anchor="end" font-family="-apple-system,BlinkMacSystemFont,Segoe UI,Helvetica,Arial,sans-serif">20</text>
  <line x1="55" y1="307.8" x2="880" y2="307.8" stroke="#21262d" stroke-width="1"/>
  <text x="47" y="311.8" fill="#8b949e" font-size="11" text-anchor="end" font-family="-apple-system,BlinkMacSystemFont,Segoe UI,Helvetica,Arial,sans-serif">30</text>
  <line x1="55" y1="297.0" x2="880" y2="297.0" stroke="#21262d" stroke-width="1"/>
  <text x="47" y="301.0" fill="#8b949e" font-size="11" text-anchor="end" font-family="-apple-system,BlinkMacSystemFont,Segoe UI,Helvetica,Arial,sans-serif">40</text>
  <line x1="55" y1="286.3" x2="880" y2="286.3" stroke="#21262d" stroke-width="1"/>
  <text x="47" y="290.3" fill="#8b949e" font-size="11" text-anchor="end" font-family="-apple-system,BlinkMacSystemFont,Segoe UI,Helvetica,Arial,sans-serif">50</text>
  <line x1="55" y1="275.6" x2="880" y2="275.6" stroke="#21262d" stroke-width="1"/>
  <text x="47" y="279.6" fill="#8b949e" font-size="11" text-anchor="end" font-family="-apple-system,BlinkMacSystemFont,Segoe UI,Helvetica,Arial,sans-serif">60</text>
  <line x1="55" y1="264.8" x2="880" y2="264.8" stroke="#21262d" stroke-width="1"/>
  <text x="47" y="268.8" fill="#8b949e" font-size="11" text-anchor="end" font-family="-apple-system,BlinkMacSystemFont,Segoe UI,Helvetica,Arial,sans-serif">70</text>
  <line x1="55" y1="254.1" x2="880" y2="254.1" stroke="#21262d" stroke-width="1"/>
  <text x="47" y="258.1" fill="#8b949e" font-size="11" text-anchor="end" font-family="-apple-system,BlinkMacSystemFont,Segoe UI,Helvetica,Arial,sans-serif">80</text>
  <line x1="55" y1="243.3" x2="880" y2="243.3" stroke="#21262d" stroke-width="1"/>
  <text x="47" y="247.3" fill="#8b949e" font-size="11" text-anchor="end" font-family="-apple-system,BlinkMacSystemFont,Segoe UI,Helvetica,Arial,sans-serif">90</text>
  <line x1="55" y1="232.6" x2="880" y2="232.6" stroke="#21262d" stroke-width="1"/>
  <text x="47" y="236.6" fill="#8b949e" font-size="11" text-anchor="end" font-family="-apple-system,BlinkMacSystemFont,Segoe UI,Helvetica,Arial,sans-serif">100</text>
  <line x1="55" y1="221.9" x2="880" y2="221.9" stroke="#21262d" stroke-width="1"/>
  <text x="47" y="225.9" fill="#8b949e" font-size="11" text-anchor="end" font-family="-apple-system,BlinkMacSystemFont,Segoe UI,Helvetica,Arial,sans-serif">110</text>
  <line x1="55" y1="211.1" x2="880" y2="211.1" stroke="#21262d" stroke-width="1"/>
  <text x="47" y="215.1" fill="#8b949e" font-size="11" text-anchor="end" font-family="-apple-system,BlinkMacSystemFont,Segoe UI,Helvetica,Arial,sans-serif">120</text>
  <line x1="55" y1="200.4" x2="880" y2="200.4" stroke="#21262d" stroke-width="1"/>
  <text x="47" y="204.4" fill="#8b949e" font-size="11" text-anchor="end" font-family="-apple-system,BlinkMacSystemFont,Segoe UI,Helvetica,Arial,sans-serif">130</text>
  <line x1="55" y1="189.6" x2="880" y2="189.6" stroke="#21262d" stroke-width="1"/>
  <text x="47" y="193.6" fill="#8b949e" font-size="11" text-anchor="end" font-family="-apple-system,BlinkMacSystemFont,Segoe UI,Helvetica,Arial,sans-serif">140</text>
  <line x1="55" y1="178.9" x2="880" y2="178.9" stroke="#21262d" stroke-width="1"/>
  <text x="47" y="182.9" fill="#8b949e" font-size="11" text-anchor="end" font-family="-apple-system,BlinkMacSystemFont,Segoe UI,Helvetica,Arial,sans-serif">150</text>
  <line x1="55" y1="168.1" x2="880" y2="168.1" stroke="#21262d" stroke-width="1"/>
  <text x="47" y="172.1" fill="#8b949e" font-size="11" text-anchor="end" font-family="-apple-system,BlinkMacSystemFont,Segoe UI,Helvetica,Arial,sans-serif">160</text>
  <line x1="55" y1="157.4" x2="880" y2="157.4" stroke="#21262d" stroke-width="1"/>
  <text x="47" y="161.4" fill="#8b949e" font-size="11" text-anchor="end" font-family="-apple-system,BlinkMacSystemFont,Segoe UI,Helvetica,Arial,sans-serif">170</text>
  <line x1="55" y1="146.7" x2="880" y2="146.7" stroke="#21262d" stroke-width="1"/>
  <text x="47" y="150.7" fill="#8b949e" font-size="11" text-anchor="end" font-family="-apple-system,BlinkMacSystemFont,Segoe UI,Helvetica,Arial,sans-serif">180</text>
  <line x1="55" y1="135.9" x2="880" y2="135.9" stroke="#21262d" stroke-width="1"/>
  <text x="47" y="139.9" fill="#8b949e" font-size="11" text-anchor="end" font-family="-apple-system,BlinkMacSystemFont,Segoe UI,Helvetica,Arial,sans-serif">190</text>
  <line x1="55" y1="125.2" x2="880" y2="125.2" stroke="#21262d" stroke-width="1"/>
  <text x="47" y="129.2" fill="#8b949e" font-size="11" text-anchor="end" font-family="-apple-system,BlinkMacSystemFont,Segoe UI,Helvetica,Arial,sans-serif">200</text>
  <line x1="55" y1="114.4" x2="880" y2="114.4" stroke="#21262d" stroke-width="1"/>
  <text x="47" y="118.4" fill="#8b949e" font-size="11" text-anchor="end" font-family="-apple-system,BlinkMacSystemFont,Segoe UI,Helvetica,Arial,sans-serif">210</text>
  <line x1="55" y1="103.7" x2="880" y2="103.7" stroke="#21262d" stroke-width="1"/>
  <text x="47" y="107.7" fill="#8b949e" font-size="11" text-anchor="end" font-family="-apple-system,BlinkMacSystemFont,Segoe UI,Helvetica,Arial,sans-serif">220</text>
  <line x1="55" y1="93.0" x2="880" y2="93.0" stroke="#21262d" stroke-width="1"/>
  <text x="47" y="97.0" fill="#8b949e" font-size="11" text-anchor="end" font-family="-apple-system,BlinkMacSystemFont,Segoe UI,Helvetica,Arial,sans-serif">230</text>
  <line x1="55" y1="82.2" x2="880" y2="82.2" stroke="#21262d" stroke-width="1"/>
  <text x="47" y="86.2" fill="#8b949e" font-size="11" text-anchor="end" font-family="-apple-system,BlinkMacSystemFont,Segoe UI,Helvetica,Arial,sans-serif">240</text>
  <line x1="55" y1="71.5" x2="880" y2="71.5" stroke="#21262d" stroke-width="1"/>
  <text x="47" y="75.5" fill="#8b949e" font-size="11" text-anchor="end" font-family="-apple-system,BlinkMacSystemFont,Segoe UI,Helvetica,Arial,sans-serif">250</text>
  <line x1="55" y1="60.7" x2="880" y2="60.7" stroke="#21262d" stroke-width="1"/>
  <text x="47" y="64.7" fill="#8b949e" font-size="11" text-anchor="end" font-family="-apple-system,BlinkMacSystemFont,Segoe UI,Helvetica,Arial,sans-serif">260</text>
  <line x1="55" y1="50.0" x2="880" y2="50.0" stroke="#21262d" stroke-width="1"/>
  <text x="47" y="54.0" fill="#8b949e" font-size="11" text-anchor="end" font-family="-apple-system,BlinkMacSystemFont,Segoe UI,Helvetica,Arial,sans-serif">270</text>
  <line x1="55.0" y1="50" x2="55.0" y2="340" stroke="#21262d" stroke-width="1" stroke-dasharray="4,4"/>
  <text x="55.0" y="360" fill="#8b949e" font-size="10" text-anchor="middle" font-family="-apple-system,BlinkMacSystemFont,Segoe UI,Helvetica,Arial,sans-serif">May 02</text>
  <line x1="165.8" y1="50" x2="165.8" y2="340" stroke="#21262d" stroke-width="1" stroke-dasharray="4,4"/>
  <text x="165.8" y="360" fill="#8b949e" font-size="10" text-anchor="middle" font-family="-apple-system,BlinkMacSystemFont,Segoe UI,Helvetica,Arial,sans-serif">May 11</text>
  <line x1="276.6" y1="50" x2="276.6" y2="340" stroke="#21262d" stroke-width="1" stroke-dasharray="4,4"/>
  <text x="276.6" y="360" fill="#8b949e" font-size="10" text-anchor="middle" font-family="-apple-system,BlinkMacSystemFont,Segoe UI,Helvetica,Arial,sans-serif">May 20</text>
  <line x1="387.5" y1="50" x2="387.5" y2="340" stroke="#21262d" stroke-width="1" stroke-dasharray="4,4"/>
  <text x="387.5" y="360" fill="#8b949e" font-size="10" text-anchor="middle" font-family="-apple-system,BlinkMacSystemFont,Segoe UI,Helvetica,Arial,sans-serif">May 29</text>
  <line x1="498.3" y1="50" x2="498.3" y2="340" stroke="#21262d" stroke-width="1" stroke-dasharray="4,4"/>
  <text x="498.3" y="360" fill="#8b949e" font-size="10" text-anchor="middle" font-family="-apple-system,BlinkMacSystemFont,Segoe UI,Helvetica,Arial,sans-serif">Jun 07</text>
  <line x1="609.1" y1="50" x2="609.1" y2="340" stroke="#21262d" stroke-width="1" stroke-dasharray="4,4"/>
  <text x="609.1" y="360" fill="#8b949e" font-size="10" text-anchor="middle" font-family="-apple-system,BlinkMacSystemFont,Segoe UI,Helvetica,Arial,sans-serif">Jun 16</text>
  <line x1="719.9" y1="50" x2="719.9" y2="340" stroke="#21262d" stroke-width="1" stroke-dasharray="4,4"/>
  <text x="719.9" y="360" fill="#8b949e" font-size="10" text-anchor="middle" font-family="-apple-system,BlinkMacSystemFont,Segoe UI,Helvetica,Arial,sans-serif">Jun 25</text>
  <line x1="830.7" y1="50" x2="830.7" y2="340" stroke="#21262d" stroke-width="1" stroke-dasharray="4,4"/>
  <text x="830.7" y="360" fill="#8b949e" font-size="10" text-anchor="middle" font-family="-apple-system,BlinkMacSystemFont,Segoe UI,Helvetica,Arial,sans-serif">Jul 04</text>
  <line x1="880.0" y1="50" x2="880.0" y2="340" stroke="#21262d" stroke-width="1" stroke-dasharray="4,4"/>
  <text x="880.0" y="360" fill="#8b949e" font-size="10" text-anchor="middle" font-family="-apple-system,BlinkMacSystemFont,Segoe UI,Helvetica,Arial,sans-serif">Jul 08</text>
  <path d="M55.0,340.0L67.3,327.1L79.6,319.6L91.9,315.3L104.3,308.9L116.6,304.6L128.9,301.3L141.2,301.3L153.5,301.3L165.8,301.3L178.1,301.3L190.4,301.3L202.8,301.3L215.1,301.3L227.4,300.3L239.7,296.0L252.0,291.7L264.3,286.3L276.6,279.9L289.0,273.4L301.3,267.0L313.6,261.6L325.9,257.3L338.2,255.1L350.5,251.9L362.8,240.1L375.1,239.0L387.5,233.7L399.8,226.1L412.1,220.8L424.4,216.5L436.7,216.5L449.0,216.5L461.3,216.5L473.7,216.5L486.0,216.5L498.3,210.0L510.6,201.4L522.9,198.2L535.2,191.8L547.5,187.5L559.9,181.0L572.2,171.4L584.5,166.0L596.8,160.6L609.1,155.3L621.4,145.6L633.7,139.1L646.0,130.6L658.4,124.1L670.7,118.7L683.0,114.4L695.3,108.0L707.6,100.5L719.9,96.2L732.2,93.0L744.6,85.4L756.9,79.0L769.2,70.4L781.5,70.4L793.8,68.3L806.1,68.3L818.4,68.3L830.7,66.1L843.1,62.9L855.4,59.7L867.7,58.6L880.0,55.4L880.0,340.0L55.0,340.0Z" fill="url(#gO)"/>
  <path d="M55.0,338.9L67.3,338.9L79.6,338.9L91.9,338.9L104.3,338.9L116.6,338.9L128.9,338.9L141.2,338.9L153.5,338.9L165.8,338.9L178.1,338.9L190.4,338.9L202.8,338.9L215.1,338.9L227.4,338.9L239.7,335.7L252.0,335.7L264.3,335.7L276.6,335.7L289.0,335.7L301.3,335.7L313.6,335.7L325.9,334.6L338.2,331.4L350.5,331.4L362.8,330.3L375.1,330.3L387.5,330.3L399.8,330.3L412.1,330.3L424.4,328.2L436.7,328.2L449.0,328.2L461.3,328.2L473.7,328.2L486.0,328.2L498.3,328.2L510.6,326.0L522.9,313.1L535.2,313.1L547.5,313.1L559.9,313.1L572.2,304.6L584.5,304.6L596.8,304.6L609.1,304.6L621.4,304.6L633.7,302.4L646.0,302.4L658.4,301.3L670.7,300.3L683.0,299.2L695.3,298.1L707.6,296.0L719.9,291.7L732.2,290.6L744.6,289.5L756.9,289.5L769.2,289.5L781.5,289.5L793.8,289.5L806.1,289.5L818.4,289.5L830.7,289.5L843.1,289.5L855.4,289.5L867.7,289.5L880.0,289.5L880.0,340.0L55.0,340.0Z" fill="url(#gR)"/>
  <path d="M55.0,340.0L67.3,327.1L79.6,319.6L91.9,315.3L104.3,308.9L116.6,304.6L128.9,301.3L141.2,301.3L153.5,301.3L165.8,301.3L178.1,301.3L190.4,301.3L202.8,301.3L215.1,301.3L227.4,300.3L239.7,296.0L252.0,291.7L264.3,286.3L276.6,279.9L289.0,273.4L301.3,267.0L313.6,261.6L325.9,257.3L338.2,255.1L350.5,251.9L362.8,240.1L375.1,239.0L387.5,233.7L399.8,226.1L412.1,220.8L424.4,216.5L436.7,216.5L449.0,216.5L461.3,216.5L473.7,216.5L486.0,216.5L498.3,210.0L510.6,201.4L522.9,198.2L535.2,191.8L547.5,187.5L559.9,181.0L572.2,171.4L584.5,166.0L596.8,160.6L609.1,155.3L621.4,145.6L633.7,139.1L646.0,130.6L658.4,124.1L670.7,118.7L683.0,114.4L695.3,108.0L707.6,100.5L719.9,96.2L732.2,93.0L744.6,85.4L756.9,79.0L769.2,70.4L781.5,70.4L793.8,68.3L806.1,68.3L818.4,68.3L830.7,66.1L843.1,62.9L855.4,59.7L867.7,58.6L880.0,55.4" fill="none" stroke="#58a6ff" stroke-width="2.5" stroke-linecap="round" stroke-linejoin="round"/>
  <path d="M55.0,338.9L67.3,338.9L79.6,338.9L91.9,338.9L104.3,338.9L116.6,338.9L128.9,338.9L141.2,338.9L153.5,338.9L165.8,338.9L178.1,338.9L190.4,338.9L202.8,338.9L215.1,338.9L227.4,338.9L239.7,335.7L252.0,335.7L264.3,335.7L276.6,335.7L289.0,335.7L301.3,335.7L313.6,335.7L325.9,334.6L338.2,331.4L350.5,331.4L362.8,330.3L375.1,330.3L387.5,330.3L399.8,330.3L412.1,330.3L424.4,328.2L436.7,328.2L449.0,328.2L461.3,328.2L473.7,328.2L486.0,328.2L498.3,328.2L510.6,326.0L522.9,313.1L535.2,313.1L547.5,313.1L559.9,313.1L572.2,304.6L584.5,304.6L596.8,304.6L609.1,304.6L621.4,304.6L633.7,302.4L646.0,302.4L658.4,301.3L670.7,300.3L683.0,299.2L695.3,298.1L707.6,296.0L719.9,291.7L732.2,290.6L744.6,289.5L756.9,289.5L769.2,289.5L781.5,289.5L793.8,289.5L806.1,289.5L818.4,289.5L830.7,289.5L843.1,289.5L855.4,289.5L867.7,289.5L880.0,289.5" fill="none" stroke="#f78166" stroke-width="2.5" stroke-linecap="round" stroke-linejoin="round"/>
  <path d="M55.0,340.0L67.3,332.5L79.6,327.1L91.9,325.0L104.3,319.6L116.6,320.7L128.9,317.4L141.2,318.5L153.5,318.5L165.8,319.6L178.1,319.6L190.4,319.6L202.8,319.6L215.1,319.6L227.4,318.5L239.7,317.4L252.0,316.4L264.3,313.1L276.6,306.7L289.0,302.4L301.3,298.1L313.6,294.9L325.9,294.9L338.2,296.0L350.5,298.1L362.8,293.8L375.1,292.7L387.5,292.7L399.8,289.5L412.1,294.9L424.4,291.7L436.7,291.7L449.0,291.7L461.3,291.7L473.7,298.1L486.0,298.1L498.3,297.0L510.6,302.4L522.9,340.0L535.2,340.0L547.5,340.0L559.9,340.0L572.2,335.7L584.5,335.7L596.8,333.6L609.1,333.6L621.4,332.5L633.7,329.3L646.0,330.3L658.4,328.2L670.7,328.2L683.0,330.3L695.3,329.3L707.6,330.3L719.9,327.1L732.2,328.2L744.6,328.2L756.9,322.8L769.2,319.6L781.5,319.6L793.8,320.7L806.1,323.9L818.4,323.9L830.7,322.8L843.1,321.7L855.4,321.7L867.7,320.7L880.0,318.5" fill="none" stroke="#3fb950" stroke-width="2.5" stroke-linecap="round" stroke-linejoin="round"/>
  <path d="M55.0,340.0L67.3,340.0L79.6,338.9L91.9,337.9L104.3,337.9L116.6,336.8L128.9,336.8L141.2,335.7L153.5,335.7L165.8,335.7L178.1,335.7L190.4,335.7L202.8,335.7L215.1,335.7L227.4,335.7L239.7,334.6L252.0,332.5L264.3,331.4L276.6,331.4L289.0,331.4L301.3,329.3L313.6,329.3L325.9,329.3L338.2,328.2L350.5,328.2L362.8,321.7L375.1,321.7L387.5,317.4L399.8,314.2L412.1,309.9L424.4,308.9L436.7,308.9L449.0,308.9L461.3,308.9L473.7,306.7L486.0,306.7L498.3,304.6L510.6,301.3L522.9,299.2L535.2,292.7L547.5,288.4L559.9,282.0L572.2,278.8L584.5,274.5L596.8,272.3L609.1,267.0L621.4,258.4L633.7,255.1L646.0,248.7L658.4,245.5L670.7,240.1L683.0,233.7L695.3,228.3L707.6,219.7L719.9,218.6L732.2,216.5L744.6,211.1L756.9,211.1L769.2,205.7L781.5,205.7L793.8,203.6L806.1,203.6L818.4,203.6L830.7,203.6L843.1,202.5L855.4,200.4L867.7,200.4L880.0,199.3" fill="none" stroke="#d2a8ff" stroke-width="2.5" stroke-linecap="round" stroke-linejoin="round"/>
  <path d="M55.0,340.0L67.3,334.6L79.6,333.6L91.9,332.5L104.3,331.4L116.6,327.1L128.9,327.1L141.2,327.1L153.5,327.1L165.8,326.0L178.1,326.0L190.4,326.0L202.8,326.0L215.1,326.0L227.4,326.0L239.7,323.9L252.0,322.8L264.3,321.7L276.6,321.7L289.0,319.6L301.3,319.6L313.6,317.4L325.9,313.1L338.2,311.0L350.5,305.6L362.8,304.6L375.1,304.6L387.5,303.5L399.8,302.4L412.1,296.0L424.4,296.0L436.7,296.0L449.0,296.0L461.3,296.0L473.7,291.7L486.0,291.7L498.3,288.4L510.6,277.7L522.9,239.0L535.2,239.0L547.5,239.0L559.9,239.0L572.2,236.9L584.5,235.8L596.8,234.7L609.1,234.7L621.4,234.7L633.7,234.7L646.0,231.5L658.4,230.4L670.7,230.4L683.0,230.4L695.3,230.4L707.6,230.4L719.9,230.4L732.2,228.3L744.6,226.1L756.9,225.1L769.2,225.1L781.5,225.1L793.8,224.0L806.1,220.8L818.4,220.8L830.7,219.7L843.1,218.6L855.4,217.6L867.7,217.6L880.0,217.6" fill="none" stroke="#f85149" stroke-width="2.5" stroke-linecap="round" stroke-linejoin="round"/>
  <circle cx="880.0" cy="55.4" r="3.5" fill="#58a6ff"/>
  <text x="889.0" y="59.4" fill="#58a6ff" font-size="11" font-weight="600" font-family="-apple-system,BlinkMacSystemFont,Segoe UI,Helvetica,Arial,sans-serif">265</text>
  <circle cx="880.0" cy="289.5" r="3.5" fill="#f78166"/>
  <text x="889.0" y="293.5" fill="#f78166" font-size="11" font-weight="600" font-family="-apple-system,BlinkMacSystemFont,Segoe UI,Helvetica,Arial,sans-serif">47</text>
  <circle cx="880.0" cy="318.5" r="3.5" fill="#3fb950"/>
  <text x="889.0" y="322.5" fill="#3fb950" font-size="11" font-weight="600" font-family="-apple-system,BlinkMacSystemFont,Segoe UI,Helvetica,Arial,sans-serif">20</text>
  <circle cx="880.0" cy="199.3" r="3.5" fill="#d2a8ff"/>
  <text x="889.0" y="203.3" fill="#d2a8ff" font-size="11" font-weight="600" font-family="-apple-system,BlinkMacSystemFont,Segoe UI,Helvetica,Arial,sans-serif">131</text>
  <circle cx="880.0" cy="217.6" r="3.5" fill="#f85149"/>
  <text x="889.0" y="221.6" fill="#f85149" font-size="11" font-weight="600" font-family="-apple-system,BlinkMacSystemFont,Segoe UI,Helvetica,Arial,sans-serif">114</text>
  <line x1="55" y1="368" x2="71" y2="368" stroke="#f78166" stroke-width="2.5" stroke-linecap="round"/>
  <text x="77" y="372" fill="#8b949e" font-size="11" font-family="-apple-system,BlinkMacSystemFont,Segoe UI,Helvetica,Arial,sans-serif">Repos</text>
  <line x1="255" y1="368" x2="271" y2="368" stroke="#58a6ff" stroke-width="2.5" stroke-linecap="round"/>
  <text x="277" y="372" fill="#8b949e" font-size="11" font-family="-apple-system,BlinkMacSystemFont,Segoe UI,Helvetica,Arial,sans-serif">PRs Opened</text>
  <line x1="455" y1="368" x2="471" y2="368" stroke="#3fb950" stroke-width="2.5" stroke-linecap="round"/>
  <text x="477" y="372" fill="#8b949e" font-size="11" font-family="-apple-system,BlinkMacSystemFont,Segoe UI,Helvetica,Arial,sans-serif">Open PRs</text>
  <line x1="55" y1="386" x2="71" y2="386" stroke="#d2a8ff" stroke-width="2.5" stroke-linecap="round"/>
  <text x="77" y="390" fill="#8b949e" font-size="11" font-family="-apple-system,BlinkMacSystemFont,Segoe UI,Helvetica,Arial,sans-serif">Merged</text>
  <line x1="255" y1="386" x2="271" y2="386" stroke="#f85149" stroke-width="2.5" stroke-linecap="round"/>
  <text x="277" y="390" fill="#8b949e" font-size="11" font-family="-apple-system,BlinkMacSystemFont,Segoe UI,Helvetica,Arial,sans-serif">Closed</text>
</svg>