<svg xmlns="http://www.w3.org/2000/svg" viewBox="0 0 960 400" width="960" height="400">
  <defs>
    <linearGradient id="gR" x1="0" y1="0" x2="0" y2="1">
      <stop offset="0%" stop-color="#3fb950" stop-opacity="0.25"/>
      <stop offset="100%" stop-color="#3fb950" stop-opacity="0.02"/>
    </linearGradient>
    <linearGradient id="gO" x1="0" y1="0" x2="0" y2="1">
      <stop offset="0%" stop-color="#58a6ff" stop-opacity="0.25"/>
      <stop offset="100%" stop-color="#58a6ff" stop-opacity="0.02"/>
    </linearGradient>
    <linearGradient id="gOp" x1="0" y1="0" x2="0" y2="1">
      <stop offset="0%" stop-color="#d2a8ff" stop-opacity="0.25"/>
      <stop offset="100%" stop-color="#d2a8ff" stop-opacity="0.02"/>
    </linearGradient>
    <linearGradient id="gM" x1="0" y1="0" x2="0" y2="1">
      <stop offset="0%" stop-color="#f78166" stop-opacity="0.25"/>
      <stop offset="100%" stop-color="#f78166" stop-opacity="0.02"/>
    </linearGradient>
    <linearGradient id="gC" x1="0" y1="0" x2="0" y2="1">
      <stop offset="0%" stop-color="#f85149" stop-opacity="0.25"/>
      <stop offset="100%" stop-color="#f85149" stop-opacity="0.02"/>
    </linearGradient>
  </defs>
  <rect width="960" height="400" rx="12" fill="#0d1117"/>
  <rect width="960" height="400" rx="12" fill="none" stroke="#30363d" stroke-width="1"/>
  <text x="55" y="30" fill="#e6edf3" font-size="15" font-weight="600" font-family="-apple-system,BlinkMacSystemFont,Segoe UI,Helvetica,Arial,sans-serif">GitHub Activity — jlaportebot</text>
  <text x="880" y="30" fill="#8b949e" font-size="11" text-anchor="end" font-family="-apple-system,BlinkMacSystemFont,Segoe UI,Helvetica,Arial,sans-serif">Updated Jun 11, 2026</text>
  <line x1="55" y1="340.0" x2="880" y2="340.0" stroke="#21262d" stroke-width="1"/>
  <text x="47" y="344.0" fill="#8b949e" font-size="11" text-anchor="end" font-family="-apple-system,BlinkMacSystemFont,Segoe UI,Helvetica,Arial,sans-serif">0</text>
  <line x1="55" y1="320.1" x2="880" y2="320.1" stroke="#21262d" stroke-width="1"/>
  <text x="47" y="324.1" fill="#8b949e" font-size="11" text-anchor="end" font-family="-apple-system,BlinkMacSystemFont,Segoe UI,Helvetica,Arial,sans-serif">10</text>
  <line x1="55" y1="300.3" x2="880" y2="300.3" stroke="#21262d" stroke-width="1"/>
  <text x="47" y="304.3" fill="#8b949e" font-size="11" text-anchor="end" font-family="-apple-system,BlinkMacSystemFont,Segoe UI,Helvetica,Arial,sans-serif">20</text>
  <line x1="55" y1="280.4" x2="880" y2="280.4" stroke="#21262d" stroke-width="1"/>
  <text x="47" y="284.4" fill="#8b949e" font-size="11" text-anchor="end" font-family="-apple-system,BlinkMacSystemFont,Segoe UI,Helvetica,Arial,sans-serif">30</text>
  <line x1="55" y1="260.5" x2="880" y2="260.5" stroke="#21262d" stroke-width="1"/>
  <text x="47" y="264.5" fill="#8b949e" font-size="11" text-anchor="end" font-family="-apple-system,BlinkMacSystemFont,Segoe UI,Helvetica,Arial,sans-serif">40</text>
  <line x1="55" y1="240.7" x2="880" y2="240.7" stroke="#21262d" stroke-width="1"/>
  <text x="47" y="244.7" fill="#8b949e" font-size="11" text-anchor="end" font-family="-apple-system,BlinkMacSystemFont,Segoe UI,Helvetica,Arial,sans-serif">50</text>
  <line x1="55" y1="220.8" x2="880" y2="220.8" stroke="#21262d" stroke-width="1"/>
  <text x="47" y="224.8" fill="#8b949e" font-size="11" text-anchor="end" font-family="-apple-system,BlinkMacSystemFont,Segoe UI,Helvetica,Arial,sans-serif">60</text>
  <line x1="55" y1="201.0" x2="880" y2="201.0" stroke="#21262d" stroke-width="1"/>
  <text x="47" y="205.0" fill="#8b949e" font-size="11" text-anchor="end" font-family="-apple-system,BlinkMacSystemFont,Segoe UI,Helvetica,Arial,sans-serif">70</text>
  <line x1="55" y1="181.1" x2="880" y2="181.1" stroke="#21262d" stroke-width="1"/>
  <text x="47" y="185.1" fill="#8b949e" font-size="11" text-anchor="end" font-family="-apple-system,BlinkMacSystemFont,Segoe UI,Helvetica,Arial,sans-serif">80</text>
  <line x1="55" y1="161.2" x2="880" y2="161.2" stroke="#21262d" stroke-width="1"/>
  <text x="47" y="165.2" fill="#8b949e" font-size="11" text-anchor="end" font-family="-apple-system,BlinkMacSystemFont,Segoe UI,Helvetica,Arial,sans-serif">90</text>
  <line x1="55" y1="141.4" x2="880" y2="141.4" stroke="#21262d" stroke-width="1"/>
  <text x="47" y="145.4" fill="#8b949e" font-size="11" text-anchor="end" font-family="-apple-system,BlinkMacSystemFont,Segoe UI,Helvetica,Arial,sans-serif">100</text>
  <line x1="55" y1="121.5" x2="880" y2="121.5" stroke="#21262d" stroke-width="1"/>
  <text x="47" y="125.5" fill="#8b949e" font-size="11" text-anchor="end" font-family="-apple-system,BlinkMacSystemFont,Segoe UI,Helvetica,Arial,sans-serif">110</text>
  <line x1="55" y1="101.6" x2="880" y2="101.6" stroke="#21262d" stroke-width="1"/>
  <text x="47" y="105.6" fill="#8b949e" font-size="11" text-anchor="end" font-family="-apple-system,BlinkMacSystemFont,Segoe UI,Helvetica,Arial,sans-serif">120</text>
  <line x1="55" y1="81.8" x2="880" y2="81.8" stroke="#21262d" stroke-width="1"/>
  <text x="47" y="85.8" fill="#8b949e" font-size="11" text-anchor="end" font-family="-apple-system,BlinkMacSystemFont,Segoe UI,Helvetica,Arial,sans-serif">130</text>
  <line x1="55" y1="61.9" x2="880" y2="61.9" stroke="#21262d" stroke-width="1"/>
  <text x="47" y="65.9" fill="#8b949e" font-size="11" text-anchor="end" font-family="-apple-system,BlinkMacSystemFont,Segoe UI,Helvetica,Arial,sans-serif">140</text>
  <line x1="55.0" y1="50" x2="55.0" y2="340" stroke="#21262d" stroke-width="1" stroke-dasharray="4,4"/>
  <text x="55.0" y="360" fill="#8b949e" font-size="10" text-anchor="middle" font-family="-apple-system,BlinkMacSystemFont,Segoe UI,Helvetica,Arial,sans-serif">May 02</text>
  <line x1="158.1" y1="50" x2="158.1" y2="340" stroke="#21262d" stroke-width="1" stroke-dasharray="4,4"/>
  <text x="158.1" y="360" fill="#8b949e" font-size="10" text-anchor="middle" font-family="-apple-system,BlinkMacSystemFont,Segoe UI,Helvetica,Arial,sans-serif">May 07</text>
  <line x1="261.2" y1="50" x2="261.2" y2="340" stroke="#21262d" stroke-width="1" stroke-dasharray="4,4"/>
  <text x="261.2" y="360" fill="#8b949e" font-size="10" text-anchor="middle" font-family="-apple-system,BlinkMacSystemFont,Segoe UI,Helvetica,Arial,sans-serif">May 12</text>
  <line x1="364.4" y1="50" x2="364.4" y2="340" stroke="#21262d" stroke-width="1" stroke-dasharray="4,4"/>
  <text x="364.4" y="360" fill="#8b949e" font-size="10" text-anchor="middle" font-family="-apple-system,BlinkMacSystemFont,Segoe UI,Helvetica,Arial,sans-serif">May 17</text>
  <line x1="467.5" y1="50" x2="467.5" y2="340" stroke="#21262d" stroke-width="1" stroke-dasharray="4,4"/>
  <text x="467.5" y="360" fill="#8b949e" font-size="10" text-anchor="middle" font-family="-apple-system,BlinkMacSystemFont,Segoe UI,Helvetica,Arial,sans-serif">May 22</text>
  <line x1="570.6" y1="50" x2="570.6" y2="340" stroke="#21262d" stroke-width="1" stroke-dasharray="4,4"/>
  <text x="570.6" y="360" fill="#8b949e" font-size="10" text-anchor="middle" font-family="-apple-system,BlinkMacSystemFont,Segoe UI,Helvetica,Arial,sans-serif">May 27</text>
  <line x1="673.8" y1="50" x2="673.8" y2="340" stroke="#21262d" stroke-width="1" stroke-dasharray="4,4"/>
  <text x="673.8" y="360" fill="#8b949e" font-size="10" text-anchor="middle" font-family="-apple-system,BlinkMacSystemFont,Segoe UI,Helvetica,Arial,sans-serif">Jun 01</text>
  <line x1="776.9" y1="50" x2="776.9" y2="340" stroke="#21262d" stroke-width="1" stroke-dasharray="4,4"/>
  <text x="776.9" y="360" fill="#8b949e" font-size="10" text-anchor="middle" font-family="-apple-system,BlinkMacSystemFont,Segoe UI,Helvetica,Arial,sans-serif">Jun 06</text>
  <line x1="880.0" y1="50" x2="880.0" y2="340" stroke="#21262d" stroke-width="1" stroke-dasharray="4,4"/>
  <text x="880.0" y="360" fill="#8b949e" font-size="10" text-anchor="middle" font-family="-apple-system,BlinkMacSystemFont,Segoe UI,Helvetica,Arial,sans-serif">Jun 11</text>
  <path d="M55.0,340.0L75.6,316.2L96.2,302.3L116.9,294.3L137.5,282.4L158.1,274.5L178.8,268.5L199.4,268.5L220.0,268.5L240.6,268.5L261.2,268.5L281.9,268.5L302.5,268.5L323.1,268.5L343.8,266.5L364.4,258.6L385.0,250.6L405.6,240.7L426.2,228.8L446.9,216.8L467.5,204.9L488.1,195.0L508.8,187.1L529.4,183.1L550.0,177.1L570.6,155.3L591.2,153.3L611.9,143.4L632.5,129.5L653.1,119.5L673.8,111.6L694.4,111.6L715.0,111.6L735.6,111.6L756.2,111.6L776.9,111.6L797.5,99.7L818.1,83.8L838.8,77.8L859.4,65.9L880.0,59.9L880.0,340.0L55.0,340.0Z" fill="url(#gO)"/>
  <path d="M55.0,338.0L75.6,338.0L96.2,338.0L116.9,338.0L137.5,338.0L158.1,338.0L178.8,338.0L199.4,338.0L220.0,338.0L240.6,338.0L261.2,338.0L281.9,338.0L302.5,338.0L323.1,338.0L343.8,338.0L364.4,332.1L385.0,332.1L405.6,332.1L426.2,332.1L446.9,332.1L467.5,332.1L488.1,332.1L508.8,330.1L529.4,324.1L550.0,324.1L570.6,322.1L591.2,322.1L611.9,322.1L632.5,322.1L653.1,322.1L673.8,318.2L694.4,318.2L715.0,318.2L735.6,318.2L756.2,318.2L776.9,318.2L797.5,318.2L818.1,316.2L838.8,294.3L859.4,294.3L880.0,294.3L880.0,340.0L55.0,340.0Z" fill="url(#gR)"/>
  <path d="M55.0,340.0L75.6,316.2L96.2,302.3L116.9,294.3L137.5,282.4L158.1,274.5L178.8,268.5L199.4,268.5L220.0,268.5L240.6,268.5L261.2,268.5L281.9,268.5L302.5,268.5L323.1,268.5L343.8,266.5L364.4,258.6L385.0,250.6L405.6,240.7L426.2,228.8L446.9,216.8L467.5,204.9L488.1,195.0L508.8,187.1L529.4,183.1L550.0,177.1L570.6,155.3L591.2,153.3L611.9,143.4L632.5,129.5L653.1,119.5L673.8,111.6L694.4,111.6L715.0,111.6L735.6,111.6L756.2,111.6L776.9,111.6L797.5,99.7L818.1,83.8L838.8,77.8L859.4,65.9L880.0,59.9" fill="none" stroke="#58a6ff" stroke-width="2.5" stroke-linecap="round" stroke-linejoin="round"/>
  <path d="M55.0,338.0L75.6,338.0L96.2,338.0L116.9,338.0L137.5,338.0L158.1,338.0L178.8,338.0L199.4,338.0L220.0,338.0L240.6,338.0L261.2,338.0L281.9,338.0L302.5,338.0L323.1,338.0L343.8,338.0L364.4,332.1L385.0,332.1L405.6,332.1L426.2,332.1L446.9,332.1L467.5,332.1L488.1,332.1L508.8,330.1L529.4,324.1L550.0,324.1L570.6,322.1L591.2,322.1L611.9,322.1L632.5,322.1L653.1,322.1L673.8,318.2L694.4,318.2L715.0,318.2L735.6,318.2L756.2,318.2L776.9,318.2L797.5,318.2L818.1,316.2L838.8,294.3L859.4,294.3L880.0,294.3" fill="none" stroke="#3fb950" stroke-width="2.5" stroke-linecap="round" stroke-linejoin="round"/>
  <path d="M55.0,340.0L75.6,326.1L96.2,316.2L116.9,312.2L137.5,302.3L158.1,304.2L178.8,298.3L199.4,300.3L220.0,300.3L240.6,302.3L261.2,302.3L281.9,302.3L302.5,302.3L323.1,302.3L343.8,300.3L364.4,298.3L385.0,296.3L405.6,290.3L426.2,278.4L446.9,270.5L467.5,262.5L488.1,256.6L508.8,256.6L529.4,258.6L550.0,262.5L570.6,254.6L591.2,252.6L611.9,252.6L632.5,246.6L653.1,256.6L673.8,250.6L694.4,250.6L715.0,250.6L735.6,250.6L756.2,262.5L776.9,262.5L797.5,260.5L818.1,270.5L838.8,340.0L859.4,340.0L880.0,340.0" fill="none" stroke="#d2a8ff" stroke-width="2.5" stroke-linecap="round" stroke-linejoin="round"/>
  <path d="M55.0,340.0L75.6,340.0L96.2,338.0L116.9,336.0L137.5,336.0L158.1,334.0L178.8,334.0L199.4,332.1L220.0,332.1L240.6,332.1L261.2,332.1L281.9,332.1L302.5,332.1L323.1,332.1L343.8,332.1L364.4,330.1L385.0,326.1L405.6,324.1L426.2,324.1L446.9,324.1L467.5,320.1L488.1,320.1L508.8,320.1L529.4,318.2L550.0,318.2L570.6,306.2L591.2,306.2L611.9,298.3L632.5,292.3L653.1,284.4L673.8,282.4L694.4,282.4L715.0,282.4L735.6,282.4L756.2,278.4L776.9,278.4L797.5,274.5L818.1,268.5L838.8,264.5L859.4,252.6L880.0,246.6" fill="none" stroke="#f78166" stroke-width="2.5" stroke-linecap="round" stroke-linejoin="round"/>
  <path d="M55.0,340.0L75.6,330.1L96.2,328.1L116.9,326.1L137.5,324.1L158.1,316.2L178.8,316.2L199.4,316.2L220.0,316.2L240.6,314.2L261.2,314.2L281.9,314.2L302.5,314.2L323.1,314.2L343.8,314.2L364.4,310.2L385.0,308.2L405.6,306.2L426.2,306.2L446.9,302.3L467.5,302.3L488.1,298.3L508.8,290.3L529.4,286.4L550.0,276.4L570.6,274.5L591.2,274.5L611.9,272.5L632.5,270.5L653.1,258.6L673.8,258.6L694.4,258.6L715.0,258.6L735.6,258.6L756.2,250.6L776.9,250.6L797.5,244.7L818.1,224.8L838.8,153.3L859.4,153.3L880.0,153.3" fill="none" stroke="#f85149" stroke-width="2.5" stroke-linecap="round" stroke-linejoin="round"/>
  <circle cx="880.0" cy="59.9" r="3.5" fill="#58a6ff"/>
  <text x="889.0" y="63.9" fill="#58a6ff" font-size="11" font-weight="600" font-family="-apple-system,BlinkMacSystemFont,Segoe UI,Helvetica,Arial,sans-serif">141</text>
  <circle cx="880.0" cy="294.3" r="3.5" fill="#3fb950"/>
  <text x="889.0" y="298.3" fill="#3fb950" font-size="11" font-weight="600" font-family="-apple-system,BlinkMacSystemFont,Segoe UI,Helvetica,Arial,sans-serif">23</text>
  <circle cx="880.0" cy="340.0" r="3.5" fill="#d2a8ff"/>
  <text x="889.0" y="344.0" fill="#d2a8ff" font-size="11" font-weight="600" font-family="-apple-system,BlinkMacSystemFont,Segoe UI,Helvetica,Arial,sans-serif">0</text>
  <circle cx="880.0" cy="246.6" r="3.5" fill="#f78166"/>
  <text x="889.0" y="250.6" fill="#f78166" font-size="11" font-weight="600" font-family="-apple-system,BlinkMacSystemFont,Segoe UI,Helvetica,Arial,sans-serif">47</text>
  <circle cx="880.0" cy="153.3" r="3.5" fill="#f85149"/>
  <text x="889.0" y="157.3" fill="#f85149" font-size="11" font-weight="600" font-family="-apple-system,BlinkMacSystemFont,Segoe UI,Helvetica,Arial,sans-serif">94</text>
  <line x1="55" y1="368" x2="71" y2="368" stroke="#3fb950" stroke-width="2.5" stroke-linecap="round"/>
  <text x="77" y="372" fill="#8b949e" font-size="11" font-family="-apple-system,BlinkMacSystemFont,Segoe UI,Helvetica,Arial,sans-serif">Repos</text>
  <line x1="255" y1="368" x2="271" y2="368" stroke="#58a6ff" stroke-width="2.5" stroke-linecap="round"/>
  <text x="277" y="372" fill="#8b949e" font-size="11" font-family="-apple-system,BlinkMacSystemFont,Segoe UI,Helvetica,Arial,sans-serif">PRs Opened</text>
  <line x1="455" y1="368" x2="471" y2="368" stroke="#d2a8ff" stroke-width="2.5" stroke-linecap="round"/>
  <text x="477" y="372" fill="#8b949e" font-size="11" font-family="-apple-system,BlinkMacSystemFont,Segoe UI,Helvetica,Arial,sans-serif">Open PRs</text>
  <line x1="55" y1="386" x2="71" y2="386" stroke="#f78166" stroke-width="2.5" stroke-linecap="round"/>
  <text x="77" y="390" fill="#8b949e" font-size="11" font-family="-apple-system,BlinkMacSystemFont,Segoe UI,Helvetica,Arial,sans-serif">Merged</text>
  <line x1="255" y1="386" x2="271" y2="386" stroke="#f85149" stroke-width="2.5" stroke-linecap="round"/>
  <text x="277" y="390" fill="#8b949e" font-size="11" font-family="-apple-system,BlinkMacSystemFont,Segoe UI,Helvetica,Arial,sans-serif">Closed</text>
</svg>