<svg xmlns="http://www.w3.org/2000/svg" viewBox="0 0 960 400" width="960" height="400">
  <defs>
    <linearGradient id="gR" x1="0" y1="0" x2="0" y2="1">
      <stop offset="0%" stop-color="#f78166" stop-opacity="0.25"/>
      <stop offset="100%" stop-color="#f78166" stop-opacity="0.02"/>
    </linearGradient>
    <linearGradient id="gO" x1="0" y1="0" x2="0" y2="1">
      <stop offset="0%" stop-color="#58a6ff" stop-opacity="0.25"/>
      <stop offset="100%" stop-color="#58a6ff" stop-opacity="0.02"/>
    </linearGradient>
    <linearGradient id="gOp" x1="0" y1="0" x2="0" y2="1">
      <stop offset="0%" stop-color="#3fb950" stop-opacity="0.25"/>
      <stop offset="100%" stop-color="#3fb950" stop-opacity="0.02"/>
    </linearGradient>
    <linearGradient id="gM" x1="0" y1="0" x2="0" y2="1">
      <stop offset="0%" stop-color="#d2a8ff" stop-opacity="0.25"/>
      <stop offset="100%" stop-color="#d2a8ff" stop-opacity="0.02"/>
    </linearGradient>
    <linearGradient id="gC" x1="0" y1="0" x2="0" y2="1">
      <stop offset="0%" stop-color="#f85149" stop-opacity="0.25"/>
      <stop offset="100%" stop-color="#f85149" stop-opacity="0.02"/>
    </linearGradient>
  </defs>
  <rect width="960" height="400" rx="12" fill="#0d1117"/>
  <rect width="960" height="400" rx="12" fill="none" stroke="#30363d" stroke-width="1"/>
  <text x="55" y="30" fill="#e6edf3" font-size="15" font-weight="600" font-family="-apple-system,BlinkMacSystemFont,Segoe UI,Helvetica,Arial,sans-serif">GitHub Activity — jlaportebot</text>
  <text x="880" y="30" fill="#8b949e" font-size="11" text-anchor="end" font-family="-apple-system,BlinkMacSystemFont,Segoe UI,Helvetica,Arial,sans-serif">Updated Jul 04, 2026</text>
  <line x1="55" y1="340.0" x2="880" y2="340.0" stroke="#21262d" stroke-width="1"/>
  <text x="47" y="344.0" fill="#8b949e" font-size="11" text-anchor="end" font-family="-apple-system,BlinkMacSystemFont,Segoe UI,Helvetica,Arial,sans-serif">0</text>
  <line x1="55" y1="328.8" x2="880" y2="328.8" stroke="#21262d" stroke-width="1"/>
  <text x="47" y="332.8" fill="#8b949e" font-size="11" text-anchor="end" font-family="-apple-system,BlinkMacSystemFont,Segoe UI,Helvetica,Arial,sans-serif">10</text>
  <line x1="55" y1="317.5" x2="880" y2="317.5" stroke="#21262d" stroke-width="1"/>
  <text x="47" y="321.5" fill="#8b949e" font-size="11" text-anchor="end" font-family="-apple-system,BlinkMacSystemFont,Segoe UI,Helvetica,Arial,sans-serif">20</text>
  <line x1="55" y1="306.3" x2="880" y2="306.3" stroke="#21262d" stroke-width="1"/>
  <text x="47" y="310.3" fill="#8b949e" font-size="11" text-anchor="end" font-family="-apple-system,BlinkMacSystemFont,Segoe UI,Helvetica,Arial,sans-serif">30</text>
  <line x1="55" y1="295.0" x2="880" y2="295.0" stroke="#21262d" stroke-width="1"/>
  <text x="47" y="299.0" fill="#8b949e" font-size="11" text-anchor="end" font-family="-apple-system,BlinkMacSystemFont,Segoe UI,Helvetica,Arial,sans-serif">40</text>
  <line x1="55" y1="283.8" x2="880" y2="283.8" stroke="#21262d" stroke-width="1"/>
  <text x="47" y="287.8" fill="#8b949e" font-size="11" text-anchor="end" font-family="-apple-system,BlinkMacSystemFont,Segoe UI,Helvetica,Arial,sans-serif">50</text>
  <line x1="55" y1="272.6" x2="880" y2="272.6" stroke="#21262d" stroke-width="1"/>
  <text x="47" y="276.6" fill="#8b949e" font-size="11" text-anchor="end" font-family="-apple-system,BlinkMacSystemFont,Segoe UI,Helvetica,Arial,sans-serif">60</text>
  <line x1="55" y1="261.3" x2="880" y2="261.3" stroke="#21262d" stroke-width="1"/>
  <text x="47" y="265.3" fill="#8b949e" font-size="11" text-anchor="end" font-family="-apple-system,BlinkMacSystemFont,Segoe UI,Helvetica,Arial,sans-serif">70</text>
  <line x1="55" y1="250.1" x2="880" y2="250.1" stroke="#21262d" stroke-width="1"/>
  <text x="47" y="254.1" fill="#8b949e" font-size="11" text-anchor="end" font-family="-apple-system,BlinkMacSystemFont,Segoe UI,Helvetica,Arial,sans-serif">80</text>
  <line x1="55" y1="238.8" x2="880" y2="238.8" stroke="#21262d" stroke-width="1"/>
  <text x="47" y="242.8" fill="#8b949e" font-size="11" text-anchor="end" font-family="-apple-system,BlinkMacSystemFont,Segoe UI,Helvetica,Arial,sans-serif">90</text>
  <line x1="55" y1="227.6" x2="880" y2="227.6" stroke="#21262d" stroke-width="1"/>
  <text x="47" y="231.6" fill="#8b949e" font-size="11" text-anchor="end" font-family="-apple-system,BlinkMacSystemFont,Segoe UI,Helvetica,Arial,sans-serif">100</text>
  <line x1="55" y1="216.4" x2="880" y2="216.4" stroke="#21262d" stroke-width="1"/>
  <text x="47" y="220.4" fill="#8b949e" font-size="11" text-anchor="end" font-family="-apple-system,BlinkMacSystemFont,Segoe UI,Helvetica,Arial,sans-serif">110</text>
  <line x1="55" y1="205.1" x2="880" y2="205.1" stroke="#21262d" stroke-width="1"/>
  <text x="47" y="209.1" fill="#8b949e" font-size="11" text-anchor="end" font-family="-apple-system,BlinkMacSystemFont,Segoe UI,Helvetica,Arial,sans-serif">120</text>
  <line x1="55" y1="193.9" x2="880" y2="193.9" stroke="#21262d" stroke-width="1"/>
  <text x="47" y="197.9" fill="#8b949e" font-size="11" text-anchor="end" font-family="-apple-system,BlinkMacSystemFont,Segoe UI,Helvetica,Arial,sans-serif">130</text>
  <line x1="55" y1="182.6" x2="880" y2="182.6" stroke="#21262d" stroke-width="1"/>
  <text x="47" y="186.6" fill="#8b949e" font-size="11" text-anchor="end" font-family="-apple-system,BlinkMacSystemFont,Segoe UI,Helvetica,Arial,sans-serif">140</text>
  <line x1="55" y1="171.4" x2="880" y2="171.4" stroke="#21262d" stroke-width="1"/>
  <text x="47" y="175.4" fill="#8b949e" font-size="11" text-anchor="end" font-family="-apple-system,BlinkMacSystemFont,Segoe UI,Helvetica,Arial,sans-serif">150</text>
  <line x1="55" y1="160.2" x2="880" y2="160.2" stroke="#21262d" stroke-width="1"/>
  <text x="47" y="164.2" fill="#8b949e" font-size="11" text-anchor="end" font-family="-apple-system,BlinkMacSystemFont,Segoe UI,Helvetica,Arial,sans-serif">160</text>
  <line x1="55" y1="148.9" x2="880" y2="148.9" stroke="#21262d" stroke-width="1"/>
  <text x="47" y="152.9" fill="#8b949e" font-size="11" text-anchor="end" font-family="-apple-system,BlinkMacSystemFont,Segoe UI,Helvetica,Arial,sans-serif">170</text>
  <line x1="55" y1="137.7" x2="880" y2="137.7" stroke="#21262d" stroke-width="1"/>
  <text x="47" y="141.7" fill="#8b949e" font-size="11" text-anchor="end" font-family="-apple-system,BlinkMacSystemFont,Segoe UI,Helvetica,Arial,sans-serif">180</text>
  <line x1="55" y1="126.4" x2="880" y2="126.4" stroke="#21262d" stroke-width="1"/>
  <text x="47" y="130.4" fill="#8b949e" font-size="11" text-anchor="end" font-family="-apple-system,BlinkMacSystemFont,Segoe UI,Helvetica,Arial,sans-serif">190</text>
  <line x1="55" y1="115.2" x2="880" y2="115.2" stroke="#21262d" stroke-width="1"/>
  <text x="47" y="119.2" fill="#8b949e" font-size="11" text-anchor="end" font-family="-apple-system,BlinkMacSystemFont,Segoe UI,Helvetica,Arial,sans-serif">200</text>
  <line x1="55" y1="104.0" x2="880" y2="104.0" stroke="#21262d" stroke-width="1"/>
  <text x="47" y="108.0" fill="#8b949e" font-size="11" text-anchor="end" font-family="-apple-system,BlinkMacSystemFont,Segoe UI,Helvetica,Arial,sans-serif">210</text>
  <line x1="55" y1="92.7" x2="880" y2="92.7" stroke="#21262d" stroke-width="1"/>
  <text x="47" y="96.7" fill="#8b949e" font-size="11" text-anchor="end" font-family="-apple-system,BlinkMacSystemFont,Segoe UI,Helvetica,Arial,sans-serif">220</text>
  <line x1="55" y1="81.5" x2="880" y2="81.5" stroke="#21262d" stroke-width="1"/>
  <text x="47" y="85.5" fill="#8b949e" font-size="11" text-anchor="end" font-family="-apple-system,BlinkMacSystemFont,Segoe UI,Helvetica,Arial,sans-serif">230</text>
  <line x1="55" y1="70.2" x2="880" y2="70.2" stroke="#21262d" stroke-width="1"/>
  <text x="47" y="74.2" fill="#8b949e" font-size="11" text-anchor="end" font-family="-apple-system,BlinkMacSystemFont,Segoe UI,Helvetica,Arial,sans-serif">240</text>
  <line x1="55" y1="59.0" x2="880" y2="59.0" stroke="#21262d" stroke-width="1"/>
  <text x="47" y="63.0" fill="#8b949e" font-size="11" text-anchor="end" font-family="-apple-system,BlinkMacSystemFont,Segoe UI,Helvetica,Arial,sans-serif">250</text>
  <line x1="55.0" y1="50" x2="55.0" y2="340" stroke="#21262d" stroke-width="1" stroke-dasharray="4,4"/>
  <text x="55.0" y="360" fill="#8b949e" font-size="10" text-anchor="middle" font-family="-apple-system,BlinkMacSystemFont,Segoe UI,Helvetica,Arial,sans-serif">May 02</text>
  <line x1="172.9" y1="50" x2="172.9" y2="340" stroke="#21262d" stroke-width="1" stroke-dasharray="4,4"/>
  <text x="172.9" y="360" fill="#8b949e" font-size="10" text-anchor="middle" font-family="-apple-system,BlinkMacSystemFont,Segoe UI,Helvetica,Arial,sans-serif">May 11</text>
  <line x1="290.7" y1="50" x2="290.7" y2="340" stroke="#21262d" stroke-width="1" stroke-dasharray="4,4"/>
  <text x="290.7" y="360" fill="#8b949e" font-size="10" text-anchor="middle" font-family="-apple-system,BlinkMacSystemFont,Segoe UI,Helvetica,Arial,sans-serif">May 20</text>
  <line x1="408.6" y1="50" x2="408.6" y2="340" stroke="#21262d" stroke-width="1" stroke-dasharray="4,4"/>
  <text x="408.6" y="360" fill="#8b949e" font-size="10" text-anchor="middle" font-family="-apple-system,BlinkMacSystemFont,Segoe UI,Helvetica,Arial,sans-serif">May 29</text>
  <line x1="526.4" y1="50" x2="526.4" y2="340" stroke="#21262d" stroke-width="1" stroke-dasharray="4,4"/>
  <text x="526.4" y="360" fill="#8b949e" font-size="10" text-anchor="middle" font-family="-apple-system,BlinkMacSystemFont,Segoe UI,Helvetica,Arial,sans-serif">Jun 07</text>
  <line x1="644.3" y1="50" x2="644.3" y2="340" stroke="#21262d" stroke-width="1" stroke-dasharray="4,4"/>
  <text x="644.3" y="360" fill="#8b949e" font-size="10" text-anchor="middle" font-family="-apple-system,BlinkMacSystemFont,Segoe UI,Helvetica,Arial,sans-serif">Jun 16</text>
  <line x1="762.1" y1="50" x2="762.1" y2="340" stroke="#21262d" stroke-width="1" stroke-dasharray="4,4"/>
  <text x="762.1" y="360" fill="#8b949e" font-size="10" text-anchor="middle" font-family="-apple-system,BlinkMacSystemFont,Segoe UI,Helvetica,Arial,sans-serif">Jun 25</text>
  <line x1="880.0" y1="50" x2="880.0" y2="340" stroke="#21262d" stroke-width="1" stroke-dasharray="4,4"/>
  <text x="880.0" y="360" fill="#8b949e" font-size="10" text-anchor="middle" font-family="-apple-system,BlinkMacSystemFont,Segoe UI,Helvetica,Arial,sans-serif">Jul 04</text>
  <path d="M55.0,340.0L68.1,326.5L81.2,318.6L94.3,314.1L107.4,307.4L120.5,302.9L133.6,299.5L146.7,299.5L159.8,299.5L172.9,299.5L186.0,299.5L199.0,299.5L212.1,299.5L225.2,299.5L238.3,298.4L251.4,293.9L264.5,289.4L277.6,283.8L290.7,277.1L303.8,270.3L316.9,263.6L330.0,257.9L343.1,253.4L356.2,251.2L369.3,247.8L382.4,235.5L395.5,234.3L408.6,228.7L421.7,220.9L434.8,215.2L447.9,210.7L461.0,210.7L474.0,210.7L487.1,210.7L500.2,210.7L513.3,210.7L526.4,204.0L539.5,195.0L552.6,191.6L565.7,184.9L578.8,180.4L591.9,173.6L605.0,163.5L618.1,157.9L631.2,152.3L644.3,146.7L657.4,136.6L670.5,129.8L683.6,120.8L696.7,114.1L709.8,108.4L722.9,104.0L736.0,97.2L749.0,89.3L762.1,84.8L775.2,81.5L788.3,73.6L801.4,66.9L814.5,57.9L827.6,57.9L840.7,55.6L853.8,55.6L866.9,55.6L880.0,55.6L880.0,340.0L55.0,340.0Z" fill="url(#gO)"/>
  <path d="M55.0,338.9L68.1,338.9L81.2,338.9L94.3,338.9L107.4,338.9L120.5,338.9L133.6,338.9L146.7,338.9L159.8,338.9L172.9,338.9L186.0,338.9L199.0,338.9L212.1,338.9L225.2,338.9L238.3,338.9L251.4,335.5L264.5,335.5L277.6,335.5L290.7,335.5L303.8,335.5L316.9,335.5L330.0,335.5L343.1,334.4L356.2,331.0L369.3,331.0L382.4,329.9L395.5,329.9L408.6,329.9L421.7,329.9L434.8,329.9L447.9,327.6L461.0,327.6L474.0,327.6L487.1,327.6L500.2,327.6L513.3,327.6L526.4,327.6L539.5,325.4L552.6,311.9L565.7,311.9L578.8,311.9L591.9,311.9L605.0,302.9L618.1,302.9L631.2,302.9L644.3,302.9L657.4,302.9L670.5,300.7L683.6,300.7L696.7,299.5L709.8,298.4L722.9,297.3L736.0,296.2L749.0,293.9L762.1,289.4L775.2,288.3L788.3,287.2L801.4,287.2L814.5,287.2L827.6,287.2L840.7,287.2L853.8,287.2L866.9,287.2L880.0,287.2L880.0,340.0L55.0,340.0Z" fill="url(#gR)"/>
  <path d="M55.0,340.0L68.1,326.5L81.2,318.6L94.3,314.1L107.4,307.4L120.5,302.9L133.6,299.5L146.7,299.5L159.8,299.5L172.9,299.5L186.0,299.5L199.0,299.5L212.1,299.5L225.2,299.5L238.3,298.4L251.4,293.9L264.5,289.4L277.6,283.8L290.7,277.1L303.8,270.3L316.9,263.6L330.0,257.9L343.1,253.4L356.2,251.2L369.3,247.8L382.4,235.5L395.5,234.3L408.6,228.7L421.7,220.9L434.8,215.2L447.9,210.7L461.0,210.7L474.0,210.7L487.1,210.7L500.2,210.7L513.3,210.7L526.4,204.0L539.5,195.0L552.6,191.6L565.7,184.9L578.8,180.4L591.9,173.6L605.0,163.5L618.1,157.9L631.2,152.3L644.3,146.7L657.4,136.6L670.5,129.8L683.6,120.8L696.7,114.1L709.8,108.4L722.9,104.0L736.0,97.2L749.0,89.3L762.1,84.8L775.2,81.5L788.3,73.6L801.4,66.9L814.5,57.9L827.6,57.9L840.7,55.6L853.8,55.6L866.9,55.6L880.0,55.6" fill="none" stroke="#58a6ff" stroke-width="2.5" stroke-linecap="round" stroke-linejoin="round"/>
  <path d="M55.0,338.9L68.1,338.9L81.2,338.9L94.3,338.9L107.4,338.9L120.5,338.9L133.6,338.9L146.7,338.9L159.8,338.9L172.9,338.9L186.0,338.9L199.0,338.9L212.1,338.9L225.2,338.9L238.3,338.9L251.4,335.5L264.5,335.5L277.6,335.5L290.7,335.5L303.8,335.5L316.9,335.5L330.0,335.5L343.1,334.4L356.2,331.0L369.3,331.0L382.4,329.9L395.5,329.9L408.6,329.9L421.7,329.9L434.8,329.9L447.9,327.6L461.0,327.6L474.0,327.6L487.1,327.6L500.2,327.6L513.3,327.6L526.4,327.6L539.5,325.4L552.6,311.9L565.7,311.9L578.8,311.9L591.9,311.9L605.0,302.9L618.1,302.9L631.2,302.9L644.3,302.9L657.4,302.9L670.5,300.7L683.6,300.7L696.7,299.5L709.8,298.4L722.9,297.3L736.0,296.2L749.0,293.9L762.1,289.4L775.2,288.3L788.3,287.2L801.4,287.2L814.5,287.2L827.6,287.2L840.7,287.2L853.8,287.2L866.9,287.2L880.0,287.2" fill="none" stroke="#f78166" stroke-width="2.5" stroke-linecap="round" stroke-linejoin="round"/>
  <path d="M55.0,340.0L68.1,332.1L81.2,326.5L94.3,324.3L107.4,318.6L120.5,319.8L133.6,316.4L146.7,317.5L159.8,317.5L172.9,318.6L186.0,318.6L199.0,318.6L212.1,318.6L225.2,318.6L238.3,317.5L251.4,316.4L264.5,315.3L277.6,311.9L290.7,305.2L303.8,300.7L316.9,296.2L330.0,292.8L343.1,292.8L356.2,293.9L369.3,296.2L382.4,291.7L395.5,290.5L408.6,290.5L421.7,287.2L434.8,292.8L447.9,289.4L461.0,289.4L474.0,289.4L487.1,289.4L500.2,296.2L513.3,296.2L526.4,295.0L539.5,300.7L552.6,340.0L565.7,340.0L578.8,340.0L591.9,340.0L605.0,335.5L618.1,335.5L631.2,333.3L644.3,333.3L657.4,332.1L670.5,328.8L683.6,329.9L696.7,327.6L709.8,327.6L722.9,329.9L736.0,328.8L749.0,329.9L762.1,326.5L775.2,327.6L788.3,327.6L801.4,322.0L814.5,318.6L827.6,318.6L840.7,319.8L853.8,323.1L866.9,323.1L880.0,323.1" fill="none" stroke="#3fb950" stroke-width="2.5" stroke-linecap="round" stroke-linejoin="round"/>
  <path d="M55.0,340.0L68.1,340.0L81.2,338.9L94.3,337.8L107.4,337.8L120.5,336.6L133.6,336.6L146.7,335.5L159.8,335.5L172.9,335.5L186.0,335.5L199.0,335.5L212.1,335.5L225.2,335.5L238.3,335.5L251.4,334.4L264.5,332.1L277.6,331.0L290.7,331.0L303.8,331.0L316.9,328.8L330.0,328.8L343.1,328.8L356.2,327.6L369.3,327.6L382.4,320.9L395.5,320.9L408.6,316.4L421.7,313.0L434.8,308.5L447.9,307.4L461.0,307.4L474.0,307.4L487.1,307.4L500.2,305.2L513.3,305.2L526.4,302.9L539.5,299.5L552.6,297.3L565.7,290.5L578.8,286.0L591.9,279.3L605.0,275.9L618.1,271.4L631.2,269.2L644.3,263.6L657.4,254.6L670.5,251.2L683.6,244.5L696.7,241.1L709.8,235.5L722.9,228.7L736.0,223.1L749.0,214.1L762.1,213.0L775.2,210.7L788.3,205.1L801.4,205.1L814.5,199.5L827.6,199.5L840.7,197.2L853.8,197.2L866.9,197.2L880.0,197.2" fill="none" stroke="#d2a8ff" stroke-width="2.5" stroke-linecap="round" stroke-linejoin="round"/>
  <path d="M55.0,340.0L68.1,334.4L81.2,333.3L94.3,332.1L107.4,331.0L120.5,326.5L133.6,326.5L146.7,326.5L159.8,326.5L172.9,325.4L186.0,325.4L199.0,325.4L212.1,325.4L225.2,325.4L238.3,325.4L251.4,323.1L264.5,322.0L277.6,320.9L290.7,320.9L303.8,318.6L316.9,318.6L330.0,316.4L343.1,311.9L356.2,309.7L369.3,304.0L382.4,302.9L395.5,302.9L408.6,301.8L421.7,300.7L434.8,293.9L447.9,293.9L461.0,293.9L474.0,293.9L487.1,293.9L500.2,289.4L513.3,289.4L526.4,286.0L539.5,274.8L552.6,234.3L565.7,234.3L578.8,234.3L591.9,234.3L605.0,232.1L618.1,231.0L631.2,229.8L644.3,229.8L657.4,229.8L670.5,229.8L683.6,226.5L696.7,225.3L709.8,225.3L722.9,225.3L736.0,225.3L749.0,225.3L762.1,225.3L775.2,223.1L788.3,220.9L801.4,219.7L814.5,219.7L827.6,219.7L840.7,218.6L853.8,215.2L866.9,215.2L880.0,215.2" fill="none" stroke="#f85149" stroke-width="2.5" stroke-linecap="round" stroke-linejoin="round"/>
  <circle cx="880.0" cy="55.6" r="3.5" fill="#58a6ff"/>
  <text x="889.0" y="59.6" fill="#58a6ff" font-size="11" font-weight="600" font-family="-apple-system,BlinkMacSystemFont,Segoe UI,Helvetica,Arial,sans-serif">253</text>
  <circle cx="880.0" cy="287.2" r="3.5" fill="#f78166"/>
  <text x="889.0" y="291.2" fill="#f78166" font-size="11" font-weight="600" font-family="-apple-system,BlinkMacSystemFont,Segoe UI,Helvetica,Arial,sans-serif">47</text>
  <circle cx="880.0" cy="323.1" r="3.5" fill="#3fb950"/>
  <text x="889.0" y="327.1" fill="#3fb950" font-size="11" font-weight="600" font-family="-apple-system,BlinkMacSystemFont,Segoe UI,Helvetica,Arial,sans-serif">15</text>
  <circle cx="880.0" cy="197.2" r="3.5" fill="#d2a8ff"/>
  <text x="889.0" y="201.2" fill="#d2a8ff" font-size="11" font-weight="600" font-family="-apple-system,BlinkMacSystemFont,Segoe UI,Helvetica,Arial,sans-serif">127</text>
  <circle cx="880.0" cy="215.2" r="3.5" fill="#f85149"/>
  <text x="889.0" y="219.2" fill="#f85149" font-size="11" font-weight="600" font-family="-apple-system,BlinkMacSystemFont,Segoe UI,Helvetica,Arial,sans-serif">111</text>
  <line x1="55" y1="368" x2="71" y2="368" stroke="#f78166" stroke-width="2.5" stroke-linecap="round"/>
  <text x="77" y="372" fill="#8b949e" font-size="11" font-family="-apple-system,BlinkMacSystemFont,Segoe UI,Helvetica,Arial,sans-serif">Repos</text>
  <line x1="255" y1="368" x2="271" y2="368" stroke="#58a6ff" stroke-width="2.5" stroke-linecap="round"/>
  <text x="277" y="372" fill="#8b949e" font-size="11" font-family="-apple-system,BlinkMacSystemFont,Segoe UI,Helvetica,Arial,sans-serif">PRs Opened</text>
  <line x1="455" y1="368" x2="471" y2="368" stroke="#3fb950" stroke-width="2.5" stroke-linecap="round"/>
  <text x="477" y="372" fill="#8b949e" font-size="11" font-family="-apple-system,BlinkMacSystemFont,Segoe UI,Helvetica,Arial,sans-serif">Open PRs</text>
  <line x1="55" y1="386" x2="71" y2="386" stroke="#d2a8ff" stroke-width="2.5" stroke-linecap="round"/>
  <text x="77" y="390" fill="#8b949e" font-size="11" font-family="-apple-system,BlinkMacSystemFont,Segoe UI,Helvetica,Arial,sans-serif">Merged</text>
  <line x1="255" y1="386" x2="271" y2="386" stroke="#f85149" stroke-width="2.5" stroke-linecap="round"/>
  <text x="277" y="390" fill="#8b949e" font-size="11" font-family="-apple-system,BlinkMacSystemFont,Segoe UI,Helvetica,Arial,sans-serif">Closed</text>
</svg>