<svg xmlns="http://www.w3.org/2000/svg" viewBox="0 0 960 400" width="960" height="400">
  <defs>
    <linearGradient id="gR" x1="0" y1="0" x2="0" y2="1">
      <stop offset="0%" stop-color="#3fb950" stop-opacity="0.25"/>
      <stop offset="100%" stop-color="#3fb950" stop-opacity="0.02"/>
    </linearGradient>
    <linearGradient id="gO" x1="0" y1="0" x2="0" y2="1">
      <stop offset="0%" stop-color="#58a6ff" stop-opacity="0.25"/>
      <stop offset="100%" stop-color="#58a6ff" stop-opacity="0.02"/>
    </linearGradient>
    <linearGradient id="gOp" x1="0" y1="0" x2="0" y2="1">
      <stop offset="0%" stop-color="#d2a8ff" stop-opacity="0.25"/>
      <stop offset="100%" stop-color="#d2a8ff" stop-opacity="0.02"/>
    </linearGradient>
    <linearGradient id="gM" x1="0" y1="0" x2="0" y2="1">
      <stop offset="0%" stop-color="#f78166" stop-opacity="0.25"/>
      <stop offset="100%" stop-color="#f78166" stop-opacity="0.02"/>
    </linearGradient>
    <linearGradient id="gC" x1="0" y1="0" x2="0" y2="1">
      <stop offset="0%" stop-color="#f85149" stop-opacity="0.25"/>
      <stop offset="100%" stop-color="#f85149" stop-opacity="0.02"/>
    </linearGradient>
  </defs>
  <rect width="960" height="400" rx="12" fill="#0d1117"/>
  <rect width="960" height="400" rx="12" fill="none" stroke="#30363d" stroke-width="1"/>
  <text x="55" y="30" fill="#e6edf3" font-size="15" font-weight="600" font-family="-apple-system,BlinkMacSystemFont,Segoe UI,Helvetica,Arial,sans-serif">GitHub Activity — jlaportebot</text>
  <text x="880" y="30" fill="#8b949e" font-size="11" text-anchor="end" font-family="-apple-system,BlinkMacSystemFont,Segoe UI,Helvetica,Arial,sans-serif">Updated Jun 16, 2026</text>
  <line x1="55" y1="340.0" x2="880" y2="340.0" stroke="#21262d" stroke-width="1"/>
  <text x="47" y="344.0" fill="#8b949e" font-size="11" text-anchor="end" font-family="-apple-system,BlinkMacSystemFont,Segoe UI,Helvetica,Arial,sans-serif">0</text>
  <line x1="55" y1="323.7" x2="880" y2="323.7" stroke="#21262d" stroke-width="1"/>
  <text x="47" y="327.7" fill="#8b949e" font-size="11" text-anchor="end" font-family="-apple-system,BlinkMacSystemFont,Segoe UI,Helvetica,Arial,sans-serif">10</text>
  <line x1="55" y1="307.4" x2="880" y2="307.4" stroke="#21262d" stroke-width="1"/>
  <text x="47" y="311.4" fill="#8b949e" font-size="11" text-anchor="end" font-family="-apple-system,BlinkMacSystemFont,Segoe UI,Helvetica,Arial,sans-serif">20</text>
  <line x1="55" y1="291.1" x2="880" y2="291.1" stroke="#21262d" stroke-width="1"/>
  <text x="47" y="295.1" fill="#8b949e" font-size="11" text-anchor="end" font-family="-apple-system,BlinkMacSystemFont,Segoe UI,Helvetica,Arial,sans-serif">30</text>
  <line x1="55" y1="274.8" x2="880" y2="274.8" stroke="#21262d" stroke-width="1"/>
  <text x="47" y="278.8" fill="#8b949e" font-size="11" text-anchor="end" font-family="-apple-system,BlinkMacSystemFont,Segoe UI,Helvetica,Arial,sans-serif">40</text>
  <line x1="55" y1="258.5" x2="880" y2="258.5" stroke="#21262d" stroke-width="1"/>
  <text x="47" y="262.5" fill="#8b949e" font-size="11" text-anchor="end" font-family="-apple-system,BlinkMacSystemFont,Segoe UI,Helvetica,Arial,sans-serif">50</text>
  <line x1="55" y1="242.2" x2="880" y2="242.2" stroke="#21262d" stroke-width="1"/>
  <text x="47" y="246.2" fill="#8b949e" font-size="11" text-anchor="end" font-family="-apple-system,BlinkMacSystemFont,Segoe UI,Helvetica,Arial,sans-serif">60</text>
  <line x1="55" y1="226.0" x2="880" y2="226.0" stroke="#21262d" stroke-width="1"/>
  <text x="47" y="230.0" fill="#8b949e" font-size="11" text-anchor="end" font-family="-apple-system,BlinkMacSystemFont,Segoe UI,Helvetica,Arial,sans-serif">70</text>
  <line x1="55" y1="209.7" x2="880" y2="209.7" stroke="#21262d" stroke-width="1"/>
  <text x="47" y="213.7" fill="#8b949e" font-size="11" text-anchor="end" font-family="-apple-system,BlinkMacSystemFont,Segoe UI,Helvetica,Arial,sans-serif">80</text>
  <line x1="55" y1="193.4" x2="880" y2="193.4" stroke="#21262d" stroke-width="1"/>
  <text x="47" y="197.4" fill="#8b949e" font-size="11" text-anchor="end" font-family="-apple-system,BlinkMacSystemFont,Segoe UI,Helvetica,Arial,sans-serif">90</text>
  <line x1="55" y1="177.1" x2="880" y2="177.1" stroke="#21262d" stroke-width="1"/>
  <text x="47" y="181.1" fill="#8b949e" font-size="11" text-anchor="end" font-family="-apple-system,BlinkMacSystemFont,Segoe UI,Helvetica,Arial,sans-serif">100</text>
  <line x1="55" y1="160.8" x2="880" y2="160.8" stroke="#21262d" stroke-width="1"/>
  <text x="47" y="164.8" fill="#8b949e" font-size="11" text-anchor="end" font-family="-apple-system,BlinkMacSystemFont,Segoe UI,Helvetica,Arial,sans-serif">110</text>
  <line x1="55" y1="144.5" x2="880" y2="144.5" stroke="#21262d" stroke-width="1"/>
  <text x="47" y="148.5" fill="#8b949e" font-size="11" text-anchor="end" font-family="-apple-system,BlinkMacSystemFont,Segoe UI,Helvetica,Arial,sans-serif">120</text>
  <line x1="55" y1="128.2" x2="880" y2="128.2" stroke="#21262d" stroke-width="1"/>
  <text x="47" y="132.2" fill="#8b949e" font-size="11" text-anchor="end" font-family="-apple-system,BlinkMacSystemFont,Segoe UI,Helvetica,Arial,sans-serif">130</text>
  <line x1="55" y1="111.9" x2="880" y2="111.9" stroke="#21262d" stroke-width="1"/>
  <text x="47" y="115.9" fill="#8b949e" font-size="11" text-anchor="end" font-family="-apple-system,BlinkMacSystemFont,Segoe UI,Helvetica,Arial,sans-serif">140</text>
  <line x1="55" y1="95.6" x2="880" y2="95.6" stroke="#21262d" stroke-width="1"/>
  <text x="47" y="99.6" fill="#8b949e" font-size="11" text-anchor="end" font-family="-apple-system,BlinkMacSystemFont,Segoe UI,Helvetica,Arial,sans-serif">150</text>
  <line x1="55" y1="79.3" x2="880" y2="79.3" stroke="#21262d" stroke-width="1"/>
  <text x="47" y="83.3" fill="#8b949e" font-size="11" text-anchor="end" font-family="-apple-system,BlinkMacSystemFont,Segoe UI,Helvetica,Arial,sans-serif">160</text>
  <line x1="55" y1="63.0" x2="880" y2="63.0" stroke="#21262d" stroke-width="1"/>
  <text x="47" y="67.0" fill="#8b949e" font-size="11" text-anchor="end" font-family="-apple-system,BlinkMacSystemFont,Segoe UI,Helvetica,Arial,sans-serif">170</text>
  <line x1="55.0" y1="50" x2="55.0" y2="340" stroke="#21262d" stroke-width="1" stroke-dasharray="4,4"/>
  <text x="55.0" y="360" fill="#8b949e" font-size="10" text-anchor="middle" font-family="-apple-system,BlinkMacSystemFont,Segoe UI,Helvetica,Arial,sans-serif">May 02</text>
  <line x1="162.6" y1="50" x2="162.6" y2="340" stroke="#21262d" stroke-width="1" stroke-dasharray="4,4"/>
  <text x="162.6" y="360" fill="#8b949e" font-size="10" text-anchor="middle" font-family="-apple-system,BlinkMacSystemFont,Segoe UI,Helvetica,Arial,sans-serif">May 08</text>
  <line x1="270.2" y1="50" x2="270.2" y2="340" stroke="#21262d" stroke-width="1" stroke-dasharray="4,4"/>
  <text x="270.2" y="360" fill="#8b949e" font-size="10" text-anchor="middle" font-family="-apple-system,BlinkMacSystemFont,Segoe UI,Helvetica,Arial,sans-serif">May 14</text>
  <line x1="377.8" y1="50" x2="377.8" y2="340" stroke="#21262d" stroke-width="1" stroke-dasharray="4,4"/>
  <text x="377.8" y="360" fill="#8b949e" font-size="10" text-anchor="middle" font-family="-apple-system,BlinkMacSystemFont,Segoe UI,Helvetica,Arial,sans-serif">May 20</text>
  <line x1="485.4" y1="50" x2="485.4" y2="340" stroke="#21262d" stroke-width="1" stroke-dasharray="4,4"/>
  <text x="485.4" y="360" fill="#8b949e" font-size="10" text-anchor="middle" font-family="-apple-system,BlinkMacSystemFont,Segoe UI,Helvetica,Arial,sans-serif">May 26</text>
  <line x1="593.0" y1="50" x2="593.0" y2="340" stroke="#21262d" stroke-width="1" stroke-dasharray="4,4"/>
  <text x="593.0" y="360" fill="#8b949e" font-size="10" text-anchor="middle" font-family="-apple-system,BlinkMacSystemFont,Segoe UI,Helvetica,Arial,sans-serif">Jun 01</text>
  <line x1="700.7" y1="50" x2="700.7" y2="340" stroke="#21262d" stroke-width="1" stroke-dasharray="4,4"/>
  <text x="700.7" y="360" fill="#8b949e" font-size="10" text-anchor="middle" font-family="-apple-system,BlinkMacSystemFont,Segoe UI,Helvetica,Arial,sans-serif">Jun 07</text>
  <line x1="808.3" y1="50" x2="808.3" y2="340" stroke="#21262d" stroke-width="1" stroke-dasharray="4,4"/>
  <text x="808.3" y="360" fill="#8b949e" font-size="10" text-anchor="middle" font-family="-apple-system,BlinkMacSystemFont,Segoe UI,Helvetica,Arial,sans-serif">Jun 13</text>
  <line x1="880.0" y1="50" x2="880.0" y2="340" stroke="#21262d" stroke-width="1" stroke-dasharray="4,4"/>
  <text x="880.0" y="360" fill="#8b949e" font-size="10" text-anchor="middle" font-family="-apple-system,BlinkMacSystemFont,Segoe UI,Helvetica,Arial,sans-serif">Jun 17</text>
  <path d="M55.0,340.0L72.9,320.4L90.9,309.0L108.8,302.5L126.7,292.8L144.7,286.2L162.6,281.3L180.5,281.3L198.5,281.3L216.4,281.3L234.3,281.3L252.3,281.3L270.2,281.3L288.2,281.3L306.1,279.7L324.0,273.2L342.0,266.7L359.9,258.5L377.8,248.8L395.8,239.0L413.7,229.2L431.6,221.1L449.6,214.6L467.5,211.3L485.4,206.4L503.4,188.5L521.3,186.9L539.2,178.7L557.2,167.3L575.1,159.2L593.0,152.6L611.0,152.6L628.9,152.6L646.8,152.6L664.8,152.6L682.7,152.6L700.7,142.9L718.6,129.8L736.5,124.9L754.5,115.2L772.4,108.7L790.3,98.9L808.3,84.2L826.2,76.1L844.1,67.9L862.1,59.8L880.0,58.1L880.0,340.0L55.0,340.0Z" fill="url(#gO)"/>
  <path d="M55.0,338.4L72.9,338.4L90.9,338.4L108.8,338.4L126.7,338.4L144.7,338.4L162.6,338.4L180.5,338.4L198.5,338.4L216.4,338.4L234.3,338.4L252.3,338.4L270.2,338.4L288.2,338.4L306.1,338.4L324.0,333.5L342.0,333.5L359.9,333.5L377.8,333.5L395.8,333.5L413.7,333.5L431.6,333.5L449.6,331.9L467.5,327.0L485.4,327.0L503.4,325.3L521.3,325.3L539.2,325.3L557.2,325.3L575.1,325.3L593.0,322.1L611.0,322.1L628.9,322.1L646.8,322.1L664.8,322.1L682.7,322.1L700.7,322.1L718.6,318.8L736.5,299.3L754.5,299.3L772.4,299.3L790.3,299.3L808.3,286.2L826.2,286.2L844.1,286.2L862.1,286.2L880.0,286.2L880.0,340.0L55.0,340.0Z" fill="url(#gR)"/>
  <path d="M55.0,340.0L72.9,320.4L90.9,309.0L108.8,302.5L126.7,292.8L144.7,286.2L162.6,281.3L180.5,281.3L198.5,281.3L216.4,281.3L234.3,281.3L252.3,281.3L270.2,281.3L288.2,281.3L306.1,279.7L324.0,273.2L342.0,266.7L359.9,258.5L377.8,248.8L395.8,239.0L413.7,229.2L431.6,221.1L449.6,214.6L467.5,211.3L485.4,206.4L503.4,188.5L521.3,186.9L539.2,178.7L557.2,167.3L575.1,159.2L593.0,152.6L611.0,152.6L628.9,152.6L646.8,152.6L664.8,152.6L682.7,152.6L700.7,142.9L718.6,129.8L736.5,124.9L754.5,115.2L772.4,108.7L790.3,98.9L808.3,84.2L826.2,76.1L844.1,67.9L862.1,59.8L880.0,58.1" fill="none" stroke="#58a6ff" stroke-width="2.5" stroke-linecap="round" stroke-linejoin="round"/>
  <path d="M55.0,338.4L72.9,338.4L90.9,338.4L108.8,338.4L126.7,338.4L144.7,338.4L162.6,338.4L180.5,338.4L198.5,338.4L216.4,338.4L234.3,338.4L252.3,338.4L270.2,338.4L288.2,338.4L306.1,338.4L324.0,333.5L342.0,333.5L359.9,333.5L377.8,333.5L395.8,333.5L413.7,333.5L431.6,333.5L449.6,331.9L467.5,327.0L485.4,327.0L503.4,325.3L521.3,325.3L539.2,325.3L557.2,325.3L575.1,325.3L593.0,322.1L611.0,322.1L628.9,322.1L646.8,322.1L664.8,322.1L682.7,322.1L700.7,322.1L718.6,318.8L736.5,299.3L754.5,299.3L772.4,299.3L790.3,299.3L808.3,286.2L826.2,286.2L844.1,286.2L862.1,286.2L880.0,286.2" fill="none" stroke="#3fb950" stroke-width="2.5" stroke-linecap="round" stroke-linejoin="round"/>
  <path d="M55.0,340.0L72.9,328.6L90.9,320.4L108.8,317.2L126.7,309.0L144.7,310.7L162.6,305.8L180.5,307.4L198.5,307.4L216.4,309.0L234.3,309.0L252.3,309.0L270.2,309.0L288.2,309.0L306.1,307.4L324.0,305.8L342.0,304.2L359.9,299.3L377.8,289.5L395.8,283.0L413.7,276.5L431.6,271.6L449.6,271.6L467.5,273.2L485.4,276.5L503.4,269.9L521.3,268.3L539.2,268.3L557.2,263.4L575.1,271.6L593.0,266.7L611.0,266.7L628.9,266.7L646.8,266.7L664.8,276.5L682.7,276.5L700.7,274.8L718.6,283.0L736.5,340.0L754.5,340.0L772.4,340.0L790.3,340.0L808.3,333.5L826.2,333.5L844.1,330.2L862.1,330.2L880.0,328.6" fill="none" stroke="#d2a8ff" stroke-width="2.5" stroke-linecap="round" stroke-linejoin="round"/>
  <path d="M55.0,340.0L72.9,340.0L90.9,338.4L108.8,336.7L126.7,336.7L144.7,335.1L162.6,335.1L180.5,333.5L198.5,333.5L216.4,333.5L234.3,333.5L252.3,333.5L270.2,333.5L288.2,333.5L306.1,333.5L324.0,331.9L342.0,328.6L359.9,327.0L377.8,327.0L395.8,327.0L413.7,323.7L431.6,323.7L449.6,323.7L467.5,322.1L485.4,322.1L503.4,312.3L521.3,312.3L539.2,305.8L557.2,300.9L575.1,294.4L593.0,292.8L611.0,292.8L628.9,292.8L646.8,292.8L664.8,289.5L682.7,289.5L700.7,286.2L718.6,281.3L736.5,278.1L754.5,268.3L772.4,261.8L790.3,252.0L808.3,247.1L826.2,240.6L844.1,237.4L862.1,229.2L880.0,229.2" fill="none" stroke="#f78166" stroke-width="2.5" stroke-linecap="round" stroke-linejoin="round"/>
  <path d="M55.0,340.0L72.9,331.9L90.9,330.2L108.8,328.6L126.7,327.0L144.7,320.4L162.6,320.4L180.5,320.4L198.5,320.4L216.4,318.8L234.3,318.8L252.3,318.8L270.2,318.8L288.2,318.8L306.1,318.8L324.0,315.6L342.0,313.9L359.9,312.3L377.8,312.3L395.8,309.0L413.7,309.0L431.6,305.8L449.6,299.3L467.5,296.0L485.4,287.9L503.4,286.2L521.3,286.2L539.2,284.6L557.2,283.0L575.1,273.2L593.0,273.2L611.0,273.2L628.9,273.2L646.8,273.2L664.8,266.7L682.7,266.7L700.7,261.8L718.6,245.5L736.5,186.9L754.5,186.9L772.4,186.9L790.3,186.9L808.3,183.6L826.2,182.0L844.1,180.3L862.1,180.3L880.0,180.3" fill="none" stroke="#f85149" stroke-width="2.5" stroke-linecap="round" stroke-linejoin="round"/>
  <circle cx="880.0" cy="58.1" r="3.5" fill="#58a6ff"/>
  <text x="889.0" y="62.1" fill="#58a6ff" font-size="11" font-weight="600" font-family="-apple-system,BlinkMacSystemFont,Segoe UI,Helvetica,Arial,sans-serif">173</text>
  <circle cx="880.0" cy="286.2" r="3.5" fill="#3fb950"/>
  <text x="889.0" y="290.2" fill="#3fb950" font-size="11" font-weight="600" font-family="-apple-system,BlinkMacSystemFont,Segoe UI,Helvetica,Arial,sans-serif">33</text>
  <circle cx="880.0" cy="328.6" r="3.5" fill="#d2a8ff"/>
  <text x="889.0" y="332.6" fill="#d2a8ff" font-size="11" font-weight="600" font-family="-apple-system,BlinkMacSystemFont,Segoe UI,Helvetica,Arial,sans-serif">7</text>
  <circle cx="880.0" cy="229.2" r="3.5" fill="#f78166"/>
  <text x="889.0" y="233.2" fill="#f78166" font-size="11" font-weight="600" font-family="-apple-system,BlinkMacSystemFont,Segoe UI,Helvetica,Arial,sans-serif">68</text>
  <circle cx="880.0" cy="180.3" r="3.5" fill="#f85149"/>
  <text x="889.0" y="184.3" fill="#f85149" font-size="11" font-weight="600" font-family="-apple-system,BlinkMacSystemFont,Segoe UI,Helvetica,Arial,sans-serif">98</text>
  <line x1="55" y1="368" x2="71" y2="368" stroke="#3fb950" stroke-width="2.5" stroke-linecap="round"/>
  <text x="77" y="372" fill="#8b949e" font-size="11" font-family="-apple-system,BlinkMacSystemFont,Segoe UI,Helvetica,Arial,sans-serif">Repos</text>
  <line x1="255" y1="368" x2="271" y2="368" stroke="#58a6ff" stroke-width="2.5" stroke-linecap="round"/>
  <text x="277" y="372" fill="#8b949e" font-size="11" font-family="-apple-system,BlinkMacSystemFont,Segoe UI,Helvetica,Arial,sans-serif">PRs Opened</text>
  <line x1="455" y1="368" x2="471" y2="368" stroke="#d2a8ff" stroke-width="2.5" stroke-linecap="round"/>
  <text x="477" y="372" fill="#8b949e" font-size="11" font-family="-apple-system,BlinkMacSystemFont,Segoe UI,Helvetica,Arial,sans-serif">Open PRs</text>
  <line x1="55" y1="386" x2="71" y2="386" stroke="#f78166" stroke-width="2.5" stroke-linecap="round"/>
  <text x="77" y="390" fill="#8b949e" font-size="11" font-family="-apple-system,BlinkMacSystemFont,Segoe UI,Helvetica,Arial,sans-serif">Merged</text>
  <line x1="255" y1="386" x2="271" y2="386" stroke="#f85149" stroke-width="2.5" stroke-linecap="round"/>
  <text x="277" y="390" fill="#8b949e" font-size="11" font-family="-apple-system,BlinkMacSystemFont,Segoe UI,Helvetica,Arial,sans-serif">Closed</text>
</svg>