<svg xmlns="http://www.w3.org/2000/svg" viewBox="0 0 960 400" width="960" height="400">
  <defs>
    <linearGradient id="gR" x1="0" y1="0" x2="0" y2="1">
      <stop offset="0%" stop-color="#f78166" stop-opacity="0.25"/>
      <stop offset="100%" stop-color="#f78166" stop-opacity="0.02"/>
    </linearGradient>
    <linearGradient id="gO" x1="0" y1="0" x2="0" y2="1">
      <stop offset="0%" stop-color="#58a6ff" stop-opacity="0.25"/>
      <stop offset="100%" stop-color="#58a6ff" stop-opacity="0.02"/>
    </linearGradient>
    <linearGradient id="gOp" x1="0" y1="0" x2="0" y2="1">
      <stop offset="0%" stop-color="#3fb950" stop-opacity="0.25"/>
      <stop offset="100%" stop-color="#3fb950" stop-opacity="0.02"/>
    </linearGradient>
    <linearGradient id="gM" x1="0" y1="0" x2="0" y2="1">
      <stop offset="0%" stop-color="#d2a8ff" stop-opacity="0.25"/>
      <stop offset="100%" stop-color="#d2a8ff" stop-opacity="0.02"/>
    </linearGradient>
    <linearGradient id="gC" x1="0" y1="0" x2="0" y2="1">
      <stop offset="0%" stop-color="#f85149" stop-opacity="0.25"/>
      <stop offset="100%" stop-color="#f85149" stop-opacity="0.02"/>
    </linearGradient>
  </defs>
  <rect width="960" height="400" rx="12" fill="#0d1117"/>
  <rect width="960" height="400" rx="12" fill="none" stroke="#30363d" stroke-width="1"/>
  <text x="55" y="30" fill="#e6edf3" font-size="15" font-weight="600" font-family="-apple-system,BlinkMacSystemFont,Segoe UI,Helvetica,Arial,sans-serif">GitHub Activity — jlaportebot</text>
  <text x="880" y="30" fill="#8b949e" font-size="11" text-anchor="end" font-family="-apple-system,BlinkMacSystemFont,Segoe UI,Helvetica,Arial,sans-serif">Updated Jul 17, 2026</text>
  <line x1="55" y1="340.0" x2="880" y2="340.0" stroke="#21262d" stroke-width="1"/>
  <text x="47" y="344.0" fill="#8b949e" font-size="11" text-anchor="end" font-family="-apple-system,BlinkMacSystemFont,Segoe UI,Helvetica,Arial,sans-serif">0</text>
  <line x1="55" y1="329.3" x2="880" y2="329.3" stroke="#21262d" stroke-width="1"/>
  <text x="47" y="333.3" fill="#8b949e" font-size="11" text-anchor="end" font-family="-apple-system,BlinkMacSystemFont,Segoe UI,Helvetica,Arial,sans-serif">10</text>
  <line x1="55" y1="318.7" x2="880" y2="318.7" stroke="#21262d" stroke-width="1"/>
  <text x="47" y="322.7" fill="#8b949e" font-size="11" text-anchor="end" font-family="-apple-system,BlinkMacSystemFont,Segoe UI,Helvetica,Arial,sans-serif">20</text>
  <line x1="55" y1="308.0" x2="880" y2="308.0" stroke="#21262d" stroke-width="1"/>
  <text x="47" y="312.0" fill="#8b949e" font-size="11" text-anchor="end" font-family="-apple-system,BlinkMacSystemFont,Segoe UI,Helvetica,Arial,sans-serif">30</text>
  <line x1="55" y1="297.4" x2="880" y2="297.4" stroke="#21262d" stroke-width="1"/>
  <text x="47" y="301.4" fill="#8b949e" font-size="11" text-anchor="end" font-family="-apple-system,BlinkMacSystemFont,Segoe UI,Helvetica,Arial,sans-serif">40</text>
  <line x1="55" y1="286.7" x2="880" y2="286.7" stroke="#21262d" stroke-width="1"/>
  <text x="47" y="290.7" fill="#8b949e" font-size="11" text-anchor="end" font-family="-apple-system,BlinkMacSystemFont,Segoe UI,Helvetica,Arial,sans-serif">50</text>
  <line x1="55" y1="276.0" x2="880" y2="276.0" stroke="#21262d" stroke-width="1"/>
  <text x="47" y="280.0" fill="#8b949e" font-size="11" text-anchor="end" font-family="-apple-system,BlinkMacSystemFont,Segoe UI,Helvetica,Arial,sans-serif">60</text>
  <line x1="55" y1="265.4" x2="880" y2="265.4" stroke="#21262d" stroke-width="1"/>
  <text x="47" y="269.4" fill="#8b949e" font-size="11" text-anchor="end" font-family="-apple-system,BlinkMacSystemFont,Segoe UI,Helvetica,Arial,sans-serif">70</text>
  <line x1="55" y1="254.7" x2="880" y2="254.7" stroke="#21262d" stroke-width="1"/>
  <text x="47" y="258.7" fill="#8b949e" font-size="11" text-anchor="end" font-family="-apple-system,BlinkMacSystemFont,Segoe UI,Helvetica,Arial,sans-serif">80</text>
  <line x1="55" y1="244.0" x2="880" y2="244.0" stroke="#21262d" stroke-width="1"/>
  <text x="47" y="248.0" fill="#8b949e" font-size="11" text-anchor="end" font-family="-apple-system,BlinkMacSystemFont,Segoe UI,Helvetica,Arial,sans-serif">90</text>
  <line x1="55" y1="233.4" x2="880" y2="233.4" stroke="#21262d" stroke-width="1"/>
  <text x="47" y="237.4" fill="#8b949e" font-size="11" text-anchor="end" font-family="-apple-system,BlinkMacSystemFont,Segoe UI,Helvetica,Arial,sans-serif">100</text>
  <line x1="55" y1="222.7" x2="880" y2="222.7" stroke="#21262d" stroke-width="1"/>
  <text x="47" y="226.7" fill="#8b949e" font-size="11" text-anchor="end" font-family="-apple-system,BlinkMacSystemFont,Segoe UI,Helvetica,Arial,sans-serif">110</text>
  <line x1="55" y1="212.1" x2="880" y2="212.1" stroke="#21262d" stroke-width="1"/>
  <text x="47" y="216.1" fill="#8b949e" font-size="11" text-anchor="end" font-family="-apple-system,BlinkMacSystemFont,Segoe UI,Helvetica,Arial,sans-serif">120</text>
  <line x1="55" y1="201.4" x2="880" y2="201.4" stroke="#21262d" stroke-width="1"/>
  <text x="47" y="205.4" fill="#8b949e" font-size="11" text-anchor="end" font-family="-apple-system,BlinkMacSystemFont,Segoe UI,Helvetica,Arial,sans-serif">130</text>
  <line x1="55" y1="190.7" x2="880" y2="190.7" stroke="#21262d" stroke-width="1"/>
  <text x="47" y="194.7" fill="#8b949e" font-size="11" text-anchor="end" font-family="-apple-system,BlinkMacSystemFont,Segoe UI,Helvetica,Arial,sans-serif">140</text>
  <line x1="55" y1="180.1" x2="880" y2="180.1" stroke="#21262d" stroke-width="1"/>
  <text x="47" y="184.1" fill="#8b949e" font-size="11" text-anchor="end" font-family="-apple-system,BlinkMacSystemFont,Segoe UI,Helvetica,Arial,sans-serif">150</text>
  <line x1="55" y1="169.4" x2="880" y2="169.4" stroke="#21262d" stroke-width="1"/>
  <text x="47" y="173.4" fill="#8b949e" font-size="11" text-anchor="end" font-family="-apple-system,BlinkMacSystemFont,Segoe UI,Helvetica,Arial,sans-serif">160</text>
  <line x1="55" y1="158.8" x2="880" y2="158.8" stroke="#21262d" stroke-width="1"/>
  <text x="47" y="162.8" fill="#8b949e" font-size="11" text-anchor="end" font-family="-apple-system,BlinkMacSystemFont,Segoe UI,Helvetica,Arial,sans-serif">170</text>
  <line x1="55" y1="148.1" x2="880" y2="148.1" stroke="#21262d" stroke-width="1"/>
  <text x="47" y="152.1" fill="#8b949e" font-size="11" text-anchor="end" font-family="-apple-system,BlinkMacSystemFont,Segoe UI,Helvetica,Arial,sans-serif">180</text>
  <line x1="55" y1="137.4" x2="880" y2="137.4" stroke="#21262d" stroke-width="1"/>
  <text x="47" y="141.4" fill="#8b949e" font-size="11" text-anchor="end" font-family="-apple-system,BlinkMacSystemFont,Segoe UI,Helvetica,Arial,sans-serif">190</text>
  <line x1="55" y1="126.8" x2="880" y2="126.8" stroke="#21262d" stroke-width="1"/>
  <text x="47" y="130.8" fill="#8b949e" font-size="11" text-anchor="end" font-family="-apple-system,BlinkMacSystemFont,Segoe UI,Helvetica,Arial,sans-serif">200</text>
  <line x1="55" y1="116.1" x2="880" y2="116.1" stroke="#21262d" stroke-width="1"/>
  <text x="47" y="120.1" fill="#8b949e" font-size="11" text-anchor="end" font-family="-apple-system,BlinkMacSystemFont,Segoe UI,Helvetica,Arial,sans-serif">210</text>
  <line x1="55" y1="105.4" x2="880" y2="105.4" stroke="#21262d" stroke-width="1"/>
  <text x="47" y="109.4" fill="#8b949e" font-size="11" text-anchor="end" font-family="-apple-system,BlinkMacSystemFont,Segoe UI,Helvetica,Arial,sans-serif">220</text>
  <line x1="55" y1="94.8" x2="880" y2="94.8" stroke="#21262d" stroke-width="1"/>
  <text x="47" y="98.8" fill="#8b949e" font-size="11" text-anchor="end" font-family="-apple-system,BlinkMacSystemFont,Segoe UI,Helvetica,Arial,sans-serif">230</text>
  <line x1="55" y1="84.1" x2="880" y2="84.1" stroke="#21262d" stroke-width="1"/>
  <text x="47" y="88.1" fill="#8b949e" font-size="11" text-anchor="end" font-family="-apple-system,BlinkMacSystemFont,Segoe UI,Helvetica,Arial,sans-serif">240</text>
  <line x1="55" y1="73.5" x2="880" y2="73.5" stroke="#21262d" stroke-width="1"/>
  <text x="47" y="77.5" fill="#8b949e" font-size="11" text-anchor="end" font-family="-apple-system,BlinkMacSystemFont,Segoe UI,Helvetica,Arial,sans-serif">250</text>
  <line x1="55" y1="62.8" x2="880" y2="62.8" stroke="#21262d" stroke-width="1"/>
  <text x="47" y="66.8" fill="#8b949e" font-size="11" text-anchor="end" font-family="-apple-system,BlinkMacSystemFont,Segoe UI,Helvetica,Arial,sans-serif">260</text>
  <line x1="55" y1="52.1" x2="880" y2="52.1" stroke="#21262d" stroke-width="1"/>
  <text x="47" y="56.1" fill="#8b949e" font-size="11" text-anchor="end" font-family="-apple-system,BlinkMacSystemFont,Segoe UI,Helvetica,Arial,sans-serif">270</text>
  <line x1="55.0" y1="50" x2="55.0" y2="340" stroke="#21262d" stroke-width="1" stroke-dasharray="4,4"/>
  <text x="55.0" y="360" fill="#8b949e" font-size="10" text-anchor="middle" font-family="-apple-system,BlinkMacSystemFont,Segoe UI,Helvetica,Arial,sans-serif">May 02</text>
  <line x1="174.4" y1="50" x2="174.4" y2="340" stroke="#21262d" stroke-width="1" stroke-dasharray="4,4"/>
  <text x="174.4" y="360" fill="#8b949e" font-size="10" text-anchor="middle" font-family="-apple-system,BlinkMacSystemFont,Segoe UI,Helvetica,Arial,sans-serif">May 13</text>
  <line x1="293.8" y1="50" x2="293.8" y2="340" stroke="#21262d" stroke-width="1" stroke-dasharray="4,4"/>
  <text x="293.8" y="360" fill="#8b949e" font-size="10" text-anchor="middle" font-family="-apple-system,BlinkMacSystemFont,Segoe UI,Helvetica,Arial,sans-serif">May 24</text>
  <line x1="413.2" y1="50" x2="413.2" y2="340" stroke="#21262d" stroke-width="1" stroke-dasharray="4,4"/>
  <text x="413.2" y="360" fill="#8b949e" font-size="10" text-anchor="middle" font-family="-apple-system,BlinkMacSystemFont,Segoe UI,Helvetica,Arial,sans-serif">Jun 04</text>
  <line x1="532.6" y1="50" x2="532.6" y2="340" stroke="#21262d" stroke-width="1" stroke-dasharray="4,4"/>
  <text x="532.6" y="360" fill="#8b949e" font-size="10" text-anchor="middle" font-family="-apple-system,BlinkMacSystemFont,Segoe UI,Helvetica,Arial,sans-serif">Jun 15</text>
  <line x1="652.0" y1="50" x2="652.0" y2="340" stroke="#21262d" stroke-width="1" stroke-dasharray="4,4"/>
  <text x="652.0" y="360" fill="#8b949e" font-size="10" text-anchor="middle" font-family="-apple-system,BlinkMacSystemFont,Segoe UI,Helvetica,Arial,sans-serif">Jun 26</text>
  <line x1="771.4" y1="50" x2="771.4" y2="340" stroke="#21262d" stroke-width="1" stroke-dasharray="4,4"/>
  <text x="771.4" y="360" fill="#8b949e" font-size="10" text-anchor="middle" font-family="-apple-system,BlinkMacSystemFont,Segoe UI,Helvetica,Arial,sans-serif">Jul 07</text>
  <line x1="880.0" y1="50" x2="880.0" y2="340" stroke="#21262d" stroke-width="1" stroke-dasharray="4,4"/>
  <text x="880.0" y="360" fill="#8b949e" font-size="10" text-anchor="middle" font-family="-apple-system,BlinkMacSystemFont,Segoe UI,Helvetica,Arial,sans-serif">Jul 17</text>
  <path d="M55.0,340.0L65.9,327.2L76.7,319.7L87.6,315.5L98.4,309.1L109.3,304.8L120.1,301.6L131.0,301.6L141.8,301.6L152.7,301.6L163.6,301.6L174.4,301.6L185.3,301.6L196.1,301.6L207.0,300.6L217.8,296.3L228.7,292.0L239.5,286.7L250.4,280.3L261.2,273.9L272.1,267.5L283.0,262.2L293.8,257.9L304.7,255.8L315.5,252.6L326.4,240.8L337.2,239.8L348.1,234.4L358.9,227.0L369.8,221.7L380.7,217.4L391.5,217.4L402.4,217.4L413.2,217.4L424.1,217.4L434.9,217.4L445.8,211.0L456.6,202.5L467.5,199.3L478.4,192.9L489.2,188.6L500.1,182.2L510.9,172.6L521.8,167.3L532.6,161.9L543.5,156.6L554.3,147.0L565.2,140.6L576.1,132.1L586.9,125.7L597.8,120.4L608.6,116.1L619.5,109.7L630.3,102.2L641.2,98.0L652.0,94.8L662.9,87.3L673.8,80.9L684.6,72.4L695.5,72.4L706.3,70.3L717.2,70.3L728.0,70.3L738.9,68.1L749.7,64.9L760.6,61.7L771.4,60.7L782.3,55.3L793.2,55.3L804.0,55.3L814.9,55.3L825.7,55.3L836.6,55.3L847.4,55.3L858.3,55.3L869.1,55.3L880.0,55.3L880.0,340.0L55.0,340.0Z" fill="url(#gO)"/>
  <path d="M55.0,338.9L65.9,338.9L76.7,338.9L87.6,338.9L98.4,338.9L109.3,338.9L120.1,338.9L131.0,338.9L141.8,338.9L152.7,338.9L163.6,338.9L174.4,338.9L185.3,338.9L196.1,338.9L207.0,338.9L217.8,335.7L228.7,335.7L239.5,335.7L250.4,335.7L261.2,335.7L272.1,335.7L283.0,335.7L293.8,334.7L304.7,331.5L315.5,331.5L326.4,330.4L337.2,330.4L348.1,330.4L358.9,330.4L369.8,330.4L380.7,328.3L391.5,328.3L402.4,328.3L413.2,328.3L424.1,328.3L434.9,328.3L445.8,328.3L456.6,326.1L467.5,313.3L478.4,313.3L489.2,313.3L500.1,313.3L510.9,304.8L521.8,304.8L532.6,304.8L543.5,304.8L554.3,304.8L565.2,302.7L576.1,302.7L586.9,301.6L597.8,300.6L608.6,299.5L619.5,298.4L630.3,296.3L641.2,292.0L652.0,291.0L662.9,289.9L673.8,289.9L684.6,289.9L695.5,289.9L706.3,289.9L717.2,289.9L728.0,289.9L738.9,289.9L749.7,289.9L760.6,289.9L771.4,289.9L782.3,289.9L793.2,288.8L804.0,287.8L814.9,284.6L825.7,284.6L836.6,283.5L847.4,283.5L858.3,283.5L869.1,283.5L880.0,283.5L880.0,340.0L55.0,340.0Z" fill="url(#gR)"/>
  <path d="M55.0,340.0L65.9,327.2L76.7,319.7L87.6,315.5L98.4,309.1L109.3,304.8L120.1,301.6L131.0,301.6L141.8,301.6L152.7,301.6L163.6,301.6L174.4,301.6L185.3,301.6L196.1,301.6L207.0,300.6L217.8,296.3L228.7,292.0L239.5,286.7L250.4,280.3L261.2,273.9L272.1,267.5L283.0,262.2L293.8,257.9L304.7,255.8L315.5,252.6L326.4,240.8L337.2,239.8L348.1,234.4L358.9,227.0L369.8,221.7L380.7,217.4L391.5,217.4L402.4,217.4L413.2,217.4L424.1,217.4L434.9,217.4L445.8,211.0L456.6,202.5L467.5,199.3L478.4,192.9L489.2,188.6L500.1,182.2L510.9,172.6L521.8,167.3L532.6,161.9L543.5,156.6L554.3,147.0L565.2,140.6L576.1,132.1L586.9,125.7L597.8,120.4L608.6,116.1L619.5,109.7L630.3,102.2L641.2,98.0L652.0,94.8L662.9,87.3L673.8,80.9L684.6,72.4L695.5,72.4L706.3,70.3L717.2,70.3L728.0,70.3L738.9,68.1L749.7,64.9L760.6,61.7L771.4,60.7L782.3,55.3L793.2,55.3L804.0,55.3L814.9,55.3L825.7,55.3L836.6,55.3L847.4,55.3L858.3,55.3L869.1,55.3L880.0,55.3" fill="none" stroke="#58a6ff" stroke-width="2.5" stroke-linecap="round" stroke-linejoin="round"/>
  <path d="M55.0,338.9L65.9,338.9L76.7,338.9L87.6,338.9L98.4,338.9L109.3,338.9L120.1,338.9L131.0,338.9L141.8,338.9L152.7,338.9L163.6,338.9L174.4,338.9L185.3,338.9L196.1,338.9L207.0,338.9L217.8,335.7L228.7,335.7L239.5,335.7L250.4,335.7L261.2,335.7L272.1,335.7L283.0,335.7L293.8,334.7L304.7,331.5L315.5,331.5L326.4,330.4L337.2,330.4L348.1,330.4L358.9,330.4L369.8,330.4L380.7,328.3L391.5,328.3L402.4,328.3L413.2,328.3L424.1,328.3L434.9,328.3L445.8,328.3L456.6,326.1L467.5,313.3L478.4,313.3L489.2,313.3L500.1,313.3L510.9,304.8L521.8,304.8L532.6,304.8L543.5,304.8L554.3,304.8L565.2,302.7L576.1,302.7L586.9,301.6L597.8,300.6L608.6,299.5L619.5,298.4L630.3,296.3L641.2,292.0L652.0,291.0L662.9,289.9L673.8,289.9L684.6,289.9L695.5,289.9L706.3,289.9L717.2,289.9L728.0,289.9L738.9,289.9L749.7,289.9L760.6,289.9L771.4,289.9L782.3,289.9L793.2,288.8L804.0,287.8L814.9,284.6L825.7,284.6L836.6,283.5L847.4,283.5L858.3,283.5L869.1,283.5L880.0,283.5" fill="none" stroke="#f78166" stroke-width="2.5" stroke-linecap="round" stroke-linejoin="round"/>
  <path d="M55.0,340.0L65.9,332.5L76.7,327.2L87.6,325.1L98.4,319.7L109.3,320.8L120.1,317.6L131.0,318.7L141.8,318.7L152.7,319.7L163.6,319.7L174.4,319.7L185.3,319.7L196.1,319.7L207.0,318.7L217.8,317.6L228.7,316.5L239.5,313.3L250.4,306.9L261.2,302.7L272.1,298.4L283.0,295.2L293.8,295.2L304.7,296.3L315.5,298.4L326.4,294.2L337.2,293.1L348.1,293.1L358.9,289.9L369.8,295.2L380.7,292.0L391.5,292.0L402.4,292.0L413.2,292.0L424.1,298.4L434.9,298.4L445.8,297.4L456.6,302.7L467.5,340.0L478.4,340.0L489.2,340.0L500.1,340.0L510.9,335.7L521.8,335.7L532.6,333.6L543.5,333.6L554.3,332.5L565.2,329.3L576.1,330.4L586.9,328.3L597.8,328.3L608.6,330.4L619.5,329.3L630.3,330.4L641.2,327.2L652.0,328.3L662.9,328.3L673.8,322.9L684.6,319.7L695.5,319.7L706.3,320.8L717.2,324.0L728.0,324.0L738.9,322.9L749.7,321.9L760.6,321.9L771.4,320.8L782.3,318.7L793.2,318.7L804.0,318.7L814.9,318.7L825.7,318.7L836.6,318.7L847.4,318.7L858.3,318.7L869.1,318.7L880.0,318.7" fill="none" stroke="#3fb950" stroke-width="2.5" stroke-linecap="round" stroke-linejoin="round"/>
  <path d="M55.0,340.0L65.9,340.0L76.7,338.9L87.6,337.9L98.4,337.9L109.3,336.8L120.1,336.8L131.0,335.7L141.8,335.7L152.7,335.7L163.6,335.7L174.4,335.7L185.3,335.7L196.1,335.7L207.0,335.7L217.8,334.7L228.7,332.5L239.5,331.5L250.4,331.5L261.2,331.5L272.1,329.3L283.0,329.3L293.8,329.3L304.7,328.3L315.5,328.3L326.4,321.9L337.2,321.9L348.1,317.6L358.9,314.4L369.8,310.1L380.7,309.1L391.5,309.1L402.4,309.1L413.2,309.1L424.1,306.9L434.9,306.9L445.8,304.8L456.6,301.6L467.5,299.5L478.4,293.1L489.2,288.8L500.1,282.4L510.9,279.2L521.8,275.0L532.6,272.8L543.5,267.5L554.3,259.0L565.2,255.8L576.1,249.4L586.9,246.2L597.8,240.8L608.6,234.4L619.5,229.1L630.3,220.6L641.2,219.5L652.0,217.4L662.9,212.1L673.8,212.1L684.6,206.7L695.5,206.7L706.3,204.6L717.2,204.6L728.0,204.6L738.9,204.6L749.7,203.5L760.6,201.4L771.4,201.4L782.3,199.3L793.2,199.3L804.0,199.3L814.9,199.3L825.7,199.3L836.6,199.3L847.4,199.3L858.3,199.3L869.1,199.3L880.0,199.3" fill="none" stroke="#d2a8ff" stroke-width="2.5" stroke-linecap="round" stroke-linejoin="round"/>
  <path d="M55.0,340.0L65.9,334.7L76.7,333.6L87.6,332.5L98.4,331.5L109.3,327.2L120.1,327.2L131.0,327.2L141.8,327.2L152.7,326.1L163.6,326.1L174.4,326.1L185.3,326.1L196.1,326.1L207.0,326.1L217.8,324.0L228.7,322.9L239.5,321.9L250.4,321.9L261.2,319.7L272.1,319.7L283.0,317.6L293.8,313.3L304.7,311.2L315.5,305.9L326.4,304.8L337.2,304.8L348.1,303.8L358.9,302.7L369.8,296.3L380.7,296.3L391.5,296.3L402.4,296.3L413.2,296.3L424.1,292.0L434.9,292.0L445.8,288.8L456.6,278.2L467.5,239.8L478.4,239.8L489.2,239.8L500.1,239.8L510.9,237.6L521.8,236.6L532.6,235.5L543.5,235.5L554.3,235.5L565.2,235.5L576.1,232.3L586.9,231.2L597.8,231.2L608.6,231.2L619.5,231.2L630.3,231.2L641.2,231.2L652.0,229.1L662.9,227.0L673.8,225.9L684.6,225.9L695.5,225.9L706.3,224.9L717.2,221.7L728.0,221.7L738.9,220.6L749.7,219.5L760.6,218.5L771.4,218.5L782.3,217.4L793.2,217.4L804.0,217.4L814.9,217.4L825.7,217.4L836.6,217.4L847.4,217.4L858.3,217.4L869.1,217.4L880.0,217.4" fill="none" stroke="#f85149" stroke-width="2.5" stroke-linecap="round" stroke-linejoin="round"/>
  <circle cx="880.0" cy="55.3" r="3.5" fill="#58a6ff"/>
  <text x="889.0" y="59.3" fill="#58a6ff" font-size="11" font-weight="600" font-family="-apple-system,BlinkMacSystemFont,Segoe UI,Helvetica,Arial,sans-serif">267</text>
  <circle cx="880.0" cy="283.5" r="3.5" fill="#f78166"/>
  <text x="889.0" y="287.5" fill="#f78166" font-size="11" font-weight="600" font-family="-apple-system,BlinkMacSystemFont,Segoe UI,Helvetica,Arial,sans-serif">53</text>
  <circle cx="880.0" cy="318.7" r="3.5" fill="#3fb950"/>
  <text x="889.0" y="322.7" fill="#3fb950" font-size="11" font-weight="600" font-family="-apple-system,BlinkMacSystemFont,Segoe UI,Helvetica,Arial,sans-serif">20</text>
  <circle cx="880.0" cy="199.3" r="3.5" fill="#d2a8ff"/>
  <text x="889.0" y="203.3" fill="#d2a8ff" font-size="11" font-weight="600" font-family="-apple-system,BlinkMacSystemFont,Segoe UI,Helvetica,Arial,sans-serif">132</text>
  <circle cx="880.0" cy="217.4" r="3.5" fill="#f85149"/>
  <text x="889.0" y="221.4" fill="#f85149" font-size="11" font-weight="600" font-family="-apple-system,BlinkMacSystemFont,Segoe UI,Helvetica,Arial,sans-serif">115</text>
  <line x1="55" y1="368" x2="71" y2="368" stroke="#f78166" stroke-width="2.5" stroke-linecap="round"/>
  <text x="77" y="372" fill="#8b949e" font-size="11" font-family="-apple-system,BlinkMacSystemFont,Segoe UI,Helvetica,Arial,sans-serif">Repos</text>
  <line x1="255" y1="368" x2="271" y2="368" stroke="#58a6ff" stroke-width="2.5" stroke-linecap="round"/>
  <text x="277" y="372" fill="#8b949e" font-size="11" font-family="-apple-system,BlinkMacSystemFont,Segoe UI,Helvetica,Arial,sans-serif">PRs Opened</text>
  <line x1="455" y1="368" x2="471" y2="368" stroke="#3fb950" stroke-width="2.5" stroke-linecap="round"/>
  <text x="477" y="372" fill="#8b949e" font-size="11" font-family="-apple-system,BlinkMacSystemFont,Segoe UI,Helvetica,Arial,sans-serif">Open PRs</text>
  <line x1="55" y1="386" x2="71" y2="386" stroke="#d2a8ff" stroke-width="2.5" stroke-linecap="round"/>
  <text x="77" y="390" fill="#8b949e" font-size="11" font-family="-apple-system,BlinkMacSystemFont,Segoe UI,Helvetica,Arial,sans-serif">Merged</text>
  <line x1="255" y1="386" x2="271" y2="386" stroke="#f85149" stroke-width="2.5" stroke-linecap="round"/>
  <text x="277" y="390" fill="#8b949e" font-size="11" font-family="-apple-system,BlinkMacSystemFont,Segoe UI,Helvetica,Arial,sans-serif">Closed</text>
</svg>