<svg xmlns="http://www.w3.org/2000/svg" viewBox="0 0 960 400" width="960" height="400">
  <defs>
    <linearGradient id="gR" x1="0" y1="0" x2="0" y2="1">
      <stop offset="0%" stop-color="#f78166" stop-opacity="0.25"/>
      <stop offset="100%" stop-color="#f78166" stop-opacity="0.02"/>
    </linearGradient>
    <linearGradient id="gO" x1="0" y1="0" x2="0" y2="1">
      <stop offset="0%" stop-color="#58a6ff" stop-opacity="0.25"/>
      <stop offset="100%" stop-color="#58a6ff" stop-opacity="0.02"/>
    </linearGradient>
    <linearGradient id="gOp" x1="0" y1="0" x2="0" y2="1">
      <stop offset="0%" stop-color="#3fb950" stop-opacity="0.25"/>
      <stop offset="100%" stop-color="#3fb950" stop-opacity="0.02"/>
    </linearGradient>
    <linearGradient id="gM" x1="0" y1="0" x2="0" y2="1">
      <stop offset="0%" stop-color="#d2a8ff" stop-opacity="0.25"/>
      <stop offset="100%" stop-color="#d2a8ff" stop-opacity="0.02"/>
    </linearGradient>
    <linearGradient id="gC" x1="0" y1="0" x2="0" y2="1">
      <stop offset="0%" stop-color="#f85149" stop-opacity="0.25"/>
      <stop offset="100%" stop-color="#f85149" stop-opacity="0.02"/>
    </linearGradient>
  </defs>
  <rect width="960" height="400" rx="12" fill="#0d1117"/>
  <rect width="960" height="400" rx="12" fill="none" stroke="#30363d" stroke-width="1"/>
  <text x="55" y="30" fill="#e6edf3" font-size="15" font-weight="600" font-family="-apple-system,BlinkMacSystemFont,Segoe UI,Helvetica,Arial,sans-serif">GitHub Activity — jlaportebot</text>
  <text x="880" y="30" fill="#8b949e" font-size="11" text-anchor="end" font-family="-apple-system,BlinkMacSystemFont,Segoe UI,Helvetica,Arial,sans-serif">Updated Jul 16, 2026</text>
  <line x1="55" y1="340.0" x2="880" y2="340.0" stroke="#21262d" stroke-width="1"/>
  <text x="47" y="344.0" fill="#8b949e" font-size="11" text-anchor="end" font-family="-apple-system,BlinkMacSystemFont,Segoe UI,Helvetica,Arial,sans-serif">0</text>
  <line x1="55" y1="329.3" x2="880" y2="329.3" stroke="#21262d" stroke-width="1"/>
  <text x="47" y="333.3" fill="#8b949e" font-size="11" text-anchor="end" font-family="-apple-system,BlinkMacSystemFont,Segoe UI,Helvetica,Arial,sans-serif">10</text>
  <line x1="55" y1="318.7" x2="880" y2="318.7" stroke="#21262d" stroke-width="1"/>
  <text x="47" y="322.7" fill="#8b949e" font-size="11" text-anchor="end" font-family="-apple-system,BlinkMacSystemFont,Segoe UI,Helvetica,Arial,sans-serif">20</text>
  <line x1="55" y1="308.0" x2="880" y2="308.0" stroke="#21262d" stroke-width="1"/>
  <text x="47" y="312.0" fill="#8b949e" font-size="11" text-anchor="end" font-family="-apple-system,BlinkMacSystemFont,Segoe UI,Helvetica,Arial,sans-serif">30</text>
  <line x1="55" y1="297.4" x2="880" y2="297.4" stroke="#21262d" stroke-width="1"/>
  <text x="47" y="301.4" fill="#8b949e" font-size="11" text-anchor="end" font-family="-apple-system,BlinkMacSystemFont,Segoe UI,Helvetica,Arial,sans-serif">40</text>
  <line x1="55" y1="286.7" x2="880" y2="286.7" stroke="#21262d" stroke-width="1"/>
  <text x="47" y="290.7" fill="#8b949e" font-size="11" text-anchor="end" font-family="-apple-system,BlinkMacSystemFont,Segoe UI,Helvetica,Arial,sans-serif">50</text>
  <line x1="55" y1="276.0" x2="880" y2="276.0" stroke="#21262d" stroke-width="1"/>
  <text x="47" y="280.0" fill="#8b949e" font-size="11" text-anchor="end" font-family="-apple-system,BlinkMacSystemFont,Segoe UI,Helvetica,Arial,sans-serif">60</text>
  <line x1="55" y1="265.4" x2="880" y2="265.4" stroke="#21262d" stroke-width="1"/>
  <text x="47" y="269.4" fill="#8b949e" font-size="11" text-anchor="end" font-family="-apple-system,BlinkMacSystemFont,Segoe UI,Helvetica,Arial,sans-serif">70</text>
  <line x1="55" y1="254.7" x2="880" y2="254.7" stroke="#21262d" stroke-width="1"/>
  <text x="47" y="258.7" fill="#8b949e" font-size="11" text-anchor="end" font-family="-apple-system,BlinkMacSystemFont,Segoe UI,Helvetica,Arial,sans-serif">80</text>
  <line x1="55" y1="244.0" x2="880" y2="244.0" stroke="#21262d" stroke-width="1"/>
  <text x="47" y="248.0" fill="#8b949e" font-size="11" text-anchor="end" font-family="-apple-system,BlinkMacSystemFont,Segoe UI,Helvetica,Arial,sans-serif">90</text>
  <line x1="55" y1="233.4" x2="880" y2="233.4" stroke="#21262d" stroke-width="1"/>
  <text x="47" y="237.4" fill="#8b949e" font-size="11" text-anchor="end" font-family="-apple-system,BlinkMacSystemFont,Segoe UI,Helvetica,Arial,sans-serif">100</text>
  <line x1="55" y1="222.7" x2="880" y2="222.7" stroke="#21262d" stroke-width="1"/>
  <text x="47" y="226.7" fill="#8b949e" font-size="11" text-anchor="end" font-family="-apple-system,BlinkMacSystemFont,Segoe UI,Helvetica,Arial,sans-serif">110</text>
  <line x1="55" y1="212.1" x2="880" y2="212.1" stroke="#21262d" stroke-width="1"/>
  <text x="47" y="216.1" fill="#8b949e" font-size="11" text-anchor="end" font-family="-apple-system,BlinkMacSystemFont,Segoe UI,Helvetica,Arial,sans-serif">120</text>
  <line x1="55" y1="201.4" x2="880" y2="201.4" stroke="#21262d" stroke-width="1"/>
  <text x="47" y="205.4" fill="#8b949e" font-size="11" text-anchor="end" font-family="-apple-system,BlinkMacSystemFont,Segoe UI,Helvetica,Arial,sans-serif">130</text>
  <line x1="55" y1="190.7" x2="880" y2="190.7" stroke="#21262d" stroke-width="1"/>
  <text x="47" y="194.7" fill="#8b949e" font-size="11" text-anchor="end" font-family="-apple-system,BlinkMacSystemFont,Segoe UI,Helvetica,Arial,sans-serif">140</text>
  <line x1="55" y1="180.1" x2="880" y2="180.1" stroke="#21262d" stroke-width="1"/>
  <text x="47" y="184.1" fill="#8b949e" font-size="11" text-anchor="end" font-family="-apple-system,BlinkMacSystemFont,Segoe UI,Helvetica,Arial,sans-serif">150</text>
  <line x1="55" y1="169.4" x2="880" y2="169.4" stroke="#21262d" stroke-width="1"/>
  <text x="47" y="173.4" fill="#8b949e" font-size="11" text-anchor="end" font-family="-apple-system,BlinkMacSystemFont,Segoe UI,Helvetica,Arial,sans-serif">160</text>
  <line x1="55" y1="158.8" x2="880" y2="158.8" stroke="#21262d" stroke-width="1"/>
  <text x="47" y="162.8" fill="#8b949e" font-size="11" text-anchor="end" font-family="-apple-system,BlinkMacSystemFont,Segoe UI,Helvetica,Arial,sans-serif">170</text>
  <line x1="55" y1="148.1" x2="880" y2="148.1" stroke="#21262d" stroke-width="1"/>
  <text x="47" y="152.1" fill="#8b949e" font-size="11" text-anchor="end" font-family="-apple-system,BlinkMacSystemFont,Segoe UI,Helvetica,Arial,sans-serif">180</text>
  <line x1="55" y1="137.4" x2="880" y2="137.4" stroke="#21262d" stroke-width="1"/>
  <text x="47" y="141.4" fill="#8b949e" font-size="11" text-anchor="end" font-family="-apple-system,BlinkMacSystemFont,Segoe UI,Helvetica,Arial,sans-serif">190</text>
  <line x1="55" y1="126.8" x2="880" y2="126.8" stroke="#21262d" stroke-width="1"/>
  <text x="47" y="130.8" fill="#8b949e" font-size="11" text-anchor="end" font-family="-apple-system,BlinkMacSystemFont,Segoe UI,Helvetica,Arial,sans-serif">200</text>
  <line x1="55" y1="116.1" x2="880" y2="116.1" stroke="#21262d" stroke-width="1"/>
  <text x="47" y="120.1" fill="#8b949e" font-size="11" text-anchor="end" font-family="-apple-system,BlinkMacSystemFont,Segoe UI,Helvetica,Arial,sans-serif">210</text>
  <line x1="55" y1="105.4" x2="880" y2="105.4" stroke="#21262d" stroke-width="1"/>
  <text x="47" y="109.4" fill="#8b949e" font-size="11" text-anchor="end" font-family="-apple-system,BlinkMacSystemFont,Segoe UI,Helvetica,Arial,sans-serif">220</text>
  <line x1="55" y1="94.8" x2="880" y2="94.8" stroke="#21262d" stroke-width="1"/>
  <text x="47" y="98.8" fill="#8b949e" font-size="11" text-anchor="end" font-family="-apple-system,BlinkMacSystemFont,Segoe UI,Helvetica,Arial,sans-serif">230</text>
  <line x1="55" y1="84.1" x2="880" y2="84.1" stroke="#21262d" stroke-width="1"/>
  <text x="47" y="88.1" fill="#8b949e" font-size="11" text-anchor="end" font-family="-apple-system,BlinkMacSystemFont,Segoe UI,Helvetica,Arial,sans-serif">240</text>
  <line x1="55" y1="73.5" x2="880" y2="73.5" stroke="#21262d" stroke-width="1"/>
  <text x="47" y="77.5" fill="#8b949e" font-size="11" text-anchor="end" font-family="-apple-system,BlinkMacSystemFont,Segoe UI,Helvetica,Arial,sans-serif">250</text>
  <line x1="55" y1="62.8" x2="880" y2="62.8" stroke="#21262d" stroke-width="1"/>
  <text x="47" y="66.8" fill="#8b949e" font-size="11" text-anchor="end" font-family="-apple-system,BlinkMacSystemFont,Segoe UI,Helvetica,Arial,sans-serif">260</text>
  <line x1="55" y1="52.1" x2="880" y2="52.1" stroke="#21262d" stroke-width="1"/>
  <text x="47" y="56.1" fill="#8b949e" font-size="11" text-anchor="end" font-family="-apple-system,BlinkMacSystemFont,Segoe UI,Helvetica,Arial,sans-serif">270</text>
  <line x1="55.0" y1="50" x2="55.0" y2="340" stroke="#21262d" stroke-width="1" stroke-dasharray="4,4"/>
  <text x="55.0" y="360" fill="#8b949e" font-size="10" text-anchor="middle" font-family="-apple-system,BlinkMacSystemFont,Segoe UI,Helvetica,Arial,sans-serif">May 02</text>
  <line x1="165.0" y1="50" x2="165.0" y2="340" stroke="#21262d" stroke-width="1" stroke-dasharray="4,4"/>
  <text x="165.0" y="360" fill="#8b949e" font-size="10" text-anchor="middle" font-family="-apple-system,BlinkMacSystemFont,Segoe UI,Helvetica,Arial,sans-serif">May 12</text>
  <line x1="275.0" y1="50" x2="275.0" y2="340" stroke="#21262d" stroke-width="1" stroke-dasharray="4,4"/>
  <text x="275.0" y="360" fill="#8b949e" font-size="10" text-anchor="middle" font-family="-apple-system,BlinkMacSystemFont,Segoe UI,Helvetica,Arial,sans-serif">May 22</text>
  <line x1="385.0" y1="50" x2="385.0" y2="340" stroke="#21262d" stroke-width="1" stroke-dasharray="4,4"/>
  <text x="385.0" y="360" fill="#8b949e" font-size="10" text-anchor="middle" font-family="-apple-system,BlinkMacSystemFont,Segoe UI,Helvetica,Arial,sans-serif">Jun 01</text>
  <line x1="495.0" y1="50" x2="495.0" y2="340" stroke="#21262d" stroke-width="1" stroke-dasharray="4,4"/>
  <text x="495.0" y="360" fill="#8b949e" font-size="10" text-anchor="middle" font-family="-apple-system,BlinkMacSystemFont,Segoe UI,Helvetica,Arial,sans-serif">Jun 11</text>
  <line x1="605.0" y1="50" x2="605.0" y2="340" stroke="#21262d" stroke-width="1" stroke-dasharray="4,4"/>
  <text x="605.0" y="360" fill="#8b949e" font-size="10" text-anchor="middle" font-family="-apple-system,BlinkMacSystemFont,Segoe UI,Helvetica,Arial,sans-serif">Jun 21</text>
  <line x1="715.0" y1="50" x2="715.0" y2="340" stroke="#21262d" stroke-width="1" stroke-dasharray="4,4"/>
  <text x="715.0" y="360" fill="#8b949e" font-size="10" text-anchor="middle" font-family="-apple-system,BlinkMacSystemFont,Segoe UI,Helvetica,Arial,sans-serif">Jul 01</text>
  <line x1="825.0" y1="50" x2="825.0" y2="340" stroke="#21262d" stroke-width="1" stroke-dasharray="4,4"/>
  <text x="825.0" y="360" fill="#8b949e" font-size="10" text-anchor="middle" font-family="-apple-system,BlinkMacSystemFont,Segoe UI,Helvetica,Arial,sans-serif">Jul 11</text>
  <line x1="880.0" y1="50" x2="880.0" y2="340" stroke="#21262d" stroke-width="1" stroke-dasharray="4,4"/>
  <text x="880.0" y="360" fill="#8b949e" font-size="10" text-anchor="middle" font-family="-apple-system,BlinkMacSystemFont,Segoe UI,Helvetica,Arial,sans-serif">Jul 16</text>
  <path d="M55.0,340.0L66.0,327.2L77.0,319.7L88.0,315.5L99.0,309.1L110.0,304.8L121.0,301.6L132.0,301.6L143.0,301.6L154.0,301.6L165.0,301.6L176.0,301.6L187.0,301.6L198.0,301.6L209.0,300.6L220.0,296.3L231.0,292.0L242.0,286.7L253.0,280.3L264.0,273.9L275.0,267.5L286.0,262.2L297.0,257.9L308.0,255.8L319.0,252.6L330.0,240.8L341.0,239.8L352.0,234.4L363.0,227.0L374.0,221.7L385.0,217.4L396.0,217.4L407.0,217.4L418.0,217.4L429.0,217.4L440.0,217.4L451.0,211.0L462.0,202.5L473.0,199.3L484.0,192.9L495.0,188.6L506.0,182.2L517.0,172.6L528.0,167.3L539.0,161.9L550.0,156.6L561.0,147.0L572.0,140.6L583.0,132.1L594.0,125.7L605.0,120.4L616.0,116.1L627.0,109.7L638.0,102.2L649.0,98.0L660.0,94.8L671.0,87.3L682.0,80.9L693.0,72.4L704.0,72.4L715.0,70.3L726.0,70.3L737.0,70.3L748.0,68.1L759.0,64.9L770.0,61.7L781.0,60.7L792.0,55.3L803.0,55.3L814.0,55.3L825.0,55.3L836.0,55.3L847.0,55.3L858.0,55.3L869.0,55.3L880.0,55.3L880.0,340.0L55.0,340.0Z" fill="url(#gO)"/>
  <path d="M55.0,338.9L66.0,338.9L77.0,338.9L88.0,338.9L99.0,338.9L110.0,338.9L121.0,338.9L132.0,338.9L143.0,338.9L154.0,338.9L165.0,338.9L176.0,338.9L187.0,338.9L198.0,338.9L209.0,338.9L220.0,335.7L231.0,335.7L242.0,335.7L253.0,335.7L264.0,335.7L275.0,335.7L286.0,335.7L297.0,334.7L308.0,331.5L319.0,331.5L330.0,330.4L341.0,330.4L352.0,330.4L363.0,330.4L374.0,330.4L385.0,328.3L396.0,328.3L407.0,328.3L418.0,328.3L429.0,328.3L440.0,328.3L451.0,328.3L462.0,326.1L473.0,313.3L484.0,313.3L495.0,313.3L506.0,313.3L517.0,304.8L528.0,304.8L539.0,304.8L550.0,304.8L561.0,304.8L572.0,302.7L583.0,302.7L594.0,301.6L605.0,300.6L616.0,299.5L627.0,298.4L638.0,296.3L649.0,292.0L660.0,291.0L671.0,289.9L682.0,289.9L693.0,289.9L704.0,289.9L715.0,289.9L726.0,289.9L737.0,289.9L748.0,289.9L759.0,289.9L770.0,289.9L781.0,289.9L792.0,289.9L803.0,288.8L814.0,287.8L825.0,284.6L836.0,284.6L847.0,283.5L858.0,283.5L869.0,283.5L880.0,283.5L880.0,340.0L55.0,340.0Z" fill="url(#gR)"/>
  <path d="M55.0,340.0L66.0,327.2L77.0,319.7L88.0,315.5L99.0,309.1L110.0,304.8L121.0,301.6L132.0,301.6L143.0,301.6L154.0,301.6L165.0,301.6L176.0,301.6L187.0,301.6L198.0,301.6L209.0,300.6L220.0,296.3L231.0,292.0L242.0,286.7L253.0,280.3L264.0,273.9L275.0,267.5L286.0,262.2L297.0,257.9L308.0,255.8L319.0,252.6L330.0,240.8L341.0,239.8L352.0,234.4L363.0,227.0L374.0,221.7L385.0,217.4L396.0,217.4L407.0,217.4L418.0,217.4L429.0,217.4L440.0,217.4L451.0,211.0L462.0,202.5L473.0,199.3L484.0,192.9L495.0,188.6L506.0,182.2L517.0,172.6L528.0,167.3L539.0,161.9L550.0,156.6L561.0,147.0L572.0,140.6L583.0,132.1L594.0,125.7L605.0,120.4L616.0,116.1L627.0,109.7L638.0,102.2L649.0,98.0L660.0,94.8L671.0,87.3L682.0,80.9L693.0,72.4L704.0,72.4L715.0,70.3L726.0,70.3L737.0,70.3L748.0,68.1L759.0,64.9L770.0,61.7L781.0,60.7L792.0,55.3L803.0,55.3L814.0,55.3L825.0,55.3L836.0,55.3L847.0,55.3L858.0,55.3L869.0,55.3L880.0,55.3" fill="none" stroke="#58a6ff" stroke-width="2.5" stroke-linecap="round" stroke-linejoin="round"/>
  <path d="M55.0,338.9L66.0,338.9L77.0,338.9L88.0,338.9L99.0,338.9L110.0,338.9L121.0,338.9L132.0,338.9L143.0,338.9L154.0,338.9L165.0,338.9L176.0,338.9L187.0,338.9L198.0,338.9L209.0,338.9L220.0,335.7L231.0,335.7L242.0,335.7L253.0,335.7L264.0,335.7L275.0,335.7L286.0,335.7L297.0,334.7L308.0,331.5L319.0,331.5L330.0,330.4L341.0,330.4L352.0,330.4L363.0,330.4L374.0,330.4L385.0,328.3L396.0,328.3L407.0,328.3L418.0,328.3L429.0,328.3L440.0,328.3L451.0,328.3L462.0,326.1L473.0,313.3L484.0,313.3L495.0,313.3L506.0,313.3L517.0,304.8L528.0,304.8L539.0,304.8L550.0,304.8L561.0,304.8L572.0,302.7L583.0,302.7L594.0,301.6L605.0,300.6L616.0,299.5L627.0,298.4L638.0,296.3L649.0,292.0L660.0,291.0L671.0,289.9L682.0,289.9L693.0,289.9L704.0,289.9L715.0,289.9L726.0,289.9L737.0,289.9L748.0,289.9L759.0,289.9L770.0,289.9L781.0,289.9L792.0,289.9L803.0,288.8L814.0,287.8L825.0,284.6L836.0,284.6L847.0,283.5L858.0,283.5L869.0,283.5L880.0,283.5" fill="none" stroke="#f78166" stroke-width="2.5" stroke-linecap="round" stroke-linejoin="round"/>
  <path d="M55.0,340.0L66.0,332.5L77.0,327.2L88.0,325.1L99.0,319.7L110.0,320.8L121.0,317.6L132.0,318.7L143.0,318.7L154.0,319.7L165.0,319.7L176.0,319.7L187.0,319.7L198.0,319.7L209.0,318.7L220.0,317.6L231.0,316.5L242.0,313.3L253.0,306.9L264.0,302.7L275.0,298.4L286.0,295.2L297.0,295.2L308.0,296.3L319.0,298.4L330.0,294.2L341.0,293.1L352.0,293.1L363.0,289.9L374.0,295.2L385.0,292.0L396.0,292.0L407.0,292.0L418.0,292.0L429.0,298.4L440.0,298.4L451.0,297.4L462.0,302.7L473.0,340.0L484.0,340.0L495.0,340.0L506.0,340.0L517.0,335.7L528.0,335.7L539.0,333.6L550.0,333.6L561.0,332.5L572.0,329.3L583.0,330.4L594.0,328.3L605.0,328.3L616.0,330.4L627.0,329.3L638.0,330.4L649.0,327.2L660.0,328.3L671.0,328.3L682.0,322.9L693.0,319.7L704.0,319.7L715.0,320.8L726.0,324.0L737.0,324.0L748.0,322.9L759.0,321.9L770.0,321.9L781.0,320.8L792.0,318.7L803.0,318.7L814.0,318.7L825.0,318.7L836.0,318.7L847.0,318.7L858.0,318.7L869.0,318.7L880.0,318.7" fill="none" stroke="#3fb950" stroke-width="2.5" stroke-linecap="round" stroke-linejoin="round"/>
  <path d="M55.0,340.0L66.0,340.0L77.0,338.9L88.0,337.9L99.0,337.9L110.0,336.8L121.0,336.8L132.0,335.7L143.0,335.7L154.0,335.7L165.0,335.7L176.0,335.7L187.0,335.7L198.0,335.7L209.0,335.7L220.0,334.7L231.0,332.5L242.0,331.5L253.0,331.5L264.0,331.5L275.0,329.3L286.0,329.3L297.0,329.3L308.0,328.3L319.0,328.3L330.0,321.9L341.0,321.9L352.0,317.6L363.0,314.4L374.0,310.1L385.0,309.1L396.0,309.1L407.0,309.1L418.0,309.1L429.0,306.9L440.0,306.9L451.0,304.8L462.0,301.6L473.0,299.5L484.0,293.1L495.0,288.8L506.0,282.4L517.0,279.2L528.0,275.0L539.0,272.8L550.0,267.5L561.0,259.0L572.0,255.8L583.0,249.4L594.0,246.2L605.0,240.8L616.0,234.4L627.0,229.1L638.0,220.6L649.0,219.5L660.0,217.4L671.0,212.1L682.0,212.1L693.0,206.7L704.0,206.7L715.0,204.6L726.0,204.6L737.0,204.6L748.0,204.6L759.0,203.5L770.0,201.4L781.0,201.4L792.0,199.3L803.0,199.3L814.0,199.3L825.0,199.3L836.0,199.3L847.0,199.3L858.0,199.3L869.0,199.3L880.0,199.3" fill="none" stroke="#d2a8ff" stroke-width="2.5" stroke-linecap="round" stroke-linejoin="round"/>
  <path d="M55.0,340.0L66.0,334.7L77.0,333.6L88.0,332.5L99.0,331.5L110.0,327.2L121.0,327.2L132.0,327.2L143.0,327.2L154.0,326.1L165.0,326.1L176.0,326.1L187.0,326.1L198.0,326.1L209.0,326.1L220.0,324.0L231.0,322.9L242.0,321.9L253.0,321.9L264.0,319.7L275.0,319.7L286.0,317.6L297.0,313.3L308.0,311.2L319.0,305.9L330.0,304.8L341.0,304.8L352.0,303.8L363.0,302.7L374.0,296.3L385.0,296.3L396.0,296.3L407.0,296.3L418.0,296.3L429.0,292.0L440.0,292.0L451.0,288.8L462.0,278.2L473.0,239.8L484.0,239.8L495.0,239.8L506.0,239.8L517.0,237.6L528.0,236.6L539.0,235.5L550.0,235.5L561.0,235.5L572.0,235.5L583.0,232.3L594.0,231.2L605.0,231.2L616.0,231.2L627.0,231.2L638.0,231.2L649.0,231.2L660.0,229.1L671.0,227.0L682.0,225.9L693.0,225.9L704.0,225.9L715.0,224.9L726.0,221.7L737.0,221.7L748.0,220.6L759.0,219.5L770.0,218.5L781.0,218.5L792.0,217.4L803.0,217.4L814.0,217.4L825.0,217.4L836.0,217.4L847.0,217.4L858.0,217.4L869.0,217.4L880.0,217.4" fill="none" stroke="#f85149" stroke-width="2.5" stroke-linecap="round" stroke-linejoin="round"/>
  <circle cx="880.0" cy="55.3" r="3.5" fill="#58a6ff"/>
  <text x="889.0" y="59.3" fill="#58a6ff" font-size="11" font-weight="600" font-family="-apple-system,BlinkMacSystemFont,Segoe UI,Helvetica,Arial,sans-serif">267</text>
  <circle cx="880.0" cy="283.5" r="3.5" fill="#f78166"/>
  <text x="889.0" y="287.5" fill="#f78166" font-size="11" font-weight="600" font-family="-apple-system,BlinkMacSystemFont,Segoe UI,Helvetica,Arial,sans-serif">53</text>
  <circle cx="880.0" cy="318.7" r="3.5" fill="#3fb950"/>
  <text x="889.0" y="322.7" fill="#3fb950" font-size="11" font-weight="600" font-family="-apple-system,BlinkMacSystemFont,Segoe UI,Helvetica,Arial,sans-serif">20</text>
  <circle cx="880.0" cy="199.3" r="3.5" fill="#d2a8ff"/>
  <text x="889.0" y="203.3" fill="#d2a8ff" font-size="11" font-weight="600" font-family="-apple-system,BlinkMacSystemFont,Segoe UI,Helvetica,Arial,sans-serif">132</text>
  <circle cx="880.0" cy="217.4" r="3.5" fill="#f85149"/>
  <text x="889.0" y="221.4" fill="#f85149" font-size="11" font-weight="600" font-family="-apple-system,BlinkMacSystemFont,Segoe UI,Helvetica,Arial,sans-serif">115</text>
  <line x1="55" y1="368" x2="71" y2="368" stroke="#f78166" stroke-width="2.5" stroke-linecap="round"/>
  <text x="77" y="372" fill="#8b949e" font-size="11" font-family="-apple-system,BlinkMacSystemFont,Segoe UI,Helvetica,Arial,sans-serif">Repos</text>
  <line x1="255" y1="368" x2="271" y2="368" stroke="#58a6ff" stroke-width="2.5" stroke-linecap="round"/>
  <text x="277" y="372" fill="#8b949e" font-size="11" font-family="-apple-system,BlinkMacSystemFont,Segoe UI,Helvetica,Arial,sans-serif">PRs Opened</text>
  <line x1="455" y1="368" x2="471" y2="368" stroke="#3fb950" stroke-width="2.5" stroke-linecap="round"/>
  <text x="477" y="372" fill="#8b949e" font-size="11" font-family="-apple-system,BlinkMacSystemFont,Segoe UI,Helvetica,Arial,sans-serif">Open PRs</text>
  <line x1="55" y1="386" x2="71" y2="386" stroke="#d2a8ff" stroke-width="2.5" stroke-linecap="round"/>
  <text x="77" y="390" fill="#8b949e" font-size="11" font-family="-apple-system,BlinkMacSystemFont,Segoe UI,Helvetica,Arial,sans-serif">Merged</text>
  <line x1="255" y1="386" x2="271" y2="386" stroke="#f85149" stroke-width="2.5" stroke-linecap="round"/>
  <text x="277" y="390" fill="#8b949e" font-size="11" font-family="-apple-system,BlinkMacSystemFont,Segoe UI,Helvetica,Arial,sans-serif">Closed</text>
</svg>