<svg xmlns="http://www.w3.org/2000/svg" viewBox="0 0 960 400" width="960" height="400">
  <defs>
    <linearGradient id="gR" x1="0" y1="0" x2="0" y2="1">
      <stop offset="0%" stop-color="#3fb950" stop-opacity="0.25"/>
      <stop offset="100%" stop-color="#3fb950" stop-opacity="0.02"/>
    </linearGradient>
    <linearGradient id="gO" x1="0" y1="0" x2="0" y2="1">
      <stop offset="0%" stop-color="#58a6ff" stop-opacity="0.25"/>
      <stop offset="100%" stop-color="#58a6ff" stop-opacity="0.02"/>
    </linearGradient>
    <linearGradient id="gOp" x1="0" y1="0" x2="0" y2="1">
      <stop offset="0%" stop-color="#d2a8ff" stop-opacity="0.25"/>
      <stop offset="100%" stop-color="#d2a8ff" stop-opacity="0.02"/>
    </linearGradient>
    <linearGradient id="gM" x1="0" y1="0" x2="0" y2="1">
      <stop offset="0%" stop-color="#f78166" stop-opacity="0.25"/>
      <stop offset="100%" stop-color="#f78166" stop-opacity="0.02"/>
    </linearGradient>
    <linearGradient id="gC" x1="0" y1="0" x2="0" y2="1">
      <stop offset="0%" stop-color="#f85149" stop-opacity="0.25"/>
      <stop offset="100%" stop-color="#f85149" stop-opacity="0.02"/>
    </linearGradient>
  </defs>
  <rect width="960" height="400" rx="12" fill="#0d1117"/>
  <rect width="960" height="400" rx="12" fill="none" stroke="#30363d" stroke-width="1"/>
  <text x="55" y="30" fill="#e6edf3" font-size="15" font-weight="600" font-family="-apple-system,BlinkMacSystemFont,Segoe UI,Helvetica,Arial,sans-serif">GitHub Activity — jlaportebot</text>
  <text x="880" y="30" fill="#8b949e" font-size="11" text-anchor="end" font-family="-apple-system,BlinkMacSystemFont,Segoe UI,Helvetica,Arial,sans-serif">Updated Jun 10, 2026</text>
  <line x1="55" y1="340.0" x2="880" y2="340.0" stroke="#21262d" stroke-width="1"/>
  <text x="47" y="344.0" fill="#8b949e" font-size="11" text-anchor="end" font-family="-apple-system,BlinkMacSystemFont,Segoe UI,Helvetica,Arial,sans-serif">0</text>
  <line x1="55" y1="319.3" x2="880" y2="319.3" stroke="#21262d" stroke-width="1"/>
  <text x="47" y="323.3" fill="#8b949e" font-size="11" text-anchor="end" font-family="-apple-system,BlinkMacSystemFont,Segoe UI,Helvetica,Arial,sans-serif">10</text>
  <line x1="55" y1="298.6" x2="880" y2="298.6" stroke="#21262d" stroke-width="1"/>
  <text x="47" y="302.6" fill="#8b949e" font-size="11" text-anchor="end" font-family="-apple-system,BlinkMacSystemFont,Segoe UI,Helvetica,Arial,sans-serif">20</text>
  <line x1="55" y1="277.9" x2="880" y2="277.9" stroke="#21262d" stroke-width="1"/>
  <text x="47" y="281.9" fill="#8b949e" font-size="11" text-anchor="end" font-family="-apple-system,BlinkMacSystemFont,Segoe UI,Helvetica,Arial,sans-serif">30</text>
  <line x1="55" y1="257.1" x2="880" y2="257.1" stroke="#21262d" stroke-width="1"/>
  <text x="47" y="261.1" fill="#8b949e" font-size="11" text-anchor="end" font-family="-apple-system,BlinkMacSystemFont,Segoe UI,Helvetica,Arial,sans-serif">40</text>
  <line x1="55" y1="236.4" x2="880" y2="236.4" stroke="#21262d" stroke-width="1"/>
  <text x="47" y="240.4" fill="#8b949e" font-size="11" text-anchor="end" font-family="-apple-system,BlinkMacSystemFont,Segoe UI,Helvetica,Arial,sans-serif">50</text>
  <line x1="55" y1="215.7" x2="880" y2="215.7" stroke="#21262d" stroke-width="1"/>
  <text x="47" y="219.7" fill="#8b949e" font-size="11" text-anchor="end" font-family="-apple-system,BlinkMacSystemFont,Segoe UI,Helvetica,Arial,sans-serif">60</text>
  <line x1="55" y1="195.0" x2="880" y2="195.0" stroke="#21262d" stroke-width="1"/>
  <text x="47" y="199.0" fill="#8b949e" font-size="11" text-anchor="end" font-family="-apple-system,BlinkMacSystemFont,Segoe UI,Helvetica,Arial,sans-serif">70</text>
  <line x1="55" y1="174.3" x2="880" y2="174.3" stroke="#21262d" stroke-width="1"/>
  <text x="47" y="178.3" fill="#8b949e" font-size="11" text-anchor="end" font-family="-apple-system,BlinkMacSystemFont,Segoe UI,Helvetica,Arial,sans-serif">80</text>
  <line x1="55" y1="153.6" x2="880" y2="153.6" stroke="#21262d" stroke-width="1"/>
  <text x="47" y="157.6" fill="#8b949e" font-size="11" text-anchor="end" font-family="-apple-system,BlinkMacSystemFont,Segoe UI,Helvetica,Arial,sans-serif">90</text>
  <line x1="55" y1="132.9" x2="880" y2="132.9" stroke="#21262d" stroke-width="1"/>
  <text x="47" y="136.9" fill="#8b949e" font-size="11" text-anchor="end" font-family="-apple-system,BlinkMacSystemFont,Segoe UI,Helvetica,Arial,sans-serif">100</text>
  <line x1="55" y1="112.1" x2="880" y2="112.1" stroke="#21262d" stroke-width="1"/>
  <text x="47" y="116.1" fill="#8b949e" font-size="11" text-anchor="end" font-family="-apple-system,BlinkMacSystemFont,Segoe UI,Helvetica,Arial,sans-serif">110</text>
  <line x1="55" y1="91.4" x2="880" y2="91.4" stroke="#21262d" stroke-width="1"/>
  <text x="47" y="95.4" fill="#8b949e" font-size="11" text-anchor="end" font-family="-apple-system,BlinkMacSystemFont,Segoe UI,Helvetica,Arial,sans-serif">120</text>
  <line x1="55" y1="70.7" x2="880" y2="70.7" stroke="#21262d" stroke-width="1"/>
  <text x="47" y="74.7" fill="#8b949e" font-size="11" text-anchor="end" font-family="-apple-system,BlinkMacSystemFont,Segoe UI,Helvetica,Arial,sans-serif">130</text>
  <line x1="55" y1="50.0" x2="880" y2="50.0" stroke="#21262d" stroke-width="1"/>
  <text x="47" y="54.0" fill="#8b949e" font-size="11" text-anchor="end" font-family="-apple-system,BlinkMacSystemFont,Segoe UI,Helvetica,Arial,sans-serif">140</text>
  <line x1="55.0" y1="50" x2="55.0" y2="340" stroke="#21262d" stroke-width="1" stroke-dasharray="4,4"/>
  <text x="55.0" y="360" fill="#8b949e" font-size="10" text-anchor="middle" font-family="-apple-system,BlinkMacSystemFont,Segoe UI,Helvetica,Arial,sans-serif">May 02</text>
  <line x1="160.8" y1="50" x2="160.8" y2="340" stroke="#21262d" stroke-width="1" stroke-dasharray="4,4"/>
  <text x="160.8" y="360" fill="#8b949e" font-size="10" text-anchor="middle" font-family="-apple-system,BlinkMacSystemFont,Segoe UI,Helvetica,Arial,sans-serif">May 07</text>
  <line x1="266.5" y1="50" x2="266.5" y2="340" stroke="#21262d" stroke-width="1" stroke-dasharray="4,4"/>
  <text x="266.5" y="360" fill="#8b949e" font-size="10" text-anchor="middle" font-family="-apple-system,BlinkMacSystemFont,Segoe UI,Helvetica,Arial,sans-serif">May 12</text>
  <line x1="372.3" y1="50" x2="372.3" y2="340" stroke="#21262d" stroke-width="1" stroke-dasharray="4,4"/>
  <text x="372.3" y="360" fill="#8b949e" font-size="10" text-anchor="middle" font-family="-apple-system,BlinkMacSystemFont,Segoe UI,Helvetica,Arial,sans-serif">May 17</text>
  <line x1="478.1" y1="50" x2="478.1" y2="340" stroke="#21262d" stroke-width="1" stroke-dasharray="4,4"/>
  <text x="478.1" y="360" fill="#8b949e" font-size="10" text-anchor="middle" font-family="-apple-system,BlinkMacSystemFont,Segoe UI,Helvetica,Arial,sans-serif">May 22</text>
  <line x1="583.8" y1="50" x2="583.8" y2="340" stroke="#21262d" stroke-width="1" stroke-dasharray="4,4"/>
  <text x="583.8" y="360" fill="#8b949e" font-size="10" text-anchor="middle" font-family="-apple-system,BlinkMacSystemFont,Segoe UI,Helvetica,Arial,sans-serif">May 27</text>
  <line x1="689.6" y1="50" x2="689.6" y2="340" stroke="#21262d" stroke-width="1" stroke-dasharray="4,4"/>
  <text x="689.6" y="360" fill="#8b949e" font-size="10" text-anchor="middle" font-family="-apple-system,BlinkMacSystemFont,Segoe UI,Helvetica,Arial,sans-serif">Jun 01</text>
  <line x1="795.4" y1="50" x2="795.4" y2="340" stroke="#21262d" stroke-width="1" stroke-dasharray="4,4"/>
  <text x="795.4" y="360" fill="#8b949e" font-size="10" text-anchor="middle" font-family="-apple-system,BlinkMacSystemFont,Segoe UI,Helvetica,Arial,sans-serif">Jun 06</text>
  <line x1="880.0" y1="50" x2="880.0" y2="340" stroke="#21262d" stroke-width="1" stroke-dasharray="4,4"/>
  <text x="880.0" y="360" fill="#8b949e" font-size="10" text-anchor="middle" font-family="-apple-system,BlinkMacSystemFont,Segoe UI,Helvetica,Arial,sans-serif">Jun 10</text>
  <path d="M55.0,340.0L76.2,315.1L97.3,300.6L118.5,292.4L139.6,279.9L160.8,271.6L181.9,265.4L203.1,265.4L224.2,265.4L245.4,265.4L266.5,265.4L287.7,265.4L308.8,265.4L330.0,265.4L351.2,263.4L372.3,255.1L393.5,246.8L414.6,236.4L435.8,224.0L456.9,211.6L478.1,199.1L499.2,188.8L520.4,180.5L541.5,176.4L562.7,170.1L583.8,147.4L605.0,145.3L626.2,134.9L647.3,120.4L668.5,110.1L689.6,101.8L710.8,101.8L731.9,101.8L753.1,101.8L774.2,101.8L795.4,101.8L816.5,89.4L837.7,72.8L858.8,66.6L880.0,60.4L880.0,340.0L55.0,340.0Z" fill="url(#gO)"/>
  <path d="M55.0,337.9L76.2,337.9L97.3,337.9L118.5,337.9L139.6,337.9L160.8,337.9L181.9,337.9L203.1,337.9L224.2,337.9L245.4,337.9L266.5,337.9L287.7,337.9L308.8,337.9L330.0,337.9L351.2,337.9L372.3,331.7L393.5,331.7L414.6,331.7L435.8,331.7L456.9,331.7L478.1,331.7L499.2,331.7L520.4,329.6L541.5,323.4L562.7,323.4L583.8,321.4L605.0,321.4L626.2,321.4L647.3,321.4L668.5,321.4L689.6,317.2L710.8,317.2L731.9,317.2L753.1,317.2L774.2,317.2L795.4,317.2L816.5,317.2L837.7,313.1L858.8,290.3L880.0,290.3L880.0,340.0L55.0,340.0Z" fill="url(#gR)"/>
  <path d="M55.0,340.0L76.2,315.1L97.3,300.6L118.5,292.4L139.6,279.9L160.8,271.6L181.9,265.4L203.1,265.4L224.2,265.4L245.4,265.4L266.5,265.4L287.7,265.4L308.8,265.4L330.0,265.4L351.2,263.4L372.3,255.1L393.5,246.8L414.6,236.4L435.8,224.0L456.9,211.6L478.1,199.1L499.2,188.8L520.4,180.5L541.5,176.4L562.7,170.1L583.8,147.4L605.0,145.3L626.2,134.9L647.3,120.4L668.5,110.1L689.6,101.8L710.8,101.8L731.9,101.8L753.1,101.8L774.2,101.8L795.4,101.8L816.5,89.4L837.7,72.8L858.8,66.6L880.0,60.4" fill="none" stroke="#58a6ff" stroke-width="2.5" stroke-linecap="round" stroke-linejoin="round"/>
  <path d="M55.0,337.9L76.2,337.9L97.3,337.9L118.5,337.9L139.6,337.9L160.8,337.9L181.9,337.9L203.1,337.9L224.2,337.9L245.4,337.9L266.5,337.9L287.7,337.9L308.8,337.9L330.0,337.9L351.2,337.9L372.3,331.7L393.5,331.7L414.6,331.7L435.8,331.7L456.9,331.7L478.1,331.7L499.2,331.7L520.4,329.6L541.5,323.4L562.7,323.4L583.8,321.4L605.0,321.4L626.2,321.4L647.3,321.4L668.5,321.4L689.6,317.2L710.8,317.2L731.9,317.2L753.1,317.2L774.2,317.2L795.4,317.2L816.5,317.2L837.7,313.1L858.8,290.3L880.0,290.3" fill="none" stroke="#3fb950" stroke-width="2.5" stroke-linecap="round" stroke-linejoin="round"/>
  <path d="M55.0,340.0L76.2,325.5L97.3,315.1L118.5,311.0L139.6,300.6L160.8,302.7L181.9,296.5L203.1,298.6L224.2,298.6L245.4,300.6L266.5,300.6L287.7,300.6L308.8,300.6L330.0,300.6L351.2,298.6L372.3,296.5L393.5,294.4L414.6,288.2L435.8,275.8L456.9,267.5L478.1,259.2L499.2,253.0L520.4,253.0L541.5,255.1L562.7,259.2L583.8,250.9L605.0,248.9L626.2,248.9L647.3,242.6L668.5,253.0L689.6,246.8L710.8,246.8L731.9,246.8L753.1,246.8L774.2,259.2L795.4,259.2L816.5,257.1L837.7,267.5L858.8,340.0L880.0,337.9" fill="none" stroke="#d2a8ff" stroke-width="2.5" stroke-linecap="round" stroke-linejoin="round"/>
  <path d="M55.0,340.0L76.2,340.0L97.3,337.9L118.5,335.9L139.6,335.9L160.8,333.8L181.9,333.8L203.1,331.7L224.2,331.7L245.4,331.7L266.5,331.7L287.7,331.7L308.8,331.7L330.0,331.7L351.2,331.7L372.3,329.6L393.5,325.5L414.6,323.4L435.8,323.4L456.9,323.4L478.1,319.3L499.2,319.3L520.4,319.3L541.5,317.2L562.7,317.2L583.8,304.8L605.0,304.8L626.2,296.5L647.3,290.3L668.5,282.0L689.6,279.9L710.8,279.9L731.9,279.9L753.1,279.9L774.2,275.8L795.4,275.8L816.5,271.6L837.7,265.4L858.8,261.3L880.0,257.1" fill="none" stroke="#f78166" stroke-width="2.5" stroke-linecap="round" stroke-linejoin="round"/>
  <path d="M55.0,340.0L76.2,329.6L97.3,327.6L118.5,325.5L139.6,323.4L160.8,315.1L181.9,315.1L203.1,315.1L224.2,315.1L245.4,313.1L266.5,313.1L287.7,313.1L308.8,313.1L330.0,313.1L351.2,313.1L372.3,308.9L393.5,306.9L414.6,304.8L435.8,304.8L456.9,300.6L478.1,300.6L499.2,296.5L520.4,288.2L541.5,284.1L562.7,273.7L583.8,271.6L605.0,271.6L626.2,269.6L647.3,267.5L668.5,255.1L689.6,255.1L710.8,255.1L731.9,255.1L753.1,255.1L774.2,246.8L795.4,246.8L816.5,240.6L837.7,219.9L858.8,145.3L880.0,145.3" fill="none" stroke="#f85149" stroke-width="2.5" stroke-linecap="round" stroke-linejoin="round"/>
  <circle cx="880.0" cy="60.4" r="3.5" fill="#58a6ff"/>
  <text x="889.0" y="64.4" fill="#58a6ff" font-size="11" font-weight="600" font-family="-apple-system,BlinkMacSystemFont,Segoe UI,Helvetica,Arial,sans-serif">135</text>
  <circle cx="880.0" cy="290.3" r="3.5" fill="#3fb950"/>
  <text x="889.0" y="294.3" fill="#3fb950" font-size="11" font-weight="600" font-family="-apple-system,BlinkMacSystemFont,Segoe UI,Helvetica,Arial,sans-serif">24</text>
  <circle cx="880.0" cy="337.9" r="3.5" fill="#d2a8ff"/>
  <text x="889.0" y="341.9" fill="#d2a8ff" font-size="11" font-weight="600" font-family="-apple-system,BlinkMacSystemFont,Segoe UI,Helvetica,Arial,sans-serif">1</text>
  <circle cx="880.0" cy="257.1" r="3.5" fill="#f78166"/>
  <text x="889.0" y="261.1" fill="#f78166" font-size="11" font-weight="600" font-family="-apple-system,BlinkMacSystemFont,Segoe UI,Helvetica,Arial,sans-serif">40</text>
  <circle cx="880.0" cy="145.3" r="3.5" fill="#f85149"/>
  <text x="889.0" y="149.3" fill="#f85149" font-size="11" font-weight="600" font-family="-apple-system,BlinkMacSystemFont,Segoe UI,Helvetica,Arial,sans-serif">94</text>
  <line x1="55" y1="368" x2="71" y2="368" stroke="#3fb950" stroke-width="2.5" stroke-linecap="round"/>
  <text x="77" y="372" fill="#8b949e" font-size="11" font-family="-apple-system,BlinkMacSystemFont,Segoe UI,Helvetica,Arial,sans-serif">Repos</text>
  <line x1="255" y1="368" x2="271" y2="368" stroke="#58a6ff" stroke-width="2.5" stroke-linecap="round"/>
  <text x="277" y="372" fill="#8b949e" font-size="11" font-family="-apple-system,BlinkMacSystemFont,Segoe UI,Helvetica,Arial,sans-serif">PRs Opened</text>
  <line x1="455" y1="368" x2="471" y2="368" stroke="#d2a8ff" stroke-width="2.5" stroke-linecap="round"/>
  <text x="477" y="372" fill="#8b949e" font-size="11" font-family="-apple-system,BlinkMacSystemFont,Segoe UI,Helvetica,Arial,sans-serif">Open PRs</text>
  <line x1="55" y1="386" x2="71" y2="386" stroke="#f78166" stroke-width="2.5" stroke-linecap="round"/>
  <text x="77" y="390" fill="#8b949e" font-size="11" font-family="-apple-system,BlinkMacSystemFont,Segoe UI,Helvetica,Arial,sans-serif">Merged</text>
  <line x1="255" y1="386" x2="271" y2="386" stroke="#f85149" stroke-width="2.5" stroke-linecap="round"/>
  <text x="277" y="390" fill="#8b949e" font-size="11" font-family="-apple-system,BlinkMacSystemFont,Segoe UI,Helvetica,Arial,sans-serif">Closed</text>
</svg>