<svg xmlns="http://www.w3.org/2000/svg" viewBox="0 0 960 400" width="960" height="400">
  <defs>
    <linearGradient id="gR" x1="0" y1="0" x2="0" y2="1">
      <stop offset="0%" stop-color="#f78166" stop-opacity="0.25"/>
      <stop offset="100%" stop-color="#f78166" stop-opacity="0.02"/>
    </linearGradient>
    <linearGradient id="gO" x1="0" y1="0" x2="0" y2="1">
      <stop offset="0%" stop-color="#58a6ff" stop-opacity="0.25"/>
      <stop offset="100%" stop-color="#58a6ff" stop-opacity="0.02"/>
    </linearGradient>
    <linearGradient id="gOp" x1="0" y1="0" x2="0" y2="1">
      <stop offset="0%" stop-color="#3fb950" stop-opacity="0.25"/>
      <stop offset="100%" stop-color="#3fb950" stop-opacity="0.02"/>
    </linearGradient>
    <linearGradient id="gM" x1="0" y1="0" x2="0" y2="1">
      <stop offset="0%" stop-color="#d2a8ff" stop-opacity="0.25"/>
      <stop offset="100%" stop-color="#d2a8ff" stop-opacity="0.02"/>
    </linearGradient>
    <linearGradient id="gC" x1="0" y1="0" x2="0" y2="1">
      <stop offset="0%" stop-color="#f85149" stop-opacity="0.25"/>
      <stop offset="100%" stop-color="#f85149" stop-opacity="0.02"/>
    </linearGradient>
  </defs>
  <rect width="960" height="400" rx="12" fill="#0d1117"/>
  <rect width="960" height="400" rx="12" fill="none" stroke="#30363d" stroke-width="1"/>
  <text x="55" y="30" fill="#e6edf3" font-size="15" font-weight="600" font-family="-apple-system,BlinkMacSystemFont,Segoe UI,Helvetica,Arial,sans-serif">GitHub Activity — jlaportebot</text>
  <text x="880" y="30" fill="#8b949e" font-size="11" text-anchor="end" font-family="-apple-system,BlinkMacSystemFont,Segoe UI,Helvetica,Arial,sans-serif">Updated Jul 13, 2026</text>
  <line x1="55" y1="340.0" x2="880" y2="340.0" stroke="#21262d" stroke-width="1"/>
  <text x="47" y="344.0" fill="#8b949e" font-size="11" text-anchor="end" font-family="-apple-system,BlinkMacSystemFont,Segoe UI,Helvetica,Arial,sans-serif">0</text>
  <line x1="55" y1="329.3" x2="880" y2="329.3" stroke="#21262d" stroke-width="1"/>
  <text x="47" y="333.3" fill="#8b949e" font-size="11" text-anchor="end" font-family="-apple-system,BlinkMacSystemFont,Segoe UI,Helvetica,Arial,sans-serif">10</text>
  <line x1="55" y1="318.7" x2="880" y2="318.7" stroke="#21262d" stroke-width="1"/>
  <text x="47" y="322.7" fill="#8b949e" font-size="11" text-anchor="end" font-family="-apple-system,BlinkMacSystemFont,Segoe UI,Helvetica,Arial,sans-serif">20</text>
  <line x1="55" y1="308.0" x2="880" y2="308.0" stroke="#21262d" stroke-width="1"/>
  <text x="47" y="312.0" fill="#8b949e" font-size="11" text-anchor="end" font-family="-apple-system,BlinkMacSystemFont,Segoe UI,Helvetica,Arial,sans-serif">30</text>
  <line x1="55" y1="297.4" x2="880" y2="297.4" stroke="#21262d" stroke-width="1"/>
  <text x="47" y="301.4" fill="#8b949e" font-size="11" text-anchor="end" font-family="-apple-system,BlinkMacSystemFont,Segoe UI,Helvetica,Arial,sans-serif">40</text>
  <line x1="55" y1="286.7" x2="880" y2="286.7" stroke="#21262d" stroke-width="1"/>
  <text x="47" y="290.7" fill="#8b949e" font-size="11" text-anchor="end" font-family="-apple-system,BlinkMacSystemFont,Segoe UI,Helvetica,Arial,sans-serif">50</text>
  <line x1="55" y1="276.0" x2="880" y2="276.0" stroke="#21262d" stroke-width="1"/>
  <text x="47" y="280.0" fill="#8b949e" font-size="11" text-anchor="end" font-family="-apple-system,BlinkMacSystemFont,Segoe UI,Helvetica,Arial,sans-serif">60</text>
  <line x1="55" y1="265.4" x2="880" y2="265.4" stroke="#21262d" stroke-width="1"/>
  <text x="47" y="269.4" fill="#8b949e" font-size="11" text-anchor="end" font-family="-apple-system,BlinkMacSystemFont,Segoe UI,Helvetica,Arial,sans-serif">70</text>
  <line x1="55" y1="254.7" x2="880" y2="254.7" stroke="#21262d" stroke-width="1"/>
  <text x="47" y="258.7" fill="#8b949e" font-size="11" text-anchor="end" font-family="-apple-system,BlinkMacSystemFont,Segoe UI,Helvetica,Arial,sans-serif">80</text>
  <line x1="55" y1="244.0" x2="880" y2="244.0" stroke="#21262d" stroke-width="1"/>
  <text x="47" y="248.0" fill="#8b949e" font-size="11" text-anchor="end" font-family="-apple-system,BlinkMacSystemFont,Segoe UI,Helvetica,Arial,sans-serif">90</text>
  <line x1="55" y1="233.4" x2="880" y2="233.4" stroke="#21262d" stroke-width="1"/>
  <text x="47" y="237.4" fill="#8b949e" font-size="11" text-anchor="end" font-family="-apple-system,BlinkMacSystemFont,Segoe UI,Helvetica,Arial,sans-serif">100</text>
  <line x1="55" y1="222.7" x2="880" y2="222.7" stroke="#21262d" stroke-width="1"/>
  <text x="47" y="226.7" fill="#8b949e" font-size="11" text-anchor="end" font-family="-apple-system,BlinkMacSystemFont,Segoe UI,Helvetica,Arial,sans-serif">110</text>
  <line x1="55" y1="212.1" x2="880" y2="212.1" stroke="#21262d" stroke-width="1"/>
  <text x="47" y="216.1" fill="#8b949e" font-size="11" text-anchor="end" font-family="-apple-system,BlinkMacSystemFont,Segoe UI,Helvetica,Arial,sans-serif">120</text>
  <line x1="55" y1="201.4" x2="880" y2="201.4" stroke="#21262d" stroke-width="1"/>
  <text x="47" y="205.4" fill="#8b949e" font-size="11" text-anchor="end" font-family="-apple-system,BlinkMacSystemFont,Segoe UI,Helvetica,Arial,sans-serif">130</text>
  <line x1="55" y1="190.7" x2="880" y2="190.7" stroke="#21262d" stroke-width="1"/>
  <text x="47" y="194.7" fill="#8b949e" font-size="11" text-anchor="end" font-family="-apple-system,BlinkMacSystemFont,Segoe UI,Helvetica,Arial,sans-serif">140</text>
  <line x1="55" y1="180.1" x2="880" y2="180.1" stroke="#21262d" stroke-width="1"/>
  <text x="47" y="184.1" fill="#8b949e" font-size="11" text-anchor="end" font-family="-apple-system,BlinkMacSystemFont,Segoe UI,Helvetica,Arial,sans-serif">150</text>
  <line x1="55" y1="169.4" x2="880" y2="169.4" stroke="#21262d" stroke-width="1"/>
  <text x="47" y="173.4" fill="#8b949e" font-size="11" text-anchor="end" font-family="-apple-system,BlinkMacSystemFont,Segoe UI,Helvetica,Arial,sans-serif">160</text>
  <line x1="55" y1="158.8" x2="880" y2="158.8" stroke="#21262d" stroke-width="1"/>
  <text x="47" y="162.8" fill="#8b949e" font-size="11" text-anchor="end" font-family="-apple-system,BlinkMacSystemFont,Segoe UI,Helvetica,Arial,sans-serif">170</text>
  <line x1="55" y1="148.1" x2="880" y2="148.1" stroke="#21262d" stroke-width="1"/>
  <text x="47" y="152.1" fill="#8b949e" font-size="11" text-anchor="end" font-family="-apple-system,BlinkMacSystemFont,Segoe UI,Helvetica,Arial,sans-serif">180</text>
  <line x1="55" y1="137.4" x2="880" y2="137.4" stroke="#21262d" stroke-width="1"/>
  <text x="47" y="141.4" fill="#8b949e" font-size="11" text-anchor="end" font-family="-apple-system,BlinkMacSystemFont,Segoe UI,Helvetica,Arial,sans-serif">190</text>
  <line x1="55" y1="126.8" x2="880" y2="126.8" stroke="#21262d" stroke-width="1"/>
  <text x="47" y="130.8" fill="#8b949e" font-size="11" text-anchor="end" font-family="-apple-system,BlinkMacSystemFont,Segoe UI,Helvetica,Arial,sans-serif">200</text>
  <line x1="55" y1="116.1" x2="880" y2="116.1" stroke="#21262d" stroke-width="1"/>
  <text x="47" y="120.1" fill="#8b949e" font-size="11" text-anchor="end" font-family="-apple-system,BlinkMacSystemFont,Segoe UI,Helvetica,Arial,sans-serif">210</text>
  <line x1="55" y1="105.4" x2="880" y2="105.4" stroke="#21262d" stroke-width="1"/>
  <text x="47" y="109.4" fill="#8b949e" font-size="11" text-anchor="end" font-family="-apple-system,BlinkMacSystemFont,Segoe UI,Helvetica,Arial,sans-serif">220</text>
  <line x1="55" y1="94.8" x2="880" y2="94.8" stroke="#21262d" stroke-width="1"/>
  <text x="47" y="98.8" fill="#8b949e" font-size="11" text-anchor="end" font-family="-apple-system,BlinkMacSystemFont,Segoe UI,Helvetica,Arial,sans-serif">230</text>
  <line x1="55" y1="84.1" x2="880" y2="84.1" stroke="#21262d" stroke-width="1"/>
  <text x="47" y="88.1" fill="#8b949e" font-size="11" text-anchor="end" font-family="-apple-system,BlinkMacSystemFont,Segoe UI,Helvetica,Arial,sans-serif">240</text>
  <line x1="55" y1="73.5" x2="880" y2="73.5" stroke="#21262d" stroke-width="1"/>
  <text x="47" y="77.5" fill="#8b949e" font-size="11" text-anchor="end" font-family="-apple-system,BlinkMacSystemFont,Segoe UI,Helvetica,Arial,sans-serif">250</text>
  <line x1="55" y1="62.8" x2="880" y2="62.8" stroke="#21262d" stroke-width="1"/>
  <text x="47" y="66.8" fill="#8b949e" font-size="11" text-anchor="end" font-family="-apple-system,BlinkMacSystemFont,Segoe UI,Helvetica,Arial,sans-serif">260</text>
  <line x1="55" y1="52.1" x2="880" y2="52.1" stroke="#21262d" stroke-width="1"/>
  <text x="47" y="56.1" fill="#8b949e" font-size="11" text-anchor="end" font-family="-apple-system,BlinkMacSystemFont,Segoe UI,Helvetica,Arial,sans-serif">270</text>
  <line x1="55.0" y1="50" x2="55.0" y2="340" stroke="#21262d" stroke-width="1" stroke-dasharray="4,4"/>
  <text x="55.0" y="360" fill="#8b949e" font-size="10" text-anchor="middle" font-family="-apple-system,BlinkMacSystemFont,Segoe UI,Helvetica,Arial,sans-serif">May 02</text>
  <line x1="169.6" y1="50" x2="169.6" y2="340" stroke="#21262d" stroke-width="1" stroke-dasharray="4,4"/>
  <text x="169.6" y="360" fill="#8b949e" font-size="10" text-anchor="middle" font-family="-apple-system,BlinkMacSystemFont,Segoe UI,Helvetica,Arial,sans-serif">May 12</text>
  <line x1="284.2" y1="50" x2="284.2" y2="340" stroke="#21262d" stroke-width="1" stroke-dasharray="4,4"/>
  <text x="284.2" y="360" fill="#8b949e" font-size="10" text-anchor="middle" font-family="-apple-system,BlinkMacSystemFont,Segoe UI,Helvetica,Arial,sans-serif">May 22</text>
  <line x1="398.8" y1="50" x2="398.8" y2="340" stroke="#21262d" stroke-width="1" stroke-dasharray="4,4"/>
  <text x="398.8" y="360" fill="#8b949e" font-size="10" text-anchor="middle" font-family="-apple-system,BlinkMacSystemFont,Segoe UI,Helvetica,Arial,sans-serif">Jun 01</text>
  <line x1="513.3" y1="50" x2="513.3" y2="340" stroke="#21262d" stroke-width="1" stroke-dasharray="4,4"/>
  <text x="513.3" y="360" fill="#8b949e" font-size="10" text-anchor="middle" font-family="-apple-system,BlinkMacSystemFont,Segoe UI,Helvetica,Arial,sans-serif">Jun 11</text>
  <line x1="627.9" y1="50" x2="627.9" y2="340" stroke="#21262d" stroke-width="1" stroke-dasharray="4,4"/>
  <text x="627.9" y="360" fill="#8b949e" font-size="10" text-anchor="middle" font-family="-apple-system,BlinkMacSystemFont,Segoe UI,Helvetica,Arial,sans-serif">Jun 21</text>
  <line x1="742.5" y1="50" x2="742.5" y2="340" stroke="#21262d" stroke-width="1" stroke-dasharray="4,4"/>
  <text x="742.5" y="360" fill="#8b949e" font-size="10" text-anchor="middle" font-family="-apple-system,BlinkMacSystemFont,Segoe UI,Helvetica,Arial,sans-serif">Jul 01</text>
  <line x1="857.1" y1="50" x2="857.1" y2="340" stroke="#21262d" stroke-width="1" stroke-dasharray="4,4"/>
  <text x="857.1" y="360" fill="#8b949e" font-size="10" text-anchor="middle" font-family="-apple-system,BlinkMacSystemFont,Segoe UI,Helvetica,Arial,sans-serif">Jul 11</text>
  <line x1="880.0" y1="50" x2="880.0" y2="340" stroke="#21262d" stroke-width="1" stroke-dasharray="4,4"/>
  <text x="880.0" y="360" fill="#8b949e" font-size="10" text-anchor="middle" font-family="-apple-system,BlinkMacSystemFont,Segoe UI,Helvetica,Arial,sans-serif">Jul 13</text>
  <path d="M55.0,340.0L66.5,327.2L77.9,319.7L89.4,315.5L100.8,309.1L112.3,304.8L123.8,301.6L135.2,301.6L146.7,301.6L158.1,301.6L169.6,301.6L181.0,301.6L192.5,301.6L204.0,301.6L215.4,300.6L226.9,296.3L238.3,292.0L249.8,286.7L261.2,280.3L272.7,273.9L284.2,267.5L295.6,262.2L307.1,257.9L318.5,255.8L330.0,252.6L341.5,240.8L352.9,239.8L364.4,234.4L375.8,227.0L387.3,221.7L398.8,217.4L410.2,217.4L421.7,217.4L433.1,217.4L444.6,217.4L456.0,217.4L467.5,211.0L479.0,202.5L490.4,199.3L501.9,192.9L513.3,188.6L524.8,182.2L536.2,172.6L547.7,167.3L559.2,161.9L570.6,156.6L582.1,147.0L593.5,140.6L605.0,132.1L616.5,125.7L627.9,120.4L639.4,116.1L650.8,109.7L662.3,102.2L673.8,98.0L685.2,94.8L696.7,87.3L708.1,80.9L719.6,72.4L731.0,72.4L742.5,70.3L754.0,70.3L765.4,70.3L776.9,68.1L788.3,64.9L799.8,61.7L811.2,60.7L822.7,55.3L834.2,55.3L845.6,55.3L857.1,55.3L868.5,55.3L880.0,55.3L880.0,340.0L55.0,340.0Z" fill="url(#gO)"/>
  <path d="M55.0,338.9L66.5,338.9L77.9,338.9L89.4,338.9L100.8,338.9L112.3,338.9L123.8,338.9L135.2,338.9L146.7,338.9L158.1,338.9L169.6,338.9L181.0,338.9L192.5,338.9L204.0,338.9L215.4,338.9L226.9,335.7L238.3,335.7L249.8,335.7L261.2,335.7L272.7,335.7L284.2,335.7L295.6,335.7L307.1,334.7L318.5,331.5L330.0,331.5L341.5,330.4L352.9,330.4L364.4,330.4L375.8,330.4L387.3,330.4L398.8,328.3L410.2,328.3L421.7,328.3L433.1,328.3L444.6,328.3L456.0,328.3L467.5,328.3L479.0,326.1L490.4,313.3L501.9,313.3L513.3,313.3L524.8,313.3L536.2,304.8L547.7,304.8L559.2,304.8L570.6,304.8L582.1,304.8L593.5,302.7L605.0,302.7L616.5,301.6L627.9,300.6L639.4,299.5L650.8,298.4L662.3,296.3L673.8,292.0L685.2,291.0L696.7,289.9L708.1,289.9L719.6,289.9L731.0,289.9L742.5,289.9L754.0,289.9L765.4,289.9L776.9,289.9L788.3,289.9L799.8,289.9L811.2,289.9L822.7,289.9L834.2,288.8L845.6,287.8L857.1,284.6L868.5,284.6L880.0,283.5L880.0,340.0L55.0,340.0Z" fill="url(#gR)"/>
  <path d="M55.0,340.0L66.5,327.2L77.9,319.7L89.4,315.5L100.8,309.1L112.3,304.8L123.8,301.6L135.2,301.6L146.7,301.6L158.1,301.6L169.6,301.6L181.0,301.6L192.5,301.6L204.0,301.6L215.4,300.6L226.9,296.3L238.3,292.0L249.8,286.7L261.2,280.3L272.7,273.9L284.2,267.5L295.6,262.2L307.1,257.9L318.5,255.8L330.0,252.6L341.5,240.8L352.9,239.8L364.4,234.4L375.8,227.0L387.3,221.7L398.8,217.4L410.2,217.4L421.7,217.4L433.1,217.4L444.6,217.4L456.0,217.4L467.5,211.0L479.0,202.5L490.4,199.3L501.9,192.9L513.3,188.6L524.8,182.2L536.2,172.6L547.7,167.3L559.2,161.9L570.6,156.6L582.1,147.0L593.5,140.6L605.0,132.1L616.5,125.7L627.9,120.4L639.4,116.1L650.8,109.7L662.3,102.2L673.8,98.0L685.2,94.8L696.7,87.3L708.1,80.9L719.6,72.4L731.0,72.4L742.5,70.3L754.0,70.3L765.4,70.3L776.9,68.1L788.3,64.9L799.8,61.7L811.2,60.7L822.7,55.3L834.2,55.3L845.6,55.3L857.1,55.3L868.5,55.3L880.0,55.3" fill="none" stroke="#58a6ff" stroke-width="2.5" stroke-linecap="round" stroke-linejoin="round"/>
  <path d="M55.0,338.9L66.5,338.9L77.9,338.9L89.4,338.9L100.8,338.9L112.3,338.9L123.8,338.9L135.2,338.9L146.7,338.9L158.1,338.9L169.6,338.9L181.0,338.9L192.5,338.9L204.0,338.9L215.4,338.9L226.9,335.7L238.3,335.7L249.8,335.7L261.2,335.7L272.7,335.7L284.2,335.7L295.6,335.7L307.1,334.7L318.5,331.5L330.0,331.5L341.5,330.4L352.9,330.4L364.4,330.4L375.8,330.4L387.3,330.4L398.8,328.3L410.2,328.3L421.7,328.3L433.1,328.3L444.6,328.3L456.0,328.3L467.5,328.3L479.0,326.1L490.4,313.3L501.9,313.3L513.3,313.3L524.8,313.3L536.2,304.8L547.7,304.8L559.2,304.8L570.6,304.8L582.1,304.8L593.5,302.7L605.0,302.7L616.5,301.6L627.9,300.6L639.4,299.5L650.8,298.4L662.3,296.3L673.8,292.0L685.2,291.0L696.7,289.9L708.1,289.9L719.6,289.9L731.0,289.9L742.5,289.9L754.0,289.9L765.4,289.9L776.9,289.9L788.3,289.9L799.8,289.9L811.2,289.9L822.7,289.9L834.2,288.8L845.6,287.8L857.1,284.6L868.5,284.6L880.0,283.5" fill="none" stroke="#f78166" stroke-width="2.5" stroke-linecap="round" stroke-linejoin="round"/>
  <path d="M55.0,340.0L66.5,332.5L77.9,327.2L89.4,325.1L100.8,319.7L112.3,320.8L123.8,317.6L135.2,318.7L146.7,318.7L158.1,319.7L169.6,319.7L181.0,319.7L192.5,319.7L204.0,319.7L215.4,318.7L226.9,317.6L238.3,316.5L249.8,313.3L261.2,306.9L272.7,302.7L284.2,298.4L295.6,295.2L307.1,295.2L318.5,296.3L330.0,298.4L341.5,294.2L352.9,293.1L364.4,293.1L375.8,289.9L387.3,295.2L398.8,292.0L410.2,292.0L421.7,292.0L433.1,292.0L444.6,298.4L456.0,298.4L467.5,297.4L479.0,302.7L490.4,340.0L501.9,340.0L513.3,340.0L524.8,340.0L536.2,335.7L547.7,335.7L559.2,333.6L570.6,333.6L582.1,332.5L593.5,329.3L605.0,330.4L616.5,328.3L627.9,328.3L639.4,330.4L650.8,329.3L662.3,330.4L673.8,327.2L685.2,328.3L696.7,328.3L708.1,322.9L719.6,319.7L731.0,319.7L742.5,320.8L754.0,324.0L765.4,324.0L776.9,322.9L788.3,321.9L799.8,321.9L811.2,320.8L822.7,318.7L834.2,318.7L845.6,318.7L857.1,318.7L868.5,318.7L880.0,318.7" fill="none" stroke="#3fb950" stroke-width="2.5" stroke-linecap="round" stroke-linejoin="round"/>
  <path d="M55.0,340.0L66.5,340.0L77.9,338.9L89.4,337.9L100.8,337.9L112.3,336.8L123.8,336.8L135.2,335.7L146.7,335.7L158.1,335.7L169.6,335.7L181.0,335.7L192.5,335.7L204.0,335.7L215.4,335.7L226.9,334.7L238.3,332.5L249.8,331.5L261.2,331.5L272.7,331.5L284.2,329.3L295.6,329.3L307.1,329.3L318.5,328.3L330.0,328.3L341.5,321.9L352.9,321.9L364.4,317.6L375.8,314.4L387.3,310.1L398.8,309.1L410.2,309.1L421.7,309.1L433.1,309.1L444.6,306.9L456.0,306.9L467.5,304.8L479.0,301.6L490.4,299.5L501.9,293.1L513.3,288.8L524.8,282.4L536.2,279.2L547.7,275.0L559.2,272.8L570.6,267.5L582.1,259.0L593.5,255.8L605.0,249.4L616.5,246.2L627.9,240.8L639.4,234.4L650.8,229.1L662.3,220.6L673.8,219.5L685.2,217.4L696.7,212.1L708.1,212.1L719.6,206.7L731.0,206.7L742.5,204.6L754.0,204.6L765.4,204.6L776.9,204.6L788.3,203.5L799.8,201.4L811.2,201.4L822.7,199.3L834.2,199.3L845.6,199.3L857.1,199.3L868.5,199.3L880.0,199.3" fill="none" stroke="#d2a8ff" stroke-width="2.5" stroke-linecap="round" stroke-linejoin="round"/>
  <path d="M55.0,340.0L66.5,334.7L77.9,333.6L89.4,332.5L100.8,331.5L112.3,327.2L123.8,327.2L135.2,327.2L146.7,327.2L158.1,326.1L169.6,326.1L181.0,326.1L192.5,326.1L204.0,326.1L215.4,326.1L226.9,324.0L238.3,322.9L249.8,321.9L261.2,321.9L272.7,319.7L284.2,319.7L295.6,317.6L307.1,313.3L318.5,311.2L330.0,305.9L341.5,304.8L352.9,304.8L364.4,303.8L375.8,302.7L387.3,296.3L398.8,296.3L410.2,296.3L421.7,296.3L433.1,296.3L444.6,292.0L456.0,292.0L467.5,288.8L479.0,278.2L490.4,239.8L501.9,239.8L513.3,239.8L524.8,239.8L536.2,237.6L547.7,236.6L559.2,235.5L570.6,235.5L582.1,235.5L593.5,235.5L605.0,232.3L616.5,231.2L627.9,231.2L639.4,231.2L650.8,231.2L662.3,231.2L673.8,231.2L685.2,229.1L696.7,227.0L708.1,225.9L719.6,225.9L731.0,225.9L742.5,224.9L754.0,221.7L765.4,221.7L776.9,220.6L788.3,219.5L799.8,218.5L811.2,218.5L822.7,217.4L834.2,217.4L845.6,217.4L857.1,217.4L868.5,217.4L880.0,217.4" fill="none" stroke="#f85149" stroke-width="2.5" stroke-linecap="round" stroke-linejoin="round"/>
  <circle cx="880.0" cy="55.3" r="3.5" fill="#58a6ff"/>
  <text x="889.0" y="59.3" fill="#58a6ff" font-size="11" font-weight="600" font-family="-apple-system,BlinkMacSystemFont,Segoe UI,Helvetica,Arial,sans-serif">267</text>
  <circle cx="880.0" cy="283.5" r="3.5" fill="#f78166"/>
  <text x="889.0" y="287.5" fill="#f78166" font-size="11" font-weight="600" font-family="-apple-system,BlinkMacSystemFont,Segoe UI,Helvetica,Arial,sans-serif">53</text>
  <circle cx="880.0" cy="318.7" r="3.5" fill="#3fb950"/>
  <text x="889.0" y="322.7" fill="#3fb950" font-size="11" font-weight="600" font-family="-apple-system,BlinkMacSystemFont,Segoe UI,Helvetica,Arial,sans-serif">20</text>
  <circle cx="880.0" cy="199.3" r="3.5" fill="#d2a8ff"/>
  <text x="889.0" y="203.3" fill="#d2a8ff" font-size="11" font-weight="600" font-family="-apple-system,BlinkMacSystemFont,Segoe UI,Helvetica,Arial,sans-serif">132</text>
  <circle cx="880.0" cy="217.4" r="3.5" fill="#f85149"/>
  <text x="889.0" y="221.4" fill="#f85149" font-size="11" font-weight="600" font-family="-apple-system,BlinkMacSystemFont,Segoe UI,Helvetica,Arial,sans-serif">115</text>
  <line x1="55" y1="368" x2="71" y2="368" stroke="#f78166" stroke-width="2.5" stroke-linecap="round"/>
  <text x="77" y="372" fill="#8b949e" font-size="11" font-family="-apple-system,BlinkMacSystemFont,Segoe UI,Helvetica,Arial,sans-serif">Repos</text>
  <line x1="255" y1="368" x2="271" y2="368" stroke="#58a6ff" stroke-width="2.5" stroke-linecap="round"/>
  <text x="277" y="372" fill="#8b949e" font-size="11" font-family="-apple-system,BlinkMacSystemFont,Segoe UI,Helvetica,Arial,sans-serif">PRs Opened</text>
  <line x1="455" y1="368" x2="471" y2="368" stroke="#3fb950" stroke-width="2.5" stroke-linecap="round"/>
  <text x="477" y="372" fill="#8b949e" font-size="11" font-family="-apple-system,BlinkMacSystemFont,Segoe UI,Helvetica,Arial,sans-serif">Open PRs</text>
  <line x1="55" y1="386" x2="71" y2="386" stroke="#d2a8ff" stroke-width="2.5" stroke-linecap="round"/>
  <text x="77" y="390" fill="#8b949e" font-size="11" font-family="-apple-system,BlinkMacSystemFont,Segoe UI,Helvetica,Arial,sans-serif">Merged</text>
  <line x1="255" y1="386" x2="271" y2="386" stroke="#f85149" stroke-width="2.5" stroke-linecap="round"/>
  <text x="277" y="390" fill="#8b949e" font-size="11" font-family="-apple-system,BlinkMacSystemFont,Segoe UI,Helvetica,Arial,sans-serif">Closed</text>
</svg>