<svg xmlns="http://www.w3.org/2000/svg" viewBox="0 0 960 400" width="960" height="400">
  <defs>
    <linearGradient id="gR" x1="0" y1="0" x2="0" y2="1">
      <stop offset="0%" stop-color="#f78166" stop-opacity="0.25"/>
      <stop offset="100%" stop-color="#f78166" stop-opacity="0.02"/>
    </linearGradient>
    <linearGradient id="gO" x1="0" y1="0" x2="0" y2="1">
      <stop offset="0%" stop-color="#58a6ff" stop-opacity="0.25"/>
      <stop offset="100%" stop-color="#58a6ff" stop-opacity="0.02"/>
    </linearGradient>
    <linearGradient id="gOp" x1="0" y1="0" x2="0" y2="1">
      <stop offset="0%" stop-color="#3fb950" stop-opacity="0.25"/>
      <stop offset="100%" stop-color="#3fb950" stop-opacity="0.02"/>
    </linearGradient>
    <linearGradient id="gM" x1="0" y1="0" x2="0" y2="1">
      <stop offset="0%" stop-color="#d2a8ff" stop-opacity="0.25"/>
      <stop offset="100%" stop-color="#d2a8ff" stop-opacity="0.02"/>
    </linearGradient>
    <linearGradient id="gC" x1="0" y1="0" x2="0" y2="1">
      <stop offset="0%" stop-color="#f85149" stop-opacity="0.25"/>
      <stop offset="100%" stop-color="#f85149" stop-opacity="0.02"/>
    </linearGradient>
  </defs>
  <rect width="960" height="400" rx="12" fill="#0d1117"/>
  <rect width="960" height="400" rx="12" fill="none" stroke="#30363d" stroke-width="1"/>
  <text x="55" y="30" fill="#e6edf3" font-size="15" font-weight="600" font-family="-apple-system,BlinkMacSystemFont,Segoe UI,Helvetica,Arial,sans-serif">GitHub Activity — jlaportebot</text>
  <text x="880" y="30" fill="#8b949e" font-size="11" text-anchor="end" font-family="-apple-system,BlinkMacSystemFont,Segoe UI,Helvetica,Arial,sans-serif">Updated Jun 26, 2026</text>
  <line x1="55" y1="340.0" x2="880" y2="340.0" stroke="#21262d" stroke-width="1"/>
  <text x="47" y="344.0" fill="#8b949e" font-size="11" text-anchor="end" font-family="-apple-system,BlinkMacSystemFont,Segoe UI,Helvetica,Arial,sans-serif">0</text>
  <line x1="55" y1="327.5" x2="880" y2="327.5" stroke="#21262d" stroke-width="1"/>
  <text x="47" y="331.5" fill="#8b949e" font-size="11" text-anchor="end" font-family="-apple-system,BlinkMacSystemFont,Segoe UI,Helvetica,Arial,sans-serif">10</text>
  <line x1="55" y1="315.0" x2="880" y2="315.0" stroke="#21262d" stroke-width="1"/>
  <text x="47" y="319.0" fill="#8b949e" font-size="11" text-anchor="end" font-family="-apple-system,BlinkMacSystemFont,Segoe UI,Helvetica,Arial,sans-serif">20</text>
  <line x1="55" y1="302.5" x2="880" y2="302.5" stroke="#21262d" stroke-width="1"/>
  <text x="47" y="306.5" fill="#8b949e" font-size="11" text-anchor="end" font-family="-apple-system,BlinkMacSystemFont,Segoe UI,Helvetica,Arial,sans-serif">30</text>
  <line x1="55" y1="290.0" x2="880" y2="290.0" stroke="#21262d" stroke-width="1"/>
  <text x="47" y="294.0" fill="#8b949e" font-size="11" text-anchor="end" font-family="-apple-system,BlinkMacSystemFont,Segoe UI,Helvetica,Arial,sans-serif">40</text>
  <line x1="55" y1="277.5" x2="880" y2="277.5" stroke="#21262d" stroke-width="1"/>
  <text x="47" y="281.5" fill="#8b949e" font-size="11" text-anchor="end" font-family="-apple-system,BlinkMacSystemFont,Segoe UI,Helvetica,Arial,sans-serif">50</text>
  <line x1="55" y1="265.0" x2="880" y2="265.0" stroke="#21262d" stroke-width="1"/>
  <text x="47" y="269.0" fill="#8b949e" font-size="11" text-anchor="end" font-family="-apple-system,BlinkMacSystemFont,Segoe UI,Helvetica,Arial,sans-serif">60</text>
  <line x1="55" y1="252.5" x2="880" y2="252.5" stroke="#21262d" stroke-width="1"/>
  <text x="47" y="256.5" fill="#8b949e" font-size="11" text-anchor="end" font-family="-apple-system,BlinkMacSystemFont,Segoe UI,Helvetica,Arial,sans-serif">70</text>
  <line x1="55" y1="240.0" x2="880" y2="240.0" stroke="#21262d" stroke-width="1"/>
  <text x="47" y="244.0" fill="#8b949e" font-size="11" text-anchor="end" font-family="-apple-system,BlinkMacSystemFont,Segoe UI,Helvetica,Arial,sans-serif">80</text>
  <line x1="55" y1="227.5" x2="880" y2="227.5" stroke="#21262d" stroke-width="1"/>
  <text x="47" y="231.5" fill="#8b949e" font-size="11" text-anchor="end" font-family="-apple-system,BlinkMacSystemFont,Segoe UI,Helvetica,Arial,sans-serif">90</text>
  <line x1="55" y1="215.0" x2="880" y2="215.0" stroke="#21262d" stroke-width="1"/>
  <text x="47" y="219.0" fill="#8b949e" font-size="11" text-anchor="end" font-family="-apple-system,BlinkMacSystemFont,Segoe UI,Helvetica,Arial,sans-serif">100</text>
  <line x1="55" y1="202.5" x2="880" y2="202.5" stroke="#21262d" stroke-width="1"/>
  <text x="47" y="206.5" fill="#8b949e" font-size="11" text-anchor="end" font-family="-apple-system,BlinkMacSystemFont,Segoe UI,Helvetica,Arial,sans-serif">110</text>
  <line x1="55" y1="190.0" x2="880" y2="190.0" stroke="#21262d" stroke-width="1"/>
  <text x="47" y="194.0" fill="#8b949e" font-size="11" text-anchor="end" font-family="-apple-system,BlinkMacSystemFont,Segoe UI,Helvetica,Arial,sans-serif">120</text>
  <line x1="55" y1="177.5" x2="880" y2="177.5" stroke="#21262d" stroke-width="1"/>
  <text x="47" y="181.5" fill="#8b949e" font-size="11" text-anchor="end" font-family="-apple-system,BlinkMacSystemFont,Segoe UI,Helvetica,Arial,sans-serif">130</text>
  <line x1="55" y1="165.0" x2="880" y2="165.0" stroke="#21262d" stroke-width="1"/>
  <text x="47" y="169.0" fill="#8b949e" font-size="11" text-anchor="end" font-family="-apple-system,BlinkMacSystemFont,Segoe UI,Helvetica,Arial,sans-serif">140</text>
  <line x1="55" y1="152.5" x2="880" y2="152.5" stroke="#21262d" stroke-width="1"/>
  <text x="47" y="156.5" fill="#8b949e" font-size="11" text-anchor="end" font-family="-apple-system,BlinkMacSystemFont,Segoe UI,Helvetica,Arial,sans-serif">150</text>
  <line x1="55" y1="140.0" x2="880" y2="140.0" stroke="#21262d" stroke-width="1"/>
  <text x="47" y="144.0" fill="#8b949e" font-size="11" text-anchor="end" font-family="-apple-system,BlinkMacSystemFont,Segoe UI,Helvetica,Arial,sans-serif">160</text>
  <line x1="55" y1="127.5" x2="880" y2="127.5" stroke="#21262d" stroke-width="1"/>
  <text x="47" y="131.5" fill="#8b949e" font-size="11" text-anchor="end" font-family="-apple-system,BlinkMacSystemFont,Segoe UI,Helvetica,Arial,sans-serif">170</text>
  <line x1="55" y1="115.0" x2="880" y2="115.0" stroke="#21262d" stroke-width="1"/>
  <text x="47" y="119.0" fill="#8b949e" font-size="11" text-anchor="end" font-family="-apple-system,BlinkMacSystemFont,Segoe UI,Helvetica,Arial,sans-serif">180</text>
  <line x1="55" y1="102.5" x2="880" y2="102.5" stroke="#21262d" stroke-width="1"/>
  <text x="47" y="106.5" fill="#8b949e" font-size="11" text-anchor="end" font-family="-apple-system,BlinkMacSystemFont,Segoe UI,Helvetica,Arial,sans-serif">190</text>
  <line x1="55" y1="90.0" x2="880" y2="90.0" stroke="#21262d" stroke-width="1"/>
  <text x="47" y="94.0" fill="#8b949e" font-size="11" text-anchor="end" font-family="-apple-system,BlinkMacSystemFont,Segoe UI,Helvetica,Arial,sans-serif">200</text>
  <line x1="55" y1="77.5" x2="880" y2="77.5" stroke="#21262d" stroke-width="1"/>
  <text x="47" y="81.5" fill="#8b949e" font-size="11" text-anchor="end" font-family="-apple-system,BlinkMacSystemFont,Segoe UI,Helvetica,Arial,sans-serif">210</text>
  <line x1="55" y1="65.0" x2="880" y2="65.0" stroke="#21262d" stroke-width="1"/>
  <text x="47" y="69.0" fill="#8b949e" font-size="11" text-anchor="end" font-family="-apple-system,BlinkMacSystemFont,Segoe UI,Helvetica,Arial,sans-serif">220</text>
  <line x1="55" y1="52.5" x2="880" y2="52.5" stroke="#21262d" stroke-width="1"/>
  <text x="47" y="56.5" fill="#8b949e" font-size="11" text-anchor="end" font-family="-apple-system,BlinkMacSystemFont,Segoe UI,Helvetica,Arial,sans-serif">230</text>
  <line x1="55.0" y1="50" x2="55.0" y2="340" stroke="#21262d" stroke-width="1" stroke-dasharray="4,4"/>
  <text x="55.0" y="360" fill="#8b949e" font-size="10" text-anchor="middle" font-family="-apple-system,BlinkMacSystemFont,Segoe UI,Helvetica,Arial,sans-serif">May 02</text>
  <line x1="175.0" y1="50" x2="175.0" y2="340" stroke="#21262d" stroke-width="1" stroke-dasharray="4,4"/>
  <text x="175.0" y="360" fill="#8b949e" font-size="10" text-anchor="middle" font-family="-apple-system,BlinkMacSystemFont,Segoe UI,Helvetica,Arial,sans-serif">May 10</text>
  <line x1="295.0" y1="50" x2="295.0" y2="340" stroke="#21262d" stroke-width="1" stroke-dasharray="4,4"/>
  <text x="295.0" y="360" fill="#8b949e" font-size="10" text-anchor="middle" font-family="-apple-system,BlinkMacSystemFont,Segoe UI,Helvetica,Arial,sans-serif">May 18</text>
  <line x1="415.0" y1="50" x2="415.0" y2="340" stroke="#21262d" stroke-width="1" stroke-dasharray="4,4"/>
  <text x="415.0" y="360" fill="#8b949e" font-size="10" text-anchor="middle" font-family="-apple-system,BlinkMacSystemFont,Segoe UI,Helvetica,Arial,sans-serif">May 26</text>
  <line x1="535.0" y1="50" x2="535.0" y2="340" stroke="#21262d" stroke-width="1" stroke-dasharray="4,4"/>
  <text x="535.0" y="360" fill="#8b949e" font-size="10" text-anchor="middle" font-family="-apple-system,BlinkMacSystemFont,Segoe UI,Helvetica,Arial,sans-serif">Jun 03</text>
  <line x1="655.0" y1="50" x2="655.0" y2="340" stroke="#21262d" stroke-width="1" stroke-dasharray="4,4"/>
  <text x="655.0" y="360" fill="#8b949e" font-size="10" text-anchor="middle" font-family="-apple-system,BlinkMacSystemFont,Segoe UI,Helvetica,Arial,sans-serif">Jun 11</text>
  <line x1="775.0" y1="50" x2="775.0" y2="340" stroke="#21262d" stroke-width="1" stroke-dasharray="4,4"/>
  <text x="775.0" y="360" fill="#8b949e" font-size="10" text-anchor="middle" font-family="-apple-system,BlinkMacSystemFont,Segoe UI,Helvetica,Arial,sans-serif">Jun 19</text>
  <line x1="880.0" y1="50" x2="880.0" y2="340" stroke="#21262d" stroke-width="1" stroke-dasharray="4,4"/>
  <text x="880.0" y="360" fill="#8b949e" font-size="10" text-anchor="middle" font-family="-apple-system,BlinkMacSystemFont,Segoe UI,Helvetica,Arial,sans-serif">Jun 26</text>
  <path d="M55.0,340.0L70.0,325.0L85.0,316.2L100.0,311.2L115.0,303.8L130.0,298.8L145.0,295.0L160.0,295.0L175.0,295.0L190.0,295.0L205.0,295.0L220.0,295.0L235.0,295.0L250.0,295.0L265.0,293.8L280.0,288.8L295.0,283.8L310.0,277.5L325.0,270.0L340.0,262.5L355.0,255.0L370.0,248.8L385.0,243.8L400.0,241.2L415.0,237.5L430.0,223.8L445.0,222.5L460.0,216.2L475.0,207.5L490.0,201.2L505.0,196.2L520.0,196.2L535.0,196.2L550.0,196.2L565.0,196.2L580.0,196.2L595.0,188.8L610.0,178.8L625.0,175.0L640.0,167.5L655.0,162.5L670.0,155.0L685.0,143.8L700.0,137.5L715.0,131.2L730.0,125.0L745.0,113.8L760.0,106.2L775.0,96.2L790.0,88.8L805.0,82.5L820.0,77.5L835.0,70.0L850.0,61.2L865.0,56.2L880.0,56.2L880.0,340.0L55.0,340.0Z" fill="url(#gO)"/>
  <path d="M55.0,338.8L70.0,338.8L85.0,338.8L100.0,338.8L115.0,338.8L130.0,338.8L145.0,338.8L160.0,338.8L175.0,338.8L190.0,338.8L205.0,338.8L220.0,338.8L235.0,338.8L250.0,338.8L265.0,338.8L280.0,335.0L295.0,335.0L310.0,335.0L325.0,335.0L340.0,335.0L355.0,335.0L370.0,335.0L385.0,333.8L400.0,330.0L415.0,330.0L430.0,328.8L445.0,328.8L460.0,328.8L475.0,328.8L490.0,328.8L505.0,326.2L520.0,326.2L535.0,326.2L550.0,326.2L565.0,326.2L580.0,326.2L595.0,326.2L610.0,323.8L625.0,308.8L640.0,308.8L655.0,308.8L670.0,308.8L685.0,298.8L700.0,298.8L715.0,298.8L730.0,298.8L745.0,298.8L760.0,296.2L775.0,296.2L790.0,295.0L805.0,293.8L820.0,292.5L835.0,291.2L850.0,288.8L865.0,283.8L880.0,282.5L880.0,340.0L55.0,340.0Z" fill="url(#gR)"/>
  <path d="M55.0,340.0L70.0,325.0L85.0,316.2L100.0,311.2L115.0,303.8L130.0,298.8L145.0,295.0L160.0,295.0L175.0,295.0L190.0,295.0L205.0,295.0L220.0,295.0L235.0,295.0L250.0,295.0L265.0,293.8L280.0,288.8L295.0,283.8L310.0,277.5L325.0,270.0L340.0,262.5L355.0,255.0L370.0,248.8L385.0,243.8L400.0,241.2L415.0,237.5L430.0,223.8L445.0,222.5L460.0,216.2L475.0,207.5L490.0,201.2L505.0,196.2L520.0,196.2L535.0,196.2L550.0,196.2L565.0,196.2L580.0,196.2L595.0,188.8L610.0,178.8L625.0,175.0L640.0,167.5L655.0,162.5L670.0,155.0L685.0,143.8L700.0,137.5L715.0,131.2L730.0,125.0L745.0,113.8L760.0,106.2L775.0,96.2L790.0,88.8L805.0,82.5L820.0,77.5L835.0,70.0L850.0,61.2L865.0,56.2L880.0,56.2" fill="none" stroke="#58a6ff" stroke-width="2.5" stroke-linecap="round" stroke-linejoin="round"/>
  <path d="M55.0,338.8L70.0,338.8L85.0,338.8L100.0,338.8L115.0,338.8L130.0,338.8L145.0,338.8L160.0,338.8L175.0,338.8L190.0,338.8L205.0,338.8L220.0,338.8L235.0,338.8L250.0,338.8L265.0,338.8L280.0,335.0L295.0,335.0L310.0,335.0L325.0,335.0L340.0,335.0L355.0,335.0L370.0,335.0L385.0,333.8L400.0,330.0L415.0,330.0L430.0,328.8L445.0,328.8L460.0,328.8L475.0,328.8L490.0,328.8L505.0,326.2L520.0,326.2L535.0,326.2L550.0,326.2L565.0,326.2L580.0,326.2L595.0,326.2L610.0,323.8L625.0,308.8L640.0,308.8L655.0,308.8L670.0,308.8L685.0,298.8L700.0,298.8L715.0,298.8L730.0,298.8L745.0,298.8L760.0,296.2L775.0,296.2L790.0,295.0L805.0,293.8L820.0,292.5L835.0,291.2L850.0,288.8L865.0,283.8L880.0,282.5" fill="none" stroke="#f78166" stroke-width="2.5" stroke-linecap="round" stroke-linejoin="round"/>
  <path d="M55.0,340.0L70.0,331.2L85.0,325.0L100.0,322.5L115.0,316.2L130.0,317.5L145.0,313.8L160.0,315.0L175.0,315.0L190.0,316.2L205.0,316.2L220.0,316.2L235.0,316.2L250.0,316.2L265.0,315.0L280.0,313.8L295.0,312.5L310.0,308.8L325.0,301.2L340.0,296.2L355.0,291.2L370.0,287.5L385.0,287.5L400.0,288.8L415.0,291.2L430.0,286.2L445.0,285.0L460.0,285.0L475.0,281.2L490.0,287.5L505.0,283.8L520.0,283.8L535.0,283.8L550.0,283.8L565.0,291.2L580.0,291.2L595.0,290.0L610.0,296.2L625.0,340.0L640.0,340.0L655.0,340.0L670.0,340.0L685.0,335.0L700.0,335.0L715.0,332.5L730.0,332.5L745.0,331.2L760.0,327.5L775.0,328.8L790.0,326.2L805.0,326.2L820.0,328.8L835.0,327.5L850.0,328.8L865.0,325.0L880.0,327.5" fill="none" stroke="#3fb950" stroke-width="2.5" stroke-linecap="round" stroke-linejoin="round"/>
  <path d="M55.0,340.0L70.0,340.0L85.0,338.8L100.0,337.5L115.0,337.5L130.0,336.2L145.0,336.2L160.0,335.0L175.0,335.0L190.0,335.0L205.0,335.0L220.0,335.0L235.0,335.0L250.0,335.0L265.0,335.0L280.0,333.8L295.0,331.2L310.0,330.0L325.0,330.0L340.0,330.0L355.0,327.5L370.0,327.5L385.0,327.5L400.0,326.2L415.0,326.2L430.0,318.8L445.0,318.8L460.0,313.8L475.0,310.0L490.0,305.0L505.0,303.8L520.0,303.8L535.0,303.8L550.0,303.8L565.0,301.2L580.0,301.2L595.0,298.8L610.0,295.0L625.0,292.5L640.0,285.0L655.0,280.0L670.0,272.5L685.0,268.8L700.0,263.8L715.0,261.2L730.0,255.0L745.0,245.0L760.0,241.2L775.0,233.8L790.0,230.0L805.0,223.8L820.0,216.2L835.0,210.0L850.0,200.0L865.0,198.8L880.0,198.8" fill="none" stroke="#d2a8ff" stroke-width="2.5" stroke-linecap="round" stroke-linejoin="round"/>
  <path d="M55.0,340.0L70.0,333.8L85.0,332.5L100.0,331.2L115.0,330.0L130.0,325.0L145.0,325.0L160.0,325.0L175.0,325.0L190.0,323.8L205.0,323.8L220.0,323.8L235.0,323.8L250.0,323.8L265.0,323.8L280.0,321.2L295.0,320.0L310.0,318.8L325.0,318.8L340.0,316.2L355.0,316.2L370.0,313.8L385.0,308.8L400.0,306.2L415.0,300.0L430.0,298.8L445.0,298.8L460.0,297.5L475.0,296.2L490.0,288.8L505.0,288.8L520.0,288.8L535.0,288.8L550.0,288.8L565.0,283.8L580.0,283.8L595.0,280.0L610.0,267.5L625.0,222.5L640.0,222.5L655.0,222.5L670.0,222.5L685.0,220.0L700.0,218.8L715.0,217.5L730.0,217.5L745.0,217.5L760.0,217.5L775.0,213.8L790.0,212.5L805.0,212.5L820.0,212.5L835.0,212.5L850.0,212.5L865.0,212.5L880.0,210.0" fill="none" stroke="#f85149" stroke-width="2.5" stroke-linecap="round" stroke-linejoin="round"/>
  <circle cx="880.0" cy="56.2" r="3.5" fill="#58a6ff"/>
  <text x="889.0" y="60.2" fill="#58a6ff" font-size="11" font-weight="600" font-family="-apple-system,BlinkMacSystemFont,Segoe UI,Helvetica,Arial,sans-serif">227</text>
  <circle cx="880.0" cy="282.5" r="3.5" fill="#f78166"/>
  <text x="889.0" y="286.5" fill="#f78166" font-size="11" font-weight="600" font-family="-apple-system,BlinkMacSystemFont,Segoe UI,Helvetica,Arial,sans-serif">46</text>
  <circle cx="880.0" cy="327.5" r="3.5" fill="#3fb950"/>
  <text x="889.0" y="331.5" fill="#3fb950" font-size="11" font-weight="600" font-family="-apple-system,BlinkMacSystemFont,Segoe UI,Helvetica,Arial,sans-serif">10</text>
  <circle cx="880.0" cy="198.8" r="3.5" fill="#d2a8ff"/>
  <text x="889.0" y="202.8" fill="#d2a8ff" font-size="11" font-weight="600" font-family="-apple-system,BlinkMacSystemFont,Segoe UI,Helvetica,Arial,sans-serif">113</text>
  <circle cx="880.0" cy="210.0" r="3.5" fill="#f85149"/>
  <text x="889.0" y="214.0" fill="#f85149" font-size="11" font-weight="600" font-family="-apple-system,BlinkMacSystemFont,Segoe UI,Helvetica,Arial,sans-serif">104</text>
  <line x1="55" y1="368" x2="71" y2="368" stroke="#f78166" stroke-width="2.5" stroke-linecap="round"/>
  <text x="77" y="372" fill="#8b949e" font-size="11" font-family="-apple-system,BlinkMacSystemFont,Segoe UI,Helvetica,Arial,sans-serif">Repos</text>
  <line x1="255" y1="368" x2="271" y2="368" stroke="#58a6ff" stroke-width="2.5" stroke-linecap="round"/>
  <text x="277" y="372" fill="#8b949e" font-size="11" font-family="-apple-system,BlinkMacSystemFont,Segoe UI,Helvetica,Arial,sans-serif">PRs Opened</text>
  <line x1="455" y1="368" x2="471" y2="368" stroke="#3fb950" stroke-width="2.5" stroke-linecap="round"/>
  <text x="477" y="372" fill="#8b949e" font-size="11" font-family="-apple-system,BlinkMacSystemFont,Segoe UI,Helvetica,Arial,sans-serif">Open PRs</text>
  <line x1="55" y1="386" x2="71" y2="386" stroke="#d2a8ff" stroke-width="2.5" stroke-linecap="round"/>
  <text x="77" y="390" fill="#8b949e" font-size="11" font-family="-apple-system,BlinkMacSystemFont,Segoe UI,Helvetica,Arial,sans-serif">Merged</text>
  <line x1="255" y1="386" x2="271" y2="386" stroke="#f85149" stroke-width="2.5" stroke-linecap="round"/>
  <text x="277" y="390" fill="#8b949e" font-size="11" font-family="-apple-system,BlinkMacSystemFont,Segoe UI,Helvetica,Arial,sans-serif">Closed</text>
</svg>