<svg xmlns="http://www.w3.org/2000/svg" viewBox="0 0 960 400" width="960" height="400">
  <defs>
    <linearGradient id="gR" x1="0" y1="0" x2="0" y2="1">
      <stop offset="0%" stop-color="#3fb950" stop-opacity="0.25"/>
      <stop offset="100%" stop-color="#3fb950" stop-opacity="0.02"/>
    </linearGradient>
    <linearGradient id="gO" x1="0" y1="0" x2="0" y2="1">
      <stop offset="0%" stop-color="#58a6ff" stop-opacity="0.25"/>
      <stop offset="100%" stop-color="#58a6ff" stop-opacity="0.02"/>
    </linearGradient>
    <linearGradient id="gOp" x1="0" y1="0" x2="0" y2="1">
      <stop offset="0%" stop-color="#d2a8ff" stop-opacity="0.25"/>
      <stop offset="100%" stop-color="#d2a8ff" stop-opacity="0.02"/>
    </linearGradient>
    <linearGradient id="gM" x1="0" y1="0" x2="0" y2="1">
      <stop offset="0%" stop-color="#f78166" stop-opacity="0.25"/>
      <stop offset="100%" stop-color="#f78166" stop-opacity="0.02"/>
    </linearGradient>
    <linearGradient id="gC" x1="0" y1="0" x2="0" y2="1">
      <stop offset="0%" stop-color="#f85149" stop-opacity="0.25"/>
      <stop offset="100%" stop-color="#f85149" stop-opacity="0.02"/>
    </linearGradient>
  </defs>
  <rect width="960" height="400" rx="12" fill="#0d1117"/>
  <rect width="960" height="400" rx="12" fill="none" stroke="#30363d" stroke-width="1"/>
  <text x="55" y="30" fill="#e6edf3" font-size="15" font-weight="600" font-family="-apple-system,BlinkMacSystemFont,Segoe UI,Helvetica,Arial,sans-serif">GitHub Activity — jlaportebot</text>
  <text x="880" y="30" fill="#8b949e" font-size="11" text-anchor="end" font-family="-apple-system,BlinkMacSystemFont,Segoe UI,Helvetica,Arial,sans-serif">Updated Jun 10, 2026</text>
  <line x1="55" y1="340.0" x2="880" y2="340.0" stroke="#21262d" stroke-width="1"/>
  <text x="47" y="344.0" fill="#8b949e" font-size="11" text-anchor="end" font-family="-apple-system,BlinkMacSystemFont,Segoe UI,Helvetica,Arial,sans-serif">0</text>
  <line x1="55" y1="319.7" x2="880" y2="319.7" stroke="#21262d" stroke-width="1"/>
  <text x="47" y="323.7" fill="#8b949e" font-size="11" text-anchor="end" font-family="-apple-system,BlinkMacSystemFont,Segoe UI,Helvetica,Arial,sans-serif">10</text>
  <line x1="55" y1="299.4" x2="880" y2="299.4" stroke="#21262d" stroke-width="1"/>
  <text x="47" y="303.4" fill="#8b949e" font-size="11" text-anchor="end" font-family="-apple-system,BlinkMacSystemFont,Segoe UI,Helvetica,Arial,sans-serif">20</text>
  <line x1="55" y1="279.2" x2="880" y2="279.2" stroke="#21262d" stroke-width="1"/>
  <text x="47" y="283.2" fill="#8b949e" font-size="11" text-anchor="end" font-family="-apple-system,BlinkMacSystemFont,Segoe UI,Helvetica,Arial,sans-serif">30</text>
  <line x1="55" y1="258.9" x2="880" y2="258.9" stroke="#21262d" stroke-width="1"/>
  <text x="47" y="262.9" fill="#8b949e" font-size="11" text-anchor="end" font-family="-apple-system,BlinkMacSystemFont,Segoe UI,Helvetica,Arial,sans-serif">40</text>
  <line x1="55" y1="238.6" x2="880" y2="238.6" stroke="#21262d" stroke-width="1"/>
  <text x="47" y="242.6" fill="#8b949e" font-size="11" text-anchor="end" font-family="-apple-system,BlinkMacSystemFont,Segoe UI,Helvetica,Arial,sans-serif">50</text>
  <line x1="55" y1="218.3" x2="880" y2="218.3" stroke="#21262d" stroke-width="1"/>
  <text x="47" y="222.3" fill="#8b949e" font-size="11" text-anchor="end" font-family="-apple-system,BlinkMacSystemFont,Segoe UI,Helvetica,Arial,sans-serif">60</text>
  <line x1="55" y1="198.0" x2="880" y2="198.0" stroke="#21262d" stroke-width="1"/>
  <text x="47" y="202.0" fill="#8b949e" font-size="11" text-anchor="end" font-family="-apple-system,BlinkMacSystemFont,Segoe UI,Helvetica,Arial,sans-serif">70</text>
  <line x1="55" y1="177.8" x2="880" y2="177.8" stroke="#21262d" stroke-width="1"/>
  <text x="47" y="181.8" fill="#8b949e" font-size="11" text-anchor="end" font-family="-apple-system,BlinkMacSystemFont,Segoe UI,Helvetica,Arial,sans-serif">80</text>
  <line x1="55" y1="157.5" x2="880" y2="157.5" stroke="#21262d" stroke-width="1"/>
  <text x="47" y="161.5" fill="#8b949e" font-size="11" text-anchor="end" font-family="-apple-system,BlinkMacSystemFont,Segoe UI,Helvetica,Arial,sans-serif">90</text>
  <line x1="55" y1="137.2" x2="880" y2="137.2" stroke="#21262d" stroke-width="1"/>
  <text x="47" y="141.2" fill="#8b949e" font-size="11" text-anchor="end" font-family="-apple-system,BlinkMacSystemFont,Segoe UI,Helvetica,Arial,sans-serif">100</text>
  <line x1="55" y1="116.9" x2="880" y2="116.9" stroke="#21262d" stroke-width="1"/>
  <text x="47" y="120.9" fill="#8b949e" font-size="11" text-anchor="end" font-family="-apple-system,BlinkMacSystemFont,Segoe UI,Helvetica,Arial,sans-serif">110</text>
  <line x1="55" y1="96.6" x2="880" y2="96.6" stroke="#21262d" stroke-width="1"/>
  <text x="47" y="100.6" fill="#8b949e" font-size="11" text-anchor="end" font-family="-apple-system,BlinkMacSystemFont,Segoe UI,Helvetica,Arial,sans-serif">120</text>
  <line x1="55" y1="76.4" x2="880" y2="76.4" stroke="#21262d" stroke-width="1"/>
  <text x="47" y="80.4" fill="#8b949e" font-size="11" text-anchor="end" font-family="-apple-system,BlinkMacSystemFont,Segoe UI,Helvetica,Arial,sans-serif">130</text>
  <line x1="55" y1="56.1" x2="880" y2="56.1" stroke="#21262d" stroke-width="1"/>
  <text x="47" y="60.1" fill="#8b949e" font-size="11" text-anchor="end" font-family="-apple-system,BlinkMacSystemFont,Segoe UI,Helvetica,Arial,sans-serif">140</text>
  <line x1="55.0" y1="50" x2="55.0" y2="340" stroke="#21262d" stroke-width="1" stroke-dasharray="4,4"/>
  <text x="55.0" y="360" fill="#8b949e" font-size="10" text-anchor="middle" font-family="-apple-system,BlinkMacSystemFont,Segoe UI,Helvetica,Arial,sans-serif">May 02</text>
  <line x1="160.8" y1="50" x2="160.8" y2="340" stroke="#21262d" stroke-width="1" stroke-dasharray="4,4"/>
  <text x="160.8" y="360" fill="#8b949e" font-size="10" text-anchor="middle" font-family="-apple-system,BlinkMacSystemFont,Segoe UI,Helvetica,Arial,sans-serif">May 07</text>
  <line x1="266.5" y1="50" x2="266.5" y2="340" stroke="#21262d" stroke-width="1" stroke-dasharray="4,4"/>
  <text x="266.5" y="360" fill="#8b949e" font-size="10" text-anchor="middle" font-family="-apple-system,BlinkMacSystemFont,Segoe UI,Helvetica,Arial,sans-serif">May 12</text>
  <line x1="372.3" y1="50" x2="372.3" y2="340" stroke="#21262d" stroke-width="1" stroke-dasharray="4,4"/>
  <text x="372.3" y="360" fill="#8b949e" font-size="10" text-anchor="middle" font-family="-apple-system,BlinkMacSystemFont,Segoe UI,Helvetica,Arial,sans-serif">May 17</text>
  <line x1="478.1" y1="50" x2="478.1" y2="340" stroke="#21262d" stroke-width="1" stroke-dasharray="4,4"/>
  <text x="478.1" y="360" fill="#8b949e" font-size="10" text-anchor="middle" font-family="-apple-system,BlinkMacSystemFont,Segoe UI,Helvetica,Arial,sans-serif">May 22</text>
  <line x1="583.8" y1="50" x2="583.8" y2="340" stroke="#21262d" stroke-width="1" stroke-dasharray="4,4"/>
  <text x="583.8" y="360" fill="#8b949e" font-size="10" text-anchor="middle" font-family="-apple-system,BlinkMacSystemFont,Segoe UI,Helvetica,Arial,sans-serif">May 27</text>
  <line x1="689.6" y1="50" x2="689.6" y2="340" stroke="#21262d" stroke-width="1" stroke-dasharray="4,4"/>
  <text x="689.6" y="360" fill="#8b949e" font-size="10" text-anchor="middle" font-family="-apple-system,BlinkMacSystemFont,Segoe UI,Helvetica,Arial,sans-serif">Jun 01</text>
  <line x1="795.4" y1="50" x2="795.4" y2="340" stroke="#21262d" stroke-width="1" stroke-dasharray="4,4"/>
  <text x="795.4" y="360" fill="#8b949e" font-size="10" text-anchor="middle" font-family="-apple-system,BlinkMacSystemFont,Segoe UI,Helvetica,Arial,sans-serif">Jun 06</text>
  <line x1="880.0" y1="50" x2="880.0" y2="340" stroke="#21262d" stroke-width="1" stroke-dasharray="4,4"/>
  <text x="880.0" y="360" fill="#8b949e" font-size="10" text-anchor="middle" font-family="-apple-system,BlinkMacSystemFont,Segoe UI,Helvetica,Arial,sans-serif">Jun 10</text>
  <path d="M55.0,340.0L76.2,315.7L97.3,301.5L118.5,293.4L139.6,281.2L160.8,273.1L181.9,267.0L203.1,267.0L224.2,267.0L245.4,267.0L266.5,267.0L287.7,267.0L308.8,267.0L330.0,267.0L351.2,265.0L372.3,256.9L393.5,248.7L414.6,238.6L435.8,226.4L456.9,214.3L478.1,202.1L499.2,192.0L520.4,183.8L541.5,179.8L562.7,173.7L583.8,151.4L605.0,149.4L626.2,139.2L647.3,125.0L668.5,114.9L689.6,106.8L710.8,106.8L731.9,106.8L753.1,106.8L774.2,106.8L795.4,106.8L816.5,94.6L837.7,78.4L858.8,72.3L880.0,60.1L880.0,340.0L55.0,340.0Z" fill="url(#gO)"/>
  <path d="M55.0,338.0L76.2,338.0L97.3,338.0L118.5,338.0L139.6,338.0L160.8,338.0L181.9,338.0L203.1,338.0L224.2,338.0L245.4,338.0L266.5,338.0L287.7,338.0L308.8,338.0L330.0,338.0L351.2,338.0L372.3,331.9L393.5,331.9L414.6,331.9L435.8,331.9L456.9,331.9L478.1,331.9L499.2,331.9L520.4,329.9L541.5,323.8L562.7,323.8L583.8,321.7L605.0,321.7L626.2,321.7L647.3,321.7L668.5,321.7L689.6,317.7L710.8,317.7L731.9,317.7L753.1,317.7L774.2,317.7L795.4,317.7L816.5,317.7L837.7,315.7L858.8,293.4L880.0,293.4L880.0,340.0L55.0,340.0Z" fill="url(#gR)"/>
  <path d="M55.0,340.0L76.2,315.7L97.3,301.5L118.5,293.4L139.6,281.2L160.8,273.1L181.9,267.0L203.1,267.0L224.2,267.0L245.4,267.0L266.5,267.0L287.7,267.0L308.8,267.0L330.0,267.0L351.2,265.0L372.3,256.9L393.5,248.7L414.6,238.6L435.8,226.4L456.9,214.3L478.1,202.1L499.2,192.0L520.4,183.8L541.5,179.8L562.7,173.7L583.8,151.4L605.0,149.4L626.2,139.2L647.3,125.0L668.5,114.9L689.6,106.8L710.8,106.8L731.9,106.8L753.1,106.8L774.2,106.8L795.4,106.8L816.5,94.6L837.7,78.4L858.8,72.3L880.0,60.1" fill="none" stroke="#58a6ff" stroke-width="2.5" stroke-linecap="round" stroke-linejoin="round"/>
  <path d="M55.0,338.0L76.2,338.0L97.3,338.0L118.5,338.0L139.6,338.0L160.8,338.0L181.9,338.0L203.1,338.0L224.2,338.0L245.4,338.0L266.5,338.0L287.7,338.0L308.8,338.0L330.0,338.0L351.2,338.0L372.3,331.9L393.5,331.9L414.6,331.9L435.8,331.9L456.9,331.9L478.1,331.9L499.2,331.9L520.4,329.9L541.5,323.8L562.7,323.8L583.8,321.7L605.0,321.7L626.2,321.7L647.3,321.7L668.5,321.7L689.6,317.7L710.8,317.7L731.9,317.7L753.1,317.7L774.2,317.7L795.4,317.7L816.5,317.7L837.7,315.7L858.8,293.4L880.0,293.4" fill="none" stroke="#3fb950" stroke-width="2.5" stroke-linecap="round" stroke-linejoin="round"/>
  <path d="M55.0,340.0L76.2,325.8L97.3,315.7L118.5,311.6L139.6,301.5L160.8,303.5L181.9,297.4L203.1,299.4L224.2,299.4L245.4,301.5L266.5,301.5L287.7,301.5L308.8,301.5L330.0,301.5L351.2,299.4L372.3,297.4L393.5,295.4L414.6,289.3L435.8,277.1L456.9,269.0L478.1,260.9L499.2,254.8L520.4,254.8L541.5,256.9L562.7,260.9L583.8,252.8L605.0,250.8L626.2,250.8L647.3,244.7L668.5,254.8L689.6,248.7L710.8,248.7L731.9,248.7L753.1,248.7L774.2,260.9L795.4,260.9L816.5,258.9L837.7,269.0L858.8,340.0L880.0,340.0" fill="none" stroke="#d2a8ff" stroke-width="2.5" stroke-linecap="round" stroke-linejoin="round"/>
  <path d="M55.0,340.0L76.2,340.0L97.3,338.0L118.5,335.9L139.6,335.9L160.8,333.9L181.9,333.9L203.1,331.9L224.2,331.9L245.4,331.9L266.5,331.9L287.7,331.9L308.8,331.9L330.0,331.9L351.2,331.9L372.3,329.9L393.5,325.8L414.6,323.8L435.8,323.8L456.9,323.8L478.1,319.7L499.2,319.7L520.4,319.7L541.5,317.7L562.7,317.7L583.8,305.5L605.0,305.5L626.2,297.4L647.3,291.3L668.5,283.2L689.6,281.2L710.8,281.2L731.9,281.2L753.1,281.2L774.2,277.1L795.4,277.1L816.5,273.1L837.7,267.0L858.8,262.9L880.0,250.8" fill="none" stroke="#f78166" stroke-width="2.5" stroke-linecap="round" stroke-linejoin="round"/>
  <path d="M55.0,340.0L76.2,329.9L97.3,327.8L118.5,325.8L139.6,323.8L160.8,315.7L181.9,315.7L203.1,315.7L224.2,315.7L245.4,313.6L266.5,313.6L287.7,313.6L308.8,313.6L330.0,313.6L351.2,313.6L372.3,309.6L393.5,307.6L414.6,305.5L435.8,305.5L456.9,301.5L478.1,301.5L499.2,297.4L520.4,289.3L541.5,285.2L562.7,275.1L583.8,273.1L605.0,273.1L626.2,271.0L647.3,269.0L668.5,256.9L689.6,256.9L710.8,256.9L731.9,256.9L753.1,256.9L774.2,248.7L795.4,248.7L816.5,242.7L837.7,222.4L858.8,149.4L880.0,149.4" fill="none" stroke="#f85149" stroke-width="2.5" stroke-linecap="round" stroke-linejoin="round"/>
  <circle cx="880.0" cy="60.1" r="3.5" fill="#58a6ff"/>
  <text x="889.0" y="64.1" fill="#58a6ff" font-size="11" font-weight="600" font-family="-apple-system,BlinkMacSystemFont,Segoe UI,Helvetica,Arial,sans-serif">138</text>
  <circle cx="880.0" cy="293.4" r="3.5" fill="#3fb950"/>
  <text x="889.0" y="297.4" fill="#3fb950" font-size="11" font-weight="600" font-family="-apple-system,BlinkMacSystemFont,Segoe UI,Helvetica,Arial,sans-serif">23</text>
  <circle cx="880.0" cy="340.0" r="3.5" fill="#d2a8ff"/>
  <text x="889.0" y="344.0" fill="#d2a8ff" font-size="11" font-weight="600" font-family="-apple-system,BlinkMacSystemFont,Segoe UI,Helvetica,Arial,sans-serif">0</text>
  <circle cx="880.0" cy="250.8" r="3.5" fill="#f78166"/>
  <text x="889.0" y="254.8" fill="#f78166" font-size="11" font-weight="600" font-family="-apple-system,BlinkMacSystemFont,Segoe UI,Helvetica,Arial,sans-serif">44</text>
  <circle cx="880.0" cy="149.4" r="3.5" fill="#f85149"/>
  <text x="889.0" y="153.4" fill="#f85149" font-size="11" font-weight="600" font-family="-apple-system,BlinkMacSystemFont,Segoe UI,Helvetica,Arial,sans-serif">94</text>
  <line x1="55" y1="368" x2="71" y2="368" stroke="#3fb950" stroke-width="2.5" stroke-linecap="round"/>
  <text x="77" y="372" fill="#8b949e" font-size="11" font-family="-apple-system,BlinkMacSystemFont,Segoe UI,Helvetica,Arial,sans-serif">Repos</text>
  <line x1="255" y1="368" x2="271" y2="368" stroke="#58a6ff" stroke-width="2.5" stroke-linecap="round"/>
  <text x="277" y="372" fill="#8b949e" font-size="11" font-family="-apple-system,BlinkMacSystemFont,Segoe UI,Helvetica,Arial,sans-serif">PRs Opened</text>
  <line x1="455" y1="368" x2="471" y2="368" stroke="#d2a8ff" stroke-width="2.5" stroke-linecap="round"/>
  <text x="477" y="372" fill="#8b949e" font-size="11" font-family="-apple-system,BlinkMacSystemFont,Segoe UI,Helvetica,Arial,sans-serif">Open PRs</text>
  <line x1="55" y1="386" x2="71" y2="386" stroke="#f78166" stroke-width="2.5" stroke-linecap="round"/>
  <text x="77" y="390" fill="#8b949e" font-size="11" font-family="-apple-system,BlinkMacSystemFont,Segoe UI,Helvetica,Arial,sans-serif">Merged</text>
  <line x1="255" y1="386" x2="271" y2="386" stroke="#f85149" stroke-width="2.5" stroke-linecap="round"/>
  <text x="277" y="390" fill="#8b949e" font-size="11" font-family="-apple-system,BlinkMacSystemFont,Segoe UI,Helvetica,Arial,sans-serif">Closed</text>
</svg>