<svg xmlns="http://www.w3.org/2000/svg" viewBox="0 0 960 400" width="960" height="400">
  <defs>
    <linearGradient id="gR" x1="0" y1="0" x2="0" y2="1">
      <stop offset="0%" stop-color="#f78166" stop-opacity="0.25"/>
      <stop offset="100%" stop-color="#f78166" stop-opacity="0.02"/>
    </linearGradient>
    <linearGradient id="gO" x1="0" y1="0" x2="0" y2="1">
      <stop offset="0%" stop-color="#58a6ff" stop-opacity="0.25"/>
      <stop offset="100%" stop-color="#58a6ff" stop-opacity="0.02"/>
    </linearGradient>
    <linearGradient id="gOp" x1="0" y1="0" x2="0" y2="1">
      <stop offset="0%" stop-color="#3fb950" stop-opacity="0.25"/>
      <stop offset="100%" stop-color="#3fb950" stop-opacity="0.02"/>
    </linearGradient>
    <linearGradient id="gM" x1="0" y1="0" x2="0" y2="1">
      <stop offset="0%" stop-color="#d2a8ff" stop-opacity="0.25"/>
      <stop offset="100%" stop-color="#d2a8ff" stop-opacity="0.02"/>
    </linearGradient>
    <linearGradient id="gC" x1="0" y1="0" x2="0" y2="1">
      <stop offset="0%" stop-color="#f85149" stop-opacity="0.25"/>
      <stop offset="100%" stop-color="#f85149" stop-opacity="0.02"/>
    </linearGradient>
  </defs>
  <rect width="960" height="400" rx="12" fill="#0d1117"/>
  <rect width="960" height="400" rx="12" fill="none" stroke="#30363d" stroke-width="1"/>
  <text x="55" y="30" fill="#e6edf3" font-size="15" font-weight="600" font-family="-apple-system,BlinkMacSystemFont,Segoe UI,Helvetica,Arial,sans-serif">GitHub Activity — jlaportebot</text>
  <text x="880" y="30" fill="#8b949e" font-size="11" text-anchor="end" font-family="-apple-system,BlinkMacSystemFont,Segoe UI,Helvetica,Arial,sans-serif">Updated Jul 05, 2026</text>
  <line x1="55" y1="340.0" x2="880" y2="340.0" stroke="#21262d" stroke-width="1"/>
  <text x="47" y="344.0" fill="#8b949e" font-size="11" text-anchor="end" font-family="-apple-system,BlinkMacSystemFont,Segoe UI,Helvetica,Arial,sans-serif">0</text>
  <line x1="55" y1="328.9" x2="880" y2="328.9" stroke="#21262d" stroke-width="1"/>
  <text x="47" y="332.9" fill="#8b949e" font-size="11" text-anchor="end" font-family="-apple-system,BlinkMacSystemFont,Segoe UI,Helvetica,Arial,sans-serif">10</text>
  <line x1="55" y1="317.8" x2="880" y2="317.8" stroke="#21262d" stroke-width="1"/>
  <text x="47" y="321.8" fill="#8b949e" font-size="11" text-anchor="end" font-family="-apple-system,BlinkMacSystemFont,Segoe UI,Helvetica,Arial,sans-serif">20</text>
  <line x1="55" y1="306.7" x2="880" y2="306.7" stroke="#21262d" stroke-width="1"/>
  <text x="47" y="310.7" fill="#8b949e" font-size="11" text-anchor="end" font-family="-apple-system,BlinkMacSystemFont,Segoe UI,Helvetica,Arial,sans-serif">30</text>
  <line x1="55" y1="295.6" x2="880" y2="295.6" stroke="#21262d" stroke-width="1"/>
  <text x="47" y="299.6" fill="#8b949e" font-size="11" text-anchor="end" font-family="-apple-system,BlinkMacSystemFont,Segoe UI,Helvetica,Arial,sans-serif">40</text>
  <line x1="55" y1="284.4" x2="880" y2="284.4" stroke="#21262d" stroke-width="1"/>
  <text x="47" y="288.4" fill="#8b949e" font-size="11" text-anchor="end" font-family="-apple-system,BlinkMacSystemFont,Segoe UI,Helvetica,Arial,sans-serif">50</text>
  <line x1="55" y1="273.3" x2="880" y2="273.3" stroke="#21262d" stroke-width="1"/>
  <text x="47" y="277.3" fill="#8b949e" font-size="11" text-anchor="end" font-family="-apple-system,BlinkMacSystemFont,Segoe UI,Helvetica,Arial,sans-serif">60</text>
  <line x1="55" y1="262.2" x2="880" y2="262.2" stroke="#21262d" stroke-width="1"/>
  <text x="47" y="266.2" fill="#8b949e" font-size="11" text-anchor="end" font-family="-apple-system,BlinkMacSystemFont,Segoe UI,Helvetica,Arial,sans-serif">70</text>
  <line x1="55" y1="251.1" x2="880" y2="251.1" stroke="#21262d" stroke-width="1"/>
  <text x="47" y="255.1" fill="#8b949e" font-size="11" text-anchor="end" font-family="-apple-system,BlinkMacSystemFont,Segoe UI,Helvetica,Arial,sans-serif">80</text>
  <line x1="55" y1="240.0" x2="880" y2="240.0" stroke="#21262d" stroke-width="1"/>
  <text x="47" y="244.0" fill="#8b949e" font-size="11" text-anchor="end" font-family="-apple-system,BlinkMacSystemFont,Segoe UI,Helvetica,Arial,sans-serif">90</text>
  <line x1="55" y1="228.9" x2="880" y2="228.9" stroke="#21262d" stroke-width="1"/>
  <text x="47" y="232.9" fill="#8b949e" font-size="11" text-anchor="end" font-family="-apple-system,BlinkMacSystemFont,Segoe UI,Helvetica,Arial,sans-serif">100</text>
  <line x1="55" y1="217.8" x2="880" y2="217.8" stroke="#21262d" stroke-width="1"/>
  <text x="47" y="221.8" fill="#8b949e" font-size="11" text-anchor="end" font-family="-apple-system,BlinkMacSystemFont,Segoe UI,Helvetica,Arial,sans-serif">110</text>
  <line x1="55" y1="206.7" x2="880" y2="206.7" stroke="#21262d" stroke-width="1"/>
  <text x="47" y="210.7" fill="#8b949e" font-size="11" text-anchor="end" font-family="-apple-system,BlinkMacSystemFont,Segoe UI,Helvetica,Arial,sans-serif">120</text>
  <line x1="55" y1="195.6" x2="880" y2="195.6" stroke="#21262d" stroke-width="1"/>
  <text x="47" y="199.6" fill="#8b949e" font-size="11" text-anchor="end" font-family="-apple-system,BlinkMacSystemFont,Segoe UI,Helvetica,Arial,sans-serif">130</text>
  <line x1="55" y1="184.4" x2="880" y2="184.4" stroke="#21262d" stroke-width="1"/>
  <text x="47" y="188.4" fill="#8b949e" font-size="11" text-anchor="end" font-family="-apple-system,BlinkMacSystemFont,Segoe UI,Helvetica,Arial,sans-serif">140</text>
  <line x1="55" y1="173.3" x2="880" y2="173.3" stroke="#21262d" stroke-width="1"/>
  <text x="47" y="177.3" fill="#8b949e" font-size="11" text-anchor="end" font-family="-apple-system,BlinkMacSystemFont,Segoe UI,Helvetica,Arial,sans-serif">150</text>
  <line x1="55" y1="162.2" x2="880" y2="162.2" stroke="#21262d" stroke-width="1"/>
  <text x="47" y="166.2" fill="#8b949e" font-size="11" text-anchor="end" font-family="-apple-system,BlinkMacSystemFont,Segoe UI,Helvetica,Arial,sans-serif">160</text>
  <line x1="55" y1="151.1" x2="880" y2="151.1" stroke="#21262d" stroke-width="1"/>
  <text x="47" y="155.1" fill="#8b949e" font-size="11" text-anchor="end" font-family="-apple-system,BlinkMacSystemFont,Segoe UI,Helvetica,Arial,sans-serif">170</text>
  <line x1="55" y1="140.0" x2="880" y2="140.0" stroke="#21262d" stroke-width="1"/>
  <text x="47" y="144.0" fill="#8b949e" font-size="11" text-anchor="end" font-family="-apple-system,BlinkMacSystemFont,Segoe UI,Helvetica,Arial,sans-serif">180</text>
  <line x1="55" y1="128.9" x2="880" y2="128.9" stroke="#21262d" stroke-width="1"/>
  <text x="47" y="132.9" fill="#8b949e" font-size="11" text-anchor="end" font-family="-apple-system,BlinkMacSystemFont,Segoe UI,Helvetica,Arial,sans-serif">190</text>
  <line x1="55" y1="117.8" x2="880" y2="117.8" stroke="#21262d" stroke-width="1"/>
  <text x="47" y="121.8" fill="#8b949e" font-size="11" text-anchor="end" font-family="-apple-system,BlinkMacSystemFont,Segoe UI,Helvetica,Arial,sans-serif">200</text>
  <line x1="55" y1="106.7" x2="880" y2="106.7" stroke="#21262d" stroke-width="1"/>
  <text x="47" y="110.7" fill="#8b949e" font-size="11" text-anchor="end" font-family="-apple-system,BlinkMacSystemFont,Segoe UI,Helvetica,Arial,sans-serif">210</text>
  <line x1="55" y1="95.6" x2="880" y2="95.6" stroke="#21262d" stroke-width="1"/>
  <text x="47" y="99.6" fill="#8b949e" font-size="11" text-anchor="end" font-family="-apple-system,BlinkMacSystemFont,Segoe UI,Helvetica,Arial,sans-serif">220</text>
  <line x1="55" y1="84.4" x2="880" y2="84.4" stroke="#21262d" stroke-width="1"/>
  <text x="47" y="88.4" fill="#8b949e" font-size="11" text-anchor="end" font-family="-apple-system,BlinkMacSystemFont,Segoe UI,Helvetica,Arial,sans-serif">230</text>
  <line x1="55" y1="73.3" x2="880" y2="73.3" stroke="#21262d" stroke-width="1"/>
  <text x="47" y="77.3" fill="#8b949e" font-size="11" text-anchor="end" font-family="-apple-system,BlinkMacSystemFont,Segoe UI,Helvetica,Arial,sans-serif">240</text>
  <line x1="55" y1="62.2" x2="880" y2="62.2" stroke="#21262d" stroke-width="1"/>
  <text x="47" y="66.2" fill="#8b949e" font-size="11" text-anchor="end" font-family="-apple-system,BlinkMacSystemFont,Segoe UI,Helvetica,Arial,sans-serif">250</text>
  <line x1="55" y1="51.1" x2="880" y2="51.1" stroke="#21262d" stroke-width="1"/>
  <text x="47" y="55.1" fill="#8b949e" font-size="11" text-anchor="end" font-family="-apple-system,BlinkMacSystemFont,Segoe UI,Helvetica,Arial,sans-serif">260</text>
  <line x1="55.0" y1="50" x2="55.0" y2="340" stroke="#21262d" stroke-width="1" stroke-dasharray="4,4"/>
  <text x="55.0" y="360" fill="#8b949e" font-size="10" text-anchor="middle" font-family="-apple-system,BlinkMacSystemFont,Segoe UI,Helvetica,Arial,sans-serif">May 02</text>
  <line x1="171.0" y1="50" x2="171.0" y2="340" stroke="#21262d" stroke-width="1" stroke-dasharray="4,4"/>
  <text x="171.0" y="360" fill="#8b949e" font-size="10" text-anchor="middle" font-family="-apple-system,BlinkMacSystemFont,Segoe UI,Helvetica,Arial,sans-serif">May 11</text>
  <line x1="287.0" y1="50" x2="287.0" y2="340" stroke="#21262d" stroke-width="1" stroke-dasharray="4,4"/>
  <text x="287.0" y="360" fill="#8b949e" font-size="10" text-anchor="middle" font-family="-apple-system,BlinkMacSystemFont,Segoe UI,Helvetica,Arial,sans-serif">May 20</text>
  <line x1="403.0" y1="50" x2="403.0" y2="340" stroke="#21262d" stroke-width="1" stroke-dasharray="4,4"/>
  <text x="403.0" y="360" fill="#8b949e" font-size="10" text-anchor="middle" font-family="-apple-system,BlinkMacSystemFont,Segoe UI,Helvetica,Arial,sans-serif">May 29</text>
  <line x1="519.1" y1="50" x2="519.1" y2="340" stroke="#21262d" stroke-width="1" stroke-dasharray="4,4"/>
  <text x="519.1" y="360" fill="#8b949e" font-size="10" text-anchor="middle" font-family="-apple-system,BlinkMacSystemFont,Segoe UI,Helvetica,Arial,sans-serif">Jun 07</text>
  <line x1="635.1" y1="50" x2="635.1" y2="340" stroke="#21262d" stroke-width="1" stroke-dasharray="4,4"/>
  <text x="635.1" y="360" fill="#8b949e" font-size="10" text-anchor="middle" font-family="-apple-system,BlinkMacSystemFont,Segoe UI,Helvetica,Arial,sans-serif">Jun 16</text>
  <line x1="751.1" y1="50" x2="751.1" y2="340" stroke="#21262d" stroke-width="1" stroke-dasharray="4,4"/>
  <text x="751.1" y="360" fill="#8b949e" font-size="10" text-anchor="middle" font-family="-apple-system,BlinkMacSystemFont,Segoe UI,Helvetica,Arial,sans-serif">Jun 25</text>
  <line x1="867.1" y1="50" x2="867.1" y2="340" stroke="#21262d" stroke-width="1" stroke-dasharray="4,4"/>
  <text x="867.1" y="360" fill="#8b949e" font-size="10" text-anchor="middle" font-family="-apple-system,BlinkMacSystemFont,Segoe UI,Helvetica,Arial,sans-serif">Jul 04</text>
  <line x1="880.0" y1="50" x2="880.0" y2="340" stroke="#21262d" stroke-width="1" stroke-dasharray="4,4"/>
  <text x="880.0" y="360" fill="#8b949e" font-size="10" text-anchor="middle" font-family="-apple-system,BlinkMacSystemFont,Segoe UI,Helvetica,Arial,sans-serif">Jul 05</text>
  <path d="M55.0,340.0L67.9,326.7L80.8,318.9L93.7,314.4L106.6,307.8L119.5,303.3L132.3,300.0L145.2,300.0L158.1,300.0L171.0,300.0L183.9,300.0L196.8,300.0L209.7,300.0L222.6,300.0L235.5,298.9L248.4,294.4L261.2,290.0L274.1,284.4L287.0,277.8L299.9,271.1L312.8,264.4L325.7,258.9L338.6,254.4L351.5,252.2L364.4,248.9L377.3,236.7L390.2,235.6L403.0,230.0L415.9,222.2L428.8,216.7L441.7,212.2L454.6,212.2L467.5,212.2L480.4,212.2L493.3,212.2L506.2,212.2L519.1,205.6L532.0,196.7L544.8,193.3L557.7,186.7L570.6,182.2L583.5,175.6L596.4,165.6L609.3,160.0L622.2,154.4L635.1,148.9L648.0,138.9L660.9,132.2L673.8,123.3L686.6,116.7L699.5,111.1L712.4,106.7L725.3,100.0L738.2,92.2L751.1,87.8L764.0,84.4L776.9,76.7L789.8,70.0L802.7,61.1L815.5,61.1L828.4,58.9L841.3,58.9L854.2,58.9L867.1,56.7L880.0,55.6L880.0,340.0L55.0,340.0Z" fill="url(#gO)"/>
  <path d="M55.0,338.9L67.9,338.9L80.8,338.9L93.7,338.9L106.6,338.9L119.5,338.9L132.3,338.9L145.2,338.9L158.1,338.9L171.0,338.9L183.9,338.9L196.8,338.9L209.7,338.9L222.6,338.9L235.5,338.9L248.4,335.6L261.2,335.6L274.1,335.6L287.0,335.6L299.9,335.6L312.8,335.6L325.7,335.6L338.6,334.4L351.5,331.1L364.4,331.1L377.3,330.0L390.2,330.0L403.0,330.0L415.9,330.0L428.8,330.0L441.7,327.8L454.6,327.8L467.5,327.8L480.4,327.8L493.3,327.8L506.2,327.8L519.1,327.8L532.0,325.6L544.8,312.2L557.7,312.2L570.6,312.2L583.5,312.2L596.4,303.3L609.3,303.3L622.2,303.3L635.1,303.3L648.0,303.3L660.9,301.1L673.8,301.1L686.6,300.0L699.5,298.9L712.4,297.8L725.3,296.7L738.2,294.4L751.1,290.0L764.0,288.9L776.9,287.8L789.8,287.8L802.7,287.8L815.5,287.8L828.4,287.8L841.3,287.8L854.2,287.8L867.1,287.8L880.0,287.8L880.0,340.0L55.0,340.0Z" fill="url(#gR)"/>
  <path d="M55.0,340.0L67.9,326.7L80.8,318.9L93.7,314.4L106.6,307.8L119.5,303.3L132.3,300.0L145.2,300.0L158.1,300.0L171.0,300.0L183.9,300.0L196.8,300.0L209.7,300.0L222.6,300.0L235.5,298.9L248.4,294.4L261.2,290.0L274.1,284.4L287.0,277.8L299.9,271.1L312.8,264.4L325.7,258.9L338.6,254.4L351.5,252.2L364.4,248.9L377.3,236.7L390.2,235.6L403.0,230.0L415.9,222.2L428.8,216.7L441.7,212.2L454.6,212.2L467.5,212.2L480.4,212.2L493.3,212.2L506.2,212.2L519.1,205.6L532.0,196.7L544.8,193.3L557.7,186.7L570.6,182.2L583.5,175.6L596.4,165.6L609.3,160.0L622.2,154.4L635.1,148.9L648.0,138.9L660.9,132.2L673.8,123.3L686.6,116.7L699.5,111.1L712.4,106.7L725.3,100.0L738.2,92.2L751.1,87.8L764.0,84.4L776.9,76.7L789.8,70.0L802.7,61.1L815.5,61.1L828.4,58.9L841.3,58.9L854.2,58.9L867.1,56.7L880.0,55.6" fill="none" stroke="#58a6ff" stroke-width="2.5" stroke-linecap="round" stroke-linejoin="round"/>
  <path d="M55.0,338.9L67.9,338.9L80.8,338.9L93.7,338.9L106.6,338.9L119.5,338.9L132.3,338.9L145.2,338.9L158.1,338.9L171.0,338.9L183.9,338.9L196.8,338.9L209.7,338.9L222.6,338.9L235.5,338.9L248.4,335.6L261.2,335.6L274.1,335.6L287.0,335.6L299.9,335.6L312.8,335.6L325.7,335.6L338.6,334.4L351.5,331.1L364.4,331.1L377.3,330.0L390.2,330.0L403.0,330.0L415.9,330.0L428.8,330.0L441.7,327.8L454.6,327.8L467.5,327.8L480.4,327.8L493.3,327.8L506.2,327.8L519.1,327.8L532.0,325.6L544.8,312.2L557.7,312.2L570.6,312.2L583.5,312.2L596.4,303.3L609.3,303.3L622.2,303.3L635.1,303.3L648.0,303.3L660.9,301.1L673.8,301.1L686.6,300.0L699.5,298.9L712.4,297.8L725.3,296.7L738.2,294.4L751.1,290.0L764.0,288.9L776.9,287.8L789.8,287.8L802.7,287.8L815.5,287.8L828.4,287.8L841.3,287.8L854.2,287.8L867.1,287.8L880.0,287.8" fill="none" stroke="#f78166" stroke-width="2.5" stroke-linecap="round" stroke-linejoin="round"/>
  <path d="M55.0,340.0L67.9,332.2L80.8,326.7L93.7,324.4L106.6,318.9L119.5,320.0L132.3,316.7L145.2,317.8L158.1,317.8L171.0,318.9L183.9,318.9L196.8,318.9L209.7,318.9L222.6,318.9L235.5,317.8L248.4,316.7L261.2,315.6L274.1,312.2L287.0,305.6L299.9,301.1L312.8,296.7L325.7,293.3L338.6,293.3L351.5,294.4L364.4,296.7L377.3,292.2L390.2,291.1L403.0,291.1L415.9,287.8L428.8,293.3L441.7,290.0L454.6,290.0L467.5,290.0L480.4,290.0L493.3,296.7L506.2,296.7L519.1,295.6L532.0,301.1L544.8,340.0L557.7,340.0L570.6,340.0L583.5,340.0L596.4,335.6L609.3,335.6L622.2,333.3L635.1,333.3L648.0,332.2L660.9,328.9L673.8,330.0L686.6,327.8L699.5,327.8L712.4,330.0L725.3,328.9L738.2,330.0L751.1,326.7L764.0,327.8L776.9,327.8L789.8,322.2L802.7,318.9L815.5,318.9L828.4,320.0L841.3,323.3L854.2,323.3L867.1,322.2L880.0,321.1" fill="none" stroke="#3fb950" stroke-width="2.5" stroke-linecap="round" stroke-linejoin="round"/>
  <path d="M55.0,340.0L67.9,340.0L80.8,338.9L93.7,337.8L106.6,337.8L119.5,336.7L132.3,336.7L145.2,335.6L158.1,335.6L171.0,335.6L183.9,335.6L196.8,335.6L209.7,335.6L222.6,335.6L235.5,335.6L248.4,334.4L261.2,332.2L274.1,331.1L287.0,331.1L299.9,331.1L312.8,328.9L325.7,328.9L338.6,328.9L351.5,327.8L364.4,327.8L377.3,321.1L390.2,321.1L403.0,316.7L415.9,313.3L428.8,308.9L441.7,307.8L454.6,307.8L467.5,307.8L480.4,307.8L493.3,305.6L506.2,305.6L519.1,303.3L532.0,300.0L544.8,297.8L557.7,291.1L570.6,286.7L583.5,280.0L596.4,276.7L609.3,272.2L622.2,270.0L635.1,264.4L648.0,255.6L660.9,252.2L673.8,245.6L686.6,242.2L699.5,236.7L712.4,230.0L725.3,224.4L738.2,215.6L751.1,214.4L764.0,212.2L776.9,206.7L789.8,206.7L802.7,201.1L815.5,201.1L828.4,198.9L841.3,198.9L854.2,198.9L867.1,198.9L880.0,198.9" fill="none" stroke="#d2a8ff" stroke-width="2.5" stroke-linecap="round" stroke-linejoin="round"/>
  <path d="M55.0,340.0L67.9,334.4L80.8,333.3L93.7,332.2L106.6,331.1L119.5,326.7L132.3,326.7L145.2,326.7L158.1,326.7L171.0,325.6L183.9,325.6L196.8,325.6L209.7,325.6L222.6,325.6L235.5,325.6L248.4,323.3L261.2,322.2L274.1,321.1L287.0,321.1L299.9,318.9L312.8,318.9L325.7,316.7L338.6,312.2L351.5,310.0L364.4,304.4L377.3,303.3L390.2,303.3L403.0,302.2L415.9,301.1L428.8,294.4L441.7,294.4L454.6,294.4L467.5,294.4L480.4,294.4L493.3,290.0L506.2,290.0L519.1,286.7L532.0,275.6L544.8,235.6L557.7,235.6L570.6,235.6L583.5,235.6L596.4,233.3L609.3,232.2L622.2,231.1L635.1,231.1L648.0,231.1L660.9,231.1L673.8,227.8L686.6,226.7L699.5,226.7L712.4,226.7L725.3,226.7L738.2,226.7L751.1,226.7L764.0,224.4L776.9,222.2L789.8,221.1L802.7,221.1L815.5,221.1L828.4,220.0L841.3,216.7L854.2,216.7L867.1,215.6L880.0,215.6" fill="none" stroke="#f85149" stroke-width="2.5" stroke-linecap="round" stroke-linejoin="round"/>
  <circle cx="880.0" cy="55.6" r="3.5" fill="#58a6ff"/>
  <text x="889.0" y="59.6" fill="#58a6ff" font-size="11" font-weight="600" font-family="-apple-system,BlinkMacSystemFont,Segoe UI,Helvetica,Arial,sans-serif">256</text>
  <circle cx="880.0" cy="287.8" r="3.5" fill="#f78166"/>
  <text x="889.0" y="291.8" fill="#f78166" font-size="11" font-weight="600" font-family="-apple-system,BlinkMacSystemFont,Segoe UI,Helvetica,Arial,sans-serif">47</text>
  <circle cx="880.0" cy="321.1" r="3.5" fill="#3fb950"/>
  <text x="889.0" y="325.1" fill="#3fb950" font-size="11" font-weight="600" font-family="-apple-system,BlinkMacSystemFont,Segoe UI,Helvetica,Arial,sans-serif">17</text>
  <circle cx="880.0" cy="198.9" r="3.5" fill="#d2a8ff"/>
  <text x="889.0" y="202.9" fill="#d2a8ff" font-size="11" font-weight="600" font-family="-apple-system,BlinkMacSystemFont,Segoe UI,Helvetica,Arial,sans-serif">127</text>
  <circle cx="880.0" cy="215.6" r="3.5" fill="#f85149"/>
  <text x="889.0" y="219.6" fill="#f85149" font-size="11" font-weight="600" font-family="-apple-system,BlinkMacSystemFont,Segoe UI,Helvetica,Arial,sans-serif">112</text>
  <line x1="55" y1="368" x2="71" y2="368" stroke="#f78166" stroke-width="2.5" stroke-linecap="round"/>
  <text x="77" y="372" fill="#8b949e" font-size="11" font-family="-apple-system,BlinkMacSystemFont,Segoe UI,Helvetica,Arial,sans-serif">Repos</text>
  <line x1="255" y1="368" x2="271" y2="368" stroke="#58a6ff" stroke-width="2.5" stroke-linecap="round"/>
  <text x="277" y="372" fill="#8b949e" font-size="11" font-family="-apple-system,BlinkMacSystemFont,Segoe UI,Helvetica,Arial,sans-serif">PRs Opened</text>
  <line x1="455" y1="368" x2="471" y2="368" stroke="#3fb950" stroke-width="2.5" stroke-linecap="round"/>
  <text x="477" y="372" fill="#8b949e" font-size="11" font-family="-apple-system,BlinkMacSystemFont,Segoe UI,Helvetica,Arial,sans-serif">Open PRs</text>
  <line x1="55" y1="386" x2="71" y2="386" stroke="#d2a8ff" stroke-width="2.5" stroke-linecap="round"/>
  <text x="77" y="390" fill="#8b949e" font-size="11" font-family="-apple-system,BlinkMacSystemFont,Segoe UI,Helvetica,Arial,sans-serif">Merged</text>
  <line x1="255" y1="386" x2="271" y2="386" stroke="#f85149" stroke-width="2.5" stroke-linecap="round"/>
  <text x="277" y="390" fill="#8b949e" font-size="11" font-family="-apple-system,BlinkMacSystemFont,Segoe UI,Helvetica,Arial,sans-serif">Closed</text>
</svg>