<svg xmlns="http://www.w3.org/2000/svg" viewBox="0 0 960 400" width="960" height="400">
  <defs>
    <linearGradient id="gR" x1="0" y1="0" x2="0" y2="1">
      <stop offset="0%" stop-color="#f78166" stop-opacity="0.25"/>
      <stop offset="100%" stop-color="#f78166" stop-opacity="0.02"/>
    </linearGradient>
    <linearGradient id="gO" x1="0" y1="0" x2="0" y2="1">
      <stop offset="0%" stop-color="#58a6ff" stop-opacity="0.25"/>
      <stop offset="100%" stop-color="#58a6ff" stop-opacity="0.02"/>
    </linearGradient>
    <linearGradient id="gOp" x1="0" y1="0" x2="0" y2="1">
      <stop offset="0%" stop-color="#3fb950" stop-opacity="0.25"/>
      <stop offset="100%" stop-color="#3fb950" stop-opacity="0.02"/>
    </linearGradient>
    <linearGradient id="gM" x1="0" y1="0" x2="0" y2="1">
      <stop offset="0%" stop-color="#d2a8ff" stop-opacity="0.25"/>
      <stop offset="100%" stop-color="#d2a8ff" stop-opacity="0.02"/>
    </linearGradient>
    <linearGradient id="gC" x1="0" y1="0" x2="0" y2="1">
      <stop offset="0%" stop-color="#f85149" stop-opacity="0.25"/>
      <stop offset="100%" stop-color="#f85149" stop-opacity="0.02"/>
    </linearGradient>
  </defs>
  <rect width="960" height="400" rx="12" fill="#0d1117"/>
  <rect width="960" height="400" rx="12" fill="none" stroke="#30363d" stroke-width="1"/>
  <text x="55" y="30" fill="#e6edf3" font-size="15" font-weight="600" font-family="-apple-system,BlinkMacSystemFont,Segoe UI,Helvetica,Arial,sans-serif">GitHub Activity — jlaportebot</text>
  <text x="880" y="30" fill="#8b949e" font-size="11" text-anchor="end" font-family="-apple-system,BlinkMacSystemFont,Segoe UI,Helvetica,Arial,sans-serif">Updated Jun 25, 2026</text>
  <line x1="55" y1="340.0" x2="880" y2="340.0" stroke="#21262d" stroke-width="1"/>
  <text x="47" y="344.0" fill="#8b949e" font-size="11" text-anchor="end" font-family="-apple-system,BlinkMacSystemFont,Segoe UI,Helvetica,Arial,sans-serif">0</text>
  <line x1="55" y1="327.4" x2="880" y2="327.4" stroke="#21262d" stroke-width="1"/>
  <text x="47" y="331.4" fill="#8b949e" font-size="11" text-anchor="end" font-family="-apple-system,BlinkMacSystemFont,Segoe UI,Helvetica,Arial,sans-serif">10</text>
  <line x1="55" y1="314.8" x2="880" y2="314.8" stroke="#21262d" stroke-width="1"/>
  <text x="47" y="318.8" fill="#8b949e" font-size="11" text-anchor="end" font-family="-apple-system,BlinkMacSystemFont,Segoe UI,Helvetica,Arial,sans-serif">20</text>
  <line x1="55" y1="302.2" x2="880" y2="302.2" stroke="#21262d" stroke-width="1"/>
  <text x="47" y="306.2" fill="#8b949e" font-size="11" text-anchor="end" font-family="-apple-system,BlinkMacSystemFont,Segoe UI,Helvetica,Arial,sans-serif">30</text>
  <line x1="55" y1="289.6" x2="880" y2="289.6" stroke="#21262d" stroke-width="1"/>
  <text x="47" y="293.6" fill="#8b949e" font-size="11" text-anchor="end" font-family="-apple-system,BlinkMacSystemFont,Segoe UI,Helvetica,Arial,sans-serif">40</text>
  <line x1="55" y1="277.0" x2="880" y2="277.0" stroke="#21262d" stroke-width="1"/>
  <text x="47" y="281.0" fill="#8b949e" font-size="11" text-anchor="end" font-family="-apple-system,BlinkMacSystemFont,Segoe UI,Helvetica,Arial,sans-serif">50</text>
  <line x1="55" y1="264.3" x2="880" y2="264.3" stroke="#21262d" stroke-width="1"/>
  <text x="47" y="268.3" fill="#8b949e" font-size="11" text-anchor="end" font-family="-apple-system,BlinkMacSystemFont,Segoe UI,Helvetica,Arial,sans-serif">60</text>
  <line x1="55" y1="251.7" x2="880" y2="251.7" stroke="#21262d" stroke-width="1"/>
  <text x="47" y="255.7" fill="#8b949e" font-size="11" text-anchor="end" font-family="-apple-system,BlinkMacSystemFont,Segoe UI,Helvetica,Arial,sans-serif">70</text>
  <line x1="55" y1="239.1" x2="880" y2="239.1" stroke="#21262d" stroke-width="1"/>
  <text x="47" y="243.1" fill="#8b949e" font-size="11" text-anchor="end" font-family="-apple-system,BlinkMacSystemFont,Segoe UI,Helvetica,Arial,sans-serif">80</text>
  <line x1="55" y1="226.5" x2="880" y2="226.5" stroke="#21262d" stroke-width="1"/>
  <text x="47" y="230.5" fill="#8b949e" font-size="11" text-anchor="end" font-family="-apple-system,BlinkMacSystemFont,Segoe UI,Helvetica,Arial,sans-serif">90</text>
  <line x1="55" y1="213.9" x2="880" y2="213.9" stroke="#21262d" stroke-width="1"/>
  <text x="47" y="217.9" fill="#8b949e" font-size="11" text-anchor="end" font-family="-apple-system,BlinkMacSystemFont,Segoe UI,Helvetica,Arial,sans-serif">100</text>
  <line x1="55" y1="201.3" x2="880" y2="201.3" stroke="#21262d" stroke-width="1"/>
  <text x="47" y="205.3" fill="#8b949e" font-size="11" text-anchor="end" font-family="-apple-system,BlinkMacSystemFont,Segoe UI,Helvetica,Arial,sans-serif">110</text>
  <line x1="55" y1="188.7" x2="880" y2="188.7" stroke="#21262d" stroke-width="1"/>
  <text x="47" y="192.7" fill="#8b949e" font-size="11" text-anchor="end" font-family="-apple-system,BlinkMacSystemFont,Segoe UI,Helvetica,Arial,sans-serif">120</text>
  <line x1="55" y1="176.1" x2="880" y2="176.1" stroke="#21262d" stroke-width="1"/>
  <text x="47" y="180.1" fill="#8b949e" font-size="11" text-anchor="end" font-family="-apple-system,BlinkMacSystemFont,Segoe UI,Helvetica,Arial,sans-serif">130</text>
  <line x1="55" y1="163.5" x2="880" y2="163.5" stroke="#21262d" stroke-width="1"/>
  <text x="47" y="167.5" fill="#8b949e" font-size="11" text-anchor="end" font-family="-apple-system,BlinkMacSystemFont,Segoe UI,Helvetica,Arial,sans-serif">140</text>
  <line x1="55" y1="150.9" x2="880" y2="150.9" stroke="#21262d" stroke-width="1"/>
  <text x="47" y="154.9" fill="#8b949e" font-size="11" text-anchor="end" font-family="-apple-system,BlinkMacSystemFont,Segoe UI,Helvetica,Arial,sans-serif">150</text>
  <line x1="55" y1="138.3" x2="880" y2="138.3" stroke="#21262d" stroke-width="1"/>
  <text x="47" y="142.3" fill="#8b949e" font-size="11" text-anchor="end" font-family="-apple-system,BlinkMacSystemFont,Segoe UI,Helvetica,Arial,sans-serif">160</text>
  <line x1="55" y1="125.7" x2="880" y2="125.7" stroke="#21262d" stroke-width="1"/>
  <text x="47" y="129.7" fill="#8b949e" font-size="11" text-anchor="end" font-family="-apple-system,BlinkMacSystemFont,Segoe UI,Helvetica,Arial,sans-serif">170</text>
  <line x1="55" y1="113.0" x2="880" y2="113.0" stroke="#21262d" stroke-width="1"/>
  <text x="47" y="117.0" fill="#8b949e" font-size="11" text-anchor="end" font-family="-apple-system,BlinkMacSystemFont,Segoe UI,Helvetica,Arial,sans-serif">180</text>
  <line x1="55" y1="100.4" x2="880" y2="100.4" stroke="#21262d" stroke-width="1"/>
  <text x="47" y="104.4" fill="#8b949e" font-size="11" text-anchor="end" font-family="-apple-system,BlinkMacSystemFont,Segoe UI,Helvetica,Arial,sans-serif">190</text>
  <line x1="55" y1="87.8" x2="880" y2="87.8" stroke="#21262d" stroke-width="1"/>
  <text x="47" y="91.8" fill="#8b949e" font-size="11" text-anchor="end" font-family="-apple-system,BlinkMacSystemFont,Segoe UI,Helvetica,Arial,sans-serif">200</text>
  <line x1="55" y1="75.2" x2="880" y2="75.2" stroke="#21262d" stroke-width="1"/>
  <text x="47" y="79.2" fill="#8b949e" font-size="11" text-anchor="end" font-family="-apple-system,BlinkMacSystemFont,Segoe UI,Helvetica,Arial,sans-serif">210</text>
  <line x1="55" y1="62.6" x2="880" y2="62.6" stroke="#21262d" stroke-width="1"/>
  <text x="47" y="66.6" fill="#8b949e" font-size="11" text-anchor="end" font-family="-apple-system,BlinkMacSystemFont,Segoe UI,Helvetica,Arial,sans-serif">220</text>
  <line x1="55" y1="50.0" x2="880" y2="50.0" stroke="#21262d" stroke-width="1"/>
  <text x="47" y="54.0" fill="#8b949e" font-size="11" text-anchor="end" font-family="-apple-system,BlinkMacSystemFont,Segoe UI,Helvetica,Arial,sans-serif">230</text>
  <line x1="55.0" y1="50" x2="55.0" y2="340" stroke="#21262d" stroke-width="1" stroke-dasharray="4,4"/>
  <text x="55.0" y="360" fill="#8b949e" font-size="10" text-anchor="middle" font-family="-apple-system,BlinkMacSystemFont,Segoe UI,Helvetica,Arial,sans-serif">May 02</text>
  <line x1="161.9" y1="50" x2="161.9" y2="340" stroke="#21262d" stroke-width="1" stroke-dasharray="4,4"/>
  <text x="161.9" y="360" fill="#8b949e" font-size="10" text-anchor="middle" font-family="-apple-system,BlinkMacSystemFont,Segoe UI,Helvetica,Arial,sans-serif">May 09</text>
  <line x1="268.9" y1="50" x2="268.9" y2="340" stroke="#21262d" stroke-width="1" stroke-dasharray="4,4"/>
  <text x="268.9" y="360" fill="#8b949e" font-size="10" text-anchor="middle" font-family="-apple-system,BlinkMacSystemFont,Segoe UI,Helvetica,Arial,sans-serif">May 16</text>
  <line x1="375.8" y1="50" x2="375.8" y2="340" stroke="#21262d" stroke-width="1" stroke-dasharray="4,4"/>
  <text x="375.8" y="360" fill="#8b949e" font-size="10" text-anchor="middle" font-family="-apple-system,BlinkMacSystemFont,Segoe UI,Helvetica,Arial,sans-serif">May 23</text>
  <line x1="482.8" y1="50" x2="482.8" y2="340" stroke="#21262d" stroke-width="1" stroke-dasharray="4,4"/>
  <text x="482.8" y="360" fill="#8b949e" font-size="10" text-anchor="middle" font-family="-apple-system,BlinkMacSystemFont,Segoe UI,Helvetica,Arial,sans-serif">May 30</text>
  <line x1="589.7" y1="50" x2="589.7" y2="340" stroke="#21262d" stroke-width="1" stroke-dasharray="4,4"/>
  <text x="589.7" y="360" fill="#8b949e" font-size="10" text-anchor="middle" font-family="-apple-system,BlinkMacSystemFont,Segoe UI,Helvetica,Arial,sans-serif">Jun 06</text>
  <line x1="696.7" y1="50" x2="696.7" y2="340" stroke="#21262d" stroke-width="1" stroke-dasharray="4,4"/>
  <text x="696.7" y="360" fill="#8b949e" font-size="10" text-anchor="middle" font-family="-apple-system,BlinkMacSystemFont,Segoe UI,Helvetica,Arial,sans-serif">Jun 13</text>
  <line x1="803.6" y1="50" x2="803.6" y2="340" stroke="#21262d" stroke-width="1" stroke-dasharray="4,4"/>
  <text x="803.6" y="360" fill="#8b949e" font-size="10" text-anchor="middle" font-family="-apple-system,BlinkMacSystemFont,Segoe UI,Helvetica,Arial,sans-serif">Jun 20</text>
  <line x1="880.0" y1="50" x2="880.0" y2="340" stroke="#21262d" stroke-width="1" stroke-dasharray="4,4"/>
  <text x="880.0" y="360" fill="#8b949e" font-size="10" text-anchor="middle" font-family="-apple-system,BlinkMacSystemFont,Segoe UI,Helvetica,Arial,sans-serif">Jun 25</text>
  <path d="M55.0,340.0L70.3,324.9L85.6,316.0L100.8,311.0L116.1,303.4L131.4,298.4L146.7,294.6L161.9,294.6L177.2,294.6L192.5,294.6L207.8,294.6L223.1,294.6L238.3,294.6L253.6,294.6L268.9,293.3L284.2,288.3L299.4,283.3L314.7,277.0L330.0,269.4L345.3,261.8L360.6,254.3L375.8,248.0L391.1,242.9L406.4,240.4L421.7,236.6L436.9,222.7L452.2,221.5L467.5,215.2L482.8,206.3L498.1,200.0L513.3,195.0L528.6,195.0L543.9,195.0L559.2,195.0L574.4,195.0L589.7,195.0L605.0,187.4L620.3,177.3L635.6,173.6L650.8,166.0L666.1,161.0L681.4,153.4L696.7,142.0L711.9,135.7L727.2,129.4L742.5,123.1L757.8,111.8L773.1,104.2L788.3,94.1L803.6,86.6L818.9,80.3L834.2,75.2L849.4,67.7L864.7,58.8L880.0,56.3L880.0,340.0L55.0,340.0Z" fill="url(#gO)"/>
  <path d="M55.0,338.7L70.3,338.7L85.6,338.7L100.8,338.7L116.1,338.7L131.4,338.7L146.7,338.7L161.9,338.7L177.2,338.7L192.5,338.7L207.8,338.7L223.1,338.7L238.3,338.7L253.6,338.7L268.9,338.7L284.2,335.0L299.4,335.0L314.7,335.0L330.0,335.0L345.3,335.0L360.6,335.0L375.8,335.0L391.1,333.7L406.4,329.9L421.7,329.9L436.9,328.7L452.2,328.7L467.5,328.7L482.8,328.7L498.1,328.7L513.3,326.1L528.6,326.1L543.9,326.1L559.2,326.1L574.4,326.1L589.7,326.1L605.0,326.1L620.3,323.6L635.6,308.5L650.8,308.5L666.1,308.5L681.4,308.5L696.7,298.4L711.9,298.4L727.2,298.4L742.5,298.4L757.8,298.4L773.1,295.9L788.3,295.9L803.6,294.6L818.9,293.3L834.2,292.1L849.4,290.8L864.7,288.3L880.0,287.0L880.0,340.0L55.0,340.0Z" fill="url(#gR)"/>
  <path d="M55.0,340.0L70.3,324.9L85.6,316.0L100.8,311.0L116.1,303.4L131.4,298.4L146.7,294.6L161.9,294.6L177.2,294.6L192.5,294.6L207.8,294.6L223.1,294.6L238.3,294.6L253.6,294.6L268.9,293.3L284.2,288.3L299.4,283.3L314.7,277.0L330.0,269.4L345.3,261.8L360.6,254.3L375.8,248.0L391.1,242.9L406.4,240.4L421.7,236.6L436.9,222.7L452.2,221.5L467.5,215.2L482.8,206.3L498.1,200.0L513.3,195.0L528.6,195.0L543.9,195.0L559.2,195.0L574.4,195.0L589.7,195.0L605.0,187.4L620.3,177.3L635.6,173.6L650.8,166.0L666.1,161.0L681.4,153.4L696.7,142.0L711.9,135.7L727.2,129.4L742.5,123.1L757.8,111.8L773.1,104.2L788.3,94.1L803.6,86.6L818.9,80.3L834.2,75.2L849.4,67.7L864.7,58.8L880.0,56.3" fill="none" stroke="#58a6ff" stroke-width="2.5" stroke-linecap="round" stroke-linejoin="round"/>
  <path d="M55.0,338.7L70.3,338.7L85.6,338.7L100.8,338.7L116.1,338.7L131.4,338.7L146.7,338.7L161.9,338.7L177.2,338.7L192.5,338.7L207.8,338.7L223.1,338.7L238.3,338.7L253.6,338.7L268.9,338.7L284.2,335.0L299.4,335.0L314.7,335.0L330.0,335.0L345.3,335.0L360.6,335.0L375.8,335.0L391.1,333.7L406.4,329.9L421.7,329.9L436.9,328.7L452.2,328.7L467.5,328.7L482.8,328.7L498.1,328.7L513.3,326.1L528.6,326.1L543.9,326.1L559.2,326.1L574.4,326.1L589.7,326.1L605.0,326.1L620.3,323.6L635.6,308.5L650.8,308.5L666.1,308.5L681.4,308.5L696.7,298.4L711.9,298.4L727.2,298.4L742.5,298.4L757.8,298.4L773.1,295.9L788.3,295.9L803.6,294.6L818.9,293.3L834.2,292.1L849.4,290.8L864.7,288.3L880.0,287.0" fill="none" stroke="#f78166" stroke-width="2.5" stroke-linecap="round" stroke-linejoin="round"/>
  <path d="M55.0,340.0L70.3,331.2L85.6,324.9L100.8,322.3L116.1,316.0L131.4,317.3L146.7,313.5L161.9,314.8L177.2,314.8L192.5,316.0L207.8,316.0L223.1,316.0L238.3,316.0L253.6,316.0L268.9,314.8L284.2,313.5L299.4,312.3L314.7,308.5L330.0,300.9L345.3,295.9L360.6,290.8L375.8,287.0L391.1,287.0L406.4,288.3L421.7,290.8L436.9,285.8L452.2,284.5L467.5,284.5L482.8,280.7L498.1,287.0L513.3,283.3L528.6,283.3L543.9,283.3L559.2,283.3L574.4,290.8L589.7,290.8L605.0,289.6L620.3,295.9L635.6,340.0L650.8,340.0L666.1,340.0L681.4,340.0L696.7,335.0L711.9,335.0L727.2,332.4L742.5,332.4L757.8,331.2L773.1,327.4L788.3,328.7L803.6,326.1L818.9,326.1L834.2,328.7L849.4,327.4L864.7,328.7L880.0,327.4" fill="none" stroke="#3fb950" stroke-width="2.5" stroke-linecap="round" stroke-linejoin="round"/>
  <path d="M55.0,340.0L70.3,340.0L85.6,338.7L100.8,337.5L116.1,337.5L131.4,336.2L146.7,336.2L161.9,335.0L177.2,335.0L192.5,335.0L207.8,335.0L223.1,335.0L238.3,335.0L253.6,335.0L268.9,335.0L284.2,333.7L299.4,331.2L314.7,329.9L330.0,329.9L345.3,329.9L360.6,327.4L375.8,327.4L391.1,327.4L406.4,326.1L421.7,326.1L436.9,318.6L452.2,318.6L467.5,313.5L482.8,309.7L498.1,304.7L513.3,303.4L528.6,303.4L543.9,303.4L559.2,303.4L574.4,300.9L589.7,300.9L605.0,298.4L620.3,294.6L635.6,292.1L650.8,284.5L666.1,279.5L681.4,271.9L696.7,268.1L711.9,263.1L727.2,260.6L742.5,254.3L757.8,244.2L773.1,240.4L788.3,232.8L803.6,229.0L818.9,222.7L834.2,215.2L849.4,208.9L864.7,198.8L880.0,197.5" fill="none" stroke="#d2a8ff" stroke-width="2.5" stroke-linecap="round" stroke-linejoin="round"/>
  <path d="M55.0,340.0L70.3,333.7L85.6,332.4L100.8,331.2L116.1,329.9L131.4,324.9L146.7,324.9L161.9,324.9L177.2,324.9L192.5,323.6L207.8,323.6L223.1,323.6L238.3,323.6L253.6,323.6L268.9,323.6L284.2,321.1L299.4,319.8L314.7,318.6L330.0,318.6L345.3,316.0L360.6,316.0L375.8,313.5L391.1,308.5L406.4,306.0L421.7,299.7L436.9,298.4L452.2,298.4L467.5,297.1L482.8,295.9L498.1,288.3L513.3,288.3L528.6,288.3L543.9,288.3L559.2,288.3L574.4,283.3L589.7,283.3L605.0,279.5L620.3,266.9L635.6,221.5L650.8,221.5L666.1,221.5L681.4,221.5L696.7,219.0L711.9,217.7L727.2,216.4L742.5,216.4L757.8,216.4L773.1,216.4L788.3,212.7L803.6,211.4L818.9,211.4L834.2,211.4L849.4,211.4L864.7,211.4L880.0,211.4" fill="none" stroke="#f85149" stroke-width="2.5" stroke-linecap="round" stroke-linejoin="round"/>
  <circle cx="880.0" cy="56.3" r="3.5" fill="#58a6ff"/>
  <text x="889.0" y="60.3" fill="#58a6ff" font-size="11" font-weight="600" font-family="-apple-system,BlinkMacSystemFont,Segoe UI,Helvetica,Arial,sans-serif">225</text>
  <circle cx="880.0" cy="287.0" r="3.5" fill="#f78166"/>
  <text x="889.0" y="291.0" fill="#f78166" font-size="11" font-weight="600" font-family="-apple-system,BlinkMacSystemFont,Segoe UI,Helvetica,Arial,sans-serif">42</text>
  <circle cx="880.0" cy="327.4" r="3.5" fill="#3fb950"/>
  <text x="889.0" y="331.4" fill="#3fb950" font-size="11" font-weight="600" font-family="-apple-system,BlinkMacSystemFont,Segoe UI,Helvetica,Arial,sans-serif">10</text>
  <circle cx="880.0" cy="197.5" r="3.5" fill="#d2a8ff"/>
  <text x="889.0" y="201.5" fill="#d2a8ff" font-size="11" font-weight="600" font-family="-apple-system,BlinkMacSystemFont,Segoe UI,Helvetica,Arial,sans-serif">113</text>
  <circle cx="880.0" cy="211.4" r="3.5" fill="#f85149"/>
  <text x="889.0" y="215.4" fill="#f85149" font-size="11" font-weight="600" font-family="-apple-system,BlinkMacSystemFont,Segoe UI,Helvetica,Arial,sans-serif">102</text>
  <line x1="55" y1="368" x2="71" y2="368" stroke="#f78166" stroke-width="2.5" stroke-linecap="round"/>
  <text x="77" y="372" fill="#8b949e" font-size="11" font-family="-apple-system,BlinkMacSystemFont,Segoe UI,Helvetica,Arial,sans-serif">Repos</text>
  <line x1="255" y1="368" x2="271" y2="368" stroke="#58a6ff" stroke-width="2.5" stroke-linecap="round"/>
  <text x="277" y="372" fill="#8b949e" font-size="11" font-family="-apple-system,BlinkMacSystemFont,Segoe UI,Helvetica,Arial,sans-serif">PRs Opened</text>
  <line x1="455" y1="368" x2="471" y2="368" stroke="#3fb950" stroke-width="2.5" stroke-linecap="round"/>
  <text x="477" y="372" fill="#8b949e" font-size="11" font-family="-apple-system,BlinkMacSystemFont,Segoe UI,Helvetica,Arial,sans-serif">Open PRs</text>
  <line x1="55" y1="386" x2="71" y2="386" stroke="#d2a8ff" stroke-width="2.5" stroke-linecap="round"/>
  <text x="77" y="390" fill="#8b949e" font-size="11" font-family="-apple-system,BlinkMacSystemFont,Segoe UI,Helvetica,Arial,sans-serif">Merged</text>
  <line x1="255" y1="386" x2="271" y2="386" stroke="#f85149" stroke-width="2.5" stroke-linecap="round"/>
  <text x="277" y="390" fill="#8b949e" font-size="11" font-family="-apple-system,BlinkMacSystemFont,Segoe UI,Helvetica,Arial,sans-serif">Closed</text>
</svg>