<svg xmlns="http://www.w3.org/2000/svg" viewBox="0 0 960 400" width="960" height="400">
  <defs>
    <linearGradient id="gR" x1="0" y1="0" x2="0" y2="1">
      <stop offset="0%" stop-color="#3fb950" stop-opacity="0.25"/>
      <stop offset="100%" stop-color="#3fb950" stop-opacity="0.02"/>
    </linearGradient>
    <linearGradient id="gO" x1="0" y1="0" x2="0" y2="1">
      <stop offset="0%" stop-color="#58a6ff" stop-opacity="0.25"/>
      <stop offset="100%" stop-color="#58a6ff" stop-opacity="0.02"/>
    </linearGradient>
    <linearGradient id="gOp" x1="0" y1="0" x2="0" y2="1">
      <stop offset="0%" stop-color="#d2a8ff" stop-opacity="0.25"/>
      <stop offset="100%" stop-color="#d2a8ff" stop-opacity="0.02"/>
    </linearGradient>
    <linearGradient id="gM" x1="0" y1="0" x2="0" y2="1">
      <stop offset="0%" stop-color="#f78166" stop-opacity="0.25"/>
      <stop offset="100%" stop-color="#f78166" stop-opacity="0.02"/>
    </linearGradient>
    <linearGradient id="gC" x1="0" y1="0" x2="0" y2="1">
      <stop offset="0%" stop-color="#f85149" stop-opacity="0.25"/>
      <stop offset="100%" stop-color="#f85149" stop-opacity="0.02"/>
    </linearGradient>
  </defs>
  <rect width="960" height="400" rx="12" fill="#0d1117"/>
  <rect width="960" height="400" rx="12" fill="none" stroke="#30363d" stroke-width="1"/>
  <text x="55" y="30" fill="#e6edf3" font-size="15" font-weight="600" font-family="-apple-system,BlinkMacSystemFont,Segoe UI,Helvetica,Arial,sans-serif">GitHub Activity — jlaportebot</text>
  <text x="880" y="30" fill="#8b949e" font-size="11" text-anchor="end" font-family="-apple-system,BlinkMacSystemFont,Segoe UI,Helvetica,Arial,sans-serif">Updated Jun 07, 2026</text>
  <line x1="55" y1="340.0" x2="880" y2="340.0" stroke="#21262d" stroke-width="1"/>
  <text x="47" y="344.0" fill="#8b949e" font-size="11" text-anchor="end" font-family="-apple-system,BlinkMacSystemFont,Segoe UI,Helvetica,Arial,sans-serif">0</text>
  <line x1="55" y1="317.2" x2="880" y2="317.2" stroke="#21262d" stroke-width="1"/>
  <text x="47" y="321.2" fill="#8b949e" font-size="11" text-anchor="end" font-family="-apple-system,BlinkMacSystemFont,Segoe UI,Helvetica,Arial,sans-serif">10</text>
  <line x1="55" y1="294.3" x2="880" y2="294.3" stroke="#21262d" stroke-width="1"/>
  <text x="47" y="298.3" fill="#8b949e" font-size="11" text-anchor="end" font-family="-apple-system,BlinkMacSystemFont,Segoe UI,Helvetica,Arial,sans-serif">20</text>
  <line x1="55" y1="271.5" x2="880" y2="271.5" stroke="#21262d" stroke-width="1"/>
  <text x="47" y="275.5" fill="#8b949e" font-size="11" text-anchor="end" font-family="-apple-system,BlinkMacSystemFont,Segoe UI,Helvetica,Arial,sans-serif">30</text>
  <line x1="55" y1="248.7" x2="880" y2="248.7" stroke="#21262d" stroke-width="1"/>
  <text x="47" y="252.7" fill="#8b949e" font-size="11" text-anchor="end" font-family="-apple-system,BlinkMacSystemFont,Segoe UI,Helvetica,Arial,sans-serif">40</text>
  <line x1="55" y1="225.8" x2="880" y2="225.8" stroke="#21262d" stroke-width="1"/>
  <text x="47" y="229.8" fill="#8b949e" font-size="11" text-anchor="end" font-family="-apple-system,BlinkMacSystemFont,Segoe UI,Helvetica,Arial,sans-serif">50</text>
  <line x1="55" y1="203.0" x2="880" y2="203.0" stroke="#21262d" stroke-width="1"/>
  <text x="47" y="207.0" fill="#8b949e" font-size="11" text-anchor="end" font-family="-apple-system,BlinkMacSystemFont,Segoe UI,Helvetica,Arial,sans-serif">60</text>
  <line x1="55" y1="180.2" x2="880" y2="180.2" stroke="#21262d" stroke-width="1"/>
  <text x="47" y="184.2" fill="#8b949e" font-size="11" text-anchor="end" font-family="-apple-system,BlinkMacSystemFont,Segoe UI,Helvetica,Arial,sans-serif">70</text>
  <line x1="55" y1="157.3" x2="880" y2="157.3" stroke="#21262d" stroke-width="1"/>
  <text x="47" y="161.3" fill="#8b949e" font-size="11" text-anchor="end" font-family="-apple-system,BlinkMacSystemFont,Segoe UI,Helvetica,Arial,sans-serif">80</text>
  <line x1="55" y1="134.5" x2="880" y2="134.5" stroke="#21262d" stroke-width="1"/>
  <text x="47" y="138.5" fill="#8b949e" font-size="11" text-anchor="end" font-family="-apple-system,BlinkMacSystemFont,Segoe UI,Helvetica,Arial,sans-serif">90</text>
  <line x1="55" y1="111.7" x2="880" y2="111.7" stroke="#21262d" stroke-width="1"/>
  <text x="47" y="115.7" fill="#8b949e" font-size="11" text-anchor="end" font-family="-apple-system,BlinkMacSystemFont,Segoe UI,Helvetica,Arial,sans-serif">100</text>
  <line x1="55" y1="88.8" x2="880" y2="88.8" stroke="#21262d" stroke-width="1"/>
  <text x="47" y="92.8" fill="#8b949e" font-size="11" text-anchor="end" font-family="-apple-system,BlinkMacSystemFont,Segoe UI,Helvetica,Arial,sans-serif">110</text>
  <line x1="55" y1="66.0" x2="880" y2="66.0" stroke="#21262d" stroke-width="1"/>
  <text x="47" y="70.0" fill="#8b949e" font-size="11" text-anchor="end" font-family="-apple-system,BlinkMacSystemFont,Segoe UI,Helvetica,Arial,sans-serif">120</text>
  <line x1="55.0" y1="50" x2="55.0" y2="340" stroke="#21262d" stroke-width="1" stroke-dasharray="4,4"/>
  <text x="55.0" y="360" fill="#8b949e" font-size="10" text-anchor="middle" font-family="-apple-system,BlinkMacSystemFont,Segoe UI,Helvetica,Arial,sans-serif">May 02</text>
  <line x1="169.6" y1="50" x2="169.6" y2="340" stroke="#21262d" stroke-width="1" stroke-dasharray="4,4"/>
  <text x="169.6" y="360" fill="#8b949e" font-size="10" text-anchor="middle" font-family="-apple-system,BlinkMacSystemFont,Segoe UI,Helvetica,Arial,sans-serif">May 07</text>
  <line x1="284.2" y1="50" x2="284.2" y2="340" stroke="#21262d" stroke-width="1" stroke-dasharray="4,4"/>
  <text x="284.2" y="360" fill="#8b949e" font-size="10" text-anchor="middle" font-family="-apple-system,BlinkMacSystemFont,Segoe UI,Helvetica,Arial,sans-serif">May 12</text>
  <line x1="398.8" y1="50" x2="398.8" y2="340" stroke="#21262d" stroke-width="1" stroke-dasharray="4,4"/>
  <text x="398.8" y="360" fill="#8b949e" font-size="10" text-anchor="middle" font-family="-apple-system,BlinkMacSystemFont,Segoe UI,Helvetica,Arial,sans-serif">May 17</text>
  <line x1="513.3" y1="50" x2="513.3" y2="340" stroke="#21262d" stroke-width="1" stroke-dasharray="4,4"/>
  <text x="513.3" y="360" fill="#8b949e" font-size="10" text-anchor="middle" font-family="-apple-system,BlinkMacSystemFont,Segoe UI,Helvetica,Arial,sans-serif">May 22</text>
  <line x1="627.9" y1="50" x2="627.9" y2="340" stroke="#21262d" stroke-width="1" stroke-dasharray="4,4"/>
  <text x="627.9" y="360" fill="#8b949e" font-size="10" text-anchor="middle" font-family="-apple-system,BlinkMacSystemFont,Segoe UI,Helvetica,Arial,sans-serif">May 27</text>
  <line x1="742.5" y1="50" x2="742.5" y2="340" stroke="#21262d" stroke-width="1" stroke-dasharray="4,4"/>
  <text x="742.5" y="360" fill="#8b949e" font-size="10" text-anchor="middle" font-family="-apple-system,BlinkMacSystemFont,Segoe UI,Helvetica,Arial,sans-serif">Jun 01</text>
  <line x1="857.1" y1="50" x2="857.1" y2="340" stroke="#21262d" stroke-width="1" stroke-dasharray="4,4"/>
  <text x="857.1" y="360" fill="#8b949e" font-size="10" text-anchor="middle" font-family="-apple-system,BlinkMacSystemFont,Segoe UI,Helvetica,Arial,sans-serif">Jun 06</text>
  <line x1="880.0" y1="50" x2="880.0" y2="340" stroke="#21262d" stroke-width="1" stroke-dasharray="4,4"/>
  <text x="880.0" y="360" fill="#8b949e" font-size="10" text-anchor="middle" font-family="-apple-system,BlinkMacSystemFont,Segoe UI,Helvetica,Arial,sans-serif">Jun 07</text>
  <path d="M55.0,340.0L77.9,310.3L100.8,294.3L123.8,285.2L146.7,271.5L169.6,260.1L192.5,253.2L215.4,253.2L238.3,253.2L261.2,253.2L284.2,253.2L307.1,253.2L330.0,253.2L352.9,253.2L375.8,250.9L398.8,241.8L421.7,232.7L444.6,221.3L467.5,207.6L490.4,193.9L513.3,180.2L536.2,168.7L559.2,159.6L582.1,155.0L605.0,148.2L627.9,123.1L650.8,120.8L673.8,107.1L696.7,91.1L719.6,79.7L742.5,70.6L765.4,70.6L788.3,70.6L811.2,70.6L834.2,70.6L857.1,70.6L880.0,61.4L880.0,340.0L55.0,340.0Z" fill="url(#gO)"/>
  <path d="M55.0,337.7L77.9,319.4L100.8,308.0L123.8,303.5L146.7,292.0L169.6,282.9L192.5,278.3L215.4,278.3L238.3,278.3L261.2,278.3L284.2,278.3L307.1,278.3L330.0,278.3L352.9,278.3L375.8,276.1L398.8,257.8L421.7,255.5L444.6,255.5L467.5,255.5L490.4,255.5L513.3,255.5L536.2,255.5L559.2,244.1L582.1,228.1L605.0,214.4L627.9,212.1L650.8,212.1L673.8,212.1L696.7,212.1L719.6,212.1L742.5,207.6L765.4,207.6L788.3,207.6L811.2,207.6L834.2,207.6L857.1,207.6L880.0,203.0L880.0,340.0L55.0,340.0Z" fill="url(#gR)"/>
  <path d="M55.0,340.0L77.9,310.3L100.8,294.3L123.8,285.2L146.7,271.5L169.6,260.1L192.5,253.2L215.4,253.2L238.3,253.2L261.2,253.2L284.2,253.2L307.1,253.2L330.0,253.2L352.9,253.2L375.8,250.9L398.8,241.8L421.7,232.7L444.6,221.3L467.5,207.6L490.4,193.9L513.3,180.2L536.2,168.7L559.2,159.6L582.1,155.0L605.0,148.2L627.9,123.1L650.8,120.8L673.8,107.1L696.7,91.1L719.6,79.7L742.5,70.6L765.4,70.6L788.3,70.6L811.2,70.6L834.2,70.6L857.1,70.6L880.0,61.4" fill="none" stroke="#58a6ff" stroke-width="2.5" stroke-linecap="round" stroke-linejoin="round"/>
  <path d="M55.0,337.7L77.9,319.4L100.8,308.0L123.8,303.5L146.7,292.0L169.6,282.9L192.5,278.3L215.4,278.3L238.3,278.3L261.2,278.3L284.2,278.3L307.1,278.3L330.0,278.3L352.9,278.3L375.8,276.1L398.8,257.8L421.7,255.5L444.6,255.5L467.5,255.5L490.4,255.5L513.3,255.5L536.2,255.5L559.2,244.1L582.1,228.1L605.0,214.4L627.9,212.1L650.8,212.1L673.8,212.1L696.7,212.1L719.6,212.1L742.5,207.6L765.4,207.6L788.3,207.6L811.2,207.6L834.2,207.6L857.1,207.6L880.0,203.0" fill="none" stroke="#3fb950" stroke-width="2.5" stroke-linecap="round" stroke-linejoin="round"/>
  <path d="M55.0,340.0L77.9,321.7L100.8,312.6L123.8,308.0L146.7,296.6L169.6,296.6L192.5,289.8L215.4,292.0L238.3,292.0L261.2,294.3L284.2,294.3L307.1,294.3L330.0,294.3L352.9,294.3L375.8,292.0L398.8,289.8L421.7,287.5L444.6,280.6L467.5,266.9L490.4,257.8L513.3,248.7L536.2,241.8L559.2,241.8L582.1,244.1L605.0,248.7L627.9,239.5L650.8,237.2L673.8,235.0L696.7,230.4L719.6,244.1L742.5,237.2L765.4,237.2L788.3,237.2L811.2,237.2L834.2,250.9L857.1,250.9L880.0,250.9" fill="none" stroke="#d2a8ff" stroke-width="2.5" stroke-linecap="round" stroke-linejoin="round"/>
  <path d="M55.0,340.0L77.9,340.0L100.8,335.4L123.8,333.1L146.7,333.1L169.6,330.9L192.5,330.9L215.4,328.6L238.3,328.6L261.2,328.6L284.2,328.6L307.1,328.6L330.0,328.6L352.9,328.6L375.8,328.6L398.8,326.3L421.7,321.7L444.6,319.4L467.5,319.4L490.4,319.4L513.3,314.9L536.2,314.9L559.2,314.9L582.1,312.6L605.0,312.6L627.9,298.9L650.8,298.9L673.8,289.8L696.7,280.6L719.6,269.2L742.5,266.9L765.4,266.9L788.3,266.9L811.2,266.9L834.2,262.4L857.1,262.4L880.0,257.8" fill="none" stroke="#f78166" stroke-width="2.5" stroke-linecap="round" stroke-linejoin="round"/>
  <path d="M55.0,340.0L77.9,328.6L100.8,326.3L123.8,324.0L146.7,321.7L169.6,312.6L192.5,312.6L215.4,312.6L238.3,312.6L261.2,310.3L284.2,310.3L307.1,310.3L330.0,310.3L352.9,310.3L375.8,310.3L398.8,305.7L421.7,303.5L444.6,301.2L467.5,301.2L490.4,296.6L513.3,296.6L536.2,292.0L559.2,282.9L582.1,278.3L605.0,266.9L627.9,264.6L650.8,264.6L673.8,262.4L696.7,260.1L719.6,246.4L742.5,246.4L765.4,246.4L788.3,246.4L811.2,246.4L834.2,237.2L857.1,237.2L880.0,232.7" fill="none" stroke="#f85149" stroke-width="2.5" stroke-linecap="round" stroke-linejoin="round"/>
  <circle cx="880.0" cy="61.4" r="3.5" fill="#58a6ff"/>
  <text x="889.0" y="65.4" fill="#58a6ff" font-size="11" font-weight="600" font-family="-apple-system,BlinkMacSystemFont,Segoe UI,Helvetica,Arial,sans-serif">122</text>
  <circle cx="880.0" cy="203.0" r="3.5" fill="#3fb950"/>
  <text x="889.0" y="207.0" fill="#3fb950" font-size="11" font-weight="600" font-family="-apple-system,BlinkMacSystemFont,Segoe UI,Helvetica,Arial,sans-serif">60</text>
  <circle cx="880.0" cy="250.9" r="3.5" fill="#d2a8ff"/>
  <text x="889.0" y="254.9" fill="#d2a8ff" font-size="11" font-weight="600" font-family="-apple-system,BlinkMacSystemFont,Segoe UI,Helvetica,Arial,sans-serif">39</text>
  <circle cx="880.0" cy="257.8" r="3.5" fill="#f78166"/>
  <text x="889.0" y="261.8" fill="#f78166" font-size="11" font-weight="600" font-family="-apple-system,BlinkMacSystemFont,Segoe UI,Helvetica,Arial,sans-serif">36</text>
  <circle cx="880.0" cy="232.7" r="3.5" fill="#f85149"/>
  <text x="889.0" y="236.7" fill="#f85149" font-size="11" font-weight="600" font-family="-apple-system,BlinkMacSystemFont,Segoe UI,Helvetica,Arial,sans-serif">47</text>
  <line x1="55" y1="368" x2="71" y2="368" stroke="#3fb950" stroke-width="2.5" stroke-linecap="round"/>
  <text x="77" y="372" fill="#8b949e" font-size="11" font-family="-apple-system,BlinkMacSystemFont,Segoe UI,Helvetica,Arial,sans-serif">Repos</text>
  <line x1="255" y1="368" x2="271" y2="368" stroke="#58a6ff" stroke-width="2.5" stroke-linecap="round"/>
  <text x="277" y="372" fill="#8b949e" font-size="11" font-family="-apple-system,BlinkMacSystemFont,Segoe UI,Helvetica,Arial,sans-serif">PRs Opened</text>
  <line x1="455" y1="368" x2="471" y2="368" stroke="#d2a8ff" stroke-width="2.5" stroke-linecap="round"/>
  <text x="477" y="372" fill="#8b949e" font-size="11" font-family="-apple-system,BlinkMacSystemFont,Segoe UI,Helvetica,Arial,sans-serif">Open PRs</text>
  <line x1="55" y1="386" x2="71" y2="386" stroke="#f78166" stroke-width="2.5" stroke-linecap="round"/>
  <text x="77" y="390" fill="#8b949e" font-size="11" font-family="-apple-system,BlinkMacSystemFont,Segoe UI,Helvetica,Arial,sans-serif">Merged</text>
  <line x1="255" y1="386" x2="271" y2="386" stroke="#f85149" stroke-width="2.5" stroke-linecap="round"/>
  <text x="277" y="390" fill="#8b949e" font-size="11" font-family="-apple-system,BlinkMacSystemFont,Segoe UI,Helvetica,Arial,sans-serif">Closed</text>
</svg>