<svg xmlns="http://www.w3.org/2000/svg" viewBox="0 0 960 400" width="960" height="400">
  <defs>
    <linearGradient id="gR" x1="0" y1="0" x2="0" y2="1">
      <stop offset="0%" stop-color="#3fb950" stop-opacity="0.25"/>
      <stop offset="100%" stop-color="#3fb950" stop-opacity="0.02"/>
    </linearGradient>
    <linearGradient id="gO" x1="0" y1="0" x2="0" y2="1">
      <stop offset="0%" stop-color="#58a6ff" stop-opacity="0.25"/>
      <stop offset="100%" stop-color="#58a6ff" stop-opacity="0.02"/>
    </linearGradient>
    <linearGradient id="gOp" x1="0" y1="0" x2="0" y2="1">
      <stop offset="0%" stop-color="#d2a8ff" stop-opacity="0.25"/>
      <stop offset="100%" stop-color="#d2a8ff" stop-opacity="0.02"/>
    </linearGradient>
    <linearGradient id="gM" x1="0" y1="0" x2="0" y2="1">
      <stop offset="0%" stop-color="#f78166" stop-opacity="0.25"/>
      <stop offset="100%" stop-color="#f78166" stop-opacity="0.02"/>
    </linearGradient>
    <linearGradient id="gC" x1="0" y1="0" x2="0" y2="1">
      <stop offset="0%" stop-color="#f85149" stop-opacity="0.25"/>
      <stop offset="100%" stop-color="#f85149" stop-opacity="0.02"/>
    </linearGradient>
  </defs>
  <rect width="960" height="400" rx="12" fill="#0d1117"/>
  <rect width="960" height="400" rx="12" fill="none" stroke="#30363d" stroke-width="1"/>
  <text x="55" y="30" fill="#e6edf3" font-size="15" font-weight="600" font-family="-apple-system,BlinkMacSystemFont,Segoe UI,Helvetica,Arial,sans-serif">GitHub Activity — jlaportebot</text>
  <text x="880" y="30" fill="#8b949e" font-size="11" text-anchor="end" font-family="-apple-system,BlinkMacSystemFont,Segoe UI,Helvetica,Arial,sans-serif">Updated Jun 15, 2026</text>
  <line x1="55" y1="340.0" x2="880" y2="340.0" stroke="#21262d" stroke-width="1"/>
  <text x="47" y="344.0" fill="#8b949e" font-size="11" text-anchor="end" font-family="-apple-system,BlinkMacSystemFont,Segoe UI,Helvetica,Arial,sans-serif">0</text>
  <line x1="55" y1="322.8" x2="880" y2="322.8" stroke="#21262d" stroke-width="1"/>
  <text x="47" y="326.8" fill="#8b949e" font-size="11" text-anchor="end" font-family="-apple-system,BlinkMacSystemFont,Segoe UI,Helvetica,Arial,sans-serif">10</text>
  <line x1="55" y1="305.7" x2="880" y2="305.7" stroke="#21262d" stroke-width="1"/>
  <text x="47" y="309.7" fill="#8b949e" font-size="11" text-anchor="end" font-family="-apple-system,BlinkMacSystemFont,Segoe UI,Helvetica,Arial,sans-serif">20</text>
  <line x1="55" y1="288.5" x2="880" y2="288.5" stroke="#21262d" stroke-width="1"/>
  <text x="47" y="292.5" fill="#8b949e" font-size="11" text-anchor="end" font-family="-apple-system,BlinkMacSystemFont,Segoe UI,Helvetica,Arial,sans-serif">30</text>
  <line x1="55" y1="271.4" x2="880" y2="271.4" stroke="#21262d" stroke-width="1"/>
  <text x="47" y="275.4" fill="#8b949e" font-size="11" text-anchor="end" font-family="-apple-system,BlinkMacSystemFont,Segoe UI,Helvetica,Arial,sans-serif">40</text>
  <line x1="55" y1="254.2" x2="880" y2="254.2" stroke="#21262d" stroke-width="1"/>
  <text x="47" y="258.2" fill="#8b949e" font-size="11" text-anchor="end" font-family="-apple-system,BlinkMacSystemFont,Segoe UI,Helvetica,Arial,sans-serif">50</text>
  <line x1="55" y1="237.0" x2="880" y2="237.0" stroke="#21262d" stroke-width="1"/>
  <text x="47" y="241.0" fill="#8b949e" font-size="11" text-anchor="end" font-family="-apple-system,BlinkMacSystemFont,Segoe UI,Helvetica,Arial,sans-serif">60</text>
  <line x1="55" y1="219.9" x2="880" y2="219.9" stroke="#21262d" stroke-width="1"/>
  <text x="47" y="223.9" fill="#8b949e" font-size="11" text-anchor="end" font-family="-apple-system,BlinkMacSystemFont,Segoe UI,Helvetica,Arial,sans-serif">70</text>
  <line x1="55" y1="202.7" x2="880" y2="202.7" stroke="#21262d" stroke-width="1"/>
  <text x="47" y="206.7" fill="#8b949e" font-size="11" text-anchor="end" font-family="-apple-system,BlinkMacSystemFont,Segoe UI,Helvetica,Arial,sans-serif">80</text>
  <line x1="55" y1="185.6" x2="880" y2="185.6" stroke="#21262d" stroke-width="1"/>
  <text x="47" y="189.6" fill="#8b949e" font-size="11" text-anchor="end" font-family="-apple-system,BlinkMacSystemFont,Segoe UI,Helvetica,Arial,sans-serif">90</text>
  <line x1="55" y1="168.4" x2="880" y2="168.4" stroke="#21262d" stroke-width="1"/>
  <text x="47" y="172.4" fill="#8b949e" font-size="11" text-anchor="end" font-family="-apple-system,BlinkMacSystemFont,Segoe UI,Helvetica,Arial,sans-serif">100</text>
  <line x1="55" y1="151.2" x2="880" y2="151.2" stroke="#21262d" stroke-width="1"/>
  <text x="47" y="155.2" fill="#8b949e" font-size="11" text-anchor="end" font-family="-apple-system,BlinkMacSystemFont,Segoe UI,Helvetica,Arial,sans-serif">110</text>
  <line x1="55" y1="134.1" x2="880" y2="134.1" stroke="#21262d" stroke-width="1"/>
  <text x="47" y="138.1" fill="#8b949e" font-size="11" text-anchor="end" font-family="-apple-system,BlinkMacSystemFont,Segoe UI,Helvetica,Arial,sans-serif">120</text>
  <line x1="55" y1="116.9" x2="880" y2="116.9" stroke="#21262d" stroke-width="1"/>
  <text x="47" y="120.9" fill="#8b949e" font-size="11" text-anchor="end" font-family="-apple-system,BlinkMacSystemFont,Segoe UI,Helvetica,Arial,sans-serif">130</text>
  <line x1="55" y1="99.8" x2="880" y2="99.8" stroke="#21262d" stroke-width="1"/>
  <text x="47" y="103.8" fill="#8b949e" font-size="11" text-anchor="end" font-family="-apple-system,BlinkMacSystemFont,Segoe UI,Helvetica,Arial,sans-serif">140</text>
  <line x1="55" y1="82.6" x2="880" y2="82.6" stroke="#21262d" stroke-width="1"/>
  <text x="47" y="86.6" fill="#8b949e" font-size="11" text-anchor="end" font-family="-apple-system,BlinkMacSystemFont,Segoe UI,Helvetica,Arial,sans-serif">150</text>
  <line x1="55" y1="65.4" x2="880" y2="65.4" stroke="#21262d" stroke-width="1"/>
  <text x="47" y="69.4" fill="#8b949e" font-size="11" text-anchor="end" font-family="-apple-system,BlinkMacSystemFont,Segoe UI,Helvetica,Arial,sans-serif">160</text>
  <line x1="55.0" y1="50" x2="55.0" y2="340" stroke="#21262d" stroke-width="1" stroke-dasharray="4,4"/>
  <text x="55.0" y="360" fill="#8b949e" font-size="10" text-anchor="middle" font-family="-apple-system,BlinkMacSystemFont,Segoe UI,Helvetica,Arial,sans-serif">May 02</text>
  <line x1="167.5" y1="50" x2="167.5" y2="340" stroke="#21262d" stroke-width="1" stroke-dasharray="4,4"/>
  <text x="167.5" y="360" fill="#8b949e" font-size="10" text-anchor="middle" font-family="-apple-system,BlinkMacSystemFont,Segoe UI,Helvetica,Arial,sans-serif">May 08</text>
  <line x1="280.0" y1="50" x2="280.0" y2="340" stroke="#21262d" stroke-width="1" stroke-dasharray="4,4"/>
  <text x="280.0" y="360" fill="#8b949e" font-size="10" text-anchor="middle" font-family="-apple-system,BlinkMacSystemFont,Segoe UI,Helvetica,Arial,sans-serif">May 14</text>
  <line x1="392.5" y1="50" x2="392.5" y2="340" stroke="#21262d" stroke-width="1" stroke-dasharray="4,4"/>
  <text x="392.5" y="360" fill="#8b949e" font-size="10" text-anchor="middle" font-family="-apple-system,BlinkMacSystemFont,Segoe UI,Helvetica,Arial,sans-serif">May 20</text>
  <line x1="505.0" y1="50" x2="505.0" y2="340" stroke="#21262d" stroke-width="1" stroke-dasharray="4,4"/>
  <text x="505.0" y="360" fill="#8b949e" font-size="10" text-anchor="middle" font-family="-apple-system,BlinkMacSystemFont,Segoe UI,Helvetica,Arial,sans-serif">May 26</text>
  <line x1="617.5" y1="50" x2="617.5" y2="340" stroke="#21262d" stroke-width="1" stroke-dasharray="4,4"/>
  <text x="617.5" y="360" fill="#8b949e" font-size="10" text-anchor="middle" font-family="-apple-system,BlinkMacSystemFont,Segoe UI,Helvetica,Arial,sans-serif">Jun 01</text>
  <line x1="730.0" y1="50" x2="730.0" y2="340" stroke="#21262d" stroke-width="1" stroke-dasharray="4,4"/>
  <text x="730.0" y="360" fill="#8b949e" font-size="10" text-anchor="middle" font-family="-apple-system,BlinkMacSystemFont,Segoe UI,Helvetica,Arial,sans-serif">Jun 07</text>
  <line x1="842.5" y1="50" x2="842.5" y2="340" stroke="#21262d" stroke-width="1" stroke-dasharray="4,4"/>
  <text x="842.5" y="360" fill="#8b949e" font-size="10" text-anchor="middle" font-family="-apple-system,BlinkMacSystemFont,Segoe UI,Helvetica,Arial,sans-serif">Jun 13</text>
  <line x1="880.0" y1="50" x2="880.0" y2="340" stroke="#21262d" stroke-width="1" stroke-dasharray="4,4"/>
  <text x="880.0" y="360" fill="#8b949e" font-size="10" text-anchor="middle" font-family="-apple-system,BlinkMacSystemFont,Segoe UI,Helvetica,Arial,sans-serif">Jun 15</text>
  <path d="M55.0,340.0L73.8,319.4L92.5,307.4L111.2,300.5L130.0,290.2L148.8,283.4L167.5,278.2L186.2,278.2L205.0,278.2L223.8,278.2L242.5,278.2L261.2,278.2L280.0,278.2L298.8,278.2L317.5,276.5L336.2,269.6L355.0,262.8L373.8,254.2L392.5,243.9L411.2,233.6L430.0,223.3L448.8,214.7L467.5,207.9L486.2,204.4L505.0,199.3L523.8,180.4L542.5,178.7L561.2,170.1L580.0,158.1L598.8,149.5L617.5,142.7L636.2,142.7L655.0,142.7L673.8,142.7L692.5,142.7L711.2,142.7L730.0,132.4L748.8,118.6L767.5,113.5L786.2,103.2L805.0,96.3L823.8,86.0L842.5,70.6L861.2,62.0L880.0,58.6L880.0,340.0L55.0,340.0Z" fill="url(#gO)"/>
  <path d="M55.0,338.3L73.8,338.3L92.5,338.3L111.2,338.3L130.0,338.3L148.8,338.3L167.5,338.3L186.2,338.3L205.0,338.3L223.8,338.3L242.5,338.3L261.2,338.3L280.0,338.3L298.8,338.3L317.5,338.3L336.2,333.1L355.0,333.1L373.8,333.1L392.5,333.1L411.2,333.1L430.0,333.1L448.8,333.1L467.5,331.4L486.2,326.3L505.0,326.3L523.8,324.6L542.5,324.6L561.2,324.6L580.0,324.6L598.8,324.6L617.5,321.1L636.2,321.1L655.0,321.1L673.8,321.1L692.5,321.1L711.2,321.1L730.0,321.1L748.8,317.7L767.5,297.1L786.2,297.1L805.0,297.1L823.8,297.1L842.5,283.4L861.2,283.4L880.0,283.4L880.0,340.0L55.0,340.0Z" fill="url(#gR)"/>
  <path d="M55.0,340.0L73.8,319.4L92.5,307.4L111.2,300.5L130.0,290.2L148.8,283.4L167.5,278.2L186.2,278.2L205.0,278.2L223.8,278.2L242.5,278.2L261.2,278.2L280.0,278.2L298.8,278.2L317.5,276.5L336.2,269.6L355.0,262.8L373.8,254.2L392.5,243.9L411.2,233.6L430.0,223.3L448.8,214.7L467.5,207.9L486.2,204.4L505.0,199.3L523.8,180.4L542.5,178.7L561.2,170.1L580.0,158.1L598.8,149.5L617.5,142.7L636.2,142.7L655.0,142.7L673.8,142.7L692.5,142.7L711.2,142.7L730.0,132.4L748.8,118.6L767.5,113.5L786.2,103.2L805.0,96.3L823.8,86.0L842.5,70.6L861.2,62.0L880.0,58.6" fill="none" stroke="#58a6ff" stroke-width="2.5" stroke-linecap="round" stroke-linejoin="round"/>
  <path d="M55.0,338.3L73.8,338.3L92.5,338.3L111.2,338.3L130.0,338.3L148.8,338.3L167.5,338.3L186.2,338.3L205.0,338.3L223.8,338.3L242.5,338.3L261.2,338.3L280.0,338.3L298.8,338.3L317.5,338.3L336.2,333.1L355.0,333.1L373.8,333.1L392.5,333.1L411.2,333.1L430.0,333.1L448.8,333.1L467.5,331.4L486.2,326.3L505.0,326.3L523.8,324.6L542.5,324.6L561.2,324.6L580.0,324.6L598.8,324.6L617.5,321.1L636.2,321.1L655.0,321.1L673.8,321.1L692.5,321.1L711.2,321.1L730.0,321.1L748.8,317.7L767.5,297.1L786.2,297.1L805.0,297.1L823.8,297.1L842.5,283.4L861.2,283.4L880.0,283.4" fill="none" stroke="#3fb950" stroke-width="2.5" stroke-linecap="round" stroke-linejoin="round"/>
  <path d="M55.0,340.0L73.8,328.0L92.5,319.4L111.2,316.0L130.0,307.4L148.8,309.1L167.5,304.0L186.2,305.7L205.0,305.7L223.8,307.4L242.5,307.4L261.2,307.4L280.0,307.4L298.8,307.4L317.5,305.7L336.2,304.0L355.0,302.2L373.8,297.1L392.5,286.8L411.2,279.9L430.0,273.1L448.8,267.9L467.5,267.9L486.2,269.6L505.0,273.1L523.8,266.2L542.5,264.5L561.2,264.5L580.0,259.3L598.8,267.9L617.5,262.8L636.2,262.8L655.0,262.8L673.8,262.8L692.5,273.1L711.2,273.1L730.0,271.4L748.8,279.9L767.5,340.0L786.2,340.0L805.0,340.0L823.8,340.0L842.5,333.1L861.2,333.1L880.0,331.4" fill="none" stroke="#d2a8ff" stroke-width="2.5" stroke-linecap="round" stroke-linejoin="round"/>
  <path d="M55.0,340.0L73.8,340.0L92.5,338.3L111.2,336.6L130.0,336.6L148.8,334.9L167.5,334.9L186.2,333.1L205.0,333.1L223.8,333.1L242.5,333.1L261.2,333.1L280.0,333.1L298.8,333.1L317.5,333.1L336.2,331.4L355.0,328.0L373.8,326.3L392.5,326.3L411.2,326.3L430.0,322.8L448.8,322.8L467.5,322.8L486.2,321.1L505.0,321.1L523.8,310.8L542.5,310.8L561.2,304.0L580.0,298.8L598.8,292.0L617.5,290.2L636.2,290.2L655.0,290.2L673.8,290.2L692.5,286.8L711.2,286.8L730.0,283.4L748.8,278.2L767.5,274.8L786.2,264.5L805.0,257.6L823.8,247.3L842.5,242.2L861.2,235.3L880.0,235.3" fill="none" stroke="#f78166" stroke-width="2.5" stroke-linecap="round" stroke-linejoin="round"/>
  <path d="M55.0,340.0L73.8,331.4L92.5,329.7L111.2,328.0L130.0,326.3L148.8,319.4L167.5,319.4L186.2,319.4L205.0,319.4L223.8,317.7L242.5,317.7L261.2,317.7L280.0,317.7L298.8,317.7L317.5,317.7L336.2,314.3L355.0,312.5L373.8,310.8L392.5,310.8L411.2,307.4L430.0,307.4L448.8,304.0L467.5,297.1L486.2,293.7L505.0,285.1L523.8,283.4L542.5,283.4L561.2,281.7L580.0,279.9L598.8,269.6L617.5,269.6L636.2,269.6L655.0,269.6L673.8,269.6L692.5,262.8L711.2,262.8L730.0,257.6L748.8,240.5L767.5,178.7L786.2,178.7L805.0,178.7L823.8,178.7L842.5,175.3L861.2,173.6L880.0,171.8" fill="none" stroke="#f85149" stroke-width="2.5" stroke-linecap="round" stroke-linejoin="round"/>
  <circle cx="880.0" cy="58.6" r="3.5" fill="#58a6ff"/>
  <text x="889.0" y="62.6" fill="#58a6ff" font-size="11" font-weight="600" font-family="-apple-system,BlinkMacSystemFont,Segoe UI,Helvetica,Arial,sans-serif">164</text>
  <circle cx="880.0" cy="283.4" r="3.5" fill="#3fb950"/>
  <text x="889.0" y="287.4" fill="#3fb950" font-size="11" font-weight="600" font-family="-apple-system,BlinkMacSystemFont,Segoe UI,Helvetica,Arial,sans-serif">33</text>
  <circle cx="880.0" cy="331.4" r="3.5" fill="#d2a8ff"/>
  <text x="889.0" y="335.4" fill="#d2a8ff" font-size="11" font-weight="600" font-family="-apple-system,BlinkMacSystemFont,Segoe UI,Helvetica,Arial,sans-serif">5</text>
  <circle cx="880.0" cy="235.3" r="3.5" fill="#f78166"/>
  <text x="889.0" y="239.3" fill="#f78166" font-size="11" font-weight="600" font-family="-apple-system,BlinkMacSystemFont,Segoe UI,Helvetica,Arial,sans-serif">61</text>
  <circle cx="880.0" cy="171.8" r="3.5" fill="#f85149"/>
  <text x="889.0" y="175.8" fill="#f85149" font-size="11" font-weight="600" font-family="-apple-system,BlinkMacSystemFont,Segoe UI,Helvetica,Arial,sans-serif">98</text>
  <line x1="55" y1="368" x2="71" y2="368" stroke="#3fb950" stroke-width="2.5" stroke-linecap="round"/>
  <text x="77" y="372" fill="#8b949e" font-size="11" font-family="-apple-system,BlinkMacSystemFont,Segoe UI,Helvetica,Arial,sans-serif">Repos</text>
  <line x1="255" y1="368" x2="271" y2="368" stroke="#58a6ff" stroke-width="2.5" stroke-linecap="round"/>
  <text x="277" y="372" fill="#8b949e" font-size="11" font-family="-apple-system,BlinkMacSystemFont,Segoe UI,Helvetica,Arial,sans-serif">PRs Opened</text>
  <line x1="455" y1="368" x2="471" y2="368" stroke="#d2a8ff" stroke-width="2.5" stroke-linecap="round"/>
  <text x="477" y="372" fill="#8b949e" font-size="11" font-family="-apple-system,BlinkMacSystemFont,Segoe UI,Helvetica,Arial,sans-serif">Open PRs</text>
  <line x1="55" y1="386" x2="71" y2="386" stroke="#f78166" stroke-width="2.5" stroke-linecap="round"/>
  <text x="77" y="390" fill="#8b949e" font-size="11" font-family="-apple-system,BlinkMacSystemFont,Segoe UI,Helvetica,Arial,sans-serif">Merged</text>
  <line x1="255" y1="386" x2="271" y2="386" stroke="#f85149" stroke-width="2.5" stroke-linecap="round"/>
  <text x="277" y="390" fill="#8b949e" font-size="11" font-family="-apple-system,BlinkMacSystemFont,Segoe UI,Helvetica,Arial,sans-serif">Closed</text>
</svg>