<svg xmlns="http://www.w3.org/2000/svg" viewBox="0 0 960 400" width="960" height="400">
  <defs>
    <linearGradient id="gR" x1="0" y1="0" x2="0" y2="1">
      <stop offset="0%" stop-color="#3fb950" stop-opacity="0.25"/>
      <stop offset="100%" stop-color="#3fb950" stop-opacity="0.02"/>
    </linearGradient>
    <linearGradient id="gO" x1="0" y1="0" x2="0" y2="1">
      <stop offset="0%" stop-color="#58a6ff" stop-opacity="0.25"/>
      <stop offset="100%" stop-color="#58a6ff" stop-opacity="0.02"/>
    </linearGradient>
    <linearGradient id="gOp" x1="0" y1="0" x2="0" y2="1">
      <stop offset="0%" stop-color="#d2a8ff" stop-opacity="0.25"/>
      <stop offset="100%" stop-color="#d2a8ff" stop-opacity="0.02"/>
    </linearGradient>
    <linearGradient id="gM" x1="0" y1="0" x2="0" y2="1">
      <stop offset="0%" stop-color="#f78166" stop-opacity="0.25"/>
      <stop offset="100%" stop-color="#f78166" stop-opacity="0.02"/>
    </linearGradient>
    <linearGradient id="gC" x1="0" y1="0" x2="0" y2="1">
      <stop offset="0%" stop-color="#f85149" stop-opacity="0.25"/>
      <stop offset="100%" stop-color="#f85149" stop-opacity="0.02"/>
    </linearGradient>
  </defs>
  <rect width="960" height="400" rx="12" fill="#0d1117"/>
  <rect width="960" height="400" rx="12" fill="none" stroke="#30363d" stroke-width="1"/>
  <text x="55" y="30" fill="#e6edf3" font-size="15" font-weight="600" font-family="-apple-system,BlinkMacSystemFont,Segoe UI,Helvetica,Arial,sans-serif">GitHub Activity — jlaportebot</text>
  <text x="880" y="30" fill="#8b949e" font-size="11" text-anchor="end" font-family="-apple-system,BlinkMacSystemFont,Segoe UI,Helvetica,Arial,sans-serif">Updated Jun 09, 2026</text>
  <line x1="55" y1="340.0" x2="880" y2="340.0" stroke="#21262d" stroke-width="1"/>
  <text x="47" y="344.0" fill="#8b949e" font-size="11" text-anchor="end" font-family="-apple-system,BlinkMacSystemFont,Segoe UI,Helvetica,Arial,sans-serif">0</text>
  <line x1="55" y1="319.0" x2="880" y2="319.0" stroke="#21262d" stroke-width="1"/>
  <text x="47" y="323.0" fill="#8b949e" font-size="11" text-anchor="end" font-family="-apple-system,BlinkMacSystemFont,Segoe UI,Helvetica,Arial,sans-serif">10</text>
  <line x1="55" y1="298.0" x2="880" y2="298.0" stroke="#21262d" stroke-width="1"/>
  <text x="47" y="302.0" fill="#8b949e" font-size="11" text-anchor="end" font-family="-apple-system,BlinkMacSystemFont,Segoe UI,Helvetica,Arial,sans-serif">20</text>
  <line x1="55" y1="277.0" x2="880" y2="277.0" stroke="#21262d" stroke-width="1"/>
  <text x="47" y="281.0" fill="#8b949e" font-size="11" text-anchor="end" font-family="-apple-system,BlinkMacSystemFont,Segoe UI,Helvetica,Arial,sans-serif">30</text>
  <line x1="55" y1="255.9" x2="880" y2="255.9" stroke="#21262d" stroke-width="1"/>
  <text x="47" y="259.9" fill="#8b949e" font-size="11" text-anchor="end" font-family="-apple-system,BlinkMacSystemFont,Segoe UI,Helvetica,Arial,sans-serif">40</text>
  <line x1="55" y1="234.9" x2="880" y2="234.9" stroke="#21262d" stroke-width="1"/>
  <text x="47" y="238.9" fill="#8b949e" font-size="11" text-anchor="end" font-family="-apple-system,BlinkMacSystemFont,Segoe UI,Helvetica,Arial,sans-serif">50</text>
  <line x1="55" y1="213.9" x2="880" y2="213.9" stroke="#21262d" stroke-width="1"/>
  <text x="47" y="217.9" fill="#8b949e" font-size="11" text-anchor="end" font-family="-apple-system,BlinkMacSystemFont,Segoe UI,Helvetica,Arial,sans-serif">60</text>
  <line x1="55" y1="192.9" x2="880" y2="192.9" stroke="#21262d" stroke-width="1"/>
  <text x="47" y="196.9" fill="#8b949e" font-size="11" text-anchor="end" font-family="-apple-system,BlinkMacSystemFont,Segoe UI,Helvetica,Arial,sans-serif">70</text>
  <line x1="55" y1="171.9" x2="880" y2="171.9" stroke="#21262d" stroke-width="1"/>
  <text x="47" y="175.9" fill="#8b949e" font-size="11" text-anchor="end" font-family="-apple-system,BlinkMacSystemFont,Segoe UI,Helvetica,Arial,sans-serif">80</text>
  <line x1="55" y1="150.9" x2="880" y2="150.9" stroke="#21262d" stroke-width="1"/>
  <text x="47" y="154.9" fill="#8b949e" font-size="11" text-anchor="end" font-family="-apple-system,BlinkMacSystemFont,Segoe UI,Helvetica,Arial,sans-serif">90</text>
  <line x1="55" y1="129.9" x2="880" y2="129.9" stroke="#21262d" stroke-width="1"/>
  <text x="47" y="133.9" fill="#8b949e" font-size="11" text-anchor="end" font-family="-apple-system,BlinkMacSystemFont,Segoe UI,Helvetica,Arial,sans-serif">100</text>
  <line x1="55" y1="108.8" x2="880" y2="108.8" stroke="#21262d" stroke-width="1"/>
  <text x="47" y="112.8" fill="#8b949e" font-size="11" text-anchor="end" font-family="-apple-system,BlinkMacSystemFont,Segoe UI,Helvetica,Arial,sans-serif">110</text>
  <line x1="55" y1="87.8" x2="880" y2="87.8" stroke="#21262d" stroke-width="1"/>
  <text x="47" y="91.8" fill="#8b949e" font-size="11" text-anchor="end" font-family="-apple-system,BlinkMacSystemFont,Segoe UI,Helvetica,Arial,sans-serif">120</text>
  <line x1="55" y1="66.8" x2="880" y2="66.8" stroke="#21262d" stroke-width="1"/>
  <text x="47" y="70.8" fill="#8b949e" font-size="11" text-anchor="end" font-family="-apple-system,BlinkMacSystemFont,Segoe UI,Helvetica,Arial,sans-serif">130</text>
  <line x1="55.0" y1="50" x2="55.0" y2="340" stroke="#21262d" stroke-width="1" stroke-dasharray="4,4"/>
  <text x="55.0" y="360" fill="#8b949e" font-size="10" text-anchor="middle" font-family="-apple-system,BlinkMacSystemFont,Segoe UI,Helvetica,Arial,sans-serif">May 02</text>
  <line x1="160.8" y1="50" x2="160.8" y2="340" stroke="#21262d" stroke-width="1" stroke-dasharray="4,4"/>
  <text x="160.8" y="360" fill="#8b949e" font-size="10" text-anchor="middle" font-family="-apple-system,BlinkMacSystemFont,Segoe UI,Helvetica,Arial,sans-serif">May 07</text>
  <line x1="266.5" y1="50" x2="266.5" y2="340" stroke="#21262d" stroke-width="1" stroke-dasharray="4,4"/>
  <text x="266.5" y="360" fill="#8b949e" font-size="10" text-anchor="middle" font-family="-apple-system,BlinkMacSystemFont,Segoe UI,Helvetica,Arial,sans-serif">May 12</text>
  <line x1="372.3" y1="50" x2="372.3" y2="340" stroke="#21262d" stroke-width="1" stroke-dasharray="4,4"/>
  <text x="372.3" y="360" fill="#8b949e" font-size="10" text-anchor="middle" font-family="-apple-system,BlinkMacSystemFont,Segoe UI,Helvetica,Arial,sans-serif">May 17</text>
  <line x1="478.1" y1="50" x2="478.1" y2="340" stroke="#21262d" stroke-width="1" stroke-dasharray="4,4"/>
  <text x="478.1" y="360" fill="#8b949e" font-size="10" text-anchor="middle" font-family="-apple-system,BlinkMacSystemFont,Segoe UI,Helvetica,Arial,sans-serif">May 22</text>
  <line x1="583.8" y1="50" x2="583.8" y2="340" stroke="#21262d" stroke-width="1" stroke-dasharray="4,4"/>
  <text x="583.8" y="360" fill="#8b949e" font-size="10" text-anchor="middle" font-family="-apple-system,BlinkMacSystemFont,Segoe UI,Helvetica,Arial,sans-serif">May 27</text>
  <line x1="689.6" y1="50" x2="689.6" y2="340" stroke="#21262d" stroke-width="1" stroke-dasharray="4,4"/>
  <text x="689.6" y="360" fill="#8b949e" font-size="10" text-anchor="middle" font-family="-apple-system,BlinkMacSystemFont,Segoe UI,Helvetica,Arial,sans-serif">Jun 01</text>
  <line x1="795.4" y1="50" x2="795.4" y2="340" stroke="#21262d" stroke-width="1" stroke-dasharray="4,4"/>
  <text x="795.4" y="360" fill="#8b949e" font-size="10" text-anchor="middle" font-family="-apple-system,BlinkMacSystemFont,Segoe UI,Helvetica,Arial,sans-serif">Jun 06</text>
  <line x1="880.0" y1="50" x2="880.0" y2="340" stroke="#21262d" stroke-width="1" stroke-dasharray="4,4"/>
  <text x="880.0" y="360" fill="#8b949e" font-size="10" text-anchor="middle" font-family="-apple-system,BlinkMacSystemFont,Segoe UI,Helvetica,Arial,sans-serif">Jun 10</text>
  <path d="M55.0,340.0L76.2,314.8L97.3,300.1L118.5,291.7L139.6,279.1L160.8,270.7L181.9,264.3L203.1,264.3L224.2,264.3L245.4,264.3L266.5,264.3L287.7,264.3L308.8,264.3L330.0,264.3L351.2,262.2L372.3,253.8L393.5,245.4L414.6,234.9L435.8,222.3L456.9,209.7L478.1,197.1L499.2,186.6L520.4,178.2L541.5,174.0L562.7,167.7L583.8,144.6L605.0,142.5L626.2,132.0L647.3,117.2L668.5,106.7L689.6,98.3L710.8,98.3L731.9,98.3L753.1,98.3L774.2,98.3L795.4,98.3L816.5,85.7L837.7,68.9L858.8,62.6L880.0,60.5L880.0,340.0L55.0,340.0Z" fill="url(#gO)"/>
  <path d="M55.0,337.9L76.2,337.9L97.3,337.9L118.5,337.9L139.6,337.9L160.8,337.9L181.9,337.9L203.1,337.9L224.2,337.9L245.4,337.9L266.5,337.9L287.7,337.9L308.8,337.9L330.0,337.9L351.2,337.9L372.3,331.6L393.5,331.6L414.6,331.6L435.8,331.6L456.9,331.6L478.1,331.6L499.2,331.6L520.4,329.5L541.5,323.2L562.7,323.2L583.8,321.1L605.0,321.1L626.2,321.1L647.3,321.1L668.5,321.1L689.6,316.9L710.8,316.9L731.9,316.9L753.1,316.9L774.2,316.9L795.4,316.9L816.5,316.9L837.7,312.7L858.8,289.6L880.0,289.6L880.0,340.0L55.0,340.0Z" fill="url(#gR)"/>
  <path d="M55.0,340.0L76.2,314.8L97.3,300.1L118.5,291.7L139.6,279.1L160.8,270.7L181.9,264.3L203.1,264.3L224.2,264.3L245.4,264.3L266.5,264.3L287.7,264.3L308.8,264.3L330.0,264.3L351.2,262.2L372.3,253.8L393.5,245.4L414.6,234.9L435.8,222.3L456.9,209.7L478.1,197.1L499.2,186.6L520.4,178.2L541.5,174.0L562.7,167.7L583.8,144.6L605.0,142.5L626.2,132.0L647.3,117.2L668.5,106.7L689.6,98.3L710.8,98.3L731.9,98.3L753.1,98.3L774.2,98.3L795.4,98.3L816.5,85.7L837.7,68.9L858.8,62.6L880.0,60.5" fill="none" stroke="#58a6ff" stroke-width="2.5" stroke-linecap="round" stroke-linejoin="round"/>
  <path d="M55.0,337.9L76.2,337.9L97.3,337.9L118.5,337.9L139.6,337.9L160.8,337.9L181.9,337.9L203.1,337.9L224.2,337.9L245.4,337.9L266.5,337.9L287.7,337.9L308.8,337.9L330.0,337.9L351.2,337.9L372.3,331.6L393.5,331.6L414.6,331.6L435.8,331.6L456.9,331.6L478.1,331.6L499.2,331.6L520.4,329.5L541.5,323.2L562.7,323.2L583.8,321.1L605.0,321.1L626.2,321.1L647.3,321.1L668.5,321.1L689.6,316.9L710.8,316.9L731.9,316.9L753.1,316.9L774.2,316.9L795.4,316.9L816.5,316.9L837.7,312.7L858.8,289.6L880.0,289.6" fill="none" stroke="#3fb950" stroke-width="2.5" stroke-linecap="round" stroke-linejoin="round"/>
  <path d="M55.0,340.0L76.2,325.3L97.3,314.8L118.5,310.6L139.6,300.1L160.8,302.2L181.9,295.9L203.1,298.0L224.2,298.0L245.4,300.1L266.5,300.1L287.7,300.1L308.8,300.1L330.0,300.1L351.2,298.0L372.3,295.9L393.5,293.8L414.6,287.5L435.8,274.9L456.9,266.4L478.1,258.0L499.2,251.7L520.4,251.7L541.5,253.8L562.7,258.0L583.8,249.6L605.0,247.5L626.2,247.5L647.3,241.2L668.5,251.7L689.6,245.4L710.8,245.4L731.9,245.4L753.1,245.4L774.2,258.0L795.4,258.0L816.5,255.9L837.7,266.4L858.8,340.0L880.0,340.0" fill="none" stroke="#d2a8ff" stroke-width="2.5" stroke-linecap="round" stroke-linejoin="round"/>
  <path d="M55.0,340.0L76.2,340.0L97.3,337.9L118.5,335.8L139.6,335.8L160.8,333.7L181.9,333.7L203.1,331.6L224.2,331.6L245.4,331.6L266.5,331.6L287.7,331.6L308.8,331.6L330.0,331.6L351.2,331.6L372.3,329.5L393.5,325.3L414.6,323.2L435.8,323.2L456.9,323.2L478.1,319.0L499.2,319.0L520.4,319.0L541.5,316.9L562.7,316.9L583.8,304.3L605.0,304.3L626.2,295.9L647.3,289.6L668.5,281.2L689.6,279.1L710.8,279.1L731.9,279.1L753.1,279.1L774.2,274.9L795.4,274.9L816.5,270.7L837.7,264.3L858.8,260.1L880.0,258.0" fill="none" stroke="#f78166" stroke-width="2.5" stroke-linecap="round" stroke-linejoin="round"/>
  <path d="M55.0,340.0L76.2,329.5L97.3,327.4L118.5,325.3L139.6,323.2L160.8,314.8L181.9,314.8L203.1,314.8L224.2,314.8L245.4,312.7L266.5,312.7L287.7,312.7L308.8,312.7L330.0,312.7L351.2,312.7L372.3,308.5L393.5,306.4L414.6,304.3L435.8,304.3L456.9,300.1L478.1,300.1L499.2,295.9L520.4,287.5L541.5,283.3L562.7,272.8L583.8,270.7L605.0,270.7L626.2,268.6L647.3,266.4L668.5,253.8L689.6,253.8L710.8,253.8L731.9,253.8L753.1,253.8L774.2,245.4L795.4,245.4L816.5,239.1L837.7,218.1L858.8,142.5L880.0,142.5" fill="none" stroke="#f85149" stroke-width="2.5" stroke-linecap="round" stroke-linejoin="round"/>
  <circle cx="880.0" cy="60.5" r="3.5" fill="#58a6ff"/>
  <text x="889.0" y="64.5" fill="#58a6ff" font-size="11" font-weight="600" font-family="-apple-system,BlinkMacSystemFont,Segoe UI,Helvetica,Arial,sans-serif">133</text>
  <circle cx="880.0" cy="289.6" r="3.5" fill="#3fb950"/>
  <text x="889.0" y="293.6" fill="#3fb950" font-size="11" font-weight="600" font-family="-apple-system,BlinkMacSystemFont,Segoe UI,Helvetica,Arial,sans-serif">24</text>
  <circle cx="880.0" cy="340.0" r="3.5" fill="#d2a8ff"/>
  <text x="889.0" y="344.0" fill="#d2a8ff" font-size="11" font-weight="600" font-family="-apple-system,BlinkMacSystemFont,Segoe UI,Helvetica,Arial,sans-serif">0</text>
  <circle cx="880.0" cy="258.0" r="3.5" fill="#f78166"/>
  <text x="889.0" y="262.0" fill="#f78166" font-size="11" font-weight="600" font-family="-apple-system,BlinkMacSystemFont,Segoe UI,Helvetica,Arial,sans-serif">39</text>
  <circle cx="880.0" cy="142.5" r="3.5" fill="#f85149"/>
  <text x="889.0" y="146.5" fill="#f85149" font-size="11" font-weight="600" font-family="-apple-system,BlinkMacSystemFont,Segoe UI,Helvetica,Arial,sans-serif">94</text>
  <line x1="55" y1="368" x2="71" y2="368" stroke="#3fb950" stroke-width="2.5" stroke-linecap="round"/>
  <text x="77" y="372" fill="#8b949e" font-size="11" font-family="-apple-system,BlinkMacSystemFont,Segoe UI,Helvetica,Arial,sans-serif">Repos</text>
  <line x1="255" y1="368" x2="271" y2="368" stroke="#58a6ff" stroke-width="2.5" stroke-linecap="round"/>
  <text x="277" y="372" fill="#8b949e" font-size="11" font-family="-apple-system,BlinkMacSystemFont,Segoe UI,Helvetica,Arial,sans-serif">PRs Opened</text>
  <line x1="455" y1="368" x2="471" y2="368" stroke="#d2a8ff" stroke-width="2.5" stroke-linecap="round"/>
  <text x="477" y="372" fill="#8b949e" font-size="11" font-family="-apple-system,BlinkMacSystemFont,Segoe UI,Helvetica,Arial,sans-serif">Open PRs</text>
  <line x1="55" y1="386" x2="71" y2="386" stroke="#f78166" stroke-width="2.5" stroke-linecap="round"/>
  <text x="77" y="390" fill="#8b949e" font-size="11" font-family="-apple-system,BlinkMacSystemFont,Segoe UI,Helvetica,Arial,sans-serif">Merged</text>
  <line x1="255" y1="386" x2="271" y2="386" stroke="#f85149" stroke-width="2.5" stroke-linecap="round"/>
  <text x="277" y="390" fill="#8b949e" font-size="11" font-family="-apple-system,BlinkMacSystemFont,Segoe UI,Helvetica,Arial,sans-serif">Closed</text>
</svg>