<svg xmlns="http://www.w3.org/2000/svg" viewBox="0 0 960 400" width="960" height="400">
  <defs>
    <linearGradient id="gR" x1="0" y1="0" x2="0" y2="1">
      <stop offset="0%" stop-color="#f78166" stop-opacity="0.25"/>
      <stop offset="100%" stop-color="#f78166" stop-opacity="0.02"/>
    </linearGradient>
    <linearGradient id="gO" x1="0" y1="0" x2="0" y2="1">
      <stop offset="0%" stop-color="#58a6ff" stop-opacity="0.25"/>
      <stop offset="100%" stop-color="#58a6ff" stop-opacity="0.02"/>
    </linearGradient>
    <linearGradient id="gOp" x1="0" y1="0" x2="0" y2="1">
      <stop offset="0%" stop-color="#3fb950" stop-opacity="0.25"/>
      <stop offset="100%" stop-color="#3fb950" stop-opacity="0.02"/>
    </linearGradient>
    <linearGradient id="gM" x1="0" y1="0" x2="0" y2="1">
      <stop offset="0%" stop-color="#d2a8ff" stop-opacity="0.25"/>
      <stop offset="100%" stop-color="#d2a8ff" stop-opacity="0.02"/>
    </linearGradient>
    <linearGradient id="gC" x1="0" y1="0" x2="0" y2="1">
      <stop offset="0%" stop-color="#f85149" stop-opacity="0.25"/>
      <stop offset="100%" stop-color="#f85149" stop-opacity="0.02"/>
    </linearGradient>
  </defs>
  <rect width="960" height="400" rx="12" fill="#0d1117"/>
  <rect width="960" height="400" rx="12" fill="none" stroke="#30363d" stroke-width="1"/>
  <text x="55" y="30" fill="#e6edf3" font-size="15" font-weight="600" font-family="-apple-system,BlinkMacSystemFont,Segoe UI,Helvetica,Arial,sans-serif">GitHub Activity — jlaportebot</text>
  <text x="880" y="30" fill="#8b949e" font-size="11" text-anchor="end" font-family="-apple-system,BlinkMacSystemFont,Segoe UI,Helvetica,Arial,sans-serif">Updated Jun 20, 2026</text>
  <line x1="55" y1="340.0" x2="880" y2="340.0" stroke="#21262d" stroke-width="1"/>
  <text x="47" y="344.0" fill="#8b949e" font-size="11" text-anchor="end" font-family="-apple-system,BlinkMacSystemFont,Segoe UI,Helvetica,Arial,sans-serif">0</text>
  <line x1="55" y1="325.7" x2="880" y2="325.7" stroke="#21262d" stroke-width="1"/>
  <text x="47" y="329.7" fill="#8b949e" font-size="11" text-anchor="end" font-family="-apple-system,BlinkMacSystemFont,Segoe UI,Helvetica,Arial,sans-serif">10</text>
  <line x1="55" y1="311.4" x2="880" y2="311.4" stroke="#21262d" stroke-width="1"/>
  <text x="47" y="315.4" fill="#8b949e" font-size="11" text-anchor="end" font-family="-apple-system,BlinkMacSystemFont,Segoe UI,Helvetica,Arial,sans-serif">20</text>
  <line x1="55" y1="297.1" x2="880" y2="297.1" stroke="#21262d" stroke-width="1"/>
  <text x="47" y="301.1" fill="#8b949e" font-size="11" text-anchor="end" font-family="-apple-system,BlinkMacSystemFont,Segoe UI,Helvetica,Arial,sans-serif">30</text>
  <line x1="55" y1="282.9" x2="880" y2="282.9" stroke="#21262d" stroke-width="1"/>
  <text x="47" y="286.9" fill="#8b949e" font-size="11" text-anchor="end" font-family="-apple-system,BlinkMacSystemFont,Segoe UI,Helvetica,Arial,sans-serif">40</text>
  <line x1="55" y1="268.6" x2="880" y2="268.6" stroke="#21262d" stroke-width="1"/>
  <text x="47" y="272.6" fill="#8b949e" font-size="11" text-anchor="end" font-family="-apple-system,BlinkMacSystemFont,Segoe UI,Helvetica,Arial,sans-serif">50</text>
  <line x1="55" y1="254.3" x2="880" y2="254.3" stroke="#21262d" stroke-width="1"/>
  <text x="47" y="258.3" fill="#8b949e" font-size="11" text-anchor="end" font-family="-apple-system,BlinkMacSystemFont,Segoe UI,Helvetica,Arial,sans-serif">60</text>
  <line x1="55" y1="240.0" x2="880" y2="240.0" stroke="#21262d" stroke-width="1"/>
  <text x="47" y="244.0" fill="#8b949e" font-size="11" text-anchor="end" font-family="-apple-system,BlinkMacSystemFont,Segoe UI,Helvetica,Arial,sans-serif">70</text>
  <line x1="55" y1="225.7" x2="880" y2="225.7" stroke="#21262d" stroke-width="1"/>
  <text x="47" y="229.7" fill="#8b949e" font-size="11" text-anchor="end" font-family="-apple-system,BlinkMacSystemFont,Segoe UI,Helvetica,Arial,sans-serif">80</text>
  <line x1="55" y1="211.4" x2="880" y2="211.4" stroke="#21262d" stroke-width="1"/>
  <text x="47" y="215.4" fill="#8b949e" font-size="11" text-anchor="end" font-family="-apple-system,BlinkMacSystemFont,Segoe UI,Helvetica,Arial,sans-serif">90</text>
  <line x1="55" y1="197.1" x2="880" y2="197.1" stroke="#21262d" stroke-width="1"/>
  <text x="47" y="201.1" fill="#8b949e" font-size="11" text-anchor="end" font-family="-apple-system,BlinkMacSystemFont,Segoe UI,Helvetica,Arial,sans-serif">100</text>
  <line x1="55" y1="182.9" x2="880" y2="182.9" stroke="#21262d" stroke-width="1"/>
  <text x="47" y="186.9" fill="#8b949e" font-size="11" text-anchor="end" font-family="-apple-system,BlinkMacSystemFont,Segoe UI,Helvetica,Arial,sans-serif">110</text>
  <line x1="55" y1="168.6" x2="880" y2="168.6" stroke="#21262d" stroke-width="1"/>
  <text x="47" y="172.6" fill="#8b949e" font-size="11" text-anchor="end" font-family="-apple-system,BlinkMacSystemFont,Segoe UI,Helvetica,Arial,sans-serif">120</text>
  <line x1="55" y1="154.3" x2="880" y2="154.3" stroke="#21262d" stroke-width="1"/>
  <text x="47" y="158.3" fill="#8b949e" font-size="11" text-anchor="end" font-family="-apple-system,BlinkMacSystemFont,Segoe UI,Helvetica,Arial,sans-serif">130</text>
  <line x1="55" y1="140.0" x2="880" y2="140.0" stroke="#21262d" stroke-width="1"/>
  <text x="47" y="144.0" fill="#8b949e" font-size="11" text-anchor="end" font-family="-apple-system,BlinkMacSystemFont,Segoe UI,Helvetica,Arial,sans-serif">140</text>
  <line x1="55" y1="125.7" x2="880" y2="125.7" stroke="#21262d" stroke-width="1"/>
  <text x="47" y="129.7" fill="#8b949e" font-size="11" text-anchor="end" font-family="-apple-system,BlinkMacSystemFont,Segoe UI,Helvetica,Arial,sans-serif">150</text>
  <line x1="55" y1="111.4" x2="880" y2="111.4" stroke="#21262d" stroke-width="1"/>
  <text x="47" y="115.4" fill="#8b949e" font-size="11" text-anchor="end" font-family="-apple-system,BlinkMacSystemFont,Segoe UI,Helvetica,Arial,sans-serif">160</text>
  <line x1="55" y1="97.1" x2="880" y2="97.1" stroke="#21262d" stroke-width="1"/>
  <text x="47" y="101.1" fill="#8b949e" font-size="11" text-anchor="end" font-family="-apple-system,BlinkMacSystemFont,Segoe UI,Helvetica,Arial,sans-serif">170</text>
  <line x1="55" y1="82.9" x2="880" y2="82.9" stroke="#21262d" stroke-width="1"/>
  <text x="47" y="86.9" fill="#8b949e" font-size="11" text-anchor="end" font-family="-apple-system,BlinkMacSystemFont,Segoe UI,Helvetica,Arial,sans-serif">180</text>
  <line x1="55" y1="68.6" x2="880" y2="68.6" stroke="#21262d" stroke-width="1"/>
  <text x="47" y="72.6" fill="#8b949e" font-size="11" text-anchor="end" font-family="-apple-system,BlinkMacSystemFont,Segoe UI,Helvetica,Arial,sans-serif">190</text>
  <line x1="55" y1="54.3" x2="880" y2="54.3" stroke="#21262d" stroke-width="1"/>
  <text x="47" y="58.3" fill="#8b949e" font-size="11" text-anchor="end" font-family="-apple-system,BlinkMacSystemFont,Segoe UI,Helvetica,Arial,sans-serif">200</text>
  <line x1="55.0" y1="50" x2="55.0" y2="340" stroke="#21262d" stroke-width="1" stroke-dasharray="4,4"/>
  <text x="55.0" y="360" fill="#8b949e" font-size="10" text-anchor="middle" font-family="-apple-system,BlinkMacSystemFont,Segoe UI,Helvetica,Arial,sans-serif">May 02</text>
  <line x1="172.9" y1="50" x2="172.9" y2="340" stroke="#21262d" stroke-width="1" stroke-dasharray="4,4"/>
  <text x="172.9" y="360" fill="#8b949e" font-size="10" text-anchor="middle" font-family="-apple-system,BlinkMacSystemFont,Segoe UI,Helvetica,Arial,sans-serif">May 09</text>
  <line x1="290.7" y1="50" x2="290.7" y2="340" stroke="#21262d" stroke-width="1" stroke-dasharray="4,4"/>
  <text x="290.7" y="360" fill="#8b949e" font-size="10" text-anchor="middle" font-family="-apple-system,BlinkMacSystemFont,Segoe UI,Helvetica,Arial,sans-serif">May 16</text>
  <line x1="408.6" y1="50" x2="408.6" y2="340" stroke="#21262d" stroke-width="1" stroke-dasharray="4,4"/>
  <text x="408.6" y="360" fill="#8b949e" font-size="10" text-anchor="middle" font-family="-apple-system,BlinkMacSystemFont,Segoe UI,Helvetica,Arial,sans-serif">May 23</text>
  <line x1="526.4" y1="50" x2="526.4" y2="340" stroke="#21262d" stroke-width="1" stroke-dasharray="4,4"/>
  <text x="526.4" y="360" fill="#8b949e" font-size="10" text-anchor="middle" font-family="-apple-system,BlinkMacSystemFont,Segoe UI,Helvetica,Arial,sans-serif">May 30</text>
  <line x1="644.3" y1="50" x2="644.3" y2="340" stroke="#21262d" stroke-width="1" stroke-dasharray="4,4"/>
  <text x="644.3" y="360" fill="#8b949e" font-size="10" text-anchor="middle" font-family="-apple-system,BlinkMacSystemFont,Segoe UI,Helvetica,Arial,sans-serif">Jun 06</text>
  <line x1="762.1" y1="50" x2="762.1" y2="340" stroke="#21262d" stroke-width="1" stroke-dasharray="4,4"/>
  <text x="762.1" y="360" fill="#8b949e" font-size="10" text-anchor="middle" font-family="-apple-system,BlinkMacSystemFont,Segoe UI,Helvetica,Arial,sans-serif">Jun 13</text>
  <line x1="880.0" y1="50" x2="880.0" y2="340" stroke="#21262d" stroke-width="1" stroke-dasharray="4,4"/>
  <text x="880.0" y="360" fill="#8b949e" font-size="10" text-anchor="middle" font-family="-apple-system,BlinkMacSystemFont,Segoe UI,Helvetica,Arial,sans-serif">Jun 20</text>
  <path d="M55.0,340.0L71.8,322.9L88.7,312.9L105.5,307.1L122.3,298.6L139.2,292.9L156.0,288.6L172.9,288.6L189.7,288.6L206.5,288.6L223.4,288.6L240.2,288.6L257.0,288.6L273.9,288.6L290.7,287.1L307.6,281.4L324.4,275.7L341.2,268.6L358.1,260.0L374.9,251.4L391.7,242.9L408.6,235.7L425.4,230.0L442.2,227.1L459.1,222.9L475.9,207.1L492.8,205.7L509.6,198.6L526.4,188.6L543.3,181.4L560.1,175.7L576.9,175.7L593.8,175.7L610.6,175.7L627.4,175.7L644.3,175.7L661.1,167.1L678.0,155.7L694.8,151.4L711.6,142.9L728.5,137.1L745.3,128.6L762.1,115.7L779.0,108.6L795.8,101.4L812.7,94.3L829.5,81.4L846.3,72.9L863.2,61.4L880.0,57.1L880.0,340.0L55.0,340.0Z" fill="url(#gO)"/>
  <path d="M55.0,338.6L71.8,338.6L88.7,338.6L105.5,338.6L122.3,338.6L139.2,338.6L156.0,338.6L172.9,338.6L189.7,338.6L206.5,338.6L223.4,338.6L240.2,338.6L257.0,338.6L273.9,338.6L290.7,338.6L307.6,334.3L324.4,334.3L341.2,334.3L358.1,334.3L374.9,334.3L391.7,334.3L408.6,334.3L425.4,332.9L442.2,328.6L459.1,328.6L475.9,327.1L492.8,327.1L509.6,327.1L526.4,327.1L543.3,327.1L560.1,324.3L576.9,324.3L593.8,324.3L610.6,324.3L627.4,324.3L644.3,324.3L661.1,324.3L678.0,321.4L694.8,304.3L711.6,304.3L728.5,304.3L745.3,304.3L762.1,292.9L779.0,292.9L795.8,292.9L812.7,292.9L829.5,292.9L846.3,290.0L863.2,290.0L880.0,290.0L880.0,340.0L55.0,340.0Z" fill="url(#gR)"/>
  <path d="M55.0,340.0L71.8,322.9L88.7,312.9L105.5,307.1L122.3,298.6L139.2,292.9L156.0,288.6L172.9,288.6L189.7,288.6L206.5,288.6L223.4,288.6L240.2,288.6L257.0,288.6L273.9,288.6L290.7,287.1L307.6,281.4L324.4,275.7L341.2,268.6L358.1,260.0L374.9,251.4L391.7,242.9L408.6,235.7L425.4,230.0L442.2,227.1L459.1,222.9L475.9,207.1L492.8,205.7L509.6,198.6L526.4,188.6L543.3,181.4L560.1,175.7L576.9,175.7L593.8,175.7L610.6,175.7L627.4,175.7L644.3,175.7L661.1,167.1L678.0,155.7L694.8,151.4L711.6,142.9L728.5,137.1L745.3,128.6L762.1,115.7L779.0,108.6L795.8,101.4L812.7,94.3L829.5,81.4L846.3,72.9L863.2,61.4L880.0,57.1" fill="none" stroke="#58a6ff" stroke-width="2.5" stroke-linecap="round" stroke-linejoin="round"/>
  <path d="M55.0,338.6L71.8,338.6L88.7,338.6L105.5,338.6L122.3,338.6L139.2,338.6L156.0,338.6L172.9,338.6L189.7,338.6L206.5,338.6L223.4,338.6L240.2,338.6L257.0,338.6L273.9,338.6L290.7,338.6L307.6,334.3L324.4,334.3L341.2,334.3L358.1,334.3L374.9,334.3L391.7,334.3L408.6,334.3L425.4,332.9L442.2,328.6L459.1,328.6L475.9,327.1L492.8,327.1L509.6,327.1L526.4,327.1L543.3,327.1L560.1,324.3L576.9,324.3L593.8,324.3L610.6,324.3L627.4,324.3L644.3,324.3L661.1,324.3L678.0,321.4L694.8,304.3L711.6,304.3L728.5,304.3L745.3,304.3L762.1,292.9L779.0,292.9L795.8,292.9L812.7,292.9L829.5,292.9L846.3,290.0L863.2,290.0L880.0,290.0" fill="none" stroke="#f78166" stroke-width="2.5" stroke-linecap="round" stroke-linejoin="round"/>
  <path d="M55.0,340.0L71.8,330.0L88.7,322.9L105.5,320.0L122.3,312.9L139.2,314.3L156.0,310.0L172.9,311.4L189.7,311.4L206.5,312.9L223.4,312.9L240.2,312.9L257.0,312.9L273.9,312.9L290.7,311.4L307.6,310.0L324.4,308.6L341.2,304.3L358.1,295.7L374.9,290.0L391.7,284.3L408.6,280.0L425.4,280.0L442.2,281.4L459.1,284.3L475.9,278.6L492.8,277.1L509.6,277.1L526.4,272.9L543.3,280.0L560.1,275.7L576.9,275.7L593.8,275.7L610.6,275.7L627.4,284.3L644.3,284.3L661.1,282.9L678.0,290.0L694.8,340.0L711.6,340.0L728.5,340.0L745.3,340.0L762.1,334.3L779.0,334.3L795.8,331.4L812.7,331.4L829.5,330.0L846.3,325.7L863.2,327.1L880.0,325.7" fill="none" stroke="#3fb950" stroke-width="2.5" stroke-linecap="round" stroke-linejoin="round"/>
  <path d="M55.0,340.0L71.8,340.0L88.7,338.6L105.5,337.1L122.3,337.1L139.2,335.7L156.0,335.7L172.9,334.3L189.7,334.3L206.5,334.3L223.4,334.3L240.2,334.3L257.0,334.3L273.9,334.3L290.7,334.3L307.6,332.9L324.4,330.0L341.2,328.6L358.1,328.6L374.9,328.6L391.7,325.7L408.6,325.7L425.4,325.7L442.2,324.3L459.1,324.3L475.9,315.7L492.8,315.7L509.6,310.0L526.4,305.7L543.3,300.0L560.1,298.6L576.9,298.6L593.8,298.6L610.6,298.6L627.4,295.7L644.3,295.7L661.1,292.9L678.0,288.6L694.8,285.7L711.6,277.1L728.5,271.4L745.3,262.9L762.1,258.6L779.0,252.9L795.8,250.0L812.7,242.9L829.5,231.4L846.3,227.1L863.2,218.6L880.0,217.1" fill="none" stroke="#d2a8ff" stroke-width="2.5" stroke-linecap="round" stroke-linejoin="round"/>
  <path d="M55.0,340.0L71.8,332.9L88.7,331.4L105.5,330.0L122.3,328.6L139.2,322.9L156.0,322.9L172.9,322.9L189.7,322.9L206.5,321.4L223.4,321.4L240.2,321.4L257.0,321.4L273.9,321.4L290.7,321.4L307.6,318.6L324.4,317.1L341.2,315.7L358.1,315.7L374.9,312.9L391.7,312.9L408.6,310.0L425.4,304.3L442.2,301.4L459.1,294.3L475.9,292.9L492.8,292.9L509.6,291.4L526.4,290.0L543.3,281.4L560.1,281.4L576.9,281.4L593.8,281.4L610.6,281.4L627.4,275.7L644.3,275.7L661.1,271.4L678.0,257.1L694.8,205.7L711.6,205.7L728.5,205.7L745.3,205.7L762.1,202.9L779.0,201.4L795.8,200.0L812.7,200.0L829.5,200.0L846.3,200.0L863.2,195.7L880.0,194.3" fill="none" stroke="#f85149" stroke-width="2.5" stroke-linecap="round" stroke-linejoin="round"/>
  <circle cx="880.0" cy="57.1" r="3.5" fill="#58a6ff"/>
  <text x="889.0" y="61.1" fill="#58a6ff" font-size="11" font-weight="600" font-family="-apple-system,BlinkMacSystemFont,Segoe UI,Helvetica,Arial,sans-serif">198</text>
  <circle cx="880.0" cy="290.0" r="3.5" fill="#f78166"/>
  <text x="889.0" y="294.0" fill="#f78166" font-size="11" font-weight="600" font-family="-apple-system,BlinkMacSystemFont,Segoe UI,Helvetica,Arial,sans-serif">35</text>
  <circle cx="880.0" cy="325.7" r="3.5" fill="#3fb950"/>
  <text x="889.0" y="329.7" fill="#3fb950" font-size="11" font-weight="600" font-family="-apple-system,BlinkMacSystemFont,Segoe UI,Helvetica,Arial,sans-serif">10</text>
  <circle cx="880.0" cy="217.1" r="3.5" fill="#d2a8ff"/>
  <text x="889.0" y="221.1" fill="#d2a8ff" font-size="11" font-weight="600" font-family="-apple-system,BlinkMacSystemFont,Segoe UI,Helvetica,Arial,sans-serif">86</text>
  <circle cx="880.0" cy="194.3" r="3.5" fill="#f85149"/>
  <text x="889.0" y="198.3" fill="#f85149" font-size="11" font-weight="600" font-family="-apple-system,BlinkMacSystemFont,Segoe UI,Helvetica,Arial,sans-serif">102</text>
  <line x1="55" y1="368" x2="71" y2="368" stroke="#f78166" stroke-width="2.5" stroke-linecap="round"/>
  <text x="77" y="372" fill="#8b949e" font-size="11" font-family="-apple-system,BlinkMacSystemFont,Segoe UI,Helvetica,Arial,sans-serif">Repos</text>
  <line x1="255" y1="368" x2="271" y2="368" stroke="#58a6ff" stroke-width="2.5" stroke-linecap="round"/>
  <text x="277" y="372" fill="#8b949e" font-size="11" font-family="-apple-system,BlinkMacSystemFont,Segoe UI,Helvetica,Arial,sans-serif">PRs Opened</text>
  <line x1="455" y1="368" x2="471" y2="368" stroke="#3fb950" stroke-width="2.5" stroke-linecap="round"/>
  <text x="477" y="372" fill="#8b949e" font-size="11" font-family="-apple-system,BlinkMacSystemFont,Segoe UI,Helvetica,Arial,sans-serif">Open PRs</text>
  <line x1="55" y1="386" x2="71" y2="386" stroke="#d2a8ff" stroke-width="2.5" stroke-linecap="round"/>
  <text x="77" y="390" fill="#8b949e" font-size="11" font-family="-apple-system,BlinkMacSystemFont,Segoe UI,Helvetica,Arial,sans-serif">Merged</text>
  <line x1="255" y1="386" x2="271" y2="386" stroke="#f85149" stroke-width="2.5" stroke-linecap="round"/>
  <text x="277" y="390" fill="#8b949e" font-size="11" font-family="-apple-system,BlinkMacSystemFont,Segoe UI,Helvetica,Arial,sans-serif">Closed</text>
</svg>