<svg xmlns="http://www.w3.org/2000/svg" viewBox="0 0 960 400" width="960" height="400">
  <defs>
    <linearGradient id="gR" x1="0" y1="0" x2="0" y2="1">
      <stop offset="0%" stop-color="#f78166" stop-opacity="0.25"/>
      <stop offset="100%" stop-color="#f78166" stop-opacity="0.02"/>
    </linearGradient>
    <linearGradient id="gO" x1="0" y1="0" x2="0" y2="1">
      <stop offset="0%" stop-color="#58a6ff" stop-opacity="0.25"/>
      <stop offset="100%" stop-color="#58a6ff" stop-opacity="0.02"/>
    </linearGradient>
    <linearGradient id="gOp" x1="0" y1="0" x2="0" y2="1">
      <stop offset="0%" stop-color="#3fb950" stop-opacity="0.25"/>
      <stop offset="100%" stop-color="#3fb950" stop-opacity="0.02"/>
    </linearGradient>
    <linearGradient id="gM" x1="0" y1="0" x2="0" y2="1">
      <stop offset="0%" stop-color="#d2a8ff" stop-opacity="0.25"/>
      <stop offset="100%" stop-color="#d2a8ff" stop-opacity="0.02"/>
    </linearGradient>
    <linearGradient id="gC" x1="0" y1="0" x2="0" y2="1">
      <stop offset="0%" stop-color="#f85149" stop-opacity="0.25"/>
      <stop offset="100%" stop-color="#f85149" stop-opacity="0.02"/>
    </linearGradient>
  </defs>
  <rect width="960" height="400" rx="12" fill="#0d1117"/>
  <rect width="960" height="400" rx="12" fill="none" stroke="#30363d" stroke-width="1"/>
  <text x="55" y="30" fill="#e6edf3" font-size="15" font-weight="600" font-family="-apple-system,BlinkMacSystemFont,Segoe UI,Helvetica,Arial,sans-serif">GitHub Activity — jlaportebot</text>
  <text x="880" y="30" fill="#8b949e" font-size="11" text-anchor="end" font-family="-apple-system,BlinkMacSystemFont,Segoe UI,Helvetica,Arial,sans-serif">Updated Jun 24, 2026</text>
  <line x1="55" y1="340.0" x2="880" y2="340.0" stroke="#21262d" stroke-width="1"/>
  <text x="47" y="344.0" fill="#8b949e" font-size="11" text-anchor="end" font-family="-apple-system,BlinkMacSystemFont,Segoe UI,Helvetica,Arial,sans-serif">0</text>
  <line x1="55" y1="327.1" x2="880" y2="327.1" stroke="#21262d" stroke-width="1"/>
  <text x="47" y="331.1" fill="#8b949e" font-size="11" text-anchor="end" font-family="-apple-system,BlinkMacSystemFont,Segoe UI,Helvetica,Arial,sans-serif">10</text>
  <line x1="55" y1="314.1" x2="880" y2="314.1" stroke="#21262d" stroke-width="1"/>
  <text x="47" y="318.1" fill="#8b949e" font-size="11" text-anchor="end" font-family="-apple-system,BlinkMacSystemFont,Segoe UI,Helvetica,Arial,sans-serif">20</text>
  <line x1="55" y1="301.2" x2="880" y2="301.2" stroke="#21262d" stroke-width="1"/>
  <text x="47" y="305.2" fill="#8b949e" font-size="11" text-anchor="end" font-family="-apple-system,BlinkMacSystemFont,Segoe UI,Helvetica,Arial,sans-serif">30</text>
  <line x1="55" y1="288.2" x2="880" y2="288.2" stroke="#21262d" stroke-width="1"/>
  <text x="47" y="292.2" fill="#8b949e" font-size="11" text-anchor="end" font-family="-apple-system,BlinkMacSystemFont,Segoe UI,Helvetica,Arial,sans-serif">40</text>
  <line x1="55" y1="275.3" x2="880" y2="275.3" stroke="#21262d" stroke-width="1"/>
  <text x="47" y="279.3" fill="#8b949e" font-size="11" text-anchor="end" font-family="-apple-system,BlinkMacSystemFont,Segoe UI,Helvetica,Arial,sans-serif">50</text>
  <line x1="55" y1="262.3" x2="880" y2="262.3" stroke="#21262d" stroke-width="1"/>
  <text x="47" y="266.3" fill="#8b949e" font-size="11" text-anchor="end" font-family="-apple-system,BlinkMacSystemFont,Segoe UI,Helvetica,Arial,sans-serif">60</text>
  <line x1="55" y1="249.4" x2="880" y2="249.4" stroke="#21262d" stroke-width="1"/>
  <text x="47" y="253.4" fill="#8b949e" font-size="11" text-anchor="end" font-family="-apple-system,BlinkMacSystemFont,Segoe UI,Helvetica,Arial,sans-serif">70</text>
  <line x1="55" y1="236.4" x2="880" y2="236.4" stroke="#21262d" stroke-width="1"/>
  <text x="47" y="240.4" fill="#8b949e" font-size="11" text-anchor="end" font-family="-apple-system,BlinkMacSystemFont,Segoe UI,Helvetica,Arial,sans-serif">80</text>
  <line x1="55" y1="223.5" x2="880" y2="223.5" stroke="#21262d" stroke-width="1"/>
  <text x="47" y="227.5" fill="#8b949e" font-size="11" text-anchor="end" font-family="-apple-system,BlinkMacSystemFont,Segoe UI,Helvetica,Arial,sans-serif">90</text>
  <line x1="55" y1="210.5" x2="880" y2="210.5" stroke="#21262d" stroke-width="1"/>
  <text x="47" y="214.5" fill="#8b949e" font-size="11" text-anchor="end" font-family="-apple-system,BlinkMacSystemFont,Segoe UI,Helvetica,Arial,sans-serif">100</text>
  <line x1="55" y1="197.6" x2="880" y2="197.6" stroke="#21262d" stroke-width="1"/>
  <text x="47" y="201.6" fill="#8b949e" font-size="11" text-anchor="end" font-family="-apple-system,BlinkMacSystemFont,Segoe UI,Helvetica,Arial,sans-serif">110</text>
  <line x1="55" y1="184.6" x2="880" y2="184.6" stroke="#21262d" stroke-width="1"/>
  <text x="47" y="188.6" fill="#8b949e" font-size="11" text-anchor="end" font-family="-apple-system,BlinkMacSystemFont,Segoe UI,Helvetica,Arial,sans-serif">120</text>
  <line x1="55" y1="171.7" x2="880" y2="171.7" stroke="#21262d" stroke-width="1"/>
  <text x="47" y="175.7" fill="#8b949e" font-size="11" text-anchor="end" font-family="-apple-system,BlinkMacSystemFont,Segoe UI,Helvetica,Arial,sans-serif">130</text>
  <line x1="55" y1="158.8" x2="880" y2="158.8" stroke="#21262d" stroke-width="1"/>
  <text x="47" y="162.8" fill="#8b949e" font-size="11" text-anchor="end" font-family="-apple-system,BlinkMacSystemFont,Segoe UI,Helvetica,Arial,sans-serif">140</text>
  <line x1="55" y1="145.8" x2="880" y2="145.8" stroke="#21262d" stroke-width="1"/>
  <text x="47" y="149.8" fill="#8b949e" font-size="11" text-anchor="end" font-family="-apple-system,BlinkMacSystemFont,Segoe UI,Helvetica,Arial,sans-serif">150</text>
  <line x1="55" y1="132.9" x2="880" y2="132.9" stroke="#21262d" stroke-width="1"/>
  <text x="47" y="136.9" fill="#8b949e" font-size="11" text-anchor="end" font-family="-apple-system,BlinkMacSystemFont,Segoe UI,Helvetica,Arial,sans-serif">160</text>
  <line x1="55" y1="119.9" x2="880" y2="119.9" stroke="#21262d" stroke-width="1"/>
  <text x="47" y="123.9" fill="#8b949e" font-size="11" text-anchor="end" font-family="-apple-system,BlinkMacSystemFont,Segoe UI,Helvetica,Arial,sans-serif">170</text>
  <line x1="55" y1="107.0" x2="880" y2="107.0" stroke="#21262d" stroke-width="1"/>
  <text x="47" y="111.0" fill="#8b949e" font-size="11" text-anchor="end" font-family="-apple-system,BlinkMacSystemFont,Segoe UI,Helvetica,Arial,sans-serif">180</text>
  <line x1="55" y1="94.0" x2="880" y2="94.0" stroke="#21262d" stroke-width="1"/>
  <text x="47" y="98.0" fill="#8b949e" font-size="11" text-anchor="end" font-family="-apple-system,BlinkMacSystemFont,Segoe UI,Helvetica,Arial,sans-serif">190</text>
  <line x1="55" y1="81.1" x2="880" y2="81.1" stroke="#21262d" stroke-width="1"/>
  <text x="47" y="85.1" fill="#8b949e" font-size="11" text-anchor="end" font-family="-apple-system,BlinkMacSystemFont,Segoe UI,Helvetica,Arial,sans-serif">200</text>
  <line x1="55" y1="68.1" x2="880" y2="68.1" stroke="#21262d" stroke-width="1"/>
  <text x="47" y="72.1" fill="#8b949e" font-size="11" text-anchor="end" font-family="-apple-system,BlinkMacSystemFont,Segoe UI,Helvetica,Arial,sans-serif">210</text>
  <line x1="55" y1="55.2" x2="880" y2="55.2" stroke="#21262d" stroke-width="1"/>
  <text x="47" y="59.2" fill="#8b949e" font-size="11" text-anchor="end" font-family="-apple-system,BlinkMacSystemFont,Segoe UI,Helvetica,Arial,sans-serif">220</text>
  <line x1="55.0" y1="50" x2="55.0" y2="340" stroke="#21262d" stroke-width="1" stroke-dasharray="4,4"/>
  <text x="55.0" y="360" fill="#8b949e" font-size="10" text-anchor="middle" font-family="-apple-system,BlinkMacSystemFont,Segoe UI,Helvetica,Arial,sans-serif">May 02</text>
  <line x1="164.0" y1="50" x2="164.0" y2="340" stroke="#21262d" stroke-width="1" stroke-dasharray="4,4"/>
  <text x="164.0" y="360" fill="#8b949e" font-size="10" text-anchor="middle" font-family="-apple-system,BlinkMacSystemFont,Segoe UI,Helvetica,Arial,sans-serif">May 09</text>
  <line x1="272.9" y1="50" x2="272.9" y2="340" stroke="#21262d" stroke-width="1" stroke-dasharray="4,4"/>
  <text x="272.9" y="360" fill="#8b949e" font-size="10" text-anchor="middle" font-family="-apple-system,BlinkMacSystemFont,Segoe UI,Helvetica,Arial,sans-serif">May 16</text>
  <line x1="381.9" y1="50" x2="381.9" y2="340" stroke="#21262d" stroke-width="1" stroke-dasharray="4,4"/>
  <text x="381.9" y="360" fill="#8b949e" font-size="10" text-anchor="middle" font-family="-apple-system,BlinkMacSystemFont,Segoe UI,Helvetica,Arial,sans-serif">May 23</text>
  <line x1="490.8" y1="50" x2="490.8" y2="340" stroke="#21262d" stroke-width="1" stroke-dasharray="4,4"/>
  <text x="490.8" y="360" fill="#8b949e" font-size="10" text-anchor="middle" font-family="-apple-system,BlinkMacSystemFont,Segoe UI,Helvetica,Arial,sans-serif">May 30</text>
  <line x1="599.8" y1="50" x2="599.8" y2="340" stroke="#21262d" stroke-width="1" stroke-dasharray="4,4"/>
  <text x="599.8" y="360" fill="#8b949e" font-size="10" text-anchor="middle" font-family="-apple-system,BlinkMacSystemFont,Segoe UI,Helvetica,Arial,sans-serif">Jun 06</text>
  <line x1="708.8" y1="50" x2="708.8" y2="340" stroke="#21262d" stroke-width="1" stroke-dasharray="4,4"/>
  <text x="708.8" y="360" fill="#8b949e" font-size="10" text-anchor="middle" font-family="-apple-system,BlinkMacSystemFont,Segoe UI,Helvetica,Arial,sans-serif">Jun 13</text>
  <line x1="817.7" y1="50" x2="817.7" y2="340" stroke="#21262d" stroke-width="1" stroke-dasharray="4,4"/>
  <text x="817.7" y="360" fill="#8b949e" font-size="10" text-anchor="middle" font-family="-apple-system,BlinkMacSystemFont,Segoe UI,Helvetica,Arial,sans-serif">Jun 20</text>
  <line x1="880.0" y1="50" x2="880.0" y2="340" stroke="#21262d" stroke-width="1" stroke-dasharray="4,4"/>
  <text x="880.0" y="360" fill="#8b949e" font-size="10" text-anchor="middle" font-family="-apple-system,BlinkMacSystemFont,Segoe UI,Helvetica,Arial,sans-serif">Jun 24</text>
  <path d="M55.0,340.0L70.6,324.5L86.1,315.4L101.7,310.2L117.3,302.5L132.8,297.3L148.4,293.4L164.0,293.4L179.5,293.4L195.1,293.4L210.7,293.4L226.2,293.4L241.8,293.4L257.4,293.4L272.9,292.1L288.5,286.9L304.1,281.7L319.6,275.3L335.2,267.5L350.8,259.7L366.3,252.0L381.9,245.5L397.5,240.3L413.0,237.7L428.6,233.8L444.2,219.6L459.7,218.3L475.3,211.8L490.8,202.8L506.4,196.3L522.0,191.1L537.5,191.1L553.1,191.1L568.7,191.1L584.2,191.1L599.8,191.1L615.4,183.3L630.9,173.0L646.5,169.1L662.1,161.3L677.6,156.2L693.2,148.4L708.8,136.7L724.3,130.3L739.9,123.8L755.5,117.3L771.0,105.7L786.6,97.9L802.2,87.5L817.7,79.8L833.3,73.3L848.9,68.1L864.4,60.4L880.0,56.5L880.0,340.0L55.0,340.0Z" fill="url(#gO)"/>
  <path d="M55.0,338.7L70.6,338.7L86.1,338.7L101.7,338.7L117.3,338.7L132.8,338.7L148.4,338.7L164.0,338.7L179.5,338.7L195.1,338.7L210.7,338.7L226.2,338.7L241.8,338.7L257.4,338.7L272.9,338.7L288.5,334.8L304.1,334.8L319.6,334.8L335.2,334.8L350.8,334.8L366.3,334.8L381.9,334.8L397.5,333.5L413.0,329.6L428.6,329.6L444.2,328.3L459.7,328.3L475.3,328.3L490.8,328.3L506.4,328.3L522.0,325.8L537.5,325.8L553.1,325.8L568.7,325.8L584.2,325.8L599.8,325.8L615.4,325.8L630.9,323.2L646.5,307.6L662.1,307.6L677.6,307.6L693.2,307.6L708.8,297.3L724.3,297.3L739.9,297.3L755.5,297.3L771.0,297.3L786.6,294.7L802.2,294.7L817.7,293.4L833.3,292.1L848.9,290.8L864.4,289.5L880.0,288.2L880.0,340.0L55.0,340.0Z" fill="url(#gR)"/>
  <path d="M55.0,340.0L70.6,324.5L86.1,315.4L101.7,310.2L117.3,302.5L132.8,297.3L148.4,293.4L164.0,293.4L179.5,293.4L195.1,293.4L210.7,293.4L226.2,293.4L241.8,293.4L257.4,293.4L272.9,292.1L288.5,286.9L304.1,281.7L319.6,275.3L335.2,267.5L350.8,259.7L366.3,252.0L381.9,245.5L397.5,240.3L413.0,237.7L428.6,233.8L444.2,219.6L459.7,218.3L475.3,211.8L490.8,202.8L506.4,196.3L522.0,191.1L537.5,191.1L553.1,191.1L568.7,191.1L584.2,191.1L599.8,191.1L615.4,183.3L630.9,173.0L646.5,169.1L662.1,161.3L677.6,156.2L693.2,148.4L708.8,136.7L724.3,130.3L739.9,123.8L755.5,117.3L771.0,105.7L786.6,97.9L802.2,87.5L817.7,79.8L833.3,73.3L848.9,68.1L864.4,60.4L880.0,56.5" fill="none" stroke="#58a6ff" stroke-width="2.5" stroke-linecap="round" stroke-linejoin="round"/>
  <path d="M55.0,338.7L70.6,338.7L86.1,338.7L101.7,338.7L117.3,338.7L132.8,338.7L148.4,338.7L164.0,338.7L179.5,338.7L195.1,338.7L210.7,338.7L226.2,338.7L241.8,338.7L257.4,338.7L272.9,338.7L288.5,334.8L304.1,334.8L319.6,334.8L335.2,334.8L350.8,334.8L366.3,334.8L381.9,334.8L397.5,333.5L413.0,329.6L428.6,329.6L444.2,328.3L459.7,328.3L475.3,328.3L490.8,328.3L506.4,328.3L522.0,325.8L537.5,325.8L553.1,325.8L568.7,325.8L584.2,325.8L599.8,325.8L615.4,325.8L630.9,323.2L646.5,307.6L662.1,307.6L677.6,307.6L693.2,307.6L708.8,297.3L724.3,297.3L739.9,297.3L755.5,297.3L771.0,297.3L786.6,294.7L802.2,294.7L817.7,293.4L833.3,292.1L848.9,290.8L864.4,289.5L880.0,288.2" fill="none" stroke="#f78166" stroke-width="2.5" stroke-linecap="round" stroke-linejoin="round"/>
  <path d="M55.0,340.0L70.6,330.9L86.1,324.5L101.7,321.9L117.3,315.4L132.8,316.7L148.4,312.8L164.0,314.1L179.5,314.1L195.1,315.4L210.7,315.4L226.2,315.4L241.8,315.4L257.4,315.4L272.9,314.1L288.5,312.8L304.1,311.5L319.6,307.6L335.2,299.9L350.8,294.7L366.3,289.5L381.9,285.6L397.5,285.6L413.0,286.9L428.6,289.5L444.2,284.3L459.7,283.0L475.3,283.0L490.8,279.2L506.4,285.6L522.0,281.7L537.5,281.7L553.1,281.7L568.7,281.7L584.2,289.5L599.8,289.5L615.4,288.2L630.9,294.7L646.5,340.0L662.1,340.0L677.6,340.0L693.2,340.0L708.8,334.8L724.3,334.8L739.9,332.2L755.5,332.2L771.0,330.9L786.6,327.1L802.2,328.3L817.7,325.8L833.3,325.8L848.9,328.3L864.4,327.1L880.0,328.3" fill="none" stroke="#3fb950" stroke-width="2.5" stroke-linecap="round" stroke-linejoin="round"/>
  <path d="M55.0,340.0L70.6,340.0L86.1,338.7L101.7,337.4L117.3,337.4L132.8,336.1L148.4,336.1L164.0,334.8L179.5,334.8L195.1,334.8L210.7,334.8L226.2,334.8L241.8,334.8L257.4,334.8L272.9,334.8L288.5,333.5L304.1,330.9L319.6,329.6L335.2,329.6L350.8,329.6L366.3,327.1L381.9,327.1L397.5,327.1L413.0,325.8L428.6,325.8L444.2,318.0L459.7,318.0L475.3,312.8L490.8,308.9L506.4,303.8L522.0,302.5L537.5,302.5L553.1,302.5L568.7,302.5L584.2,299.9L599.8,299.9L615.4,297.3L630.9,293.4L646.5,290.8L662.1,283.0L677.6,277.9L693.2,270.1L708.8,266.2L724.3,261.0L739.9,258.4L755.5,252.0L771.0,241.6L786.6,237.7L802.2,230.0L817.7,226.1L833.3,219.6L848.9,211.8L864.4,205.4L880.0,200.2" fill="none" stroke="#d2a8ff" stroke-width="2.5" stroke-linecap="round" stroke-linejoin="round"/>
  <path d="M55.0,340.0L70.6,333.5L86.1,332.2L101.7,330.9L117.3,329.6L132.8,324.5L148.4,324.5L164.0,324.5L179.5,324.5L195.1,323.2L210.7,323.2L226.2,323.2L241.8,323.2L257.4,323.2L272.9,323.2L288.5,320.6L304.1,319.3L319.6,318.0L335.2,318.0L350.8,315.4L366.3,315.4L381.9,312.8L397.5,307.6L413.0,305.0L428.6,298.6L444.2,297.3L459.7,297.3L475.3,296.0L490.8,294.7L506.4,286.9L522.0,286.9L537.5,286.9L553.1,286.9L568.7,286.9L584.2,281.7L599.8,281.7L615.4,277.9L630.9,264.9L646.5,218.3L662.1,218.3L677.6,218.3L693.2,218.3L708.8,215.7L724.3,214.4L739.9,213.1L755.5,213.1L771.0,213.1L786.6,213.1L802.2,209.2L817.7,207.9L833.3,207.9L848.9,207.9L864.4,207.9L880.0,207.9" fill="none" stroke="#f85149" stroke-width="2.5" stroke-linecap="round" stroke-linejoin="round"/>
  <circle cx="880.0" cy="56.5" r="3.5" fill="#58a6ff"/>
  <text x="889.0" y="60.5" fill="#58a6ff" font-size="11" font-weight="600" font-family="-apple-system,BlinkMacSystemFont,Segoe UI,Helvetica,Arial,sans-serif">219</text>
  <circle cx="880.0" cy="288.2" r="3.5" fill="#f78166"/>
  <text x="889.0" y="292.2" fill="#f78166" font-size="11" font-weight="600" font-family="-apple-system,BlinkMacSystemFont,Segoe UI,Helvetica,Arial,sans-serif">40</text>
  <circle cx="880.0" cy="328.3" r="3.5" fill="#3fb950"/>
  <text x="889.0" y="332.3" fill="#3fb950" font-size="11" font-weight="600" font-family="-apple-system,BlinkMacSystemFont,Segoe UI,Helvetica,Arial,sans-serif">9</text>
  <circle cx="880.0" cy="200.2" r="3.5" fill="#d2a8ff"/>
  <text x="889.0" y="204.2" fill="#d2a8ff" font-size="11" font-weight="600" font-family="-apple-system,BlinkMacSystemFont,Segoe UI,Helvetica,Arial,sans-serif">108</text>
  <circle cx="880.0" cy="207.9" r="3.5" fill="#f85149"/>
  <text x="889.0" y="211.9" fill="#f85149" font-size="11" font-weight="600" font-family="-apple-system,BlinkMacSystemFont,Segoe UI,Helvetica,Arial,sans-serif">102</text>
  <line x1="55" y1="368" x2="71" y2="368" stroke="#f78166" stroke-width="2.5" stroke-linecap="round"/>
  <text x="77" y="372" fill="#8b949e" font-size="11" font-family="-apple-system,BlinkMacSystemFont,Segoe UI,Helvetica,Arial,sans-serif">Repos</text>
  <line x1="255" y1="368" x2="271" y2="368" stroke="#58a6ff" stroke-width="2.5" stroke-linecap="round"/>
  <text x="277" y="372" fill="#8b949e" font-size="11" font-family="-apple-system,BlinkMacSystemFont,Segoe UI,Helvetica,Arial,sans-serif">PRs Opened</text>
  <line x1="455" y1="368" x2="471" y2="368" stroke="#3fb950" stroke-width="2.5" stroke-linecap="round"/>
  <text x="477" y="372" fill="#8b949e" font-size="11" font-family="-apple-system,BlinkMacSystemFont,Segoe UI,Helvetica,Arial,sans-serif">Open PRs</text>
  <line x1="55" y1="386" x2="71" y2="386" stroke="#d2a8ff" stroke-width="2.5" stroke-linecap="round"/>
  <text x="77" y="390" fill="#8b949e" font-size="11" font-family="-apple-system,BlinkMacSystemFont,Segoe UI,Helvetica,Arial,sans-serif">Merged</text>
  <line x1="255" y1="386" x2="271" y2="386" stroke="#f85149" stroke-width="2.5" stroke-linecap="round"/>
  <text x="277" y="390" fill="#8b949e" font-size="11" font-family="-apple-system,BlinkMacSystemFont,Segoe UI,Helvetica,Arial,sans-serif">Closed</text>
</svg>