<svg xmlns="http://www.w3.org/2000/svg" viewBox="0 0 960 400" width="960" height="400">
  <defs>
    <linearGradient id="gR" x1="0" y1="0" x2="0" y2="1">
      <stop offset="0%" stop-color="#f78166" stop-opacity="0.25"/>
      <stop offset="100%" stop-color="#f78166" stop-opacity="0.02"/>
    </linearGradient>
    <linearGradient id="gO" x1="0" y1="0" x2="0" y2="1">
      <stop offset="0%" stop-color="#58a6ff" stop-opacity="0.25"/>
      <stop offset="100%" stop-color="#58a6ff" stop-opacity="0.02"/>
    </linearGradient>
    <linearGradient id="gOp" x1="0" y1="0" x2="0" y2="1">
      <stop offset="0%" stop-color="#3fb950" stop-opacity="0.25"/>
      <stop offset="100%" stop-color="#3fb950" stop-opacity="0.02"/>
    </linearGradient>
    <linearGradient id="gM" x1="0" y1="0" x2="0" y2="1">
      <stop offset="0%" stop-color="#d2a8ff" stop-opacity="0.25"/>
      <stop offset="100%" stop-color="#d2a8ff" stop-opacity="0.02"/>
    </linearGradient>
    <linearGradient id="gC" x1="0" y1="0" x2="0" y2="1">
      <stop offset="0%" stop-color="#f85149" stop-opacity="0.25"/>
      <stop offset="100%" stop-color="#f85149" stop-opacity="0.02"/>
    </linearGradient>
  </defs>
  <rect width="960" height="400" rx="12" fill="#0d1117"/>
  <rect width="960" height="400" rx="12" fill="none" stroke="#30363d" stroke-width="1"/>
  <text x="55" y="30" fill="#e6edf3" font-size="15" font-weight="600" font-family="-apple-system,BlinkMacSystemFont,Segoe UI,Helvetica,Arial,sans-serif">GitHub Activity — jlaportebot</text>
  <text x="880" y="30" fill="#8b949e" font-size="11" text-anchor="end" font-family="-apple-system,BlinkMacSystemFont,Segoe UI,Helvetica,Arial,sans-serif">Updated Jun 18, 2026</text>
  <line x1="55" y1="340.0" x2="880" y2="340.0" stroke="#21262d" stroke-width="1"/>
  <text x="47" y="344.0" fill="#8b949e" font-size="11" text-anchor="end" font-family="-apple-system,BlinkMacSystemFont,Segoe UI,Helvetica,Arial,sans-serif">0</text>
  <line x1="55" y1="324.7" x2="880" y2="324.7" stroke="#21262d" stroke-width="1"/>
  <text x="47" y="328.7" fill="#8b949e" font-size="11" text-anchor="end" font-family="-apple-system,BlinkMacSystemFont,Segoe UI,Helvetica,Arial,sans-serif">10</text>
  <line x1="55" y1="309.5" x2="880" y2="309.5" stroke="#21262d" stroke-width="1"/>
  <text x="47" y="313.5" fill="#8b949e" font-size="11" text-anchor="end" font-family="-apple-system,BlinkMacSystemFont,Segoe UI,Helvetica,Arial,sans-serif">20</text>
  <line x1="55" y1="294.2" x2="880" y2="294.2" stroke="#21262d" stroke-width="1"/>
  <text x="47" y="298.2" fill="#8b949e" font-size="11" text-anchor="end" font-family="-apple-system,BlinkMacSystemFont,Segoe UI,Helvetica,Arial,sans-serif">30</text>
  <line x1="55" y1="278.9" x2="880" y2="278.9" stroke="#21262d" stroke-width="1"/>
  <text x="47" y="282.9" fill="#8b949e" font-size="11" text-anchor="end" font-family="-apple-system,BlinkMacSystemFont,Segoe UI,Helvetica,Arial,sans-serif">40</text>
  <line x1="55" y1="263.7" x2="880" y2="263.7" stroke="#21262d" stroke-width="1"/>
  <text x="47" y="267.7" fill="#8b949e" font-size="11" text-anchor="end" font-family="-apple-system,BlinkMacSystemFont,Segoe UI,Helvetica,Arial,sans-serif">50</text>
  <line x1="55" y1="248.4" x2="880" y2="248.4" stroke="#21262d" stroke-width="1"/>
  <text x="47" y="252.4" fill="#8b949e" font-size="11" text-anchor="end" font-family="-apple-system,BlinkMacSystemFont,Segoe UI,Helvetica,Arial,sans-serif">60</text>
  <line x1="55" y1="233.2" x2="880" y2="233.2" stroke="#21262d" stroke-width="1"/>
  <text x="47" y="237.2" fill="#8b949e" font-size="11" text-anchor="end" font-family="-apple-system,BlinkMacSystemFont,Segoe UI,Helvetica,Arial,sans-serif">70</text>
  <line x1="55" y1="217.9" x2="880" y2="217.9" stroke="#21262d" stroke-width="1"/>
  <text x="47" y="221.9" fill="#8b949e" font-size="11" text-anchor="end" font-family="-apple-system,BlinkMacSystemFont,Segoe UI,Helvetica,Arial,sans-serif">80</text>
  <line x1="55" y1="202.6" x2="880" y2="202.6" stroke="#21262d" stroke-width="1"/>
  <text x="47" y="206.6" fill="#8b949e" font-size="11" text-anchor="end" font-family="-apple-system,BlinkMacSystemFont,Segoe UI,Helvetica,Arial,sans-serif">90</text>
  <line x1="55" y1="187.4" x2="880" y2="187.4" stroke="#21262d" stroke-width="1"/>
  <text x="47" y="191.4" fill="#8b949e" font-size="11" text-anchor="end" font-family="-apple-system,BlinkMacSystemFont,Segoe UI,Helvetica,Arial,sans-serif">100</text>
  <line x1="55" y1="172.1" x2="880" y2="172.1" stroke="#21262d" stroke-width="1"/>
  <text x="47" y="176.1" fill="#8b949e" font-size="11" text-anchor="end" font-family="-apple-system,BlinkMacSystemFont,Segoe UI,Helvetica,Arial,sans-serif">110</text>
  <line x1="55" y1="156.8" x2="880" y2="156.8" stroke="#21262d" stroke-width="1"/>
  <text x="47" y="160.8" fill="#8b949e" font-size="11" text-anchor="end" font-family="-apple-system,BlinkMacSystemFont,Segoe UI,Helvetica,Arial,sans-serif">120</text>
  <line x1="55" y1="141.6" x2="880" y2="141.6" stroke="#21262d" stroke-width="1"/>
  <text x="47" y="145.6" fill="#8b949e" font-size="11" text-anchor="end" font-family="-apple-system,BlinkMacSystemFont,Segoe UI,Helvetica,Arial,sans-serif">130</text>
  <line x1="55" y1="126.3" x2="880" y2="126.3" stroke="#21262d" stroke-width="1"/>
  <text x="47" y="130.3" fill="#8b949e" font-size="11" text-anchor="end" font-family="-apple-system,BlinkMacSystemFont,Segoe UI,Helvetica,Arial,sans-serif">140</text>
  <line x1="55" y1="111.1" x2="880" y2="111.1" stroke="#21262d" stroke-width="1"/>
  <text x="47" y="115.1" fill="#8b949e" font-size="11" text-anchor="end" font-family="-apple-system,BlinkMacSystemFont,Segoe UI,Helvetica,Arial,sans-serif">150</text>
  <line x1="55" y1="95.8" x2="880" y2="95.8" stroke="#21262d" stroke-width="1"/>
  <text x="47" y="99.8" fill="#8b949e" font-size="11" text-anchor="end" font-family="-apple-system,BlinkMacSystemFont,Segoe UI,Helvetica,Arial,sans-serif">160</text>
  <line x1="55" y1="80.5" x2="880" y2="80.5" stroke="#21262d" stroke-width="1"/>
  <text x="47" y="84.5" fill="#8b949e" font-size="11" text-anchor="end" font-family="-apple-system,BlinkMacSystemFont,Segoe UI,Helvetica,Arial,sans-serif">170</text>
  <line x1="55" y1="65.3" x2="880" y2="65.3" stroke="#21262d" stroke-width="1"/>
  <text x="47" y="69.3" fill="#8b949e" font-size="11" text-anchor="end" font-family="-apple-system,BlinkMacSystemFont,Segoe UI,Helvetica,Arial,sans-serif">180</text>
  <line x1="55" y1="50.0" x2="880" y2="50.0" stroke="#21262d" stroke-width="1"/>
  <text x="47" y="54.0" fill="#8b949e" font-size="11" text-anchor="end" font-family="-apple-system,BlinkMacSystemFont,Segoe UI,Helvetica,Arial,sans-serif">190</text>
  <line x1="55.0" y1="50" x2="55.0" y2="340" stroke="#21262d" stroke-width="1" stroke-dasharray="4,4"/>
  <text x="55.0" y="360" fill="#8b949e" font-size="10" text-anchor="middle" font-family="-apple-system,BlinkMacSystemFont,Segoe UI,Helvetica,Arial,sans-serif">May 02</text>
  <line x1="160.3" y1="50" x2="160.3" y2="340" stroke="#21262d" stroke-width="1" stroke-dasharray="4,4"/>
  <text x="160.3" y="360" fill="#8b949e" font-size="10" text-anchor="middle" font-family="-apple-system,BlinkMacSystemFont,Segoe UI,Helvetica,Arial,sans-serif">May 08</text>
  <line x1="265.6" y1="50" x2="265.6" y2="340" stroke="#21262d" stroke-width="1" stroke-dasharray="4,4"/>
  <text x="265.6" y="360" fill="#8b949e" font-size="10" text-anchor="middle" font-family="-apple-system,BlinkMacSystemFont,Segoe UI,Helvetica,Arial,sans-serif">May 14</text>
  <line x1="371.0" y1="50" x2="371.0" y2="340" stroke="#21262d" stroke-width="1" stroke-dasharray="4,4"/>
  <text x="371.0" y="360" fill="#8b949e" font-size="10" text-anchor="middle" font-family="-apple-system,BlinkMacSystemFont,Segoe UI,Helvetica,Arial,sans-serif">May 20</text>
  <line x1="476.3" y1="50" x2="476.3" y2="340" stroke="#21262d" stroke-width="1" stroke-dasharray="4,4"/>
  <text x="476.3" y="360" fill="#8b949e" font-size="10" text-anchor="middle" font-family="-apple-system,BlinkMacSystemFont,Segoe UI,Helvetica,Arial,sans-serif">May 26</text>
  <line x1="581.6" y1="50" x2="581.6" y2="340" stroke="#21262d" stroke-width="1" stroke-dasharray="4,4"/>
  <text x="581.6" y="360" fill="#8b949e" font-size="10" text-anchor="middle" font-family="-apple-system,BlinkMacSystemFont,Segoe UI,Helvetica,Arial,sans-serif">Jun 01</text>
  <line x1="686.9" y1="50" x2="686.9" y2="340" stroke="#21262d" stroke-width="1" stroke-dasharray="4,4"/>
  <text x="686.9" y="360" fill="#8b949e" font-size="10" text-anchor="middle" font-family="-apple-system,BlinkMacSystemFont,Segoe UI,Helvetica,Arial,sans-serif">Jun 07</text>
  <line x1="792.2" y1="50" x2="792.2" y2="340" stroke="#21262d" stroke-width="1" stroke-dasharray="4,4"/>
  <text x="792.2" y="360" fill="#8b949e" font-size="10" text-anchor="middle" font-family="-apple-system,BlinkMacSystemFont,Segoe UI,Helvetica,Arial,sans-serif">Jun 13</text>
  <line x1="880.0" y1="50" x2="880.0" y2="340" stroke="#21262d" stroke-width="1" stroke-dasharray="4,4"/>
  <text x="880.0" y="360" fill="#8b949e" font-size="10" text-anchor="middle" font-family="-apple-system,BlinkMacSystemFont,Segoe UI,Helvetica,Arial,sans-serif">Jun 18</text>
  <path d="M55.0,340.0L72.6,321.7L90.1,311.0L107.7,304.9L125.2,295.7L142.8,289.6L160.3,285.1L177.9,285.1L195.4,285.1L213.0,285.1L230.5,285.1L248.1,285.1L265.6,285.1L283.2,285.1L300.7,283.5L318.3,277.4L335.9,271.3L353.4,263.7L371.0,254.5L388.5,245.4L406.1,236.2L423.6,228.6L441.2,222.5L458.7,219.4L476.3,214.8L493.8,198.1L511.4,196.5L528.9,188.9L546.5,178.2L564.0,170.6L581.6,164.5L599.1,164.5L616.7,164.5L634.3,164.5L651.8,164.5L669.4,164.5L686.9,155.3L704.5,143.1L722.0,138.5L739.6,129.4L757.1,123.3L774.7,114.1L792.2,100.4L809.8,92.7L827.3,85.1L844.9,77.5L862.4,63.7L880.0,57.6L880.0,340.0L55.0,340.0Z" fill="url(#gO)"/>
  <path d="M55.0,338.5L72.6,338.5L90.1,338.5L107.7,338.5L125.2,338.5L142.8,338.5L160.3,338.5L177.9,338.5L195.4,338.5L213.0,338.5L230.5,338.5L248.1,338.5L265.6,338.5L283.2,338.5L300.7,338.5L318.3,333.9L335.9,333.9L353.4,333.9L371.0,333.9L388.5,333.9L406.1,333.9L423.6,333.9L441.2,332.4L458.7,327.8L476.3,327.8L493.8,326.3L511.4,326.3L528.9,326.3L546.5,326.3L564.0,326.3L581.6,323.2L599.1,323.2L616.7,323.2L634.3,323.2L651.8,323.2L669.4,323.2L686.9,323.2L704.5,320.2L722.0,301.8L739.6,301.8L757.1,301.8L774.7,301.8L792.2,289.6L809.8,289.6L827.3,289.6L844.9,289.6L862.4,289.6L880.0,286.6L880.0,340.0L55.0,340.0Z" fill="url(#gR)"/>
  <path d="M55.0,340.0L72.6,321.7L90.1,311.0L107.7,304.9L125.2,295.7L142.8,289.6L160.3,285.1L177.9,285.1L195.4,285.1L213.0,285.1L230.5,285.1L248.1,285.1L265.6,285.1L283.2,285.1L300.7,283.5L318.3,277.4L335.9,271.3L353.4,263.7L371.0,254.5L388.5,245.4L406.1,236.2L423.6,228.6L441.2,222.5L458.7,219.4L476.3,214.8L493.8,198.1L511.4,196.5L528.9,188.9L546.5,178.2L564.0,170.6L581.6,164.5L599.1,164.5L616.7,164.5L634.3,164.5L651.8,164.5L669.4,164.5L686.9,155.3L704.5,143.1L722.0,138.5L739.6,129.4L757.1,123.3L774.7,114.1L792.2,100.4L809.8,92.7L827.3,85.1L844.9,77.5L862.4,63.7L880.0,57.6" fill="none" stroke="#58a6ff" stroke-width="2.5" stroke-linecap="round" stroke-linejoin="round"/>
  <path d="M55.0,338.5L72.6,338.5L90.1,338.5L107.7,338.5L125.2,338.5L142.8,338.5L160.3,338.5L177.9,338.5L195.4,338.5L213.0,338.5L230.5,338.5L248.1,338.5L265.6,338.5L283.2,338.5L300.7,338.5L318.3,333.9L335.9,333.9L353.4,333.9L371.0,333.9L388.5,333.9L406.1,333.9L423.6,333.9L441.2,332.4L458.7,327.8L476.3,327.8L493.8,326.3L511.4,326.3L528.9,326.3L546.5,326.3L564.0,326.3L581.6,323.2L599.1,323.2L616.7,323.2L634.3,323.2L651.8,323.2L669.4,323.2L686.9,323.2L704.5,320.2L722.0,301.8L739.6,301.8L757.1,301.8L774.7,301.8L792.2,289.6L809.8,289.6L827.3,289.6L844.9,289.6L862.4,289.6L880.0,286.6" fill="none" stroke="#f78166" stroke-width="2.5" stroke-linecap="round" stroke-linejoin="round"/>
  <path d="M55.0,340.0L72.6,329.3L90.1,321.7L107.7,318.6L125.2,311.0L142.8,312.5L160.3,307.9L177.9,309.5L195.4,309.5L213.0,311.0L230.5,311.0L248.1,311.0L265.6,311.0L283.2,311.0L300.7,309.5L318.3,307.9L335.9,306.4L353.4,301.8L371.0,292.7L388.5,286.6L406.1,280.5L423.6,275.9L441.2,275.9L458.7,277.4L476.3,280.5L493.8,274.4L511.4,272.8L528.9,272.8L546.5,268.3L564.0,275.9L581.6,271.3L599.1,271.3L616.7,271.3L634.3,271.3L651.8,280.5L669.4,280.5L686.9,278.9L704.5,286.6L722.0,340.0L739.6,340.0L757.1,340.0L774.7,340.0L792.2,333.9L809.8,333.9L827.3,330.8L844.9,330.8L862.4,329.3L880.0,326.3" fill="none" stroke="#3fb950" stroke-width="2.5" stroke-linecap="round" stroke-linejoin="round"/>
  <path d="M55.0,340.0L72.6,340.0L90.1,338.5L107.7,336.9L125.2,336.9L142.8,335.4L160.3,335.4L177.9,333.9L195.4,333.9L213.0,333.9L230.5,333.9L248.1,333.9L265.6,333.9L283.2,333.9L300.7,333.9L318.3,332.4L335.9,329.3L353.4,327.8L371.0,327.8L388.5,327.8L406.1,324.7L423.6,324.7L441.2,324.7L458.7,323.2L476.3,323.2L493.8,314.1L511.4,314.1L528.9,307.9L546.5,303.4L564.0,297.3L581.6,295.7L599.1,295.7L616.7,295.7L634.3,295.7L651.8,292.7L669.4,292.7L686.9,289.6L704.5,285.1L722.0,282.0L739.6,272.8L757.1,266.7L774.7,257.6L792.2,253.0L809.8,246.9L827.3,243.8L844.9,236.2L862.4,224.0L880.0,220.9" fill="none" stroke="#d2a8ff" stroke-width="2.5" stroke-linecap="round" stroke-linejoin="round"/>
  <path d="M55.0,340.0L72.6,332.4L90.1,330.8L107.7,329.3L125.2,327.8L142.8,321.7L160.3,321.7L177.9,321.7L195.4,321.7L213.0,320.2L230.5,320.2L248.1,320.2L265.6,320.2L283.2,320.2L300.7,320.2L318.3,317.1L335.9,315.6L353.4,314.1L371.0,314.1L388.5,311.0L406.1,311.0L423.6,307.9L441.2,301.8L458.7,298.8L476.3,291.2L493.8,289.6L511.4,289.6L528.9,288.1L546.5,286.6L564.0,277.4L581.6,277.4L599.1,277.4L616.7,277.4L634.3,277.4L651.8,271.3L669.4,271.3L686.9,266.7L704.5,251.5L722.0,196.5L739.6,196.5L757.1,196.5L774.7,196.5L792.2,193.5L809.8,191.9L827.3,190.4L844.9,190.4L862.4,190.4L880.0,190.4" fill="none" stroke="#f85149" stroke-width="2.5" stroke-linecap="round" stroke-linejoin="round"/>
  <circle cx="880.0" cy="57.6" r="3.5" fill="#58a6ff"/>
  <text x="889.0" y="61.6" fill="#58a6ff" font-size="11" font-weight="600" font-family="-apple-system,BlinkMacSystemFont,Segoe UI,Helvetica,Arial,sans-serif">185</text>
  <circle cx="880.0" cy="286.6" r="3.5" fill="#f78166"/>
  <text x="889.0" y="290.6" fill="#f78166" font-size="11" font-weight="600" font-family="-apple-system,BlinkMacSystemFont,Segoe UI,Helvetica,Arial,sans-serif">35</text>
  <circle cx="880.0" cy="326.3" r="3.5" fill="#3fb950"/>
  <text x="889.0" y="330.3" fill="#3fb950" font-size="11" font-weight="600" font-family="-apple-system,BlinkMacSystemFont,Segoe UI,Helvetica,Arial,sans-serif">9</text>
  <circle cx="880.0" cy="220.9" r="3.5" fill="#d2a8ff"/>
  <text x="889.0" y="224.9" fill="#d2a8ff" font-size="11" font-weight="600" font-family="-apple-system,BlinkMacSystemFont,Segoe UI,Helvetica,Arial,sans-serif">78</text>
  <circle cx="880.0" cy="190.4" r="3.5" fill="#f85149"/>
  <text x="889.0" y="194.4" fill="#f85149" font-size="11" font-weight="600" font-family="-apple-system,BlinkMacSystemFont,Segoe UI,Helvetica,Arial,sans-serif">98</text>
  <line x1="55" y1="368" x2="71" y2="368" stroke="#f78166" stroke-width="2.5" stroke-linecap="round"/>
  <text x="77" y="372" fill="#8b949e" font-size="11" font-family="-apple-system,BlinkMacSystemFont,Segoe UI,Helvetica,Arial,sans-serif">Repos</text>
  <line x1="255" y1="368" x2="271" y2="368" stroke="#58a6ff" stroke-width="2.5" stroke-linecap="round"/>
  <text x="277" y="372" fill="#8b949e" font-size="11" font-family="-apple-system,BlinkMacSystemFont,Segoe UI,Helvetica,Arial,sans-serif">PRs Opened</text>
  <line x1="455" y1="368" x2="471" y2="368" stroke="#3fb950" stroke-width="2.5" stroke-linecap="round"/>
  <text x="477" y="372" fill="#8b949e" font-size="11" font-family="-apple-system,BlinkMacSystemFont,Segoe UI,Helvetica,Arial,sans-serif">Open PRs</text>
  <line x1="55" y1="386" x2="71" y2="386" stroke="#d2a8ff" stroke-width="2.5" stroke-linecap="round"/>
  <text x="77" y="390" fill="#8b949e" font-size="11" font-family="-apple-system,BlinkMacSystemFont,Segoe UI,Helvetica,Arial,sans-serif">Merged</text>
  <line x1="255" y1="386" x2="271" y2="386" stroke="#f85149" stroke-width="2.5" stroke-linecap="round"/>
  <text x="277" y="390" fill="#8b949e" font-size="11" font-family="-apple-system,BlinkMacSystemFont,Segoe UI,Helvetica,Arial,sans-serif">Closed</text>
</svg>