<svg xmlns="http://www.w3.org/2000/svg" viewBox="0 0 960 400" width="960" height="400">
  <defs>
    <linearGradient id="gR" x1="0" y1="0" x2="0" y2="1">
      <stop offset="0%" stop-color="#3fb950" stop-opacity="0.25"/>
      <stop offset="100%" stop-color="#3fb950" stop-opacity="0.02"/>
    </linearGradient>
    <linearGradient id="gO" x1="0" y1="0" x2="0" y2="1">
      <stop offset="0%" stop-color="#58a6ff" stop-opacity="0.25"/>
      <stop offset="100%" stop-color="#58a6ff" stop-opacity="0.02"/>
    </linearGradient>
    <linearGradient id="gOp" x1="0" y1="0" x2="0" y2="1">
      <stop offset="0%" stop-color="#d2a8ff" stop-opacity="0.25"/>
      <stop offset="100%" stop-color="#d2a8ff" stop-opacity="0.02"/>
    </linearGradient>
    <linearGradient id="gM" x1="0" y1="0" x2="0" y2="1">
      <stop offset="0%" stop-color="#f78166" stop-opacity="0.25"/>
      <stop offset="100%" stop-color="#f78166" stop-opacity="0.02"/>
    </linearGradient>
    <linearGradient id="gC" x1="0" y1="0" x2="0" y2="1">
      <stop offset="0%" stop-color="#f85149" stop-opacity="0.25"/>
      <stop offset="100%" stop-color="#f85149" stop-opacity="0.02"/>
    </linearGradient>
  </defs>
  <rect width="960" height="400" rx="12" fill="#0d1117"/>
  <rect width="960" height="400" rx="12" fill="none" stroke="#30363d" stroke-width="1"/>
  <text x="55" y="30" fill="#e6edf3" font-size="15" font-weight="600" font-family="-apple-system,BlinkMacSystemFont,Segoe UI,Helvetica,Arial,sans-serif">GitHub Activity — jlaportebot</text>
  <text x="880" y="30" fill="#8b949e" font-size="11" text-anchor="end" font-family="-apple-system,BlinkMacSystemFont,Segoe UI,Helvetica,Arial,sans-serif">Updated Jun 07, 2026</text>
  <line x1="55" y1="340.0" x2="880" y2="340.0" stroke="#21262d" stroke-width="1"/>
  <text x="47" y="344.0" fill="#8b949e" font-size="11" text-anchor="end" font-family="-apple-system,BlinkMacSystemFont,Segoe UI,Helvetica,Arial,sans-serif">0</text>
  <line x1="55" y1="317.5" x2="880" y2="317.5" stroke="#21262d" stroke-width="1"/>
  <text x="47" y="321.5" fill="#8b949e" font-size="11" text-anchor="end" font-family="-apple-system,BlinkMacSystemFont,Segoe UI,Helvetica,Arial,sans-serif">10</text>
  <line x1="55" y1="295.0" x2="880" y2="295.0" stroke="#21262d" stroke-width="1"/>
  <text x="47" y="299.0" fill="#8b949e" font-size="11" text-anchor="end" font-family="-apple-system,BlinkMacSystemFont,Segoe UI,Helvetica,Arial,sans-serif">20</text>
  <line x1="55" y1="272.6" x2="880" y2="272.6" stroke="#21262d" stroke-width="1"/>
  <text x="47" y="276.6" fill="#8b949e" font-size="11" text-anchor="end" font-family="-apple-system,BlinkMacSystemFont,Segoe UI,Helvetica,Arial,sans-serif">30</text>
  <line x1="55" y1="250.1" x2="880" y2="250.1" stroke="#21262d" stroke-width="1"/>
  <text x="47" y="254.1" fill="#8b949e" font-size="11" text-anchor="end" font-family="-apple-system,BlinkMacSystemFont,Segoe UI,Helvetica,Arial,sans-serif">40</text>
  <line x1="55" y1="227.6" x2="880" y2="227.6" stroke="#21262d" stroke-width="1"/>
  <text x="47" y="231.6" fill="#8b949e" font-size="11" text-anchor="end" font-family="-apple-system,BlinkMacSystemFont,Segoe UI,Helvetica,Arial,sans-serif">50</text>
  <line x1="55" y1="205.1" x2="880" y2="205.1" stroke="#21262d" stroke-width="1"/>
  <text x="47" y="209.1" fill="#8b949e" font-size="11" text-anchor="end" font-family="-apple-system,BlinkMacSystemFont,Segoe UI,Helvetica,Arial,sans-serif">60</text>
  <line x1="55" y1="182.6" x2="880" y2="182.6" stroke="#21262d" stroke-width="1"/>
  <text x="47" y="186.6" fill="#8b949e" font-size="11" text-anchor="end" font-family="-apple-system,BlinkMacSystemFont,Segoe UI,Helvetica,Arial,sans-serif">70</text>
  <line x1="55" y1="160.2" x2="880" y2="160.2" stroke="#21262d" stroke-width="1"/>
  <text x="47" y="164.2" fill="#8b949e" font-size="11" text-anchor="end" font-family="-apple-system,BlinkMacSystemFont,Segoe UI,Helvetica,Arial,sans-serif">80</text>
  <line x1="55" y1="137.7" x2="880" y2="137.7" stroke="#21262d" stroke-width="1"/>
  <text x="47" y="141.7" fill="#8b949e" font-size="11" text-anchor="end" font-family="-apple-system,BlinkMacSystemFont,Segoe UI,Helvetica,Arial,sans-serif">90</text>
  <line x1="55" y1="115.2" x2="880" y2="115.2" stroke="#21262d" stroke-width="1"/>
  <text x="47" y="119.2" fill="#8b949e" font-size="11" text-anchor="end" font-family="-apple-system,BlinkMacSystemFont,Segoe UI,Helvetica,Arial,sans-serif">100</text>
  <line x1="55" y1="92.7" x2="880" y2="92.7" stroke="#21262d" stroke-width="1"/>
  <text x="47" y="96.7" fill="#8b949e" font-size="11" text-anchor="end" font-family="-apple-system,BlinkMacSystemFont,Segoe UI,Helvetica,Arial,sans-serif">110</text>
  <line x1="55" y1="70.2" x2="880" y2="70.2" stroke="#21262d" stroke-width="1"/>
  <text x="47" y="74.2" fill="#8b949e" font-size="11" text-anchor="end" font-family="-apple-system,BlinkMacSystemFont,Segoe UI,Helvetica,Arial,sans-serif">120</text>
  <line x1="55.0" y1="50" x2="55.0" y2="340" stroke="#21262d" stroke-width="1" stroke-dasharray="4,4"/>
  <text x="55.0" y="360" fill="#8b949e" font-size="10" text-anchor="middle" font-family="-apple-system,BlinkMacSystemFont,Segoe UI,Helvetica,Arial,sans-serif">May 02</text>
  <line x1="166.5" y1="50" x2="166.5" y2="340" stroke="#21262d" stroke-width="1" stroke-dasharray="4,4"/>
  <text x="166.5" y="360" fill="#8b949e" font-size="10" text-anchor="middle" font-family="-apple-system,BlinkMacSystemFont,Segoe UI,Helvetica,Arial,sans-serif">May 07</text>
  <line x1="278.0" y1="50" x2="278.0" y2="340" stroke="#21262d" stroke-width="1" stroke-dasharray="4,4"/>
  <text x="278.0" y="360" fill="#8b949e" font-size="10" text-anchor="middle" font-family="-apple-system,BlinkMacSystemFont,Segoe UI,Helvetica,Arial,sans-serif">May 12</text>
  <line x1="389.5" y1="50" x2="389.5" y2="340" stroke="#21262d" stroke-width="1" stroke-dasharray="4,4"/>
  <text x="389.5" y="360" fill="#8b949e" font-size="10" text-anchor="middle" font-family="-apple-system,BlinkMacSystemFont,Segoe UI,Helvetica,Arial,sans-serif">May 17</text>
  <line x1="500.9" y1="50" x2="500.9" y2="340" stroke="#21262d" stroke-width="1" stroke-dasharray="4,4"/>
  <text x="500.9" y="360" fill="#8b949e" font-size="10" text-anchor="middle" font-family="-apple-system,BlinkMacSystemFont,Segoe UI,Helvetica,Arial,sans-serif">May 22</text>
  <line x1="612.4" y1="50" x2="612.4" y2="340" stroke="#21262d" stroke-width="1" stroke-dasharray="4,4"/>
  <text x="612.4" y="360" fill="#8b949e" font-size="10" text-anchor="middle" font-family="-apple-system,BlinkMacSystemFont,Segoe UI,Helvetica,Arial,sans-serif">May 27</text>
  <line x1="723.9" y1="50" x2="723.9" y2="340" stroke="#21262d" stroke-width="1" stroke-dasharray="4,4"/>
  <text x="723.9" y="360" fill="#8b949e" font-size="10" text-anchor="middle" font-family="-apple-system,BlinkMacSystemFont,Segoe UI,Helvetica,Arial,sans-serif">Jun 01</text>
  <line x1="835.4" y1="50" x2="835.4" y2="340" stroke="#21262d" stroke-width="1" stroke-dasharray="4,4"/>
  <text x="835.4" y="360" fill="#8b949e" font-size="10" text-anchor="middle" font-family="-apple-system,BlinkMacSystemFont,Segoe UI,Helvetica,Arial,sans-serif">Jun 06</text>
  <line x1="880.0" y1="50" x2="880.0" y2="340" stroke="#21262d" stroke-width="1" stroke-dasharray="4,4"/>
  <text x="880.0" y="360" fill="#8b949e" font-size="10" text-anchor="middle" font-family="-apple-system,BlinkMacSystemFont,Segoe UI,Helvetica,Arial,sans-serif">Jun 08</text>
  <path d="M55.0,340.0L77.3,310.8L99.6,295.0L121.9,286.0L144.2,272.6L166.5,261.3L188.8,254.6L211.1,254.6L233.4,254.6L255.7,254.6L278.0,254.6L300.3,254.6L322.6,254.6L344.9,254.6L367.2,252.3L389.5,243.3L411.8,234.3L434.1,223.1L456.4,209.6L478.6,196.1L500.9,182.6L523.2,171.4L545.5,162.4L567.8,157.9L590.1,151.2L612.4,126.4L634.7,124.2L657.0,110.7L679.3,95.0L701.6,83.7L723.9,74.7L746.2,74.7L768.5,74.7L790.8,74.7L813.1,74.7L835.4,74.7L857.7,61.2L880.0,61.2L880.0,340.0L55.0,340.0Z" fill="url(#gO)"/>
  <path d="M55.0,337.8L77.3,319.8L99.6,308.5L121.9,304.0L144.2,292.8L166.5,283.8L188.8,279.3L211.1,279.3L233.4,279.3L255.7,279.3L278.0,279.3L300.3,279.3L322.6,279.3L344.9,279.3L367.2,277.1L389.5,259.1L411.8,256.8L434.1,256.8L456.4,256.8L478.6,256.8L500.9,256.8L523.2,256.8L545.5,245.6L567.8,229.8L590.1,216.4L612.4,214.1L634.7,214.1L657.0,214.1L679.3,214.1L701.6,214.1L723.9,209.6L746.2,209.6L768.5,209.6L790.8,209.6L813.1,209.6L835.4,209.6L857.7,205.1L880.0,205.1L880.0,340.0L55.0,340.0Z" fill="url(#gR)"/>
  <path d="M55.0,340.0L77.3,310.8L99.6,295.0L121.9,286.0L144.2,272.6L166.5,261.3L188.8,254.6L211.1,254.6L233.4,254.6L255.7,254.6L278.0,254.6L300.3,254.6L322.6,254.6L344.9,254.6L367.2,252.3L389.5,243.3L411.8,234.3L434.1,223.1L456.4,209.6L478.6,196.1L500.9,182.6L523.2,171.4L545.5,162.4L567.8,157.9L590.1,151.2L612.4,126.4L634.7,124.2L657.0,110.7L679.3,95.0L701.6,83.7L723.9,74.7L746.2,74.7L768.5,74.7L790.8,74.7L813.1,74.7L835.4,74.7L857.7,61.2L880.0,61.2" fill="none" stroke="#58a6ff" stroke-width="2.5" stroke-linecap="round" stroke-linejoin="round"/>
  <path d="M55.0,337.8L77.3,319.8L99.6,308.5L121.9,304.0L144.2,292.8L166.5,283.8L188.8,279.3L211.1,279.3L233.4,279.3L255.7,279.3L278.0,279.3L300.3,279.3L322.6,279.3L344.9,279.3L367.2,277.1L389.5,259.1L411.8,256.8L434.1,256.8L456.4,256.8L478.6,256.8L500.9,256.8L523.2,256.8L545.5,245.6L567.8,229.8L590.1,216.4L612.4,214.1L634.7,214.1L657.0,214.1L679.3,214.1L701.6,214.1L723.9,209.6L746.2,209.6L768.5,209.6L790.8,209.6L813.1,209.6L835.4,209.6L857.7,205.1L880.0,205.1" fill="none" stroke="#3fb950" stroke-width="2.5" stroke-linecap="round" stroke-linejoin="round"/>
  <path d="M55.0,340.0L77.3,322.0L99.6,313.0L121.9,308.5L144.2,297.3L166.5,297.3L188.8,290.5L211.1,292.8L233.4,292.8L255.7,295.0L278.0,295.0L300.3,295.0L322.6,295.0L344.9,295.0L367.2,292.8L389.5,290.5L411.8,288.3L434.1,281.6L456.4,268.1L478.6,259.1L500.9,250.1L523.2,243.3L545.5,243.3L567.8,245.6L590.1,250.1L612.4,241.1L634.7,238.8L657.0,236.6L679.3,232.1L701.6,245.6L723.9,238.8L746.2,238.8L768.5,238.8L790.8,238.8L813.1,252.3L835.4,252.3L857.7,250.1L880.0,252.3" fill="none" stroke="#d2a8ff" stroke-width="2.5" stroke-linecap="round" stroke-linejoin="round"/>
  <path d="M55.0,340.0L77.3,340.0L99.6,335.5L121.9,333.3L144.2,333.3L166.5,331.0L188.8,331.0L211.1,328.8L233.4,328.8L255.7,328.8L278.0,328.8L300.3,328.8L322.6,328.8L344.9,328.8L367.2,328.8L389.5,326.5L411.8,322.0L434.1,319.8L456.4,319.8L478.6,319.8L500.9,315.3L523.2,315.3L545.5,315.3L567.8,313.0L590.1,313.0L612.4,299.5L634.7,299.5L657.0,290.5L679.3,281.6L701.6,270.3L723.9,268.1L746.2,268.1L768.5,268.1L790.8,268.1L813.1,263.6L835.4,263.6L857.7,259.1L880.0,256.8" fill="none" stroke="#f78166" stroke-width="2.5" stroke-linecap="round" stroke-linejoin="round"/>
  <path d="M55.0,340.0L77.3,328.8L99.6,326.5L121.9,324.3L144.2,322.0L166.5,313.0L188.8,313.0L211.1,313.0L233.4,313.0L255.7,310.8L278.0,310.8L300.3,310.8L322.6,310.8L344.9,310.8L367.2,310.8L389.5,306.3L411.8,304.0L434.1,301.8L456.4,301.8L478.6,297.3L500.9,297.3L523.2,292.8L545.5,283.8L567.8,279.3L590.1,268.1L612.4,265.8L634.7,265.8L657.0,263.6L679.3,261.3L701.6,247.8L723.9,247.8L746.2,247.8L768.5,247.8L790.8,247.8L813.1,238.8L835.4,238.8L857.7,232.1L880.0,232.1" fill="none" stroke="#f85149" stroke-width="2.5" stroke-linecap="round" stroke-linejoin="round"/>
  <circle cx="880.0" cy="61.2" r="3.5" fill="#58a6ff"/>
  <text x="889.0" y="65.2" fill="#58a6ff" font-size="11" font-weight="600" font-family="-apple-system,BlinkMacSystemFont,Segoe UI,Helvetica,Arial,sans-serif">124</text>
  <circle cx="880.0" cy="205.1" r="3.5" fill="#3fb950"/>
  <text x="889.0" y="209.1" fill="#3fb950" font-size="11" font-weight="600" font-family="-apple-system,BlinkMacSystemFont,Segoe UI,Helvetica,Arial,sans-serif">60</text>
  <circle cx="880.0" cy="252.3" r="3.5" fill="#d2a8ff"/>
  <text x="889.0" y="256.3" fill="#d2a8ff" font-size="11" font-weight="600" font-family="-apple-system,BlinkMacSystemFont,Segoe UI,Helvetica,Arial,sans-serif">39</text>
  <circle cx="880.0" cy="256.8" r="3.5" fill="#f78166"/>
  <text x="889.0" y="260.8" fill="#f78166" font-size="11" font-weight="600" font-family="-apple-system,BlinkMacSystemFont,Segoe UI,Helvetica,Arial,sans-serif">37</text>
  <circle cx="880.0" cy="232.1" r="3.5" fill="#f85149"/>
  <text x="889.0" y="236.1" fill="#f85149" font-size="11" font-weight="600" font-family="-apple-system,BlinkMacSystemFont,Segoe UI,Helvetica,Arial,sans-serif">48</text>
  <line x1="55" y1="368" x2="71" y2="368" stroke="#3fb950" stroke-width="2.5" stroke-linecap="round"/>
  <text x="77" y="372" fill="#8b949e" font-size="11" font-family="-apple-system,BlinkMacSystemFont,Segoe UI,Helvetica,Arial,sans-serif">Repos</text>
  <line x1="255" y1="368" x2="271" y2="368" stroke="#58a6ff" stroke-width="2.5" stroke-linecap="round"/>
  <text x="277" y="372" fill="#8b949e" font-size="11" font-family="-apple-system,BlinkMacSystemFont,Segoe UI,Helvetica,Arial,sans-serif">PRs Opened</text>
  <line x1="455" y1="368" x2="471" y2="368" stroke="#d2a8ff" stroke-width="2.5" stroke-linecap="round"/>
  <text x="477" y="372" fill="#8b949e" font-size="11" font-family="-apple-system,BlinkMacSystemFont,Segoe UI,Helvetica,Arial,sans-serif">Open PRs</text>
  <line x1="55" y1="386" x2="71" y2="386" stroke="#f78166" stroke-width="2.5" stroke-linecap="round"/>
  <text x="77" y="390" fill="#8b949e" font-size="11" font-family="-apple-system,BlinkMacSystemFont,Segoe UI,Helvetica,Arial,sans-serif">Merged</text>
  <line x1="255" y1="386" x2="271" y2="386" stroke="#f85149" stroke-width="2.5" stroke-linecap="round"/>
  <text x="277" y="390" fill="#8b949e" font-size="11" font-family="-apple-system,BlinkMacSystemFont,Segoe UI,Helvetica,Arial,sans-serif">Closed</text>
</svg>