<svg xmlns="http://www.w3.org/2000/svg" viewBox="0 0 960 400" width="960" height="400">
  <defs>
    <linearGradient id="gR" x1="0" y1="0" x2="0" y2="1">
      <stop offset="0%" stop-color="#3fb950" stop-opacity="0.25"/>
      <stop offset="100%" stop-color="#3fb950" stop-opacity="0.02"/>
    </linearGradient>
    <linearGradient id="gO" x1="0" y1="0" x2="0" y2="1">
      <stop offset="0%" stop-color="#58a6ff" stop-opacity="0.25"/>
      <stop offset="100%" stop-color="#58a6ff" stop-opacity="0.02"/>
    </linearGradient>
    <linearGradient id="gOp" x1="0" y1="0" x2="0" y2="1">
      <stop offset="0%" stop-color="#d2a8ff" stop-opacity="0.25"/>
      <stop offset="100%" stop-color="#d2a8ff" stop-opacity="0.02"/>
    </linearGradient>
    <linearGradient id="gM" x1="0" y1="0" x2="0" y2="1">
      <stop offset="0%" stop-color="#f78166" stop-opacity="0.25"/>
      <stop offset="100%" stop-color="#f78166" stop-opacity="0.02"/>
    </linearGradient>
    <linearGradient id="gC" x1="0" y1="0" x2="0" y2="1">
      <stop offset="0%" stop-color="#f85149" stop-opacity="0.25"/>
      <stop offset="100%" stop-color="#f85149" stop-opacity="0.02"/>
    </linearGradient>
  </defs>
  <rect width="960" height="400" rx="12" fill="#0d1117"/>
  <rect width="960" height="400" rx="12" fill="none" stroke="#30363d" stroke-width="1"/>
  <text x="55" y="30" fill="#e6edf3" font-size="15" font-weight="600" font-family="-apple-system,BlinkMacSystemFont,Segoe UI,Helvetica,Arial,sans-serif">GitHub Activity — jlaportebot</text>
  <text x="880" y="30" fill="#8b949e" font-size="11" text-anchor="end" font-family="-apple-system,BlinkMacSystemFont,Segoe UI,Helvetica,Arial,sans-serif">Updated Jun 08, 2026</text>
  <line x1="55" y1="340.0" x2="880" y2="340.0" stroke="#21262d" stroke-width="1"/>
  <text x="47" y="344.0" fill="#8b949e" font-size="11" text-anchor="end" font-family="-apple-system,BlinkMacSystemFont,Segoe UI,Helvetica,Arial,sans-serif">0</text>
  <line x1="55" y1="318.5" x2="880" y2="318.5" stroke="#21262d" stroke-width="1"/>
  <text x="47" y="322.5" fill="#8b949e" font-size="11" text-anchor="end" font-family="-apple-system,BlinkMacSystemFont,Segoe UI,Helvetica,Arial,sans-serif">10</text>
  <line x1="55" y1="297.0" x2="880" y2="297.0" stroke="#21262d" stroke-width="1"/>
  <text x="47" y="301.0" fill="#8b949e" font-size="11" text-anchor="end" font-family="-apple-system,BlinkMacSystemFont,Segoe UI,Helvetica,Arial,sans-serif">20</text>
  <line x1="55" y1="275.6" x2="880" y2="275.6" stroke="#21262d" stroke-width="1"/>
  <text x="47" y="279.6" fill="#8b949e" font-size="11" text-anchor="end" font-family="-apple-system,BlinkMacSystemFont,Segoe UI,Helvetica,Arial,sans-serif">30</text>
  <line x1="55" y1="254.1" x2="880" y2="254.1" stroke="#21262d" stroke-width="1"/>
  <text x="47" y="258.1" fill="#8b949e" font-size="11" text-anchor="end" font-family="-apple-system,BlinkMacSystemFont,Segoe UI,Helvetica,Arial,sans-serif">40</text>
  <line x1="55" y1="232.6" x2="880" y2="232.6" stroke="#21262d" stroke-width="1"/>
  <text x="47" y="236.6" fill="#8b949e" font-size="11" text-anchor="end" font-family="-apple-system,BlinkMacSystemFont,Segoe UI,Helvetica,Arial,sans-serif">50</text>
  <line x1="55" y1="211.1" x2="880" y2="211.1" stroke="#21262d" stroke-width="1"/>
  <text x="47" y="215.1" fill="#8b949e" font-size="11" text-anchor="end" font-family="-apple-system,BlinkMacSystemFont,Segoe UI,Helvetica,Arial,sans-serif">60</text>
  <line x1="55" y1="189.6" x2="880" y2="189.6" stroke="#21262d" stroke-width="1"/>
  <text x="47" y="193.6" fill="#8b949e" font-size="11" text-anchor="end" font-family="-apple-system,BlinkMacSystemFont,Segoe UI,Helvetica,Arial,sans-serif">70</text>
  <line x1="55" y1="168.1" x2="880" y2="168.1" stroke="#21262d" stroke-width="1"/>
  <text x="47" y="172.1" fill="#8b949e" font-size="11" text-anchor="end" font-family="-apple-system,BlinkMacSystemFont,Segoe UI,Helvetica,Arial,sans-serif">80</text>
  <line x1="55" y1="146.7" x2="880" y2="146.7" stroke="#21262d" stroke-width="1"/>
  <text x="47" y="150.7" fill="#8b949e" font-size="11" text-anchor="end" font-family="-apple-system,BlinkMacSystemFont,Segoe UI,Helvetica,Arial,sans-serif">90</text>
  <line x1="55" y1="125.2" x2="880" y2="125.2" stroke="#21262d" stroke-width="1"/>
  <text x="47" y="129.2" fill="#8b949e" font-size="11" text-anchor="end" font-family="-apple-system,BlinkMacSystemFont,Segoe UI,Helvetica,Arial,sans-serif">100</text>
  <line x1="55" y1="103.7" x2="880" y2="103.7" stroke="#21262d" stroke-width="1"/>
  <text x="47" y="107.7" fill="#8b949e" font-size="11" text-anchor="end" font-family="-apple-system,BlinkMacSystemFont,Segoe UI,Helvetica,Arial,sans-serif">110</text>
  <line x1="55" y1="82.2" x2="880" y2="82.2" stroke="#21262d" stroke-width="1"/>
  <text x="47" y="86.2" fill="#8b949e" font-size="11" text-anchor="end" font-family="-apple-system,BlinkMacSystemFont,Segoe UI,Helvetica,Arial,sans-serif">120</text>
  <line x1="55" y1="60.7" x2="880" y2="60.7" stroke="#21262d" stroke-width="1"/>
  <text x="47" y="64.7" fill="#8b949e" font-size="11" text-anchor="end" font-family="-apple-system,BlinkMacSystemFont,Segoe UI,Helvetica,Arial,sans-serif">130</text>
  <line x1="55.0" y1="50" x2="55.0" y2="340" stroke="#21262d" stroke-width="1" stroke-dasharray="4,4"/>
  <text x="55.0" y="360" fill="#8b949e" font-size="10" text-anchor="middle" font-family="-apple-system,BlinkMacSystemFont,Segoe UI,Helvetica,Arial,sans-serif">May 02</text>
  <line x1="166.5" y1="50" x2="166.5" y2="340" stroke="#21262d" stroke-width="1" stroke-dasharray="4,4"/>
  <text x="166.5" y="360" fill="#8b949e" font-size="10" text-anchor="middle" font-family="-apple-system,BlinkMacSystemFont,Segoe UI,Helvetica,Arial,sans-serif">May 07</text>
  <line x1="278.0" y1="50" x2="278.0" y2="340" stroke="#21262d" stroke-width="1" stroke-dasharray="4,4"/>
  <text x="278.0" y="360" fill="#8b949e" font-size="10" text-anchor="middle" font-family="-apple-system,BlinkMacSystemFont,Segoe UI,Helvetica,Arial,sans-serif">May 12</text>
  <line x1="389.5" y1="50" x2="389.5" y2="340" stroke="#21262d" stroke-width="1" stroke-dasharray="4,4"/>
  <text x="389.5" y="360" fill="#8b949e" font-size="10" text-anchor="middle" font-family="-apple-system,BlinkMacSystemFont,Segoe UI,Helvetica,Arial,sans-serif">May 17</text>
  <line x1="500.9" y1="50" x2="500.9" y2="340" stroke="#21262d" stroke-width="1" stroke-dasharray="4,4"/>
  <text x="500.9" y="360" fill="#8b949e" font-size="10" text-anchor="middle" font-family="-apple-system,BlinkMacSystemFont,Segoe UI,Helvetica,Arial,sans-serif">May 22</text>
  <line x1="612.4" y1="50" x2="612.4" y2="340" stroke="#21262d" stroke-width="1" stroke-dasharray="4,4"/>
  <text x="612.4" y="360" fill="#8b949e" font-size="10" text-anchor="middle" font-family="-apple-system,BlinkMacSystemFont,Segoe UI,Helvetica,Arial,sans-serif">May 27</text>
  <line x1="723.9" y1="50" x2="723.9" y2="340" stroke="#21262d" stroke-width="1" stroke-dasharray="4,4"/>
  <text x="723.9" y="360" fill="#8b949e" font-size="10" text-anchor="middle" font-family="-apple-system,BlinkMacSystemFont,Segoe UI,Helvetica,Arial,sans-serif">Jun 01</text>
  <line x1="835.4" y1="50" x2="835.4" y2="340" stroke="#21262d" stroke-width="1" stroke-dasharray="4,4"/>
  <text x="835.4" y="360" fill="#8b949e" font-size="10" text-anchor="middle" font-family="-apple-system,BlinkMacSystemFont,Segoe UI,Helvetica,Arial,sans-serif">Jun 06</text>
  <line x1="880.0" y1="50" x2="880.0" y2="340" stroke="#21262d" stroke-width="1" stroke-dasharray="4,4"/>
  <text x="880.0" y="360" fill="#8b949e" font-size="10" text-anchor="middle" font-family="-apple-system,BlinkMacSystemFont,Segoe UI,Helvetica,Arial,sans-serif">Jun 08</text>
  <path d="M55.0,340.0L77.3,312.1L99.6,297.0L121.9,288.4L144.2,275.6L166.5,264.8L188.8,258.4L211.1,258.4L233.4,258.4L255.7,258.4L278.0,258.4L300.3,258.4L322.6,258.4L344.9,258.4L367.2,256.2L389.5,247.6L411.8,239.0L434.1,228.3L456.4,215.4L478.6,202.5L500.9,189.6L523.2,178.9L545.5,170.3L567.8,166.0L590.1,159.6L612.4,135.9L634.7,133.8L657.0,120.9L679.3,105.9L701.6,95.1L723.9,86.5L746.2,86.5L768.5,86.5L790.8,86.5L813.1,86.5L835.4,86.5L857.7,73.6L880.0,60.7L880.0,340.0L55.0,340.0Z" fill="url(#gO)"/>
  <path d="M55.0,337.9L77.3,320.7L99.6,309.9L121.9,305.6L144.2,294.9L166.5,286.3L188.8,282.0L211.1,282.0L233.4,282.0L255.7,282.0L278.0,282.0L300.3,282.0L322.6,282.0L344.9,282.0L367.2,279.9L389.5,262.7L411.8,260.5L434.1,260.5L456.4,260.5L478.6,260.5L500.9,260.5L523.2,260.5L545.5,249.8L567.8,234.7L590.1,221.9L612.4,219.7L634.7,219.7L657.0,219.7L679.3,219.7L701.6,219.7L723.9,215.4L746.2,215.4L768.5,215.4L790.8,215.4L813.1,215.4L835.4,215.4L857.7,211.1L880.0,206.8L880.0,340.0L55.0,340.0Z" fill="url(#gR)"/>
  <path d="M55.0,340.0L77.3,312.1L99.6,297.0L121.9,288.4L144.2,275.6L166.5,264.8L188.8,258.4L211.1,258.4L233.4,258.4L255.7,258.4L278.0,258.4L300.3,258.4L322.6,258.4L344.9,258.4L367.2,256.2L389.5,247.6L411.8,239.0L434.1,228.3L456.4,215.4L478.6,202.5L500.9,189.6L523.2,178.9L545.5,170.3L567.8,166.0L590.1,159.6L612.4,135.9L634.7,133.8L657.0,120.9L679.3,105.9L701.6,95.1L723.9,86.5L746.2,86.5L768.5,86.5L790.8,86.5L813.1,86.5L835.4,86.5L857.7,73.6L880.0,60.7" fill="none" stroke="#58a6ff" stroke-width="2.5" stroke-linecap="round" stroke-linejoin="round"/>
  <path d="M55.0,337.9L77.3,320.7L99.6,309.9L121.9,305.6L144.2,294.9L166.5,286.3L188.8,282.0L211.1,282.0L233.4,282.0L255.7,282.0L278.0,282.0L300.3,282.0L322.6,282.0L344.9,282.0L367.2,279.9L389.5,262.7L411.8,260.5L434.1,260.5L456.4,260.5L478.6,260.5L500.9,260.5L523.2,260.5L545.5,249.8L567.8,234.7L590.1,221.9L612.4,219.7L634.7,219.7L657.0,219.7L679.3,219.7L701.6,219.7L723.9,215.4L746.2,215.4L768.5,215.4L790.8,215.4L813.1,215.4L835.4,215.4L857.7,211.1L880.0,206.8" fill="none" stroke="#3fb950" stroke-width="2.5" stroke-linecap="round" stroke-linejoin="round"/>
  <path d="M55.0,340.0L77.3,322.8L99.6,314.2L121.9,309.9L144.2,299.2L166.5,299.2L188.8,292.7L211.1,294.9L233.4,294.9L255.7,297.0L278.0,297.0L300.3,297.0L322.6,297.0L344.9,297.0L367.2,294.9L389.5,292.7L411.8,290.6L434.1,284.1L456.4,271.3L478.6,262.7L500.9,254.1L523.2,247.6L545.5,247.6L567.8,249.8L590.1,254.1L612.4,245.5L634.7,243.3L657.0,241.2L679.3,236.9L701.6,249.8L723.9,243.3L746.2,243.3L768.5,243.3L790.8,243.3L813.1,256.2L835.4,256.2L857.7,254.1L880.0,256.2" fill="none" stroke="#d2a8ff" stroke-width="2.5" stroke-linecap="round" stroke-linejoin="round"/>
  <path d="M55.0,340.0L77.3,340.0L99.6,335.7L121.9,333.6L144.2,333.6L166.5,331.4L188.8,331.4L211.1,329.3L233.4,329.3L255.7,329.3L278.0,329.3L300.3,329.3L322.6,329.3L344.9,329.3L367.2,329.3L389.5,327.1L411.8,322.8L434.1,320.7L456.4,320.7L478.6,320.7L500.9,316.4L523.2,316.4L545.5,316.4L567.8,314.2L590.1,314.2L612.4,301.3L634.7,301.3L657.0,292.7L679.3,284.1L701.6,273.4L723.9,271.3L746.2,271.3L768.5,271.3L790.8,271.3L813.1,267.0L835.4,267.0L857.7,262.7L880.0,256.2" fill="none" stroke="#f78166" stroke-width="2.5" stroke-linecap="round" stroke-linejoin="round"/>
  <path d="M55.0,340.0L77.3,329.3L99.6,327.1L121.9,325.0L144.2,322.8L166.5,314.2L188.8,314.2L211.1,314.2L233.4,314.2L255.7,312.1L278.0,312.1L300.3,312.1L322.6,312.1L344.9,312.1L367.2,312.1L389.5,307.8L411.8,305.6L434.1,303.5L456.4,303.5L478.6,299.2L500.9,299.2L523.2,294.9L545.5,286.3L567.8,282.0L590.1,271.3L612.4,269.1L634.7,269.1L657.0,267.0L679.3,264.8L701.6,251.9L723.9,251.9L746.2,251.9L768.5,251.9L790.8,251.9L813.1,243.3L835.4,243.3L857.7,236.9L880.0,228.3" fill="none" stroke="#f85149" stroke-width="2.5" stroke-linecap="round" stroke-linejoin="round"/>
  <circle cx="880.0" cy="60.7" r="3.5" fill="#58a6ff"/>
  <text x="889.0" y="64.7" fill="#58a6ff" font-size="11" font-weight="600" font-family="-apple-system,BlinkMacSystemFont,Segoe UI,Helvetica,Arial,sans-serif">130</text>
  <circle cx="880.0" cy="206.8" r="3.5" fill="#3fb950"/>
  <text x="889.0" y="210.8" fill="#3fb950" font-size="11" font-weight="600" font-family="-apple-system,BlinkMacSystemFont,Segoe UI,Helvetica,Arial,sans-serif">62</text>
  <circle cx="880.0" cy="256.2" r="3.5" fill="#d2a8ff"/>
  <text x="889.0" y="260.2" fill="#d2a8ff" font-size="11" font-weight="600" font-family="-apple-system,BlinkMacSystemFont,Segoe UI,Helvetica,Arial,sans-serif">39</text>
  <circle cx="880.0" cy="256.2" r="3.5" fill="#f78166"/>
  <text x="889.0" y="260.2" fill="#f78166" font-size="11" font-weight="600" font-family="-apple-system,BlinkMacSystemFont,Segoe UI,Helvetica,Arial,sans-serif">39</text>
  <circle cx="880.0" cy="228.3" r="3.5" fill="#f85149"/>
  <text x="889.0" y="232.3" fill="#f85149" font-size="11" font-weight="600" font-family="-apple-system,BlinkMacSystemFont,Segoe UI,Helvetica,Arial,sans-serif">52</text>
  <line x1="55" y1="368" x2="71" y2="368" stroke="#3fb950" stroke-width="2.5" stroke-linecap="round"/>
  <text x="77" y="372" fill="#8b949e" font-size="11" font-family="-apple-system,BlinkMacSystemFont,Segoe UI,Helvetica,Arial,sans-serif">Repos</text>
  <line x1="255" y1="368" x2="271" y2="368" stroke="#58a6ff" stroke-width="2.5" stroke-linecap="round"/>
  <text x="277" y="372" fill="#8b949e" font-size="11" font-family="-apple-system,BlinkMacSystemFont,Segoe UI,Helvetica,Arial,sans-serif">PRs Opened</text>
  <line x1="455" y1="368" x2="471" y2="368" stroke="#d2a8ff" stroke-width="2.5" stroke-linecap="round"/>
  <text x="477" y="372" fill="#8b949e" font-size="11" font-family="-apple-system,BlinkMacSystemFont,Segoe UI,Helvetica,Arial,sans-serif">Open PRs</text>
  <line x1="55" y1="386" x2="71" y2="386" stroke="#f78166" stroke-width="2.5" stroke-linecap="round"/>
  <text x="77" y="390" fill="#8b949e" font-size="11" font-family="-apple-system,BlinkMacSystemFont,Segoe UI,Helvetica,Arial,sans-serif">Merged</text>
  <line x1="255" y1="386" x2="271" y2="386" stroke="#f85149" stroke-width="2.5" stroke-linecap="round"/>
  <text x="277" y="390" fill="#8b949e" font-size="11" font-family="-apple-system,BlinkMacSystemFont,Segoe UI,Helvetica,Arial,sans-serif">Closed</text>
</svg>