<svg xmlns="http://www.w3.org/2000/svg" viewBox="0 0 960 400" width="960" height="400">
  <defs>
    <linearGradient id="gR" x1="0" y1="0" x2="0" y2="1">
      <stop offset="0%" stop-color="#f78166" stop-opacity="0.25"/>
      <stop offset="100%" stop-color="#f78166" stop-opacity="0.02"/>
    </linearGradient>
    <linearGradient id="gO" x1="0" y1="0" x2="0" y2="1">
      <stop offset="0%" stop-color="#58a6ff" stop-opacity="0.25"/>
      <stop offset="100%" stop-color="#58a6ff" stop-opacity="0.02"/>
    </linearGradient>
    <linearGradient id="gOp" x1="0" y1="0" x2="0" y2="1">
      <stop offset="0%" stop-color="#3fb950" stop-opacity="0.25"/>
      <stop offset="100%" stop-color="#3fb950" stop-opacity="0.02"/>
    </linearGradient>
    <linearGradient id="gM" x1="0" y1="0" x2="0" y2="1">
      <stop offset="0%" stop-color="#d2a8ff" stop-opacity="0.25"/>
      <stop offset="100%" stop-color="#d2a8ff" stop-opacity="0.02"/>
    </linearGradient>
    <linearGradient id="gC" x1="0" y1="0" x2="0" y2="1">
      <stop offset="0%" stop-color="#f85149" stop-opacity="0.25"/>
      <stop offset="100%" stop-color="#f85149" stop-opacity="0.02"/>
    </linearGradient>
  </defs>
  <rect width="960" height="400" rx="12" fill="#0d1117"/>
  <rect width="960" height="400" rx="12" fill="none" stroke="#30363d" stroke-width="1"/>
  <text x="55" y="30" fill="#e6edf3" font-size="15" font-weight="600" font-family="-apple-system,BlinkMacSystemFont,Segoe UI,Helvetica,Arial,sans-serif">GitHub Activity — jlaportebot</text>
  <text x="880" y="30" fill="#8b949e" font-size="11" text-anchor="end" font-family="-apple-system,BlinkMacSystemFont,Segoe UI,Helvetica,Arial,sans-serif">Updated Aug 12, 2026</text>
  <line x1="55" y1="340.0" x2="880" y2="340.0" stroke="#21262d" stroke-width="1"/>
  <text x="47" y="344.0" fill="#8b949e" font-size="11" text-anchor="end" font-family="-apple-system,BlinkMacSystemFont,Segoe UI,Helvetica,Arial,sans-serif">0</text>
  <line x1="55" y1="330.5" x2="880" y2="330.5" stroke="#21262d" stroke-width="1"/>
  <text x="47" y="334.5" fill="#8b949e" font-size="11" text-anchor="end" font-family="-apple-system,BlinkMacSystemFont,Segoe UI,Helvetica,Arial,sans-serif">10</text>
  <line x1="55" y1="320.9" x2="880" y2="320.9" stroke="#21262d" stroke-width="1"/>
  <text x="47" y="324.9" fill="#8b949e" font-size="11" text-anchor="end" font-family="-apple-system,BlinkMacSystemFont,Segoe UI,Helvetica,Arial,sans-serif">20</text>
  <line x1="55" y1="311.4" x2="880" y2="311.4" stroke="#21262d" stroke-width="1"/>
  <text x="47" y="315.4" fill="#8b949e" font-size="11" text-anchor="end" font-family="-apple-system,BlinkMacSystemFont,Segoe UI,Helvetica,Arial,sans-serif">30</text>
  <line x1="55" y1="301.8" x2="880" y2="301.8" stroke="#21262d" stroke-width="1"/>
  <text x="47" y="305.8" fill="#8b949e" font-size="11" text-anchor="end" font-family="-apple-system,BlinkMacSystemFont,Segoe UI,Helvetica,Arial,sans-serif">40</text>
  <line x1="55" y1="292.3" x2="880" y2="292.3" stroke="#21262d" stroke-width="1"/>
  <text x="47" y="296.3" fill="#8b949e" font-size="11" text-anchor="end" font-family="-apple-system,BlinkMacSystemFont,Segoe UI,Helvetica,Arial,sans-serif">50</text>
  <line x1="55" y1="282.8" x2="880" y2="282.8" stroke="#21262d" stroke-width="1"/>
  <text x="47" y="286.8" fill="#8b949e" font-size="11" text-anchor="end" font-family="-apple-system,BlinkMacSystemFont,Segoe UI,Helvetica,Arial,sans-serif">60</text>
  <line x1="55" y1="273.2" x2="880" y2="273.2" stroke="#21262d" stroke-width="1"/>
  <text x="47" y="277.2" fill="#8b949e" font-size="11" text-anchor="end" font-family="-apple-system,BlinkMacSystemFont,Segoe UI,Helvetica,Arial,sans-serif">70</text>
  <line x1="55" y1="263.7" x2="880" y2="263.7" stroke="#21262d" stroke-width="1"/>
  <text x="47" y="267.7" fill="#8b949e" font-size="11" text-anchor="end" font-family="-apple-system,BlinkMacSystemFont,Segoe UI,Helvetica,Arial,sans-serif">80</text>
  <line x1="55" y1="254.1" x2="880" y2="254.1" stroke="#21262d" stroke-width="1"/>
  <text x="47" y="258.1" fill="#8b949e" font-size="11" text-anchor="end" font-family="-apple-system,BlinkMacSystemFont,Segoe UI,Helvetica,Arial,sans-serif">90</text>
  <line x1="55" y1="244.6" x2="880" y2="244.6" stroke="#21262d" stroke-width="1"/>
  <text x="47" y="248.6" fill="#8b949e" font-size="11" text-anchor="end" font-family="-apple-system,BlinkMacSystemFont,Segoe UI,Helvetica,Arial,sans-serif">100</text>
  <line x1="55" y1="235.1" x2="880" y2="235.1" stroke="#21262d" stroke-width="1"/>
  <text x="47" y="239.1" fill="#8b949e" font-size="11" text-anchor="end" font-family="-apple-system,BlinkMacSystemFont,Segoe UI,Helvetica,Arial,sans-serif">110</text>
  <line x1="55" y1="225.5" x2="880" y2="225.5" stroke="#21262d" stroke-width="1"/>
  <text x="47" y="229.5" fill="#8b949e" font-size="11" text-anchor="end" font-family="-apple-system,BlinkMacSystemFont,Segoe UI,Helvetica,Arial,sans-serif">120</text>
  <line x1="55" y1="216.0" x2="880" y2="216.0" stroke="#21262d" stroke-width="1"/>
  <text x="47" y="220.0" fill="#8b949e" font-size="11" text-anchor="end" font-family="-apple-system,BlinkMacSystemFont,Segoe UI,Helvetica,Arial,sans-serif">130</text>
  <line x1="55" y1="206.4" x2="880" y2="206.4" stroke="#21262d" stroke-width="1"/>
  <text x="47" y="210.4" fill="#8b949e" font-size="11" text-anchor="end" font-family="-apple-system,BlinkMacSystemFont,Segoe UI,Helvetica,Arial,sans-serif">140</text>
  <line x1="55" y1="196.9" x2="880" y2="196.9" stroke="#21262d" stroke-width="1"/>
  <text x="47" y="200.9" fill="#8b949e" font-size="11" text-anchor="end" font-family="-apple-system,BlinkMacSystemFont,Segoe UI,Helvetica,Arial,sans-serif">150</text>
  <line x1="55" y1="187.4" x2="880" y2="187.4" stroke="#21262d" stroke-width="1"/>
  <text x="47" y="191.4" fill="#8b949e" font-size="11" text-anchor="end" font-family="-apple-system,BlinkMacSystemFont,Segoe UI,Helvetica,Arial,sans-serif">160</text>
  <line x1="55" y1="177.8" x2="880" y2="177.8" stroke="#21262d" stroke-width="1"/>
  <text x="47" y="181.8" fill="#8b949e" font-size="11" text-anchor="end" font-family="-apple-system,BlinkMacSystemFont,Segoe UI,Helvetica,Arial,sans-serif">170</text>
  <line x1="55" y1="168.3" x2="880" y2="168.3" stroke="#21262d" stroke-width="1"/>
  <text x="47" y="172.3" fill="#8b949e" font-size="11" text-anchor="end" font-family="-apple-system,BlinkMacSystemFont,Segoe UI,Helvetica,Arial,sans-serif">180</text>
  <line x1="55" y1="158.8" x2="880" y2="158.8" stroke="#21262d" stroke-width="1"/>
  <text x="47" y="162.8" fill="#8b949e" font-size="11" text-anchor="end" font-family="-apple-system,BlinkMacSystemFont,Segoe UI,Helvetica,Arial,sans-serif">190</text>
  <line x1="55" y1="149.2" x2="880" y2="149.2" stroke="#21262d" stroke-width="1"/>
  <text x="47" y="153.2" fill="#8b949e" font-size="11" text-anchor="end" font-family="-apple-system,BlinkMacSystemFont,Segoe UI,Helvetica,Arial,sans-serif">200</text>
  <line x1="55" y1="139.7" x2="880" y2="139.7" stroke="#21262d" stroke-width="1"/>
  <text x="47" y="143.7" fill="#8b949e" font-size="11" text-anchor="end" font-family="-apple-system,BlinkMacSystemFont,Segoe UI,Helvetica,Arial,sans-serif">210</text>
  <line x1="55" y1="130.1" x2="880" y2="130.1" stroke="#21262d" stroke-width="1"/>
  <text x="47" y="134.1" fill="#8b949e" font-size="11" text-anchor="end" font-family="-apple-system,BlinkMacSystemFont,Segoe UI,Helvetica,Arial,sans-serif">220</text>
  <line x1="55" y1="120.6" x2="880" y2="120.6" stroke="#21262d" stroke-width="1"/>
  <text x="47" y="124.6" fill="#8b949e" font-size="11" text-anchor="end" font-family="-apple-system,BlinkMacSystemFont,Segoe UI,Helvetica,Arial,sans-serif">230</text>
  <line x1="55" y1="111.1" x2="880" y2="111.1" stroke="#21262d" stroke-width="1"/>
  <text x="47" y="115.1" fill="#8b949e" font-size="11" text-anchor="end" font-family="-apple-system,BlinkMacSystemFont,Segoe UI,Helvetica,Arial,sans-serif">240</text>
  <line x1="55" y1="101.5" x2="880" y2="101.5" stroke="#21262d" stroke-width="1"/>
  <text x="47" y="105.5" fill="#8b949e" font-size="11" text-anchor="end" font-family="-apple-system,BlinkMacSystemFont,Segoe UI,Helvetica,Arial,sans-serif">250</text>
  <line x1="55" y1="92.0" x2="880" y2="92.0" stroke="#21262d" stroke-width="1"/>
  <text x="47" y="96.0" fill="#8b949e" font-size="11" text-anchor="end" font-family="-apple-system,BlinkMacSystemFont,Segoe UI,Helvetica,Arial,sans-serif">260</text>
  <line x1="55" y1="82.4" x2="880" y2="82.4" stroke="#21262d" stroke-width="1"/>
  <text x="47" y="86.4" fill="#8b949e" font-size="11" text-anchor="end" font-family="-apple-system,BlinkMacSystemFont,Segoe UI,Helvetica,Arial,sans-serif">270</text>
  <line x1="55" y1="72.9" x2="880" y2="72.9" stroke="#21262d" stroke-width="1"/>
  <text x="47" y="76.9" fill="#8b949e" font-size="11" text-anchor="end" font-family="-apple-system,BlinkMacSystemFont,Segoe UI,Helvetica,Arial,sans-serif">280</text>
  <line x1="55" y1="63.4" x2="880" y2="63.4" stroke="#21262d" stroke-width="1"/>
  <text x="47" y="67.4" fill="#8b949e" font-size="11" text-anchor="end" font-family="-apple-system,BlinkMacSystemFont,Segoe UI,Helvetica,Arial,sans-serif">290</text>
  <line x1="55" y1="53.8" x2="880" y2="53.8" stroke="#21262d" stroke-width="1"/>
  <text x="47" y="57.8" fill="#8b949e" font-size="11" text-anchor="end" font-family="-apple-system,BlinkMacSystemFont,Segoe UI,Helvetica,Arial,sans-serif">300</text>
  <line x1="55.0" y1="50" x2="55.0" y2="340" stroke="#21262d" stroke-width="1" stroke-dasharray="4,4"/>
  <text x="55.0" y="360" fill="#8b949e" font-size="10" text-anchor="middle" font-family="-apple-system,BlinkMacSystemFont,Segoe UI,Helvetica,Arial,sans-serif">May 02</text>
  <line x1="168.2" y1="50" x2="168.2" y2="340" stroke="#21262d" stroke-width="1" stroke-dasharray="4,4"/>
  <text x="168.2" y="360" fill="#8b949e" font-size="10" text-anchor="middle" font-family="-apple-system,BlinkMacSystemFont,Segoe UI,Helvetica,Arial,sans-serif">May 16</text>
  <line x1="281.5" y1="50" x2="281.5" y2="340" stroke="#21262d" stroke-width="1" stroke-dasharray="4,4"/>
  <text x="281.5" y="360" fill="#8b949e" font-size="10" text-anchor="middle" font-family="-apple-system,BlinkMacSystemFont,Segoe UI,Helvetica,Arial,sans-serif">May 30</text>
  <line x1="394.7" y1="50" x2="394.7" y2="340" stroke="#21262d" stroke-width="1" stroke-dasharray="4,4"/>
  <text x="394.7" y="360" fill="#8b949e" font-size="10" text-anchor="middle" font-family="-apple-system,BlinkMacSystemFont,Segoe UI,Helvetica,Arial,sans-serif">Jun 13</text>
  <line x1="507.9" y1="50" x2="507.9" y2="340" stroke="#21262d" stroke-width="1" stroke-dasharray="4,4"/>
  <text x="507.9" y="360" fill="#8b949e" font-size="10" text-anchor="middle" font-family="-apple-system,BlinkMacSystemFont,Segoe UI,Helvetica,Arial,sans-serif">Jun 27</text>
  <line x1="621.2" y1="50" x2="621.2" y2="340" stroke="#21262d" stroke-width="1" stroke-dasharray="4,4"/>
  <text x="621.2" y="360" fill="#8b949e" font-size="10" text-anchor="middle" font-family="-apple-system,BlinkMacSystemFont,Segoe UI,Helvetica,Arial,sans-serif">Jul 11</text>
  <line x1="734.4" y1="50" x2="734.4" y2="340" stroke="#21262d" stroke-width="1" stroke-dasharray="4,4"/>
  <text x="734.4" y="360" fill="#8b949e" font-size="10" text-anchor="middle" font-family="-apple-system,BlinkMacSystemFont,Segoe UI,Helvetica,Arial,sans-serif">Jul 25</text>
  <line x1="847.6" y1="50" x2="847.6" y2="340" stroke="#21262d" stroke-width="1" stroke-dasharray="4,4"/>
  <text x="847.6" y="360" fill="#8b949e" font-size="10" text-anchor="middle" font-family="-apple-system,BlinkMacSystemFont,Segoe UI,Helvetica,Arial,sans-serif">Aug 08</text>
  <line x1="880.0" y1="50" x2="880.0" y2="340" stroke="#21262d" stroke-width="1" stroke-dasharray="4,4"/>
  <text x="880.0" y="360" fill="#8b949e" font-size="10" text-anchor="middle" font-family="-apple-system,BlinkMacSystemFont,Segoe UI,Helvetica,Arial,sans-serif">Aug 12</text>
  <path d="M55.0,340.0L63.1,328.6L71.2,321.9L79.3,318.1L87.4,312.3L95.4,308.5L103.5,305.7L111.6,305.7L119.7,305.7L127.8,305.7L135.9,305.7L144.0,305.7L152.1,305.7L160.1,305.7L168.2,304.7L176.3,300.9L184.4,297.1L192.5,292.3L200.6,286.6L208.7,280.9L216.8,275.1L224.9,270.4L232.9,266.5L241.0,264.6L249.1,261.8L257.2,251.3L265.3,250.3L273.4,245.6L281.5,238.9L289.6,234.1L297.6,230.3L305.7,230.3L313.8,230.3L321.9,230.3L330.0,230.3L338.1,230.3L346.2,224.6L354.3,216.9L362.4,214.1L370.4,208.4L378.5,204.5L386.6,198.8L394.7,190.2L402.8,185.5L410.9,180.7L419.0,175.9L427.1,167.3L435.1,161.6L443.2,154.0L451.3,148.3L459.4,143.5L467.5,139.7L475.6,133.9L483.7,127.3L491.8,123.5L499.9,120.6L507.9,113.9L516.0,108.2L524.1,100.6L532.2,100.6L540.3,98.7L548.4,98.7L556.5,98.7L564.6,96.7L572.6,93.9L580.7,91.0L588.8,90.1L596.9,85.3L605.0,85.3L613.1,85.3L621.2,85.3L629.3,85.3L637.4,85.3L645.4,85.3L653.5,85.3L661.6,85.3L669.7,85.3L677.8,85.3L685.9,83.4L694.0,83.4L702.1,80.5L710.1,77.7L718.2,77.7L726.3,77.7L734.4,77.7L742.5,77.7L750.6,77.7L758.7,77.7L766.8,77.7L774.9,77.7L782.9,77.7L791.0,77.7L799.1,77.7L807.2,77.7L815.3,77.7L823.4,77.7L831.5,77.7L839.6,73.8L847.6,73.8L855.7,63.4L863.8,54.8L871.9,54.8L880.0,54.8L880.0,340.0L55.0,340.0Z" fill="url(#gO)"/>
  <path d="M55.0,339.0L63.1,339.0L71.2,339.0L79.3,339.0L87.4,339.0L95.4,339.0L103.5,339.0L111.6,339.0L119.7,339.0L127.8,339.0L135.9,339.0L144.0,339.0L152.1,339.0L160.1,339.0L168.2,339.0L176.3,336.2L184.4,336.2L192.5,336.2L200.6,336.2L208.7,336.2L216.8,336.2L224.9,336.2L232.9,335.2L241.0,332.4L249.1,332.4L257.2,331.4L265.3,331.4L273.4,331.4L281.5,331.4L289.6,331.4L297.6,329.5L305.7,329.5L313.8,329.5L321.9,329.5L330.0,329.5L338.1,329.5L346.2,329.5L354.3,327.6L362.4,316.2L370.4,316.2L378.5,316.2L386.6,316.2L394.7,308.5L402.8,308.5L410.9,308.5L419.0,308.5L427.1,308.5L435.1,306.6L443.2,306.6L451.3,305.7L459.4,304.7L467.5,303.8L475.6,302.8L483.7,300.9L491.8,297.1L499.9,296.1L507.9,295.2L516.0,295.2L524.1,295.2L532.2,295.2L540.3,295.2L548.4,295.2L556.5,295.2L564.6,295.2L572.6,295.2L580.7,295.2L588.8,295.2L596.9,295.2L605.0,294.2L613.1,293.3L621.2,290.4L629.3,290.4L637.4,289.4L645.4,289.4L653.5,289.4L661.6,289.4L669.7,289.4L677.8,289.4L685.9,289.4L694.0,289.4L702.1,289.4L710.1,288.5L718.2,288.5L726.3,288.5L734.4,287.5L742.5,286.6L750.6,286.6L758.7,286.6L766.8,286.6L774.9,286.6L782.9,286.6L791.0,286.6L799.1,286.6L807.2,285.6L815.3,285.6L823.4,285.6L831.5,285.6L839.6,285.6L847.6,285.6L855.7,276.1L863.8,273.2L871.9,273.2L880.0,273.2L880.0,340.0L55.0,340.0Z" fill="url(#gR)"/>
  <path d="M55.0,340.0L63.1,328.6L71.2,321.9L79.3,318.1L87.4,312.3L95.4,308.5L103.5,305.7L111.6,305.7L119.7,305.7L127.8,305.7L135.9,305.7L144.0,305.7L152.1,305.7L160.1,305.7L168.2,304.7L176.3,300.9L184.4,297.1L192.5,292.3L200.6,286.6L208.7,280.9L216.8,275.1L224.9,270.4L232.9,266.5L241.0,264.6L249.1,261.8L257.2,251.3L265.3,250.3L273.4,245.6L281.5,238.9L289.6,234.1L297.6,230.3L305.7,230.3L313.8,230.3L321.9,230.3L330.0,230.3L338.1,230.3L346.2,224.6L354.3,216.9L362.4,214.1L370.4,208.4L378.5,204.5L386.6,198.8L394.7,190.2L402.8,185.5L410.9,180.7L419.0,175.9L427.1,167.3L435.1,161.6L443.2,154.0L451.3,148.3L459.4,143.5L467.5,139.7L475.6,133.9L483.7,127.3L491.8,123.5L499.9,120.6L507.9,113.9L516.0,108.2L524.1,100.6L532.2,100.6L540.3,98.7L548.4,98.7L556.5,98.7L564.6,96.7L572.6,93.9L580.7,91.0L588.8,90.1L596.9,85.3L605.0,85.3L613.1,85.3L621.2,85.3L629.3,85.3L637.4,85.3L645.4,85.3L653.5,85.3L661.6,85.3L669.7,85.3L677.8,85.3L685.9,83.4L694.0,83.4L702.1,80.5L710.1,77.7L718.2,77.7L726.3,77.7L734.4,77.7L742.5,77.7L750.6,77.7L758.7,77.7L766.8,77.7L774.9,77.7L782.9,77.7L791.0,77.7L799.1,77.7L807.2,77.7L815.3,77.7L823.4,77.7L831.5,77.7L839.6,73.8L847.6,73.8L855.7,63.4L863.8,54.8L871.9,54.8L880.0,54.8" fill="none" stroke="#58a6ff" stroke-width="2.5" stroke-linecap="round" stroke-linejoin="round"/>
  <path d="M55.0,339.0L63.1,339.0L71.2,339.0L79.3,339.0L87.4,339.0L95.4,339.0L103.5,339.0L111.6,339.0L119.7,339.0L127.8,339.0L135.9,339.0L144.0,339.0L152.1,339.0L160.1,339.0L168.2,339.0L176.3,336.2L184.4,336.2L192.5,336.2L200.6,336.2L208.7,336.2L216.8,336.2L224.9,336.2L232.9,335.2L241.0,332.4L249.1,332.4L257.2,331.4L265.3,331.4L273.4,331.4L281.5,331.4L289.6,331.4L297.6,329.5L305.7,329.5L313.8,329.5L321.9,329.5L330.0,329.5L338.1,329.5L346.2,329.5L354.3,327.6L362.4,316.2L370.4,316.2L378.5,316.2L386.6,316.2L394.7,308.5L402.8,308.5L410.9,308.5L419.0,308.5L427.1,308.5L435.1,306.6L443.2,306.6L451.3,305.7L459.4,304.7L467.5,303.8L475.6,302.8L483.7,300.9L491.8,297.1L499.9,296.1L507.9,295.2L516.0,295.2L524.1,295.2L532.2,295.2L540.3,295.2L548.4,295.2L556.5,295.2L564.6,295.2L572.6,295.2L580.7,295.2L588.8,295.2L596.9,295.2L605.0,294.2L613.1,293.3L621.2,290.4L629.3,290.4L637.4,289.4L645.4,289.4L653.5,289.4L661.6,289.4L669.7,289.4L677.8,289.4L685.9,289.4L694.0,289.4L702.1,289.4L710.1,288.5L718.2,288.5L726.3,288.5L734.4,287.5L742.5,286.6L750.6,286.6L758.7,286.6L766.8,286.6L774.9,286.6L782.9,286.6L791.0,286.6L799.1,286.6L807.2,285.6L815.3,285.6L823.4,285.6L831.5,285.6L839.6,285.6L847.6,285.6L855.7,276.1L863.8,273.2L871.9,273.2L880.0,273.2" fill="none" stroke="#f78166" stroke-width="2.5" stroke-linecap="round" stroke-linejoin="round"/>
  <path d="M55.0,340.0L63.1,333.3L71.2,328.6L79.3,326.6L87.4,321.9L95.4,322.8L103.5,320.0L111.6,320.9L119.7,320.9L127.8,321.9L135.9,321.9L144.0,321.9L152.1,321.9L160.1,321.9L168.2,320.9L176.3,320.0L184.4,319.0L192.5,316.2L200.6,310.4L208.7,306.6L216.8,302.8L224.9,299.9L232.9,299.9L241.0,300.9L249.1,302.8L257.2,299.0L265.3,298.0L273.4,298.0L281.5,295.2L289.6,299.9L297.6,297.1L305.7,297.1L313.8,297.1L321.9,297.1L330.0,302.8L338.1,302.8L346.2,301.8L354.3,306.6L362.4,340.0L370.4,340.0L378.5,340.0L386.6,340.0L394.7,336.2L402.8,336.2L410.9,334.3L419.0,334.3L427.1,333.3L435.1,330.5L443.2,331.4L451.3,329.5L459.4,329.5L467.5,331.4L475.6,330.5L483.7,331.4L491.8,328.6L499.9,329.5L507.9,329.5L516.0,324.7L524.1,321.9L532.2,321.9L540.3,322.8L548.4,325.7L556.5,325.7L564.6,324.7L572.6,323.8L580.7,323.8L588.8,322.8L596.9,320.9L605.0,320.9L613.1,320.9L621.2,320.9L629.3,320.9L637.4,320.9L645.4,320.9L653.5,320.9L661.6,320.9L669.7,320.9L677.8,320.9L685.9,320.9L694.0,320.9L702.1,320.9L710.1,320.9L718.2,320.9L726.3,320.9L734.4,320.9L742.5,320.9L750.6,320.9L758.7,322.8L766.8,322.8L774.9,323.8L782.9,323.8L791.0,323.8L799.1,323.8L807.2,323.8L815.3,323.8L823.4,323.8L831.5,323.8L839.6,326.6L847.6,329.5L855.7,324.7L863.8,326.6L871.9,326.6L880.0,326.6" fill="none" stroke="#3fb950" stroke-width="2.5" stroke-linecap="round" stroke-linejoin="round"/>
  <path d="M55.0,340.0L63.1,340.0L71.2,339.0L79.3,338.1L87.4,338.1L95.4,337.1L103.5,337.1L111.6,336.2L119.7,336.2L127.8,336.2L135.9,336.2L144.0,336.2L152.1,336.2L160.1,336.2L168.2,336.2L176.3,335.2L184.4,333.3L192.5,332.4L200.6,332.4L208.7,332.4L216.8,330.5L224.9,330.5L232.9,330.5L241.0,329.5L249.1,329.5L257.2,323.8L265.3,323.8L273.4,320.0L281.5,317.1L289.6,313.3L297.6,312.3L305.7,312.3L313.8,312.3L321.9,312.3L330.0,310.4L338.1,310.4L346.2,308.5L354.3,305.7L362.4,303.8L370.4,298.0L378.5,294.2L386.6,288.5L394.7,285.6L402.8,281.8L410.9,279.9L419.0,275.1L427.1,267.5L435.1,264.6L443.2,258.9L451.3,256.1L459.4,251.3L467.5,245.6L475.6,240.8L483.7,233.2L491.8,232.2L499.9,230.3L507.9,225.5L516.0,225.5L524.1,220.8L532.2,220.8L540.3,218.8L548.4,218.8L556.5,218.8L564.6,218.8L572.6,217.9L580.7,216.0L588.8,216.0L596.9,214.1L605.0,214.1L613.1,214.1L621.2,214.1L629.3,214.1L637.4,214.1L645.4,214.1L653.5,214.1L661.6,214.1L669.7,214.1L677.8,214.1L685.9,212.2L694.0,212.2L702.1,209.3L710.1,206.4L718.2,206.4L726.3,206.4L734.4,206.4L742.5,206.4L750.6,206.4L758.7,206.4L766.8,206.4L774.9,206.4L782.9,206.4L791.0,206.4L799.1,206.4L807.2,206.4L815.3,206.4L823.4,206.4L831.5,206.4L839.6,205.5L847.6,205.5L855.7,205.5L863.8,201.7L871.9,201.7L880.0,201.7" fill="none" stroke="#d2a8ff" stroke-width="2.5" stroke-linecap="round" stroke-linejoin="round"/>
  <path d="M55.0,340.0L63.1,335.2L71.2,334.3L79.3,333.3L87.4,332.4L95.4,328.6L103.5,328.6L111.6,328.6L119.7,328.6L127.8,327.6L135.9,327.6L144.0,327.6L152.1,327.6L160.1,327.6L168.2,327.6L176.3,325.7L184.4,324.7L192.5,323.8L200.6,323.8L208.7,321.9L216.8,321.9L224.9,320.0L232.9,316.2L241.0,314.2L249.1,309.5L257.2,308.5L265.3,308.5L273.4,307.6L281.5,306.6L289.6,300.9L297.6,300.9L305.7,300.9L313.8,300.9L321.9,300.9L330.0,297.1L338.1,297.1L346.2,294.2L354.3,284.7L362.4,250.3L370.4,250.3L378.5,250.3L386.6,250.3L394.7,248.4L402.8,247.5L410.9,246.5L419.0,246.5L427.1,246.5L435.1,246.5L443.2,243.7L451.3,242.7L459.4,242.7L467.5,242.7L475.6,242.7L483.7,242.7L491.8,242.7L499.9,240.8L507.9,238.9L516.0,237.9L524.1,237.9L532.2,237.9L540.3,237.0L548.4,234.1L556.5,234.1L564.6,233.2L572.6,232.2L580.7,231.2L588.8,231.2L596.9,230.3L605.0,230.3L613.1,230.3L621.2,230.3L629.3,230.3L637.4,230.3L645.4,230.3L653.5,230.3L661.6,230.3L669.7,230.3L677.8,230.3L685.9,230.3L694.0,230.3L702.1,230.3L710.1,230.3L718.2,230.3L726.3,230.3L734.4,230.3L742.5,230.3L750.6,230.3L758.7,228.4L766.8,228.4L774.9,227.4L782.9,227.4L791.0,227.4L799.1,227.4L807.2,227.4L815.3,227.4L823.4,227.4L831.5,227.4L839.6,221.7L847.6,218.8L855.7,213.1L863.8,206.4L871.9,206.4L880.0,206.4" fill="none" stroke="#f85149" stroke-width="2.5" stroke-linecap="round" stroke-linejoin="round"/>
  <circle cx="880.0" cy="54.8" r="3.5" fill="#58a6ff"/>
  <text x="889.0" y="58.8" fill="#58a6ff" font-size="11" font-weight="600" font-family="-apple-system,BlinkMacSystemFont,Segoe UI,Helvetica,Arial,sans-serif">299</text>
  <circle cx="880.0" cy="273.2" r="3.5" fill="#f78166"/>
  <text x="889.0" y="277.2" fill="#f78166" font-size="11" font-weight="600" font-family="-apple-system,BlinkMacSystemFont,Segoe UI,Helvetica,Arial,sans-serif">70</text>
  <circle cx="880.0" cy="326.6" r="3.5" fill="#3fb950"/>
  <text x="889.0" y="330.6" fill="#3fb950" font-size="11" font-weight="600" font-family="-apple-system,BlinkMacSystemFont,Segoe UI,Helvetica,Arial,sans-serif">14</text>
  <circle cx="880.0" cy="201.7" r="3.5" fill="#d2a8ff"/>
  <text x="889.0" y="205.7" fill="#d2a8ff" font-size="11" font-weight="600" font-family="-apple-system,BlinkMacSystemFont,Segoe UI,Helvetica,Arial,sans-serif">145</text>
  <circle cx="880.0" cy="206.4" r="3.5" fill="#f85149"/>
  <text x="889.0" y="210.4" fill="#f85149" font-size="11" font-weight="600" font-family="-apple-system,BlinkMacSystemFont,Segoe UI,Helvetica,Arial,sans-serif">140</text>
  <line x1="55" y1="368" x2="71" y2="368" stroke="#f78166" stroke-width="2.5" stroke-linecap="round"/>
  <text x="77" y="372" fill="#8b949e" font-size="11" font-family="-apple-system,BlinkMacSystemFont,Segoe UI,Helvetica,Arial,sans-serif">Repos</text>
  <line x1="255" y1="368" x2="271" y2="368" stroke="#58a6ff" stroke-width="2.5" stroke-linecap="round"/>
  <text x="277" y="372" fill="#8b949e" font-size="11" font-family="-apple-system,BlinkMacSystemFont,Segoe UI,Helvetica,Arial,sans-serif">PRs Opened</text>
  <line x1="455" y1="368" x2="471" y2="368" stroke="#3fb950" stroke-width="2.5" stroke-linecap="round"/>
  <text x="477" y="372" fill="#8b949e" font-size="11" font-family="-apple-system,BlinkMacSystemFont,Segoe UI,Helvetica,Arial,sans-serif">Open PRs</text>
  <line x1="55" y1="386" x2="71" y2="386" stroke="#d2a8ff" stroke-width="2.5" stroke-linecap="round"/>
  <text x="77" y="390" fill="#8b949e" font-size="11" font-family="-apple-system,BlinkMacSystemFont,Segoe UI,Helvetica,Arial,sans-serif">Merged</text>
  <line x1="255" y1="386" x2="271" y2="386" stroke="#f85149" stroke-width="2.5" stroke-linecap="round"/>
  <text x="277" y="390" fill="#8b949e" font-size="11" font-family="-apple-system,BlinkMacSystemFont,Segoe UI,Helvetica,Arial,sans-serif">Closed</text>
</svg>