<svg xmlns="http://www.w3.org/2000/svg" viewBox="0 0 960 400" width="960" height="400">
  <defs>
    <linearGradient id="gR" x1="0" y1="0" x2="0" y2="1">
      <stop offset="0%" stop-color="#f78166" stop-opacity="0.25"/>
      <stop offset="100%" stop-color="#f78166" stop-opacity="0.02"/>
    </linearGradient>
    <linearGradient id="gO" x1="0" y1="0" x2="0" y2="1">
      <stop offset="0%" stop-color="#58a6ff" stop-opacity="0.25"/>
      <stop offset="100%" stop-color="#58a6ff" stop-opacity="0.02"/>
    </linearGradient>
    <linearGradient id="gOp" x1="0" y1="0" x2="0" y2="1">
      <stop offset="0%" stop-color="#3fb950" stop-opacity="0.25"/>
      <stop offset="100%" stop-color="#3fb950" stop-opacity="0.02"/>
    </linearGradient>
    <linearGradient id="gM" x1="0" y1="0" x2="0" y2="1">
      <stop offset="0%" stop-color="#d2a8ff" stop-opacity="0.25"/>
      <stop offset="100%" stop-color="#d2a8ff" stop-opacity="0.02"/>
    </linearGradient>
    <linearGradient id="gC" x1="0" y1="0" x2="0" y2="1">
      <stop offset="0%" stop-color="#f85149" stop-opacity="0.25"/>
      <stop offset="100%" stop-color="#f85149" stop-opacity="0.02"/>
    </linearGradient>
  </defs>
  <rect width="960" height="400" rx="12" fill="#0d1117"/>
  <rect width="960" height="400" rx="12" fill="none" stroke="#30363d" stroke-width="1"/>
  <text x="55" y="30" fill="#e6edf3" font-size="15" font-weight="600" font-family="-apple-system,BlinkMacSystemFont,Segoe UI,Helvetica,Arial,sans-serif">GitHub Activity — jlaportebot</text>
  <text x="880" y="30" fill="#8b949e" font-size="11" text-anchor="end" font-family="-apple-system,BlinkMacSystemFont,Segoe UI,Helvetica,Arial,sans-serif">Updated Jul 10, 2026</text>
  <line x1="55" y1="340.0" x2="880" y2="340.0" stroke="#21262d" stroke-width="1"/>
  <text x="47" y="344.0" fill="#8b949e" font-size="11" text-anchor="end" font-family="-apple-system,BlinkMacSystemFont,Segoe UI,Helvetica,Arial,sans-serif">0</text>
  <line x1="55" y1="329.3" x2="880" y2="329.3" stroke="#21262d" stroke-width="1"/>
  <text x="47" y="333.3" fill="#8b949e" font-size="11" text-anchor="end" font-family="-apple-system,BlinkMacSystemFont,Segoe UI,Helvetica,Arial,sans-serif">10</text>
  <line x1="55" y1="318.7" x2="880" y2="318.7" stroke="#21262d" stroke-width="1"/>
  <text x="47" y="322.7" fill="#8b949e" font-size="11" text-anchor="end" font-family="-apple-system,BlinkMacSystemFont,Segoe UI,Helvetica,Arial,sans-serif">20</text>
  <line x1="55" y1="308.0" x2="880" y2="308.0" stroke="#21262d" stroke-width="1"/>
  <text x="47" y="312.0" fill="#8b949e" font-size="11" text-anchor="end" font-family="-apple-system,BlinkMacSystemFont,Segoe UI,Helvetica,Arial,sans-serif">30</text>
  <line x1="55" y1="297.4" x2="880" y2="297.4" stroke="#21262d" stroke-width="1"/>
  <text x="47" y="301.4" fill="#8b949e" font-size="11" text-anchor="end" font-family="-apple-system,BlinkMacSystemFont,Segoe UI,Helvetica,Arial,sans-serif">40</text>
  <line x1="55" y1="286.7" x2="880" y2="286.7" stroke="#21262d" stroke-width="1"/>
  <text x="47" y="290.7" fill="#8b949e" font-size="11" text-anchor="end" font-family="-apple-system,BlinkMacSystemFont,Segoe UI,Helvetica,Arial,sans-serif">50</text>
  <line x1="55" y1="276.0" x2="880" y2="276.0" stroke="#21262d" stroke-width="1"/>
  <text x="47" y="280.0" fill="#8b949e" font-size="11" text-anchor="end" font-family="-apple-system,BlinkMacSystemFont,Segoe UI,Helvetica,Arial,sans-serif">60</text>
  <line x1="55" y1="265.4" x2="880" y2="265.4" stroke="#21262d" stroke-width="1"/>
  <text x="47" y="269.4" fill="#8b949e" font-size="11" text-anchor="end" font-family="-apple-system,BlinkMacSystemFont,Segoe UI,Helvetica,Arial,sans-serif">70</text>
  <line x1="55" y1="254.7" x2="880" y2="254.7" stroke="#21262d" stroke-width="1"/>
  <text x="47" y="258.7" fill="#8b949e" font-size="11" text-anchor="end" font-family="-apple-system,BlinkMacSystemFont,Segoe UI,Helvetica,Arial,sans-serif">80</text>
  <line x1="55" y1="244.0" x2="880" y2="244.0" stroke="#21262d" stroke-width="1"/>
  <text x="47" y="248.0" fill="#8b949e" font-size="11" text-anchor="end" font-family="-apple-system,BlinkMacSystemFont,Segoe UI,Helvetica,Arial,sans-serif">90</text>
  <line x1="55" y1="233.4" x2="880" y2="233.4" stroke="#21262d" stroke-width="1"/>
  <text x="47" y="237.4" fill="#8b949e" font-size="11" text-anchor="end" font-family="-apple-system,BlinkMacSystemFont,Segoe UI,Helvetica,Arial,sans-serif">100</text>
  <line x1="55" y1="222.7" x2="880" y2="222.7" stroke="#21262d" stroke-width="1"/>
  <text x="47" y="226.7" fill="#8b949e" font-size="11" text-anchor="end" font-family="-apple-system,BlinkMacSystemFont,Segoe UI,Helvetica,Arial,sans-serif">110</text>
  <line x1="55" y1="212.1" x2="880" y2="212.1" stroke="#21262d" stroke-width="1"/>
  <text x="47" y="216.1" fill="#8b949e" font-size="11" text-anchor="end" font-family="-apple-system,BlinkMacSystemFont,Segoe UI,Helvetica,Arial,sans-serif">120</text>
  <line x1="55" y1="201.4" x2="880" y2="201.4" stroke="#21262d" stroke-width="1"/>
  <text x="47" y="205.4" fill="#8b949e" font-size="11" text-anchor="end" font-family="-apple-system,BlinkMacSystemFont,Segoe UI,Helvetica,Arial,sans-serif">130</text>
  <line x1="55" y1="190.7" x2="880" y2="190.7" stroke="#21262d" stroke-width="1"/>
  <text x="47" y="194.7" fill="#8b949e" font-size="11" text-anchor="end" font-family="-apple-system,BlinkMacSystemFont,Segoe UI,Helvetica,Arial,sans-serif">140</text>
  <line x1="55" y1="180.1" x2="880" y2="180.1" stroke="#21262d" stroke-width="1"/>
  <text x="47" y="184.1" fill="#8b949e" font-size="11" text-anchor="end" font-family="-apple-system,BlinkMacSystemFont,Segoe UI,Helvetica,Arial,sans-serif">150</text>
  <line x1="55" y1="169.4" x2="880" y2="169.4" stroke="#21262d" stroke-width="1"/>
  <text x="47" y="173.4" fill="#8b949e" font-size="11" text-anchor="end" font-family="-apple-system,BlinkMacSystemFont,Segoe UI,Helvetica,Arial,sans-serif">160</text>
  <line x1="55" y1="158.8" x2="880" y2="158.8" stroke="#21262d" stroke-width="1"/>
  <text x="47" y="162.8" fill="#8b949e" font-size="11" text-anchor="end" font-family="-apple-system,BlinkMacSystemFont,Segoe UI,Helvetica,Arial,sans-serif">170</text>
  <line x1="55" y1="148.1" x2="880" y2="148.1" stroke="#21262d" stroke-width="1"/>
  <text x="47" y="152.1" fill="#8b949e" font-size="11" text-anchor="end" font-family="-apple-system,BlinkMacSystemFont,Segoe UI,Helvetica,Arial,sans-serif">180</text>
  <line x1="55" y1="137.4" x2="880" y2="137.4" stroke="#21262d" stroke-width="1"/>
  <text x="47" y="141.4" fill="#8b949e" font-size="11" text-anchor="end" font-family="-apple-system,BlinkMacSystemFont,Segoe UI,Helvetica,Arial,sans-serif">190</text>
  <line x1="55" y1="126.8" x2="880" y2="126.8" stroke="#21262d" stroke-width="1"/>
  <text x="47" y="130.8" fill="#8b949e" font-size="11" text-anchor="end" font-family="-apple-system,BlinkMacSystemFont,Segoe UI,Helvetica,Arial,sans-serif">200</text>
  <line x1="55" y1="116.1" x2="880" y2="116.1" stroke="#21262d" stroke-width="1"/>
  <text x="47" y="120.1" fill="#8b949e" font-size="11" text-anchor="end" font-family="-apple-system,BlinkMacSystemFont,Segoe UI,Helvetica,Arial,sans-serif">210</text>
  <line x1="55" y1="105.4" x2="880" y2="105.4" stroke="#21262d" stroke-width="1"/>
  <text x="47" y="109.4" fill="#8b949e" font-size="11" text-anchor="end" font-family="-apple-system,BlinkMacSystemFont,Segoe UI,Helvetica,Arial,sans-serif">220</text>
  <line x1="55" y1="94.8" x2="880" y2="94.8" stroke="#21262d" stroke-width="1"/>
  <text x="47" y="98.8" fill="#8b949e" font-size="11" text-anchor="end" font-family="-apple-system,BlinkMacSystemFont,Segoe UI,Helvetica,Arial,sans-serif">230</text>
  <line x1="55" y1="84.1" x2="880" y2="84.1" stroke="#21262d" stroke-width="1"/>
  <text x="47" y="88.1" fill="#8b949e" font-size="11" text-anchor="end" font-family="-apple-system,BlinkMacSystemFont,Segoe UI,Helvetica,Arial,sans-serif">240</text>
  <line x1="55" y1="73.5" x2="880" y2="73.5" stroke="#21262d" stroke-width="1"/>
  <text x="47" y="77.5" fill="#8b949e" font-size="11" text-anchor="end" font-family="-apple-system,BlinkMacSystemFont,Segoe UI,Helvetica,Arial,sans-serif">250</text>
  <line x1="55" y1="62.8" x2="880" y2="62.8" stroke="#21262d" stroke-width="1"/>
  <text x="47" y="66.8" fill="#8b949e" font-size="11" text-anchor="end" font-family="-apple-system,BlinkMacSystemFont,Segoe UI,Helvetica,Arial,sans-serif">260</text>
  <line x1="55" y1="52.1" x2="880" y2="52.1" stroke="#21262d" stroke-width="1"/>
  <text x="47" y="56.1" fill="#8b949e" font-size="11" text-anchor="end" font-family="-apple-system,BlinkMacSystemFont,Segoe UI,Helvetica,Arial,sans-serif">270</text>
  <line x1="55.0" y1="50" x2="55.0" y2="340" stroke="#21262d" stroke-width="1" stroke-dasharray="4,4"/>
  <text x="55.0" y="360" fill="#8b949e" font-size="10" text-anchor="middle" font-family="-apple-system,BlinkMacSystemFont,Segoe UI,Helvetica,Arial,sans-serif">May 02</text>
  <line x1="174.6" y1="50" x2="174.6" y2="340" stroke="#21262d" stroke-width="1" stroke-dasharray="4,4"/>
  <text x="174.6" y="360" fill="#8b949e" font-size="10" text-anchor="middle" font-family="-apple-system,BlinkMacSystemFont,Segoe UI,Helvetica,Arial,sans-serif">May 12</text>
  <line x1="294.1" y1="50" x2="294.1" y2="340" stroke="#21262d" stroke-width="1" stroke-dasharray="4,4"/>
  <text x="294.1" y="360" fill="#8b949e" font-size="10" text-anchor="middle" font-family="-apple-system,BlinkMacSystemFont,Segoe UI,Helvetica,Arial,sans-serif">May 22</text>
  <line x1="413.7" y1="50" x2="413.7" y2="340" stroke="#21262d" stroke-width="1" stroke-dasharray="4,4"/>
  <text x="413.7" y="360" fill="#8b949e" font-size="10" text-anchor="middle" font-family="-apple-system,BlinkMacSystemFont,Segoe UI,Helvetica,Arial,sans-serif">Jun 01</text>
  <line x1="533.3" y1="50" x2="533.3" y2="340" stroke="#21262d" stroke-width="1" stroke-dasharray="4,4"/>
  <text x="533.3" y="360" fill="#8b949e" font-size="10" text-anchor="middle" font-family="-apple-system,BlinkMacSystemFont,Segoe UI,Helvetica,Arial,sans-serif">Jun 11</text>
  <line x1="652.8" y1="50" x2="652.8" y2="340" stroke="#21262d" stroke-width="1" stroke-dasharray="4,4"/>
  <text x="652.8" y="360" fill="#8b949e" font-size="10" text-anchor="middle" font-family="-apple-system,BlinkMacSystemFont,Segoe UI,Helvetica,Arial,sans-serif">Jun 21</text>
  <line x1="772.4" y1="50" x2="772.4" y2="340" stroke="#21262d" stroke-width="1" stroke-dasharray="4,4"/>
  <text x="772.4" y="360" fill="#8b949e" font-size="10" text-anchor="middle" font-family="-apple-system,BlinkMacSystemFont,Segoe UI,Helvetica,Arial,sans-serif">Jul 01</text>
  <line x1="880.0" y1="50" x2="880.0" y2="340" stroke="#21262d" stroke-width="1" stroke-dasharray="4,4"/>
  <text x="880.0" y="360" fill="#8b949e" font-size="10" text-anchor="middle" font-family="-apple-system,BlinkMacSystemFont,Segoe UI,Helvetica,Arial,sans-serif">Jul 10</text>
  <path d="M55.0,340.0L67.0,327.2L78.9,319.7L90.9,315.5L102.8,309.1L114.8,304.8L126.7,301.6L138.7,301.6L150.7,301.6L162.6,301.6L174.6,301.6L186.5,301.6L198.5,301.6L210.4,301.6L222.4,300.6L234.3,296.3L246.3,292.0L258.3,286.7L270.2,280.3L282.2,273.9L294.1,267.5L306.1,262.2L318.0,257.9L330.0,255.8L342.0,252.6L353.9,240.8L365.9,239.8L377.8,234.4L389.8,227.0L401.7,221.7L413.7,217.4L425.7,217.4L437.6,217.4L449.6,217.4L461.5,217.4L473.5,217.4L485.4,211.0L497.4,202.5L509.3,199.3L521.3,192.9L533.3,188.6L545.2,182.2L557.2,172.6L569.1,167.3L581.1,161.9L593.0,156.6L605.0,147.0L617.0,140.6L628.9,132.1L640.9,125.7L652.8,120.4L664.8,116.1L676.7,109.7L688.7,102.2L700.7,98.0L712.6,94.8L724.6,87.3L736.5,80.9L748.5,72.4L760.4,72.4L772.4,70.3L784.3,70.3L796.3,70.3L808.3,68.1L820.2,64.9L832.2,61.7L844.1,60.7L856.1,55.3L868.0,55.3L880.0,55.3L880.0,340.0L55.0,340.0Z" fill="url(#gO)"/>
  <path d="M55.0,338.9L67.0,338.9L78.9,338.9L90.9,338.9L102.8,338.9L114.8,338.9L126.7,338.9L138.7,338.9L150.7,338.9L162.6,338.9L174.6,338.9L186.5,338.9L198.5,338.9L210.4,338.9L222.4,338.9L234.3,335.7L246.3,335.7L258.3,335.7L270.2,335.7L282.2,335.7L294.1,335.7L306.1,335.7L318.0,334.7L330.0,331.5L342.0,331.5L353.9,330.4L365.9,330.4L377.8,330.4L389.8,330.4L401.7,330.4L413.7,328.3L425.7,328.3L437.6,328.3L449.6,328.3L461.5,328.3L473.5,328.3L485.4,328.3L497.4,326.1L509.3,313.3L521.3,313.3L533.3,313.3L545.2,313.3L557.2,304.8L569.1,304.8L581.1,304.8L593.0,304.8L605.0,304.8L617.0,302.7L628.9,302.7L640.9,301.6L652.8,300.6L664.8,299.5L676.7,298.4L688.7,296.3L700.7,292.0L712.6,291.0L724.6,289.9L736.5,289.9L748.5,289.9L760.4,289.9L772.4,289.9L784.3,289.9L796.3,289.9L808.3,289.9L820.2,289.9L832.2,289.9L844.1,289.9L856.1,289.9L868.0,288.8L880.0,288.8L880.0,340.0L55.0,340.0Z" fill="url(#gR)"/>
  <path d="M55.0,340.0L67.0,327.2L78.9,319.7L90.9,315.5L102.8,309.1L114.8,304.8L126.7,301.6L138.7,301.6L150.7,301.6L162.6,301.6L174.6,301.6L186.5,301.6L198.5,301.6L210.4,301.6L222.4,300.6L234.3,296.3L246.3,292.0L258.3,286.7L270.2,280.3L282.2,273.9L294.1,267.5L306.1,262.2L318.0,257.9L330.0,255.8L342.0,252.6L353.9,240.8L365.9,239.8L377.8,234.4L389.8,227.0L401.7,221.7L413.7,217.4L425.7,217.4L437.6,217.4L449.6,217.4L461.5,217.4L473.5,217.4L485.4,211.0L497.4,202.5L509.3,199.3L521.3,192.9L533.3,188.6L545.2,182.2L557.2,172.6L569.1,167.3L581.1,161.9L593.0,156.6L605.0,147.0L617.0,140.6L628.9,132.1L640.9,125.7L652.8,120.4L664.8,116.1L676.7,109.7L688.7,102.2L700.7,98.0L712.6,94.8L724.6,87.3L736.5,80.9L748.5,72.4L760.4,72.4L772.4,70.3L784.3,70.3L796.3,70.3L808.3,68.1L820.2,64.9L832.2,61.7L844.1,60.7L856.1,55.3L868.0,55.3L880.0,55.3" fill="none" stroke="#58a6ff" stroke-width="2.5" stroke-linecap="round" stroke-linejoin="round"/>
  <path d="M55.0,338.9L67.0,338.9L78.9,338.9L90.9,338.9L102.8,338.9L114.8,338.9L126.7,338.9L138.7,338.9L150.7,338.9L162.6,338.9L174.6,338.9L186.5,338.9L198.5,338.9L210.4,338.9L222.4,338.9L234.3,335.7L246.3,335.7L258.3,335.7L270.2,335.7L282.2,335.7L294.1,335.7L306.1,335.7L318.0,334.7L330.0,331.5L342.0,331.5L353.9,330.4L365.9,330.4L377.8,330.4L389.8,330.4L401.7,330.4L413.7,328.3L425.7,328.3L437.6,328.3L449.6,328.3L461.5,328.3L473.5,328.3L485.4,328.3L497.4,326.1L509.3,313.3L521.3,313.3L533.3,313.3L545.2,313.3L557.2,304.8L569.1,304.8L581.1,304.8L593.0,304.8L605.0,304.8L617.0,302.7L628.9,302.7L640.9,301.6L652.8,300.6L664.8,299.5L676.7,298.4L688.7,296.3L700.7,292.0L712.6,291.0L724.6,289.9L736.5,289.9L748.5,289.9L760.4,289.9L772.4,289.9L784.3,289.9L796.3,289.9L808.3,289.9L820.2,289.9L832.2,289.9L844.1,289.9L856.1,289.9L868.0,288.8L880.0,288.8" fill="none" stroke="#f78166" stroke-width="2.5" stroke-linecap="round" stroke-linejoin="round"/>
  <path d="M55.0,340.0L67.0,332.5L78.9,327.2L90.9,325.1L102.8,319.7L114.8,320.8L126.7,317.6L138.7,318.7L150.7,318.7L162.6,319.7L174.6,319.7L186.5,319.7L198.5,319.7L210.4,319.7L222.4,318.7L234.3,317.6L246.3,316.5L258.3,313.3L270.2,306.9L282.2,302.7L294.1,298.4L306.1,295.2L318.0,295.2L330.0,296.3L342.0,298.4L353.9,294.2L365.9,293.1L377.8,293.1L389.8,289.9L401.7,295.2L413.7,292.0L425.7,292.0L437.6,292.0L449.6,292.0L461.5,298.4L473.5,298.4L485.4,297.4L497.4,302.7L509.3,340.0L521.3,340.0L533.3,340.0L545.2,340.0L557.2,335.7L569.1,335.7L581.1,333.6L593.0,333.6L605.0,332.5L617.0,329.3L628.9,330.4L640.9,328.3L652.8,328.3L664.8,330.4L676.7,329.3L688.7,330.4L700.7,327.2L712.6,328.3L724.6,328.3L736.5,322.9L748.5,319.7L760.4,319.7L772.4,320.8L784.3,324.0L796.3,324.0L808.3,322.9L820.2,321.9L832.2,321.9L844.1,320.8L856.1,318.7L868.0,318.7L880.0,318.7" fill="none" stroke="#3fb950" stroke-width="2.5" stroke-linecap="round" stroke-linejoin="round"/>
  <path d="M55.0,340.0L67.0,340.0L78.9,338.9L90.9,337.9L102.8,337.9L114.8,336.8L126.7,336.8L138.7,335.7L150.7,335.7L162.6,335.7L174.6,335.7L186.5,335.7L198.5,335.7L210.4,335.7L222.4,335.7L234.3,334.7L246.3,332.5L258.3,331.5L270.2,331.5L282.2,331.5L294.1,329.3L306.1,329.3L318.0,329.3L330.0,328.3L342.0,328.3L353.9,321.9L365.9,321.9L377.8,317.6L389.8,314.4L401.7,310.1L413.7,309.1L425.7,309.1L437.6,309.1L449.6,309.1L461.5,306.9L473.5,306.9L485.4,304.8L497.4,301.6L509.3,299.5L521.3,293.1L533.3,288.8L545.2,282.4L557.2,279.2L569.1,275.0L581.1,272.8L593.0,267.5L605.0,259.0L617.0,255.8L628.9,249.4L640.9,246.2L652.8,240.8L664.8,234.4L676.7,229.1L688.7,220.6L700.7,219.5L712.6,217.4L724.6,212.1L736.5,212.1L748.5,206.7L760.4,206.7L772.4,204.6L784.3,204.6L796.3,204.6L808.3,204.6L820.2,203.5L832.2,201.4L844.1,201.4L856.1,199.3L868.0,199.3L880.0,199.3" fill="none" stroke="#d2a8ff" stroke-width="2.5" stroke-linecap="round" stroke-linejoin="round"/>
  <path d="M55.0,340.0L67.0,334.7L78.9,333.6L90.9,332.5L102.8,331.5L114.8,327.2L126.7,327.2L138.7,327.2L150.7,327.2L162.6,326.1L174.6,326.1L186.5,326.1L198.5,326.1L210.4,326.1L222.4,326.1L234.3,324.0L246.3,322.9L258.3,321.9L270.2,321.9L282.2,319.7L294.1,319.7L306.1,317.6L318.0,313.3L330.0,311.2L342.0,305.9L353.9,304.8L365.9,304.8L377.8,303.8L389.8,302.7L401.7,296.3L413.7,296.3L425.7,296.3L437.6,296.3L449.6,296.3L461.5,292.0L473.5,292.0L485.4,288.8L497.4,278.2L509.3,239.8L521.3,239.8L533.3,239.8L545.2,239.8L557.2,237.6L569.1,236.6L581.1,235.5L593.0,235.5L605.0,235.5L617.0,235.5L628.9,232.3L640.9,231.2L652.8,231.2L664.8,231.2L676.7,231.2L688.7,231.2L700.7,231.2L712.6,229.1L724.6,227.0L736.5,225.9L748.5,225.9L760.4,225.9L772.4,224.9L784.3,221.7L796.3,221.7L808.3,220.6L820.2,219.5L832.2,218.5L844.1,218.5L856.1,217.4L868.0,217.4L880.0,217.4" fill="none" stroke="#f85149" stroke-width="2.5" stroke-linecap="round" stroke-linejoin="round"/>
  <circle cx="880.0" cy="55.3" r="3.5" fill="#58a6ff"/>
  <text x="889.0" y="59.3" fill="#58a6ff" font-size="11" font-weight="600" font-family="-apple-system,BlinkMacSystemFont,Segoe UI,Helvetica,Arial,sans-serif">267</text>
  <circle cx="880.0" cy="288.8" r="3.5" fill="#f78166"/>
  <text x="889.0" y="292.8" fill="#f78166" font-size="11" font-weight="600" font-family="-apple-system,BlinkMacSystemFont,Segoe UI,Helvetica,Arial,sans-serif">48</text>
  <circle cx="880.0" cy="318.7" r="3.5" fill="#3fb950"/>
  <text x="889.0" y="322.7" fill="#3fb950" font-size="11" font-weight="600" font-family="-apple-system,BlinkMacSystemFont,Segoe UI,Helvetica,Arial,sans-serif">20</text>
  <circle cx="880.0" cy="199.3" r="3.5" fill="#d2a8ff"/>
  <text x="889.0" y="203.3" fill="#d2a8ff" font-size="11" font-weight="600" font-family="-apple-system,BlinkMacSystemFont,Segoe UI,Helvetica,Arial,sans-serif">132</text>
  <circle cx="880.0" cy="217.4" r="3.5" fill="#f85149"/>
  <text x="889.0" y="221.4" fill="#f85149" font-size="11" font-weight="600" font-family="-apple-system,BlinkMacSystemFont,Segoe UI,Helvetica,Arial,sans-serif">115</text>
  <line x1="55" y1="368" x2="71" y2="368" stroke="#f78166" stroke-width="2.5" stroke-linecap="round"/>
  <text x="77" y="372" fill="#8b949e" font-size="11" font-family="-apple-system,BlinkMacSystemFont,Segoe UI,Helvetica,Arial,sans-serif">Repos</text>
  <line x1="255" y1="368" x2="271" y2="368" stroke="#58a6ff" stroke-width="2.5" stroke-linecap="round"/>
  <text x="277" y="372" fill="#8b949e" font-size="11" font-family="-apple-system,BlinkMacSystemFont,Segoe UI,Helvetica,Arial,sans-serif">PRs Opened</text>
  <line x1="455" y1="368" x2="471" y2="368" stroke="#3fb950" stroke-width="2.5" stroke-linecap="round"/>
  <text x="477" y="372" fill="#8b949e" font-size="11" font-family="-apple-system,BlinkMacSystemFont,Segoe UI,Helvetica,Arial,sans-serif">Open PRs</text>
  <line x1="55" y1="386" x2="71" y2="386" stroke="#d2a8ff" stroke-width="2.5" stroke-linecap="round"/>
  <text x="77" y="390" fill="#8b949e" font-size="11" font-family="-apple-system,BlinkMacSystemFont,Segoe UI,Helvetica,Arial,sans-serif">Merged</text>
  <line x1="255" y1="386" x2="271" y2="386" stroke="#f85149" stroke-width="2.5" stroke-linecap="round"/>
  <text x="277" y="390" fill="#8b949e" font-size="11" font-family="-apple-system,BlinkMacSystemFont,Segoe UI,Helvetica,Arial,sans-serif">Closed</text>
</svg>