<svg xmlns="http://www.w3.org/2000/svg" viewBox="0 0 960 400" width="960" height="400">
  <defs>
    <linearGradient id="gR" x1="0" y1="0" x2="0" y2="1">
      <stop offset="0%" stop-color="#3fb950" stop-opacity="0.25"/>
      <stop offset="100%" stop-color="#3fb950" stop-opacity="0.02"/>
    </linearGradient>
    <linearGradient id="gO" x1="0" y1="0" x2="0" y2="1">
      <stop offset="0%" stop-color="#58a6ff" stop-opacity="0.25"/>
      <stop offset="100%" stop-color="#58a6ff" stop-opacity="0.02"/>
    </linearGradient>
    <linearGradient id="gOp" x1="0" y1="0" x2="0" y2="1">
      <stop offset="0%" stop-color="#d2a8ff" stop-opacity="0.25"/>
      <stop offset="100%" stop-color="#d2a8ff" stop-opacity="0.02"/>
    </linearGradient>
    <linearGradient id="gM" x1="0" y1="0" x2="0" y2="1">
      <stop offset="0%" stop-color="#f78166" stop-opacity="0.25"/>
      <stop offset="100%" stop-color="#f78166" stop-opacity="0.02"/>
    </linearGradient>
    <linearGradient id="gC" x1="0" y1="0" x2="0" y2="1">
      <stop offset="0%" stop-color="#f85149" stop-opacity="0.25"/>
      <stop offset="100%" stop-color="#f85149" stop-opacity="0.02"/>
    </linearGradient>
  </defs>
  <rect width="960" height="400" rx="12" fill="#0d1117"/>
  <rect width="960" height="400" rx="12" fill="none" stroke="#30363d" stroke-width="1"/>
  <text x="55" y="30" fill="#e6edf3" font-size="15" font-weight="600" font-family="-apple-system,BlinkMacSystemFont,Segoe UI,Helvetica,Arial,sans-serif">GitHub Activity — jlaportebot</text>
  <text x="880" y="30" fill="#8b949e" font-size="11" text-anchor="end" font-family="-apple-system,BlinkMacSystemFont,Segoe UI,Helvetica,Arial,sans-serif">Updated Jun 14, 2026</text>
  <line x1="55" y1="340.0" x2="880" y2="340.0" stroke="#21262d" stroke-width="1"/>
  <text x="47" y="344.0" fill="#8b949e" font-size="11" text-anchor="end" font-family="-apple-system,BlinkMacSystemFont,Segoe UI,Helvetica,Arial,sans-serif">0</text>
  <line x1="55" y1="322.1" x2="880" y2="322.1" stroke="#21262d" stroke-width="1"/>
  <text x="47" y="326.1" fill="#8b949e" font-size="11" text-anchor="end" font-family="-apple-system,BlinkMacSystemFont,Segoe UI,Helvetica,Arial,sans-serif">10</text>
  <line x1="55" y1="304.2" x2="880" y2="304.2" stroke="#21262d" stroke-width="1"/>
  <text x="47" y="308.2" fill="#8b949e" font-size="11" text-anchor="end" font-family="-apple-system,BlinkMacSystemFont,Segoe UI,Helvetica,Arial,sans-serif">20</text>
  <line x1="55" y1="286.3" x2="880" y2="286.3" stroke="#21262d" stroke-width="1"/>
  <text x="47" y="290.3" fill="#8b949e" font-size="11" text-anchor="end" font-family="-apple-system,BlinkMacSystemFont,Segoe UI,Helvetica,Arial,sans-serif">30</text>
  <line x1="55" y1="268.4" x2="880" y2="268.4" stroke="#21262d" stroke-width="1"/>
  <text x="47" y="272.4" fill="#8b949e" font-size="11" text-anchor="end" font-family="-apple-system,BlinkMacSystemFont,Segoe UI,Helvetica,Arial,sans-serif">40</text>
  <line x1="55" y1="250.5" x2="880" y2="250.5" stroke="#21262d" stroke-width="1"/>
  <text x="47" y="254.5" fill="#8b949e" font-size="11" text-anchor="end" font-family="-apple-system,BlinkMacSystemFont,Segoe UI,Helvetica,Arial,sans-serif">50</text>
  <line x1="55" y1="232.6" x2="880" y2="232.6" stroke="#21262d" stroke-width="1"/>
  <text x="47" y="236.6" fill="#8b949e" font-size="11" text-anchor="end" font-family="-apple-system,BlinkMacSystemFont,Segoe UI,Helvetica,Arial,sans-serif">60</text>
  <line x1="55" y1="214.7" x2="880" y2="214.7" stroke="#21262d" stroke-width="1"/>
  <text x="47" y="218.7" fill="#8b949e" font-size="11" text-anchor="end" font-family="-apple-system,BlinkMacSystemFont,Segoe UI,Helvetica,Arial,sans-serif">70</text>
  <line x1="55" y1="196.8" x2="880" y2="196.8" stroke="#21262d" stroke-width="1"/>
  <text x="47" y="200.8" fill="#8b949e" font-size="11" text-anchor="end" font-family="-apple-system,BlinkMacSystemFont,Segoe UI,Helvetica,Arial,sans-serif">80</text>
  <line x1="55" y1="178.9" x2="880" y2="178.9" stroke="#21262d" stroke-width="1"/>
  <text x="47" y="182.9" fill="#8b949e" font-size="11" text-anchor="end" font-family="-apple-system,BlinkMacSystemFont,Segoe UI,Helvetica,Arial,sans-serif">90</text>
  <line x1="55" y1="161.0" x2="880" y2="161.0" stroke="#21262d" stroke-width="1"/>
  <text x="47" y="165.0" fill="#8b949e" font-size="11" text-anchor="end" font-family="-apple-system,BlinkMacSystemFont,Segoe UI,Helvetica,Arial,sans-serif">100</text>
  <line x1="55" y1="143.1" x2="880" y2="143.1" stroke="#21262d" stroke-width="1"/>
  <text x="47" y="147.1" fill="#8b949e" font-size="11" text-anchor="end" font-family="-apple-system,BlinkMacSystemFont,Segoe UI,Helvetica,Arial,sans-serif">110</text>
  <line x1="55" y1="125.2" x2="880" y2="125.2" stroke="#21262d" stroke-width="1"/>
  <text x="47" y="129.2" fill="#8b949e" font-size="11" text-anchor="end" font-family="-apple-system,BlinkMacSystemFont,Segoe UI,Helvetica,Arial,sans-serif">120</text>
  <line x1="55" y1="107.3" x2="880" y2="107.3" stroke="#21262d" stroke-width="1"/>
  <text x="47" y="111.3" fill="#8b949e" font-size="11" text-anchor="end" font-family="-apple-system,BlinkMacSystemFont,Segoe UI,Helvetica,Arial,sans-serif">130</text>
  <line x1="55" y1="89.4" x2="880" y2="89.4" stroke="#21262d" stroke-width="1"/>
  <text x="47" y="93.4" fill="#8b949e" font-size="11" text-anchor="end" font-family="-apple-system,BlinkMacSystemFont,Segoe UI,Helvetica,Arial,sans-serif">140</text>
  <line x1="55" y1="71.5" x2="880" y2="71.5" stroke="#21262d" stroke-width="1"/>
  <text x="47" y="75.5" fill="#8b949e" font-size="11" text-anchor="end" font-family="-apple-system,BlinkMacSystemFont,Segoe UI,Helvetica,Arial,sans-serif">150</text>
  <line x1="55" y1="53.6" x2="880" y2="53.6" stroke="#21262d" stroke-width="1"/>
  <text x="47" y="57.6" fill="#8b949e" font-size="11" text-anchor="end" font-family="-apple-system,BlinkMacSystemFont,Segoe UI,Helvetica,Arial,sans-serif">160</text>
  <line x1="55.0" y1="50" x2="55.0" y2="340" stroke="#21262d" stroke-width="1" stroke-dasharray="4,4"/>
  <text x="55.0" y="360" fill="#8b949e" font-size="10" text-anchor="middle" font-family="-apple-system,BlinkMacSystemFont,Segoe UI,Helvetica,Arial,sans-serif">May 02</text>
  <line x1="170.1" y1="50" x2="170.1" y2="340" stroke="#21262d" stroke-width="1" stroke-dasharray="4,4"/>
  <text x="170.1" y="360" fill="#8b949e" font-size="10" text-anchor="middle" font-family="-apple-system,BlinkMacSystemFont,Segoe UI,Helvetica,Arial,sans-serif">May 08</text>
  <line x1="285.2" y1="50" x2="285.2" y2="340" stroke="#21262d" stroke-width="1" stroke-dasharray="4,4"/>
  <text x="285.2" y="360" fill="#8b949e" font-size="10" text-anchor="middle" font-family="-apple-system,BlinkMacSystemFont,Segoe UI,Helvetica,Arial,sans-serif">May 14</text>
  <line x1="400.3" y1="50" x2="400.3" y2="340" stroke="#21262d" stroke-width="1" stroke-dasharray="4,4"/>
  <text x="400.3" y="360" fill="#8b949e" font-size="10" text-anchor="middle" font-family="-apple-system,BlinkMacSystemFont,Segoe UI,Helvetica,Arial,sans-serif">May 20</text>
  <line x1="515.5" y1="50" x2="515.5" y2="340" stroke="#21262d" stroke-width="1" stroke-dasharray="4,4"/>
  <text x="515.5" y="360" fill="#8b949e" font-size="10" text-anchor="middle" font-family="-apple-system,BlinkMacSystemFont,Segoe UI,Helvetica,Arial,sans-serif">May 26</text>
  <line x1="630.6" y1="50" x2="630.6" y2="340" stroke="#21262d" stroke-width="1" stroke-dasharray="4,4"/>
  <text x="630.6" y="360" fill="#8b949e" font-size="10" text-anchor="middle" font-family="-apple-system,BlinkMacSystemFont,Segoe UI,Helvetica,Arial,sans-serif">Jun 01</text>
  <line x1="745.7" y1="50" x2="745.7" y2="340" stroke="#21262d" stroke-width="1" stroke-dasharray="4,4"/>
  <text x="745.7" y="360" fill="#8b949e" font-size="10" text-anchor="middle" font-family="-apple-system,BlinkMacSystemFont,Segoe UI,Helvetica,Arial,sans-serif">Jun 07</text>
  <line x1="860.8" y1="50" x2="860.8" y2="340" stroke="#21262d" stroke-width="1" stroke-dasharray="4,4"/>
  <text x="860.8" y="360" fill="#8b949e" font-size="10" text-anchor="middle" font-family="-apple-system,BlinkMacSystemFont,Segoe UI,Helvetica,Arial,sans-serif">Jun 13</text>
  <line x1="880.0" y1="50" x2="880.0" y2="340" stroke="#21262d" stroke-width="1" stroke-dasharray="4,4"/>
  <text x="880.0" y="360" fill="#8b949e" font-size="10" text-anchor="middle" font-family="-apple-system,BlinkMacSystemFont,Segoe UI,Helvetica,Arial,sans-serif">Jun 14</text>
  <path d="M55.0,340.0L74.2,318.5L93.4,306.0L112.6,298.8L131.7,288.1L150.9,280.9L170.1,275.6L189.3,275.6L208.5,275.6L227.7,275.6L246.9,275.6L266.0,275.6L285.2,275.6L304.4,275.6L323.6,273.8L342.8,266.6L362.0,259.4L381.2,250.5L400.3,239.8L419.5,229.0L438.7,218.3L457.9,209.3L477.1,202.2L496.3,198.6L515.5,193.2L534.7,173.5L553.8,171.7L573.0,162.8L592.2,150.2L611.4,141.3L630.6,134.1L649.8,134.1L669.0,134.1L688.1,134.1L707.3,134.1L726.5,134.1L745.7,123.4L764.9,109.1L784.1,103.7L803.3,93.0L822.4,85.8L841.6,75.1L860.8,59.0L880.0,59.0L880.0,340.0L55.0,340.0Z" fill="url(#gO)"/>
  <path d="M55.0,338.2L74.2,338.2L93.4,338.2L112.6,338.2L131.7,338.2L150.9,338.2L170.1,338.2L189.3,338.2L208.5,338.2L227.7,338.2L246.9,338.2L266.0,338.2L285.2,338.2L304.4,338.2L323.6,338.2L342.8,332.8L362.0,332.8L381.2,332.8L400.3,332.8L419.5,332.8L438.7,332.8L457.9,332.8L477.1,331.0L496.3,325.7L515.5,325.7L534.7,323.9L553.8,323.9L573.0,323.9L592.2,323.9L611.4,323.9L630.6,320.3L649.8,320.3L669.0,320.3L688.1,320.3L707.3,320.3L726.5,320.3L745.7,320.3L764.9,316.7L784.1,295.2L803.3,295.2L822.4,295.2L841.6,295.2L860.8,280.9L880.0,280.9L880.0,340.0L55.0,340.0Z" fill="url(#gR)"/>
  <path d="M55.0,340.0L74.2,318.5L93.4,306.0L112.6,298.8L131.7,288.1L150.9,280.9L170.1,275.6L189.3,275.6L208.5,275.6L227.7,275.6L246.9,275.6L266.0,275.6L285.2,275.6L304.4,275.6L323.6,273.8L342.8,266.6L362.0,259.4L381.2,250.5L400.3,239.8L419.5,229.0L438.7,218.3L457.9,209.3L477.1,202.2L496.3,198.6L515.5,193.2L534.7,173.5L553.8,171.7L573.0,162.8L592.2,150.2L611.4,141.3L630.6,134.1L649.8,134.1L669.0,134.1L688.1,134.1L707.3,134.1L726.5,134.1L745.7,123.4L764.9,109.1L784.1,103.7L803.3,93.0L822.4,85.8L841.6,75.1L860.8,59.0L880.0,59.0" fill="none" stroke="#58a6ff" stroke-width="2.5" stroke-linecap="round" stroke-linejoin="round"/>
  <path d="M55.0,338.2L74.2,338.2L93.4,338.2L112.6,338.2L131.7,338.2L150.9,338.2L170.1,338.2L189.3,338.2L208.5,338.2L227.7,338.2L246.9,338.2L266.0,338.2L285.2,338.2L304.4,338.2L323.6,338.2L342.8,332.8L362.0,332.8L381.2,332.8L400.3,332.8L419.5,332.8L438.7,332.8L457.9,332.8L477.1,331.0L496.3,325.7L515.5,325.7L534.7,323.9L553.8,323.9L573.0,323.9L592.2,323.9L611.4,323.9L630.6,320.3L649.8,320.3L669.0,320.3L688.1,320.3L707.3,320.3L726.5,320.3L745.7,320.3L764.9,316.7L784.1,295.2L803.3,295.2L822.4,295.2L841.6,295.2L860.8,280.9L880.0,280.9" fill="none" stroke="#3fb950" stroke-width="2.5" stroke-linecap="round" stroke-linejoin="round"/>
  <path d="M55.0,340.0L74.2,327.5L93.4,318.5L112.6,314.9L131.7,306.0L150.9,307.8L170.1,302.4L189.3,304.2L208.5,304.2L227.7,306.0L246.9,306.0L266.0,306.0L285.2,306.0L304.4,306.0L323.6,304.2L342.8,302.4L362.0,300.6L381.2,295.2L400.3,284.5L419.5,277.3L438.7,270.2L457.9,264.8L477.1,264.8L496.3,266.6L515.5,270.2L534.7,263.0L553.8,261.2L573.0,261.2L592.2,255.9L611.4,264.8L630.6,259.4L649.8,259.4L669.0,259.4L688.1,259.4L707.3,270.2L726.5,270.2L745.7,268.4L764.9,277.3L784.1,340.0L803.3,340.0L822.4,340.0L841.6,340.0L860.8,332.8L880.0,332.8" fill="none" stroke="#d2a8ff" stroke-width="2.5" stroke-linecap="round" stroke-linejoin="round"/>
  <path d="M55.0,340.0L74.2,340.0L93.4,338.2L112.6,336.4L131.7,336.4L150.9,334.6L170.1,334.6L189.3,332.8L208.5,332.8L227.7,332.8L246.9,332.8L266.0,332.8L285.2,332.8L304.4,332.8L323.6,332.8L342.8,331.0L362.0,327.5L381.2,325.7L400.3,325.7L419.5,325.7L438.7,322.1L457.9,322.1L477.1,322.1L496.3,320.3L515.5,320.3L534.7,309.6L553.8,309.6L573.0,302.4L592.2,297.0L611.4,289.9L630.6,288.1L649.8,288.1L669.0,288.1L688.1,288.1L707.3,284.5L726.5,284.5L745.7,280.9L764.9,275.6L784.1,272.0L803.3,261.2L822.4,254.1L841.6,243.3L860.8,238.0L880.0,238.0" fill="none" stroke="#f78166" stroke-width="2.5" stroke-linecap="round" stroke-linejoin="round"/>
  <path d="M55.0,340.0L74.2,331.0L93.4,329.3L112.6,327.5L131.7,325.7L150.9,318.5L170.1,318.5L189.3,318.5L208.5,318.5L227.7,316.7L246.9,316.7L266.0,316.7L285.2,316.7L304.4,316.7L323.6,316.7L342.8,313.1L362.0,311.4L381.2,309.6L400.3,309.6L419.5,306.0L438.7,306.0L457.9,302.4L477.1,295.2L496.3,291.7L515.5,282.7L534.7,280.9L553.8,280.9L573.0,279.1L592.2,277.3L611.4,266.6L630.6,266.6L649.8,266.6L669.0,266.6L688.1,266.6L707.3,259.4L726.5,259.4L745.7,254.1L764.9,236.2L784.1,171.7L803.3,171.7L822.4,171.7L841.6,171.7L860.8,168.1L880.0,168.1" fill="none" stroke="#f85149" stroke-width="2.5" stroke-linecap="round" stroke-linejoin="round"/>
  <circle cx="880.0" cy="59.0" r="3.5" fill="#58a6ff"/>
  <text x="889.0" y="63.0" fill="#58a6ff" font-size="11" font-weight="600" font-family="-apple-system,BlinkMacSystemFont,Segoe UI,Helvetica,Arial,sans-serif">157</text>
  <circle cx="880.0" cy="280.9" r="3.5" fill="#3fb950"/>
  <text x="889.0" y="284.9" fill="#3fb950" font-size="11" font-weight="600" font-family="-apple-system,BlinkMacSystemFont,Segoe UI,Helvetica,Arial,sans-serif">33</text>
  <circle cx="880.0" cy="332.8" r="3.5" fill="#d2a8ff"/>
  <text x="889.0" y="336.8" fill="#d2a8ff" font-size="11" font-weight="600" font-family="-apple-system,BlinkMacSystemFont,Segoe UI,Helvetica,Arial,sans-serif">4</text>
  <circle cx="880.0" cy="238.0" r="3.5" fill="#f78166"/>
  <text x="889.0" y="242.0" fill="#f78166" font-size="11" font-weight="600" font-family="-apple-system,BlinkMacSystemFont,Segoe UI,Helvetica,Arial,sans-serif">57</text>
  <circle cx="880.0" cy="168.1" r="3.5" fill="#f85149"/>
  <text x="889.0" y="172.1" fill="#f85149" font-size="11" font-weight="600" font-family="-apple-system,BlinkMacSystemFont,Segoe UI,Helvetica,Arial,sans-serif">96</text>
  <line x1="55" y1="368" x2="71" y2="368" stroke="#3fb950" stroke-width="2.5" stroke-linecap="round"/>
  <text x="77" y="372" fill="#8b949e" font-size="11" font-family="-apple-system,BlinkMacSystemFont,Segoe UI,Helvetica,Arial,sans-serif">Repos</text>
  <line x1="255" y1="368" x2="271" y2="368" stroke="#58a6ff" stroke-width="2.5" stroke-linecap="round"/>
  <text x="277" y="372" fill="#8b949e" font-size="11" font-family="-apple-system,BlinkMacSystemFont,Segoe UI,Helvetica,Arial,sans-serif">PRs Opened</text>
  <line x1="455" y1="368" x2="471" y2="368" stroke="#d2a8ff" stroke-width="2.5" stroke-linecap="round"/>
  <text x="477" y="372" fill="#8b949e" font-size="11" font-family="-apple-system,BlinkMacSystemFont,Segoe UI,Helvetica,Arial,sans-serif">Open PRs</text>
  <line x1="55" y1="386" x2="71" y2="386" stroke="#f78166" stroke-width="2.5" stroke-linecap="round"/>
  <text x="77" y="390" fill="#8b949e" font-size="11" font-family="-apple-system,BlinkMacSystemFont,Segoe UI,Helvetica,Arial,sans-serif">Merged</text>
  <line x1="255" y1="386" x2="271" y2="386" stroke="#f85149" stroke-width="2.5" stroke-linecap="round"/>
  <text x="277" y="390" fill="#8b949e" font-size="11" font-family="-apple-system,BlinkMacSystemFont,Segoe UI,Helvetica,Arial,sans-serif">Closed</text>
</svg>