<svg xmlns="http://www.w3.org/2000/svg" viewBox="0 0 960 400" width="960" height="400">
  <defs>
    <linearGradient id="gR" x1="0" y1="0" x2="0" y2="1">
      <stop offset="0%" stop-color="#f78166" stop-opacity="0.25"/>
      <stop offset="100%" stop-color="#f78166" stop-opacity="0.02"/>
    </linearGradient>
    <linearGradient id="gO" x1="0" y1="0" x2="0" y2="1">
      <stop offset="0%" stop-color="#58a6ff" stop-opacity="0.25"/>
      <stop offset="100%" stop-color="#58a6ff" stop-opacity="0.02"/>
    </linearGradient>
    <linearGradient id="gOp" x1="0" y1="0" x2="0" y2="1">
      <stop offset="0%" stop-color="#3fb950" stop-opacity="0.25"/>
      <stop offset="100%" stop-color="#3fb950" stop-opacity="0.02"/>
    </linearGradient>
    <linearGradient id="gM" x1="0" y1="0" x2="0" y2="1">
      <stop offset="0%" stop-color="#d2a8ff" stop-opacity="0.25"/>
      <stop offset="100%" stop-color="#d2a8ff" stop-opacity="0.02"/>
    </linearGradient>
    <linearGradient id="gC" x1="0" y1="0" x2="0" y2="1">
      <stop offset="0%" stop-color="#f85149" stop-opacity="0.25"/>
      <stop offset="100%" stop-color="#f85149" stop-opacity="0.02"/>
    </linearGradient>
  </defs>
  <rect width="960" height="400" rx="12" fill="#0d1117"/>
  <rect width="960" height="400" rx="12" fill="none" stroke="#30363d" stroke-width="1"/>
  <text x="55" y="30" fill="#e6edf3" font-size="15" font-weight="600" font-family="-apple-system,BlinkMacSystemFont,Segoe UI,Helvetica,Arial,sans-serif">GitHub Activity — jlaportebot</text>
  <text x="880" y="30" fill="#8b949e" font-size="11" text-anchor="end" font-family="-apple-system,BlinkMacSystemFont,Segoe UI,Helvetica,Arial,sans-serif">Updated Jun 28, 2026</text>
  <line x1="55" y1="340.0" x2="880" y2="340.0" stroke="#21262d" stroke-width="1"/>
  <text x="47" y="344.0" fill="#8b949e" font-size="11" text-anchor="end" font-family="-apple-system,BlinkMacSystemFont,Segoe UI,Helvetica,Arial,sans-serif">0</text>
  <line x1="55" y1="328.1" x2="880" y2="328.1" stroke="#21262d" stroke-width="1"/>
  <text x="47" y="332.1" fill="#8b949e" font-size="11" text-anchor="end" font-family="-apple-system,BlinkMacSystemFont,Segoe UI,Helvetica,Arial,sans-serif">10</text>
  <line x1="55" y1="316.2" x2="880" y2="316.2" stroke="#21262d" stroke-width="1"/>
  <text x="47" y="320.2" fill="#8b949e" font-size="11" text-anchor="end" font-family="-apple-system,BlinkMacSystemFont,Segoe UI,Helvetica,Arial,sans-serif">20</text>
  <line x1="55" y1="304.3" x2="880" y2="304.3" stroke="#21262d" stroke-width="1"/>
  <text x="47" y="308.3" fill="#8b949e" font-size="11" text-anchor="end" font-family="-apple-system,BlinkMacSystemFont,Segoe UI,Helvetica,Arial,sans-serif">30</text>
  <line x1="55" y1="292.5" x2="880" y2="292.5" stroke="#21262d" stroke-width="1"/>
  <text x="47" y="296.5" fill="#8b949e" font-size="11" text-anchor="end" font-family="-apple-system,BlinkMacSystemFont,Segoe UI,Helvetica,Arial,sans-serif">40</text>
  <line x1="55" y1="280.6" x2="880" y2="280.6" stroke="#21262d" stroke-width="1"/>
  <text x="47" y="284.6" fill="#8b949e" font-size="11" text-anchor="end" font-family="-apple-system,BlinkMacSystemFont,Segoe UI,Helvetica,Arial,sans-serif">50</text>
  <line x1="55" y1="268.7" x2="880" y2="268.7" stroke="#21262d" stroke-width="1"/>
  <text x="47" y="272.7" fill="#8b949e" font-size="11" text-anchor="end" font-family="-apple-system,BlinkMacSystemFont,Segoe UI,Helvetica,Arial,sans-serif">60</text>
  <line x1="55" y1="256.8" x2="880" y2="256.8" stroke="#21262d" stroke-width="1"/>
  <text x="47" y="260.8" fill="#8b949e" font-size="11" text-anchor="end" font-family="-apple-system,BlinkMacSystemFont,Segoe UI,Helvetica,Arial,sans-serif">70</text>
  <line x1="55" y1="244.9" x2="880" y2="244.9" stroke="#21262d" stroke-width="1"/>
  <text x="47" y="248.9" fill="#8b949e" font-size="11" text-anchor="end" font-family="-apple-system,BlinkMacSystemFont,Segoe UI,Helvetica,Arial,sans-serif">80</text>
  <line x1="55" y1="233.0" x2="880" y2="233.0" stroke="#21262d" stroke-width="1"/>
  <text x="47" y="237.0" fill="#8b949e" font-size="11" text-anchor="end" font-family="-apple-system,BlinkMacSystemFont,Segoe UI,Helvetica,Arial,sans-serif">90</text>
  <line x1="55" y1="221.1" x2="880" y2="221.1" stroke="#21262d" stroke-width="1"/>
  <text x="47" y="225.1" fill="#8b949e" font-size="11" text-anchor="end" font-family="-apple-system,BlinkMacSystemFont,Segoe UI,Helvetica,Arial,sans-serif">100</text>
  <line x1="55" y1="209.3" x2="880" y2="209.3" stroke="#21262d" stroke-width="1"/>
  <text x="47" y="213.3" fill="#8b949e" font-size="11" text-anchor="end" font-family="-apple-system,BlinkMacSystemFont,Segoe UI,Helvetica,Arial,sans-serif">110</text>
  <line x1="55" y1="197.4" x2="880" y2="197.4" stroke="#21262d" stroke-width="1"/>
  <text x="47" y="201.4" fill="#8b949e" font-size="11" text-anchor="end" font-family="-apple-system,BlinkMacSystemFont,Segoe UI,Helvetica,Arial,sans-serif">120</text>
  <line x1="55" y1="185.5" x2="880" y2="185.5" stroke="#21262d" stroke-width="1"/>
  <text x="47" y="189.5" fill="#8b949e" font-size="11" text-anchor="end" font-family="-apple-system,BlinkMacSystemFont,Segoe UI,Helvetica,Arial,sans-serif">130</text>
  <line x1="55" y1="173.6" x2="880" y2="173.6" stroke="#21262d" stroke-width="1"/>
  <text x="47" y="177.6" fill="#8b949e" font-size="11" text-anchor="end" font-family="-apple-system,BlinkMacSystemFont,Segoe UI,Helvetica,Arial,sans-serif">140</text>
  <line x1="55" y1="161.7" x2="880" y2="161.7" stroke="#21262d" stroke-width="1"/>
  <text x="47" y="165.7" fill="#8b949e" font-size="11" text-anchor="end" font-family="-apple-system,BlinkMacSystemFont,Segoe UI,Helvetica,Arial,sans-serif">150</text>
  <line x1="55" y1="149.8" x2="880" y2="149.8" stroke="#21262d" stroke-width="1"/>
  <text x="47" y="153.8" fill="#8b949e" font-size="11" text-anchor="end" font-family="-apple-system,BlinkMacSystemFont,Segoe UI,Helvetica,Arial,sans-serif">160</text>
  <line x1="55" y1="138.0" x2="880" y2="138.0" stroke="#21262d" stroke-width="1"/>
  <text x="47" y="142.0" fill="#8b949e" font-size="11" text-anchor="end" font-family="-apple-system,BlinkMacSystemFont,Segoe UI,Helvetica,Arial,sans-serif">170</text>
  <line x1="55" y1="126.1" x2="880" y2="126.1" stroke="#21262d" stroke-width="1"/>
  <text x="47" y="130.1" fill="#8b949e" font-size="11" text-anchor="end" font-family="-apple-system,BlinkMacSystemFont,Segoe UI,Helvetica,Arial,sans-serif">180</text>
  <line x1="55" y1="114.2" x2="880" y2="114.2" stroke="#21262d" stroke-width="1"/>
  <text x="47" y="118.2" fill="#8b949e" font-size="11" text-anchor="end" font-family="-apple-system,BlinkMacSystemFont,Segoe UI,Helvetica,Arial,sans-serif">190</text>
  <line x1="55" y1="102.3" x2="880" y2="102.3" stroke="#21262d" stroke-width="1"/>
  <text x="47" y="106.3" fill="#8b949e" font-size="11" text-anchor="end" font-family="-apple-system,BlinkMacSystemFont,Segoe UI,Helvetica,Arial,sans-serif">200</text>
  <line x1="55" y1="90.4" x2="880" y2="90.4" stroke="#21262d" stroke-width="1"/>
  <text x="47" y="94.4" fill="#8b949e" font-size="11" text-anchor="end" font-family="-apple-system,BlinkMacSystemFont,Segoe UI,Helvetica,Arial,sans-serif">210</text>
  <line x1="55" y1="78.5" x2="880" y2="78.5" stroke="#21262d" stroke-width="1"/>
  <text x="47" y="82.5" fill="#8b949e" font-size="11" text-anchor="end" font-family="-apple-system,BlinkMacSystemFont,Segoe UI,Helvetica,Arial,sans-serif">220</text>
  <line x1="55" y1="66.6" x2="880" y2="66.6" stroke="#21262d" stroke-width="1"/>
  <text x="47" y="70.6" fill="#8b949e" font-size="11" text-anchor="end" font-family="-apple-system,BlinkMacSystemFont,Segoe UI,Helvetica,Arial,sans-serif">230</text>
  <line x1="55" y1="54.8" x2="880" y2="54.8" stroke="#21262d" stroke-width="1"/>
  <text x="47" y="58.8" fill="#8b949e" font-size="11" text-anchor="end" font-family="-apple-system,BlinkMacSystemFont,Segoe UI,Helvetica,Arial,sans-serif">240</text>
  <line x1="55.0" y1="50" x2="55.0" y2="340" stroke="#21262d" stroke-width="1" stroke-dasharray="4,4"/>
  <text x="55.0" y="360" fill="#8b949e" font-size="10" text-anchor="middle" font-family="-apple-system,BlinkMacSystemFont,Segoe UI,Helvetica,Arial,sans-serif">May 02</text>
  <line x1="170.8" y1="50" x2="170.8" y2="340" stroke="#21262d" stroke-width="1" stroke-dasharray="4,4"/>
  <text x="170.8" y="360" fill="#8b949e" font-size="10" text-anchor="middle" font-family="-apple-system,BlinkMacSystemFont,Segoe UI,Helvetica,Arial,sans-serif">May 10</text>
  <line x1="286.6" y1="50" x2="286.6" y2="340" stroke="#21262d" stroke-width="1" stroke-dasharray="4,4"/>
  <text x="286.6" y="360" fill="#8b949e" font-size="10" text-anchor="middle" font-family="-apple-system,BlinkMacSystemFont,Segoe UI,Helvetica,Arial,sans-serif">May 18</text>
  <line x1="402.4" y1="50" x2="402.4" y2="340" stroke="#21262d" stroke-width="1" stroke-dasharray="4,4"/>
  <text x="402.4" y="360" fill="#8b949e" font-size="10" text-anchor="middle" font-family="-apple-system,BlinkMacSystemFont,Segoe UI,Helvetica,Arial,sans-serif">May 26</text>
  <line x1="518.2" y1="50" x2="518.2" y2="340" stroke="#21262d" stroke-width="1" stroke-dasharray="4,4"/>
  <text x="518.2" y="360" fill="#8b949e" font-size="10" text-anchor="middle" font-family="-apple-system,BlinkMacSystemFont,Segoe UI,Helvetica,Arial,sans-serif">Jun 03</text>
  <line x1="633.9" y1="50" x2="633.9" y2="340" stroke="#21262d" stroke-width="1" stroke-dasharray="4,4"/>
  <text x="633.9" y="360" fill="#8b949e" font-size="10" text-anchor="middle" font-family="-apple-system,BlinkMacSystemFont,Segoe UI,Helvetica,Arial,sans-serif">Jun 11</text>
  <line x1="749.7" y1="50" x2="749.7" y2="340" stroke="#21262d" stroke-width="1" stroke-dasharray="4,4"/>
  <text x="749.7" y="360" fill="#8b949e" font-size="10" text-anchor="middle" font-family="-apple-system,BlinkMacSystemFont,Segoe UI,Helvetica,Arial,sans-serif">Jun 19</text>
  <line x1="865.5" y1="50" x2="865.5" y2="340" stroke="#21262d" stroke-width="1" stroke-dasharray="4,4"/>
  <text x="865.5" y="360" fill="#8b949e" font-size="10" text-anchor="middle" font-family="-apple-system,BlinkMacSystemFont,Segoe UI,Helvetica,Arial,sans-serif">Jun 27</text>
  <line x1="880.0" y1="50" x2="880.0" y2="340" stroke="#21262d" stroke-width="1" stroke-dasharray="4,4"/>
  <text x="880.0" y="360" fill="#8b949e" font-size="10" text-anchor="middle" font-family="-apple-system,BlinkMacSystemFont,Segoe UI,Helvetica,Arial,sans-serif">Jun 28</text>
  <path d="M55.0,340.0L69.5,325.7L83.9,317.4L98.4,312.7L112.9,305.5L127.4,300.8L141.8,297.2L156.3,297.2L170.8,297.2L185.3,297.2L199.7,297.2L214.2,297.2L228.7,297.2L243.2,297.2L257.6,296.0L272.1,291.3L286.6,286.5L301.1,280.6L315.5,273.4L330.0,266.3L344.5,259.2L358.9,253.2L373.4,248.5L387.9,246.1L402.4,242.5L416.8,229.5L431.3,228.3L445.8,222.3L460.3,214.0L474.7,208.1L489.2,203.3L503.7,203.3L518.2,203.3L532.6,203.3L547.1,203.3L561.6,203.3L576.1,196.2L590.5,186.7L605.0,183.1L619.5,176.0L633.9,171.2L648.4,164.1L662.9,153.4L677.4,147.5L691.8,141.5L706.3,135.6L720.8,124.9L735.3,117.7L749.7,108.2L764.2,101.1L778.7,95.2L793.2,90.4L807.6,83.3L822.1,75.0L836.6,70.2L851.1,66.6L865.5,58.3L880.0,55.9L880.0,340.0L55.0,340.0Z" fill="url(#gO)"/>
  <path d="M55.0,338.8L69.5,338.8L83.9,338.8L98.4,338.8L112.9,338.8L127.4,338.8L141.8,338.8L156.3,338.8L170.8,338.8L185.3,338.8L199.7,338.8L214.2,338.8L228.7,338.8L243.2,338.8L257.6,338.8L272.1,335.2L286.6,335.2L301.1,335.2L315.5,335.2L330.0,335.2L344.5,335.2L358.9,335.2L373.4,334.1L387.9,330.5L402.4,330.5L416.8,329.3L431.3,329.3L445.8,329.3L460.3,329.3L474.7,329.3L489.2,326.9L503.7,326.9L518.2,326.9L532.6,326.9L547.1,326.9L561.6,326.9L576.1,326.9L590.5,324.5L605.0,310.3L619.5,310.3L633.9,310.3L648.4,310.3L662.9,300.8L677.4,300.8L691.8,300.8L706.3,300.8L720.8,300.8L735.3,298.4L749.7,298.4L764.2,297.2L778.7,296.0L793.2,294.8L807.6,293.6L822.1,291.3L836.6,286.5L851.1,285.3L865.5,284.1L880.0,284.1L880.0,340.0L55.0,340.0Z" fill="url(#gR)"/>
  <path d="M55.0,340.0L69.5,325.7L83.9,317.4L98.4,312.7L112.9,305.5L127.4,300.8L141.8,297.2L156.3,297.2L170.8,297.2L185.3,297.2L199.7,297.2L214.2,297.2L228.7,297.2L243.2,297.2L257.6,296.0L272.1,291.3L286.6,286.5L301.1,280.6L315.5,273.4L330.0,266.3L344.5,259.2L358.9,253.2L373.4,248.5L387.9,246.1L402.4,242.5L416.8,229.5L431.3,228.3L445.8,222.3L460.3,214.0L474.7,208.1L489.2,203.3L503.7,203.3L518.2,203.3L532.6,203.3L547.1,203.3L561.6,203.3L576.1,196.2L590.5,186.7L605.0,183.1L619.5,176.0L633.9,171.2L648.4,164.1L662.9,153.4L677.4,147.5L691.8,141.5L706.3,135.6L720.8,124.9L735.3,117.7L749.7,108.2L764.2,101.1L778.7,95.2L793.2,90.4L807.6,83.3L822.1,75.0L836.6,70.2L851.1,66.6L865.5,58.3L880.0,55.9" fill="none" stroke="#58a6ff" stroke-width="2.5" stroke-linecap="round" stroke-linejoin="round"/>
  <path d="M55.0,338.8L69.5,338.8L83.9,338.8L98.4,338.8L112.9,338.8L127.4,338.8L141.8,338.8L156.3,338.8L170.8,338.8L185.3,338.8L199.7,338.8L214.2,338.8L228.7,338.8L243.2,338.8L257.6,338.8L272.1,335.2L286.6,335.2L301.1,335.2L315.5,335.2L330.0,335.2L344.5,335.2L358.9,335.2L373.4,334.1L387.9,330.5L402.4,330.5L416.8,329.3L431.3,329.3L445.8,329.3L460.3,329.3L474.7,329.3L489.2,326.9L503.7,326.9L518.2,326.9L532.6,326.9L547.1,326.9L561.6,326.9L576.1,326.9L590.5,324.5L605.0,310.3L619.5,310.3L633.9,310.3L648.4,310.3L662.9,300.8L677.4,300.8L691.8,300.8L706.3,300.8L720.8,300.8L735.3,298.4L749.7,298.4L764.2,297.2L778.7,296.0L793.2,294.8L807.6,293.6L822.1,291.3L836.6,286.5L851.1,285.3L865.5,284.1L880.0,284.1" fill="none" stroke="#f78166" stroke-width="2.5" stroke-linecap="round" stroke-linejoin="round"/>
  <path d="M55.0,340.0L69.5,331.7L83.9,325.7L98.4,323.4L112.9,317.4L127.4,318.6L141.8,315.0L156.3,316.2L170.8,316.2L185.3,317.4L199.7,317.4L214.2,317.4L228.7,317.4L243.2,317.4L257.6,316.2L272.1,315.0L286.6,313.9L301.1,310.3L315.5,303.2L330.0,298.4L344.5,293.6L358.9,290.1L373.4,290.1L387.9,291.3L402.4,293.6L416.8,288.9L431.3,287.7L445.8,287.7L460.3,284.1L474.7,290.1L489.2,286.5L503.7,286.5L518.2,286.5L532.6,286.5L547.1,293.6L561.6,293.6L576.1,292.5L590.5,298.4L605.0,340.0L619.5,340.0L633.9,340.0L648.4,340.0L662.9,335.2L677.4,335.2L691.8,332.9L706.3,332.9L720.8,331.7L735.3,328.1L749.7,329.3L764.2,326.9L778.7,326.9L793.2,329.3L807.6,328.1L822.1,329.3L836.6,325.7L851.1,326.9L865.5,326.9L880.0,324.5" fill="none" stroke="#3fb950" stroke-width="2.5" stroke-linecap="round" stroke-linejoin="round"/>
  <path d="M55.0,340.0L69.5,340.0L83.9,338.8L98.4,337.6L112.9,337.6L127.4,336.4L141.8,336.4L156.3,335.2L170.8,335.2L185.3,335.2L199.7,335.2L214.2,335.2L228.7,335.2L243.2,335.2L257.6,335.2L272.1,334.1L286.6,331.7L301.1,330.5L315.5,330.5L330.0,330.5L344.5,328.1L358.9,328.1L373.4,328.1L387.9,326.9L402.4,326.9L416.8,319.8L431.3,319.8L445.8,315.0L460.3,311.5L474.7,306.7L489.2,305.5L503.7,305.5L518.2,305.5L532.6,305.5L547.1,303.2L561.6,303.2L576.1,300.8L590.5,297.2L605.0,294.8L619.5,287.7L633.9,283.0L648.4,275.8L662.9,272.3L677.4,267.5L691.8,265.1L706.3,259.2L720.8,249.7L735.3,246.1L749.7,239.0L764.2,235.4L778.7,229.5L793.2,222.3L807.6,216.4L822.1,206.9L836.6,205.7L851.1,203.3L865.5,197.4L880.0,197.4" fill="none" stroke="#d2a8ff" stroke-width="2.5" stroke-linecap="round" stroke-linejoin="round"/>
  <path d="M55.0,340.0L69.5,334.1L83.9,332.9L98.4,331.7L112.9,330.5L127.4,325.7L141.8,325.7L156.3,325.7L170.8,325.7L185.3,324.5L199.7,324.5L214.2,324.5L228.7,324.5L243.2,324.5L257.6,324.5L272.1,322.2L286.6,321.0L301.1,319.8L315.5,319.8L330.0,317.4L344.5,317.4L358.9,315.0L373.4,310.3L387.9,307.9L402.4,302.0L416.8,300.8L431.3,300.8L445.8,299.6L460.3,298.4L474.7,291.3L489.2,291.3L503.7,291.3L518.2,291.3L532.6,291.3L547.1,286.5L561.6,286.5L576.1,283.0L590.5,271.1L605.0,228.3L619.5,228.3L633.9,228.3L648.4,228.3L662.9,225.9L677.4,224.7L691.8,223.5L706.3,223.5L720.8,223.5L735.3,223.5L749.7,220.0L764.2,218.8L778.7,218.8L793.2,218.8L807.6,218.8L822.1,218.8L836.6,218.8L851.1,216.4L865.5,214.0L880.0,214.0" fill="none" stroke="#f85149" stroke-width="2.5" stroke-linecap="round" stroke-linejoin="round"/>
  <circle cx="880.0" cy="55.9" r="3.5" fill="#58a6ff"/>
  <text x="889.0" y="59.9" fill="#58a6ff" font-size="11" font-weight="600" font-family="-apple-system,BlinkMacSystemFont,Segoe UI,Helvetica,Arial,sans-serif">239</text>
  <circle cx="880.0" cy="284.1" r="3.5" fill="#f78166"/>
  <text x="889.0" y="288.1" fill="#f78166" font-size="11" font-weight="600" font-family="-apple-system,BlinkMacSystemFont,Segoe UI,Helvetica,Arial,sans-serif">47</text>
  <circle cx="880.0" cy="324.5" r="3.5" fill="#3fb950"/>
  <text x="889.0" y="328.5" fill="#3fb950" font-size="11" font-weight="600" font-family="-apple-system,BlinkMacSystemFont,Segoe UI,Helvetica,Arial,sans-serif">13</text>
  <circle cx="880.0" cy="197.4" r="3.5" fill="#d2a8ff"/>
  <text x="889.0" y="201.4" fill="#d2a8ff" font-size="11" font-weight="600" font-family="-apple-system,BlinkMacSystemFont,Segoe UI,Helvetica,Arial,sans-serif">120</text>
  <circle cx="880.0" cy="214.0" r="3.5" fill="#f85149"/>
  <text x="889.0" y="218.0" fill="#f85149" font-size="11" font-weight="600" font-family="-apple-system,BlinkMacSystemFont,Segoe UI,Helvetica,Arial,sans-serif">106</text>
  <line x1="55" y1="368" x2="71" y2="368" stroke="#f78166" stroke-width="2.5" stroke-linecap="round"/>
  <text x="77" y="372" fill="#8b949e" font-size="11" font-family="-apple-system,BlinkMacSystemFont,Segoe UI,Helvetica,Arial,sans-serif">Repos</text>
  <line x1="255" y1="368" x2="271" y2="368" stroke="#58a6ff" stroke-width="2.5" stroke-linecap="round"/>
  <text x="277" y="372" fill="#8b949e" font-size="11" font-family="-apple-system,BlinkMacSystemFont,Segoe UI,Helvetica,Arial,sans-serif">PRs Opened</text>
  <line x1="455" y1="368" x2="471" y2="368" stroke="#3fb950" stroke-width="2.5" stroke-linecap="round"/>
  <text x="477" y="372" fill="#8b949e" font-size="11" font-family="-apple-system,BlinkMacSystemFont,Segoe UI,Helvetica,Arial,sans-serif">Open PRs</text>
  <line x1="55" y1="386" x2="71" y2="386" stroke="#d2a8ff" stroke-width="2.5" stroke-linecap="round"/>
  <text x="77" y="390" fill="#8b949e" font-size="11" font-family="-apple-system,BlinkMacSystemFont,Segoe UI,Helvetica,Arial,sans-serif">Merged</text>
  <line x1="255" y1="386" x2="271" y2="386" stroke="#f85149" stroke-width="2.5" stroke-linecap="round"/>
  <text x="277" y="390" fill="#8b949e" font-size="11" font-family="-apple-system,BlinkMacSystemFont,Segoe UI,Helvetica,Arial,sans-serif">Closed</text>
</svg>