<svg xmlns="http://www.w3.org/2000/svg" viewBox="0 0 960 400" width="960" height="400">
  <defs>
    <linearGradient id="gR" x1="0" y1="0" x2="0" y2="1">
      <stop offset="0%" stop-color="#3fb950" stop-opacity="0.25"/>
      <stop offset="100%" stop-color="#3fb950" stop-opacity="0.02"/>
    </linearGradient>
    <linearGradient id="gO" x1="0" y1="0" x2="0" y2="1">
      <stop offset="0%" stop-color="#58a6ff" stop-opacity="0.25"/>
      <stop offset="100%" stop-color="#58a6ff" stop-opacity="0.02"/>
    </linearGradient>
    <linearGradient id="gOp" x1="0" y1="0" x2="0" y2="1">
      <stop offset="0%" stop-color="#d2a8ff" stop-opacity="0.25"/>
      <stop offset="100%" stop-color="#d2a8ff" stop-opacity="0.02"/>
    </linearGradient>
    <linearGradient id="gM" x1="0" y1="0" x2="0" y2="1">
      <stop offset="0%" stop-color="#f78166" stop-opacity="0.25"/>
      <stop offset="100%" stop-color="#f78166" stop-opacity="0.02"/>
    </linearGradient>
    <linearGradient id="gC" x1="0" y1="0" x2="0" y2="1">
      <stop offset="0%" stop-color="#f85149" stop-opacity="0.25"/>
      <stop offset="100%" stop-color="#f85149" stop-opacity="0.02"/>
    </linearGradient>
  </defs>
  <rect width="960" height="400" rx="12" fill="#0d1117"/>
  <rect width="960" height="400" rx="12" fill="none" stroke="#30363d" stroke-width="1"/>
  <text x="55" y="30" fill="#e6edf3" font-size="15" font-weight="600" font-family="-apple-system,BlinkMacSystemFont,Segoe UI,Helvetica,Arial,sans-serif">GitHub Activity — jlaportebot</text>
  <text x="880" y="30" fill="#8b949e" font-size="11" text-anchor="end" font-family="-apple-system,BlinkMacSystemFont,Segoe UI,Helvetica,Arial,sans-serif">Updated May 27, 2026</text>
  <line x1="55" y1="340.0" x2="880" y2="340.0" stroke="#21262d" stroke-width="1"/>
  <text x="47" y="344.0" fill="#8b949e" font-size="11" text-anchor="end" font-family="-apple-system,BlinkMacSystemFont,Segoe UI,Helvetica,Arial,sans-serif">0</text>
  <line x1="55" y1="309.5" x2="880" y2="309.5" stroke="#21262d" stroke-width="1"/>
  <text x="47" y="313.5" fill="#8b949e" font-size="11" text-anchor="end" font-family="-apple-system,BlinkMacSystemFont,Segoe UI,Helvetica,Arial,sans-serif">10</text>
  <line x1="55" y1="278.9" x2="880" y2="278.9" stroke="#21262d" stroke-width="1"/>
  <text x="47" y="282.9" fill="#8b949e" font-size="11" text-anchor="end" font-family="-apple-system,BlinkMacSystemFont,Segoe UI,Helvetica,Arial,sans-serif">20</text>
  <line x1="55" y1="248.4" x2="880" y2="248.4" stroke="#21262d" stroke-width="1"/>
  <text x="47" y="252.4" fill="#8b949e" font-size="11" text-anchor="end" font-family="-apple-system,BlinkMacSystemFont,Segoe UI,Helvetica,Arial,sans-serif">30</text>
  <line x1="55" y1="217.9" x2="880" y2="217.9" stroke="#21262d" stroke-width="1"/>
  <text x="47" y="221.9" fill="#8b949e" font-size="11" text-anchor="end" font-family="-apple-system,BlinkMacSystemFont,Segoe UI,Helvetica,Arial,sans-serif">40</text>
  <line x1="55" y1="187.4" x2="880" y2="187.4" stroke="#21262d" stroke-width="1"/>
  <text x="47" y="191.4" fill="#8b949e" font-size="11" text-anchor="end" font-family="-apple-system,BlinkMacSystemFont,Segoe UI,Helvetica,Arial,sans-serif">50</text>
  <line x1="55" y1="156.8" x2="880" y2="156.8" stroke="#21262d" stroke-width="1"/>
  <text x="47" y="160.8" fill="#8b949e" font-size="11" text-anchor="end" font-family="-apple-system,BlinkMacSystemFont,Segoe UI,Helvetica,Arial,sans-serif">60</text>
  <line x1="55" y1="126.3" x2="880" y2="126.3" stroke="#21262d" stroke-width="1"/>
  <text x="47" y="130.3" fill="#8b949e" font-size="11" text-anchor="end" font-family="-apple-system,BlinkMacSystemFont,Segoe UI,Helvetica,Arial,sans-serif">70</text>
  <line x1="55" y1="95.8" x2="880" y2="95.8" stroke="#21262d" stroke-width="1"/>
  <text x="47" y="99.8" fill="#8b949e" font-size="11" text-anchor="end" font-family="-apple-system,BlinkMacSystemFont,Segoe UI,Helvetica,Arial,sans-serif">80</text>
  <line x1="55" y1="65.3" x2="880" y2="65.3" stroke="#21262d" stroke-width="1"/>
  <text x="47" y="69.3" fill="#8b949e" font-size="11" text-anchor="end" font-family="-apple-system,BlinkMacSystemFont,Segoe UI,Helvetica,Arial,sans-serif">90</text>
  <line x1="55.0" y1="50" x2="55.0" y2="340" stroke="#21262d" stroke-width="1" stroke-dasharray="4,4"/>
  <text x="55.0" y="360" fill="#8b949e" font-size="10" text-anchor="middle" font-family="-apple-system,BlinkMacSystemFont,Segoe UI,Helvetica,Arial,sans-serif">May 02</text>
  <line x1="154.0" y1="50" x2="154.0" y2="340" stroke="#21262d" stroke-width="1" stroke-dasharray="4,4"/>
  <text x="154.0" y="360" fill="#8b949e" font-size="10" text-anchor="middle" font-family="-apple-system,BlinkMacSystemFont,Segoe UI,Helvetica,Arial,sans-serif">May 05</text>
  <line x1="253.0" y1="50" x2="253.0" y2="340" stroke="#21262d" stroke-width="1" stroke-dasharray="4,4"/>
  <text x="253.0" y="360" fill="#8b949e" font-size="10" text-anchor="middle" font-family="-apple-system,BlinkMacSystemFont,Segoe UI,Helvetica,Arial,sans-serif">May 08</text>
  <line x1="352.0" y1="50" x2="352.0" y2="340" stroke="#21262d" stroke-width="1" stroke-dasharray="4,4"/>
  <text x="352.0" y="360" fill="#8b949e" font-size="10" text-anchor="middle" font-family="-apple-system,BlinkMacSystemFont,Segoe UI,Helvetica,Arial,sans-serif">May 11</text>
  <line x1="451.0" y1="50" x2="451.0" y2="340" stroke="#21262d" stroke-width="1" stroke-dasharray="4,4"/>
  <text x="451.0" y="360" fill="#8b949e" font-size="10" text-anchor="middle" font-family="-apple-system,BlinkMacSystemFont,Segoe UI,Helvetica,Arial,sans-serif">May 14</text>
  <line x1="550.0" y1="50" x2="550.0" y2="340" stroke="#21262d" stroke-width="1" stroke-dasharray="4,4"/>
  <text x="550.0" y="360" fill="#8b949e" font-size="10" text-anchor="middle" font-family="-apple-system,BlinkMacSystemFont,Segoe UI,Helvetica,Arial,sans-serif">May 17</text>
  <line x1="649.0" y1="50" x2="649.0" y2="340" stroke="#21262d" stroke-width="1" stroke-dasharray="4,4"/>
  <text x="649.0" y="360" fill="#8b949e" font-size="10" text-anchor="middle" font-family="-apple-system,BlinkMacSystemFont,Segoe UI,Helvetica,Arial,sans-serif">May 20</text>
  <line x1="748.0" y1="50" x2="748.0" y2="340" stroke="#21262d" stroke-width="1" stroke-dasharray="4,4"/>
  <text x="748.0" y="360" fill="#8b949e" font-size="10" text-anchor="middle" font-family="-apple-system,BlinkMacSystemFont,Segoe UI,Helvetica,Arial,sans-serif">May 23</text>
  <line x1="847.0" y1="50" x2="847.0" y2="340" stroke="#21262d" stroke-width="1" stroke-dasharray="4,4"/>
  <text x="847.0" y="360" fill="#8b949e" font-size="10" text-anchor="middle" font-family="-apple-system,BlinkMacSystemFont,Segoe UI,Helvetica,Arial,sans-serif">May 26</text>
  <line x1="880.0" y1="50" x2="880.0" y2="340" stroke="#21262d" stroke-width="1" stroke-dasharray="4,4"/>
  <text x="880.0" y="360" fill="#8b949e" font-size="10" text-anchor="middle" font-family="-apple-system,BlinkMacSystemFont,Segoe UI,Helvetica,Arial,sans-serif">May 27</text>
  <path d="M55.0,340.0L88.0,300.3L121.0,278.9L154.0,266.7L187.0,248.4L220.0,236.2L253.0,227.1L286.0,227.1L319.0,227.1L352.0,227.1L385.0,227.1L418.0,227.1L451.0,227.1L484.0,227.1L517.0,224.0L550.0,211.8L583.0,199.6L616.0,184.3L649.0,166.0L682.0,147.7L715.0,129.4L748.0,114.1L781.0,101.9L814.0,95.8L847.0,86.6L880.0,65.3L880.0,340.0L55.0,340.0Z" fill="url(#gO)"/>
  <path d="M55.0,336.9L88.0,312.5L121.0,297.3L154.0,291.2L187.0,275.9L220.0,263.7L253.0,257.6L286.0,257.6L319.0,257.6L352.0,257.6L385.0,257.6L418.0,257.6L451.0,257.6L484.0,257.6L517.0,254.5L550.0,230.1L583.0,227.1L616.0,227.1L649.0,227.1L682.0,227.1L715.0,227.1L748.0,227.1L781.0,211.8L814.0,190.4L847.0,172.1L880.0,169.1L880.0,340.0L55.0,340.0Z" fill="url(#gR)"/>
  <path d="M55.0,340.0L88.0,300.3L121.0,278.9L154.0,266.7L187.0,248.4L220.0,236.2L253.0,227.1L286.0,227.1L319.0,227.1L352.0,227.1L385.0,227.1L418.0,227.1L451.0,227.1L484.0,227.1L517.0,224.0L550.0,211.8L583.0,199.6L616.0,184.3L649.0,166.0L682.0,147.7L715.0,129.4L748.0,114.1L781.0,101.9L814.0,95.8L847.0,86.6L880.0,65.3" fill="none" stroke="#58a6ff" stroke-width="2.5" stroke-linecap="round" stroke-linejoin="round"/>
  <path d="M55.0,336.9L88.0,312.5L121.0,297.3L154.0,291.2L187.0,275.9L220.0,263.7L253.0,257.6L286.0,257.6L319.0,257.6L352.0,257.6L385.0,257.6L418.0,257.6L451.0,257.6L484.0,257.6L517.0,254.5L550.0,230.1L583.0,227.1L616.0,227.1L649.0,227.1L682.0,227.1L715.0,227.1L748.0,227.1L781.0,211.8L814.0,190.4L847.0,172.1L880.0,169.1" fill="none" stroke="#3fb950" stroke-width="2.5" stroke-linecap="round" stroke-linejoin="round"/>
  <path d="M55.0,340.0L88.0,315.6L121.0,303.4L154.0,297.3L187.0,282.0L220.0,285.1L253.0,275.9L286.0,278.9L319.0,278.9L352.0,282.0L385.0,282.0L418.0,282.0L451.0,282.0L484.0,282.0L517.0,278.9L550.0,275.9L583.0,272.8L616.0,263.7L649.0,245.4L682.0,233.2L715.0,220.9L748.0,211.8L781.0,211.8L814.0,214.8L847.0,220.9L880.0,205.7" fill="none" stroke="#d2a8ff" stroke-width="2.5" stroke-linecap="round" stroke-linejoin="round"/>
  <path d="M55.0,340.0L88.0,340.0L121.0,333.9L154.0,330.8L187.0,330.8L220.0,327.8L253.0,327.8L286.0,324.7L319.0,324.7L352.0,324.7L385.0,324.7L418.0,324.7L451.0,324.7L484.0,324.7L517.0,324.7L550.0,321.7L583.0,315.6L616.0,312.5L649.0,312.5L682.0,312.5L715.0,306.4L748.0,306.4L781.0,306.4L814.0,303.4L847.0,303.4L880.0,300.3" fill="none" stroke="#f78166" stroke-width="2.5" stroke-linecap="round" stroke-linejoin="round"/>
  <path d="M55.0,340.0L88.0,324.7L121.0,321.7L154.0,318.6L187.0,315.6L220.0,303.4L253.0,303.4L286.0,303.4L319.0,303.4L352.0,300.3L385.0,300.3L418.0,300.3L451.0,300.3L484.0,300.3L517.0,300.3L550.0,294.2L583.0,291.2L616.0,288.1L649.0,288.1L682.0,282.0L715.0,282.0L748.0,275.9L781.0,263.7L814.0,257.6L847.0,242.3L880.0,239.3" fill="none" stroke="#f85149" stroke-width="2.5" stroke-linecap="round" stroke-linejoin="round"/>
  <circle cx="880.0" cy="65.3" r="3.5" fill="#58a6ff"/>
  <text x="889.0" y="69.3" fill="#58a6ff" font-size="11" font-weight="600" font-family="-apple-system,BlinkMacSystemFont,Segoe UI,Helvetica,Arial,sans-serif">90</text>
  <circle cx="880.0" cy="169.1" r="3.5" fill="#3fb950"/>
  <text x="889.0" y="173.1" fill="#3fb950" font-size="11" font-weight="600" font-family="-apple-system,BlinkMacSystemFont,Segoe UI,Helvetica,Arial,sans-serif">56</text>
  <circle cx="880.0" cy="205.7" r="3.5" fill="#d2a8ff"/>
  <text x="889.0" y="209.7" fill="#d2a8ff" font-size="11" font-weight="600" font-family="-apple-system,BlinkMacSystemFont,Segoe UI,Helvetica,Arial,sans-serif">44</text>
  <circle cx="880.0" cy="300.3" r="3.5" fill="#f78166"/>
  <text x="889.0" y="304.3" fill="#f78166" font-size="11" font-weight="600" font-family="-apple-system,BlinkMacSystemFont,Segoe UI,Helvetica,Arial,sans-serif">13</text>
  <circle cx="880.0" cy="239.3" r="3.5" fill="#f85149"/>
  <text x="889.0" y="243.3" fill="#f85149" font-size="11" font-weight="600" font-family="-apple-system,BlinkMacSystemFont,Segoe UI,Helvetica,Arial,sans-serif">33</text>
  <line x1="55" y1="368" x2="71" y2="368" stroke="#3fb950" stroke-width="2.5" stroke-linecap="round"/>
  <text x="77" y="372" fill="#8b949e" font-size="11" font-family="-apple-system,BlinkMacSystemFont,Segoe UI,Helvetica,Arial,sans-serif">Repos</text>
  <line x1="255" y1="368" x2="271" y2="368" stroke="#58a6ff" stroke-width="2.5" stroke-linecap="round"/>
  <text x="277" y="372" fill="#8b949e" font-size="11" font-family="-apple-system,BlinkMacSystemFont,Segoe UI,Helvetica,Arial,sans-serif">PRs Opened</text>
  <line x1="455" y1="368" x2="471" y2="368" stroke="#d2a8ff" stroke-width="2.5" stroke-linecap="round"/>
  <text x="477" y="372" fill="#8b949e" font-size="11" font-family="-apple-system,BlinkMacSystemFont,Segoe UI,Helvetica,Arial,sans-serif">Open PRs</text>
  <line x1="55" y1="386" x2="71" y2="386" stroke="#f78166" stroke-width="2.5" stroke-linecap="round"/>
  <text x="77" y="390" fill="#8b949e" font-size="11" font-family="-apple-system,BlinkMacSystemFont,Segoe UI,Helvetica,Arial,sans-serif">Merged</text>
  <line x1="255" y1="386" x2="271" y2="386" stroke="#f85149" stroke-width="2.5" stroke-linecap="round"/>
  <text x="277" y="390" fill="#8b949e" font-size="11" font-family="-apple-system,BlinkMacSystemFont,Segoe UI,Helvetica,Arial,sans-serif">Closed</text>
</svg>