<svg xmlns="http://www.w3.org/2000/svg" viewBox="0 0 960 400" width="960" height="400">
  <defs>
    <linearGradient id="gR" x1="0" y1="0" x2="0" y2="1">
      <stop offset="0%" stop-color="#f78166" stop-opacity="0.25"/>
      <stop offset="100%" stop-color="#f78166" stop-opacity="0.02"/>
    </linearGradient>
    <linearGradient id="gO" x1="0" y1="0" x2="0" y2="1">
      <stop offset="0%" stop-color="#58a6ff" stop-opacity="0.25"/>
      <stop offset="100%" stop-color="#58a6ff" stop-opacity="0.02"/>
    </linearGradient>
    <linearGradient id="gOp" x1="0" y1="0" x2="0" y2="1">
      <stop offset="0%" stop-color="#3fb950" stop-opacity="0.25"/>
      <stop offset="100%" stop-color="#3fb950" stop-opacity="0.02"/>
    </linearGradient>
    <linearGradient id="gM" x1="0" y1="0" x2="0" y2="1">
      <stop offset="0%" stop-color="#d2a8ff" stop-opacity="0.25"/>
      <stop offset="100%" stop-color="#d2a8ff" stop-opacity="0.02"/>
    </linearGradient>
    <linearGradient id="gC" x1="0" y1="0" x2="0" y2="1">
      <stop offset="0%" stop-color="#f85149" stop-opacity="0.25"/>
      <stop offset="100%" stop-color="#f85149" stop-opacity="0.02"/>
    </linearGradient>
  </defs>
  <rect width="960" height="400" rx="12" fill="#0d1117"/>
  <rect width="960" height="400" rx="12" fill="none" stroke="#30363d" stroke-width="1"/>
  <text x="55" y="30" fill="#e6edf3" font-size="15" font-weight="600" font-family="-apple-system,BlinkMacSystemFont,Segoe UI,Helvetica,Arial,sans-serif">GitHub Activity — jlaportebot</text>
  <text x="880" y="30" fill="#8b949e" font-size="11" text-anchor="end" font-family="-apple-system,BlinkMacSystemFont,Segoe UI,Helvetica,Arial,sans-serif">Updated Jun 29, 2026</text>
  <line x1="55" y1="340.0" x2="880" y2="340.0" stroke="#21262d" stroke-width="1"/>
  <text x="47" y="344.0" fill="#8b949e" font-size="11" text-anchor="end" font-family="-apple-system,BlinkMacSystemFont,Segoe UI,Helvetica,Arial,sans-serif">0</text>
  <line x1="55" y1="328.5" x2="880" y2="328.5" stroke="#21262d" stroke-width="1"/>
  <text x="47" y="332.5" fill="#8b949e" font-size="11" text-anchor="end" font-family="-apple-system,BlinkMacSystemFont,Segoe UI,Helvetica,Arial,sans-serif">10</text>
  <line x1="55" y1="317.0" x2="880" y2="317.0" stroke="#21262d" stroke-width="1"/>
  <text x="47" y="321.0" fill="#8b949e" font-size="11" text-anchor="end" font-family="-apple-system,BlinkMacSystemFont,Segoe UI,Helvetica,Arial,sans-serif">20</text>
  <line x1="55" y1="305.5" x2="880" y2="305.5" stroke="#21262d" stroke-width="1"/>
  <text x="47" y="309.5" fill="#8b949e" font-size="11" text-anchor="end" font-family="-apple-system,BlinkMacSystemFont,Segoe UI,Helvetica,Arial,sans-serif">30</text>
  <line x1="55" y1="294.0" x2="880" y2="294.0" stroke="#21262d" stroke-width="1"/>
  <text x="47" y="298.0" fill="#8b949e" font-size="11" text-anchor="end" font-family="-apple-system,BlinkMacSystemFont,Segoe UI,Helvetica,Arial,sans-serif">40</text>
  <line x1="55" y1="282.5" x2="880" y2="282.5" stroke="#21262d" stroke-width="1"/>
  <text x="47" y="286.5" fill="#8b949e" font-size="11" text-anchor="end" font-family="-apple-system,BlinkMacSystemFont,Segoe UI,Helvetica,Arial,sans-serif">50</text>
  <line x1="55" y1="271.0" x2="880" y2="271.0" stroke="#21262d" stroke-width="1"/>
  <text x="47" y="275.0" fill="#8b949e" font-size="11" text-anchor="end" font-family="-apple-system,BlinkMacSystemFont,Segoe UI,Helvetica,Arial,sans-serif">60</text>
  <line x1="55" y1="259.4" x2="880" y2="259.4" stroke="#21262d" stroke-width="1"/>
  <text x="47" y="263.4" fill="#8b949e" font-size="11" text-anchor="end" font-family="-apple-system,BlinkMacSystemFont,Segoe UI,Helvetica,Arial,sans-serif">70</text>
  <line x1="55" y1="247.9" x2="880" y2="247.9" stroke="#21262d" stroke-width="1"/>
  <text x="47" y="251.9" fill="#8b949e" font-size="11" text-anchor="end" font-family="-apple-system,BlinkMacSystemFont,Segoe UI,Helvetica,Arial,sans-serif">80</text>
  <line x1="55" y1="236.4" x2="880" y2="236.4" stroke="#21262d" stroke-width="1"/>
  <text x="47" y="240.4" fill="#8b949e" font-size="11" text-anchor="end" font-family="-apple-system,BlinkMacSystemFont,Segoe UI,Helvetica,Arial,sans-serif">90</text>
  <line x1="55" y1="224.9" x2="880" y2="224.9" stroke="#21262d" stroke-width="1"/>
  <text x="47" y="228.9" fill="#8b949e" font-size="11" text-anchor="end" font-family="-apple-system,BlinkMacSystemFont,Segoe UI,Helvetica,Arial,sans-serif">100</text>
  <line x1="55" y1="213.4" x2="880" y2="213.4" stroke="#21262d" stroke-width="1"/>
  <text x="47" y="217.4" fill="#8b949e" font-size="11" text-anchor="end" font-family="-apple-system,BlinkMacSystemFont,Segoe UI,Helvetica,Arial,sans-serif">110</text>
  <line x1="55" y1="201.9" x2="880" y2="201.9" stroke="#21262d" stroke-width="1"/>
  <text x="47" y="205.9" fill="#8b949e" font-size="11" text-anchor="end" font-family="-apple-system,BlinkMacSystemFont,Segoe UI,Helvetica,Arial,sans-serif">120</text>
  <line x1="55" y1="190.4" x2="880" y2="190.4" stroke="#21262d" stroke-width="1"/>
  <text x="47" y="194.4" fill="#8b949e" font-size="11" text-anchor="end" font-family="-apple-system,BlinkMacSystemFont,Segoe UI,Helvetica,Arial,sans-serif">130</text>
  <line x1="55" y1="178.9" x2="880" y2="178.9" stroke="#21262d" stroke-width="1"/>
  <text x="47" y="182.9" fill="#8b949e" font-size="11" text-anchor="end" font-family="-apple-system,BlinkMacSystemFont,Segoe UI,Helvetica,Arial,sans-serif">140</text>
  <line x1="55" y1="167.4" x2="880" y2="167.4" stroke="#21262d" stroke-width="1"/>
  <text x="47" y="171.4" fill="#8b949e" font-size="11" text-anchor="end" font-family="-apple-system,BlinkMacSystemFont,Segoe UI,Helvetica,Arial,sans-serif">150</text>
  <line x1="55" y1="155.9" x2="880" y2="155.9" stroke="#21262d" stroke-width="1"/>
  <text x="47" y="159.9" fill="#8b949e" font-size="11" text-anchor="end" font-family="-apple-system,BlinkMacSystemFont,Segoe UI,Helvetica,Arial,sans-serif">160</text>
  <line x1="55" y1="144.4" x2="880" y2="144.4" stroke="#21262d" stroke-width="1"/>
  <text x="47" y="148.4" fill="#8b949e" font-size="11" text-anchor="end" font-family="-apple-system,BlinkMacSystemFont,Segoe UI,Helvetica,Arial,sans-serif">170</text>
  <line x1="55" y1="132.9" x2="880" y2="132.9" stroke="#21262d" stroke-width="1"/>
  <text x="47" y="136.9" fill="#8b949e" font-size="11" text-anchor="end" font-family="-apple-system,BlinkMacSystemFont,Segoe UI,Helvetica,Arial,sans-serif">180</text>
  <line x1="55" y1="121.3" x2="880" y2="121.3" stroke="#21262d" stroke-width="1"/>
  <text x="47" y="125.3" fill="#8b949e" font-size="11" text-anchor="end" font-family="-apple-system,BlinkMacSystemFont,Segoe UI,Helvetica,Arial,sans-serif">190</text>
  <line x1="55" y1="109.8" x2="880" y2="109.8" stroke="#21262d" stroke-width="1"/>
  <text x="47" y="113.8" fill="#8b949e" font-size="11" text-anchor="end" font-family="-apple-system,BlinkMacSystemFont,Segoe UI,Helvetica,Arial,sans-serif">200</text>
  <line x1="55" y1="98.3" x2="880" y2="98.3" stroke="#21262d" stroke-width="1"/>
  <text x="47" y="102.3" fill="#8b949e" font-size="11" text-anchor="end" font-family="-apple-system,BlinkMacSystemFont,Segoe UI,Helvetica,Arial,sans-serif">210</text>
  <line x1="55" y1="86.8" x2="880" y2="86.8" stroke="#21262d" stroke-width="1"/>
  <text x="47" y="90.8" fill="#8b949e" font-size="11" text-anchor="end" font-family="-apple-system,BlinkMacSystemFont,Segoe UI,Helvetica,Arial,sans-serif">220</text>
  <line x1="55" y1="75.3" x2="880" y2="75.3" stroke="#21262d" stroke-width="1"/>
  <text x="47" y="79.3" fill="#8b949e" font-size="11" text-anchor="end" font-family="-apple-system,BlinkMacSystemFont,Segoe UI,Helvetica,Arial,sans-serif">230</text>
  <line x1="55" y1="63.8" x2="880" y2="63.8" stroke="#21262d" stroke-width="1"/>
  <text x="47" y="67.8" fill="#8b949e" font-size="11" text-anchor="end" font-family="-apple-system,BlinkMacSystemFont,Segoe UI,Helvetica,Arial,sans-serif">240</text>
  <line x1="55" y1="52.3" x2="880" y2="52.3" stroke="#21262d" stroke-width="1"/>
  <text x="47" y="56.3" fill="#8b949e" font-size="11" text-anchor="end" font-family="-apple-system,BlinkMacSystemFont,Segoe UI,Helvetica,Arial,sans-serif">250</text>
  <line x1="55.0" y1="50" x2="55.0" y2="340" stroke="#21262d" stroke-width="1" stroke-dasharray="4,4"/>
  <text x="55.0" y="360" fill="#8b949e" font-size="10" text-anchor="middle" font-family="-apple-system,BlinkMacSystemFont,Segoe UI,Helvetica,Arial,sans-serif">May 02</text>
  <line x1="168.8" y1="50" x2="168.8" y2="340" stroke="#21262d" stroke-width="1" stroke-dasharray="4,4"/>
  <text x="168.8" y="360" fill="#8b949e" font-size="10" text-anchor="middle" font-family="-apple-system,BlinkMacSystemFont,Segoe UI,Helvetica,Arial,sans-serif">May 10</text>
  <line x1="282.6" y1="50" x2="282.6" y2="340" stroke="#21262d" stroke-width="1" stroke-dasharray="4,4"/>
  <text x="282.6" y="360" fill="#8b949e" font-size="10" text-anchor="middle" font-family="-apple-system,BlinkMacSystemFont,Segoe UI,Helvetica,Arial,sans-serif">May 18</text>
  <line x1="396.4" y1="50" x2="396.4" y2="340" stroke="#21262d" stroke-width="1" stroke-dasharray="4,4"/>
  <text x="396.4" y="360" fill="#8b949e" font-size="10" text-anchor="middle" font-family="-apple-system,BlinkMacSystemFont,Segoe UI,Helvetica,Arial,sans-serif">May 26</text>
  <line x1="510.2" y1="50" x2="510.2" y2="340" stroke="#21262d" stroke-width="1" stroke-dasharray="4,4"/>
  <text x="510.2" y="360" fill="#8b949e" font-size="10" text-anchor="middle" font-family="-apple-system,BlinkMacSystemFont,Segoe UI,Helvetica,Arial,sans-serif">Jun 03</text>
  <line x1="624.0" y1="50" x2="624.0" y2="340" stroke="#21262d" stroke-width="1" stroke-dasharray="4,4"/>
  <text x="624.0" y="360" fill="#8b949e" font-size="10" text-anchor="middle" font-family="-apple-system,BlinkMacSystemFont,Segoe UI,Helvetica,Arial,sans-serif">Jun 11</text>
  <line x1="737.8" y1="50" x2="737.8" y2="340" stroke="#21262d" stroke-width="1" stroke-dasharray="4,4"/>
  <text x="737.8" y="360" fill="#8b949e" font-size="10" text-anchor="middle" font-family="-apple-system,BlinkMacSystemFont,Segoe UI,Helvetica,Arial,sans-serif">Jun 19</text>
  <line x1="851.6" y1="50" x2="851.6" y2="340" stroke="#21262d" stroke-width="1" stroke-dasharray="4,4"/>
  <text x="851.6" y="360" fill="#8b949e" font-size="10" text-anchor="middle" font-family="-apple-system,BlinkMacSystemFont,Segoe UI,Helvetica,Arial,sans-serif">Jun 27</text>
  <line x1="880.0" y1="50" x2="880.0" y2="340" stroke="#21262d" stroke-width="1" stroke-dasharray="4,4"/>
  <text x="880.0" y="360" fill="#8b949e" font-size="10" text-anchor="middle" font-family="-apple-system,BlinkMacSystemFont,Segoe UI,Helvetica,Arial,sans-serif">Jun 29</text>
  <path d="M55.0,340.0L69.2,326.2L83.4,318.1L97.7,313.5L111.9,306.6L126.1,302.0L140.3,298.6L154.6,298.6L168.8,298.6L183.0,298.6L197.2,298.6L211.5,298.6L225.7,298.6L239.9,298.6L254.1,297.4L268.4,292.8L282.6,288.2L296.8,282.5L311.0,275.6L325.3,268.7L339.5,261.7L353.7,256.0L367.9,251.4L382.2,249.1L396.4,245.6L410.6,233.0L424.8,231.8L439.1,226.1L453.3,218.0L467.5,212.3L481.7,207.7L495.9,207.7L510.2,207.7L524.4,207.7L538.6,207.7L552.8,207.7L567.1,200.8L581.3,191.5L595.5,188.1L609.7,181.2L624.0,176.6L638.2,169.7L652.4,159.3L666.6,153.6L680.9,147.8L695.1,142.1L709.3,131.7L723.5,124.8L737.8,115.6L752.0,108.7L766.2,102.9L780.4,98.3L794.7,91.4L808.9,83.4L823.1,78.8L837.3,75.3L851.6,67.3L865.8,60.4L880.0,55.8L880.0,340.0L55.0,340.0Z" fill="url(#gO)"/>
  <path d="M55.0,338.8L69.2,338.8L83.4,338.8L97.7,338.8L111.9,338.8L126.1,338.8L140.3,338.8L154.6,338.8L168.8,338.8L183.0,338.8L197.2,338.8L211.5,338.8L225.7,338.8L239.9,338.8L254.1,338.8L268.4,335.4L282.6,335.4L296.8,335.4L311.0,335.4L325.3,335.4L339.5,335.4L353.7,335.4L367.9,334.2L382.2,330.8L396.4,330.8L410.6,329.6L424.8,329.6L439.1,329.6L453.3,329.6L467.5,329.6L481.7,327.3L495.9,327.3L510.2,327.3L524.4,327.3L538.6,327.3L552.8,327.3L567.1,327.3L581.3,325.0L595.5,311.2L609.7,311.2L624.0,311.2L638.2,311.2L652.4,302.0L666.6,302.0L680.9,302.0L695.1,302.0L709.3,302.0L723.5,299.7L737.8,299.7L752.0,298.6L766.2,297.4L780.4,296.3L794.7,295.1L808.9,292.8L823.1,288.2L837.3,287.1L851.6,285.9L865.8,285.9L880.0,285.9L880.0,340.0L55.0,340.0Z" fill="url(#gR)"/>
  <path d="M55.0,340.0L69.2,326.2L83.4,318.1L97.7,313.5L111.9,306.6L126.1,302.0L140.3,298.6L154.6,298.6L168.8,298.6L183.0,298.6L197.2,298.6L211.5,298.6L225.7,298.6L239.9,298.6L254.1,297.4L268.4,292.8L282.6,288.2L296.8,282.5L311.0,275.6L325.3,268.7L339.5,261.7L353.7,256.0L367.9,251.4L382.2,249.1L396.4,245.6L410.6,233.0L424.8,231.8L439.1,226.1L453.3,218.0L467.5,212.3L481.7,207.7L495.9,207.7L510.2,207.7L524.4,207.7L538.6,207.7L552.8,207.7L567.1,200.8L581.3,191.5L595.5,188.1L609.7,181.2L624.0,176.6L638.2,169.7L652.4,159.3L666.6,153.6L680.9,147.8L695.1,142.1L709.3,131.7L723.5,124.8L737.8,115.6L752.0,108.7L766.2,102.9L780.4,98.3L794.7,91.4L808.9,83.4L823.1,78.8L837.3,75.3L851.6,67.3L865.8,60.4L880.0,55.8" fill="none" stroke="#58a6ff" stroke-width="2.5" stroke-linecap="round" stroke-linejoin="round"/>
  <path d="M55.0,338.8L69.2,338.8L83.4,338.8L97.7,338.8L111.9,338.8L126.1,338.8L140.3,338.8L154.6,338.8L168.8,338.8L183.0,338.8L197.2,338.8L211.5,338.8L225.7,338.8L239.9,338.8L254.1,338.8L268.4,335.4L282.6,335.4L296.8,335.4L311.0,335.4L325.3,335.4L339.5,335.4L353.7,335.4L367.9,334.2L382.2,330.8L396.4,330.8L410.6,329.6L424.8,329.6L439.1,329.6L453.3,329.6L467.5,329.6L481.7,327.3L495.9,327.3L510.2,327.3L524.4,327.3L538.6,327.3L552.8,327.3L567.1,327.3L581.3,325.0L595.5,311.2L609.7,311.2L624.0,311.2L638.2,311.2L652.4,302.0L666.6,302.0L680.9,302.0L695.1,302.0L709.3,302.0L723.5,299.7L737.8,299.7L752.0,298.6L766.2,297.4L780.4,296.3L794.7,295.1L808.9,292.8L823.1,288.2L837.3,287.1L851.6,285.9L865.8,285.9L880.0,285.9" fill="none" stroke="#f78166" stroke-width="2.5" stroke-linecap="round" stroke-linejoin="round"/>
  <path d="M55.0,340.0L69.2,331.9L83.4,326.2L97.7,323.9L111.9,318.1L126.1,319.3L140.3,315.8L154.6,317.0L168.8,317.0L183.0,318.1L197.2,318.1L211.5,318.1L225.7,318.1L239.9,318.1L254.1,317.0L268.4,315.8L282.6,314.7L296.8,311.2L311.0,304.3L325.3,299.7L339.5,295.1L353.7,291.7L367.9,291.7L382.2,292.8L396.4,295.1L410.6,290.5L424.8,289.4L439.1,289.4L453.3,285.9L467.5,291.7L481.7,288.2L495.9,288.2L510.2,288.2L524.4,288.2L538.6,295.1L552.8,295.1L567.1,294.0L581.3,299.7L595.5,340.0L609.7,340.0L624.0,340.0L638.2,340.0L652.4,335.4L666.6,335.4L680.9,333.1L695.1,333.1L709.3,331.9L723.5,328.5L737.8,329.6L752.0,327.3L766.2,327.3L780.4,329.6L794.7,328.5L808.9,329.6L823.1,326.2L837.3,327.3L851.6,327.3L865.8,321.6L880.0,320.4" fill="none" stroke="#3fb950" stroke-width="2.5" stroke-linecap="round" stroke-linejoin="round"/>
  <path d="M55.0,340.0L69.2,340.0L83.4,338.8L97.7,337.7L111.9,337.7L126.1,336.5L140.3,336.5L154.6,335.4L168.8,335.4L183.0,335.4L197.2,335.4L211.5,335.4L225.7,335.4L239.9,335.4L254.1,335.4L268.4,334.2L282.6,331.9L296.8,330.8L311.0,330.8L325.3,330.8L339.5,328.5L353.7,328.5L367.9,328.5L382.2,327.3L396.4,327.3L410.6,320.4L424.8,320.4L439.1,315.8L453.3,312.4L467.5,307.8L481.7,306.6L495.9,306.6L510.2,306.6L524.4,306.6L538.6,304.3L552.8,304.3L567.1,302.0L581.3,298.6L595.5,296.3L609.7,289.4L624.0,284.8L638.2,277.9L652.4,274.4L666.6,269.8L680.9,267.5L695.1,261.7L709.3,252.5L723.5,249.1L737.8,242.2L752.0,238.7L766.2,233.0L780.4,226.1L794.7,220.3L808.9,211.1L823.1,210.0L837.3,207.7L851.6,201.9L865.8,201.9L880.0,198.5" fill="none" stroke="#d2a8ff" stroke-width="2.5" stroke-linecap="round" stroke-linejoin="round"/>
  <path d="M55.0,340.0L69.2,334.2L83.4,333.1L97.7,331.9L111.9,330.8L126.1,326.2L140.3,326.2L154.6,326.2L168.8,326.2L183.0,325.0L197.2,325.0L211.5,325.0L225.7,325.0L239.9,325.0L254.1,325.0L268.4,322.7L282.6,321.6L296.8,320.4L311.0,320.4L325.3,318.1L339.5,318.1L353.7,315.8L367.9,311.2L382.2,308.9L396.4,303.2L410.6,302.0L424.8,302.0L439.1,300.9L453.3,299.7L467.5,292.8L481.7,292.8L495.9,292.8L510.2,292.8L524.4,292.8L538.6,288.2L552.8,288.2L567.1,284.8L581.3,273.3L595.5,231.8L609.7,231.8L624.0,231.8L638.2,231.8L652.4,229.5L666.6,228.4L680.9,227.2L695.1,227.2L709.3,227.2L723.5,227.2L737.8,223.8L752.0,222.6L766.2,222.6L780.4,222.6L794.7,222.6L808.9,222.6L823.1,222.6L837.3,220.3L851.6,218.0L865.8,216.9L880.0,216.9" fill="none" stroke="#f85149" stroke-width="2.5" stroke-linecap="round" stroke-linejoin="round"/>
  <circle cx="880.0" cy="55.8" r="3.5" fill="#58a6ff"/>
  <text x="889.0" y="59.8" fill="#58a6ff" font-size="11" font-weight="600" font-family="-apple-system,BlinkMacSystemFont,Segoe UI,Helvetica,Arial,sans-serif">247</text>
  <circle cx="880.0" cy="285.9" r="3.5" fill="#f78166"/>
  <text x="889.0" y="289.9" fill="#f78166" font-size="11" font-weight="600" font-family="-apple-system,BlinkMacSystemFont,Segoe UI,Helvetica,Arial,sans-serif">47</text>
  <circle cx="880.0" cy="320.4" r="3.5" fill="#3fb950"/>
  <text x="889.0" y="324.4" fill="#3fb950" font-size="11" font-weight="600" font-family="-apple-system,BlinkMacSystemFont,Segoe UI,Helvetica,Arial,sans-serif">17</text>
  <circle cx="880.0" cy="198.5" r="3.5" fill="#d2a8ff"/>
  <text x="889.0" y="202.5" fill="#d2a8ff" font-size="11" font-weight="600" font-family="-apple-system,BlinkMacSystemFont,Segoe UI,Helvetica,Arial,sans-serif">123</text>
  <circle cx="880.0" cy="216.9" r="3.5" fill="#f85149"/>
  <text x="889.0" y="220.9" fill="#f85149" font-size="11" font-weight="600" font-family="-apple-system,BlinkMacSystemFont,Segoe UI,Helvetica,Arial,sans-serif">107</text>
  <line x1="55" y1="368" x2="71" y2="368" stroke="#f78166" stroke-width="2.5" stroke-linecap="round"/>
  <text x="77" y="372" fill="#8b949e" font-size="11" font-family="-apple-system,BlinkMacSystemFont,Segoe UI,Helvetica,Arial,sans-serif">Repos</text>
  <line x1="255" y1="368" x2="271" y2="368" stroke="#58a6ff" stroke-width="2.5" stroke-linecap="round"/>
  <text x="277" y="372" fill="#8b949e" font-size="11" font-family="-apple-system,BlinkMacSystemFont,Segoe UI,Helvetica,Arial,sans-serif">PRs Opened</text>
  <line x1="455" y1="368" x2="471" y2="368" stroke="#3fb950" stroke-width="2.5" stroke-linecap="round"/>
  <text x="477" y="372" fill="#8b949e" font-size="11" font-family="-apple-system,BlinkMacSystemFont,Segoe UI,Helvetica,Arial,sans-serif">Open PRs</text>
  <line x1="55" y1="386" x2="71" y2="386" stroke="#d2a8ff" stroke-width="2.5" stroke-linecap="round"/>
  <text x="77" y="390" fill="#8b949e" font-size="11" font-family="-apple-system,BlinkMacSystemFont,Segoe UI,Helvetica,Arial,sans-serif">Merged</text>
  <line x1="255" y1="386" x2="271" y2="386" stroke="#f85149" stroke-width="2.5" stroke-linecap="round"/>
  <text x="277" y="390" fill="#8b949e" font-size="11" font-family="-apple-system,BlinkMacSystemFont,Segoe UI,Helvetica,Arial,sans-serif">Closed</text>
</svg>