<svg xmlns="http://www.w3.org/2000/svg" viewBox="0 0 960 400" width="960" height="400">
  <defs>
    <linearGradient id="gR" x1="0" y1="0" x2="0" y2="1">
      <stop offset="0%" stop-color="#f78166" stop-opacity="0.25"/>
      <stop offset="100%" stop-color="#f78166" stop-opacity="0.02"/>
    </linearGradient>
    <linearGradient id="gO" x1="0" y1="0" x2="0" y2="1">
      <stop offset="0%" stop-color="#58a6ff" stop-opacity="0.25"/>
      <stop offset="100%" stop-color="#58a6ff" stop-opacity="0.02"/>
    </linearGradient>
    <linearGradient id="gOp" x1="0" y1="0" x2="0" y2="1">
      <stop offset="0%" stop-color="#3fb950" stop-opacity="0.25"/>
      <stop offset="100%" stop-color="#3fb950" stop-opacity="0.02"/>
    </linearGradient>
    <linearGradient id="gM" x1="0" y1="0" x2="0" y2="1">
      <stop offset="0%" stop-color="#d2a8ff" stop-opacity="0.25"/>
      <stop offset="100%" stop-color="#d2a8ff" stop-opacity="0.02"/>
    </linearGradient>
    <linearGradient id="gC" x1="0" y1="0" x2="0" y2="1">
      <stop offset="0%" stop-color="#f85149" stop-opacity="0.25"/>
      <stop offset="100%" stop-color="#f85149" stop-opacity="0.02"/>
    </linearGradient>
  </defs>
  <rect width="960" height="400" rx="12" fill="#0d1117"/>
  <rect width="960" height="400" rx="12" fill="none" stroke="#30363d" stroke-width="1"/>
  <text x="55" y="30" fill="#e6edf3" font-size="15" font-weight="600" font-family="-apple-system,BlinkMacSystemFont,Segoe UI,Helvetica,Arial,sans-serif">GitHub Activity — jlaportebot</text>
  <text x="880" y="30" fill="#8b949e" font-size="11" text-anchor="end" font-family="-apple-system,BlinkMacSystemFont,Segoe UI,Helvetica,Arial,sans-serif">Updated Jun 23, 2026</text>
  <line x1="55" y1="340.0" x2="880" y2="340.0" stroke="#21262d" stroke-width="1"/>
  <text x="47" y="344.0" fill="#8b949e" font-size="11" text-anchor="end" font-family="-apple-system,BlinkMacSystemFont,Segoe UI,Helvetica,Arial,sans-serif">0</text>
  <line x1="55" y1="326.5" x2="880" y2="326.5" stroke="#21262d" stroke-width="1"/>
  <text x="47" y="330.5" fill="#8b949e" font-size="11" text-anchor="end" font-family="-apple-system,BlinkMacSystemFont,Segoe UI,Helvetica,Arial,sans-serif">10</text>
  <line x1="55" y1="313.0" x2="880" y2="313.0" stroke="#21262d" stroke-width="1"/>
  <text x="47" y="317.0" fill="#8b949e" font-size="11" text-anchor="end" font-family="-apple-system,BlinkMacSystemFont,Segoe UI,Helvetica,Arial,sans-serif">20</text>
  <line x1="55" y1="299.5" x2="880" y2="299.5" stroke="#21262d" stroke-width="1"/>
  <text x="47" y="303.5" fill="#8b949e" font-size="11" text-anchor="end" font-family="-apple-system,BlinkMacSystemFont,Segoe UI,Helvetica,Arial,sans-serif">30</text>
  <line x1="55" y1="286.0" x2="880" y2="286.0" stroke="#21262d" stroke-width="1"/>
  <text x="47" y="290.0" fill="#8b949e" font-size="11" text-anchor="end" font-family="-apple-system,BlinkMacSystemFont,Segoe UI,Helvetica,Arial,sans-serif">40</text>
  <line x1="55" y1="272.6" x2="880" y2="272.6" stroke="#21262d" stroke-width="1"/>
  <text x="47" y="276.6" fill="#8b949e" font-size="11" text-anchor="end" font-family="-apple-system,BlinkMacSystemFont,Segoe UI,Helvetica,Arial,sans-serif">50</text>
  <line x1="55" y1="259.1" x2="880" y2="259.1" stroke="#21262d" stroke-width="1"/>
  <text x="47" y="263.1" fill="#8b949e" font-size="11" text-anchor="end" font-family="-apple-system,BlinkMacSystemFont,Segoe UI,Helvetica,Arial,sans-serif">60</text>
  <line x1="55" y1="245.6" x2="880" y2="245.6" stroke="#21262d" stroke-width="1"/>
  <text x="47" y="249.6" fill="#8b949e" font-size="11" text-anchor="end" font-family="-apple-system,BlinkMacSystemFont,Segoe UI,Helvetica,Arial,sans-serif">70</text>
  <line x1="55" y1="232.1" x2="880" y2="232.1" stroke="#21262d" stroke-width="1"/>
  <text x="47" y="236.1" fill="#8b949e" font-size="11" text-anchor="end" font-family="-apple-system,BlinkMacSystemFont,Segoe UI,Helvetica,Arial,sans-serif">80</text>
  <line x1="55" y1="218.6" x2="880" y2="218.6" stroke="#21262d" stroke-width="1"/>
  <text x="47" y="222.6" fill="#8b949e" font-size="11" text-anchor="end" font-family="-apple-system,BlinkMacSystemFont,Segoe UI,Helvetica,Arial,sans-serif">90</text>
  <line x1="55" y1="205.1" x2="880" y2="205.1" stroke="#21262d" stroke-width="1"/>
  <text x="47" y="209.1" fill="#8b949e" font-size="11" text-anchor="end" font-family="-apple-system,BlinkMacSystemFont,Segoe UI,Helvetica,Arial,sans-serif">100</text>
  <line x1="55" y1="191.6" x2="880" y2="191.6" stroke="#21262d" stroke-width="1"/>
  <text x="47" y="195.6" fill="#8b949e" font-size="11" text-anchor="end" font-family="-apple-system,BlinkMacSystemFont,Segoe UI,Helvetica,Arial,sans-serif">110</text>
  <line x1="55" y1="178.1" x2="880" y2="178.1" stroke="#21262d" stroke-width="1"/>
  <text x="47" y="182.1" fill="#8b949e" font-size="11" text-anchor="end" font-family="-apple-system,BlinkMacSystemFont,Segoe UI,Helvetica,Arial,sans-serif">120</text>
  <line x1="55" y1="164.7" x2="880" y2="164.7" stroke="#21262d" stroke-width="1"/>
  <text x="47" y="168.7" fill="#8b949e" font-size="11" text-anchor="end" font-family="-apple-system,BlinkMacSystemFont,Segoe UI,Helvetica,Arial,sans-serif">130</text>
  <line x1="55" y1="151.2" x2="880" y2="151.2" stroke="#21262d" stroke-width="1"/>
  <text x="47" y="155.2" fill="#8b949e" font-size="11" text-anchor="end" font-family="-apple-system,BlinkMacSystemFont,Segoe UI,Helvetica,Arial,sans-serif">140</text>
  <line x1="55" y1="137.7" x2="880" y2="137.7" stroke="#21262d" stroke-width="1"/>
  <text x="47" y="141.7" fill="#8b949e" font-size="11" text-anchor="end" font-family="-apple-system,BlinkMacSystemFont,Segoe UI,Helvetica,Arial,sans-serif">150</text>
  <line x1="55" y1="124.2" x2="880" y2="124.2" stroke="#21262d" stroke-width="1"/>
  <text x="47" y="128.2" fill="#8b949e" font-size="11" text-anchor="end" font-family="-apple-system,BlinkMacSystemFont,Segoe UI,Helvetica,Arial,sans-serif">160</text>
  <line x1="55" y1="110.7" x2="880" y2="110.7" stroke="#21262d" stroke-width="1"/>
  <text x="47" y="114.7" fill="#8b949e" font-size="11" text-anchor="end" font-family="-apple-system,BlinkMacSystemFont,Segoe UI,Helvetica,Arial,sans-serif">170</text>
  <line x1="55" y1="97.2" x2="880" y2="97.2" stroke="#21262d" stroke-width="1"/>
  <text x="47" y="101.2" fill="#8b949e" font-size="11" text-anchor="end" font-family="-apple-system,BlinkMacSystemFont,Segoe UI,Helvetica,Arial,sans-serif">180</text>
  <line x1="55" y1="83.7" x2="880" y2="83.7" stroke="#21262d" stroke-width="1"/>
  <text x="47" y="87.7" fill="#8b949e" font-size="11" text-anchor="end" font-family="-apple-system,BlinkMacSystemFont,Segoe UI,Helvetica,Arial,sans-serif">190</text>
  <line x1="55" y1="70.2" x2="880" y2="70.2" stroke="#21262d" stroke-width="1"/>
  <text x="47" y="74.2" fill="#8b949e" font-size="11" text-anchor="end" font-family="-apple-system,BlinkMacSystemFont,Segoe UI,Helvetica,Arial,sans-serif">200</text>
  <line x1="55" y1="56.7" x2="880" y2="56.7" stroke="#21262d" stroke-width="1"/>
  <text x="47" y="60.7" fill="#8b949e" font-size="11" text-anchor="end" font-family="-apple-system,BlinkMacSystemFont,Segoe UI,Helvetica,Arial,sans-serif">210</text>
  <line x1="55.0" y1="50" x2="55.0" y2="340" stroke="#21262d" stroke-width="1" stroke-dasharray="4,4"/>
  <text x="55.0" y="360" fill="#8b949e" font-size="10" text-anchor="middle" font-family="-apple-system,BlinkMacSystemFont,Segoe UI,Helvetica,Arial,sans-serif">May 02</text>
  <line x1="166.1" y1="50" x2="166.1" y2="340" stroke="#21262d" stroke-width="1" stroke-dasharray="4,4"/>
  <text x="166.1" y="360" fill="#8b949e" font-size="10" text-anchor="middle" font-family="-apple-system,BlinkMacSystemFont,Segoe UI,Helvetica,Arial,sans-serif">May 09</text>
  <line x1="277.1" y1="50" x2="277.1" y2="340" stroke="#21262d" stroke-width="1" stroke-dasharray="4,4"/>
  <text x="277.1" y="360" fill="#8b949e" font-size="10" text-anchor="middle" font-family="-apple-system,BlinkMacSystemFont,Segoe UI,Helvetica,Arial,sans-serif">May 16</text>
  <line x1="388.2" y1="50" x2="388.2" y2="340" stroke="#21262d" stroke-width="1" stroke-dasharray="4,4"/>
  <text x="388.2" y="360" fill="#8b949e" font-size="10" text-anchor="middle" font-family="-apple-system,BlinkMacSystemFont,Segoe UI,Helvetica,Arial,sans-serif">May 23</text>
  <line x1="499.2" y1="50" x2="499.2" y2="340" stroke="#21262d" stroke-width="1" stroke-dasharray="4,4"/>
  <text x="499.2" y="360" fill="#8b949e" font-size="10" text-anchor="middle" font-family="-apple-system,BlinkMacSystemFont,Segoe UI,Helvetica,Arial,sans-serif">May 30</text>
  <line x1="610.3" y1="50" x2="610.3" y2="340" stroke="#21262d" stroke-width="1" stroke-dasharray="4,4"/>
  <text x="610.3" y="360" fill="#8b949e" font-size="10" text-anchor="middle" font-family="-apple-system,BlinkMacSystemFont,Segoe UI,Helvetica,Arial,sans-serif">Jun 06</text>
  <line x1="721.3" y1="50" x2="721.3" y2="340" stroke="#21262d" stroke-width="1" stroke-dasharray="4,4"/>
  <text x="721.3" y="360" fill="#8b949e" font-size="10" text-anchor="middle" font-family="-apple-system,BlinkMacSystemFont,Segoe UI,Helvetica,Arial,sans-serif">Jun 13</text>
  <line x1="832.4" y1="50" x2="832.4" y2="340" stroke="#21262d" stroke-width="1" stroke-dasharray="4,4"/>
  <text x="832.4" y="360" fill="#8b949e" font-size="10" text-anchor="middle" font-family="-apple-system,BlinkMacSystemFont,Segoe UI,Helvetica,Arial,sans-serif">Jun 20</text>
  <line x1="880.0" y1="50" x2="880.0" y2="340" stroke="#21262d" stroke-width="1" stroke-dasharray="4,4"/>
  <text x="880.0" y="360" fill="#8b949e" font-size="10" text-anchor="middle" font-family="-apple-system,BlinkMacSystemFont,Segoe UI,Helvetica,Arial,sans-serif">Jun 23</text>
  <path d="M55.0,340.0L70.9,323.8L86.7,314.4L102.6,309.0L118.5,300.9L134.3,295.5L150.2,291.4L166.1,291.4L181.9,291.4L197.8,291.4L213.7,291.4L229.5,291.4L245.4,291.4L261.2,291.4L277.1,290.1L293.0,284.7L308.8,279.3L324.7,272.6L340.6,264.5L356.4,256.4L372.3,248.3L388.2,241.5L404.0,236.1L419.9,233.4L435.8,229.4L451.6,214.6L467.5,213.2L483.4,206.5L499.2,197.0L515.1,190.3L531.0,184.9L546.8,184.9L562.7,184.9L578.6,184.9L594.4,184.9L610.3,184.9L626.2,176.8L642.0,166.0L657.9,162.0L673.8,153.9L689.6,148.5L705.5,140.4L721.3,128.2L737.2,121.5L753.1,114.7L768.9,108.0L784.8,95.9L800.7,87.8L816.5,77.0L832.4,68.9L848.3,62.1L864.1,56.7L880.0,56.7L880.0,340.0L55.0,340.0Z" fill="url(#gO)"/>
  <path d="M55.0,338.7L70.9,338.7L86.7,338.7L102.6,338.7L118.5,338.7L134.3,338.7L150.2,338.7L166.1,338.7L181.9,338.7L197.8,338.7L213.7,338.7L229.5,338.7L245.4,338.7L261.2,338.7L277.1,338.7L293.0,334.6L308.8,334.6L324.7,334.6L340.6,334.6L356.4,334.6L372.3,334.6L388.2,334.6L404.0,333.3L419.9,329.2L435.8,329.2L451.6,327.9L467.5,327.9L483.4,327.9L499.2,327.9L515.1,327.9L531.0,325.2L546.8,325.2L562.7,325.2L578.6,325.2L594.4,325.2L610.3,325.2L626.2,325.2L642.0,322.5L657.9,306.3L673.8,306.3L689.6,306.3L705.5,306.3L721.3,295.5L737.2,295.5L753.1,295.5L768.9,295.5L784.8,295.5L800.7,292.8L816.5,292.8L832.4,291.4L848.3,290.1L864.1,288.7L880.0,288.7L880.0,340.0L55.0,340.0Z" fill="url(#gR)"/>
  <path d="M55.0,340.0L70.9,323.8L86.7,314.4L102.6,309.0L118.5,300.9L134.3,295.5L150.2,291.4L166.1,291.4L181.9,291.4L197.8,291.4L213.7,291.4L229.5,291.4L245.4,291.4L261.2,291.4L277.1,290.1L293.0,284.7L308.8,279.3L324.7,272.6L340.6,264.5L356.4,256.4L372.3,248.3L388.2,241.5L404.0,236.1L419.9,233.4L435.8,229.4L451.6,214.6L467.5,213.2L483.4,206.5L499.2,197.0L515.1,190.3L531.0,184.9L546.8,184.9L562.7,184.9L578.6,184.9L594.4,184.9L610.3,184.9L626.2,176.8L642.0,166.0L657.9,162.0L673.8,153.9L689.6,148.5L705.5,140.4L721.3,128.2L737.2,121.5L753.1,114.7L768.9,108.0L784.8,95.9L800.7,87.8L816.5,77.0L832.4,68.9L848.3,62.1L864.1,56.7L880.0,56.7" fill="none" stroke="#58a6ff" stroke-width="2.5" stroke-linecap="round" stroke-linejoin="round"/>
  <path d="M55.0,338.7L70.9,338.7L86.7,338.7L102.6,338.7L118.5,338.7L134.3,338.7L150.2,338.7L166.1,338.7L181.9,338.7L197.8,338.7L213.7,338.7L229.5,338.7L245.4,338.7L261.2,338.7L277.1,338.7L293.0,334.6L308.8,334.6L324.7,334.6L340.6,334.6L356.4,334.6L372.3,334.6L388.2,334.6L404.0,333.3L419.9,329.2L435.8,329.2L451.6,327.9L467.5,327.9L483.4,327.9L499.2,327.9L515.1,327.9L531.0,325.2L546.8,325.2L562.7,325.2L578.6,325.2L594.4,325.2L610.3,325.2L626.2,325.2L642.0,322.5L657.9,306.3L673.8,306.3L689.6,306.3L705.5,306.3L721.3,295.5L737.2,295.5L753.1,295.5L768.9,295.5L784.8,295.5L800.7,292.8L816.5,292.8L832.4,291.4L848.3,290.1L864.1,288.7L880.0,288.7" fill="none" stroke="#f78166" stroke-width="2.5" stroke-linecap="round" stroke-linejoin="round"/>
  <path d="M55.0,340.0L70.9,330.6L86.7,323.8L102.6,321.1L118.5,314.4L134.3,315.7L150.2,311.7L166.1,313.0L181.9,313.0L197.8,314.4L213.7,314.4L229.5,314.4L245.4,314.4L261.2,314.4L277.1,313.0L293.0,311.7L308.8,310.3L324.7,306.3L340.6,298.2L356.4,292.8L372.3,287.4L388.2,283.3L404.0,283.3L419.9,284.7L435.8,287.4L451.6,282.0L467.5,280.7L483.4,280.7L499.2,276.6L515.1,283.3L531.0,279.3L546.8,279.3L562.7,279.3L578.6,279.3L594.4,287.4L610.3,287.4L626.2,286.0L642.0,292.8L657.9,340.0L673.8,340.0L689.6,340.0L705.5,340.0L721.3,334.6L737.2,334.6L753.1,331.9L768.9,331.9L784.8,330.6L800.7,326.5L816.5,327.9L832.4,325.2L848.3,325.2L864.1,327.9L880.0,327.9" fill="none" stroke="#3fb950" stroke-width="2.5" stroke-linecap="round" stroke-linejoin="round"/>
  <path d="M55.0,340.0L70.9,340.0L86.7,338.7L102.6,337.3L118.5,337.3L134.3,336.0L150.2,336.0L166.1,334.6L181.9,334.6L197.8,334.6L213.7,334.6L229.5,334.6L245.4,334.6L261.2,334.6L277.1,334.6L293.0,333.3L308.8,330.6L324.7,329.2L340.6,329.2L356.4,329.2L372.3,326.5L388.2,326.5L404.0,326.5L419.9,325.2L435.8,325.2L451.6,317.1L467.5,317.1L483.4,311.7L499.2,307.6L515.1,302.2L531.0,300.9L546.8,300.9L562.7,300.9L578.6,300.9L594.4,298.2L610.3,298.2L626.2,295.5L642.0,291.4L657.9,288.7L673.8,280.7L689.6,275.3L705.5,267.2L721.3,263.1L737.2,257.7L753.1,255.0L768.9,248.3L784.8,237.5L800.7,233.4L816.5,225.3L832.4,221.3L848.3,214.6L864.1,206.5L880.0,206.5" fill="none" stroke="#d2a8ff" stroke-width="2.5" stroke-linecap="round" stroke-linejoin="round"/>
  <path d="M55.0,340.0L70.9,333.3L86.7,331.9L102.6,330.6L118.5,329.2L134.3,323.8L150.2,323.8L166.1,323.8L181.9,323.8L197.8,322.5L213.7,322.5L229.5,322.5L245.4,322.5L261.2,322.5L277.1,322.5L293.0,319.8L308.8,318.4L324.7,317.1L340.6,317.1L356.4,314.4L372.3,314.4L388.2,311.7L404.0,306.3L419.9,303.6L435.8,296.8L451.6,295.5L467.5,295.5L483.4,294.1L499.2,292.8L515.1,284.7L531.0,284.7L546.8,284.7L562.7,284.7L578.6,284.7L594.4,279.3L610.3,279.3L626.2,275.3L642.0,261.8L657.9,213.2L673.8,213.2L689.6,213.2L705.5,213.2L721.3,210.5L737.2,209.2L753.1,207.8L768.9,207.8L784.8,207.8L800.7,207.8L816.5,203.8L832.4,202.4L848.3,202.4L864.1,202.4L880.0,202.4" fill="none" stroke="#f85149" stroke-width="2.5" stroke-linecap="round" stroke-linejoin="round"/>
  <circle cx="880.0" cy="56.7" r="3.5" fill="#58a6ff"/>
  <text x="889.0" y="60.7" fill="#58a6ff" font-size="11" font-weight="600" font-family="-apple-system,BlinkMacSystemFont,Segoe UI,Helvetica,Arial,sans-serif">210</text>
  <circle cx="880.0" cy="288.7" r="3.5" fill="#f78166"/>
  <text x="889.0" y="292.7" fill="#f78166" font-size="11" font-weight="600" font-family="-apple-system,BlinkMacSystemFont,Segoe UI,Helvetica,Arial,sans-serif">38</text>
  <circle cx="880.0" cy="327.9" r="3.5" fill="#3fb950"/>
  <text x="889.0" y="331.9" fill="#3fb950" font-size="11" font-weight="600" font-family="-apple-system,BlinkMacSystemFont,Segoe UI,Helvetica,Arial,sans-serif">9</text>
  <circle cx="880.0" cy="206.5" r="3.5" fill="#d2a8ff"/>
  <text x="889.0" y="210.5" fill="#d2a8ff" font-size="11" font-weight="600" font-family="-apple-system,BlinkMacSystemFont,Segoe UI,Helvetica,Arial,sans-serif">99</text>
  <circle cx="880.0" cy="202.4" r="3.5" fill="#f85149"/>
  <text x="889.0" y="206.4" fill="#f85149" font-size="11" font-weight="600" font-family="-apple-system,BlinkMacSystemFont,Segoe UI,Helvetica,Arial,sans-serif">102</text>
  <line x1="55" y1="368" x2="71" y2="368" stroke="#f78166" stroke-width="2.5" stroke-linecap="round"/>
  <text x="77" y="372" fill="#8b949e" font-size="11" font-family="-apple-system,BlinkMacSystemFont,Segoe UI,Helvetica,Arial,sans-serif">Repos</text>
  <line x1="255" y1="368" x2="271" y2="368" stroke="#58a6ff" stroke-width="2.5" stroke-linecap="round"/>
  <text x="277" y="372" fill="#8b949e" font-size="11" font-family="-apple-system,BlinkMacSystemFont,Segoe UI,Helvetica,Arial,sans-serif">PRs Opened</text>
  <line x1="455" y1="368" x2="471" y2="368" stroke="#3fb950" stroke-width="2.5" stroke-linecap="round"/>
  <text x="477" y="372" fill="#8b949e" font-size="11" font-family="-apple-system,BlinkMacSystemFont,Segoe UI,Helvetica,Arial,sans-serif">Open PRs</text>
  <line x1="55" y1="386" x2="71" y2="386" stroke="#d2a8ff" stroke-width="2.5" stroke-linecap="round"/>
  <text x="77" y="390" fill="#8b949e" font-size="11" font-family="-apple-system,BlinkMacSystemFont,Segoe UI,Helvetica,Arial,sans-serif">Merged</text>
  <line x1="255" y1="386" x2="271" y2="386" stroke="#f85149" stroke-width="2.5" stroke-linecap="round"/>
  <text x="277" y="390" fill="#8b949e" font-size="11" font-family="-apple-system,BlinkMacSystemFont,Segoe UI,Helvetica,Arial,sans-serif">Closed</text>
</svg>