<svg xmlns="http://www.w3.org/2000/svg" viewBox="0 0 960 400" width="960" height="400">
  <defs>
    <linearGradient id="gR" x1="0" y1="0" x2="0" y2="1">
      <stop offset="0%" stop-color="#f78166" stop-opacity="0.25"/>
      <stop offset="100%" stop-color="#f78166" stop-opacity="0.02"/>
    </linearGradient>
    <linearGradient id="gO" x1="0" y1="0" x2="0" y2="1">
      <stop offset="0%" stop-color="#58a6ff" stop-opacity="0.25"/>
      <stop offset="100%" stop-color="#58a6ff" stop-opacity="0.02"/>
    </linearGradient>
    <linearGradient id="gOp" x1="0" y1="0" x2="0" y2="1">
      <stop offset="0%" stop-color="#3fb950" stop-opacity="0.25"/>
      <stop offset="100%" stop-color="#3fb950" stop-opacity="0.02"/>
    </linearGradient>
    <linearGradient id="gM" x1="0" y1="0" x2="0" y2="1">
      <stop offset="0%" stop-color="#d2a8ff" stop-opacity="0.25"/>
      <stop offset="100%" stop-color="#d2a8ff" stop-opacity="0.02"/>
    </linearGradient>
    <linearGradient id="gC" x1="0" y1="0" x2="0" y2="1">
      <stop offset="0%" stop-color="#f85149" stop-opacity="0.25"/>
      <stop offset="100%" stop-color="#f85149" stop-opacity="0.02"/>
    </linearGradient>
  </defs>
  <rect width="960" height="400" rx="12" fill="#0d1117"/>
  <rect width="960" height="400" rx="12" fill="none" stroke="#30363d" stroke-width="1"/>
  <text x="55" y="30" fill="#e6edf3" font-size="15" font-weight="600" font-family="-apple-system,BlinkMacSystemFont,Segoe UI,Helvetica,Arial,sans-serif">GitHub Activity — jlaportebot</text>
  <text x="880" y="30" fill="#8b949e" font-size="11" text-anchor="end" font-family="-apple-system,BlinkMacSystemFont,Segoe UI,Helvetica,Arial,sans-serif">Updated Jul 23, 2026</text>
  <line x1="55" y1="340.0" x2="880" y2="340.0" stroke="#21262d" stroke-width="1"/>
  <text x="47" y="344.0" fill="#8b949e" font-size="11" text-anchor="end" font-family="-apple-system,BlinkMacSystemFont,Segoe UI,Helvetica,Arial,sans-serif">0</text>
  <line x1="55" y1="329.6" x2="880" y2="329.6" stroke="#21262d" stroke-width="1"/>
  <text x="47" y="333.6" fill="#8b949e" font-size="11" text-anchor="end" font-family="-apple-system,BlinkMacSystemFont,Segoe UI,Helvetica,Arial,sans-serif">10</text>
  <line x1="55" y1="319.3" x2="880" y2="319.3" stroke="#21262d" stroke-width="1"/>
  <text x="47" y="323.3" fill="#8b949e" font-size="11" text-anchor="end" font-family="-apple-system,BlinkMacSystemFont,Segoe UI,Helvetica,Arial,sans-serif">20</text>
  <line x1="55" y1="308.9" x2="880" y2="308.9" stroke="#21262d" stroke-width="1"/>
  <text x="47" y="312.9" fill="#8b949e" font-size="11" text-anchor="end" font-family="-apple-system,BlinkMacSystemFont,Segoe UI,Helvetica,Arial,sans-serif">30</text>
  <line x1="55" y1="298.6" x2="880" y2="298.6" stroke="#21262d" stroke-width="1"/>
  <text x="47" y="302.6" fill="#8b949e" font-size="11" text-anchor="end" font-family="-apple-system,BlinkMacSystemFont,Segoe UI,Helvetica,Arial,sans-serif">40</text>
  <line x1="55" y1="288.2" x2="880" y2="288.2" stroke="#21262d" stroke-width="1"/>
  <text x="47" y="292.2" fill="#8b949e" font-size="11" text-anchor="end" font-family="-apple-system,BlinkMacSystemFont,Segoe UI,Helvetica,Arial,sans-serif">50</text>
  <line x1="55" y1="277.9" x2="880" y2="277.9" stroke="#21262d" stroke-width="1"/>
  <text x="47" y="281.9" fill="#8b949e" font-size="11" text-anchor="end" font-family="-apple-system,BlinkMacSystemFont,Segoe UI,Helvetica,Arial,sans-serif">60</text>
  <line x1="55" y1="267.5" x2="880" y2="267.5" stroke="#21262d" stroke-width="1"/>
  <text x="47" y="271.5" fill="#8b949e" font-size="11" text-anchor="end" font-family="-apple-system,BlinkMacSystemFont,Segoe UI,Helvetica,Arial,sans-serif">70</text>
  <line x1="55" y1="257.1" x2="880" y2="257.1" stroke="#21262d" stroke-width="1"/>
  <text x="47" y="261.1" fill="#8b949e" font-size="11" text-anchor="end" font-family="-apple-system,BlinkMacSystemFont,Segoe UI,Helvetica,Arial,sans-serif">80</text>
  <line x1="55" y1="246.8" x2="880" y2="246.8" stroke="#21262d" stroke-width="1"/>
  <text x="47" y="250.8" fill="#8b949e" font-size="11" text-anchor="end" font-family="-apple-system,BlinkMacSystemFont,Segoe UI,Helvetica,Arial,sans-serif">90</text>
  <line x1="55" y1="236.4" x2="880" y2="236.4" stroke="#21262d" stroke-width="1"/>
  <text x="47" y="240.4" fill="#8b949e" font-size="11" text-anchor="end" font-family="-apple-system,BlinkMacSystemFont,Segoe UI,Helvetica,Arial,sans-serif">100</text>
  <line x1="55" y1="226.1" x2="880" y2="226.1" stroke="#21262d" stroke-width="1"/>
  <text x="47" y="230.1" fill="#8b949e" font-size="11" text-anchor="end" font-family="-apple-system,BlinkMacSystemFont,Segoe UI,Helvetica,Arial,sans-serif">110</text>
  <line x1="55" y1="215.7" x2="880" y2="215.7" stroke="#21262d" stroke-width="1"/>
  <text x="47" y="219.7" fill="#8b949e" font-size="11" text-anchor="end" font-family="-apple-system,BlinkMacSystemFont,Segoe UI,Helvetica,Arial,sans-serif">120</text>
  <line x1="55" y1="205.4" x2="880" y2="205.4" stroke="#21262d" stroke-width="1"/>
  <text x="47" y="209.4" fill="#8b949e" font-size="11" text-anchor="end" font-family="-apple-system,BlinkMacSystemFont,Segoe UI,Helvetica,Arial,sans-serif">130</text>
  <line x1="55" y1="195.0" x2="880" y2="195.0" stroke="#21262d" stroke-width="1"/>
  <text x="47" y="199.0" fill="#8b949e" font-size="11" text-anchor="end" font-family="-apple-system,BlinkMacSystemFont,Segoe UI,Helvetica,Arial,sans-serif">140</text>
  <line x1="55" y1="184.6" x2="880" y2="184.6" stroke="#21262d" stroke-width="1"/>
  <text x="47" y="188.6" fill="#8b949e" font-size="11" text-anchor="end" font-family="-apple-system,BlinkMacSystemFont,Segoe UI,Helvetica,Arial,sans-serif">150</text>
  <line x1="55" y1="174.3" x2="880" y2="174.3" stroke="#21262d" stroke-width="1"/>
  <text x="47" y="178.3" fill="#8b949e" font-size="11" text-anchor="end" font-family="-apple-system,BlinkMacSystemFont,Segoe UI,Helvetica,Arial,sans-serif">160</text>
  <line x1="55" y1="163.9" x2="880" y2="163.9" stroke="#21262d" stroke-width="1"/>
  <text x="47" y="167.9" fill="#8b949e" font-size="11" text-anchor="end" font-family="-apple-system,BlinkMacSystemFont,Segoe UI,Helvetica,Arial,sans-serif">170</text>
  <line x1="55" y1="153.6" x2="880" y2="153.6" stroke="#21262d" stroke-width="1"/>
  <text x="47" y="157.6" fill="#8b949e" font-size="11" text-anchor="end" font-family="-apple-system,BlinkMacSystemFont,Segoe UI,Helvetica,Arial,sans-serif">180</text>
  <line x1="55" y1="143.2" x2="880" y2="143.2" stroke="#21262d" stroke-width="1"/>
  <text x="47" y="147.2" fill="#8b949e" font-size="11" text-anchor="end" font-family="-apple-system,BlinkMacSystemFont,Segoe UI,Helvetica,Arial,sans-serif">190</text>
  <line x1="55" y1="132.9" x2="880" y2="132.9" stroke="#21262d" stroke-width="1"/>
  <text x="47" y="136.9" fill="#8b949e" font-size="11" text-anchor="end" font-family="-apple-system,BlinkMacSystemFont,Segoe UI,Helvetica,Arial,sans-serif">200</text>
  <line x1="55" y1="122.5" x2="880" y2="122.5" stroke="#21262d" stroke-width="1"/>
  <text x="47" y="126.5" fill="#8b949e" font-size="11" text-anchor="end" font-family="-apple-system,BlinkMacSystemFont,Segoe UI,Helvetica,Arial,sans-serif">210</text>
  <line x1="55" y1="112.1" x2="880" y2="112.1" stroke="#21262d" stroke-width="1"/>
  <text x="47" y="116.1" fill="#8b949e" font-size="11" text-anchor="end" font-family="-apple-system,BlinkMacSystemFont,Segoe UI,Helvetica,Arial,sans-serif">220</text>
  <line x1="55" y1="101.8" x2="880" y2="101.8" stroke="#21262d" stroke-width="1"/>
  <text x="47" y="105.8" fill="#8b949e" font-size="11" text-anchor="end" font-family="-apple-system,BlinkMacSystemFont,Segoe UI,Helvetica,Arial,sans-serif">230</text>
  <line x1="55" y1="91.4" x2="880" y2="91.4" stroke="#21262d" stroke-width="1"/>
  <text x="47" y="95.4" fill="#8b949e" font-size="11" text-anchor="end" font-family="-apple-system,BlinkMacSystemFont,Segoe UI,Helvetica,Arial,sans-serif">240</text>
  <line x1="55" y1="81.1" x2="880" y2="81.1" stroke="#21262d" stroke-width="1"/>
  <text x="47" y="85.1" fill="#8b949e" font-size="11" text-anchor="end" font-family="-apple-system,BlinkMacSystemFont,Segoe UI,Helvetica,Arial,sans-serif">250</text>
  <line x1="55" y1="70.7" x2="880" y2="70.7" stroke="#21262d" stroke-width="1"/>
  <text x="47" y="74.7" fill="#8b949e" font-size="11" text-anchor="end" font-family="-apple-system,BlinkMacSystemFont,Segoe UI,Helvetica,Arial,sans-serif">260</text>
  <line x1="55" y1="60.4" x2="880" y2="60.4" stroke="#21262d" stroke-width="1"/>
  <text x="47" y="64.4" fill="#8b949e" font-size="11" text-anchor="end" font-family="-apple-system,BlinkMacSystemFont,Segoe UI,Helvetica,Arial,sans-serif">270</text>
  <line x1="55" y1="50.0" x2="880" y2="50.0" stroke="#21262d" stroke-width="1"/>
  <text x="47" y="54.0" fill="#8b949e" font-size="11" text-anchor="end" font-family="-apple-system,BlinkMacSystemFont,Segoe UI,Helvetica,Arial,sans-serif">280</text>
  <line x1="55.0" y1="50" x2="55.0" y2="340" stroke="#21262d" stroke-width="1" stroke-dasharray="4,4"/>
  <text x="55.0" y="360" fill="#8b949e" font-size="10" text-anchor="middle" font-family="-apple-system,BlinkMacSystemFont,Segoe UI,Helvetica,Arial,sans-serif">May 02</text>
  <line x1="165.7" y1="50" x2="165.7" y2="340" stroke="#21262d" stroke-width="1" stroke-dasharray="4,4"/>
  <text x="165.7" y="360" fill="#8b949e" font-size="10" text-anchor="middle" font-family="-apple-system,BlinkMacSystemFont,Segoe UI,Helvetica,Arial,sans-serif">May 13</text>
  <line x1="276.3" y1="50" x2="276.3" y2="340" stroke="#21262d" stroke-width="1" stroke-dasharray="4,4"/>
  <text x="276.3" y="360" fill="#8b949e" font-size="10" text-anchor="middle" font-family="-apple-system,BlinkMacSystemFont,Segoe UI,Helvetica,Arial,sans-serif">May 24</text>
  <line x1="387.0" y1="50" x2="387.0" y2="340" stroke="#21262d" stroke-width="1" stroke-dasharray="4,4"/>
  <text x="387.0" y="360" fill="#8b949e" font-size="10" text-anchor="middle" font-family="-apple-system,BlinkMacSystemFont,Segoe UI,Helvetica,Arial,sans-serif">Jun 04</text>
  <line x1="497.7" y1="50" x2="497.7" y2="340" stroke="#21262d" stroke-width="1" stroke-dasharray="4,4"/>
  <text x="497.7" y="360" fill="#8b949e" font-size="10" text-anchor="middle" font-family="-apple-system,BlinkMacSystemFont,Segoe UI,Helvetica,Arial,sans-serif">Jun 15</text>
  <line x1="608.4" y1="50" x2="608.4" y2="340" stroke="#21262d" stroke-width="1" stroke-dasharray="4,4"/>
  <text x="608.4" y="360" fill="#8b949e" font-size="10" text-anchor="middle" font-family="-apple-system,BlinkMacSystemFont,Segoe UI,Helvetica,Arial,sans-serif">Jun 26</text>
  <line x1="719.0" y1="50" x2="719.0" y2="340" stroke="#21262d" stroke-width="1" stroke-dasharray="4,4"/>
  <text x="719.0" y="360" fill="#8b949e" font-size="10" text-anchor="middle" font-family="-apple-system,BlinkMacSystemFont,Segoe UI,Helvetica,Arial,sans-serif">Jul 07</text>
  <line x1="829.7" y1="50" x2="829.7" y2="340" stroke="#21262d" stroke-width="1" stroke-dasharray="4,4"/>
  <text x="829.7" y="360" fill="#8b949e" font-size="10" text-anchor="middle" font-family="-apple-system,BlinkMacSystemFont,Segoe UI,Helvetica,Arial,sans-serif">Jul 18</text>
  <line x1="880.0" y1="50" x2="880.0" y2="340" stroke="#21262d" stroke-width="1" stroke-dasharray="4,4"/>
  <text x="880.0" y="360" fill="#8b949e" font-size="10" text-anchor="middle" font-family="-apple-system,BlinkMacSystemFont,Segoe UI,Helvetica,Arial,sans-serif">Jul 23</text>
  <path d="M55.0,340.0L65.1,327.6L75.1,320.3L85.2,316.2L95.2,310.0L105.3,305.8L115.4,302.7L125.4,302.7L135.5,302.7L145.5,302.7L155.6,302.7L165.7,302.7L175.7,302.7L185.8,302.7L195.9,301.7L205.9,297.5L216.0,293.4L226.0,288.2L236.1,282.0L246.2,275.8L256.2,269.6L266.3,264.4L276.3,260.2L286.4,258.2L296.5,255.1L306.5,243.7L316.6,242.6L326.6,237.5L336.7,230.2L346.8,225.0L356.8,220.9L366.9,220.9L377.0,220.9L387.0,220.9L397.1,220.9L407.1,220.9L417.2,214.7L427.3,206.4L437.3,203.3L447.4,197.1L457.4,192.9L467.5,186.7L477.6,177.4L487.6,172.2L497.7,167.0L507.7,161.9L517.8,152.5L527.9,146.3L537.9,138.0L548.0,131.8L558.0,126.6L568.1,122.5L578.2,116.3L588.2,109.0L598.3,104.9L608.4,101.8L618.4,94.5L628.5,88.3L638.5,80.0L648.6,80.0L658.7,78.0L668.7,78.0L678.8,78.0L688.8,75.9L698.9,72.8L709.0,69.7L719.0,68.6L729.1,63.5L739.1,63.5L749.2,63.5L759.3,63.5L769.3,63.5L779.4,63.5L789.5,63.5L799.5,63.5L809.6,63.5L819.6,63.5L829.7,63.5L839.8,61.4L849.8,61.4L859.9,58.3L869.9,55.2L880.0,55.2L880.0,340.0L55.0,340.0Z" fill="url(#gO)"/>
  <path d="M55.0,339.0L65.1,339.0L75.1,339.0L85.2,339.0L95.2,339.0L105.3,339.0L115.4,339.0L125.4,339.0L135.5,339.0L145.5,339.0L155.6,339.0L165.7,339.0L175.7,339.0L185.8,339.0L195.9,339.0L205.9,335.9L216.0,335.9L226.0,335.9L236.1,335.9L246.2,335.9L256.2,335.9L266.3,335.9L276.3,334.8L286.4,331.7L296.5,331.7L306.5,330.7L316.6,330.7L326.6,330.7L336.7,330.7L346.8,330.7L356.8,328.6L366.9,328.6L377.0,328.6L387.0,328.6L397.1,328.6L407.1,328.6L417.2,328.6L427.3,326.5L437.3,314.1L447.4,314.1L457.4,314.1L467.5,314.1L477.6,305.8L487.6,305.8L497.7,305.8L507.7,305.8L517.8,305.8L527.9,303.8L537.9,303.8L548.0,302.7L558.0,301.7L568.1,300.6L578.2,299.6L588.2,297.5L598.3,293.4L608.4,292.4L618.4,291.3L628.5,291.3L638.5,291.3L648.6,291.3L658.7,291.3L668.7,291.3L678.8,291.3L688.8,291.3L698.9,291.3L709.0,291.3L719.0,291.3L729.1,291.3L739.1,290.3L749.2,289.2L759.3,286.1L769.3,286.1L779.4,285.1L789.5,285.1L799.5,285.1L809.6,285.1L819.6,285.1L829.7,285.1L839.8,285.1L849.8,285.1L859.9,285.1L869.9,284.1L880.0,284.1L880.0,340.0L55.0,340.0Z" fill="url(#gR)"/>
  <path d="M55.0,340.0L65.1,327.6L75.1,320.3L85.2,316.2L95.2,310.0L105.3,305.8L115.4,302.7L125.4,302.7L135.5,302.7L145.5,302.7L155.6,302.7L165.7,302.7L175.7,302.7L185.8,302.7L195.9,301.7L205.9,297.5L216.0,293.4L226.0,288.2L236.1,282.0L246.2,275.8L256.2,269.6L266.3,264.4L276.3,260.2L286.4,258.2L296.5,255.1L306.5,243.7L316.6,242.6L326.6,237.5L336.7,230.2L346.8,225.0L356.8,220.9L366.9,220.9L377.0,220.9L387.0,220.9L397.1,220.9L407.1,220.9L417.2,214.7L427.3,206.4L437.3,203.3L447.4,197.1L457.4,192.9L467.5,186.7L477.6,177.4L487.6,172.2L497.7,167.0L507.7,161.9L517.8,152.5L527.9,146.3L537.9,138.0L548.0,131.8L558.0,126.6L568.1,122.5L578.2,116.3L588.2,109.0L598.3,104.9L608.4,101.8L618.4,94.5L628.5,88.3L638.5,80.0L648.6,80.0L658.7,78.0L668.7,78.0L678.8,78.0L688.8,75.9L698.9,72.8L709.0,69.7L719.0,68.6L729.1,63.5L739.1,63.5L749.2,63.5L759.3,63.5L769.3,63.5L779.4,63.5L789.5,63.5L799.5,63.5L809.6,63.5L819.6,63.5L829.7,63.5L839.8,61.4L849.8,61.4L859.9,58.3L869.9,55.2L880.0,55.2" fill="none" stroke="#58a6ff" stroke-width="2.5" stroke-linecap="round" stroke-linejoin="round"/>
  <path d="M55.0,339.0L65.1,339.0L75.1,339.0L85.2,339.0L95.2,339.0L105.3,339.0L115.4,339.0L125.4,339.0L135.5,339.0L145.5,339.0L155.6,339.0L165.7,339.0L175.7,339.0L185.8,339.0L195.9,339.0L205.9,335.9L216.0,335.9L226.0,335.9L236.1,335.9L246.2,335.9L256.2,335.9L266.3,335.9L276.3,334.8L286.4,331.7L296.5,331.7L306.5,330.7L316.6,330.7L326.6,330.7L336.7,330.7L346.8,330.7L356.8,328.6L366.9,328.6L377.0,328.6L387.0,328.6L397.1,328.6L407.1,328.6L417.2,328.6L427.3,326.5L437.3,314.1L447.4,314.1L457.4,314.1L467.5,314.1L477.6,305.8L487.6,305.8L497.7,305.8L507.7,305.8L517.8,305.8L527.9,303.8L537.9,303.8L548.0,302.7L558.0,301.7L568.1,300.6L578.2,299.6L588.2,297.5L598.3,293.4L608.4,292.4L618.4,291.3L628.5,291.3L638.5,291.3L648.6,291.3L658.7,291.3L668.7,291.3L678.8,291.3L688.8,291.3L698.9,291.3L709.0,291.3L719.0,291.3L729.1,291.3L739.1,290.3L749.2,289.2L759.3,286.1L769.3,286.1L779.4,285.1L789.5,285.1L799.5,285.1L809.6,285.1L819.6,285.1L829.7,285.1L839.8,285.1L849.8,285.1L859.9,285.1L869.9,284.1L880.0,284.1" fill="none" stroke="#f78166" stroke-width="2.5" stroke-linecap="round" stroke-linejoin="round"/>
  <path d="M55.0,340.0L65.1,332.8L75.1,327.6L85.2,325.5L95.2,320.3L105.3,321.4L115.4,318.2L125.4,319.3L135.5,319.3L145.5,320.3L155.6,320.3L165.7,320.3L175.7,320.3L185.8,320.3L195.9,319.3L205.9,318.2L216.0,317.2L226.0,314.1L236.1,307.9L246.2,303.8L256.2,299.6L266.3,296.5L276.3,296.5L286.4,297.5L296.5,299.6L306.5,295.5L316.6,294.4L326.6,294.4L336.7,291.3L346.8,296.5L356.8,293.4L366.9,293.4L377.0,293.4L387.0,293.4L397.1,299.6L407.1,299.6L417.2,298.6L427.3,303.8L437.3,340.0L447.4,340.0L457.4,340.0L467.5,340.0L477.6,335.9L487.6,335.9L497.7,333.8L507.7,333.8L517.8,332.8L527.9,329.6L537.9,330.7L548.0,328.6L558.0,328.6L568.1,330.7L578.2,329.6L588.2,330.7L598.3,327.6L608.4,328.6L618.4,328.6L628.5,323.4L638.5,320.3L648.6,320.3L658.7,321.4L668.7,324.5L678.8,324.5L688.8,323.4L698.9,322.4L709.0,322.4L719.0,321.4L729.1,319.3L739.1,319.3L749.2,319.3L759.3,319.3L769.3,319.3L779.4,319.3L789.5,319.3L799.5,319.3L809.6,319.3L819.6,319.3L829.7,319.3L839.8,319.3L849.8,319.3L859.9,319.3L869.9,319.3L880.0,319.3" fill="none" stroke="#3fb950" stroke-width="2.5" stroke-linecap="round" stroke-linejoin="round"/>
  <path d="M55.0,340.0L65.1,340.0L75.1,339.0L85.2,337.9L95.2,337.9L105.3,336.9L115.4,336.9L125.4,335.9L135.5,335.9L145.5,335.9L155.6,335.9L165.7,335.9L175.7,335.9L185.8,335.9L195.9,335.9L205.9,334.8L216.0,332.8L226.0,331.7L236.1,331.7L246.2,331.7L256.2,329.6L266.3,329.6L276.3,329.6L286.4,328.6L296.5,328.6L306.5,322.4L316.6,322.4L326.6,318.2L336.7,315.1L346.8,311.0L356.8,310.0L366.9,310.0L377.0,310.0L387.0,310.0L397.1,307.9L407.1,307.9L417.2,305.8L427.3,302.7L437.3,300.6L447.4,294.4L457.4,290.3L467.5,284.1L477.6,281.0L487.6,276.8L497.7,274.8L507.7,269.6L517.8,261.3L527.9,258.2L537.9,252.0L548.0,248.9L558.0,243.7L568.1,237.5L578.2,232.3L588.2,224.0L598.3,223.0L608.4,220.9L618.4,215.7L628.5,215.7L638.5,210.5L648.6,210.5L658.7,208.5L668.7,208.5L678.8,208.5L688.8,208.5L698.9,207.4L709.0,205.4L719.0,205.4L729.1,203.3L739.1,203.3L749.2,203.3L759.3,203.3L769.3,203.3L779.4,203.3L789.5,203.3L799.5,203.3L809.6,203.3L819.6,203.3L829.7,203.3L839.8,201.2L849.8,201.2L859.9,198.1L869.9,195.0L880.0,195.0" fill="none" stroke="#d2a8ff" stroke-width="2.5" stroke-linecap="round" stroke-linejoin="round"/>
  <path d="M55.0,340.0L65.1,334.8L75.1,333.8L85.2,332.8L95.2,331.7L105.3,327.6L115.4,327.6L125.4,327.6L135.5,327.6L145.5,326.5L155.6,326.5L165.7,326.5L175.7,326.5L185.8,326.5L195.9,326.5L205.9,324.5L216.0,323.4L226.0,322.4L236.1,322.4L246.2,320.3L256.2,320.3L266.3,318.2L276.3,314.1L286.4,312.0L296.5,306.9L306.5,305.8L316.6,305.8L326.6,304.8L336.7,303.8L346.8,297.5L356.8,297.5L366.9,297.5L377.0,297.5L387.0,297.5L397.1,293.4L407.1,293.4L417.2,290.3L427.3,279.9L437.3,242.6L447.4,242.6L457.4,242.6L467.5,242.6L477.6,240.6L487.6,239.5L497.7,238.5L507.7,238.5L517.8,238.5L527.9,238.5L537.9,235.4L548.0,234.4L558.0,234.4L568.1,234.4L578.2,234.4L588.2,234.4L598.3,234.4L608.4,232.3L618.4,230.2L628.5,229.2L638.5,229.2L648.6,229.2L658.7,228.1L668.7,225.0L678.8,225.0L688.8,224.0L698.9,223.0L709.0,221.9L719.0,221.9L729.1,220.9L739.1,220.9L749.2,220.9L759.3,220.9L769.3,220.9L779.4,220.9L789.5,220.9L799.5,220.9L809.6,220.9L819.6,220.9L829.7,220.9L839.8,220.9L849.8,220.9L859.9,220.9L869.9,220.9L880.0,220.9" fill="none" stroke="#f85149" stroke-width="2.5" stroke-linecap="round" stroke-linejoin="round"/>
  <circle cx="880.0" cy="55.2" r="3.5" fill="#58a6ff"/>
  <text x="889.0" y="59.2" fill="#58a6ff" font-size="11" font-weight="600" font-family="-apple-system,BlinkMacSystemFont,Segoe UI,Helvetica,Arial,sans-serif">275</text>
  <circle cx="880.0" cy="284.1" r="3.5" fill="#f78166"/>
  <text x="889.0" y="288.1" fill="#f78166" font-size="11" font-weight="600" font-family="-apple-system,BlinkMacSystemFont,Segoe UI,Helvetica,Arial,sans-serif">54</text>
  <circle cx="880.0" cy="319.3" r="3.5" fill="#3fb950"/>
  <text x="889.0" y="323.3" fill="#3fb950" font-size="11" font-weight="600" font-family="-apple-system,BlinkMacSystemFont,Segoe UI,Helvetica,Arial,sans-serif">20</text>
  <circle cx="880.0" cy="195.0" r="3.5" fill="#d2a8ff"/>
  <text x="889.0" y="199.0" fill="#d2a8ff" font-size="11" font-weight="600" font-family="-apple-system,BlinkMacSystemFont,Segoe UI,Helvetica,Arial,sans-serif">140</text>
  <circle cx="880.0" cy="220.9" r="3.5" fill="#f85149"/>
  <text x="889.0" y="224.9" fill="#f85149" font-size="11" font-weight="600" font-family="-apple-system,BlinkMacSystemFont,Segoe UI,Helvetica,Arial,sans-serif">115</text>
  <line x1="55" y1="368" x2="71" y2="368" stroke="#f78166" stroke-width="2.5" stroke-linecap="round"/>
  <text x="77" y="372" fill="#8b949e" font-size="11" font-family="-apple-system,BlinkMacSystemFont,Segoe UI,Helvetica,Arial,sans-serif">Repos</text>
  <line x1="255" y1="368" x2="271" y2="368" stroke="#58a6ff" stroke-width="2.5" stroke-linecap="round"/>
  <text x="277" y="372" fill="#8b949e" font-size="11" font-family="-apple-system,BlinkMacSystemFont,Segoe UI,Helvetica,Arial,sans-serif">PRs Opened</text>
  <line x1="455" y1="368" x2="471" y2="368" stroke="#3fb950" stroke-width="2.5" stroke-linecap="round"/>
  <text x="477" y="372" fill="#8b949e" font-size="11" font-family="-apple-system,BlinkMacSystemFont,Segoe UI,Helvetica,Arial,sans-serif">Open PRs</text>
  <line x1="55" y1="386" x2="71" y2="386" stroke="#d2a8ff" stroke-width="2.5" stroke-linecap="round"/>
  <text x="77" y="390" fill="#8b949e" font-size="11" font-family="-apple-system,BlinkMacSystemFont,Segoe UI,Helvetica,Arial,sans-serif">Merged</text>
  <line x1="255" y1="386" x2="271" y2="386" stroke="#f85149" stroke-width="2.5" stroke-linecap="round"/>
  <text x="277" y="390" fill="#8b949e" font-size="11" font-family="-apple-system,BlinkMacSystemFont,Segoe UI,Helvetica,Arial,sans-serif">Closed</text>
</svg>