<svg xmlns="http://www.w3.org/2000/svg" viewBox="0 0 960 400" width="960" height="400">
  <defs>
    <linearGradient id="gR" x1="0" y1="0" x2="0" y2="1">
      <stop offset="0%" stop-color="#f78166" stop-opacity="0.25"/>
      <stop offset="100%" stop-color="#f78166" stop-opacity="0.02"/>
    </linearGradient>
    <linearGradient id="gO" x1="0" y1="0" x2="0" y2="1">
      <stop offset="0%" stop-color="#58a6ff" stop-opacity="0.25"/>
      <stop offset="100%" stop-color="#58a6ff" stop-opacity="0.02"/>
    </linearGradient>
    <linearGradient id="gOp" x1="0" y1="0" x2="0" y2="1">
      <stop offset="0%" stop-color="#3fb950" stop-opacity="0.25"/>
      <stop offset="100%" stop-color="#3fb950" stop-opacity="0.02"/>
    </linearGradient>
    <linearGradient id="gM" x1="0" y1="0" x2="0" y2="1">
      <stop offset="0%" stop-color="#d2a8ff" stop-opacity="0.25"/>
      <stop offset="100%" stop-color="#d2a8ff" stop-opacity="0.02"/>
    </linearGradient>
    <linearGradient id="gC" x1="0" y1="0" x2="0" y2="1">
      <stop offset="0%" stop-color="#f85149" stop-opacity="0.25"/>
      <stop offset="100%" stop-color="#f85149" stop-opacity="0.02"/>
    </linearGradient>
  </defs>
  <rect width="960" height="400" rx="12" fill="#0d1117"/>
  <rect width="960" height="400" rx="12" fill="none" stroke="#30363d" stroke-width="1"/>
  <text x="55" y="30" fill="#e6edf3" font-size="15" font-weight="600" font-family="-apple-system,BlinkMacSystemFont,Segoe UI,Helvetica,Arial,sans-serif">GitHub Activity — jlaportebot</text>
  <text x="880" y="30" fill="#8b949e" font-size="11" text-anchor="end" font-family="-apple-system,BlinkMacSystemFont,Segoe UI,Helvetica,Arial,sans-serif">Updated Jun 20, 2026</text>
  <line x1="55" y1="340.0" x2="880" y2="340.0" stroke="#21262d" stroke-width="1"/>
  <text x="47" y="344.0" fill="#8b949e" font-size="11" text-anchor="end" font-family="-apple-system,BlinkMacSystemFont,Segoe UI,Helvetica,Arial,sans-serif">0</text>
  <line x1="55" y1="325.9" x2="880" y2="325.9" stroke="#21262d" stroke-width="1"/>
  <text x="47" y="329.9" fill="#8b949e" font-size="11" text-anchor="end" font-family="-apple-system,BlinkMacSystemFont,Segoe UI,Helvetica,Arial,sans-serif">10</text>
  <line x1="55" y1="311.7" x2="880" y2="311.7" stroke="#21262d" stroke-width="1"/>
  <text x="47" y="315.7" fill="#8b949e" font-size="11" text-anchor="end" font-family="-apple-system,BlinkMacSystemFont,Segoe UI,Helvetica,Arial,sans-serif">20</text>
  <line x1="55" y1="297.6" x2="880" y2="297.6" stroke="#21262d" stroke-width="1"/>
  <text x="47" y="301.6" fill="#8b949e" font-size="11" text-anchor="end" font-family="-apple-system,BlinkMacSystemFont,Segoe UI,Helvetica,Arial,sans-serif">30</text>
  <line x1="55" y1="283.4" x2="880" y2="283.4" stroke="#21262d" stroke-width="1"/>
  <text x="47" y="287.4" fill="#8b949e" font-size="11" text-anchor="end" font-family="-apple-system,BlinkMacSystemFont,Segoe UI,Helvetica,Arial,sans-serif">40</text>
  <line x1="55" y1="269.3" x2="880" y2="269.3" stroke="#21262d" stroke-width="1"/>
  <text x="47" y="273.3" fill="#8b949e" font-size="11" text-anchor="end" font-family="-apple-system,BlinkMacSystemFont,Segoe UI,Helvetica,Arial,sans-serif">50</text>
  <line x1="55" y1="255.1" x2="880" y2="255.1" stroke="#21262d" stroke-width="1"/>
  <text x="47" y="259.1" fill="#8b949e" font-size="11" text-anchor="end" font-family="-apple-system,BlinkMacSystemFont,Segoe UI,Helvetica,Arial,sans-serif">60</text>
  <line x1="55" y1="241.0" x2="880" y2="241.0" stroke="#21262d" stroke-width="1"/>
  <text x="47" y="245.0" fill="#8b949e" font-size="11" text-anchor="end" font-family="-apple-system,BlinkMacSystemFont,Segoe UI,Helvetica,Arial,sans-serif">70</text>
  <line x1="55" y1="226.8" x2="880" y2="226.8" stroke="#21262d" stroke-width="1"/>
  <text x="47" y="230.8" fill="#8b949e" font-size="11" text-anchor="end" font-family="-apple-system,BlinkMacSystemFont,Segoe UI,Helvetica,Arial,sans-serif">80</text>
  <line x1="55" y1="212.7" x2="880" y2="212.7" stroke="#21262d" stroke-width="1"/>
  <text x="47" y="216.7" fill="#8b949e" font-size="11" text-anchor="end" font-family="-apple-system,BlinkMacSystemFont,Segoe UI,Helvetica,Arial,sans-serif">90</text>
  <line x1="55" y1="198.5" x2="880" y2="198.5" stroke="#21262d" stroke-width="1"/>
  <text x="47" y="202.5" fill="#8b949e" font-size="11" text-anchor="end" font-family="-apple-system,BlinkMacSystemFont,Segoe UI,Helvetica,Arial,sans-serif">100</text>
  <line x1="55" y1="184.4" x2="880" y2="184.4" stroke="#21262d" stroke-width="1"/>
  <text x="47" y="188.4" fill="#8b949e" font-size="11" text-anchor="end" font-family="-apple-system,BlinkMacSystemFont,Segoe UI,Helvetica,Arial,sans-serif">110</text>
  <line x1="55" y1="170.2" x2="880" y2="170.2" stroke="#21262d" stroke-width="1"/>
  <text x="47" y="174.2" fill="#8b949e" font-size="11" text-anchor="end" font-family="-apple-system,BlinkMacSystemFont,Segoe UI,Helvetica,Arial,sans-serif">120</text>
  <line x1="55" y1="156.1" x2="880" y2="156.1" stroke="#21262d" stroke-width="1"/>
  <text x="47" y="160.1" fill="#8b949e" font-size="11" text-anchor="end" font-family="-apple-system,BlinkMacSystemFont,Segoe UI,Helvetica,Arial,sans-serif">130</text>
  <line x1="55" y1="142.0" x2="880" y2="142.0" stroke="#21262d" stroke-width="1"/>
  <text x="47" y="146.0" fill="#8b949e" font-size="11" text-anchor="end" font-family="-apple-system,BlinkMacSystemFont,Segoe UI,Helvetica,Arial,sans-serif">140</text>
  <line x1="55" y1="127.8" x2="880" y2="127.8" stroke="#21262d" stroke-width="1"/>
  <text x="47" y="131.8" fill="#8b949e" font-size="11" text-anchor="end" font-family="-apple-system,BlinkMacSystemFont,Segoe UI,Helvetica,Arial,sans-serif">150</text>
  <line x1="55" y1="113.7" x2="880" y2="113.7" stroke="#21262d" stroke-width="1"/>
  <text x="47" y="117.7" fill="#8b949e" font-size="11" text-anchor="end" font-family="-apple-system,BlinkMacSystemFont,Segoe UI,Helvetica,Arial,sans-serif">160</text>
  <line x1="55" y1="99.5" x2="880" y2="99.5" stroke="#21262d" stroke-width="1"/>
  <text x="47" y="103.5" fill="#8b949e" font-size="11" text-anchor="end" font-family="-apple-system,BlinkMacSystemFont,Segoe UI,Helvetica,Arial,sans-serif">170</text>
  <line x1="55" y1="85.4" x2="880" y2="85.4" stroke="#21262d" stroke-width="1"/>
  <text x="47" y="89.4" fill="#8b949e" font-size="11" text-anchor="end" font-family="-apple-system,BlinkMacSystemFont,Segoe UI,Helvetica,Arial,sans-serif">180</text>
  <line x1="55" y1="71.2" x2="880" y2="71.2" stroke="#21262d" stroke-width="1"/>
  <text x="47" y="75.2" fill="#8b949e" font-size="11" text-anchor="end" font-family="-apple-system,BlinkMacSystemFont,Segoe UI,Helvetica,Arial,sans-serif">190</text>
  <line x1="55" y1="57.1" x2="880" y2="57.1" stroke="#21262d" stroke-width="1"/>
  <text x="47" y="61.1" fill="#8b949e" font-size="11" text-anchor="end" font-family="-apple-system,BlinkMacSystemFont,Segoe UI,Helvetica,Arial,sans-serif">200</text>
  <line x1="55.0" y1="50" x2="55.0" y2="340" stroke="#21262d" stroke-width="1" stroke-dasharray="4,4"/>
  <text x="55.0" y="360" fill="#8b949e" font-size="10" text-anchor="middle" font-family="-apple-system,BlinkMacSystemFont,Segoe UI,Helvetica,Arial,sans-serif">May 02</text>
  <line x1="172.9" y1="50" x2="172.9" y2="340" stroke="#21262d" stroke-width="1" stroke-dasharray="4,4"/>
  <text x="172.9" y="360" fill="#8b949e" font-size="10" text-anchor="middle" font-family="-apple-system,BlinkMacSystemFont,Segoe UI,Helvetica,Arial,sans-serif">May 09</text>
  <line x1="290.7" y1="50" x2="290.7" y2="340" stroke="#21262d" stroke-width="1" stroke-dasharray="4,4"/>
  <text x="290.7" y="360" fill="#8b949e" font-size="10" text-anchor="middle" font-family="-apple-system,BlinkMacSystemFont,Segoe UI,Helvetica,Arial,sans-serif">May 16</text>
  <line x1="408.6" y1="50" x2="408.6" y2="340" stroke="#21262d" stroke-width="1" stroke-dasharray="4,4"/>
  <text x="408.6" y="360" fill="#8b949e" font-size="10" text-anchor="middle" font-family="-apple-system,BlinkMacSystemFont,Segoe UI,Helvetica,Arial,sans-serif">May 23</text>
  <line x1="526.4" y1="50" x2="526.4" y2="340" stroke="#21262d" stroke-width="1" stroke-dasharray="4,4"/>
  <text x="526.4" y="360" fill="#8b949e" font-size="10" text-anchor="middle" font-family="-apple-system,BlinkMacSystemFont,Segoe UI,Helvetica,Arial,sans-serif">May 30</text>
  <line x1="644.3" y1="50" x2="644.3" y2="340" stroke="#21262d" stroke-width="1" stroke-dasharray="4,4"/>
  <text x="644.3" y="360" fill="#8b949e" font-size="10" text-anchor="middle" font-family="-apple-system,BlinkMacSystemFont,Segoe UI,Helvetica,Arial,sans-serif">Jun 06</text>
  <line x1="762.1" y1="50" x2="762.1" y2="340" stroke="#21262d" stroke-width="1" stroke-dasharray="4,4"/>
  <text x="762.1" y="360" fill="#8b949e" font-size="10" text-anchor="middle" font-family="-apple-system,BlinkMacSystemFont,Segoe UI,Helvetica,Arial,sans-serif">Jun 13</text>
  <line x1="880.0" y1="50" x2="880.0" y2="340" stroke="#21262d" stroke-width="1" stroke-dasharray="4,4"/>
  <text x="880.0" y="360" fill="#8b949e" font-size="10" text-anchor="middle" font-family="-apple-system,BlinkMacSystemFont,Segoe UI,Helvetica,Arial,sans-serif">Jun 20</text>
  <path d="M55.0,340.0L71.8,323.0L88.7,313.1L105.5,307.5L122.3,299.0L139.2,293.3L156.0,289.1L172.9,289.1L189.7,289.1L206.5,289.1L223.4,289.1L240.2,289.1L257.0,289.1L273.9,289.1L290.7,287.7L307.6,282.0L324.4,276.3L341.2,269.3L358.1,260.8L374.9,252.3L391.7,243.8L408.6,236.7L425.4,231.1L442.2,228.2L459.1,224.0L475.9,208.4L492.8,207.0L509.6,200.0L526.4,190.0L543.3,183.0L560.1,177.3L576.9,177.3L593.8,177.3L610.6,177.3L627.4,177.3L644.3,177.3L661.1,168.8L678.0,157.5L694.8,153.3L711.6,144.8L728.5,139.1L745.3,130.6L762.1,117.9L779.0,110.8L795.8,103.8L812.7,96.7L829.5,84.0L846.3,75.5L863.2,64.1L880.0,57.1L880.0,340.0L55.0,340.0Z" fill="url(#gO)"/>
  <path d="M55.0,338.6L71.8,338.6L88.7,338.6L105.5,338.6L122.3,338.6L139.2,338.6L156.0,338.6L172.9,338.6L189.7,338.6L206.5,338.6L223.4,338.6L240.2,338.6L257.0,338.6L273.9,338.6L290.7,338.6L307.6,334.3L324.4,334.3L341.2,334.3L358.1,334.3L374.9,334.3L391.7,334.3L408.6,334.3L425.4,332.9L442.2,328.7L459.1,328.7L475.9,327.3L492.8,327.3L509.6,327.3L526.4,327.3L543.3,327.3L560.1,324.4L576.9,324.4L593.8,324.4L610.6,324.4L627.4,324.4L644.3,324.4L661.1,324.4L678.0,321.6L694.8,304.6L711.6,304.6L728.5,304.6L745.3,304.6L762.1,293.3L779.0,293.3L795.8,293.3L812.7,293.3L829.5,293.3L846.3,290.5L863.2,290.5L880.0,289.1L880.0,340.0L55.0,340.0Z" fill="url(#gR)"/>
  <path d="M55.0,340.0L71.8,323.0L88.7,313.1L105.5,307.5L122.3,299.0L139.2,293.3L156.0,289.1L172.9,289.1L189.7,289.1L206.5,289.1L223.4,289.1L240.2,289.1L257.0,289.1L273.9,289.1L290.7,287.7L307.6,282.0L324.4,276.3L341.2,269.3L358.1,260.8L374.9,252.3L391.7,243.8L408.6,236.7L425.4,231.1L442.2,228.2L459.1,224.0L475.9,208.4L492.8,207.0L509.6,200.0L526.4,190.0L543.3,183.0L560.1,177.3L576.9,177.3L593.8,177.3L610.6,177.3L627.4,177.3L644.3,177.3L661.1,168.8L678.0,157.5L694.8,153.3L711.6,144.8L728.5,139.1L745.3,130.6L762.1,117.9L779.0,110.8L795.8,103.8L812.7,96.7L829.5,84.0L846.3,75.5L863.2,64.1L880.0,57.1" fill="none" stroke="#58a6ff" stroke-width="2.5" stroke-linecap="round" stroke-linejoin="round"/>
  <path d="M55.0,338.6L71.8,338.6L88.7,338.6L105.5,338.6L122.3,338.6L139.2,338.6L156.0,338.6L172.9,338.6L189.7,338.6L206.5,338.6L223.4,338.6L240.2,338.6L257.0,338.6L273.9,338.6L290.7,338.6L307.6,334.3L324.4,334.3L341.2,334.3L358.1,334.3L374.9,334.3L391.7,334.3L408.6,334.3L425.4,332.9L442.2,328.7L459.1,328.7L475.9,327.3L492.8,327.3L509.6,327.3L526.4,327.3L543.3,327.3L560.1,324.4L576.9,324.4L593.8,324.4L610.6,324.4L627.4,324.4L644.3,324.4L661.1,324.4L678.0,321.6L694.8,304.6L711.6,304.6L728.5,304.6L745.3,304.6L762.1,293.3L779.0,293.3L795.8,293.3L812.7,293.3L829.5,293.3L846.3,290.5L863.2,290.5L880.0,289.1" fill="none" stroke="#f78166" stroke-width="2.5" stroke-linecap="round" stroke-linejoin="round"/>
  <path d="M55.0,340.0L71.8,330.1L88.7,323.0L105.5,320.2L122.3,313.1L139.2,314.5L156.0,310.3L172.9,311.7L189.7,311.7L206.5,313.1L223.4,313.1L240.2,313.1L257.0,313.1L273.9,313.1L290.7,311.7L307.6,310.3L324.4,308.9L341.2,304.6L358.1,296.1L374.9,290.5L391.7,284.8L408.6,280.6L425.4,280.6L442.2,282.0L459.1,284.8L475.9,279.2L492.8,277.8L509.6,277.8L526.4,273.5L543.3,280.6L560.1,276.3L576.9,276.3L593.8,276.3L610.6,276.3L627.4,284.8L644.3,284.8L661.1,283.4L678.0,290.5L694.8,340.0L711.6,340.0L728.5,340.0L745.3,340.0L762.1,334.3L779.0,334.3L795.8,331.5L812.7,331.5L829.5,330.1L846.3,325.9L863.2,327.3L880.0,325.9" fill="none" stroke="#3fb950" stroke-width="2.5" stroke-linecap="round" stroke-linejoin="round"/>
  <path d="M55.0,340.0L71.8,340.0L88.7,338.6L105.5,337.2L122.3,337.2L139.2,335.8L156.0,335.8L172.9,334.3L189.7,334.3L206.5,334.3L223.4,334.3L240.2,334.3L257.0,334.3L273.9,334.3L290.7,334.3L307.6,332.9L324.4,330.1L341.2,328.7L358.1,328.7L374.9,328.7L391.7,325.9L408.6,325.9L425.4,325.9L442.2,324.4L459.1,324.4L475.9,316.0L492.8,316.0L509.6,310.3L526.4,306.0L543.3,300.4L560.1,299.0L576.9,299.0L593.8,299.0L610.6,299.0L627.4,296.1L644.3,296.1L661.1,293.3L678.0,289.1L694.8,286.2L711.6,277.8L728.5,272.1L745.3,263.6L762.1,259.4L779.0,253.7L795.8,250.9L812.7,243.8L829.5,232.5L846.3,228.2L863.2,219.8L880.0,215.5" fill="none" stroke="#d2a8ff" stroke-width="2.5" stroke-linecap="round" stroke-linejoin="round"/>
  <path d="M55.0,340.0L71.8,332.9L88.7,331.5L105.5,330.1L122.3,328.7L139.2,323.0L156.0,323.0L172.9,323.0L189.7,323.0L206.5,321.6L223.4,321.6L240.2,321.6L257.0,321.6L273.9,321.6L290.7,321.6L307.6,318.8L324.4,317.4L341.2,316.0L358.1,316.0L374.9,313.1L391.7,313.1L408.6,310.3L425.4,304.6L442.2,301.8L459.1,294.7L475.9,293.3L492.8,293.3L509.6,291.9L526.4,290.5L543.3,282.0L560.1,282.0L576.9,282.0L593.8,282.0L610.6,282.0L627.4,276.3L644.3,276.3L661.1,272.1L678.0,258.0L694.8,207.0L711.6,207.0L728.5,207.0L745.3,207.0L762.1,204.2L779.0,202.8L795.8,201.4L812.7,201.4L829.5,201.4L846.3,201.4L863.2,197.1L880.0,195.7" fill="none" stroke="#f85149" stroke-width="2.5" stroke-linecap="round" stroke-linejoin="round"/>
  <circle cx="880.0" cy="57.1" r="3.5" fill="#58a6ff"/>
  <text x="889.0" y="61.1" fill="#58a6ff" font-size="11" font-weight="600" font-family="-apple-system,BlinkMacSystemFont,Segoe UI,Helvetica,Arial,sans-serif">200</text>
  <circle cx="880.0" cy="289.1" r="3.5" fill="#f78166"/>
  <text x="889.0" y="293.1" fill="#f78166" font-size="11" font-weight="600" font-family="-apple-system,BlinkMacSystemFont,Segoe UI,Helvetica,Arial,sans-serif">36</text>
  <circle cx="880.0" cy="325.9" r="3.5" fill="#3fb950"/>
  <text x="889.0" y="329.9" fill="#3fb950" font-size="11" font-weight="600" font-family="-apple-system,BlinkMacSystemFont,Segoe UI,Helvetica,Arial,sans-serif">10</text>
  <circle cx="880.0" cy="215.5" r="3.5" fill="#d2a8ff"/>
  <text x="889.0" y="219.5" fill="#d2a8ff" font-size="11" font-weight="600" font-family="-apple-system,BlinkMacSystemFont,Segoe UI,Helvetica,Arial,sans-serif">88</text>
  <circle cx="880.0" cy="195.7" r="3.5" fill="#f85149"/>
  <text x="889.0" y="199.7" fill="#f85149" font-size="11" font-weight="600" font-family="-apple-system,BlinkMacSystemFont,Segoe UI,Helvetica,Arial,sans-serif">102</text>
  <line x1="55" y1="368" x2="71" y2="368" stroke="#f78166" stroke-width="2.5" stroke-linecap="round"/>
  <text x="77" y="372" fill="#8b949e" font-size="11" font-family="-apple-system,BlinkMacSystemFont,Segoe UI,Helvetica,Arial,sans-serif">Repos</text>
  <line x1="255" y1="368" x2="271" y2="368" stroke="#58a6ff" stroke-width="2.5" stroke-linecap="round"/>
  <text x="277" y="372" fill="#8b949e" font-size="11" font-family="-apple-system,BlinkMacSystemFont,Segoe UI,Helvetica,Arial,sans-serif">PRs Opened</text>
  <line x1="455" y1="368" x2="471" y2="368" stroke="#3fb950" stroke-width="2.5" stroke-linecap="round"/>
  <text x="477" y="372" fill="#8b949e" font-size="11" font-family="-apple-system,BlinkMacSystemFont,Segoe UI,Helvetica,Arial,sans-serif">Open PRs</text>
  <line x1="55" y1="386" x2="71" y2="386" stroke="#d2a8ff" stroke-width="2.5" stroke-linecap="round"/>
  <text x="77" y="390" fill="#8b949e" font-size="11" font-family="-apple-system,BlinkMacSystemFont,Segoe UI,Helvetica,Arial,sans-serif">Merged</text>
  <line x1="255" y1="386" x2="271" y2="386" stroke="#f85149" stroke-width="2.5" stroke-linecap="round"/>
  <text x="277" y="390" fill="#8b949e" font-size="11" font-family="-apple-system,BlinkMacSystemFont,Segoe UI,Helvetica,Arial,sans-serif">Closed</text>
</svg>